<svg width="700" height="428" viewBox="0 0 700 428" fill="none" xmlns="http://www.w3.org/2000/svg">
<g style="mix-blend-mode:darken" clip-path="url(#clip0_6607_2556)">
<path d="M40.793 288L41.0721 283.999L161.482 164.226H168.161V140.293H558.854V164.219H659.5V287.993H471.573V271.158H238.67L221.898 287.993H215.069L231.698 271.158H208.984L192.213 287.993H185.384L202.012 271.158H179.299L162.527 287.993H155.698L172.327 271.158H168.168V253.139L132.842 287.993H126.013L168.168 245.898V223.592L103.149 287.993H96.6206C97.4796 286.403 99.0401 285.461 100.178 284.298C122.469 261.613 145.497 238.972 168.168 216.358V194.051L73.7498 288H66.6273L168.161 186.825V164.519L43.7637 288H40.793ZM555.59 143.546H171.425V267.912H471.573V164.226H555.59V143.546ZM529.762 219.461H538.818L551.431 239.121C552.075 239.535 557.193 236.653 557.336 236.09C557.601 235.077 547.415 221.18 546.391 219.012C548.109 218.206 549.77 218.02 551.402 216.922C557.816 212.592 557.665 198.924 551.882 194.044C550.801 193.131 547.544 191.391 546.234 191.391H523.377L522.933 191.833V237.324C522.933 237.374 523.621 238.066 523.678 238.066H529.319L529.762 237.623V219.454V219.461ZM599.227 191.398C599.32 191.69 598.933 192.04 598.933 192.14V226.702C598.933 228.193 597.573 230.875 596.17 231.638C593.242 233.236 582.877 233.343 580.364 230.996C579.577 230.261 578.439 227.13 578.439 226.117V191.847L577.995 191.405H572.061L571.603 192.425C573.034 202.833 568.782 224.119 574.044 232.858C578.711 240.605 595.984 240.926 601.897 234.898C603.701 233.058 605.755 228.328 605.755 225.824V191.412H599.227V191.398ZM500.299 230.475C499.805 230.554 499.132 230.697 498.724 230.975C497.321 231.931 497.457 236.318 498.323 237.602C499.354 239.143 504.429 239.128 505.381 237.295C505.861 236.375 505.94 232.594 505.496 231.645C504.837 230.226 501.666 230.261 500.299 230.468V230.475Z" fill="black"/>
<path d="M40.7935 288H40.5V140H659.5V164.226H558.854V140.292H168.161V164.218H161.482L41.0798 283.991L40.8006 287.993L40.7935 288ZM49.4049 164.226H42.7262C42.5902 164.226 40.7935 166.009 40.7935 166.145V172.793L49.4049 164.226ZM79.0976 164.226H72.4189L40.7935 195.685V202.333L79.0904 164.226H79.0976ZM108.783 164.226H102.104L40.7935 225.225V231.873L108.783 164.226ZM138.469 164.226H131.79L40.7935 254.765V261.413L138.469 164.226Z" fill="white"/>
<path d="M221.891 287.999L238.663 271.164H471.565V287.999H251.576C251.655 287.421 253.359 285.923 253.359 285.781V279.432L244.747 287.999H221.891Z" fill="white"/>
<path d="M43.7656 288.001L168.163 164.52V186.826L66.6292 288.001H43.7656Z" fill="white"/>
<path d="M73.75 288L168.161 194.059V216.365C145.498 238.986 122.462 261.628 100.171 284.305C99.0331 285.468 97.4655 286.41 96.6136 288H73.7572H73.75Z" fill="white"/>
<path d="M103.141 287.999L168.159 223.598V245.904L125.997 287.999H103.141Z" fill="white"/>
<path d="M132.828 287.998L168.162 253.137V271.156H172.313L155.692 287.998H132.828Z" fill="white"/>
<path d="M162.52 287.999L179.291 271.156H202.005L185.376 287.999H162.52Z" fill="white"/>
<path d="M192.207 287.999L208.979 271.156H231.692L215.071 287.999H192.207Z" fill="white"/>
<path d="M251.583 288.001H244.754L253.365 279.434V285.782C253.365 285.925 251.662 287.416 251.583 288.001Z" fill="black"/>
<path d="M555.591 143.547V164.227H471.573V267.913H171.426V143.547H555.591ZM332.867 190.307C322.273 190.971 317.512 194.887 316.052 205.48C314.993 213.199 314.771 228.422 320.447 234.393C325.093 239.279 334.771 239.322 341.049 238.63C342.037 238.523 347.606 237.667 347.942 237.211C348.071 236.362 347.234 231.461 346.697 231.304C341.886 232.638 336.31 233.223 331.328 232.731C324.993 232.103 323.762 228.215 323.132 222.572C322.559 217.429 322.223 203.062 325.379 199.117C327.348 196.656 330.97 196.25 333.962 196.143C338.035 195.993 342.567 196.713 346.446 197.912C346.854 197.947 346.962 197.741 347.105 197.412C347.248 197.084 348.028 193.168 348.043 192.704C348.057 192.319 348.1 192.134 347.763 191.855C346.217 190.593 335.229 190.172 332.853 190.322L332.867 190.307ZM240.26 191.442L231.241 191.691L216.545 237.339C217.79 237.403 221.749 239.215 222.507 238.245L226.609 225.547L244.562 225.412L249.05 238.38C249.279 238.701 249.53 238.644 249.866 238.609C250.539 238.545 254.068 237.717 254.698 237.474C254.985 237.367 255.3 237.36 255.421 237.011L240.26 191.434V191.442ZM290.626 191.399H268.356L267.913 191.841V237.332C267.913 237.382 268.6 238.074 268.657 238.074H274.004L274.448 237.631V219.612L274.892 219.17H283.503L296.209 238.88C296.56 239.194 296.796 239.158 297.219 239.037C297.541 238.944 301.542 236.847 301.85 236.618C302.051 236.476 302.194 236.29 302.222 236.041C302.344 235.035 292.301 221.082 291.077 219.02C290.984 218.371 291.163 218.67 291.521 218.585C297.512 217.194 300.383 214.112 300.884 207.806C301.471 200.394 299.166 192.405 290.633 191.399H290.626ZM368.551 210.31V191.848L368.107 191.406H362.023V237.639L362.467 238.081H367.814C367.914 238.081 368.265 237.688 368.558 237.788V216.224H389.045V237.639L389.489 238.081H394.836C394.887 238.081 395.581 237.396 395.581 237.339V191.848L395.137 191.406H389.053V210.31H368.565H368.551ZM420.213 191.399H414.128L413.684 191.841V237.774C413.978 237.681 414.329 238.067 414.429 238.067H419.776L420.22 237.624V191.392L420.213 191.399Z" fill="white"/>
<path d="M529.763 219.462V237.631L529.319 238.073H523.678C523.628 238.073 522.934 237.389 522.934 237.331V191.841L523.377 191.398H546.234C547.544 191.398 550.801 193.139 551.882 194.052C557.666 198.931 557.816 212.592 551.402 216.929C549.77 218.028 548.109 218.213 546.391 219.02C547.415 221.181 557.601 235.084 557.336 236.097C557.193 236.654 552.075 239.543 551.431 239.129L538.818 219.469H529.763V219.462ZM529.763 213.855H544.459C544.566 213.855 546.27 213.298 546.47 213.199C549.57 211.615 549.498 200.094 547.265 198.068C547.064 197.883 545.196 197.02 545.053 197.02H529.763V213.855Z" fill="white"/>
<path d="M599.228 191.397H605.757V225.809C605.757 228.313 603.702 233.043 601.899 234.883C595.986 240.918 578.706 240.597 574.046 232.843C568.784 224.104 573.036 202.818 571.605 192.41L572.063 191.39H577.997L578.441 191.832V226.102C578.441 227.115 579.579 230.246 580.366 230.981C582.879 233.328 593.237 233.228 596.172 231.623C597.568 230.86 598.935 228.178 598.935 226.687V192.125C598.935 192.025 599.329 191.675 599.228 191.383V191.397Z" fill="white"/>
<path d="M500.298 230.476C501.658 230.262 504.829 230.233 505.495 231.653C505.939 232.602 505.853 236.382 505.381 237.303C504.436 239.129 499.36 239.15 498.322 237.609C497.463 236.318 497.32 231.931 498.723 230.982C499.131 230.704 499.804 230.561 500.298 230.483V230.476Z" fill="white"/>
<path d="M138.468 164.227L40.793 261.414V254.766L131.789 164.227H138.468Z" fill="black"/>
<path d="M108.783 164.227L40.793 231.874V225.226L102.104 164.227H108.783Z" fill="black"/>
<path d="M79.0971 164.227L40.793 202.334V195.686L72.4112 164.227H79.0971Z" fill="black"/>
<path d="M49.4044 164.227L40.793 172.794V166.145C40.793 166.01 42.5897 164.227 42.7257 164.227H49.4044Z" fill="black"/>
<path d="M290.627 191.398C299.159 192.404 301.464 200.394 300.877 207.806C300.376 214.112 297.506 217.193 291.514 218.584C291.164 218.67 290.977 218.363 291.071 219.02C292.295 221.081 302.338 235.034 302.216 236.04C302.187 236.29 302.044 236.468 301.844 236.618C301.536 236.846 297.534 238.944 297.212 239.036C296.79 239.158 296.561 239.193 296.203 238.879L283.497 219.169H274.886L274.442 219.612V237.631L273.998 238.073H268.651C268.601 238.073 267.906 237.389 267.906 237.331V191.841L268.35 191.398H290.62H290.627ZM274.442 197.013V213.405L274.886 213.848H290.025C290.92 213.848 292.452 212.478 292.86 211.643C294.134 209.054 294.299 200.722 292.409 198.475C292.116 198.125 290.62 197.005 290.319 197.005H274.435L274.442 197.013Z" fill="black"/>
<path d="M368.55 210.31H389.038V191.406H395.122L395.566 191.849V237.339C395.566 237.389 394.879 238.081 394.821 238.081H389.474L389.03 237.639V216.224H368.543V237.789C368.25 237.696 367.899 238.081 367.799 238.081H362.452L362.008 237.639V191.406H368.092L368.536 191.849V210.31H368.55Z" fill="black"/>
<path d="M240.258 191.441L255.42 237.018C255.298 237.367 254.976 237.374 254.697 237.481C254.067 237.724 250.545 238.551 249.865 238.616C249.528 238.644 249.278 238.701 249.049 238.387L244.561 225.419L226.608 225.554L222.506 238.252C221.747 239.222 217.789 237.41 216.543 237.346L231.239 191.698L240.258 191.449V191.441ZM242.971 219.762L235.699 195.829L228.426 219.762H242.971Z" fill="black"/>
<path d="M332.867 190.306C335.244 190.156 346.232 190.577 347.778 191.84C348.114 192.111 348.071 192.304 348.057 192.689C348.036 193.153 347.27 197.055 347.119 197.397C346.969 197.739 346.869 197.932 346.461 197.896C342.581 196.705 338.05 195.977 333.977 196.127C330.977 196.234 327.362 196.648 325.394 199.102C322.23 203.047 322.573 217.414 323.146 222.557C323.776 228.2 325.007 232.088 331.342 232.715C336.325 233.207 341.901 232.623 346.711 231.289C347.248 231.453 348.086 236.346 347.957 237.195C347.62 237.652 342.051 238.508 341.063 238.615C334.778 239.307 325.108 239.264 320.462 234.377C314.785 228.407 315.007 213.184 316.067 205.465C317.52 194.872 322.287 190.948 332.881 190.292L332.867 190.306Z" fill="black"/>
<path d="M420.211 191.398V237.631L419.768 238.073H414.42C414.32 238.073 413.969 237.681 413.676 237.781V191.848L414.12 191.406H420.204L420.211 191.398Z" fill="black"/>
<path d="M529.762 213.855V197.02H545.052C545.195 197.02 547.063 197.883 547.264 198.068C549.497 200.101 549.569 211.615 546.469 213.198C546.269 213.298 544.565 213.855 544.458 213.855H529.762Z" fill="black"/>
<path d="M274.441 197.012H290.326C290.626 197.012 292.122 198.132 292.416 198.481C294.306 200.728 294.141 209.06 292.867 211.65C292.459 212.477 290.927 213.854 290.032 213.854H274.892L274.449 213.412V197.019L274.441 197.012Z" fill="white"/>
<path d="M242.971 219.761H228.426L235.699 195.828L242.971 219.761Z" fill="white"/>
</g>
<defs>
<clipPath id="clip0_6607_2556">
<rect width="619" height="148" fill="white" transform="translate(40.5 140)"/>
</clipPath>
</defs>
</svg>
