<svg width="700" height="428" viewBox="0 0 700 428" fill="none" xmlns="http://www.w3.org/2000/svg">
<path d="M172.559 154.573C172.559 159.433 172.009 165.203 170.919 171.883H168.919C167.829 173.463 166.379 176.183 164.589 180.043C162.799 183.903 160.929 187.303 158.989 190.253C157.039 193.203 154.799 195.373 152.249 196.773L152.979 198.963L145.779 203.063C143.589 206.223 141.689 209.593 140.079 213.183C138.469 216.773 136.709 221.323 134.789 226.853C132.879 232.383 131.679 235.783 131.189 237.063C131.129 237.303 130.959 237.653 130.689 238.113C130.419 238.573 130.199 238.983 130.049 239.343C129.899 239.703 129.759 240.103 129.639 240.523C129.519 240.953 129.529 241.313 129.689 241.613C129.839 241.923 130.159 242.133 130.649 242.253C131.009 242.373 131.679 240.943 132.649 237.973C133.559 235.913 134.839 232.493 136.479 227.723C138.119 222.953 139.759 218.713 141.399 215.013C143.039 211.313 144.859 208.333 146.869 206.083C147.959 205.723 148.389 205.843 148.149 206.443C148.149 206.503 147.839 206.993 147.239 207.903C145.289 211.183 143.499 214.813 141.859 218.793C140.219 222.773 138.489 227.343 136.669 232.513C134.849 237.673 133.329 241.753 132.109 244.723C130.289 248.913 129.029 252.893 128.329 256.663C127.629 260.433 127.519 263.283 128.009 265.233C125.089 264.263 121.999 262.893 118.709 261.133V255.213C117.489 256.243 116.799 257.733 116.609 259.683C111.929 256.223 108.499 251.543 106.309 245.653C106.309 239.333 107.489 232.313 109.859 224.603C112.229 216.893 115.459 209.093 119.559 201.233C123.659 193.363 127.669 186.103 131.589 179.453C135.509 172.803 139.809 165.723 144.489 158.223C149.169 150.723 152.509 145.143 154.509 141.503C155.789 139.803 157.639 138.953 160.069 138.953C160.679 138.953 162.619 139.383 165.899 140.233V144.703C167.779 145.433 169.359 146.753 170.639 148.663C171.919 150.573 172.549 152.573 172.549 154.633L172.559 154.573ZM129.269 245.433C128.779 244.943 128.389 244.633 128.089 244.473C127.779 244.323 127.589 244.323 127.499 244.473C127.409 244.623 127.349 244.813 127.319 245.023C127.289 245.233 127.289 245.483 127.319 245.753C127.349 246.023 127.329 246.223 127.269 246.343L125.169 251.443C125.109 251.623 125.139 251.883 125.259 252.213C125.379 252.543 125.559 252.733 125.809 252.763C126.049 252.793 126.359 252.533 126.719 251.993L129.269 245.433Z" fill="#010101"/>
<path d="M264.769 188.474C268.289 182.944 272.759 176.624 278.169 169.524C283.579 162.414 288.739 156.494 293.659 151.754C296.029 150.294 299.279 149.474 303.409 149.294C310.399 149.114 315.439 150.114 318.539 152.304L314.799 154.944L315.159 155.674C315.829 155.674 316.859 155.464 318.259 155.034C319.659 154.614 320.629 154.214 321.179 153.854L326.369 159.414C321.019 161.904 314.689 166.084 307.369 171.944C300.049 177.804 294.169 183.774 289.739 189.854C289.429 190.404 288.949 190.494 288.279 190.124C287.609 189.764 287.129 189.664 286.819 189.854C286.759 191.434 286.439 192.984 285.859 194.504C285.279 196.024 284.679 197.274 284.039 198.244C283.399 199.214 282.429 200.644 281.119 202.524C279.809 204.404 278.759 205.954 277.979 207.174C277.669 207.724 277.419 208.754 277.209 210.274C276.999 211.794 276.709 213.004 276.339 213.924C276.339 214.284 275.819 214.894 274.789 215.744C273.759 216.594 273.149 217.294 272.969 217.844C271.879 221.184 270.579 224.904 269.099 229.004C267.609 233.104 266.289 236.604 265.139 239.484C263.989 242.374 262.419 246.304 260.449 251.284C258.469 256.264 256.999 259.974 256.029 262.404L247.649 258.484L246.469 261.124C243.489 260.334 241.139 259.454 239.409 258.484C237.679 257.514 236.299 256.114 235.259 254.294C234.229 252.474 233.509 250.684 233.119 248.914C232.719 247.154 232.279 244.444 231.799 240.804C231.679 239.594 231.689 236.594 231.849 231.824C231.999 227.054 231.829 224.244 231.349 223.394C230.069 219.564 229.399 216.054 229.349 212.864C229.289 209.674 229.459 206.514 229.849 203.384C230.239 200.254 230.319 197.534 230.079 195.224L229.169 187.934C226.189 188.904 223.169 190.804 220.099 193.634C217.029 196.464 214.309 200.004 211.939 204.254L212.579 207.174C210.579 211.004 206.519 219.734 200.409 233.374C194.309 247.014 189.639 255.964 186.419 260.214H181.229C179.649 260.214 178.149 259.164 176.719 257.074C175.289 254.974 174.049 252.764 172.979 250.424C171.919 248.084 171.109 246.794 170.559 246.554L169.469 238.354C169.289 237.264 169.199 236.254 169.199 235.344C169.199 234.434 169.279 233.584 169.429 232.794C169.579 232.004 169.749 231.364 169.929 230.884C170.109 230.394 170.369 229.734 170.699 228.884C171.029 228.034 171.289 227.394 171.469 226.974C173.289 222.544 175.249 218.284 177.349 214.214C179.449 210.144 181.869 206.124 184.639 202.144C187.399 198.164 189.709 194.864 191.569 192.254C193.419 189.644 196.089 186.424 199.589 182.594C203.079 178.764 205.439 176.164 206.649 174.804C207.859 173.434 210.419 170.794 214.299 166.874C218.189 162.954 220.339 160.784 220.769 160.354C224.289 161.694 228.789 164.334 234.259 168.284C239.729 172.234 243.069 175.754 244.279 178.854C244.949 180.494 245.649 182.694 246.379 185.464C247.109 188.234 247.909 191.694 248.799 195.854C249.679 200.014 250.269 202.674 250.579 203.824C257.079 192.464 264.129 181.314 271.719 170.384C279.309 159.444 284.109 153.614 286.119 152.884L290.039 152.334C287.849 154.464 285.729 156.704 283.659 159.074C281.589 161.444 279.569 163.964 277.599 166.634C275.619 169.304 274.109 171.374 273.039 172.834C271.979 174.294 270.519 176.424 268.669 179.214C266.819 182.004 265.829 183.494 265.709 183.684C264.189 186.294 263.519 187.664 263.709 187.784L264.799 188.514L264.769 188.474ZM221.299 165.974L219.749 164.794L215.649 169.074C216.199 169.314 216.639 169.484 216.969 169.574C217.299 169.664 217.729 169.524 218.249 169.164C218.769 168.804 219.159 168.464 219.439 168.164C219.709 167.864 220.049 167.464 220.439 166.984C220.829 166.494 221.119 166.164 221.309 165.984L221.299 165.974ZM276.349 217.824L275.439 224.204L273.709 223.024C273.769 222.054 273.829 221.334 273.889 220.884C273.949 220.424 274.069 219.854 274.249 219.154C274.429 218.454 274.689 218.004 275.019 217.784C275.349 217.574 275.789 217.584 276.339 217.834L276.349 217.824ZM291.469 182.004C291.589 181.824 291.559 181.614 291.379 181.364C291.199 181.124 290.979 180.954 290.739 180.864C290.499 180.774 290.309 180.784 290.189 180.914C290.069 181.154 289.839 181.504 289.509 181.964C289.179 182.424 288.899 182.814 288.689 183.154C288.479 183.484 288.229 183.884 287.959 184.334C287.689 184.794 287.489 185.184 287.369 185.524C287.249 185.854 287.139 186.194 287.049 186.524C286.959 186.864 286.959 187.144 287.049 187.394C287.139 187.634 287.309 187.824 287.549 187.944L291.469 182.024V182.004ZM287.739 160.134C288.099 160.864 288.589 161.164 289.199 161.044L292.389 156.944L290.929 156.214C289.839 157.064 288.769 158.374 287.739 160.134ZM296.299 175.264C296.419 175.144 296.439 174.934 296.349 174.624C296.259 174.324 296.089 174.124 295.849 174.034C295.609 173.944 295.329 174.054 295.029 174.354L291.289 179.184C292.199 179.064 292.749 179.364 292.929 180.094L296.299 175.264ZM312.709 156.214L309.159 158.854L309.619 160.494C309.859 160.374 310.289 160.114 310.899 159.724C311.509 159.334 311.899 159.054 312.079 158.904C312.259 158.754 312.429 158.434 312.579 157.944C312.729 157.454 312.779 156.884 312.719 156.214H312.709Z" fill="#010101"/>
<path d="M404.37 152.844C383.53 168.584 366.98 184.074 354.71 199.324C350.21 204.974 341.22 216.474 327.74 233.814C314.25 251.164 305.08 262.744 300.22 268.584L299.86 271.774C291.96 281.124 286.07 286.904 282.18 289.084V281.614C282.54 280.764 283.76 278.214 285.83 273.964L284.55 272.144L289.02 265.034L290.02 265.584C310.07 226.704 337.74 187.634 373.04 148.394L388.35 138.914C393.39 139.344 397.92 140.584 401.93 142.654L403.3 147.844L399.38 149.944L400.11 152.314L404.03 151.034L404.39 152.854L404.37 152.844ZM304.49 260.194V257.734L299.66 264.294L299.84 265.934L304.49 260.194Z" fill="#010101"/>
<path d="M484.918 164.963C485.038 165.513 484.858 166.023 484.368 166.513C483.878 167.003 483.128 167.563 482.088 168.203C481.058 168.843 480.388 169.283 480.088 169.523C473.468 172.503 464.018 175.193 451.748 177.583C439.478 179.983 431.998 181.583 429.328 182.363C429.148 182.673 428.108 184.353 426.228 187.423C424.348 190.493 422.768 193.023 421.488 195.033C423.918 194.793 428.788 193.543 436.118 191.293C443.438 189.043 448.008 187.923 449.828 187.923C452.438 187.923 454.418 188.483 455.748 189.613C457.078 190.743 458.788 193.063 460.848 196.583C460.118 198.713 460.818 200.323 462.948 201.413L461.578 205.513C435.698 209.643 419.538 213.133 413.098 215.993C410.968 216.903 408.908 220.793 406.898 227.653C404.898 234.523 403.828 239.563 403.708 242.783C407.718 245.763 414.398 246.153 423.758 243.963L424.848 245.783C425.518 245.783 426.188 245.553 426.848 245.103C427.518 244.643 427.848 244.143 427.848 243.603C428.758 243.483 429.808 244.073 430.988 245.383C432.168 246.693 433.218 247.223 434.128 246.983C440.138 245.343 452.108 241.603 470.038 235.773C470.888 235.473 471.378 235.533 471.498 235.953C471.738 236.503 470.588 237.413 468.038 238.683C467.858 238.743 467.708 238.803 467.588 238.863L454.918 243.603C456.198 244.453 457.678 245.363 459.388 246.333C459.808 246.453 459.808 246.663 459.388 246.973C459.268 247.033 459.148 247.093 459.028 247.153C451.498 249.703 441.048 252.683 427.678 256.083C430.528 257.363 433.998 257.483 438.068 256.443C444.388 254.683 453.348 251.763 464.948 247.693C465.308 247.573 465.538 247.493 465.628 247.463C465.718 247.433 465.888 247.493 466.128 247.643C466.368 247.793 466.278 248.173 465.858 248.783C464.708 250.733 462.968 252.093 460.668 252.883C442.748 259.743 429.688 263.183 421.478 263.183C409.818 263.183 400.718 260.223 394.188 254.293C387.658 248.373 384.578 238.943 384.938 225.993C384.998 222.713 385.808 218.853 387.348 214.423C388.898 209.993 390.588 205.933 392.408 202.253C394.228 198.573 397.038 193.023 400.838 185.573C404.638 178.133 407.778 171.833 410.268 166.663C409.238 161.373 410.118 156.643 412.908 152.443C414.608 152.623 416.308 152.303 418.008 151.483C419.708 150.663 421.228 149.583 422.568 148.253C423.898 146.913 425.198 145.563 426.438 144.193C427.678 142.823 428.978 141.653 430.308 140.683C431.648 139.713 432.918 139.223 434.138 139.223C436.688 139.223 441.978 140.403 449.998 142.773C450.178 147.213 449.088 151.673 446.718 156.173C448.358 156.533 450.968 156.913 454.558 157.313C458.138 157.713 460.938 157.903 462.938 157.903L464.578 161.453C464.758 161.453 465.378 161.253 466.448 160.863C467.508 160.473 468.438 160.273 469.228 160.273C469.958 160.273 471.478 160.623 473.788 161.323C476.098 162.023 477.648 162.433 478.438 162.553C478.618 162.553 478.768 162.633 478.888 162.783C479.008 162.933 478.978 163.103 478.798 163.283C477.158 164.743 475.468 165.853 473.738 166.613C472.008 167.373 470.688 167.803 469.778 167.893C468.868 167.983 468.168 168.293 467.678 168.803C467.188 169.323 467.098 170.213 467.408 171.493C468.808 170.883 471.248 169.973 474.748 168.763C478.238 167.553 480.958 166.483 482.898 165.573C483.018 165.513 483.258 165.363 483.628 165.113C484.418 164.443 484.848 164.383 484.908 164.933L484.918 164.963ZM402.618 236.503L401.158 234.593C400.368 238.363 400.548 240.673 401.708 241.523L402.618 236.513V236.503ZM405.998 223.833L404.178 224.013L402.078 230.843L403.358 232.573L405.998 223.823V223.833ZM404.538 220.643V222.643H404.718C404.898 222.403 405.278 221.933 405.858 221.233C406.438 220.533 406.888 219.923 407.228 219.413C407.558 218.893 407.848 218.363 408.098 217.813C406.948 217.753 406.108 217.953 405.588 218.403C405.068 218.863 404.728 219.603 404.538 220.633V220.643ZM419.478 190.943C418.808 190.943 417.978 191.463 416.968 192.493C415.968 193.523 415.338 194.563 415.098 195.593L417.558 195.233L419.468 190.953L419.478 190.943ZM426.138 182.553L423.768 183.103L420.578 188.293L422.948 187.743L426.138 182.553ZM458.668 235.413C457.578 236.693 456.008 237.643 453.978 238.283C451.938 238.923 449.958 239.183 448.008 239.053C446.188 240.453 444.378 241.563 442.588 242.383C440.798 243.203 439.098 243.663 437.488 243.753C435.878 243.843 434.708 243.283 433.978 242.063C441.998 240.363 450.018 237.873 458.038 234.593C458.398 234.413 458.648 234.423 458.768 234.643C458.888 234.853 458.858 235.113 458.678 235.413H458.668ZM469.418 164.423C469.358 164.003 468.828 163.713 467.818 163.553C466.818 163.403 466.038 163.453 465.498 163.693L466.138 165.973L469.418 164.423Z" fill="#010101"/>
<path d="M592.519 154.393L543.309 199.323L545.499 200.053C540.949 203.333 537.599 206.343 535.479 209.073H532.289V214.453C532.289 219.253 534.719 226.153 539.579 235.143H541.219C542.069 236.843 543.269 238.733 544.819 240.793C546.369 242.863 547.809 244.653 549.149 246.173C550.489 247.693 552.399 249.593 554.889 251.873C557.379 254.153 559.139 255.743 560.179 256.653C561.209 257.563 563.049 259.143 565.689 261.393C568.329 263.643 569.709 264.793 569.839 264.853C567.959 265.763 565.629 266.113 562.869 265.903C560.099 265.693 557.869 264.973 556.169 263.763L548.329 258.113C544.869 257.143 542.189 257.263 540.309 258.473C539.699 257.983 539.019 257.453 538.259 256.873C537.499 256.293 536.819 255.793 536.209 255.373C535.599 254.953 534.979 254.493 534.339 254.003C533.699 253.513 533.139 253.073 532.649 252.683C532.159 252.293 531.689 251.883 531.239 251.453C530.789 251.033 530.419 250.633 530.149 250.273C529.879 249.913 529.659 249.543 529.509 249.183C529.359 248.823 529.309 248.473 529.369 248.133C529.429 247.803 529.579 247.483 529.819 247.173C522.169 241.463 517.269 236.363 515.149 231.863L506.129 240.793C505.579 240.373 504.839 240.213 503.899 240.333C502.959 240.453 502.209 240.793 501.669 241.333L488.089 254.543C486.749 254.663 485.199 255.333 483.439 256.543C481.679 257.753 479.949 259.203 478.239 260.873C476.539 262.543 474.819 264.183 473.089 265.793C471.359 267.403 469.519 268.773 467.579 269.893C465.639 271.013 463.809 271.583 462.109 271.583C461.749 271.583 461.559 271.463 461.559 271.223C461.559 270.983 461.819 270.613 462.329 270.133C462.849 269.643 463.419 269.143 464.059 268.633C464.699 268.113 465.109 267.733 465.289 267.493C465.349 267.433 465.409 267.343 465.469 267.223C465.529 267.103 465.589 267.013 465.649 266.953L473.849 259.113L473.489 256.833L466.929 262.843C467.049 261.993 467.159 260.623 467.249 258.743C467.339 256.863 467.489 255.063 467.709 253.363C467.919 251.663 468.299 250.083 468.849 248.623L474.949 242.793C475.439 240.973 476.679 238.573 478.689 235.593L481.329 236.873L491.359 227.303C491.479 227.183 491.829 226.843 492.409 226.303C492.989 225.753 493.399 225.343 493.639 225.073C493.879 224.803 494.249 224.393 494.729 223.843C495.219 223.293 495.579 222.823 495.819 222.433C496.059 222.043 496.339 221.563 496.639 221.023C496.939 220.483 497.139 219.913 497.229 219.333C497.319 218.753 497.369 218.193 497.369 217.643C501.259 214.183 504.239 211.023 506.299 208.163C508.119 207.923 509.429 207.343 510.219 206.433C510.219 206.313 510.159 206.103 510.039 205.793C509.919 205.493 509.859 205.273 509.859 205.153C503.479 182.913 503.849 162.083 510.949 142.633C513.499 140.693 515.199 140.293 516.049 141.453L512.859 151.573C513.409 151.153 513.969 150.513 514.549 149.663C515.129 148.813 515.579 148.013 515.919 147.253C516.249 146.493 516.689 145.473 517.239 144.203C517.789 142.923 518.179 142.013 518.419 141.473C520.789 141.783 522.869 142.433 524.659 143.433C526.449 144.433 527.739 145.453 528.529 146.483C529.319 147.513 530.259 148.453 531.349 149.313C532.439 150.163 533.629 150.623 534.899 150.683L536.909 154.603C535.449 157.643 534.219 161.273 533.219 165.493C532.219 169.713 531.649 173.163 531.529 175.833L530.349 178.663L531.899 179.573C533.719 177.753 539.329 171.873 548.709 161.943C558.099 152.013 565.009 145.013 569.439 140.933H572.359V143.573C572.719 143.393 573.329 142.843 574.179 141.933C575.029 141.023 575.999 140.263 577.099 139.653C578.189 139.043 579.469 138.863 580.929 139.103L579.289 142.113C583.419 142.963 586.849 144.363 589.589 146.303C592.329 148.253 593.689 150.073 593.689 151.773C593.689 152.923 593.289 153.813 592.499 154.413L592.519 154.393ZM478.149 252.723L474.959 255.363L475.509 257.183C477.269 256.333 478.149 254.843 478.149 252.713V252.723ZM487.079 229.213L481.339 234.593L480.069 234.043C480.919 232.953 482.829 230.913 485.809 227.933L487.089 229.213H487.079ZM490.089 226.203L488.269 228.113L486.899 226.743C487.259 226.443 487.799 225.983 488.499 225.373C489.199 224.763 489.729 224.313 490.089 224.003V226.193V226.203ZM544.399 205.523L541.029 209.073H538.479L542.939 204.973L544.399 205.523ZM549.599 262.203L546.499 262.843L541.939 259.653C543.939 258.803 546.499 259.653 549.589 262.203H549.599Z" fill="#010101"/>
</svg>
