<svg width="700" height="428" viewBox="0 0 700 428" fill="none" xmlns="http://www.w3.org/2000/svg">
<path d="M640.994 141.707C629.594 139.667 608.594 139.817 596.554 141.947C580.274 144.857 566.904 150.207 553.614 159.097C548.104 162.797 546.774 163.347 543.394 163.347H539.464L537.104 168.927C535.844 171.997 534.114 174.987 533.254 175.537C532.394 176.087 528.854 176.717 525.464 177.027C518.934 177.497 511.074 180.017 496.364 186.067C489.914 188.737 472.764 194.007 470.484 194.007C470.094 194.007 469.934 192.827 470.094 191.487C470.334 188.657 470.404 188.577 487.394 180.707C497.774 175.907 501.554 173.317 509.964 165.287C521.684 154.117 528.294 144.047 535.524 126.277C540.634 113.617 544.174 101.977 545.514 93.4769C546.614 86.1669 546.304 84.6669 543.314 84.6669C540.324 84.6669 520.744 94.4169 512.014 100.157C489.364 115.017 473.394 136.417 469.304 157.177L468.124 163.307H419.594V166.457C419.594 168.817 417.994 169.474 414.794 168.427C400.954 163.787 381.284 163.787 363.514 168.427L356.514 170.237L353.054 167.797C351.164 166.457 347.314 164.647 344.484 163.707L339.294 162.057L343.074 158.437L346.924 154.897L354.394 154.347C366.904 153.407 378.934 149.787 390.494 143.417C398.754 138.857 417.234 126.347 424.074 120.607C437.994 108.967 451.054 92.6869 451.054 86.8669C451.054 84.8969 450.664 84.7469 445.624 83.5669C432.804 80.6569 419.044 83.2569 400.164 92.1369C395.364 94.4169 388.054 98.2669 383.964 100.707C379.794 103.147 376.254 105.107 376.094 105.107C375.934 105.107 375.544 102.037 375.224 98.1869C374.204 85.7569 370.974 73.8869 365.704 63.4269C363.034 58.0769 354.224 44.5469 353.434 44.5469C353.124 44.5469 350.444 46.9069 347.534 49.8969C333.694 63.7369 328.024 79.1569 328.104 102.357C328.184 118.327 331.404 131.697 338.644 146.167C340.374 149.547 341.714 152.697 341.714 153.247C341.714 153.797 340.064 155.917 338.014 157.967C335.104 160.877 333.764 161.747 331.804 161.747C327.324 161.747 320.954 163.317 315.994 165.597C306.084 170.317 299.474 179.987 298.534 191.477L298.064 197.457L290.594 204.067C279.664 213.737 264.644 225.777 264.164 225.307C263.924 225.067 264.634 220.277 265.654 214.767C272.964 176.777 270.534 147.997 257.864 123.217C255.974 119.517 254.164 116.057 253.774 115.427C252.434 113.537 249.844 115.897 245.354 122.667C234.104 140.047 228.204 157.197 227.104 175.837C226.864 180.397 226.314 184.807 225.924 185.587C225.454 186.607 224.274 186.927 221.364 186.927H217.434V163.327H199.344V224.677H217.434V201.867H221.214C224.754 201.867 225.144 202.027 226.644 204.777C227.514 206.427 229.004 210.597 229.864 214.057C232.224 223.577 235.924 232.457 240.644 239.937C246.304 248.977 246.304 249.137 243.314 252.597C235.844 261.017 212.874 278.157 194.154 289.247L187.704 293.097L183.614 290.347C179.764 287.747 173.154 285.237 170.084 285.237C167.644 285.237 168.514 284.057 174.804 278.787C186.364 268.957 197.374 256.367 206.424 242.687C210.984 235.767 214.294 227.507 212.954 226.167C212.484 225.697 207.924 225.777 200.844 226.247C178.744 227.817 160.964 233.957 146.184 245.197L141.384 248.817L140.834 241.267C140.524 237.097 140.124 231.667 139.814 229.237L139.344 224.677H151.374V163.327H133.284V181.727C133.284 199.427 133.204 200.207 131.714 200.677C130.844 200.917 127.544 203.037 124.244 205.397L118.344 209.647V163.317H100.254V210.507H85.3144V163.317H67.2244V224.667H86.8844C97.7344 224.667 106.544 224.827 106.544 225.057C106.544 225.287 104.814 228.907 102.694 233.157C94.3544 249.757 90.9744 262.807 90.2644 280.507C89.6344 298.517 91.4444 307.957 97.5044 316.997C100.964 322.187 100.804 323.207 95.6144 328.717C90.5844 334.147 88.6944 335.327 61.7144 349.717C37.3544 362.797 29.4844 367.437 29.4844 368.697C29.4844 370.347 34.0444 369.167 38.8444 366.337C41.6744 364.687 51.2744 359.497 60.1544 354.857C69.0444 350.137 78.9544 344.787 82.1744 342.827C93.9744 335.827 111.034 328.037 124.804 323.397L129.994 321.587L130.464 324.807C131.094 328.977 134.794 335.507 138.804 339.517C149.974 350.687 172.074 351.947 184.894 342.187L188.514 339.437L195.674 342.897C209.284 349.507 222.104 352.647 237.914 353.357C250.344 353.987 259.704 352.967 270.714 349.977C276.844 348.327 280.544 347.777 288.884 347.537C296.594 347.377 299.344 347.067 299.034 346.357C298.874 345.807 292.744 332.047 285.504 315.757L272.374 286.027H254.674L249.724 297.277C247.054 303.407 244.534 308.757 244.214 309.077C243.904 309.467 242.244 309.157 240.594 308.447C231.784 304.747 208.584 300.977 194.744 300.977H185.704L187.904 298.697C193.094 293.267 214.884 284.227 262.304 267.867C285.744 259.767 288.334 259.057 293.844 258.977C298.564 258.897 300.604 259.287 303.754 260.787L307.684 262.597L308.624 271.487C309.644 281.557 311.924 289.417 316.644 298.857C321.674 308.847 331.354 323.707 336.154 328.747C339.774 332.527 340.164 333.227 338.754 333.227C337.024 333.227 337.024 333.467 337.024 346.597V359.967H353.544V347.387H358.894C362.594 347.307 366.054 347.937 370.454 349.427C377.374 351.787 380.914 351.627 381.624 348.957C382.014 347.617 382.724 347.387 387.054 347.387H392.084V359.967H408.604V333.227H400.734V286.037H358.894L352.524 280.057C341.124 269.357 330.814 263.537 318.154 260.867C308.084 258.667 301.954 256.227 303.364 254.967C305.014 253.477 326.014 246.237 357.474 236.407C369.584 232.627 378.394 231.527 380.444 233.577C381.234 234.367 381.784 236.957 382.094 241.287C382.724 250.327 385.874 256.467 395.464 267.167C414.974 288.797 436.994 302.637 459.254 307.277C461.694 307.747 463.654 308.297 463.654 308.457C463.654 308.697 459.954 317.187 455.394 327.487C450.834 337.787 447.134 346.437 447.134 346.757C447.134 347.147 451.144 347.387 456.104 347.387H465.074L467.354 341.727L469.634 335.987H495.274L499.674 346.997L509.114 347.237L518.634 347.477L514.704 338.587C512.504 333.707 506.444 319.867 501.174 307.917L491.574 286.057H475.764L472.854 280.077C471.204 276.777 470.104 273.787 470.494 273.467C470.804 273.157 475.924 272.207 481.744 271.267C496.294 268.907 504.084 266.707 507.934 263.717C513.674 259.317 513.674 259.237 505.734 251.767C496.534 243.117 491.494 239.657 482.454 235.877C478.364 234.147 472.934 231.787 470.344 230.607C467.754 229.427 463.344 227.617 460.514 226.597L455.404 224.707H469.954V198.277L477.664 196.467C481.834 195.527 485.924 194.497 486.634 194.347C487.574 194.037 488.994 195.367 491.274 198.517C496.074 205.207 504.254 213.307 509.834 216.917L514.714 220.137L513.534 222.417L512.354 224.697H518.334C522.264 224.697 526.434 225.327 530.914 226.667C542.084 229.887 550.814 231.067 563.794 230.997C577.164 230.997 586.604 229.817 601.704 226.197C613.654 223.287 616.014 222.267 616.724 219.507C617.194 217.777 616.484 216.677 611.454 211.567C608.234 208.347 601.784 202.287 597.064 198.117L588.574 190.567L597.614 188.047C602.644 186.627 610.194 184.117 614.444 182.537C623.724 179.077 646.774 168.067 654.394 163.427C660.844 159.497 670.514 152.257 670.514 151.397C670.514 149.427 654.074 144.007 641.024 141.727L640.994 141.707ZM485.424 131.167C490.374 124.087 504.454 110.327 511.614 105.447C518.534 100.727 537.804 90.1869 539.534 90.1869C541.974 90.1869 540.794 96.6369 535.754 111.817C529.774 129.517 526.554 136.827 520.494 145.947C514.834 154.437 503.504 166.237 496.584 170.877C491.004 174.577 481.404 179.217 477.474 180.157C475.354 180.707 475.274 180.627 475.744 178.507C476.684 174.417 484.004 160.657 488.014 155.307C490.214 152.397 495.174 146.737 499.104 142.727C502.954 138.797 506.104 135.337 506.104 135.177C506.104 135.017 503.984 136.047 501.384 137.457C495.014 140.837 488.094 147.997 480.074 159.317C474.254 167.657 473.384 168.517 472.834 167.027C470.554 161.207 476.924 143.197 485.414 131.167H485.424ZM436.814 87.0469C446.804 87.0469 447.354 87.9869 442.244 95.6969C432.174 110.717 408.584 129.827 386.164 141.237C374.444 147.137 369.414 148.627 359.814 149.027L351.554 149.337L361.304 143.357C377.424 133.367 400.394 116.377 414.474 104.027C416.574 102.194 416.914 101.25 415.494 101.197C414.154 101.197 411.404 102.687 407.864 105.367C379.554 126.447 353.514 143.277 353.514 140.447C353.514 138.557 358.624 130.147 363.344 124.247C380.334 103.087 412.024 86.9669 436.804 87.0469H436.814ZM341.094 141.557C339.364 138.177 337.164 132.987 336.214 129.917C332.514 117.727 331.184 96.8869 333.384 85.2469C335.664 73.5269 342.114 60.8669 349.424 53.7069L352.574 50.7169L354.934 53.9369C360.594 61.7269 366.494 75.3269 368.854 85.7869C370.664 94.0469 370.274 108.207 368.064 112.297C366.494 115.287 355.874 126.927 355.874 125.747C355.874 125.357 355.324 121.027 354.694 116.077C353.904 110.647 353.514 102.947 353.674 96.3369C353.754 90.4369 353.674 85.3269 353.364 85.0869C352.494 84.1469 349.664 89.5669 349.114 93.1869C348.484 97.5869 349.354 112.767 350.764 122.047C351.394 126.447 351.634 130.387 351.234 132.427C350.524 136.127 345.654 147.607 344.784 147.607C344.474 147.607 342.814 144.857 341.084 141.547L341.094 141.557ZM100.894 314.587C96.9644 310.027 94.6044 298.067 94.6044 282.887C94.6044 265.817 97.9844 252.217 106.554 234.357L111.194 224.687H134.714L135.264 229.637C136.284 238.127 135.894 254.487 134.474 262.827C131.324 280.997 124.174 296.567 113.234 308.677C111.194 310.957 109.384 312.687 109.224 312.607C109.064 312.447 109.534 309.457 110.164 306.077C111.504 298.527 112.604 266.127 111.344 268.007C110.004 270.047 108.984 275.797 107.334 290.577C105.844 303.637 104.264 312.207 102.774 314.877C102.224 315.747 101.904 315.747 100.884 314.567L100.894 314.587ZM129.684 312.937C129.374 315.217 129.054 317.267 128.894 317.417C128.424 317.967 105.374 326.937 104.434 326.937C103.884 326.937 103.414 326.627 103.414 326.307C103.414 325.987 104.284 324.497 105.304 323.087C107.504 320.097 111.124 317.507 115.214 315.927C116.704 315.377 120.724 313.487 124.104 311.837L130.234 308.767L129.684 312.937ZM134.874 298.857C132.984 301.847 131.254 303.657 129.364 304.437C127.874 305.067 125.274 306.167 123.704 306.797C122.054 307.507 120.714 307.897 120.714 307.737C120.714 307.577 123.384 302.707 126.694 297.037C129.994 291.297 133.144 284.847 133.854 282.727C136.134 274.937 140.774 271.397 167.914 256.697C177.904 251.267 182.154 248.517 183.484 246.627C184.424 245.287 185.054 243.957 184.904 243.717C184.664 243.557 174.604 248.747 162.484 255.277C150.374 261.807 140.064 267.157 139.594 267.157C138.334 267.157 139.514 259.527 141.244 256.067C143.844 250.877 153.824 243.247 163.974 238.687C173.334 234.437 199.284 228.777 204.634 229.797L207.154 230.267L206.134 233.257C202.834 242.377 195.834 252.447 184.584 264.087C180.024 268.887 173.104 275.337 169.164 278.557C163.104 283.437 161.374 284.377 158.074 284.847C148.404 286.267 139.354 291.687 134.874 298.847V298.857ZM171.764 332.047C167.044 334.247 162.724 334.487 158.154 332.837C153.754 331.267 149.974 327.257 148.634 322.687C146.744 316.317 146.984 315.527 151.234 313.717C153.274 312.847 156.184 311.907 157.764 311.597C160.514 311.047 160.674 311.207 164.214 316.157C166.254 318.987 169.644 323.237 171.924 325.677L175.934 330.077L171.764 332.047ZM263.704 304.987C263.944 305.537 265.594 309.707 267.484 314.187L270.864 322.207H268.744C267.564 322.207 264.734 320.947 262.454 319.377C260.094 317.887 258.444 316.157 258.604 315.677C262.304 306.397 263.404 303.957 263.714 304.977L263.704 304.987ZM245.384 347.067C245.854 346.907 247.274 344.237 248.454 341.167L250.654 335.587L262.924 335.747L275.194 335.987L277.004 338.657C278.024 340.147 278.734 341.957 278.654 342.587C278.344 344.157 270.084 346.987 261.034 348.567C254.824 349.667 237.674 350.057 231.224 349.197C225.484 348.487 212.824 345.497 207.704 343.687C192.444 338.177 179.234 328.747 172.074 318.207L169.554 314.587L174.434 315.377C177.104 315.687 185.684 318.127 193.464 320.647C201.254 323.247 213.444 326.937 220.524 328.907C227.604 330.797 233.584 332.527 233.654 332.687C233.814 332.847 232.554 336.147 230.824 339.997L227.754 346.997L236.094 347.237C240.734 347.317 244.904 347.317 245.374 347.077L245.384 347.067ZM197.014 305.387C211.484 305.467 224.544 307.667 237.594 312.147L242.474 313.797L238.934 321.737C236.964 326.137 235.154 329.917 234.924 330.157C234.614 330.467 232.804 329.997 230.834 329.137C228.864 328.277 222.184 326.067 215.894 324.107C209.604 322.217 200.794 319.387 196.234 317.897C191.674 316.327 184.284 314.047 179.714 312.707C168.384 309.487 168.624 309.637 171.844 308.457C177.424 306.487 186.634 305.387 197.014 305.387ZM382.624 300.187V316.707C382.624 329.837 382.384 333.227 381.604 333.227C380.974 333.227 380.034 330.947 379.164 327.167C377.434 319.777 373.654 308.997 371.144 303.967L369.254 300.187H382.624ZM361.944 330.317C363.514 326.467 365.324 315.377 365.404 308.847L365.484 303.737L368.554 310.107C371.224 315.687 375.554 329.377 375.554 332.287C375.554 332.997 373.514 333.227 368.164 333.227H360.694L361.954 330.317H361.944ZM314.984 271.487C315.854 272.277 318.364 275.817 320.564 279.277C322.764 282.817 325.524 287.067 326.694 288.717C330.944 295.087 346.594 310.507 347.694 309.407C348.714 308.387 345.254 303.197 339.824 297.687C334.004 291.787 318.114 269.057 318.114 266.697C318.114 263.947 328.964 267.247 336.594 272.277C342.414 276.127 352.244 285.337 351.304 285.967C350.834 286.207 350.284 291.787 349.964 298.237C349.724 304.767 349.094 312.867 348.704 316.327C347.914 322.937 345.954 330.087 344.854 330.087C344.544 330.087 341.944 327.647 339.114 324.577C331.804 316.867 326.454 309.087 321.494 298.937C317.404 290.447 313.394 277.387 313.394 272.427C313.394 270.854 313.918 270.54 314.964 271.487H314.984ZM484.404 316.947L485.584 319.857H479.454L480.794 316.317C482.214 312.467 482.604 312.537 484.414 316.947H484.404ZM433.274 203.927C433.514 202.907 433.984 198.417 434.214 193.937C434.684 186.937 435.004 185.447 436.574 183.557C438.934 180.807 438.934 180.257 436.734 178.757C435.084 177.577 435.554 177.497 443.424 177.497H451.844V198.577L447.754 200.307C445.474 201.327 441.144 202.907 438.154 203.927L432.804 205.817L433.274 203.927ZM429.504 216.977C430.524 215.007 431.394 212.967 431.394 212.417C431.394 211.867 432.024 210.997 432.814 210.607C434.544 209.667 450.194 204.237 451.144 204.237C451.534 204.237 451.854 208.637 451.854 214.067C451.854 221.457 451.614 223.897 450.914 223.817C450.364 223.737 447.614 223.267 444.784 222.637C441.954 222.087 438.024 221.617 436.054 221.537C434.014 221.537 431.334 221.297 429.994 221.067L427.634 220.597L429.524 216.977H429.504ZM359.974 173.167C360.134 173.087 363.194 172.297 366.894 171.357C378.224 168.607 387.104 167.817 396.464 168.837C404.094 169.627 417.854 172.927 418.804 174.187C419.044 174.497 419.044 178.277 418.804 182.607L418.414 190.397L412.514 192.917C403.234 196.767 385.384 202.517 375.944 204.637C363.994 207.307 364.544 207.467 365.794 202.517C366.424 200.237 366.894 197.087 366.894 195.437C366.894 192.687 367.054 192.447 370.274 191.657C378.844 189.377 386.474 186.547 385.764 185.837C384.744 184.817 381.434 185.047 374.434 186.937C370.974 187.807 367.744 188.507 367.274 188.507C366.724 188.507 366.094 187.167 365.854 185.517C365.544 183.947 364.124 180.487 362.554 177.967C361.064 175.367 359.884 173.247 359.954 173.167H359.974ZM341.804 179.467L344.474 182.377C346.994 185.047 349.424 191.267 348.484 192.287C346.834 193.937 318.914 195.667 318.914 194.097C318.914 192.447 325.914 187.337 333.544 183.557L341.804 179.467ZM319.314 200.307C319.704 199.757 326.704 198.817 341.734 197.237C345.434 196.927 348.494 196.687 348.574 196.687C349.284 197.237 346.684 203.217 344.724 205.417C342.124 208.487 341.184 208.567 334.574 206.987C329.144 205.647 318.844 201.087 319.314 200.297V200.307ZM239.244 164.287C238.854 164.837 236.964 167.827 234.994 170.817L231.454 176.327L231.924 170.747C233.024 156.987 239.474 138.737 246.864 128.437C252.374 120.727 252.214 120.727 255.834 127.727C261.414 138.577 264.254 150.067 265.354 167.057C266.924 189.397 263.154 215.737 255.994 232.887C252.064 242.327 251.664 242.487 250.174 235.877C249.464 232.807 248.914 229.037 248.914 227.537V224.707H253.634C256.234 224.707 258.354 224.547 258.354 224.317C258.354 224.087 256.074 220.147 253.244 215.587L248.134 207.247V201.187C248.134 197.887 248.524 192.067 249.004 188.207C249.714 182.697 249.634 181.127 248.844 180.657C248.134 180.187 249.314 177.827 253.174 171.847L258.524 163.747L249.164 163.507C242.244 163.347 239.724 163.507 239.254 164.297L239.244 164.287ZM320.644 244.117C266.614 261.897 245.294 269.207 232.004 274.477C223.584 277.857 220.284 278.727 220.674 277.547C220.834 277.157 223.664 274.717 226.884 272.197C235.614 265.507 249.304 253.317 251.894 250.017C253.154 248.447 255.674 244.507 257.474 241.367C261.404 234.527 268.014 227.287 277.454 219.427C284.214 213.847 297.744 204.247 299.004 204.247C299.394 204.247 300.494 206.057 301.524 208.337C306.714 219.667 320.554 226.977 335.034 226.037C345.024 225.407 355.644 220.297 359.884 214.087C361.374 211.967 362.404 211.337 365.314 210.937C377.264 209.287 380.804 208.337 406.134 199.297L418.244 194.967L417.774 199.137C416.984 206.527 414.074 210.537 409.284 210.537C408.184 210.537 407.634 211.247 407.314 212.817C406.844 215.017 406.214 215.337 390.714 220.687C381.904 223.757 350.284 234.297 320.634 244.127L320.644 244.117ZM472.604 288.237L469.224 296.177C465.294 305.457 465.764 305.217 454.984 302.077C428.554 294.287 398.434 270.147 389.234 249.307C388.134 246.867 387.424 244.827 387.584 244.667C387.744 244.507 389.554 245.847 391.754 247.657C401.274 255.597 411.024 261.817 418.184 264.567C423.214 266.537 426.524 268.417 429.034 270.697C436.504 277.697 453.254 288.077 454.674 286.587C455.614 285.717 453.654 283.437 450.344 281.557C446.334 279.197 437.994 272.987 437.284 271.807C436.654 270.867 439.724 270.937 452.304 271.887L462.454 272.677L464.974 275.667C466.394 277.237 468.674 280.777 470.084 283.377L472.604 288.257V288.237ZM497.224 250.017C500.374 252.767 503.674 255.997 504.614 257.177C506.264 259.377 506.264 259.457 504.854 260.877C503.124 262.527 494.394 265.047 484.324 266.777C475.674 268.267 458.214 268.897 449.874 267.957C432.174 265.917 418.964 261.827 408.814 255.217C403.074 251.517 389.784 239.247 390.644 238.467C390.804 238.307 395.044 239.337 400.004 240.907C421.944 247.667 437.284 250.507 454.504 251.207C463.234 251.517 466.854 251.447 466.534 250.897C465.904 249.877 455.204 247.907 443.964 246.727C433.814 245.627 428.234 244.447 415.884 240.907C406.444 238.157 392.364 233.277 390.004 231.937C387.884 230.757 390.394 229.657 399.124 227.847C410.524 225.487 437.194 225.177 446.704 227.297C464.714 231.387 487.684 241.687 497.194 250.027L497.224 250.017ZM544.484 190.867C546.454 186.067 548.334 182.447 548.654 182.767C548.964 183.077 549.914 185.207 550.774 187.327C551.644 189.527 553.054 193.147 553.994 195.427L555.644 199.517H540.854L544.474 190.867H544.484ZM516.414 215.487C516.104 215.797 513.744 214.547 511.144 212.657C503.754 207.147 495.254 197.637 496.044 195.667C496.204 195.197 520.664 201.567 521.764 202.427C522.154 202.667 517.284 214.537 516.414 215.487ZM523.964 198.337C523.884 198.417 521.844 198.027 519.484 197.397C512.244 195.587 499.824 191.497 499.424 190.787C498.794 189.917 509.574 184.807 515.154 183.397C520.264 182.057 531.274 180.877 531.274 181.667C531.274 182.217 524.274 198.187 523.964 198.337ZM595.454 202.117C600.884 206.447 610.714 217.137 610.714 218.637C610.714 219.977 605.204 221.627 593.724 223.907C579.484 226.657 566.904 227.687 554.794 226.897C547.954 226.507 533.324 223.747 532.144 222.647C531.984 222.567 532.694 220.287 533.714 217.697L535.604 212.897H561.004L563.284 218.637L565.564 224.297L574.764 224.537C579.794 224.617 583.964 224.537 583.964 224.297C583.964 224.057 582.944 221.467 581.764 218.557L579.484 213.287L582.784 213.527C584.904 213.767 586.324 213.447 586.954 212.657C587.824 211.637 587.344 211.317 583.804 210.537C581.524 209.987 579.084 209.277 578.374 208.887C577.114 208.257 567.754 187.967 568.384 187.337C569.324 186.397 589.624 197.487 595.444 202.127L595.454 202.117ZM646.344 163.417C636.124 168.927 614.414 178.837 607.174 181.267C603.084 182.687 587.664 186.537 582.794 187.397C581.924 187.557 577.764 186.297 573.434 184.727C567.854 182.527 565.414 181.187 564.624 179.847C563.054 177.017 563.284 176.147 565.724 175.287C578.624 170.407 585.304 168.447 600.094 164.987C609.614 162.707 619.284 160.347 621.644 159.637C625.424 158.537 625.734 158.377 624.554 157.197C623.534 156.097 622.824 156.097 619.204 156.957C616.924 157.507 608.504 159.317 600.484 161.047C583.024 164.747 576.884 166.477 568.004 169.937L561.244 172.607L559.514 168.277C558.494 165.677 557.154 163.717 556.134 163.397C554.794 162.847 555.504 162.217 560.774 159.067C582.564 146.327 612.294 141.367 639.184 145.937C648.304 147.507 660.654 151.047 661.444 152.227C662.154 153.487 655.704 158.287 646.344 163.397V163.417Z" fill="#010101"/>
</svg>
