<svg width="700" height="428" viewBox="0 0 700 428" fill="none" xmlns="http://www.w3.org/2000/svg">
<path d="M272.58 67.4684C276.5 66.2184 280.17 64.2684 284.01 62.7984C292.79 59.4484 301.9 56.8684 311.14 55.1484V100.868C271.75 111.368 239.7 143.338 229.24 182.768H183.52C184.46 176.418 186.21 169.888 188.19 163.778C190.17 157.668 192.92 151.848 195.05 145.788C200.83 149.098 206.75 152.178 212.44 155.638C214.23 156.238 214.62 154.828 215.39 153.608C216.16 152.388 217.37 150.778 216.54 149.538C215.45 147.908 207.74 144.728 205.77 143.208C205.49 143.008 205.39 142.738 205.36 142.398C205.27 141.458 208.35 136.368 209.17 136.228C212.12 135.998 220.67 139.408 222.89 138.858C224.56 138.448 227.47 133.948 225.85 132.278C224.53 130.928 214.13 129.978 211.73 128.898C211.02 126.608 210.62 123.798 208.96 121.928C216.46 111.278 225.01 101.318 234.8 92.6984C239.29 88.7384 244.2 85.2884 248.72 81.3684C253.9 90.0584 258.55 100.208 270.85 94.1584C284.64 87.3784 277.92 77.0284 272.57 67.4584L272.58 67.4684Z" fill="#F5DF4D"/>
<path d="M337.782 209.007V155.927C337.782 154.787 342.662 154.237 343.052 155.827L343.342 210.007C343.512 211.317 341.582 214.577 340.362 214.577H231.232C230.812 266.197 268.492 311.847 318.692 322.527C399.022 339.617 469.342 267.527 450.422 187.617C439.602 141.897 399.572 107.177 352.682 102.857C349.002 102.517 342.682 103.037 339.652 102.367C337.252 101.837 337.402 99.1772 338.272 97.3772C339.022 96.6172 346.712 96.7872 348.332 96.8672C451.742 101.837 497.492 231.147 420.292 300.857C347.122 366.927 227.742 315.827 225.252 217.567C225.192 215.287 225.072 211.747 227.112 210.247C227.502 209.957 229.912 208.997 230.232 208.997H337.782V209.007Z" fill="#0E0D0D"/>
<path d="M256.682 358.499L278.252 339.319C280.102 338.009 285.512 340.399 285.722 342.409L260.162 386.839C258.602 387.599 253.112 384.649 254.382 382.239C257.652 375.449 262.862 368.809 266.052 362.089C266.362 361.439 266.742 360.849 266.632 360.089L250.432 374.319C248.912 374.699 245.772 372.919 245.992 371.069L250.332 350.539L237.102 372.689C235.292 374.319 230.442 371.339 230.422 369.439L255.522 325.719C257.552 324.039 262.772 327.689 262.592 330.459L256.692 358.499H256.682Z" fill="#0E0D0D"/>
<path d="M421.971 99.5778C420.611 100.938 415.741 98.2278 415.371 97.0078C414.661 94.6678 417.961 85.7678 418.101 82.7678C418.011 81.9678 415.281 80.5778 414.381 80.1178C413.571 79.7078 412.111 78.6578 411.331 79.1678C410.651 79.6078 407.001 86.8578 406.091 88.2578C405.691 88.8778 404.971 90.2778 404.301 90.4678C403.251 90.7678 398.201 87.9678 398.211 86.7478L424.061 42.1978L425.021 42.0078L442.151 51.9578C447.681 58.0478 443.251 64.6878 440.031 70.5078C438.161 73.8978 433.531 82.1978 430.301 83.8378C428.771 84.6178 427.001 84.6778 425.441 85.3378C424.201 87.7778 423.431 98.1078 421.971 99.5578V99.5778ZM427.081 51.9878L415.711 71.6578C415.671 72.1778 416.011 72.3278 416.351 72.5878C417.361 73.3378 424.661 77.4078 425.461 77.4378C427.621 77.5278 429.851 73.1978 430.981 71.4078C432.301 69.3178 437.051 61.2778 437.191 59.3078C437.251 58.5378 437.301 57.9678 436.771 57.3278C436.411 56.8978 427.611 51.8578 427.071 51.9878H427.081Z" fill="#0E0D0D"/>
<path d="M208.961 121.938C210.621 123.798 211.031 126.618 211.731 128.908C214.131 129.978 224.531 130.928 225.851 132.288C227.481 133.958 224.571 138.458 222.891 138.868C220.661 139.418 212.121 136.008 209.171 136.238C208.351 136.378 205.271 141.478 205.361 142.408C205.391 142.738 205.491 143.018 205.771 143.218C207.731 144.738 215.451 147.918 216.541 149.548C217.371 150.788 216.131 152.438 215.391 153.618C214.651 154.798 214.231 156.248 212.441 155.648C206.751 152.178 200.821 149.098 195.051 145.798C186.261 140.768 177.631 135.348 168.781 130.418C168.621 130.078 168.431 129.678 168.451 129.298C168.511 128.228 174.431 118.218 175.501 116.508C178.971 110.948 181.891 107.638 189.081 110.218C192.571 111.478 206.721 119.428 208.961 121.938ZM203.281 126.818C199.571 124.528 195.991 121.938 192.131 119.878C190.461 118.988 185.891 116.238 184.321 116.968C183.811 117.208 178.461 126.008 178.411 126.578C178.341 127.268 179.321 127.868 179.811 128.238L198.041 138.528C198.431 138.498 199.111 137.558 199.361 137.178C200.041 136.188 203.511 130.358 203.711 129.588C203.931 128.738 203.861 127.508 203.291 126.818H203.281Z" fill="#0E0D0D"/>
<path d="M479.922 207.418C477.882 207.058 477.692 200.168 480.332 199.878L529.242 199.848C531.932 200.038 531.662 203.568 531.372 205.608C531.132 207.338 530.432 207.298 528.842 207.438C523.142 207.918 515.982 206.668 510.512 207.398C509.982 207.468 508.742 207.908 508.742 208.408V219.538L509.342 220.138H529.622C531.742 220.138 531.692 224.798 531.402 226.288C531.102 227.858 529.022 227.988 527.652 228.098C520.462 228.698 512.932 227.738 505.792 227.668C497.072 227.588 488.332 227.828 479.612 227.608C477.792 227.068 477.972 220.138 480.332 220.138H500.612L501.212 219.538V208.008L500.612 207.408H479.942L479.922 207.418Z" fill="#0E0D0D"/>
<path d="M355.179 75.3191C354.359 76.1291 349.749 76.0091 348.759 75.3691C347.369 74.4891 347.649 71.4291 347.259 69.9191C346.619 69.5391 345.889 69.4891 345.159 69.4291C343.519 69.3091 335.109 69.1691 334.079 69.5091C332.579 70.0091 333.199 74.2491 331.959 75.4391C330.539 75.9491 325.669 76.3191 325.129 74.7391L334.409 23.3491C335.439 22.1191 344.479 22.1691 345.729 23.1391C346.039 23.3791 346.309 23.6391 346.429 24.0291L355.569 73.7491C355.639 74.2491 355.539 74.9691 355.179 75.3191ZM335.199 62.2991H345.739C344.259 53.5691 343.009 44.7191 341.179 36.0491C341.059 35.4691 340.899 32.9891 339.979 33.2691L334.769 61.4791L335.199 62.2891V62.2991Z" fill="#0E0D0D"/>
<path d="M272.579 67.4697C277.929 77.0397 284.649 87.3997 270.859 94.1697C258.559 100.22 253.909 90.0697 248.729 81.3797C243.889 73.2597 239.639 64.7497 234.599 56.7497C233.089 53.5597 238.789 50.3297 240.949 52.3897C245.669 60.6697 250.669 68.7997 255.489 77.0097C257.239 79.9997 259.189 86.2497 262.649 87.5397C267.509 89.3497 271.769 85.4497 270.969 80.4197C270.729 78.9197 267.339 73.6597 266.359 71.9297C266.019 71.3197 265.459 71.4897 265.429 71.4497C265.309 71.2497 265.259 70.1497 264.849 69.4397C260.529 61.8597 256.069 54.3597 251.689 46.8097C250.279 43.8797 256.049 40.2697 258.049 42.4397C262.709 50.8797 267.879 59.0597 272.579 67.4697Z" fill="#0E0D0D"/>
<path d="M205.693 276.698C214.993 275.418 220.043 281.048 223.743 288.658C224.313 289.838 225.353 291.148 224.673 292.508C224.413 293.038 221.143 294.958 220.493 295.118C217.573 295.848 215.333 288.808 213.733 286.738C210.183 282.128 204.853 284.468 200.743 286.868C200.093 287.248 197.813 288.348 197.883 289.048C198.053 290.838 202.363 295.838 202.833 298.068C203.263 300.118 198.523 302.698 196.643 301.838C194.903 301.048 192.263 292.938 190.483 292.908C189.613 292.888 182.393 297.918 181.743 298.888C180.673 300.488 180.443 303.088 180.823 304.938C181.763 309.498 190.273 314.888 181.403 317.648C178.673 318.498 176.253 312.988 175.093 310.658C172.063 304.578 172.233 297.408 177.353 292.498C181.043 288.958 200.983 277.338 205.683 276.698H205.693Z" fill="#0E0D0D"/>
<path d="M491.15 111.701C496.7 110.951 502.01 112.551 505.49 117.031C506.29 118.061 510.56 125.341 510.64 126.171C510.81 128.031 506.25 130.541 504.37 129.681C503.09 129.101 500.44 122.741 499.01 121.121C494.95 116.521 489.65 120.081 485.41 122.261C482.08 123.971 469.43 131.051 467.61 133.481C463.51 138.961 468.94 143.061 470.86 147.681C471.63 149.551 471.36 149.921 469.75 151.121C467.67 152.671 465.57 153.411 463.88 151.081C457.99 142.941 455.76 133.501 464.42 126.311C468.55 122.881 486.35 112.351 491.15 111.691V111.701Z" fill="#0E0D0D"/>
<path d="M420.771 327.178C423.091 326.558 424.981 329.488 425.471 331.458C426.221 334.488 419.191 336.068 417.471 337.798C417.081 338.188 416.731 338.488 416.951 339.108L438.181 375.968C439.441 378.688 432.891 382.538 431.431 379.528L410.131 342.758C409.721 342.438 409.351 342.598 408.931 342.738C406.861 343.418 402.891 347.088 400.801 346.988C399.001 346.908 395.611 341.518 398.071 340.248L420.771 327.158V327.178Z" fill="#0E0D0D"/>
<path d="M338.46 352.22C339.87 351.9 343.16 351.96 343.85 353.42L344.15 402.84C344.38 406.29 337.49 406.24 336.55 404.06L336.18 355.11C336.21 353.79 337.14 352.52 338.46 352.22Z" fill="#0E0D0D"/>
<path d="M462.112 280.638C463.412 280.258 464.562 281.148 465.672 281.698C479.142 288.378 492.232 297.959 505.692 304.899C509.222 306.349 504.912 313.739 501.822 311.549L460.262 287.508C457.372 286.508 460.652 281.069 462.112 280.649V280.638Z" fill="#0E0D0D"/>
<path d="M265.42 71.4397C265.42 71.4397 266 71.3197 266.35 71.9197C267.33 73.6497 270.72 78.9097 270.96 80.4097C271.76 85.4497 267.5 89.3497 262.64 87.5297C259.18 86.2397 257.23 79.9897 255.48 76.9997L265.42 71.4297V71.4397Z" fill="#F5DF4D"/>
<path d="M193.749 207.121C204.559 205.371 204.219 222.661 193.429 220.361C186.309 218.841 186.929 208.221 193.749 207.121Z" fill="#0E0D0D"/>
</svg>
