<svg width="700" height="428" viewBox="0 0 700 428" fill="none" xmlns="http://www.w3.org/2000/svg">
<path d="M337.729 144.749V257.51L338.48 258.261H361.001L361.752 257.51V150.746L379.262 154.743V258.252H398.78V159.745C402.865 161.107 409.002 161.43 412.79 162.992C413.567 163.315 414.222 163.507 414.291 164.494L414.545 258.252H430.056L430.807 257.501V167.741L443.813 170.237V257.501L444.564 258.252H458.32L458.827 174.244L469.834 176.74V257.501L470.585 258.252H481.592L482.849 179.743L492.355 182.493V257.501L493.106 258.252H503.109L503.86 257.501V184.745C505.963 185.95 510.118 185.862 512.021 186.84C512.58 187.128 512.868 187.276 512.877 187.992L513.121 258.252H521.623L522.374 257.501V189.991C522.758 189.511 522.793 189.406 523.404 189.432C524.137 189.459 530.309 191.187 530.396 191.571L531.12 258.252H538.872L539.378 193.745L546.379 195.499V258.252L553.065 258.182L553.886 257.004L554.383 197.245C554.636 196.992 561.052 198.048 560.895 199.488L560.607 257.78L566.927 258.034L567.398 257.004L568.157 200.239C569.842 201.051 573.631 200.763 573.919 203.023L573.473 257.431L573.875 258.034C574.547 258.505 579.226 258.61 579.915 257.501V203.242L585.423 204.246V258.252C587.213 258.025 589.605 258.924 590.931 257.501V206.498L591.673 205.764L595.933 207.501V257.51L596.762 258.182C597.391 258.322 598.046 258.295 598.683 258.295C599.713 258.295 600.804 258.461 601.432 257.519V209.012L602.166 208.339L605.937 209.265V327.778H94.0508V173.746L105.058 172.245V257.501L105.809 258.252H118.571L119.068 170.237L130.582 169.242V257.501L131.332 258.252H145.595V167.488L146.442 166.833L158.61 165.236V257.492L159.361 258.243H173.869L175.117 162.73L188.629 161.229V257.492L189.38 258.243H206.14V158.733L221.154 156.734V257.492L221.904 258.243H240.165V154.228L256.681 152.229V257.492L257.431 258.243H276.949L277.7 257.492V149.227L295.21 147.228V257.492L295.961 258.243H317.478L318.229 257.492V143.745C325.247 142.453 330.912 142.82 337.747 144.749H337.729ZM179.028 262.878C157.973 263.393 148.651 281.078 151.732 300.369C156.655 331.174 201.845 331.733 207.982 302.359C212.364 281.427 201.959 262.32 179.028 262.878ZM541.342 280.214C537.92 260.356 509.647 257.981 497.592 271.249C490.426 279.14 488.898 292.688 491.072 302.778C496.798 329.306 535.441 331.802 541.874 304.769L529.863 301.26C527.943 316.893 507.421 317.906 503.589 302.272C500.534 289.833 503.03 270.926 519.973 273.397C525.542 274.208 527.952 278.093 530.186 282.728L541.333 280.223L541.342 280.214ZM147.586 273.763V264.511L146.835 263.76H100.554V273.763H117.314L118.064 274.514V322.768H130.075V274.514L130.826 273.763H147.586ZM261.176 273.763V264.511L260.425 263.76H214.389L213.638 264.511V273.763H230.904L231.655 274.514V322.768H242.915L243.666 322.017V273.763H261.176ZM315.715 322.768L292.452 264.257C291.579 263.219 281.707 263.83 279.673 263.987L256.672 322.759H268.927L274.156 309.491C275.081 308.871 294.25 308.959 296.467 309.238C297.017 309.308 297.585 309.203 297.943 309.762L302.691 322.768H315.697H315.715ZM426.294 322.768L402.28 264.004C401.678 263.638 392.216 263.542 391.029 263.769C390.339 263.899 389.859 264.126 389.545 264.79L366.745 322.768H379.751L384.307 309.325H408.207L413.515 322.768H426.276H426.294ZM432.797 263.76V322.768H444.057L444.808 322.017V298.266C454.445 296.913 456.871 301.408 461.725 308.112C465.173 312.869 468.053 318.054 471.571 322.768H485.834C479.872 314.152 475.412 302.342 465.827 297.262L474.801 293.482C484.027 287.328 482.962 270.621 472.828 266.012C468.961 264.257 461.926 263.926 457.587 263.742C449.356 263.384 441.028 264.048 432.797 263.76ZM563.898 263.76H552.637L551.887 264.511V322.017L552.637 322.768H563.898V297.262H587.414V322.768H599.425V263.76H588.164L587.414 264.511V286.516L586.663 287.267H564.648L563.898 286.516V263.76ZM334.727 312.764V265.008L333.976 264.257H323.466L322.716 265.008V322.768H364.248V312.764H334.727Z" fill="black"/>
<path d="M94.5469 151.001L192.949 86.825L195.341 86.2227L328.72 111.999L605.952 203.558L605.682 208.245L328.973 137.252L94.5469 169.75V151.001Z" fill="black"/>
<path d="M444.805 288.763V273.758H460.063C460.299 273.758 463.537 274.273 463.956 274.369C470.11 275.844 470.485 285.9 464.331 288.021C463.982 288.143 461.233 288.763 461.067 288.763H444.805Z" fill="black"/>
<path d="M176.995 273.387C187.226 271.99 194.506 277.472 196.077 287.563C198.215 301.294 192.865 315.688 176.48 313.148C159.45 310.511 158.822 275.875 176.987 273.396L176.995 273.387Z" fill="black"/>
<path d="M293.699 299.264H278.188L284.944 279.763L286.183 278.262L293.699 299.264Z" fill="black"/>
<path d="M403.781 299.264H388.27L396.021 278.262L403.781 299.264Z" fill="black"/>
</svg>
