<svg width="700" height="428" viewBox="0 0 700 428" fill="none" xmlns="http://www.w3.org/2000/svg">
<path d="M147.555 231.577C150.855 231.875 154.783 231.18 158 231.552C158.62 231.627 159.092 231.602 159.464 232.214V241.766C160.465 242.031 160.183 241.502 160.44 241.22C165.303 235.795 168.636 231.478 176.699 230.734C220.068 226.747 218.034 304.794 177.658 300.22C170.133 299.369 166.287 295.664 161.515 290.445C161.134 290.031 161.143 289.535 160.316 289.734V324.113H147.555V231.586V231.577ZM175.095 240.6C167.66 241.617 160.969 250.012 160.316 257.265C159.282 268.769 159.489 285.069 172.523 289.635C200.997 299.608 204.363 236.606 175.086 240.6H175.095Z" fill="black"/>
<path d="M399.342 123.336C412.012 124.75 424.012 137.983 424.012 150.711V159.626L423.375 160.263H376.375C376.127 165.556 377.26 170.964 380.022 175.513C386.688 186.463 404.296 187.232 410.2 175.141C410.912 173.677 410.994 172.155 411.888 170.882H423.375C423.764 171.188 423.929 171.32 423.946 171.849C423.962 172.635 422.78 176.15 422.391 177.117C415.841 193.575 393.577 198.141 379.071 189.639C354.724 175.364 359.967 126.892 389.566 123.352C391.783 123.088 397.117 123.104 399.35 123.352L399.342 123.336ZM411.251 150.926C411.325 143.251 406.76 134.153 398.515 132.863C385.712 130.854 378.037 138.735 376.805 150.926H411.259H411.251Z" fill="black"/>
<path d="M327.463 123.335C365.623 127.412 365.308 194.442 322.568 194.252C279.339 194.054 279.471 127.428 317.68 123.335C320.029 123.086 325.115 123.086 327.463 123.335ZM322.278 132.779C292.803 133.366 297.145 192.044 327.786 183.732C348.834 178.026 347.825 132.266 322.278 132.779Z" fill="black"/>
<path d="M147.555 125.039H205.819V191.673H193.066V135.857L192.429 135.22H160.737V191.673H147.555V125.039Z" fill="black"/>
<path d="M233.042 182.766V217.567H220.711L220.289 125.039H232.198V134.798C232.909 134.955 233.058 134.575 233.464 134.153C239.046 128.438 241.8 124.468 250.707 123.766C291.314 120.565 292.141 197.222 250.285 193.36C242.462 192.64 239.046 188.712 234.249 183.469C233.869 183.055 233.869 182.567 233.05 182.757L233.042 182.766ZM249.119 133.648C240.65 134.236 233.72 143.101 233.05 151.148C231.867 165.266 234.043 185.759 253.246 183.617C273.492 181.351 274.426 131.887 249.119 133.648Z" fill="black"/>
<path d="M440.597 282.506L442.474 280.348L472.71 231.578H487.166L487.803 232.215V298.005L487.166 298.642H475.472V247.705L474.496 248.243L442.937 298.642H428.266V232.215L428.902 231.578H439.96L440.597 232.215V282.506Z" fill="black"/>
<path d="M551.596 298.637H539.472L538.835 298.001V271.048H531.177L510.551 298.637H495.449L518.838 269.559C518.978 268.633 518.705 269.055 518.226 268.914C516.315 268.343 514.504 268.211 512.469 267.434C492.794 259.891 496.954 238.173 516.381 233.153C523.891 231.21 542.366 230.647 550.124 231.557C550.744 231.632 551.216 231.607 551.588 232.219V298.646L551.596 298.637ZM538.843 241.333H525.445C524.023 241.333 520.136 242.449 518.705 243.094C516.307 244.178 513.47 246.576 513.007 249.289C510.724 262.587 530.59 261.272 538.852 261.281V241.333H538.843Z" fill="black"/>
<path d="M247.839 230.003C294.136 227.306 294.814 304.609 246.441 300.755C206.512 297.579 206.463 232.417 247.839 230.003ZM247.409 239.753C223.135 242.433 224.814 287.117 245.358 290.806C277.43 296.57 278.017 236.379 247.409 239.753Z" fill="black"/>
<path d="M448.253 125.039V156.45L449.75 155.606L476.538 125.039H492.491L461.899 158.302L493.343 191.681H477.389C468.739 182.501 460.592 172.775 451.876 163.661C450.9 162.644 449.61 160.998 448.253 160.692V191.681H435.492V125.039H448.253Z" fill="black"/>
<path d="M417.206 253.217H404.023C403.138 239.637 385.82 235.452 377.219 245.352C369.428 254.317 369.23 274.14 376.45 283.486C383.463 292.558 397.059 292.674 402.923 282.46C404.188 280.26 404.61 278.416 405.512 276.125H418.058C415.122 293.385 400.756 302.813 383.513 299.778C355.204 294.791 349.538 253.87 369.991 236.858C386.531 223.105 414.758 230.581 417.206 253.208V253.217Z" fill="black"/>
<path d="M350.43 253.219H337.247C335.974 242.864 326.066 237.315 316.291 241.004C300.37 247.024 300.213 281.387 315.265 288.525C325.504 293.379 336.71 287.21 338.099 276.136H350.86C346.436 306.719 304.729 308.448 293.663 280.8C287.725 265.955 290.909 244.882 304.795 235.471C322.204 223.661 347.304 231.468 350.439 253.219H350.43Z" fill="black"/>
<path d="M552.451 125.039V135.22H531.188V191.673H518.427V135.22H497.164V125.039H552.451Z" fill="black"/>
</svg>
