<svg width="700" height="428" viewBox="0 0 700 428" fill="none" xmlns="http://www.w3.org/2000/svg">
<g style="mix-blend-mode:darken" clip-path="url(#clip0_6607_2556)">
<path d="M40.793 288L41.0721 283.999L161.482 164.226H168.161V140.293H558.854V164.219H659.5V287.993H471.573V271.158H238.67L221.898 287.993H215.069L231.698 271.158H208.984L192.213 287.993H185.384L202.012 271.158H179.299L162.527 287.993H155.698L172.327 271.158H168.168V253.139L132.842 287.993H126.013L168.168 245.898V223.592L103.149 287.993H96.6206C97.4796 286.403 99.0401 285.461 100.178 284.298C122.469 261.613 145.497 238.972 168.168 216.358V194.051L73.7498 288H66.6273L168.161 186.825V164.519L43.7637 288H40.793ZM555.59 143.546H171.425V267.912H471.573V164.226H555.59V143.546ZM529.762 219.461H538.818L551.431 239.121C552.075 239.535 557.193 236.653 557.336 236.09C557.601 235.077 547.415 221.18 546.391 219.012C548.109 218.206 549.77 218.02 551.402 216.922C557.816 212.592 557.665 198.924 551.882 194.044C550.801 193.131 547.544 191.391 546.234 191.391H523.377L522.933 191.833V237.324C522.933 237.374 523.621 238.066 523.678 238.066H529.319L529.762 237.623V219.454V219.461ZM599.227 191.398C599.32 191.69 598.933 192.04 598.933 192.14V226.702C598.933 228.193 597.573 230.875 596.17 231.638C593.242 233.236 582.877 233.343 580.364 230.996C579.577 230.261 578.439 227.13 578.439 226.117V191.847L577.995 191.405H572.061L571.603 192.425C573.034 202.833 568.782 224.119 574.044 232.858C578.711 240.605 595.984 240.926 601.897 234.898C603.701 233.058 605.755 228.328 605.755 225.824V191.412H599.227V191.398ZM500.299 230.475C499.805 230.554 499.132 230.697 498.724 230.975C497.321 231.931 497.457 236.318 498.323 237.602C499.354 239.143 504.429 239.128 505.381 237.295C505.861 236.375 505.94 232.594 505.496 231.645C504.837 230.226 501.666 230.261 500.299 230.468V230.475Z" fill="black"/>
<path d="M251.583 288.001H244.754L253.365 279.434V285.782C253.365 285.925 251.662 287.416 251.583 288.001Z" fill="black"/>
<path d="M138.468 164.227L40.793 261.414V254.766L131.789 164.227H138.468Z" fill="black"/>
<path d="M108.783 164.227L40.793 231.874V225.226L102.104 164.227H108.783Z" fill="black"/>
<path d="M79.0971 164.227L40.793 202.334V195.686L72.4112 164.227H79.0971Z" fill="black"/>
<path d="M49.4044 164.227L40.793 172.794V166.145C40.793 166.01 42.5897 164.227 42.7257 164.227H49.4044Z" fill="black"/>
<path d="M290.627 191.398C299.159 192.404 301.464 200.394 300.877 207.806C300.376 214.112 297.506 217.193 291.514 218.584C291.164 218.67 290.977 218.363 291.071 219.02C292.295 221.081 302.338 235.034 302.216 236.04C302.187 236.29 302.044 236.468 301.844 236.618C301.536 236.846 297.534 238.944 297.212 239.036C296.79 239.158 296.561 239.193 296.203 238.879L283.497 219.169H274.886L274.442 219.612V237.631L273.998 238.073H268.651C268.601 238.073 267.906 237.389 267.906 237.331V191.841L268.35 191.398H290.62H290.627ZM274.442 197.013V213.405L274.886 213.848H290.025C290.92 213.848 292.452 212.478 292.86 211.643C294.134 209.054 294.299 200.722 292.409 198.475C292.116 198.125 290.62 197.005 290.319 197.005H274.435L274.442 197.013Z" fill="black"/>
<path d="M368.55 210.31H389.038V191.406H395.122L395.566 191.849V237.339C395.566 237.389 394.879 238.081 394.821 238.081H389.474L389.03 237.639V216.224H368.543V237.789C368.25 237.696 367.899 238.081 367.799 238.081H362.452L362.008 237.639V191.406H368.092L368.536 191.849V210.31H368.55Z" fill="black"/>
<path d="M240.258 191.441L255.42 237.018C255.298 237.367 254.976 237.374 254.697 237.481C254.067 237.724 250.545 238.551 249.865 238.616C249.528 238.644 249.278 238.701 249.049 238.387L244.561 225.419L226.608 225.554L222.506 238.252C221.747 239.222 217.789 237.41 216.543 237.346L231.239 191.698L240.258 191.449V191.441ZM242.971 219.762L235.699 195.829L228.426 219.762H242.971Z" fill="black"/>
<path d="M332.867 190.306C335.244 190.156 346.232 190.577 347.778 191.84C348.114 192.111 348.071 192.304 348.057 192.689C348.036 193.153 347.27 197.055 347.119 197.397C346.969 197.739 346.869 197.932 346.461 197.896C342.581 196.705 338.05 195.977 333.977 196.127C330.977 196.234 327.362 196.648 325.394 199.102C322.23 203.047 322.573 217.414 323.146 222.557C323.776 228.2 325.007 232.088 331.342 232.715C336.325 233.207 341.901 232.623 346.711 231.289C347.248 231.453 348.086 236.346 347.957 237.195C347.62 237.652 342.051 238.508 341.063 238.615C334.778 239.307 325.108 239.264 320.462 234.377C314.785 228.407 315.007 213.184 316.067 205.465C317.52 194.872 322.287 190.948 332.881 190.292L332.867 190.306Z" fill="black"/>
<path d="M420.211 191.398V237.631L419.768 238.073H414.42C414.32 238.073 413.969 237.681 413.676 237.781V191.848L414.12 191.406H420.204L420.211 191.398Z" fill="black"/>
<path d="M529.762 213.855V197.02H545.052C545.195 197.02 547.063 197.883 547.264 198.068C549.497 200.101 549.569 211.615 546.469 213.198C546.269 213.298 544.565 213.855 544.458 213.855H529.762Z" fill="black"/>
</g>
<defs>
<clipPath id="clip0_6607_2556">
<rect width="619" height="148" fill="white" transform="translate(40.5 140)"/>
</clipPath>
</defs>
</svg>
