<svg width="700" height="428" viewBox="0 0 700 428" fill="none" xmlns="http://www.w3.org/2000/svg">
<path d="M261.946 317.931L261.715 283.915L245.899 311.231H235.194L219.379 285.123V317.931H197.023V243.199H217.276L241.019 282.96L264.039 243.199H284.281V317.931H261.946Z" fill="#1D1D1B"/>
<path d="M358.514 299.007V317.931H298.008V243.199H357.115V262.134H322.214V270.987H352.92V289.197H322.214V299.007H358.514Z" fill="#1D1D1B"/>
<path d="M385.495 314.822C379.507 311.596 374.517 306.791 371.068 300.928C367.559 294.717 365.715 287.704 365.715 280.57C365.715 273.436 367.559 266.423 371.068 260.212C374.52 254.357 379.509 249.559 385.495 246.338C391.854 242.92 398.982 241.188 406.2 241.308C412.691 241.163 419.132 242.47 425.054 245.131C430.459 247.655 435.171 251.453 438.787 256.198L423.424 270.283C419.007 264.538 413.665 261.419 407.598 261.419C402.488 261.419 398.302 263.079 395.274 266.45C392.246 269.82 390.626 274.357 390.626 280.102C390.626 285.847 392.256 290.404 395.274 293.765C398.292 297.125 402.488 298.795 407.598 298.795C413.635 298.795 419.007 295.938 423.424 289.942L438.787 304.027C435.287 308.883 430.543 312.706 425.054 315.094C419.131 317.751 412.69 319.054 406.2 318.907C399.046 319.809 391.79 318.399 385.495 314.883" fill="#1D1D1B"/>
<path d="M509.98 262.838H488.802V317.931H464.616V262.838H443.438V243.199H509.98V262.838Z" fill="#1D1D1B"/>
<path d="M549.293 286.791L542.32 267.877L535.338 286.791H549.293ZM556.043 305.001H528.356L523.476 317.929H498.586L530.449 243.188H554.393L586.266 317.929H560.923L556.043 305.001Z" fill="#1D1D1B"/>
<path d="M269.856 144.983C272.19 143.554 274.504 143.554 275.44 144.752C276.375 145.949 276.134 148.092 274.504 150.728C270.339 156.955 259.855 161.986 250.358 162.469C255.469 156.432 262.682 149.048 269.896 144.983M487.21 154.561C478.249 166.055 467.94 176.431 456.504 185.468C455.79 185.951 454.875 186.675 453.939 187.379C439.28 198.165 439.512 193.607 439.743 189.784C440.447 180.427 449.059 166.06 454.17 157.448C455.337 156 454.623 152.177 453.245 150.728C452.772 150.255 451.373 149.299 449.512 151.211C445.739 154.782 440.88 159.813 436 165.105C425.99 175.89 414.591 188.104 404.812 194.1C402.951 195.287 401.331 195.529 400.385 194.804C399.218 193.798 399.218 191.213 400.164 187.631C402.719 177.801 414.128 159.36 423.193 147.86C425.286 145.235 424.36 143.776 423.656 143.303C422.8 142.859 421.814 142.736 420.876 142.958C419.938 143.18 419.111 143.73 418.545 144.51C412.257 152.177 399.932 170.145 395.033 184.039C394.543 184.224 394.074 184.46 393.634 184.743C393.171 184.995 391.552 186.192 389.459 187.631C374.81 198.396 375.032 193.848 375.263 190.015C375.957 180.679 384.569 166.302 389.69 157.68C390.857 156.241 390.153 152.408 388.755 150.979C388.292 150.496 386.904 149.541 385.022 151.452C381.31 155.044 376.43 160.084 371.531 165.346C363.864 173.485 355.433 182.59 347.576 189.06H346.871C345.473 189.06 343.159 190.066 343.159 191.464C343.159 191.937 343.39 192.168 343.622 192.168C342.576 192.832 341.568 193.554 340.604 194.331C338.752 195.529 337.102 195.78 336.187 195.056C335.02 194.05 335.02 191.464 335.955 187.852C338.521 178.043 349.91 159.601 358.995 148.092C361.077 145.456 360.142 144.067 359.448 143.554C358.595 143.101 357.607 142.969 356.665 143.183C355.723 143.397 354.889 143.943 354.316 144.721C347.103 153.585 331.981 175.91 329.164 189.754C328.857 191.172 328.702 192.619 328.702 194.07C328.849 196.343 329.848 198.477 331.499 200.046C332.582 201.011 333.992 201.529 335.442 201.495C338.229 201.495 341.962 199.332 346.841 195.257C344.527 200.287 342.193 204.604 334.285 213.236C327.303 220.892 318.47 226.405 310.773 226.405C307.524 226.405 300.079 224.725 301.014 213.709C301.708 206.515 304.727 197.179 309.375 186.876C314.15 176.149 320.167 166.019 327.303 156.694C328.229 155.487 328.702 154.531 328.47 153.585C328.47 153.102 327.997 152.579 327.303 152.378C325.905 151.653 324.285 151.653 321.951 152.851L317.071 163.163C316.608 163.887 315.904 164.843 315.441 165.547C307.717 165.435 300 166.082 292.402 167.479C293.59 164.939 294.906 162.461 296.346 160.054C297.05 159.33 297.744 158.847 298.217 158.374C298.459 158.105 298.619 157.774 298.68 157.418V157.197L301.477 153.615C301.84 153.212 302.077 152.712 302.161 152.177C302.161 151.935 301.93 151.684 301.708 151.452C300.74 151.306 299.75 151.431 298.848 151.813C297.946 152.195 297.167 152.819 296.597 153.615L292.171 159.652C290.159 160.594 288.051 161.312 285.883 161.795C280.772 162.036 272.16 162.288 263.749 162.288C270.731 160.366 276.325 156.774 278.639 152.458C279.523 150.565 279.866 148.465 279.63 146.389C279.394 144.313 278.588 142.343 277.301 140.697C276.413 139.587 275.202 138.781 273.836 138.39C272.469 137.998 271.015 138.042 269.675 138.514C255.942 143.776 233.838 167.741 232.922 188.587C232.44 201.525 246.183 210.137 266.656 193.124C267.824 192.118 267.592 191.464 267.341 191.213C266.888 190.488 265.952 190.74 264.795 191.213C241.283 206.062 237.339 192.219 237.571 188.587C238.033 180.206 242.923 172.298 247.813 165.578C259.211 165.578 279.685 165.578 285.963 164.571C286.899 164.34 287.814 164.099 288.529 163.867C287.362 165.296 286.436 166.976 285.269 168.656C285.028 168.656 285.028 168.656 284.816 168.888C284.333 169.139 284.102 169.37 283.649 169.37C282.556 169.855 281.54 170.495 280.631 171.272C278.317 173.204 278.78 175.115 279.715 176.302C279.715 176.554 279.947 176.554 280.178 176.785C277.327 181.315 274.763 186.019 272.502 190.87C270.872 194.462 273.196 195.418 273.196 195.418C275.067 195.901 277.15 196.625 278.317 195.669C279.253 194.945 285.299 181.041 290.39 170.256C297.523 168.896 304.825 168.659 312.031 169.552C308.781 174.823 305.521 180.568 302.252 187.037C296.688 198.527 293.891 207.159 293.418 213.387C292.945 219.614 293.891 223.92 296.919 227.472C298.771 229.615 313.429 241.124 336.237 215.016C346.016 203.95 349.96 192.732 349.96 192.007V191.776C356.48 186.031 364.86 177.409 375.112 166.624C376.269 165.417 378.603 165.618 377.436 168.304C377.205 169.028 371.4 180.266 370.927 191.303C370.444 201.837 377.678 199.432 378.603 198.959C380.455 198.235 389.539 192.007 393.483 188.647C393.24 190.075 393.089 191.516 393.031 192.963C393.153 195.258 394.151 197.418 395.817 199C396.911 199.959 398.327 200.469 399.781 200.428C406.512 200.428 419.088 188.214 439.331 166.664C440.498 165.457 442.812 165.658 441.645 168.344C441.413 169.069 435.608 180.307 435.135 191.343C434.682 201.877 441.896 199.472 442.812 199C445.146 198.275 457.903 189.19 459.804 187.027C460.267 186.786 460.509 186.303 460.74 186.021C461.656 185.015 462.823 184.1 463.758 183.144C471.886 175.399 479.322 166.959 485.983 157.921C486.918 156.724 487.844 155.517 488.78 154.34C489.011 154.561 487.381 154.088 487.15 154.561" fill="#1D1D1B"/>
<path d="M438.313 140.912C439.712 141.636 442.026 141.163 444.823 139.715C458.556 133.246 464.612 116.001 463.938 114.804C463.466 113.848 456.725 135.65 441.805 132.058H441.342C438.324 131.585 437.609 134.443 437.146 135.892C437.146 136.123 436.925 136.606 436.925 136.898C436.462 138.578 436.462 140.238 438.313 140.922" fill="#1D1D1B"/>
<path d="M213.787 184.51C214.954 181.875 217.983 176.13 218.214 175.174C219.603 177.327 220.538 181.875 213.787 184.51ZM178.414 228.828C157.286 250.63 121.872 227.148 164.922 202.469C174.701 196.724 205.407 190.255 205.407 190.255C195.628 210.115 187.036 219.955 178.414 228.828ZM206.584 186.191C206.584 186.191 180.063 191.452 173.313 193.364C133.995 204.622 127.234 227.863 138.412 240.076C143.764 246.113 168.665 253.015 187.71 228.104C199.783 212.298 210.98 189.299 210.98 189.299C210.98 189.299 216.101 187.388 218.415 186.412C222.148 184.51 225.629 178.283 219.582 171.321C224.009 162.266 227.027 156.471 229.362 151.682C230.991 147.849 233.305 146.41 236.807 141.38C240.308 136.349 245.187 126.771 242.39 124.84C235.408 120.302 227.49 138.029 223.778 147.134C223.546 147.617 206.554 186.181 206.554 186.181" fill="#1D1D1B"/>
<path d="M167.053 111.923C202.145 91.5603 261.021 80.0708 292.904 80.0708C292.904 80.0708 297.089 77.9077 285.69 78.3906C256.121 79.115 216.12 86.7713 195.143 92.7675C162.596 102.345 142.585 118.634 136.076 124.6C120.944 138.766 113.73 151.462 113.73 167.741C113.73 174.904 117.694 183.546 123.278 187.621C128.631 191.223 135.14 192.903 142.585 192.651C154.98 192.41 170.071 187.863 187.496 179.482C192.376 177.077 197.497 174.451 202.145 171.584C205.163 170.578 204.711 166.312 203.544 164.381C203.103 163.455 202.371 162.699 201.461 162.228C200.808 161.655 199.991 161.303 199.127 161.221C197.96 161.473 193.764 170.558 193.09 171.765C171.902 182.822 154.678 189.543 141.901 188.114C127.936 186.434 122.584 176.122 126.538 160.075C131.176 140.194 143.058 125.827 167.053 111.923Z" fill="#1D1D1B"/>
</svg>
