<svg width="700" height="428" viewBox="0 0 700 428" fill="none" xmlns="http://www.w3.org/2000/svg">
<path d="M137.078 172.953L117.931 195.664L150.069 255.049H142.035L113.006 201.463L102.315 214.098L102.412 255.082H95.1875L95.2847 173.05H102.25L102.315 203.213L127.78 173.018H137.013L137.078 172.953Z" fill="#0D0802"/>
<path d="M273.995 172.954L233.465 255.05H225.592L242.958 219.931L218.465 172.922H226.791L246.845 212.026L266.122 172.922H273.995V172.954Z" fill="#0D0802"/>
<path d="M318.345 207.132C318.345 216.527 315.105 224.562 308.658 231.236C302.211 237.91 294.403 241.214 285.364 241.214C276.325 241.214 284.392 241.214 284.165 241.117V255.048H277.297V172.984H285.396C294.468 172.984 302.243 176.321 308.69 183.028C315.138 189.734 318.377 197.769 318.377 207.164L318.345 207.132ZM311.477 207.132C311.477 199.713 308.917 193.33 303.798 188.049C298.679 182.769 292.524 180.112 285.364 180.112H284.327L284.23 233.989H285.332C292.524 233.989 298.647 231.365 303.766 226.084C308.885 220.804 311.444 214.486 311.444 207.132H311.477Z" fill="#0D0802"/>
<path d="M334.222 186.851C334.417 186.786 334.838 186.753 335.421 186.753C343.682 186.753 351.069 189.637 357.516 195.339C359.622 197.348 361.404 199.518 362.862 201.721C364.32 203.957 365.486 206.16 366.361 208.395C367.236 210.631 367.884 212.801 368.272 214.972C368.661 217.143 368.888 219.119 368.888 220.901C368.888 230.296 365.583 238.363 359.007 245.069C352.495 251.743 344.622 255.048 335.421 255.048H327.289V172.984H359.266V180.144H334.19V186.915L334.222 186.851ZM361.728 220.868C361.728 213.514 359.136 207.196 353.985 201.916C348.834 196.635 342.646 194.011 335.453 194.011H334.255L334.449 247.888H335.486C342.71 247.888 348.898 245.264 354.017 239.983C359.168 234.573 361.76 228.223 361.76 220.836L361.728 220.868Z" fill="#0D0802"/>
<path d="M486.004 255.049H478.941V232.565H438.055V255.049H430.992V172.953H438.055V225.34H478.941V172.953H486.004V255.082V255.049Z" fill="#0D0802"/>
<path d="M549.568 255.049H542.441L542.506 186.787L501.393 255.049H494.168V172.953H501.295L501.069 241.669L542.538 172.953H549.536V255.082L549.568 255.049Z" fill="#0D0802"/>
<path d="M425.001 255.049H417.809L410.616 233.277H383.564L376.307 255.049H369.18L397.074 171.203L424.969 255.049H425.001ZM408.284 226.279L397.139 192.618L385.897 226.279H408.284Z" fill="#0D0802"/>
<path d="M77.5008 183.742C69.0774 175.319 58.8397 171.172 47.0469 171.172C35.2541 171.172 25.146 175.384 16.8197 183.807C15.3618 185.265 14.0983 186.788 12.932 188.343L18.9256 192.878C19.9299 191.615 20.837 190.351 22.0034 189.12C28.9365 182.187 37.3275 178.656 47.0793 178.656C56.831 178.656 65.2544 181.993 72.1876 188.958C79.1207 195.891 80.611 200.168 81.9393 206.939H47.306V214.229H82.5872C82.5872 223.98 78.8615 232.209 71.9284 239.142C64.9952 246.076 56.831 249.153 47.0145 249.153C37.1979 249.153 29.2281 245.752 22.2949 238.786C21.1286 237.62 19.9947 236.583 19.0228 235.287L12.8672 239.952C14.0659 241.508 15.3294 243.03 16.7549 244.488C25.0812 252.847 35.4161 256.734 47.2413 256.734C59.0665 256.734 68.9154 252.814 77.3712 244.423C85.7946 236.032 90.0064 225.957 90.0064 214.164C90.0064 202.371 85.8918 192.133 77.436 183.677V183.742H77.5008Z" fill="#0D0802"/>
<path d="M567.358 244.26C575.814 252.684 586.052 256.831 597.877 256.831C609.702 256.831 619.81 252.619 628.169 244.195C629.627 242.737 630.89 241.215 632.057 239.66L626.063 235.124C625.059 236.387 624.152 237.651 622.953 238.882C616.02 245.815 607.629 249.347 597.845 249.347C588.06 249.347 579.637 246.01 572.704 239.044C565.771 232.111 562.272 223.623 562.272 213.774C562.272 203.925 565.998 195.793 572.931 188.795C579.864 181.862 588.06 178.784 597.877 178.784C607.694 178.784 615.696 182.186 622.661 189.152C623.86 190.318 624.962 191.355 625.933 192.65L632.089 187.985C630.89 186.43 629.627 184.907 628.169 183.449C619.81 175.091 609.475 171.203 597.618 171.203C585.76 171.203 575.911 175.123 567.455 183.514C559 191.905 554.82 201.981 554.82 213.774C554.82 225.567 558.967 235.837 567.391 244.26H567.358Z" fill="#0D0802"/>
<path d="M687.128 172.953H632.344V179.335H656.189V255.049H663.284V179.335H687.128V172.953Z" fill="#0D0802"/>
<path d="M184.025 251.941C204.942 251.941 221.898 234.985 221.898 214.068C221.898 193.152 204.942 176.195 184.025 176.195C163.109 176.195 146.152 193.152 146.152 214.068C146.152 234.985 163.109 251.941 184.025 251.941Z" fill="#BDD137"/>
<path d="M214.286 183.807C205.895 175.416 195.787 171.172 183.994 171.172C172.201 171.172 162.158 175.384 153.864 183.807C145.57 192.198 141.391 202.306 141.391 214.099C141.391 225.892 145.57 235.967 153.864 244.294C162.158 252.62 172.233 256.799 183.994 256.799C195.754 256.799 205.895 252.588 214.286 244.229C222.677 235.87 226.888 225.827 226.888 214.099C226.888 202.371 222.677 192.198 214.286 183.807ZM185.84 178.688C194.199 179.077 201.489 182.058 207.677 187.695L185.84 209.531V178.688ZM182.212 213.127L170.905 224.434V181.053C174.436 179.628 178.227 178.85 182.212 178.656V213.095V213.127ZM184.868 215.784H219.405C219.21 219.801 218.433 223.559 217.039 227.09H173.497L184.804 215.784H184.868ZM219.405 212.155H188.497L210.333 190.319C215.97 196.507 219.016 203.796 219.405 212.155ZM148.68 214.099C148.68 204.315 152.147 195.956 159.08 189.055C165.981 182.155 164.296 184.487 167.179 182.9V228.257L157.719 237.717C151.693 231.075 148.68 223.235 148.68 214.164V214.099ZM209.07 239.045C202.169 245.946 193.778 249.445 184.026 249.445C174.274 249.445 167.017 246.4 160.343 240.309L169.804 230.849H215.29C213.703 233.764 211.597 236.486 209.07 239.045Z" fill="#0D0802"/>
</svg>
