<svg width="700" height="428" viewBox="0 0 700 428" fill="none" xmlns="http://www.w3.org/2000/svg">
<g clip-path="url(#clip0_6607_3437)">
<path d="M125.507 244.047C125.507 247.577 124.857 250.917 123.567 254.047C122.277 257.187 120.387 259.927 117.917 262.247C115.437 264.577 112.407 266.417 108.817 267.767C105.217 269.117 101.107 269.787 96.4567 269.787H64.6367V218.297H96.4467C101.087 218.297 105.207 218.967 108.807 220.317C112.397 221.667 115.437 223.507 117.907 225.837C120.387 228.167 122.267 230.897 123.557 234.037C124.847 237.177 125.497 240.517 125.497 244.037L125.507 244.047ZM113.347 244.047C113.347 241.987 113.007 240.037 112.327 238.197C111.647 236.357 110.597 234.767 109.177 233.417C107.747 232.067 105.967 230.997 103.817 230.217C101.667 229.437 99.1267 229.037 96.1967 229.037H76.2067V259.057H96.1867C99.1167 259.057 101.667 258.667 103.807 257.887C105.957 257.107 107.737 256.037 109.167 254.677C110.587 253.327 111.647 251.737 112.317 249.897C112.997 248.057 113.337 246.107 113.337 244.047H113.347Z" fill="#010101"/>
<path d="M134.826 269.787V218.297H186.906V229.407H145.696V238.677H173.936L173.876 248.677H145.696V258.687H188.506V269.797H134.816L134.826 269.787Z" fill="#010101"/>
<path d="M230.686 269.787H215.336L190.316 218.297H203.676L223.006 258.907L242.336 218.297H255.696L230.676 269.787H230.686Z" fill="#010101"/>
<path d="M260.516 269.787V218.297H311.846V229.407H271.236V238.677H298.356L298.386 248.677H271.236V258.687H313.436V269.797H260.516V269.787Z" fill="#010101"/>
<path d="M322.918 269.787V218.297H334.308V258.687H374.488V269.797H322.918V269.787Z" fill="#010101"/>
<path d="M438.706 244.048C438.706 247.778 437.966 251.298 436.496 254.598C435.026 257.918 432.896 260.818 430.116 263.318C427.336 265.818 423.946 267.808 419.946 269.278C415.946 270.748 411.426 271.488 406.366 271.488C401.306 271.488 396.786 270.748 392.776 269.278C388.776 267.808 385.386 265.818 382.606 263.318C379.826 260.818 377.696 257.918 376.226 254.598C374.746 251.288 374.016 247.778 374.016 244.048C374.016 240.318 374.746 236.798 376.226 233.488C377.696 230.178 379.816 227.268 382.606 224.768C385.386 222.268 388.776 220.278 392.776 218.808C396.776 217.338 401.306 216.598 406.366 216.598C411.426 216.598 415.946 217.328 419.946 218.808C423.946 220.278 427.336 222.268 430.116 224.768C432.896 227.268 435.026 230.178 436.496 233.488C437.966 236.798 438.706 240.318 438.706 244.048ZM425.956 244.048C425.956 241.838 425.556 239.738 424.746 237.758C423.946 235.778 422.726 234.018 421.096 232.498C419.456 230.978 417.416 229.778 414.956 228.888C412.496 228.008 409.636 227.568 406.376 227.568C403.116 227.568 400.246 228.008 397.786 228.888C395.326 229.768 393.286 230.968 391.646 232.498C390.016 234.018 388.796 235.768 387.986 237.758C387.186 239.748 386.786 241.838 386.786 244.048C386.786 246.258 387.186 248.348 387.986 250.338C388.796 252.318 390.006 254.078 391.646 255.598C393.276 257.118 395.326 258.318 397.786 259.208C400.246 260.088 403.106 260.528 406.376 260.528C409.646 260.528 412.496 260.088 414.956 259.208C417.406 258.318 419.456 257.118 421.096 255.598C422.726 254.078 423.946 252.328 424.746 250.338C425.556 248.348 425.956 246.258 425.956 244.048Z" fill="#010101"/>
<path d="M506.418 235.217C506.418 238.607 505.848 241.397 504.708 243.607C503.568 245.817 502.198 247.557 500.598 248.827C498.998 250.107 497.348 250.987 495.638 251.477C493.928 251.967 492.498 252.207 491.358 252.207H461.568V269.787H449.988V218.297H491.358C492.588 218.297 494.068 218.547 495.798 219.027C497.528 219.517 499.188 220.387 500.768 221.647C502.338 222.887 503.678 224.607 504.778 226.797C505.878 228.977 506.418 231.787 506.418 235.217ZM494.838 235.217C494.838 233.997 494.638 232.997 494.248 232.237C493.858 231.477 493.368 230.887 492.798 230.467C492.228 230.057 491.648 229.767 491.058 229.627C490.468 229.477 489.988 229.407 489.648 229.407H461.558V241.107H489.648C489.908 241.107 490.328 241.027 490.898 240.857C491.468 240.687 492.048 240.377 492.638 239.937C493.228 239.487 493.748 238.897 494.178 238.127C494.618 237.367 494.838 236.397 494.838 235.227V235.217Z" fill="#010101"/>
<path d="M512.975 269.787V218.297H564.235V229.407H523.675V238.677H551.095L551.125 248.677H523.675V258.687H565.805V269.797H512.965L512.975 269.787Z" fill="#010101"/>
<path d="M632.616 235.217C632.616 237.477 632.346 239.457 631.816 241.177C631.276 242.897 630.576 244.377 629.696 245.627C628.826 246.877 627.836 247.917 626.746 248.757C625.646 249.587 623.166 250.817 622.046 251.297L635.376 269.727L621.916 269.787L609.376 252.207H586.836V269.787H575.016V218.297H617.246C618.496 218.297 620.006 218.547 621.776 219.027C623.546 219.517 625.236 220.387 626.846 221.647C628.456 222.887 629.826 224.607 630.946 226.797C632.066 228.977 632.626 231.787 632.626 235.217H632.616ZM620.796 235.217C620.796 233.997 620.596 232.997 620.196 232.237C619.796 231.477 619.306 230.887 618.716 230.467C618.136 230.057 617.546 229.767 616.946 229.627C616.336 229.477 615.866 229.407 615.496 229.407H586.826V241.107H615.496C615.766 241.107 616.186 241.027 616.766 240.857C617.346 240.687 617.946 240.377 618.546 239.937C619.146 239.487 619.676 238.897 620.126 238.127C620.576 237.367 620.796 236.397 620.796 235.227V235.217Z" fill="#010101"/>
<path d="M143.027 158.279C143.027 161.399 142.657 164.149 141.927 166.519C141.197 168.899 140.237 170.949 139.047 172.669C137.857 174.399 136.517 175.839 135.027 176.989C133.537 178.139 130.247 179.959 128.727 180.629L145.797 206.079H127.907L111.447 181.759H80.7067V206.079H64.6367V134.879H122.107C123.817 134.879 125.867 135.219 128.277 135.899C130.687 136.579 132.987 137.779 135.177 139.509C137.367 141.239 139.227 143.619 140.747 146.629C142.267 149.649 143.037 153.529 143.037 158.279H143.027ZM126.947 158.279C126.947 156.579 126.677 155.209 126.127 154.159C125.577 153.109 124.907 152.299 124.117 151.719C123.327 151.139 122.517 150.749 121.697 150.549C120.877 150.349 120.217 150.249 119.737 150.249H80.7167V166.429H119.727C120.097 166.429 120.667 166.309 121.467 166.069C122.257 165.829 123.067 165.409 123.887 164.799C124.707 164.189 125.427 163.359 126.037 162.309C126.647 161.259 126.957 159.919 126.957 158.289L126.947 158.279Z" fill="#EB2127"/>
<path d="M156.738 206.099V134.879H229.478V150.239H172.828V163.059H212.988V176.899H172.828V190.739H230.518V206.099H156.748H156.738Z" fill="#EB2127"/>
<path d="M64.6367 291.111V281.891H67.8467C69.0667 281.891 69.8467 281.941 70.2267 282.031C70.7967 282.171 71.2667 282.471 71.6467 282.931C72.0267 283.391 72.2167 283.991 72.2167 284.731C72.2167 285.301 72.1067 285.771 71.8867 286.161C71.6667 286.551 71.3867 286.851 71.0467 287.071C70.7067 287.291 70.3667 287.441 70.0167 287.511C69.5367 287.601 68.8467 287.651 67.9467 287.651H66.6467V291.131H64.6367V291.111ZM66.6367 283.441V286.061H67.7267C68.5167 286.061 69.0367 286.011 69.3067 285.911C69.5767 285.821 69.7867 285.661 69.9367 285.461C70.0867 285.251 70.1567 285.011 70.1567 284.741C70.1567 284.401 70.0567 284.131 69.8367 283.911C69.6267 283.701 69.3567 283.561 69.0367 283.511C68.7967 283.471 68.3167 283.451 67.5967 283.451H66.6267L66.6367 283.441Z" fill="#010101"/>
<path d="M75.9258 291.111V281.891H83.2558V283.451H77.9158V285.501H82.8858V287.051H77.9158V289.561H83.4458V291.121H75.9258V291.111Z" fill="#010101"/>
<path d="M88.008 281.879H94.848V289.559H95.718V293.119H94.058V291.109H87.828V293.119H86.168V289.559H87.008C87.418 288.769 87.688 287.849 87.818 286.809C87.948 285.769 88.008 284.449 88.008 282.859V281.879ZM89.918 283.429C89.918 286.229 89.648 288.269 89.098 289.559H92.858V283.429H89.918Z" fill="#010101"/>
<path d="M99.125 291.111V281.891H106.455V283.451H101.115V285.501H106.085V287.051H101.115V289.561H106.645V291.121H99.125V291.111Z" fill="#010101"/>
<path d="M110.428 281.879H114.388C115.168 281.879 115.748 281.909 116.138 281.969C116.528 282.029 116.868 282.159 117.168 282.359C117.468 282.549 117.728 282.809 117.928 283.129C118.128 283.449 118.228 283.809 118.228 284.209C118.228 284.639 118.098 285.039 117.848 285.399C117.598 285.759 117.258 286.029 116.828 286.209C117.428 286.369 117.898 286.649 118.218 287.049C118.538 287.449 118.708 287.909 118.708 288.439C118.708 288.859 118.608 289.269 118.398 289.659C118.188 290.059 117.908 290.379 117.538 290.609C117.168 290.839 116.728 290.989 116.198 291.049C115.868 291.079 115.058 291.099 113.788 291.109H110.418V281.889L110.428 281.879ZM112.428 283.419V285.549H113.738C114.518 285.549 114.998 285.549 115.188 285.519C115.528 285.479 115.798 285.369 115.998 285.189C116.198 285.009 116.288 284.769 116.288 284.469C116.288 284.169 116.208 283.949 116.038 283.769C115.868 283.589 115.618 283.489 115.288 283.449C115.088 283.429 114.518 283.419 113.578 283.419H112.428ZM112.428 287.079V289.549H114.278C114.998 289.549 115.448 289.529 115.648 289.499C115.948 289.449 116.188 289.319 116.378 289.129C116.568 288.929 116.658 288.669 116.658 288.349C116.658 288.069 116.588 287.839 116.448 287.639C116.298 287.449 116.098 287.309 115.818 287.219C115.538 287.129 114.958 287.079 114.048 287.079H112.438H112.428Z" fill="#010101"/>
<path d="M122.465 291.111V281.891H129.795V283.451H124.465V285.501H129.435V287.051H124.465V289.561H129.995V291.121H122.475L122.465 291.111Z" fill="#010101"/>
<path d="M134.467 281.879H141.397V291.099H139.397V283.439H136.427V287.379C136.427 288.509 136.387 289.289 136.307 289.739C136.227 290.189 136.027 290.529 135.717 290.779C135.407 291.029 134.917 291.159 134.247 291.159C134.007 291.159 133.587 291.139 132.977 291.099V289.659H133.427C133.847 289.659 134.127 289.609 134.267 289.509C134.407 289.399 134.487 289.149 134.487 288.729V287.149V281.879H134.467Z" fill="#010101"/>
<path d="M145.127 286.55C145.127 285.61 145.277 284.82 145.577 284.19C145.797 283.72 146.107 283.3 146.497 282.93C146.887 282.55 147.317 282.28 147.777 282.1C148.397 281.85 149.107 281.73 149.907 281.73C151.367 281.73 152.527 282.15 153.407 282.99C154.287 283.83 154.717 285.01 154.717 286.51C154.717 288.01 154.287 289.16 153.417 290C152.547 290.84 151.387 291.26 149.937 291.26C148.487 291.26 147.297 290.84 146.427 290C145.557 289.17 145.117 288.01 145.117 286.54L145.127 286.55ZM147.177 286.49C147.177 287.53 147.437 288.32 147.957 288.86C148.477 289.4 149.127 289.67 149.927 289.67C150.727 289.67 151.377 289.4 151.887 288.87C152.397 288.33 152.647 287.54 152.647 286.46C152.647 285.38 152.397 284.62 151.907 284.1C151.417 283.58 150.747 283.32 149.927 283.32C149.107 283.32 148.437 283.58 147.937 284.11C147.437 284.64 147.187 285.43 147.187 286.49H147.177Z" fill="#010101"/>
<path d="M158.375 281.879H166.245V291.099H164.245V283.419H160.375V291.099H158.375V281.879Z" fill="#010101"/>
<path d="M170.328 291.111V281.891H173.318L175.118 288.181L176.888 281.891H179.888V291.111H178.038V283.851L176.078 291.111H174.158L172.198 283.851V291.111H170.338H170.328Z" fill="#010101"/>
<path d="M183.938 291.111V281.891H191.267V283.451H185.927V285.501H190.897V287.051H185.927V289.561H191.457V291.121H183.938V291.111Z" fill="#010101"/>
<path d="M195.227 291.111V281.891H197.227V285.521H201.137V281.891H203.137V291.111H201.137V287.081H197.227V291.111H195.227Z" fill="#010101"/>
<path d="M209.496 291.111V283.451H206.566V281.891H214.426V283.451H211.496V291.111H209.496Z" fill="#010101"/>
<path d="M229.605 291.111V281.891H232.815C234.035 281.891 234.825 281.941 235.195 282.031C235.765 282.171 236.235 282.471 236.615 282.931C236.995 283.391 237.195 283.991 237.195 284.731C237.195 285.301 237.085 285.771 236.865 286.161C236.645 286.551 236.365 286.851 236.025 287.071C235.685 287.291 235.345 287.441 234.995 287.511C234.515 287.601 233.825 287.651 232.925 287.651H231.625V291.131H229.625L229.605 291.111ZM231.605 283.441V286.061H232.695C233.485 286.061 234.015 286.011 234.275 285.911C234.535 285.821 234.745 285.661 234.895 285.461C235.045 285.251 235.125 285.011 235.125 284.741C235.125 284.401 235.015 284.131 234.805 283.911C234.595 283.701 234.325 283.561 234.005 283.511C233.765 283.471 233.285 283.451 232.565 283.451H231.595L231.605 283.441Z" fill="#010101"/>
<path d="M240.897 291.111V281.891H248.227V283.451H242.887V285.501H247.857V287.051H242.887V289.561H248.407V291.121H240.887L240.897 291.111Z" fill="#010101"/>
<path d="M252.195 291.111V281.891H254.195V285.521H258.105V281.891H260.105V291.111H258.105V287.081H254.195V291.111H252.195Z" fill="#010101"/>
<path d="M263.836 286.55C263.836 285.61 263.986 284.82 264.286 284.19C264.506 283.72 264.816 283.3 265.206 282.93C265.596 282.55 266.026 282.28 266.486 282.1C267.106 281.85 267.816 281.73 268.616 281.73C270.076 281.73 271.246 282.15 272.116 282.99C272.996 283.83 273.436 285.01 273.436 286.51C273.436 288.01 272.996 289.16 272.136 290C271.276 290.84 270.106 291.26 268.656 291.26C267.206 291.26 266.016 290.84 265.146 290C264.276 289.17 263.846 288.01 263.846 286.54L263.836 286.55ZM265.886 286.49C265.886 287.53 266.146 288.32 266.666 288.86C267.186 289.4 267.836 289.67 268.636 289.67C269.436 289.67 270.086 289.4 270.596 288.87C271.106 288.33 271.366 287.54 271.366 286.46C271.366 285.38 271.116 284.62 270.616 284.1C270.126 283.58 269.456 283.32 268.636 283.32C267.816 283.32 267.146 283.58 266.646 284.11C266.146 284.64 265.886 285.43 265.886 286.49Z" fill="#010101"/>
<path d="M277.069 281.879H281.019C281.799 281.879 282.379 281.909 282.769 281.969C283.149 282.029 283.499 282.159 283.799 282.359C284.099 282.549 284.359 282.809 284.559 283.129C284.759 283.449 284.859 283.809 284.859 284.209C284.859 284.639 284.729 285.039 284.479 285.399C284.229 285.759 283.889 286.029 283.469 286.209C284.069 286.369 284.539 286.649 284.859 287.049C285.179 287.449 285.349 287.909 285.349 288.439C285.349 288.859 285.249 289.269 285.039 289.659C284.829 290.059 284.549 290.379 284.179 290.609C283.819 290.849 283.369 290.989 282.839 291.049C282.509 291.079 281.699 291.099 280.429 291.109H277.059V281.889L277.069 281.879ZM279.069 283.419V285.549H280.379C281.159 285.549 281.639 285.549 281.829 285.519C282.169 285.479 282.439 285.369 282.639 285.189C282.839 285.009 282.929 284.769 282.929 284.469C282.929 284.169 282.849 283.949 282.679 283.769C282.509 283.589 282.259 283.489 281.929 283.449C281.729 283.429 281.159 283.419 280.219 283.419H279.069ZM279.069 287.079V289.549H280.919C281.639 289.549 282.089 289.529 282.289 289.499C282.589 289.449 282.829 289.319 283.019 289.129C283.209 288.929 283.299 288.669 283.299 288.349C283.299 288.069 283.229 287.839 283.079 287.639C282.939 287.449 282.729 287.309 282.459 287.219C282.189 287.129 281.599 287.079 280.689 287.079H279.079H279.069Z" fill="#010101"/>
<path d="M297.336 291.111H295.166L294.306 289.011H290.346L289.526 291.111H287.406L291.256 281.891H293.366L297.326 291.111H297.336ZM293.666 287.461L292.306 284.041L290.966 287.461H293.666Z" fill="#010101"/>
<path d="M300.508 281.879H302.508V289.559H306.378V281.879H308.378V289.559H309.198V293.119H307.538V291.109H300.508V281.889V281.879Z" fill="#010101"/>
<path d="M312.668 281.879H314.538V288.019L318.548 281.879H320.538V291.099H318.668V285.079L314.668 291.099H312.668V281.879Z" fill="#010101"/>
<path d="M330.558 291.109V287.259H330.158C329.528 287.259 329.088 287.349 328.828 287.519C328.568 287.699 328.128 288.219 327.498 289.099L326.058 291.109H323.668L324.878 289.309C325.358 288.599 325.738 288.099 326.018 287.809C326.298 287.519 326.658 287.259 327.088 287.029C326.168 286.889 325.498 286.599 325.088 286.139C324.678 285.679 324.478 285.119 324.478 284.469C324.478 283.909 324.628 283.409 324.938 282.969C325.238 282.539 325.638 282.239 326.138 282.099C326.638 281.959 327.378 281.879 328.368 281.879H332.568V291.099H330.568L330.558 291.109ZM330.558 283.439H328.998C328.208 283.439 327.688 283.459 327.438 283.489C327.188 283.519 326.978 283.639 326.798 283.829C326.618 284.019 326.528 284.269 326.528 284.579C326.528 284.909 326.618 285.159 326.788 285.359C326.958 285.549 327.178 285.669 327.448 285.709C327.718 285.759 328.258 285.779 329.088 285.779H330.568V283.439H330.558Z" fill="#010101"/>
<path d="M348.467 291.111V281.891H351.667C352.877 281.891 353.667 281.941 354.047 282.031C354.617 282.171 355.087 282.471 355.467 282.931C355.857 283.391 356.037 283.991 356.037 284.731C356.037 285.301 355.927 285.771 355.707 286.161C355.487 286.551 355.207 286.851 354.867 287.071C354.527 287.291 354.177 287.441 353.827 287.511C353.347 287.601 352.657 287.651 351.757 287.651H350.457V291.131H348.457L348.467 291.111ZM350.467 283.441V286.061H351.557C352.347 286.061 352.877 286.011 353.137 285.911C353.397 285.821 353.607 285.661 353.767 285.461C353.917 285.251 353.987 285.011 353.987 284.741C353.987 284.401 353.887 284.131 353.667 283.911C353.457 283.701 353.187 283.561 352.867 283.511C352.627 283.471 352.147 283.451 351.427 283.451H350.457L350.467 283.441Z" fill="#010101"/>
<path d="M359.758 291.111V281.891H367.088V283.451H361.758V285.501H366.718V287.051H361.758V289.561H367.278V291.121H359.758V291.111Z" fill="#010101"/>
<path d="M371.078 281.879H373.078V285.799C373.528 285.759 373.818 285.649 373.978 285.479C374.128 285.299 374.378 284.829 374.708 284.039C375.118 283.039 375.538 282.419 375.958 282.169C376.368 281.929 377.038 281.809 377.958 281.809C378.008 281.809 378.098 281.809 378.248 281.809V283.179H377.958C377.548 283.179 377.258 283.219 377.068 283.319C376.878 283.419 376.718 283.559 376.608 283.749C376.488 283.949 376.318 284.339 376.088 284.939C375.968 285.259 375.828 285.529 375.698 285.739C375.548 285.949 375.308 286.159 374.948 286.339C375.398 286.459 375.758 286.699 376.048 287.049C376.338 287.409 376.658 287.909 376.998 288.559L378.348 291.089H375.998L374.818 288.699C374.818 288.699 374.768 288.599 374.708 288.509C374.688 288.479 374.598 288.329 374.458 288.069C374.208 287.619 373.998 287.329 373.828 287.219C373.668 287.109 373.418 287.049 373.078 287.039V291.079H371.078V281.859V281.879Z" fill="#010101"/>
<path d="M381.148 286.55C381.148 285.61 381.298 284.82 381.598 284.19C381.828 283.72 382.138 283.3 382.518 282.93C382.908 282.55 383.338 282.28 383.798 282.1C384.418 281.85 385.128 281.73 385.928 281.73C387.388 281.73 388.548 282.15 389.428 282.99C390.298 283.83 390.738 285.01 390.738 286.51C390.738 288.01 390.308 289.16 389.438 290C388.568 290.84 387.408 291.26 385.958 291.26C384.508 291.26 383.318 290.84 382.448 290C381.578 289.17 381.148 288.01 381.148 286.54V286.55ZM383.208 286.49C383.208 287.53 383.468 288.32 383.978 288.86C384.498 289.4 385.158 289.67 385.948 289.67C386.738 289.67 387.398 289.4 387.898 288.87C388.418 288.33 388.668 287.54 388.668 286.46C388.668 285.38 388.418 284.62 387.928 284.1C387.428 283.58 386.768 283.32 385.948 283.32C385.128 283.32 384.458 283.58 383.958 284.11C383.458 284.64 383.208 285.43 383.208 286.49Z" fill="#010101"/>
<path d="M394.375 291.111V281.891H396.375V285.521H400.285V281.891H402.285V291.111H400.285V287.081H396.375V291.111H394.375Z" fill="#010101"/>
<path d="M406.457 281.879H408.457V289.559H412.337V281.879H414.337V289.559H415.167V293.119H413.507V291.109H406.477V281.889L406.457 281.879Z" fill="#010101"/>
<path d="M418.586 291.111V281.891H425.926V283.451H420.586V285.501H425.556V287.051H420.586V289.561H426.106V291.121H418.586V291.111Z" fill="#010101"/>
<path d="M429.908 281.879H437.768V291.099H435.768V283.419H431.898V291.099H429.898V281.879H429.908Z" fill="#010101"/>
<path d="M441.918 281.879H443.918V289.559H447.798V281.879H449.798V289.559H450.618V293.119H448.958V291.109H441.928V281.889L441.918 281.879Z" fill="#010101"/>
<path d="M454.076 281.879H455.946V288.019L459.946 281.879H461.936V291.099H460.066V285.079L456.066 291.099H454.066V281.879H454.076Z" fill="#010101"/>
<path d="M471.968 291.109V287.259H471.568C470.938 287.259 470.488 287.349 470.228 287.519C469.978 287.699 469.528 288.219 468.908 289.099L467.468 291.109H465.078L466.288 289.309C466.768 288.599 467.148 288.099 467.428 287.809C467.718 287.519 468.068 287.259 468.498 287.029C467.578 286.889 466.908 286.599 466.498 286.139C466.088 285.679 465.878 285.119 465.878 284.469C465.878 283.909 466.038 283.409 466.338 282.969C466.638 282.539 467.038 282.239 467.538 282.099C468.038 281.949 468.778 281.879 469.768 281.879H473.968V291.099H471.968V291.109ZM471.968 283.439H470.408C469.618 283.439 469.088 283.459 468.848 283.489C468.608 283.519 468.388 283.639 468.208 283.829C468.028 284.019 467.938 284.269 467.938 284.579C467.938 284.909 468.028 285.159 468.198 285.359C468.368 285.549 468.588 285.669 468.858 285.709C469.128 285.759 469.678 285.779 470.488 285.779H471.968V283.439Z" fill="#010101"/>
<path d="M489.875 291.111V281.891H493.075C494.295 281.891 495.085 281.941 495.455 282.031C496.025 282.171 496.495 282.471 496.875 282.931C497.265 283.391 497.455 283.991 497.455 284.731C497.455 285.301 497.345 285.771 497.125 286.161C496.905 286.551 496.625 286.851 496.295 287.071C495.955 287.291 495.605 287.441 495.255 287.511C494.775 287.601 494.085 287.651 493.185 287.651H491.885V291.131H489.885L489.875 291.111ZM491.875 283.441V286.061H492.965C493.755 286.061 494.275 286.011 494.545 285.911C494.805 285.821 495.015 285.661 495.165 285.461C495.315 285.251 495.385 285.011 495.385 284.741C495.385 284.401 495.285 284.131 495.075 283.911C494.865 283.701 494.595 283.561 494.275 283.511C494.035 283.471 493.555 283.451 492.835 283.451H491.865L491.875 283.441Z" fill="#010101"/>
<path d="M501.166 291.111V281.891H508.496V283.451H503.156V285.501H508.126V287.051H503.156V289.561H508.676V291.121H501.156L501.166 291.111Z" fill="#010101"/>
<path d="M512.488 281.879H514.488V285.799C514.938 285.759 515.238 285.649 515.398 285.479C515.558 285.299 515.798 284.829 516.128 284.039C516.548 283.039 516.958 282.419 517.378 282.169C517.798 281.929 518.458 281.809 519.378 281.809C519.428 281.809 519.518 281.809 519.668 281.809V283.179H519.388C518.978 283.179 518.678 283.219 518.488 283.319C518.298 283.419 518.148 283.559 518.028 283.749C517.918 283.949 517.738 284.339 517.508 284.939C517.388 285.259 517.258 285.529 517.118 285.739C516.978 285.949 516.728 286.159 516.368 286.339C516.808 286.459 517.178 286.699 517.468 287.049C517.758 287.409 518.078 287.909 518.418 288.559L519.768 291.089H517.418L516.238 288.699C516.238 288.699 516.188 288.599 516.128 288.509C516.108 288.479 516.018 288.329 515.878 288.069C515.618 287.619 515.408 287.329 515.248 287.219C515.088 287.109 514.838 287.049 514.498 287.039V291.079H512.498V281.859L512.488 281.879Z" fill="#010101"/>
<path d="M522.555 286.55C522.555 285.61 522.705 284.82 523.005 284.19C523.225 283.72 523.545 283.3 523.925 282.93C524.315 282.55 524.735 282.28 525.195 282.1C525.815 281.85 526.525 281.73 527.325 281.73C528.785 281.73 529.955 282.15 530.825 282.99C531.705 283.83 532.135 285.01 532.135 286.51C532.135 288.01 531.695 289.16 530.825 290C529.965 290.84 528.795 291.26 527.345 291.26C525.895 291.26 524.705 290.84 523.835 290C522.965 289.17 522.535 288.01 522.535 286.54L522.555 286.55ZM524.615 286.49C524.615 287.53 524.865 288.32 525.385 288.86C525.905 289.4 526.555 289.67 527.355 289.67C528.155 289.67 528.805 289.4 529.315 288.87C529.825 288.33 530.075 287.54 530.075 286.46C530.075 285.38 529.825 284.62 529.335 284.1C528.835 283.58 528.175 283.32 527.345 283.32C526.515 283.32 525.865 283.58 525.355 284.11C524.855 284.64 524.605 285.43 524.605 286.49H524.615Z" fill="#010101"/>
<path d="M535.785 291.111V281.891H537.785V285.521H541.695V281.891H543.695V291.111H541.695V287.081H537.785V291.111H535.785Z" fill="#010101"/>
<path d="M554.167 287.719L556.097 288.289C555.797 289.299 555.307 290.039 554.617 290.529C553.927 291.019 553.047 291.259 551.987 291.259C550.677 291.259 549.597 290.839 548.747 289.999C547.907 289.159 547.477 288.019 547.477 286.569C547.477 285.039 547.907 283.849 548.747 282.999C549.597 282.149 550.717 281.719 552.097 281.719C553.307 281.719 554.287 282.059 555.047 282.719C555.497 283.109 555.837 283.679 556.057 284.419L554.077 284.859C553.967 284.379 553.717 284.009 553.347 283.729C552.967 283.459 552.517 283.319 551.997 283.319C551.267 283.319 550.667 283.559 550.207 284.059C549.747 284.549 549.527 285.339 549.527 286.439C549.527 287.599 549.757 288.429 550.197 288.929C550.647 289.429 551.237 289.669 551.957 289.669C552.487 289.669 552.947 289.509 553.327 289.199C553.717 288.879 553.987 288.389 554.157 287.709L554.167 287.719Z" fill="#010101"/>
<path d="M561.766 291.111V283.451H558.836V281.891H566.696V283.451H563.766V291.111H561.766Z" fill="#010101"/>
<path d="M570.045 291.111V281.891H573.255C574.475 281.891 575.265 281.941 575.625 282.031C576.195 282.171 576.665 282.471 577.045 282.931C577.435 283.391 577.625 283.991 577.625 284.731C577.625 285.301 577.515 285.771 577.295 286.161C577.075 286.551 576.795 286.851 576.455 287.071C576.115 287.291 575.765 287.441 575.415 287.511C574.935 287.601 574.245 287.651 573.345 287.651H572.035V291.131H570.035L570.045 291.111ZM572.045 283.441V286.061H573.135C573.925 286.061 574.455 286.011 574.715 285.911C574.975 285.821 575.185 285.661 575.335 285.461C575.485 285.251 575.565 285.011 575.565 284.741C575.565 284.401 575.465 284.131 575.245 283.911C575.035 283.701 574.765 283.561 574.445 283.511C574.205 283.471 573.725 283.451 573.005 283.451H572.035L572.045 283.441Z" fill="#010101"/>
<path d="M580.156 281.877H582.386L584.696 286.667L586.666 281.877H588.756L585.416 288.887C585.056 289.647 584.686 290.227 584.306 290.617C583.926 291.017 583.436 291.207 582.846 291.207C582.256 291.207 581.796 291.177 581.466 291.097V289.717C581.746 289.737 582.006 289.737 582.236 289.737C582.696 289.737 583.026 289.657 583.226 289.507C583.426 289.347 583.616 289.007 583.796 288.487L580.166 281.867L580.156 281.877Z" fill="#010101"/>
<path d="M591.855 281.879H593.855V285.799C594.305 285.759 594.605 285.649 594.755 285.479C594.905 285.299 595.155 284.829 595.485 284.039C595.905 283.039 596.315 282.419 596.735 282.169C597.145 281.929 597.815 281.809 598.735 281.809C598.775 281.809 598.876 281.809 599.026 281.809V283.179H598.745C598.335 283.179 598.036 283.219 597.846 283.319C597.656 283.419 597.505 283.559 597.385 283.749C597.265 283.949 597.095 284.339 596.865 284.939C596.745 285.259 596.616 285.529 596.476 285.739C596.336 285.949 596.086 286.159 595.726 286.339C596.176 286.459 596.536 286.699 596.836 287.049C597.126 287.409 597.446 287.909 597.786 288.559L599.135 291.089H596.786L595.605 288.699C595.605 288.699 595.545 288.599 595.485 288.509C595.465 288.479 595.385 288.329 595.235 288.069C594.985 287.619 594.765 287.329 594.605 287.219C594.435 287.109 594.185 287.049 593.855 287.039V291.079H591.855V281.859V281.879Z" fill="#010101"/>
<path d="M602.367 281.879H604.367V289.559H608.237V281.879H610.227V289.559H611.057V293.119H609.397V291.109H602.367V281.889V281.879Z" fill="#010101"/>
<path d="M614.526 281.879H616.396V288.019L620.406 281.879H622.396V291.099H620.526V285.079L616.516 291.099H614.516V281.879H614.526Z" fill="#010101"/>
<path d="M632.416 291.109V287.259H632.016C631.386 287.259 630.946 287.349 630.686 287.519C630.426 287.689 629.986 288.219 629.356 289.099L627.906 291.109H625.516L626.726 289.309C627.206 288.599 627.576 288.099 627.866 287.809C628.156 287.519 628.506 287.259 628.936 287.029C628.016 286.889 627.346 286.599 626.936 286.139C626.526 285.679 626.316 285.119 626.316 284.469C626.316 283.909 626.466 283.409 626.766 282.969C627.076 282.539 627.476 282.239 627.976 282.099C628.476 281.949 629.216 281.879 630.206 281.879H634.406V291.099H632.406L632.416 291.109ZM632.416 283.439H630.856C630.066 283.439 629.546 283.459 629.296 283.489C629.046 283.519 628.826 283.639 628.656 283.829C628.466 284.019 628.386 284.269 628.386 284.579C628.386 284.909 628.466 285.159 628.646 285.359C628.816 285.549 629.036 285.669 629.306 285.709C629.576 285.759 630.116 285.779 630.946 285.779H632.426V283.439H632.416Z" fill="#010101"/>
</g>
<defs>
<clipPath id="clip0_6607_3437">
<rect width="570.73" height="158.24" fill="white" transform="translate(64.6367 134.879)"/>
</clipPath>
</defs>
</svg>
