<svg width="700" height="428" viewBox="0 0 700 428" fill="none" xmlns="http://www.w3.org/2000/svg">
<path d="M672.023 135.91H34.082V292.084H672.023V135.91Z" stroke="#010101" stroke-width="3.23"/>
<path d="M108.19 234.642C104.374 234.642 100.974 233.79 97.9765 232.095C94.9787 230.399 92.6115 228.073 90.8833 225.108C89.1878 222.11 88.3359 218.76 88.3359 215.049C88.3359 211.339 89.1796 208.005 90.8833 205.048C92.6115 202.051 94.9787 199.7 97.9765 198.004C100.974 196.309 104.374 195.457 108.19 195.457C111.655 195.457 114.653 196.112 117.184 197.406C119.772 198.684 121.82 200.355 123.327 202.444C124.892 204.524 126.014 206.785 126.718 209.218H120.256C119.404 207.039 117.954 205.18 115.923 203.664C113.908 202.141 111.336 201.379 108.19 201.379C105.643 201.379 103.374 201.969 101.368 203.124C99.3526 204.295 97.7799 205.892 96.6496 207.948C95.5193 209.996 94.9541 212.363 94.9541 215.041C94.9541 217.72 95.5029 220.152 96.6005 222.2C97.7308 224.248 99.3034 225.845 101.302 227.016C103.317 228.147 105.61 228.704 108.19 228.704C111.409 228.704 114.055 227.876 116.136 226.222C118.216 224.526 119.682 222.479 120.534 220.079H126.997C126.218 222.651 125.014 225.05 123.384 227.278C121.804 229.473 119.715 231.251 117.143 232.627C114.571 233.97 111.59 234.642 108.199 234.642H108.19Z" fill="#010101"/>
<path d="M132.691 233.579V196.523H149.048C151.915 196.523 154.413 197.072 156.559 198.17C158.714 199.267 160.376 200.783 161.531 202.716C162.727 204.632 163.333 206.754 163.333 209.08C163.333 211.406 162.735 213.577 161.531 215.477C160.376 217.385 158.705 218.901 156.559 220.031C154.413 221.12 151.907 221.661 149.048 221.661H138.99V233.57H132.691V233.579ZM148.95 215.747C151.489 215.747 153.447 215.149 154.823 213.945C156.199 212.708 156.895 211.079 156.895 209.08C156.895 207.081 156.199 205.509 154.823 204.313C153.447 203.084 151.498 202.462 148.95 202.462H138.99V215.747H148.95Z" fill="#010101"/>
<path d="M168.938 233.579V196.523H195.779V202.462H175.228V212.045H191.806V217.697H175.228V227.657H195.779V233.579H168.938Z" fill="#010101"/>
<path d="M198.16 240.467V227.657H202.387L210.332 196.523H225.689L233.635 227.657H237.869V240.467H231.677V233.579H204.361V240.467H198.168H198.16ZM208.587 227.657H227.434L220.922 202.462H215.099L208.587 227.657Z" fill="#010101"/>
<path d="M238.813 233.579L248.445 196.523H264.057L273.689 233.579H267.227L264.745 224.061H247.749L245.259 233.579H238.805H238.813ZM249.232 218.123H263.262L259.192 202.454H253.319L249.232 218.123Z" fill="#010101"/>
<path d="M287.867 240.467V227.657H292.094L300.039 196.523H315.388L323.333 227.657H327.576V240.467H321.384V233.579H294.068V240.467H287.875H287.867ZM298.286 227.657H317.133L310.621 202.462H304.798L298.286 227.657Z" fill="#010101"/>
<path d="M328.508 233.579L338.034 196.523H353.236L362.77 233.579H356.414L348.371 202.454H342.924L334.815 233.579H328.516H328.508Z" fill="#010101"/>
<path d="M374.568 219.818C372.054 218.975 369.99 217.574 368.36 215.641C366.779 213.7 365.984 211.333 365.984 208.548C365.984 206.287 366.533 204.24 367.631 202.405C368.761 200.562 370.383 199.137 372.504 198.113C374.65 197.056 377.148 196.516 379.966 196.516H396.528V233.571H390.18V220.605H380.916L373.241 233.571H366.083L374.56 219.81L374.568 219.818ZM379.966 214.691H390.18V202.462H379.966C377.525 202.462 375.658 203.019 374.355 204.158C373.086 205.288 372.455 206.754 372.455 208.556C372.455 210.358 373.086 211.931 374.355 213.053C375.658 214.15 377.525 214.699 379.966 214.699V214.691Z" fill="#010101"/>
<path d="M415.348 233.579L428.33 214.42L415.995 196.523H423.244L433.834 211.881H438.765V196.523H445.113V211.881H449.987L460.626 196.523H467.884L455.548 214.42L468.514 233.579H460.995L450.257 217.811H445.113V233.579H438.765V217.811H433.572L422.883 233.579H415.356H415.348Z" fill="#010101"/>
<path d="M472.52 233.579V196.523H478.818V222.464L478.556 225.011H478.867L495.814 196.523H503.858V233.579H497.51V207.647L497.821 205.099H497.51L480.563 233.57H472.52V233.579Z" fill="#010101"/>
<path d="M525.009 234.641C521.864 234.641 519.169 234.068 516.9 232.946C514.648 231.815 512.862 230.349 511.56 228.547C510.257 226.721 509.365 224.73 508.914 222.625H515.377C515.909 224.313 516.998 225.754 518.653 226.958C520.307 228.129 522.478 228.711 525.165 228.711C526.926 228.711 528.433 228.465 529.661 227.974C530.89 227.433 531.791 226.753 532.356 225.91C532.954 225.066 533.257 224.091 533.257 222.994C533.257 221.896 532.954 221.012 532.356 220.193C531.791 219.39 530.89 218.743 529.661 218.292C528.433 217.801 526.868 217.547 525.009 217.547H520.127V211.625H525.009C527.368 211.625 529.145 211.15 530.349 210.192C531.578 209.241 532.201 207.988 532.201 206.44C532.201 205.523 531.906 204.687 531.349 203.942C530.824 203.164 530.005 202.55 528.908 202.091C527.81 201.632 526.508 201.395 525.001 201.395C522.666 201.395 520.774 201.935 519.333 202.992C517.883 204.016 516.916 205.244 516.417 206.694H509.954C510.454 204.72 511.322 202.894 512.551 201.198C513.82 199.503 515.516 198.126 517.637 197.07C519.759 196.005 522.257 195.473 525.156 195.473C528.056 195.473 530.308 195.948 532.348 196.898C534.396 197.848 535.952 199.142 537.009 200.764C538.09 202.386 538.639 204.188 538.639 206.162C538.639 208.136 538.082 209.921 536.951 211.297C535.854 212.641 534.51 213.591 532.93 214.156V214.524C534.789 215.049 536.386 216.081 537.688 217.596C539.032 219.087 539.703 221.02 539.703 223.42C539.703 225.508 539.138 227.409 538.008 229.137C536.877 230.832 535.207 232.176 532.979 233.159C530.759 234.15 528.089 234.649 524.984 234.649L525.009 234.641Z" fill="#010101"/>
<path d="M545.828 233.579V196.523H552.127V211.881H570.286V196.523H576.65V233.579H570.286V217.811H552.127V233.579H545.828Z" fill="#010101"/>
<path d="M584.289 233.579V196.523H590.588V222.464L590.334 225.011H590.645L607.592 196.523H615.635V233.579H609.287V207.647L609.599 205.099H609.287L592.341 233.57H584.297L584.289 233.579Z" fill="#010101"/>
</svg>
