<svg width="92" height="97" viewBox="0 0 92 97" fill="none" xmlns="http://www.w3.org/2000/svg">
<path d="M31.8467 82.7703C31.8467 77.2712 27.4605 72.7925 22.0749 72.7925C16.6615 72.7925 12.3031 77.2712 12.3031 82.7703C12.3031 88.2694 16.6893 92.7481 22.0749 92.7481C27.4605 92.7481 31.8467 88.2694 31.8467 82.7703ZM14.8293 82.7703C14.8293 78.6885 18.0773 75.4004 22.0471 75.4004C26.0447 75.4004 29.265 78.6885 29.265 82.7703C29.265 86.8521 26.0169 90.1403 22.0471 90.1403C18.0773 90.1403 14.8293 86.8521 14.8293 82.7703ZM11.5258 80.7294C11.5258 75.9389 7.72256 72.7925 3.03098 72.7925H0.50474V92.7481H3.03098V88.6379C7.72256 88.6379 11.5258 85.5199 11.5258 80.7294ZM3.03098 75.4004C6.33451 75.4004 8.99955 77.3846 8.99955 80.7577C8.99955 84.1026 6.33451 86.0584 3.05874 86.0584H3.03098V75.4004ZM32.6795 82.7703C32.6795 88.2694 37.0658 92.7481 42.4514 92.7481C45.1442 92.7481 47.6149 91.6143 49.3638 89.8285L47.5593 87.986C46.2546 89.3182 44.4501 90.1403 42.4514 90.1403C38.4538 90.1403 35.2335 86.8521 35.2335 82.7703C35.2335 78.6885 38.4816 75.4004 42.4514 75.4004C44.4501 75.4004 46.2824 76.2507 47.5871 77.583L49.3916 75.7405C47.6149 73.9264 45.1719 72.7925 42.4514 72.7925C37.0658 72.7925 32.6795 77.2712 32.6795 82.7703ZM58.6359 75.4004C60.6347 75.4004 62.4669 76.2507 63.7717 77.583L65.5761 75.7405C63.7994 73.9264 61.3565 72.7925 58.6359 72.7925C53.2503 72.7925 48.8641 77.2712 48.8641 82.7703C48.8641 88.2694 53.2503 92.7481 58.6359 92.7481C61.3287 92.7481 63.7994 91.6143 65.5484 89.8285L63.7439 87.986C62.4392 89.3182 60.6347 90.1403 58.6359 90.1403C54.6384 90.1403 51.4181 86.8521 51.4181 82.7703C51.4181 78.6885 54.6661 75.4004 58.6359 75.4004ZM66.7698 72.7925V88.893L66.7421 93.2583L75.2647 80.3042V92.7481H77.7631V72.339L69.2961 84.9813V72.7925H66.7698ZM82.9267 72.7925H80.4282V88.893L80.4004 93.2583L88.923 80.3042V92.7481H91.4215V72.339L82.9267 84.9813V72.7925ZM8.49986 20.7776V30.1885H10.1933V28.6295C12.4141 28.6295 14.1908 26.957 14.1908 24.6894C14.1908 22.4217 12.3864 20.7776 10.1933 20.7776H8.49986ZM12.4974 24.6894C12.4974 25.9933 11.4425 26.9004 10.1655 26.9004V22.4784C11.4425 22.4784 12.4974 23.3854 12.4974 24.6894ZM69.185 20.7776V30.1885H70.8784V28.6295C73.0993 28.6295 74.876 26.957 74.876 24.7177C74.876 22.45 73.0715 20.806 70.8784 20.806H69.185V20.7776ZM73.1548 24.6894C73.1548 25.9933 72.1277 26.9004 70.8229 26.9004V22.4784C72.1277 22.4784 73.1548 23.3854 73.1548 24.6894ZM43.1454 22.4784V20.7776H37.9263V30.1885H39.0923H43.0899V28.4594H39.5642V25.8515H42.84V24.1508H39.5642V22.45H43.1454V22.4784ZM6.16795 6.3495C7.16734 6.3495 8.08345 6.77469 8.72195 7.42665L10.1655 5.95266C9.13836 4.90386 7.72256 4.2519 6.16795 4.2519C3.05874 4.2519 0.532501 6.83139 0.532501 10.0061C0.532501 13.1809 3.05874 15.7604 6.16795 15.7604C7.72256 15.7604 9.13836 15.1084 10.1655 14.0596L8.72195 12.5856C8.05569 13.2376 7.16734 13.6628 6.19571 13.6628C4.19693 13.6628 2.5868 12.0187 2.5868 9.97779C2.55904 7.99357 4.16917 6.3495 6.16795 6.3495ZM37.6487 10.0345C37.6487 6.85973 35.1225 4.28025 32.0133 4.28025C28.9041 4.28025 26.3778 6.85973 26.3778 10.0345C26.3778 13.2092 28.9041 15.7887 32.0133 15.7887C35.1225 15.7887 37.6487 13.2092 37.6487 10.0345ZM28.4044 10.0345C28.4044 7.99357 30.0145 6.3495 32.0133 6.3495C34.0121 6.3495 35.6222 7.99357 35.6222 10.0345C35.6222 12.0754 34.0121 13.7195 32.0133 13.7195C30.0145 13.6911 28.4044 12.047 28.4044 10.0345ZM53.7778 4.28025V15.7887H55.8043V11.0549H56.6094C57.0813 13.7478 59.3855 15.7887 62.1615 15.7887C65.2708 15.7887 67.797 13.2092 67.797 10.0345C67.797 6.85973 65.2708 4.28025 62.1615 4.28025C59.3855 4.28025 57.0813 6.32116 56.6094 9.01403H55.8043V4.28025H53.7778ZM62.1338 6.3495C64.1326 6.3495 65.7427 7.99357 65.7427 10.0345C65.7427 12.0754 64.1326 13.7195 62.1338 13.7195C60.1628 13.7195 58.5249 12.0754 58.5249 10.0345C58.5526 7.99357 60.1628 6.3495 62.1338 6.3495ZM87.8126 13.8328C87.0353 13.8328 86.3412 13.2376 86.2024 12.5856L84.7866 14.0313C85.1198 14.6832 85.675 15.1935 86.3412 15.5336C86.7299 15.732 87.2296 15.7887 87.7015 15.8171C87.757 15.8171 87.8126 15.8171 87.8681 15.8171C89.7558 15.8171 91.3104 14.258 91.3104 12.3022C91.3104 11.1967 90.8107 10.2329 90.0334 9.58095C90.5609 9.01403 90.894 8.24868 90.894 7.3983C90.894 5.6692 89.5337 4.28025 87.8403 4.28025H87.8126C87.2851 4.28025 86.7299 4.42198 86.3135 4.67709C85.8138 4.9889 85.4529 5.38574 85.092 5.92431L86.5078 7.36996C86.8409 6.718 87.2296 6.29281 87.8403 6.29281C88.451 6.29281 88.923 6.80304 88.923 7.3983C88.923 7.99357 88.4233 8.5038 87.8403 8.5038C87.6737 8.5038 87.3961 8.5038 87.3961 8.5038V10.7715C87.3961 10.7715 87.7015 10.7715 87.8403 10.7715C88.6731 10.7715 89.3394 11.4518 89.3394 12.3022C89.3116 13.1525 88.6454 13.8328 87.8126 13.8328ZM2.50352 28.9413H4.66886L5.002 30.1601H6.75093L3.58619 20.2957L0.449219 30.1601H2.17039L2.50352 28.9413ZM3.58619 24.8594L4.22469 27.2405H2.97545L3.58619 24.8594ZM34.484 30.1601V22.4784H36.2329V20.7776H31.0139V22.4784H32.8183V30.1885H34.484V30.1601ZM56.304 30.1601V22.4784H58.0807V20.7776H52.8617V22.4784H54.6661V30.1885H56.304V30.1601ZM29.4315 30.1601V20.2957L27.7659 22.3933L24.9898 25.9366V20.7776H23.3241V30.7838L24.9898 28.6861L27.7659 25.1429V30.1885H29.4315V30.1601ZM16.9114 30.1601L18.4105 26.1634L19.9373 30.1601H21.714L19.7708 25.0012L21.3531 20.7776H19.5764L18.4382 23.839L17.3 20.7776H15.5233L17.1057 25.0012L15.1625 30.1601H16.9114ZM45.4495 20.7776V30.1601H47.1152V26.9854L47.8092 26.05L48.0868 25.6815L50.3354 30.1885H52.1954L49.1695 24.2075L51.7235 20.806H49.6414L48.059 22.9036L47.0874 24.2075V20.806H45.4495V20.7776ZM58.6914 25.4831C58.6914 28.0909 60.7457 30.1885 63.2997 30.1885C65.8537 30.1885 67.908 28.0909 67.908 25.4831C67.908 22.8752 65.8537 20.7776 63.2997 20.7776C60.7457 20.7776 58.6914 22.8752 58.6914 25.4831ZM66.2424 25.4831C66.2424 27.1271 64.9376 28.4877 63.3275 28.4877C61.7174 28.4877 60.3848 27.1555 60.3848 25.4831C60.3848 23.839 61.6896 22.4784 63.3275 22.4784C64.9654 22.4784 66.2424 23.8106 66.2424 25.4831ZM76.0975 25.4831C76.0975 28.0909 78.1518 30.1885 80.7058 30.1885C83.2598 30.1885 85.3141 28.0909 85.3141 25.4831C85.3141 22.8752 83.2598 20.7776 80.7058 20.7776C78.1518 20.7776 76.0975 22.8752 76.0975 25.4831ZM83.6484 25.4831C83.6484 27.1271 82.3159 28.4877 80.7058 28.4877C79.0956 28.4877 77.7909 27.1555 77.7909 25.4831C77.7909 23.839 79.0956 22.4784 80.7058 22.4784C82.3437 22.4784 83.6484 23.8106 83.6484 25.4831ZM90.9218 23.3288C90.9218 21.9115 89.8113 20.7776 88.4233 20.7776C88.3678 20.7776 88.3122 20.7776 88.229 20.806H86.6466V30.1885H88.3955C90.0889 30.1885 91.4492 28.7995 91.4492 27.0704C91.4492 26.1634 91.0606 25.3413 90.4498 24.7744C90.7552 24.3492 90.9218 23.8673 90.9218 23.3288ZM88.3122 22.28C89.034 22.28 89.3394 22.7051 89.3394 23.2154C89.3394 23.5272 89.2006 23.7823 88.9785 23.9524C88.923 24.0091 88.8675 24.0374 88.8119 24.0658C88.7009 24.1224 88.4788 24.1791 88.3122 24.1791V22.28ZM88.3122 28.4594V25.6248C89.4504 25.6248 89.7836 26.4752 89.7836 27.0421C89.7836 27.8358 89.2284 28.4594 88.3122 28.4594ZM0.782349 3.54325H91.4492V0H0.782349V3.54325ZM0.50474 97H91.4492V93.4284H0.50474V97ZM91.4492 16.4974H0.50474V20.0406H91.4492V16.4974ZM0.50474 72.1122H91.4492V30.8971H0.50474V72.1122Z" fill="#7E7E7E"/>
</svg>
