<svg width="87" height="85" viewBox="0 0 87 85" fill="none" xmlns="http://www.w3.org/2000/svg">
<path d="M80.6094 15H6.60938V17H80.6094V15Z" fill="#BE1717"/>
<path d="M83.6094 8H3.60938V13H83.6094V8Z" fill="#BE1717"/>
<path d="M86.6094 4H0.609375V7H86.6094V4Z" fill="#BE1717"/>
<path d="M86.4492 0H0.449219V3H86.4492V0Z" fill="#BE1717"/>
<path d="M77.0044 18H10.4029V82.771H8.21094V85H79.2109V82.771H77.019V18H77.0044ZM57.683 49.322C57.683 44.6164 61.5444 40.785 66.2768 40.785C71.0091 40.785 74.8705 44.6164 74.8705 49.322V81.3433H72.7366V49.322C72.7366 45.7965 69.8478 42.9119 66.2768 42.9119C62.7202 42.9119 59.817 45.7819 59.817 49.322V81.3433H57.683V49.322ZM38.5503 24.4975H49.8441V32.6558H38.5503V24.4975ZM35.1099 49.322C35.1099 44.6164 38.9713 40.785 43.7037 40.785C48.436 40.785 52.2974 44.6164 52.2974 49.322V81.3433H50.1635V49.322C50.1635 45.7965 47.2747 42.9119 43.7037 42.9119C40.1326 42.9119 37.2439 45.7819 37.2439 49.322V81.3433H35.1099V49.322ZM12.5368 49.322C12.5368 44.6164 16.3982 40.785 21.1306 40.785C25.863 40.785 29.7243 44.6164 29.7243 49.322V81.3433H27.5904V49.322C27.5904 45.7965 24.7016 42.9119 21.1306 42.9119C17.5595 42.9119 14.6708 45.7965 14.6708 49.322V81.3433H12.5368V49.322Z" fill="#BE1717"/>
</svg>
