<svg width="233" height="97" viewBox="0 0 233 97" fill="none" xmlns="http://www.w3.org/2000/svg">
<path d="M155.611 28.1563L155.529 28.0725L140.449 12.6424V40.875H173.449V9.875L155.611 28.1563Z" fill="black"/>
<path d="M174.839 6.02868V40.875H178.449V1.875H140.449V10.4333L155.541 25.8771L174.839 6.02868Z" fill="black"/>
<path d="M213.449 27.875L203.436 10.875L193.449 27.875H213.449Z" fill="black"/>
<path d="M191.999 29.875L186.449 39.875H219.449L213.899 29.875H191.999Z" fill="black"/>
<path d="M232.449 39.875L209.697 0.875L204.449 9.87709L221.953 39.875H232.449Z" fill="black"/>
<path d="M112.623 0.875C101.788 0.875 92.9897 9.71432 92.6367 20.7218C93.5872 17.553 95.298 14.6343 97.6605 12.1882C101.462 8.2967 106.513 6.15636 111.89 6.15636C116.751 6.15636 121.449 7.96314 125.115 11.2709L125.223 11.3821L123.811 12.216L123.757 12.1604C120.39 9.26958 116.289 7.76856 111.89 7.76856C106.92 7.76856 102.277 9.74212 98.7739 13.3279C95.2708 16.9136 93.3428 21.6947 93.3428 26.7536C95.651 35.454 103.417 41.875 112.623 41.875C123.675 41.875 132.637 32.6743 132.637 21.3889C132.637 10.0757 123.648 0.875 112.623 0.875Z" fill="black"/>
<path d="M175.637 40.125H173.637V46.125H175.637V40.125Z" fill="black"/>
<path d="M136.637 45.125H138.105V8.9722L140.637 11.6734V9.43605L136.814 5.316L136.637 5.125V45.125Z" fill="black"/>
<path d="M219.637 40.125L222.658 45.7083L222.892 46.125H224.637L221.382 40.125H219.637Z" fill="black"/>
<path d="M190.643 28.0212L202.286 8.2944L203.713 10.6714L204.637 9.08675L202.398 5.28893L202.286 5.125L178.749 44.9337L178.637 45.125H180.54L189.692 29.6332H192.49L193.442 28.0212H190.643Z" fill="black"/>
<path d="M92.5191 20.125C91.94 22.0228 91.6367 24.002 91.6367 26.0353C91.6367 31.4034 93.76 36.4462 97.6205 40.2418C101.481 44.0374 106.61 46.125 112.07 46.125C117.006 46.125 121.804 44.3627 125.526 41.1365L125.637 41.028L124.175 40.2147L124.12 40.2689C120.701 43.0885 116.537 44.5525 112.07 44.5525C107.051 44.5525 102.308 42.6276 98.7511 39.1302C95.1939 35.6328 93.2361 30.9696 93.2361 26.0353V26.0082C92.7673 24.3273 92.4915 22.565 92.4915 20.7757C92.4915 20.5317 92.5191 20.3419 92.5191 20.125Z" fill="black"/>
<path d="M175.637 5.125L155.996 24.4914L140.637 9.4226V11.653L155.913 26.6674L155.996 26.749L174.035 8.9602V39.125H175.637V5.125Z" fill="#F2FFF6"/>
<path d="M204.388 9.125L203.468 10.7025L213.405 27.9736H193.557L192.637 29.5783H214.326L219.823 39.125H221.637L204.388 9.125Z" fill="#F2FFF6"/>
<path d="M112.118 6.68834C116.569 6.68834 120.718 8.17082 124.125 10.9471L124.18 11.001L125.637 10.1924L125.499 10.0846C121.79 6.87702 117.036 5.125 112.118 5.125C106.678 5.125 101.567 7.20047 97.72 10.9741C95.3295 13.3191 93.6259 16.1493 92.6642 19.249C92.6642 19.4646 92.6367 19.6803 92.6367 19.8959C92.6367 21.7018 92.9115 23.4538 93.3786 25.125C93.3786 20.2193 95.3295 15.5832 98.874 12.1061C102.364 8.60209 107.09 6.68834 112.118 6.68834Z" fill="#F2FFF6"/>
<path d="M10.6367 75.125V66.125L6.63672 70.137L2.85294 66.369L2.63672 66.125V75.125H3.98807V69.4322L6.63672 72.0889L9.25834 69.4593V75.125H10.6367Z" fill="black"/>
<path d="M5.63672 89.8879L6.89988 92.1584H4.37356L5.63672 89.8879ZM0.636719 96.125H2.18935L3.6104 93.5536H7.68935L8.92619 95.7694L9.08409 96.125H10.6367L5.63672 87.125L0.636719 96.125Z" fill="black"/>
<path d="M6.06244 55.125C7.2297 55.125 8.36849 54.6886 9.22259 53.925L9.36494 53.8159L8.05533 53.0795L7.99839 53.1341C7.45746 53.5432 6.77419 53.7341 6.09091 53.7341C5.20835 53.7341 4.4112 53.4068 3.78486 52.8341C3.15853 52.2341 2.84536 51.4705 2.84536 50.6523C2.84536 49.8068 3.187 49.0432 3.78486 48.4432C4.4112 47.8705 5.20835 47.5432 6.09091 47.5432C6.77419 47.5432 7.45746 47.7614 7.99839 48.1432L8.0838 48.1977L9.42188 47.4614L9.27953 47.325C8.42543 46.5614 7.28664 46.125 6.11938 46.125C4.86672 46.125 3.67099 46.5886 2.78842 47.4341C1.90586 48.2795 1.42188 49.425 1.42188 50.5977C1.42188 51.7977 1.90586 52.9159 2.78842 53.7614C3.64252 54.6614 4.80978 55.125 6.06244 55.125Z" fill="black"/>
<path d="M23.9217 53.7299C22.1931 53.7299 20.7938 52.3347 20.7938 50.6113C20.7938 48.8879 22.1931 47.4928 23.9217 47.4928C25.6503 47.4928 27.0497 48.8879 27.0497 50.6113C27.0497 52.3347 25.6503 53.7299 23.9217 53.7299ZM23.9217 46.125C21.4249 46.125 19.4219 48.1493 19.4219 50.6113C19.4219 53.1007 21.4523 55.125 23.9217 55.125C26.4186 55.125 28.4216 53.1007 28.4216 50.6113C28.449 48.1493 26.4186 46.125 23.9217 46.125Z" fill="black"/>
<path d="M23.9217 73.753C22.1931 73.753 20.7938 72.3537 20.7938 70.625C20.7938 68.8963 22.1931 67.497 23.9217 67.497C25.6503 67.497 27.0497 68.8963 27.0497 70.625C27.0497 72.3537 25.6503 73.753 23.9217 73.753ZM23.9217 66.125C21.4249 66.125 19.4219 68.1555 19.4219 70.625C19.4219 73.122 21.4523 75.125 23.9217 75.125C26.4186 75.125 28.4216 73.0945 28.4216 70.625C28.449 68.1555 26.4186 66.125 23.9217 66.125Z" fill="black"/>
<path d="M75.9354 73.753C74.2121 73.753 72.817 72.3537 72.817 70.625C72.817 68.8963 74.2121 67.497 75.9354 67.497C77.6588 67.497 79.0265 68.8963 79.0265 70.625C79.0539 72.3537 77.6588 73.753 75.9354 73.753ZM75.9354 66.125C73.4461 66.125 71.4219 68.1555 71.4219 70.625C71.4219 73.122 73.4461 75.125 75.9354 75.125C78.4247 75.125 80.4216 73.0945 80.4216 70.625C80.449 68.1555 78.4247 66.125 75.9354 66.125Z" fill="black"/>
<path d="M180.908 94.7299C179.185 94.7299 177.79 93.3347 177.79 91.6113C177.79 89.8879 179.185 88.4928 180.908 88.4928C182.632 88.4928 184.027 89.8879 184.027 91.6113C183.999 93.3347 182.604 94.7299 180.908 94.7299ZM180.908 87.125C178.419 87.125 176.422 89.1493 176.422 91.6113C176.422 94.1007 178.446 96.125 180.908 96.125C183.398 96.125 185.422 94.1007 185.422 91.6113C185.395 89.1493 183.37 87.125 180.908 87.125Z" fill="black"/>
<path d="M145.936 94.7299C144.212 94.7299 142.817 93.3347 142.817 91.6113C142.817 89.8879 144.212 88.4928 145.936 88.4928C147.659 88.4928 149.054 89.8879 149.054 91.6113C149.027 93.3347 147.659 94.7299 145.936 94.7299ZM145.936 87.125C143.446 87.125 141.422 89.1493 141.422 91.6113C141.422 94.1007 143.446 96.125 145.936 96.125C148.425 96.125 150.422 94.1007 150.422 91.6113C150.422 89.1493 148.425 87.125 145.936 87.125Z" fill="black"/>
<path d="M58.3775 53.7341C57.6682 53.7341 57.0179 53.2432 56.9293 52.5614L56.8997 52.425L55.4219 52.6432L55.4514 52.7795C55.6879 54.1159 56.9293 55.125 58.4071 55.125C60.0623 55.125 61.4219 53.8705 61.4219 52.3432C61.4219 51.4705 60.9194 50.6795 60.1805 50.2159C60.7125 49.7795 61.0672 49.1795 61.0672 48.5523C61.0672 47.8977 60.8012 47.2977 60.2987 46.8341C59.7963 46.3705 59.146 46.125 58.4367 46.125C57.7273 46.125 57.077 46.3705 56.5746 46.8341C56.3086 47.0795 56.1017 47.3795 55.9539 47.7341L55.8948 47.8705L57.3431 48.2523L57.3726 48.1432C57.4317 48.0341 57.5204 47.925 57.6091 47.8159C57.816 47.625 58.082 47.5159 58.4071 47.5159C58.7027 47.5159 58.9687 47.625 59.2051 47.8159C59.412 48.0068 59.5302 48.2523 59.5302 48.5523C59.5302 48.825 59.412 49.0977 59.2051 49.2886C58.9982 49.4795 58.7322 49.5886 58.4071 49.5886H58.2593H57.5795V50.9795H58.348C59.1756 50.9795 59.8554 51.6068 59.8554 52.3432C59.8849 53.1341 59.2051 53.7341 58.3775 53.7341Z" fill="black"/>
<path d="M92.6974 70.7367V68.6396H92.8249C93.0545 68.6396 93.2841 68.7561 93.4627 68.9308C93.6413 69.1347 93.7433 69.3968 93.7433 69.6881C93.7433 70.2706 93.3351 70.7367 92.8249 70.7367H92.6974ZM93.9984 74.6396H92.6719V72.193H93.9984C94.5851 72.193 95.0698 72.7464 95.0698 73.4163C95.0953 74.1153 94.6107 74.6396 93.9984 74.6396ZM94.6872 70.8532C94.8913 70.5328 95.0188 70.1541 95.0188 69.659C95.0188 68.9891 94.7892 68.3483 94.3811 67.8532C93.9729 67.3871 93.4117 67.125 92.8249 67.125H92.6974H91.8045H91.4219V74.6396V76.125H92.7229H94.0494C95.3504 76.125 96.4219 74.9017 96.4219 73.4163C96.3709 72.2221 95.6566 71.1735 94.6872 70.8532Z" fill="black"/>
<path d="M197.723 90.7075V88.6104H197.85C198.106 88.6104 198.335 88.7269 198.514 88.9308C198.692 89.1347 198.769 89.3968 198.769 89.6881C198.769 90.2706 198.361 90.7366 197.85 90.7366H197.723V90.7075ZM199.049 94.6396H197.723V92.193H199.049C199.636 92.193 200.121 92.7464 200.121 93.4163C200.121 94.0862 199.636 94.6396 199.049 94.6396ZM199.713 90.824C199.917 90.5036 200.07 90.125 200.07 89.659C200.07 88.9891 199.84 88.3483 199.407 87.8532C198.973 87.3871 198.437 87.125 197.85 87.125H197.723H196.805H196.422V94.6396V96.125H199.049C200.35 96.125 201.422 94.9017 201.422 93.4163C201.422 92.193 200.708 91.1735 199.713 90.824Z" fill="black"/>
<path d="M24.6704 90.6575H23.9308V88.4237H24.6704C24.9958 88.4237 25.3213 88.5536 25.558 88.7614C25.7947 88.9692 25.913 89.2549 25.913 89.5666C25.913 89.8523 25.7947 90.138 25.558 90.3458C25.3213 90.5536 25.0254 90.6575 24.6704 90.6575ZM24.6704 87.125H23.9308H23.0432H22.4219V95.125H23.9308V91.9562H24.6704C25.41 91.9562 26.0905 91.7224 26.6231 91.2549C27.1556 90.7873 27.4219 90.1899 27.4219 89.5406C27.4219 88.8912 27.126 88.2938 26.6231 87.8263C26.0905 87.3847 25.41 87.125 24.6704 87.125Z" fill="black"/>
<path d="M165.528 90.3458C165.292 90.5536 164.966 90.6575 164.641 90.6575H163.901V88.4237H164.641C164.966 88.4237 165.292 88.5536 165.528 88.7614C165.765 88.9692 165.913 89.2549 165.913 89.5666C165.913 89.8523 165.795 90.138 165.528 90.3458ZM164.641 87.125H163.901H163.014H162.422V95.125H163.931V91.9562H164.67C165.41 91.9562 166.091 91.7224 166.623 91.2549C167.156 90.7873 167.422 90.2159 167.422 89.5406C167.422 88.8912 167.126 88.2679 166.623 87.8263C166.061 87.3847 165.38 87.125 164.641 87.125Z" fill="black"/>
<path d="M73.4219 87.125V88.4497H75.2015V95.125H76.6422V88.4497H78.4219V87.125H73.4219Z" fill="black"/>
<path d="M126.422 87.125V88.4497H128.202V95.125H129.642V88.4497H131.422V87.125H126.422Z" fill="black"/>
<path d="M93.6459 87.125H92.4219V88.4497V93.8263V95.125H93.6459H95.4219V93.8263H93.6459V91.4886H95.1339V90.164H93.6459V88.4497H95.3019V87.125H93.6459Z" fill="black"/>
<path d="M42.8892 53.7068C41.148 53.7068 39.7385 52.3159 39.7385 50.5977C39.7385 48.8795 41.148 47.4886 42.8892 47.4886C44.6304 47.4886 46.04 48.8795 46.04 50.5977C46.0123 52.3159 44.6028 53.7068 42.8892 53.7068ZM42.8892 46.125C40.7334 46.125 38.9369 47.5977 38.4671 49.5886H37.8314V46.425H36.4219V54.825H37.8314V50.9795H38.3842C38.5777 53.2977 40.5123 55.125 42.8892 55.125C45.4043 55.125 47.4219 53.1068 47.4219 50.625C47.4219 48.1432 45.3766 46.125 42.8892 46.125Z" fill="black"/>
<path d="M167.008 67.125H165.383L163.922 69.4886L162.516 67.2029L162.461 67.125H160.863L163.123 70.7873L160.422 75.125H162.048L163.922 72.086L165.768 75.0731L165.796 75.125H167.422L164.721 70.7873L167.008 67.125Z" fill="black"/>
<path d="M44.0069 87.125H42.3744L40.908 89.4627L39.4693 87.125H37.8369L40.1057 90.7614L37.4219 95.125H39.0266L40.908 92.0601L42.7895 95.0471L42.8171 95.125H44.4219L41.7381 90.7614L44.0069 87.125Z" fill="black"/>
<path d="M148.995 75.4247H150.422V66.125L143.848 72.7076V66.7973H142.422V76.125L148.995 69.5424V75.4247Z" fill="black"/>
<path d="M56.8254 86.7992H55.4219V96.125L62.0184 89.552V95.4508H63.4219V86.125L56.8254 92.698V86.7992Z" fill="black"/>
<path d="M44.0504 74.0244C43.479 74.436 42.8219 74.628 42.1362 74.628C41.2504 74.628 40.4504 74.2988 39.8219 73.7226C39.1933 73.1189 38.879 72.3506 38.879 71.5274C38.879 70.7043 39.2219 69.9085 39.8219 69.3049C40.4504 68.7012 41.2504 68.3994 42.1362 68.3994C42.8219 68.3994 43.479 68.6189 44.0504 69.0031L44.1076 69.0579L45.4219 68.3171L45.279 68.1799C44.4219 67.4116 43.279 67 42.1076 67C40.8504 67 39.6504 67.4665 38.7933 68.3171C37.9076 69.1677 37.4219 70.2927 37.4219 71.5C37.4219 72.7073 37.9076 73.8323 38.7933 74.6829C39.679 75.5335 40.8504 76 42.1076 76C43.279 76 44.4219 75.561 45.279 74.7927L45.4219 74.6555L44.1076 73.9146L44.0504 74.0244Z" fill="black"/>
<path d="M56.4219 67V75H57.9443V71.1299L60.601 74.9221L60.6607 75H62.4219L59.3771 70.6623L61.8547 67H60.0935L57.9443 70.2208V67H56.4219Z" fill="black"/>
<path d="M113.094 87L110.914 90.6116V87H109.422V96H110.914V91.6311L113.601 95.9126L113.661 95.9709H115.422L112.377 91.1068L114.825 87H113.094Z" fill="black"/>
<path d="M126.422 67V75H127.914V71.1299L130.601 74.9221L130.631 75H132.422L129.377 70.6623L131.825 67H130.064L127.914 70.2208V67H126.422Z" fill="black"/>
<path d="M114.027 74.0244C113.457 74.436 112.803 74.628 112.091 74.628C111.237 74.628 110.411 74.2988 109.813 73.7226C109.187 73.1189 108.874 72.3506 108.874 71.5274C108.874 70.7043 109.215 69.9085 109.813 69.3049C110.44 68.7012 111.237 68.3994 112.091 68.3994C112.774 68.3994 113.429 68.6189 114.027 69.0031L114.112 69.0579L115.422 68.3171L115.28 68.1799C114.425 67.4116 113.287 67 112.091 67C110.838 67 109.671 67.4665 108.788 68.3171C107.906 69.1677 107.422 70.2927 107.422 71.5C107.422 72.7073 107.906 73.8323 108.788 74.6829C109.671 75.5335 110.838 76 112.091 76C113.287 76 114.397 75.561 115.28 74.7927L115.422 74.6555L114.112 73.9146L114.027 74.0244Z" fill="black"/>
</svg>
