<svg width="97" height="95" viewBox="0 0 97 95" fill="none" xmlns="http://www.w3.org/2000/svg">
<path d="M89.2932 13.008C83.146 2.60671 74.2983 1.5078 68.8456 1.20113C59.6635 0.690011 50.0698 0.25556 40.8877 0C27.2045 0.25556 10.1005 0.996684 5.31655 16.2025C5.11079 17.1736 4.57067 19.8314 3.90194 23.5882C3.90194 23.6137 3.90194 23.6137 3.90194 23.6137C3.8505 23.8948 3.79906 24.176 3.74762 24.4571C3.74762 24.4826 3.74762 24.4826 3.74762 24.5082C3.69618 24.7893 3.64474 25.0704 3.5933 25.3771C3.5933 25.4026 3.5933 25.4282 3.56757 25.4538C3.51613 25.7349 3.46469 26.016 3.43897 26.2971C3.43897 26.3482 3.41325 26.3993 3.41325 26.4249C3.36181 26.706 3.31037 26.9871 3.25893 27.2938C3.25893 27.3449 3.23321 27.396 3.23321 27.4471C3.18177 27.7282 3.13033 28.0349 3.10461 28.3416C3.10461 28.3927 3.07889 28.4438 3.07889 28.4949C3.02745 28.8016 2.97601 29.1083 2.95029 29.3894C2.95029 29.466 2.92457 29.5172 2.92457 29.5683C2.87313 29.8494 2.84741 30.1561 2.79597 30.4627C2.79597 30.5394 2.77025 30.6161 2.77025 30.6927C2.71881 30.9738 2.69309 31.2805 2.64165 31.5872C2.61593 31.6639 2.61593 31.7405 2.59021 31.8428C2.56448 32.1494 2.51304 32.4305 2.4616 32.7372C2.4616 32.8394 2.43588 32.9161 2.43588 33.0183C2.38444 33.2994 2.35872 33.6061 2.30728 33.9128C2.28156 34.015 2.28156 34.1172 2.25584 34.1939C2.23012 34.475 2.17868 34.7817 2.15296 35.0884C2.12724 35.1906 2.12724 35.3184 2.10152 35.4206C2.05008 35.7017 2.02436 36.0084 1.97292 36.315C1.9472 36.4173 1.9472 36.5451 1.92148 36.6473C1.87004 36.9539 1.84432 37.2351 1.8186 37.5417C1.8186 37.6695 1.79288 37.7717 1.76716 37.8995C1.74144 38.2062 1.69 38.4873 1.66428 38.794C1.63856 38.9218 1.63856 39.0751 1.61284 39.2029C1.58712 39.484 1.56139 39.7907 1.50995 40.0718C1.50995 40.2507 1.50995 40.3784 1.48423 40.5318C1.45851 40.8129 1.43279 41.094 1.38135 41.4007C1.38135 41.554 1.35563 41.7074 1.32991 41.8607C1.30419 42.1418 1.27847 42.4229 1.25275 42.6785C1.22703 42.8574 1.20131 43.0107 1.20131 43.1896C1.17559 43.4707 1.14987 43.7263 1.12415 44.0074C1.09843 44.1863 1.07271 44.3396 1.07271 44.5185C1.04699 44.7996 1.02127 45.0552 0.995549 45.3363C0.969829 45.5152 0.969829 45.6941 0.944109 45.8985C0.918388 46.0774 0.918388 46.2563 0.918388 46.4352C-0.161863 60.491 0.301102 75.9268 5.77952 84.5903C6.57685 85.7148 11.4894 94.276 24.9926 94.9149C30.2395 95.1449 65.1933 94.9149 72.7036 94.1482C92.8169 92.1293 94.1801 76.9746 94.6687 73.9079C94.6945 73.6779 95.9548 57.3987 96.3406 46.3585C96.392 44.7741 96.4177 43.2918 96.4434 41.9885C96.572 31.6127 94.5658 21.927 89.2932 13.008ZM37.6984 71.9656C30.7796 70.7901 28.6448 67.34 28.2333 66.7522C25.4812 62.331 25.0697 54.9709 25.4041 47.7386C25.4041 47.6363 25.4041 47.5597 25.4298 47.4575C25.4298 47.3552 25.4298 47.2786 25.4555 47.1763C25.4555 47.0486 25.4555 46.8952 25.4812 46.7674C25.4812 46.6652 25.4812 46.5886 25.507 46.5119C25.507 46.3585 25.5327 46.2308 25.5327 46.0774C25.5327 46.0008 25.5327 45.8985 25.5584 45.8219C25.5584 45.6685 25.5841 45.5408 25.5841 45.3874C25.5841 45.3108 25.6098 45.2341 25.6098 45.1574C25.6098 45.0041 25.6356 44.8507 25.6356 44.723C25.6356 44.6463 25.6356 44.5696 25.6613 44.493C25.6613 44.3396 25.687 44.1863 25.687 44.033C25.687 43.9563 25.7127 43.9052 25.7127 43.8285C25.7384 43.6752 25.7384 43.5218 25.7642 43.3685C25.7642 43.2918 25.7642 43.2407 25.7642 43.1896C25.7899 43.0363 25.7899 42.8829 25.8156 42.7296C25.8156 42.6785 25.8156 42.6018 25.8156 42.5507C25.8413 42.3974 25.8413 42.244 25.867 42.0907C25.867 42.0396 25.8928 41.9629 25.8928 41.9374C25.9185 41.784 25.9185 41.6307 25.9442 41.4774C25.9442 41.4262 25.9442 41.3751 25.9699 41.324C25.9956 41.1707 25.9956 41.0173 26.0214 40.864C26.0214 40.8129 26.0214 40.7618 26.0471 40.7107C26.0728 40.5573 26.0985 40.404 26.0985 40.2507C26.0985 40.1996 26.1242 40.174 26.1242 40.1229C26.15 39.9696 26.15 39.8162 26.1757 39.6884C26.1757 39.6373 26.1757 39.6118 26.1757 39.5607C26.2014 39.4073 26.2271 39.254 26.2271 39.1007C26.2271 39.0751 26.2271 39.0495 26.2528 39.024C26.2786 38.8706 26.2786 38.7173 26.3043 38.564C26.3043 38.5384 26.3043 38.5129 26.3043 38.4873C26.33 38.334 26.3557 38.1806 26.3557 38.0273C26.3557 38.0017 26.3557 37.9762 26.3557 37.9506C26.3814 37.7973 26.4072 37.644 26.4072 37.5162C26.4072 37.4906 26.4072 37.4651 26.4072 37.4395C26.4329 37.2862 26.4329 37.1328 26.4586 37.0051C26.4586 37.0051 26.4586 36.9795 26.4586 36.9539C26.4586 36.8006 26.51 36.6728 26.51 36.5195V36.4939C26.5358 36.3406 26.5615 36.1873 26.5872 36.0595C26.5872 36.0595 26.5872 36.0595 26.5872 36.0339C26.8701 34.0917 27.1016 32.7372 27.1788 32.2261C28.7734 25.5049 37.5955 23.946 44.2313 23.7671C48.6809 23.8693 54.0307 23.8693 58.4546 24.0993C61.1038 24.2271 65.4248 24.7382 68.5369 30.0794C71.2119 34.6284 71.6491 39.7907 71.7263 45.1063C71.7263 45.7708 71.752 46.5374 71.7263 47.3552C71.7005 53.0287 71.2633 60.5421 71.2633 60.6699C71.2633 63.3788 69.3857 70.8667 59.6635 72.0167C56.0369 72.349 40.2447 72.4001 37.6984 71.9656ZM85.358 33.0694L79.5452 36.5451C79.288 36.6984 79.1337 36.8773 79.2109 37.414L78.7993 37.4651C78.7479 36.9284 78.645 36.1617 78.6193 35.8806C78.5164 35.0372 78.4135 34.475 78.3878 34.2961L78.7993 34.245C78.8765 34.8584 78.9794 34.9861 79.1851 34.9606C79.3137 34.935 79.5709 34.7817 80.8569 34.0661L80.5483 31.7661C79.1337 31.4083 78.8251 31.3572 78.7479 31.3827C78.4907 31.4083 78.4392 31.5872 78.5164 32.2516L78.1049 32.3028C78.0534 31.8172 78.002 31.4339 77.9763 31.1016C77.9248 30.7694 77.8477 30.2838 77.7962 29.9516L78.2078 29.9005C78.2849 30.4116 78.465 30.565 78.9279 30.6927L85.2808 32.3539L85.358 33.0694ZM84.072 47.8408C84.072 47.8663 84.072 47.9175 84.072 47.943C84.072 48.1986 84.0205 48.6075 84.0205 48.633C84.0205 48.7097 83.9691 49.0675 83.5061 49.1186C83.3261 49.1441 82.5031 49.1441 82.4002 49.1441C82.0658 49.093 81.9629 48.9141 81.9629 48.8886C81.8343 48.6841 81.8343 48.3008 81.86 47.9686C81.86 47.9686 81.86 47.9686 81.86 47.943V47.9175C81.86 47.9175 81.86 47.9175 81.86 47.8919C81.86 47.8919 81.86 47.8919 81.86 47.8664C81.86 47.8664 81.86 47.8663 81.86 47.8408V47.8152V47.7897C81.86 47.7641 81.86 47.7641 81.86 47.7641V47.7386V47.713V47.6875C81.86 47.6619 81.86 47.6619 81.86 47.6619V47.6363V47.6108C81.86 47.6108 81.86 47.6108 81.86 47.5852V47.5597V47.5341V47.5086V47.483V47.4575C81.86 47.4575 81.86 47.4575 81.86 47.4319C81.86 47.4319 81.86 47.4319 81.86 47.4063C81.86 47.3041 81.8858 47.253 81.8858 47.2275C81.9886 46.9208 82.4002 46.8441 82.7345 46.8441C82.9403 46.8441 83.1718 46.8697 83.3775 46.8697C83.5061 46.8697 83.7119 46.8952 83.8405 47.1508C84.0463 47.3297 84.072 47.5852 84.072 47.8408ZM71.5462 20.6237C72.1121 21.2115 72.2664 21.1348 72.7293 20.7003L76.0473 17.4547C76.5102 17.0203 76.5874 16.8925 75.9958 16.2792L76.3045 15.998C76.4588 16.1514 76.7932 16.5347 77.4362 17.1992C77.822 17.6081 78.3106 18.0425 78.5421 18.2981L78.2335 18.5792C77.6676 18.017 77.539 18.0425 77.0504 18.5025L75.4814 20.0359L79.4423 20.1381C79.5967 20.1381 79.7253 20.1126 79.8024 20.0359L79.9825 19.857L81.3199 21.1859L81.037 21.467C80.7284 21.1604 80.4197 20.9048 79.9825 20.8792L76.6388 20.7259L76.2273 24.8915C76.2016 25.2749 76.3302 25.5049 76.6646 25.8371L76.3816 26.1182L75.0184 24.7382L75.43 20.4959L75.0699 20.4448L73.7324 21.7737C73.2438 22.2337 73.2438 22.387 73.7839 22.9493L73.4752 23.2304C73.3981 23.1282 72.6779 22.3615 72.395 22.1059C71.9577 21.6715 71.3919 21.1092 71.2119 20.9559L71.5462 20.6237ZM58.3775 16.9181C59.1748 17.0714 59.2777 16.9692 59.4063 16.3303L60.3065 11.8069C60.4351 11.1935 60.4094 11.0402 59.5863 10.8868L59.6635 10.478C59.8692 10.5291 60.3836 10.6568 61.2838 10.8357C61.8497 10.938 62.4927 11.0402 62.8271 11.1169L62.7499 11.5257C61.9783 11.3724 61.8754 11.4746 61.7211 12.1135L60.8209 16.6114L65.1933 11.5769L67.4824 12.0369L67.4053 12.4202C66.5822 12.2669 66.505 12.3947 66.4022 13.008L65.502 17.5314C65.3734 18.1959 65.4505 18.3236 66.1964 18.477L66.1192 18.8859C66.0164 18.8603 64.9618 18.6303 64.576 18.5536C63.9587 18.4259 63.1871 18.2981 62.9557 18.2725L63.0328 17.8636C63.8301 18.017 63.9073 17.8892 64.0359 17.2758L64.9361 12.7524L60.5637 17.787L58.2746 17.327L58.3775 16.9181ZM45.9031 16.5858C46.7262 16.5858 46.7776 16.4581 46.7776 15.8192V11.1935C46.7776 10.5291 46.7005 10.4268 45.9031 10.4268V10.0179C46.3404 10.0179 46.9062 10.0435 47.5235 10.0435C48.2694 10.0435 48.578 10.0179 49.6326 10.0179C50.6871 10.0179 51.6645 10.2991 51.6645 11.5257C51.6645 12.9058 50.5842 13.7236 49.2468 13.7236C49.0667 13.7236 48.8352 13.698 48.7066 13.6469L48.5523 13.1613C48.7066 13.2124 48.9381 13.2636 49.0667 13.2636C49.8126 13.2636 50.1984 12.4202 50.1984 11.7813C50.1984 10.9635 49.864 10.5546 48.9124 10.5546C48.6038 10.5546 48.3723 10.5546 48.2437 10.5802V15.8447C48.2437 16.5347 48.3465 16.6114 49.1182 16.6114V17.0458C48.9896 17.0203 47.935 17.0203 47.5492 17.0203C46.9319 17.0203 46.1346 17.0203 45.9031 17.0458V16.5858ZM32.9401 11.2957C33.7632 11.1424 34.4319 11.0146 35.0235 10.9124C35.615 10.8102 36.3609 10.708 36.5409 10.6824C36.4895 11.1169 36.4638 11.6791 36.5924 12.2924L36.1551 12.3691L36.0008 11.5257C35.615 11.4235 35.2292 11.4235 34.7663 11.5257C34.4833 11.5769 34.1232 11.6791 33.7889 11.858L34.7663 17.4803C34.9206 17.4803 35.2292 17.4292 35.3321 17.4292C36.4895 17.2247 36.6696 16.4836 36.5152 15.6147C36.3352 14.6436 36.0008 14.2602 35.1263 14.388C34.9977 14.4136 34.8949 14.4647 34.7663 14.5158L34.5348 14.0558C34.6891 13.9791 34.8434 13.8769 35.0492 13.8513C36.4895 13.5958 37.8012 13.8769 38.0327 15.2314C38.2899 16.6625 37.1325 17.6847 35.4607 17.9659C35.2292 18.017 34.5862 18.0936 34.1232 18.1703C33.5317 18.2725 32.7601 18.4259 32.58 18.477L32.5029 18.0681C33.3002 17.9403 33.3516 17.8125 33.223 17.1481L32.4257 12.5991C32.3228 11.9602 32.2199 11.858 31.4226 11.9858L31.3455 11.5769C31.8856 11.4491 32.1942 11.4235 32.9401 11.2957ZM20.1829 16.6881L26.2014 19.7803C26.4843 19.9337 26.6901 19.9592 27.1016 19.6014L27.3588 19.9337C26.9473 20.2403 26.33 20.7259 26.0985 20.9303C25.4298 21.467 24.9926 21.8504 24.864 21.9781L24.6067 21.6459C25.0954 21.237 25.1469 21.1092 25.0183 20.9559C24.9411 20.8537 24.6582 20.7003 23.3722 20.0103L21.5718 21.467C22.009 22.847 22.1376 23.1537 22.189 23.2048C22.3434 23.4093 22.5234 23.3837 23.0635 22.9493L23.3207 23.2815C22.9349 23.5882 22.6263 23.8182 22.3691 24.0226C22.1119 24.2271 21.7261 24.5337 21.4946 24.7637L21.2374 24.4315C21.6489 24.0993 21.6746 23.8437 21.546 23.4093L19.6427 17.1736L20.1829 16.6881ZM11.8238 32.0728C11.9009 31.5105 11.9781 30.8716 12.0295 30.5138L12.4411 30.565C12.3382 31.2805 12.3896 31.4339 13.0326 31.5361C12.9812 31.2805 12.8783 30.8716 12.904 30.6927C13.1355 29.1338 14.0357 28.2394 15.8619 28.4949C17.7394 28.776 18.3053 30.0538 18.0995 31.3316C18.0224 31.6894 17.8938 31.9194 17.688 32.2261C17.7394 32.2261 17.9452 32.2516 17.9709 32.2772C18.511 32.3283 18.6139 32.2261 18.7168 31.5105L19.1283 31.5616C19.0769 31.6639 18.9226 32.7117 18.8711 33.1206C18.7682 33.7339 18.6654 34.5006 18.6654 34.7306L18.2538 34.6795C18.3567 33.9383 18.2796 33.8106 17.7652 33.7339C17.7137 33.7339 17.5337 33.7083 17.4822 33.6828C17.5337 33.9383 17.6623 34.3472 17.6366 34.5261C17.4051 36.085 16.402 36.9795 14.7044 36.7239C12.8011 36.4428 12.261 35.1395 12.4668 33.8617C12.5439 33.5039 12.6983 33.2739 12.8526 32.9928C12.2867 32.9161 12.1324 32.9417 12.0038 33.7595L11.5923 33.7083C11.5666 33.4783 11.6695 32.9672 11.8238 32.0728ZM15.0388 47.8408C15.0388 47.8663 15.0388 47.9175 15.0388 47.943C15.0131 48.1986 14.9874 48.6075 14.9874 48.633C14.9874 48.7097 14.9359 49.0675 14.473 49.1186C14.2929 49.1441 13.4956 49.1441 13.367 49.1441C13.0326 49.093 12.9555 48.9141 12.9298 48.8886C12.8011 48.6841 12.8011 48.3008 12.8269 47.9686C12.8269 47.9686 12.8269 47.9686 12.8269 47.943C12.8269 47.943 12.8269 47.943 12.8269 47.9175C12.8269 47.9175 12.8269 47.9175 12.8269 47.8919C12.8269 47.8919 12.8269 47.8919 12.8269 47.8664C12.8269 47.8664 12.8269 47.8663 12.8269 47.8408V47.8152V47.7897C12.8269 47.7641 12.8269 47.7641 12.8269 47.7641V47.7386V47.713V47.6875C12.8269 47.6619 12.8269 47.6619 12.8269 47.6619V47.6363V47.6108C12.8269 47.6108 12.8269 47.6108 12.8269 47.5852V47.5597V47.5341V47.5086V47.483V47.4575C12.8269 47.4575 12.8269 47.4575 12.8269 47.4319C12.8269 47.4319 12.8269 47.4319 12.8269 47.4063C12.8526 47.3041 12.8526 47.253 12.8783 47.2275C12.9812 46.9208 13.3927 46.8441 13.7271 46.8441C13.9328 46.8441 14.1643 46.8697 14.3701 46.8697C14.4987 46.8697 14.7044 46.8952 14.8588 47.1508C15.0131 47.3297 15.0388 47.5852 15.0388 47.8408ZM17.7652 67.3911L17.6108 66.9311L18.5368 66.65C18.5625 66.2155 18.511 65.7811 18.331 65.27C18.2281 64.9633 18.0481 64.5544 17.7909 64.2222L12.3639 65.96C11.6437 66.19 11.5666 66.3178 11.8495 67.1611L11.4123 67.2889C11.3865 67.1611 11.0265 66.0111 10.8978 65.6022C10.6921 64.9378 10.4092 64.0944 10.2806 63.8388L10.7178 63.6855C11.0007 64.58 11.1551 64.58 11.8495 64.35L16.7621 62.7655C17.4565 62.5355 17.5851 62.4333 17.2765 61.5388L17.7137 61.411C17.8938 61.9988 17.9709 62.331 18.2538 63.1488C18.5368 64.0177 18.8197 64.7589 19.0254 65.3978C19.2312 66.0111 19.4884 66.8544 19.5399 67.0589C19.0254 67.11 18.4082 67.1867 17.7652 67.3911ZM27.7446 80.1436C26.2786 82.3925 23.9895 82.648 21.7261 81.1914C19.5141 79.7602 18.9226 77.7413 20.3629 75.5435C21.829 73.2946 24.1181 73.039 26.3814 74.4957C28.5934 75.9268 29.1592 77.9457 27.7446 80.1436ZM43.2539 80.9613L42.7653 80.9102L42.8681 79.9647C42.4566 79.7347 42.0451 79.6324 41.505 79.5558C41.1706 79.5047 40.9134 79.5302 40.6562 79.5558L40.0132 85.2803C39.936 86.0214 40.0132 86.1492 40.9134 86.2514L40.862 86.7114C40.7334 86.6859 39.5245 86.5325 39.0873 86.4814C38.3928 86.4048 37.4926 86.3281 37.2354 86.3026L37.2868 85.8425C38.2128 85.9448 38.2899 85.817 38.3671 85.1014L39.0101 79.3769C38.7272 79.2747 38.4957 79.2235 38.1099 79.1724C37.6469 79.1213 37.2097 79.1469 36.7724 79.2747L36.6695 80.2202L36.1809 80.1691C36.258 79.5047 36.2066 78.9424 36.1037 78.3802C36.3609 78.3802 36.9525 78.4313 37.3126 78.4824C38.5471 78.6102 38.8043 78.6869 39.9103 78.8146C41.042 78.9424 41.505 78.9424 42.4052 79.0702C42.9967 79.1213 43.5883 79.2235 43.7426 79.2491C43.5111 79.7347 43.3311 80.2713 43.2539 80.9613ZM59.3805 86.4048C58.6861 86.4559 57.7859 86.5325 57.5287 86.5837L57.503 86.1236C58.4289 86.047 58.4803 85.8936 58.4289 85.1781L58.0174 80.0669L54.7509 86.7881L52.1017 86.9926L52.076 86.5581C53.0019 86.4814 53.0534 86.3537 53.0019 85.6125L52.5904 80.5013C52.539 79.8113 52.4875 79.6324 51.5359 79.7091L51.5101 79.2491C51.7416 79.2235 52.3589 79.2235 53.3877 79.1469C54.0307 79.0958 54.7509 78.9935 55.1624 78.968L55.2139 79.428C54.3136 79.5047 54.2365 79.6324 54.2879 80.3736L54.6995 85.5103L57.9402 78.7891L60.5894 78.5846L60.6408 79.0191C59.6892 79.0958 59.6635 79.2491 59.7149 79.9647L60.1264 85.1014C60.1779 85.8681 60.2808 85.9448 61.181 85.8937L61.2067 86.3537C61.0266 86.3025 59.8178 86.3792 59.3805 86.4048ZM76.896 80.6036L72.3178 79.1213L72.1635 79.5047L73.2695 81.2936C73.6553 81.9325 73.8096 81.9836 74.5812 81.5236L74.8384 81.9069C74.7098 81.958 73.681 82.5714 73.2952 82.8014C72.6779 83.1592 71.932 83.6447 71.7005 83.7981L71.4691 83.3892C72.2664 82.9036 72.2407 82.7503 71.8806 82.1369L69.1542 77.7668C68.7942 77.1535 68.6656 77.0513 67.8425 77.5368L67.5853 77.1535C67.7911 77.0257 68.3312 76.7446 69.2057 76.2079C69.7715 75.8757 70.3631 75.4668 70.6974 75.2624L70.9289 75.6457C70.1573 76.1313 70.1316 76.259 70.5431 76.8979L71.8034 78.968L72.9608 74.6746C73.0123 74.4957 73.0123 74.3679 72.9351 74.2401L72.7808 74.0101L74.6069 72.8857L74.8384 73.2434C74.4012 73.499 74.0411 73.7801 73.9125 74.2401L72.8579 77.8435L77.359 79.3002C77.7705 79.428 78.0534 79.3513 78.5164 79.0702L78.7479 79.4535L76.896 80.6036ZM86.2839 64.1966C86.0524 65.1422 85.8724 65.7811 85.8467 65.96L85.3837 65.8578C85.5638 65.1678 85.5123 65.0144 85.3066 64.9633C85.1522 64.9122 84.8179 64.9633 83.1975 65.1933L82.5288 67.7234C83.8405 68.6945 84.1234 68.8734 84.2006 68.8989C84.4835 68.9756 84.6121 68.8223 84.8179 68.0811L85.2808 68.2089C85.1265 68.7456 84.9979 69.18 84.895 69.5123C84.7922 69.8956 84.6636 70.4067 84.5864 70.7901L84.1491 70.6623C84.3035 70.0745 84.1491 69.8445 83.7376 69.5123L77.8991 65.0911L78.1049 64.2989L85.6152 63.0977C85.9496 63.0466 86.1553 62.9188 86.3354 62.331L86.7726 62.4333C86.5926 63.021 86.3611 63.8644 86.2839 64.1966Z" fill="#910B26"/>
<path d="M16.8743 32C17.0201 31.8193 17.1659 31.571 17.2388 31.2322C17.336 30.6225 16.8014 30.2387 15.5377 30.058C14.0066 29.8548 13.3748 30.2161 13.3019 30.6677C13.2532 30.9387 13.1803 31.1419 13.3991 31.5032L16.8743 32Z" fill="#910B26"/>
<path d="M21.25 19L21.9324 21L23.25 20L21.25 19Z" fill="#910B26"/>
<path d="M14.9615 34.9413C16.3716 35.1469 17.1252 34.7815 17.1981 34.3247C17.2468 34.0506 17.3197 33.8451 17.1009 33.4796L13.6244 33C13.4786 33.1827 13.3327 33.4339 13.2598 33.7765C13.1625 34.3703 13.7946 34.7815 14.9615 34.9413Z" fill="#910B26"/>
<path d="M83.25 32.6479L81.25 32L81.4435 34L83.25 32.6479Z" fill="#910B26"/>
<path d="M82.6612 67L83.25 65L80.25 65.4L82.6612 67Z" fill="#910B26"/>
<path d="M26.2628 75.5447C24.3807 74.2833 23.0737 75.4105 22.1065 76.9135C21.0609 78.5775 20.8256 80.51 22.2372 81.4493C24.1193 82.7108 25.4263 81.6104 26.3935 80.1074C27.4391 78.4165 27.6744 76.4841 26.2628 75.5447Z" fill="#910B26"/>
<path d="M63.1612 58.7288C63.1612 57.2797 63.2631 52.678 63.4414 50.9237L65.25 49.8559L65.0972 48.8898C63.5433 48.9915 62.2442 49.2203 60.7667 49.2203L52.972 49.0678V50.2881C55.29 50.3644 56.7675 50.6186 57.4043 50.7458C58.0411 50.8729 58.4487 51.0508 58.6015 51.3051C58.7289 51.5339 58.8308 52.3729 58.8308 53.7712V59.2373C58.8308 60.661 58.7544 61.678 58.6015 62.3136C57.6845 62.7966 56.5382 63.2034 55.1881 63.4576C53.8381 63.7373 52.4625 63.8644 51.036 63.8644C48.0047 63.8644 45.3301 63.2034 43.0375 61.8305C40.7704 60.483 38.9363 58.5254 37.5862 55.9576C36.2362 53.3898 35.5484 50.5169 35.5484 47.3136C35.5484 44.4153 36.1343 41.7458 37.2806 39.2797C38.4523 36.839 40.159 34.9576 42.4261 33.6356C44.6932 32.3136 47.3424 31.678 50.4501 31.678C51.9531 31.678 53.2267 31.7797 54.3221 31.9831C55.3919 32.1864 56.7675 32.6186 58.4232 33.2542C59.3912 33.7373 60.079 34.2458 60.512 34.8305C60.7158 35.2373 60.8177 35.5678 60.8177 35.822C60.8432 36.0763 60.8432 36.4322 60.8686 36.839L60.996 39.6102H62.5244C62.7282 37.1441 62.9065 35.4915 63.0338 34.7034C63.1612 33.9153 63.365 33.1017 63.6197 32.2627C61.0979 31.5508 58.8563 31.0169 56.8694 30.6102C54.8825 30.2288 52.972 30 51.1634 30C47.2915 30 44.0564 30.5339 41.4327 31.5508C39.726 32.2373 37.9938 33.3051 36.2871 34.7288C34.5804 36.1525 33.1539 37.9831 31.9822 40.1949C30.8359 42.4068 30.25 45.1017 30.25 48.2542C30.25 51.8644 31.0397 54.9915 32.6445 57.6356C34.2493 60.2797 36.4909 62.339 39.4203 63.8136C42.3497 65.2881 45.6867 66 49.4567 66C51.9531 66 54.5768 65.7458 57.3788 65.2119C58.9582 64.9068 60.9705 64.2966 63.4414 63.4068C63.2631 61.7797 63.1612 60.2034 63.1612 58.7288Z" fill="#910B26"/>
</svg>
