<svg width="272" height="85" viewBox="0 0 272 85" fill="none" xmlns="http://www.w3.org/2000/svg">
<path d="M13.6055 80.875L26.3737 58.875H67.8107L80.6055 80.875H13.6055Z" fill="#004996"/>
<path d="M33.8922 0.875L46.6055 23.0031L26.0057 58.875H0.605469L33.8922 0.875Z" fill="#004996"/>
<path d="M60.0766 0.875L47.3633 23.0031L67.9367 58.875H93.3633L60.0766 0.875Z" fill="#004996"/>
<path d="M60.3633 0.875H34.3633L47.3633 22.875L60.3633 0.875Z" fill="#FBBA07"/>
<path d="M27.3633 59.125H1.36328L14.3768 81.125L27.3633 59.125Z" fill="#FBBA07"/>
<path d="M94.3633 59.125H68.3633L81.3633 81.125L94.3633 59.125Z" fill="#FBBA07"/>
<path d="M238.848 29.875C236.684 29.0845 234.817 28.5574 231.652 28.5574C226.35 28.5574 220.859 32.6419 220.859 39.4669C220.859 46.5027 226.161 50.4818 231.923 50.4818C234.763 50.4818 237.225 49.9547 239.01 49.0588L241.363 56.9905C237.982 58.4135 234.357 59.125 230.435 59.125C220.21 59.125 210.363 52.2473 210.363 39.4669C210.363 27.925 219.75 20.125 230.164 20.125C234.574 20.125 237.252 20.573 241.228 22.075L238.848 29.875Z" fill="#004996"/>
<path fill-rule="evenodd" clip-rule="evenodd" d="M149.26 28.2107C150.199 28.0759 151.003 28.049 152.237 28.049C155.563 28.049 157.681 30.1513 157.681 32.8465C157.681 35.6495 155.938 38.0213 151.191 38.0213H149.233V28.2107H149.26ZM149.26 59.125H139.363V20.9066C142.957 20.3945 146.98 20.125 150.681 20.125C161.329 20.125 167.363 25.1381 167.363 32.6848C167.363 39.315 163.179 45.6758 151.459 45.6758H149.233V59.125H149.26Z" fill="#004996"/>
<path d="M105.363 59.125H115.082V42.5368H115.187L125.643 59.125H137.363L124.116 38.9191L136.099 21.125H124.932L115.187 36.2928H115.082V21.125H105.363V59.125Z" fill="#004996"/>
<path d="M196.993 40.125C196.993 32.8328 193.009 28.4628 187.863 28.4628C182.718 28.4628 178.733 32.8328 178.733 40.125C178.733 47.4172 182.718 51.7871 187.863 51.7871C193.009 51.7871 196.993 47.444 196.993 40.125ZM168.363 40.125C168.363 28.0875 176.939 20.125 187.863 20.125C198.788 20.125 207.363 28.0875 207.363 40.125C207.363 52.1625 198.788 60.1249 187.863 60.1249C176.913 60.1517 168.363 52.1625 168.363 40.125Z" fill="#004996"/>
<path d="M271.363 29.291H261.741V59.125H252.012V29.291H242.363V21.125H271.363V29.291Z" fill="#004996"/>
<path d="M107.327 72.2807V67.3745H105V80.0973H107.327V74.415H108.069C108.99 74.415 109.501 74.9694 110.601 76.8542C111.292 78.0184 111.829 78.9885 112.519 80.125H115L112.442 75.69C111.675 74.3595 111.113 73.528 110.166 73.2785C110.934 72.7796 111.317 71.948 111.726 70.7284C112.059 69.7028 112.519 69.2593 113.286 69.2593C113.824 69.2593 114.079 69.4534 114.258 69.5919V67.4022C113.9 67.2636 113.465 67.125 112.98 67.125C110.959 67.125 110.269 68.6495 109.757 70.0909C109.22 71.6986 108.657 72.2807 107.864 72.2807H107.327Z" fill="#004996"/>
<path fill-rule="evenodd" clip-rule="evenodd" d="M134.42 67.125C130.786 67.125 128 69.9049 128 73.5024C128 77.3451 130.68 80.125 134.42 80.125C138.32 80.125 141 77.4541 141 73.5024C141.026 69.7959 138.241 67.125 134.42 67.125ZM134.394 69.3598C136.808 69.3598 138.533 71.104 138.533 73.5296C138.533 76.2277 136.941 77.8902 134.394 77.8902C132.059 77.8902 130.467 76.146 130.467 73.5024C130.467 71.104 132.112 69.3598 134.394 69.3598Z" fill="#004996"/>
<path d="M158.332 73.7655H163.642V79.125H166V67.125H163.642V71.6479H158.332V67.125H156V79.125H158.332V73.7655Z" fill="#004996"/>
<path d="M184.454 77.3142V67.125H182V79.5304H191.789V82.125H194V77.3142H192.436V67.125H189.982V77.3142H184.454Z" fill="#004996"/>
<path fill-rule="evenodd" clip-rule="evenodd" d="M217.761 76.255C216.353 77.2089 214.971 77.7539 213.51 77.7539C211.172 77.7539 209.79 76.473 209.418 73.9929H218C218 69.3598 215.928 67.125 212.713 67.125C209.338 67.125 207 69.6868 207 73.4751C207 76.9363 209.126 80.125 212.925 80.125C214.998 80.125 216.326 79.6617 217.787 78.6533V76.255H217.761ZM209.444 72.3577C209.763 70.3682 210.879 69.278 212.739 69.278C214.44 69.278 215.502 70.4772 215.582 72.3577H209.444Z" fill="#004996"/>
<path d="M262.332 73.7655H267.642V79.125H270V67.125H267.642V71.6479H262.332V67.125H260V79.125H262.332V73.7655Z" fill="#004996"/>
<path fill-rule="evenodd" clip-rule="evenodd" d="M239.081 69.0968C236.665 69.0968 235.471 71.2551 235.471 73.4933C235.471 75.5184 236.529 77.8632 239.054 77.8632C241.443 77.8632 242.421 75.625 242.421 73.4134C242.421 71.2551 241.498 69.0968 239.081 69.0968ZM233 67.3915H235.362L235.416 68.8836C236.312 67.7911 237.534 67.125 239.489 67.125C243.154 67.125 245 69.9495 245 73.2535C245 76.6109 243.29 79.835 239.462 79.835C237.643 79.835 236.285 79.1689 235.443 78.1297V84.125H233V67.3915Z" fill="#004996"/>
</svg>
