<svg width="91" height="108" viewBox="0 0 91 108" fill="none" xmlns="http://www.w3.org/2000/svg">
<path d="M0.00793536 64.7964C0.577564 58.2754 7.96868 54.7003 13.2304 59.0108L27.1518 72.7407V6.75097C27.1518 4.12193 30.3164 1.0296 32.7468 0.30954C37.4727 -1.08871 43.1844 2.41807 43.1844 7.4473V38.3162L43.8637 36.5496C46.8328 30.7863 55.1959 30.6161 58.2128 36.4547C58.4702 36.9514 59.0764 38.4544 59.0764 38.9428V42.9142L59.9456 40.5001C62.6671 35.5406 69.5125 34.7131 73.2116 39.1493C74.0667 40.175 75.109 42.3463 75.109 43.6803V49.4645L75.6462 47.9756C78.8727 40.514 90.0895 42.3686 91.0009 49.8818V107.997H39.9495L2.32583 70.6517C1.51007 69.6484 0.685864 68.5837 0.355339 67.3082C0.197812 66.7012 0.221722 66.0579 0.00652887 65.4927C0.0191873 65.2639 -0.013162 65.0239 0.00652887 64.7964H0.00793536Z" fill="#0B231E"/>
</svg>
