<svg width="56" height="56" viewBox="0 0 56 56" fill="none" xmlns="http://www.w3.org/2000/svg">
<rect x="0.53125" y="0.5" width="55" height="55" fill="#6E7A64"/>
<path d="M38.0449 41.7884C37.5683 42.2368 36.9323 42.2701 36.2986 42.2027C34.8995 42.0533 32.5061 40.3518 31.2696 39.5587C29.5927 38.4838 27.777 37.3005 26.1798 36.1241C25.0774 35.3124 23.4148 34.3444 24.6347 32.8419C26.6596 30.9345 28.7752 29.123 30.7851 27.2008C31.6815 26.3435 33.1792 25.0579 33.8958 24.1433C34.082 23.9056 34.6935 22.9328 34.269 22.7625C33.8003 22.5743 32.4533 23.4192 32.0114 23.6864C28.0768 26.0593 24.327 29.0649 20.383 31.3767C17.3804 33.137 13.9825 30.8051 10.942 30.1205C10.0866 29.7271 10.029 28.8373 10.7676 28.282C20.1423 24.1433 29.7947 20.5584 39.242 16.5529C40.0864 16.2269 41.5699 15.9094 42.0907 16.8743C42.4537 17.5473 42.1136 19.4494 42.0039 20.2687C41.0775 27.1985 39.7368 34.1345 38.5602 41.0178C38.4766 41.206 38.1885 41.6536 38.0449 41.7884Z" fill="white"/>
</svg>
