<svg width="56" height="56" viewBox="0 0 56 56" fill="none" xmlns="http://www.w3.org/2000/svg">
<rect x="0.53125" y="0.5" width="55" height="55" fill="#0B2719"/>
<path d="M19.3339 19.5C19.4237 22.4116 19.9147 25.4738 21.539 27.9641C22.5206 29.4689 23.9975 30.8238 25.8151 31.257V19.5H30.3381V26.2183C32.1396 25.9808 33.69 24.7867 34.8138 23.46C35.7852 22.3132 36.5527 20.9372 36.9592 19.5H41.4821C40.9122 22.6869 38.7875 25.6761 36.0901 27.517C35.8547 27.6776 35.5943 27.8156 35.3739 27.9884C35.4782 28.0035 35.5828 28.0649 35.6774 28.1129C39.022 29.8135 41.5785 32.9415 42.5312 36.5H37.5654C36.5704 33.3398 33.8039 30.7403 30.3381 30.4172V36.5L28.6247 36.4771C28.0963 36.4303 27.5683 36.3895 27.0431 36.3146C20.5625 35.3913 16.6838 31.0849 15.2232 25.0567C14.7825 23.2377 14.5865 21.3683 14.5312 19.5H19.3339Z" fill="white"/>
</svg>
