<svg width="56" height="56" viewBox="0 0 56 56" fill="none" xmlns="http://www.w3.org/2000/svg">
<rect x="0.53125" y="0.5" width="55" height="55" fill="#0B2719"/>
<path d="M23.584 19.5427C27.3392 19.4643 31.1293 19.4906 34.865 19.6486C38.5483 19.8047 40.6794 19.5859 41.2459 23.5001C41.6085 26.0064 41.7084 31.0515 41.0462 33.4612C40.2499 36.3617 38.206 36.1693 35.4224 36.3022C30.6949 36.5285 25.7207 36.5749 20.9792 36.3667C18.8173 36.2715 16.2558 36.363 15.2842 34.278C14.3873 32.3522 14.497 27.7428 14.5969 25.5625C14.6772 23.8104 14.8008 21.202 16.6714 20.2253C18.0224 19.5195 21.8943 19.5778 23.584 19.5427ZM25.2024 24.4386V31.012L25.3449 31.079L32.4558 27.7566L25.3449 24.3715L25.2024 24.4386Z" fill="white"/>
</svg>
