<?xml version="1.0" encoding="utf-8"?>
<!-- Generator: Adobe Illustrator 26.0.2, SVG Export Plug-In . SVG Version: 6.00 Build 0)  -->
<svg version="1.1" id="Layer_1" xmlns="http://www.w3.org/2000/svg" xmlns:xlink="http://www.w3.org/1999/xlink" x="0px" y="0px"
	 viewBox="0 0 1401.5 503.9" style="enable-background:new 0 0 1401.5 503.9;" xml:space="preserve">
<g>
	<g id="Слой_x0020_1_00000098915771692548309460000012440834207583608738_">
		<g id="Bugaev_logotip_x0020_vektor.eps_00000085222956175487445850000013686924184871323267_">
			<path d="M1098.4,171.8c0-6.3-0.8-12.3-2.5-18.1c-1.6-5.8-4.3-11-7.9-15.6c-3.6-4.6-8.3-8.3-13.9-11.2c-5.7-2.8-12.6-4.2-20.9-4.2
				c-7.9,0-14.8,1.4-20.6,4c-5.8,2.7-10.6,6.3-14.4,10.9c-3.8,4.7-6.8,10-8.9,15.9c-2.2,5.9-3.6,12.1-4.2,18.4H1098.4z M942,196.1
				c0-20.5,3.1-38.5,9.5-54.1c6.3-15.6,14.5-28.5,24.8-39c10.3-10.4,22-18.3,35.2-23.6c13.2-5.3,26.8-8,40.7-8
				c34.4,0,60.6,10.2,78.4,30.5c17.9,20.4,26.8,50.1,26.8,89.1c0,4-0.1,8.1-0.2,12.4c-0.2,4.3-0.4,7.8-0.8,10.4h-151.4
				c0,15.3,6.3,27.2,18.8,36c12.6,8.8,28.8,13.2,48.7,13.2c12.2,0,23.9-1.3,35-4c11.1-2.6,20.4-5.3,28.1-7.9l8.4,52.1
				c-10.6,3.6-21.8,6.7-33.7,9.2c-11.9,2.5-25.3,3.7-40.2,3.7c-19.8,0-37.6-2.5-53.4-7.7c-15.7-5.1-29.1-12.7-40.2-22.8
				c-11.1-10.1-19.6-22.6-25.6-37.5C945,233.3,942,216,942,196.1L942,196.1z"/>
			<path d="M48,413.9c-2.6,0-5.2,0-7.6,0.1c-2.5,0-4.3,0.2-5.5,0.3v38.4h10.4c7.6,0,13.3-1.5,17.1-4.6c3.7-3.1,5.6-8.1,5.6-15.2
				C67.9,420.3,61.3,413.9,48,413.9z M47.1,403c5.6,0,10.6,0.7,14.8,2.2c4.2,1.4,7.7,3.4,10.6,6c2.8,2.6,4.9,5.7,6.3,9.3
				s2.1,7.6,2.1,12c0,9.9-2.9,17.5-8.8,22.9c-5.8,5.4-14.6,8.1-26.2,8.1h-11v35.4H22.2v-93.5c1.8-0.4,3.9-0.8,6-1.1
				c2.2-0.3,4.4-0.6,6.6-0.8c2.2-0.2,4.3-0.3,6.4-0.4C43.4,403.1,45.3,403,47.1,403L47.1,403z"/>
			<path d="M149.8,489.8c3.2,0,6-0.1,8.5-0.3c2.5-0.2,4.6-0.5,6.2-0.8v-21.2c-1.7-0.5-3.6-0.9-5.9-1.2c-2.3-0.3-4.7-0.5-7.3-0.5
				c-2.4,0-4.7,0.1-6.9,0.5c-2.3,0.3-4.2,1-6,1.9c-1.7,0.9-3.2,2.1-4.3,3.6c-1.1,1.5-1.7,3.3-1.7,5.6c0,4.6,1.6,7.8,4.7,9.6
				C140.3,488.9,144.5,489.8,149.8,489.8L149.8,489.8z M148.6,426c5.3,0,9.8,0.7,13.4,2c3.6,1.4,6.5,3.2,8.8,5.5
				c2.3,2.4,3.9,5.2,4.8,8.6s1.4,7.1,1.4,11v44.5c-3,0.5-6.9,1.1-11.7,1.8c-4.9,0.7-9.8,1.1-14.9,1.1c-3.9,0-7.7-0.3-11.4-1
				c-3.7-0.7-6.9-1.8-9.8-3.5c-2.9-1.7-5.2-4-6.9-7c-1.7-3-2.6-6.7-2.6-11.4c0-4.1,0.9-7.5,2.7-10.4c1.8-2.8,4.1-5.1,6.9-6.8
				c2.8-1.7,6-3,9.7-3.8s7.3-1.1,10.9-1.1c5,0,9.9,0.6,14.8,1.7v-3.5c0-2.2-0.2-4.2-0.7-6.2c-0.5-2-1.3-3.8-2.6-5.5
				c-1.3-1.6-3-2.9-5.2-3.9c-2.2-1-5-1.5-8.5-1.5c-4.4,0-8.2,0.3-11.5,0.9c-3.3,0.6-5.8,1.3-7.5,1.9l-1.5-10.5
				c1.7-0.8,4.6-1.5,8.7-2.2C139.7,426.4,144,426,148.6,426L148.6,426z"/>
			<path d="M226.8,498.9v-67.3c10.4-3.6,21-5.4,31.6-5.4c3.3,0,6.4,0.1,9.3,0.4c3,0.3,6.2,0.8,9.8,1.6l-2.3,11.2
				c-3.3-0.9-6.2-1.5-8.7-1.8c-2.5-0.2-5.2-0.4-8.2-0.4c-6.3,0-12.6,0.9-19,2.6v59L226.8,498.9L226.8,498.9z"/>
			<path d="M346.5,459.8c2.8,2.1,5.9,4.6,9.4,7.7c3.5,3.1,6.9,6.5,10.4,10c3.4,3.6,6.7,7.3,9.7,11c3.1,3.8,5.5,7.2,7.3,10.4h-15
				c-1.9-3.2-4.3-6.4-7.2-9.7c-2.9-3.3-5.9-6.5-9.1-9.6c-3.2-3.1-6.4-5.9-9.7-8.4c-3.2-2.6-6.1-4.7-8.7-6.5v34.2H321V394.8l12.7-2.2
				v64.9c5.6-4.9,11.2-9.8,16.9-14.7c5.6-4.9,10.7-9.9,15.2-15.1h14.9c-4.4,5.2-9.7,10.6-15.8,16.1
				C358.5,449.4,352.5,454.7,346.5,459.8L346.5,459.8z"/>
			<path d="M463.6,481.1c0-2.5-1.1-4.6-3.2-6.3c-2.1-1.6-4.7-3.1-7.8-4.3c-3.1-1.2-6.5-2.4-10.2-3.6c-3.7-1.2-7.1-2.6-10.2-4.4
				c-3.1-1.7-5.7-3.9-7.8-6.4s-3.1-5.9-3.1-10c0-5.7,2.3-10.5,7-14.4c4.6-3.8,11.9-5.7,21.8-5.7c3.9,0,7.9,0.3,12.1,0.8
				c4.1,0.6,7.7,1.3,10.7,2.2l-2.3,11.4c-0.8-0.4-1.9-0.9-3.4-1.3s-3.1-0.9-4.9-1.2c-1.8-0.3-3.8-0.6-5.9-0.8
				c-2.1-0.2-4.1-0.3-6-0.3c-11,0-16.6,3-16.6,9c0,2.2,1,4,3.2,5.5c2.1,1.5,4.7,2.8,7.9,4.1c3.2,1.2,6.6,2.5,10.3,3.8
				c3.7,1.3,7.1,2.8,10.3,4.7c3.2,1.8,5.8,4,7.9,6.7c2.1,2.6,3.2,5.9,3.2,9.9c0,6.5-2.5,11.4-7.5,15c-5,3.5-12.9,5.3-23.8,5.3
				c-4.9,0-9.4-0.4-13.5-1.3c-4.1-0.8-8-2.1-11.6-3.6l2.5-11.5c3.5,1.6,7.3,3,11.3,4c3.9,1.1,8.2,1.6,12.6,1.6
				C457.8,489.8,463.6,486.9,463.6,481.1L463.6,481.1z"/>
			<path d="M713.1,452.1h12.6v44.5c-1.9,0.7-5,1.6-9.3,2.7c-4.3,1.1-9.3,1.6-15.2,1.6c-5.7,0-10.9-1.1-15.6-3.3
				c-4.7-2.2-8.7-5.4-12.1-9.6c-3.3-4.2-5.9-9.4-7.7-15.6c-1.8-6.2-2.8-13.2-2.8-21.1c0-8,1-15,3.1-21.2c2.1-6.1,4.9-11.3,8.4-15.5
				c3.5-4.2,7.6-7.4,12.3-9.6c4.7-2.2,9.8-3.3,15.2-3.3c3.5,0,6.5,0.2,9.2,0.8c2.6,0.5,4.9,1.1,6.8,1.8c1.9,0.7,3.5,1.5,4.7,2.2
				s2.1,1.3,2.7,1.8l-4.1,10.6c-2.4-1.8-5.1-3.3-8.3-4.5c-3.2-1.2-6.6-1.8-10.2-1.8c-3.9,0-7.5,0.9-10.8,2.8
				c-3.3,1.8-6.2,4.4-8.5,7.8c-2.4,3.3-4.2,7.4-5.5,12.2c-1.3,4.8-2,10-2,15.9c0,5.7,0.6,10.9,1.8,15.7c1.1,4.7,2.9,8.7,5.1,12.1
				c2.3,3.4,5,6,8.4,7.9c3.3,1.9,7.1,2.8,11.4,2.8c3,0,5.2-0.2,6.9-0.6c1.6-0.4,2.9-0.8,3.7-1.2L713.1,452.1L713.1,452.1z"/>
			<path d="M794.6,489.8c3.2,0,6-0.1,8.5-0.3c2.5-0.2,4.6-0.5,6.2-0.8v-21.2c-1.6-0.5-3.6-0.9-5.9-1.2c-2.3-0.3-4.8-0.5-7.3-0.5
				c-2.4,0-4.7,0.1-6.9,0.5c-2.3,0.3-4.2,1-6,1.9c-1.7,0.9-3.2,2.1-4.3,3.6c-1.1,1.5-1.7,3.3-1.7,5.6c0,4.6,1.6,7.8,4.7,9.6
				C785.1,488.9,789.3,489.8,794.6,489.8L794.6,489.8z M793.4,426c5.3,0,9.8,0.7,13.4,2c3.6,1.4,6.5,3.2,8.8,5.5
				c2.2,2.4,3.8,5.2,4.7,8.6c0.9,3.4,1.4,7.1,1.4,11v44.5c-3,0.5-6.9,1.1-11.7,1.8c-4.9,0.7-9.8,1.1-14.9,1.1c-3.9,0-7.7-0.3-11.3-1
				c-3.7-0.7-7-1.8-9.8-3.5c-2.8-1.7-5.2-4-6.9-7c-1.8-3-2.6-6.7-2.6-11.4c0-4.1,0.9-7.5,2.7-10.4c1.8-2.8,4.1-5.1,6.9-6.8
				c2.8-1.7,6-3,9.6-3.8c3.6-0.8,7.3-1.1,11-1.1c5,0,9.9,0.6,14.7,1.7v-3.5c0-2.2-0.2-4.2-0.7-6.2c-0.5-2-1.4-3.8-2.6-5.5
				c-1.3-1.6-3-2.9-5.2-3.9c-2.2-1-5-1.5-8.5-1.5c-4.4,0-8.2,0.3-11.5,0.9c-3.3,0.6-5.8,1.3-7.5,1.9l-1.5-10.5
				c1.7-0.8,4.6-1.5,8.7-2.2C784.5,426.4,788.8,426,793.4,426L793.4,426z"/>
			<path d="M869.6,498.9v-67.3c10.4-3.6,21-5.4,31.6-5.4c3.3,0,6.4,0.1,9.3,0.4c3,0.3,6.3,0.8,9.8,1.6l-2.3,11.2
				c-3.3-0.9-6.2-1.5-8.7-1.8c-2.5-0.2-5.2-0.4-8.2-0.4c-6.2,0-12.6,0.9-19,2.6v59L869.6,498.9L869.6,498.9z"/>
			<path d="M995,442.8c-1.5-1.3-3.5-2.6-6.3-3.8c-2.8-1.2-5.6-1.8-8.6-1.8c-3.4,0-6.3,0.7-8.7,2c-2.4,1.3-4.4,3.1-5.9,5.4
				c-1.6,2.3-2.7,5.1-3.4,8.3c-0.7,3.2-1.1,6.7-1.1,10.4c0,8.3,1.9,14.7,5.8,19.2c3.9,4.5,9,6.7,15.2,6.7c3.2,0,5.8-0.1,8.1-0.5
				c2.2-0.3,3.8-0.6,4.8-0.9V442.8L995,442.8z M995,394.8l12.7-2.2v104.3c-2.8,0.8-6.3,1.6-10.6,2.4c-4.3,0.8-9.3,1.3-15,1.3
				c-5.1,0-9.8-0.9-14-2.6c-4.2-1.7-7.7-4.2-10.7-7.4c-3-3.2-5.2-7.2-6.9-11.7s-2.5-9.8-2.5-15.5c0-5.5,0.7-10.5,2.1-15.1
				c1.4-4.6,3.4-8.5,6-11.7c2.7-3.3,5.9-5.8,9.6-7.7c3.7-1.8,8-2.7,12.8-2.7c3.8,0,7.1,0.5,10,1.4c2.8,0.9,5,1.9,6.5,2.9V394.8
				L995,394.8z"/>
			<path d="M1098.5,456.4c0-6-1.6-10.8-4.8-14.4c-3.2-3.5-7.4-5.3-12.6-5.3c-2.9,0-5.6,0.6-8,1.7c-2.4,1.1-4.4,2.6-6.2,4.4
				c-1.7,1.8-3.1,4-4.1,6.3c-1,2.4-1.7,4.8-2,7.2H1098.5L1098.5,456.4z M1081.3,426c9.6,0,17,3,22.2,9c5.2,6,7.8,15,7.8,27.2v4.5
				h-50.9c0.5,7.3,3,13,7.3,16.7c4.3,3.9,10.5,5.8,18.3,5.8c4.5,0,8.3-0.3,11.5-1.1c3.2-0.7,5.6-1.5,7.2-2.3l1.7,10.7
				c-1.5,0.8-4.3,1.7-8.3,2.6c-4,0.9-8.5,1.4-13.5,1.4c-6.2,0-11.5-1-16.2-2.8c-4.7-1.9-8.5-4.5-11.6-7.7c-3.1-3.3-5.4-7.2-6.9-11.7
				c-1.5-4.6-2.3-9.5-2.3-14.8c0-6.4,0.9-11.8,2.9-16.6c1.9-4.7,4.5-8.6,7.7-11.6c3.2-3.1,6.7-5.4,10.7-6.9
				C1073,426.8,1077.1,426,1081.3,426L1081.3,426z"/>
			<path d="M1152.2,429.7c4.6-1.1,9.2-2,13.7-2.6c4.6-0.6,8.8-0.9,12.8-0.9c9.5,0,16.7,2.5,21.5,7.4c4.9,4.9,7.3,12.8,7.3,23.6v41.7
				h-12.6v-39.4c0-4.6-0.4-8.3-1.2-11.2c-0.8-2.8-2-5.1-3.4-6.7c-1.5-1.6-3.3-2.7-5.4-3.3c-2.1-0.6-4.4-0.9-6.8-0.9
				c-2.1,0-4.2,0.1-6.5,0.4c-2.3,0.3-4.5,0.6-6.7,1v60.1h-12.7L1152.2,429.7L1152.2,429.7z"/>
			<path d="M1294.8,481.1c0-2.5-1-4.6-3.2-6.3c-2.1-1.6-4.7-3.1-7.8-4.3c-3.1-1.2-6.5-2.4-10.2-3.6s-7.1-2.6-10.2-4.4
				c-3.1-1.7-5.7-3.9-7.8-6.4c-2.1-2.6-3.2-5.9-3.2-10c0-5.7,2.3-10.5,7-14.4c4.7-3.8,11.9-5.7,21.9-5.7c3.9,0,7.9,0.3,12,0.8
				c4.1,0.6,7.7,1.3,10.7,2.2l-2.3,11.4c-0.8-0.4-1.9-0.9-3.4-1.3c-1.5-0.5-3.1-0.9-4.9-1.2c-1.9-0.3-3.8-0.6-5.9-0.8
				c-2.1-0.2-4.1-0.3-6.1-0.3c-11,0-16.5,3-16.5,9c0,2.2,1,4,3.1,5.5c2.1,1.5,4.7,2.8,7.9,4.1c3.2,1.2,6.6,2.5,10.3,3.8
				c3.7,1.3,7.1,2.8,10.3,4.7c3.2,1.8,5.8,4,7.9,6.7c2.1,2.6,3.1,5.9,3.1,9.9c0,6.5-2.5,11.4-7.5,15c-5,3.5-12.9,5.3-23.8,5.3
				c-4.9,0-9.4-0.4-13.5-1.3c-4.1-0.8-8-2.1-11.6-3.6l2.4-11.5c3.6,1.6,7.3,3,11.3,4c4,1.1,8.2,1.6,12.7,1.6
				C1289,489.8,1294.8,486.9,1294.8,481.1L1294.8,481.1z"/>
			<path d="M386.4,77.5v183.2c-9.3,1.7-18.6,2.5-27.8,2.5c-14.9,0-24.9-5.2-30-15.6c-5.1-10.4-7.7-26.4-7.7-47.9V77.5h-77.5
				c-0.3,0.8-0.6,1.6-1,2.4c16.8,9.1,17.4,17.4,17.4,32.6v95.1c0,15.9,1.3,30.5,4,43.7c2.6,13.2,7.5,24.7,14.6,34.5
				c7.1,9.8,16.8,17.3,29,22.6c12.2,5.3,28,7.9,47.2,7.9c18.9,0,36.3-1.5,52.4-4.4c16.1-3,29.7-5.9,41-8.9V77.5H386.4z"/>
			<path d="M620.2,236.8c-4.7,2.7-9.9,4.8-15.6,6.5c-5.8,1.7-12,2.5-18.7,2.5c-14.9,0-25.8-5-32.7-15.1
				c-6.9-10.1-10.4-24.7-10.4-43.9c0-43.1,17.9-64.6,53.6-64.6c4,0,7.8,0.1,11.4,0.5c3.6,0.3,7.7,1,12.4,2L620.2,236.8L620.2,236.8z
				 M703.9,91.7l-16.5-5.3c-3.2-0.8-9.9-2.5-9.9-2.5c-28.2-7.5-54.5-11.4-78.8-11.4c-36.4,0-65.2,9.4-86.4,28.3
				c-21.2,18.9-31.8,47.5-31.8,85.9c0,34.1,7.9,60.7,23.6,79.9c15.7,19.2,38.8,28.8,69.3,28.8c8.3,0,16-0.8,23.1-2.5
				c7.1-1.6,15-4.1,23.6-7.4v9.4c0,6.6-0.8,12.8-2.5,18.6c-1.7,5.8-4.4,10.8-8.4,15.1c-4,4.3-9.4,7.7-16.4,10.2
				c-7,2.5-15.7,3.7-26.3,3.7c-15.9,0-29.2-1.6-39.8-4.7c-10.6-3.1-20.7-6.5-30.3-10.2l-11.4,51.6c12.2,4,25.1,7.5,38.5,10.5
				c13.4,3,27.3,4.4,41.9,4.4c40.7,0,70.3-9.1,88.6-27.3c18.3-18.2,27.6-46.4,27.6-84.4V121c0.2-11.1,3.6-23.3,22.3-26.8
				C704,93.4,703.9,92.6,703.9,91.7L703.9,91.7z"/>
			<path d="M853.2,265.6c-4.6,0.7-10.1,1.1-16.4,1.3c-6.3,0.2-12.8,0.2-19.4,0.2c-12.6,0-22.8-2.2-30.8-6.7
				c-8-4.4-11.9-12-11.9-22.6c0-6,1.3-10.7,4-14.4c2.6-3.6,6.2-6.5,10.7-8.4c4.5-2,9.7-3.4,15.7-4.2c5.9-0.8,12.1-1.3,18.3-1.3
				c4.6,0,9.8,0.3,15.4,0.8c5.6,0.5,10.4,1.1,14.4,1.7L853.2,265.6L853.2,265.6z M911.8,268.5V166.3c0-14.6-1.7-27.7-5-39.5
				c-3.3-11.7-8.8-21.7-16.4-29.8c-7.6-8.1-17.8-14.4-30.5-18.9c-12.8-4.5-28.7-6.7-47.9-6.7c-14.9,0-29.3,1.1-43.2,3.2
				c-13.9,2.2-24.6,4.6-32.3,7.2l8.4,49.2c6.6-2.3,15.3-4.3,26.1-6c10.7-1.6,21.9-2.5,33.5-2.5c17.9,0,30.4,3.9,37.7,11.7
				c7.3,7.7,10.9,17.5,10.9,29v7.5c-12.2-2.6-26.3-4-42.2-4c-12.6,0-24.6,1.3-36.2,3.8c-11.6,2.5-21.9,6.5-30.8,12.2
				c-9,5.6-16.1,13.1-21.4,22.3c-5.3,9.3-7.9,20.7-7.9,34.3c0,14.2,2.3,26.2,6.9,36c4.6,9.8,11.3,17.7,19.8,23.8
				c8.6,6.1,18.9,10.5,31,13.1c12.1,2.6,25.6,4,40.5,4c21.8,0,41.5-1.3,59.1-4c14-2.1,25.2-4,33.7-5.7c0,0,2.7-0.5,5.6-1.1
				c1.6-0.3,7.9-1.7,7.9-1.7l13.3-3.3c0.1-0.9,0.2-1.8,0.3-2.6C914.4,293.2,912.3,281.2,911.8,268.5L911.8,268.5z"/>
			<path d="M1339.6,77.5c-3,12.6-6.9,26-11.7,40.2c-4.8,14.2-9.8,28.6-14.9,42.9c-5.2,14.4-10.4,28.4-15.6,42
				c-5.3,13.6-10.1,26-14.4,37.2c-4.3-11.2-8.9-23.6-13.7-37.2c-4.8-13.6-9.5-27.6-14.1-42c-4.7-14.4-9-28.7-13.2-42.9
				c-4.1-14.2-7.7-27.6-10.7-40.2h-77.3c-0.3,0.8-0.6,1.6-0.9,2.4c13.1,7.1,18.4,13.5,22,23.3c11.6,37.1,23.6,72,36.1,104.2
				c15.4,39.5,30.5,74.1,45.4,103.5h51.1c14.9-29.4,30.8-64,47.7-103.5c16.8-39.3,32.1-82.4,46-129.1v-0.7H1339.6L1339.6,77.5z"/>
			<path d="M143.7,115.4c-8,6.8-19.7,10.2-35.3,10.2H84.6V55.1c4-0.7,8.4-1.1,13.4-1.5c5-0.3,9.8-0.5,14.4-0.5
				c5.6,0,11.1,0.4,16.4,1.2c5.3,0.8,9.9,2.5,13.9,5c4,2.5,7.1,6,9.5,10.4c2.3,4.5,3.5,10.4,3.5,17.6
				C155.6,99.3,151.7,108.6,143.7,115.4z M218.4,177.2c-7.4-12.9-21.6-23.2-42.4-30.8c11.9-6.6,21.4-15.5,28.5-26.8
				c7.1-11.2,10.7-24.1,10.7-38.7c0-9.6-1.5-19.2-4.4-28.8c-3-9.6-8.6-18.3-16.9-26.1c-8.3-7.7-19.7-14-34.3-18.9
				C145,2.4,126.2,0,103,0C89.4,0,75.7,0.7,61.8,2.2C50.5,3.4,40.1,4.9,30.4,6.4c-0.7,0.1-1.3,0.1-2.1,0.2c-17.5,2.6-28,6.5-28,6.5
				c-0.1,1-0.1,1.8-0.3,2.7c19.3,4.9,22.8,18,23.6,29.8v260.2c5.9,1.2,11.8,2.3,17.7,3.2c-0.3-24.6,3.8-55.9,18.3-70.6
				c13-64.5,82.5-22.4,104-42.4c-3.3,27.5-8,54.1-38.6,61.3c-19.3,4.5-34.8,2.8-60.7-9c-9.9,13.1-13.7,39.6-13.1,62.1
				c5.2,0.7,10.4,1.5,15.6,2c14.6,1.5,28.6,2.2,42.2,2.2c16.9,0,32.7-1.6,47.4-4.7c14.7-3.1,27.5-8.4,38.2-15.9
				c10.8-7.4,19.3-17.4,25.6-29.8c6.3-12.4,9.5-27.9,9.5-46.4C229.6,203.7,225.9,190.2,218.4,177.2z"/>
			<path d="M588.8,486.7c-0.5-1.7-1.2-3.4-2.1-5.1c-0.9-1.7-1.9-3.3-3.1-4.9c1-1.9,1.9-4,2.5-6.3c0.6-2.3,0.9-4.9,1-7.5l-7.4-0.9
				c-0.1,3.4-0.4,6.3-1.1,8.8c-1.1-1.2-2.2-2.5-3.3-3.7c-1.1-1.3-2.1-2.4-3-3.5c3-1.5,5.2-3.4,6.6-5.7c1.4-2.2,2.1-4.4,2.1-6.7
				c0-1.7-0.3-3.2-0.9-4.5c-0.7-1.2-1.5-2.3-2.5-3.2c-1-0.8-2.2-1.5-3.5-1.9c-1.3-0.5-2.6-0.7-4-0.7c-1.4,0-2.8,0.2-4.2,0.7
				c-1.4,0.5-2.7,1.2-3.8,2.2c-1.1,0.9-2,2.2-2.7,3.6c-0.7,1.5-1,3.2-1,5.1c0,1.9,0.3,3.7,1.1,5.4c0.7,1.8,1.7,3.4,2.8,5
				c-2.4,1.5-4.1,3.2-5.3,5.3c-1.2,2.1-1.8,4.3-1.8,6.7c0,1.7,0.3,3.2,0.8,4.7c0.5,1.5,1.4,2.8,2.5,3.9c1.1,1.1,2.4,2.1,4.1,2.7
				c1.6,0.7,3.5,1,5.6,1c1.7,0,3.4-0.3,5.1-1.1c1.7-0.7,3.4-1.8,5.1-3.3c0.7,1.1,1.2,2.5,1.7,3.9L588.8,486.7L588.8,486.7z
				 M571.9,479.9c-1.1,0.4-2.2,0.7-3.3,0.7c-2,0-3.5-0.6-4.3-1.8c-0.9-1.2-1.3-2.6-1.3-4.3c0-1.5,0.3-2.7,1-3.8
				c0.7-1,1.5-1.9,2.5-2.6c1.4,1.5,2.8,3.1,4.3,4.7c1.5,1.6,2.8,3.2,4.2,4.9C574.1,478.7,573,479.4,571.9,479.9z M567.3,448.6
				c0.7-0.8,1.7-1.3,2.9-1.3c0.9,0,1.7,0.3,2.4,0.9c0.6,0.7,0.9,1.7,0.9,2.9c0,1.3-0.4,2.7-1.2,4c-0.8,1.5-2.1,2.6-3.6,3.5
				c-0.8-1.1-1.4-2.3-1.8-3.4c-0.4-1.1-0.6-2.1-0.6-3.2C566.2,450.6,566.5,449.4,567.3,448.6z"/>
		</g>
	</g>
</g>
</svg>
