<svg width="93" height="100" viewBox="0 0 93 100" fill="none" xmlns="http://www.w3.org/2000/svg">
<g clip-path="url(#clip0_3040_202)">
<path d="M32.0876 85.3302C32.0876 79.661 27.6049 75.0438 22.101 75.0438C16.5686 75.0438 12.1144 79.661 12.1144 85.3302C12.1144 90.9994 16.597 95.6166 22.101 95.6166C27.6049 95.6166 32.0876 90.9994 32.0876 85.3302ZM14.6962 85.3302C14.6962 81.1221 18.0156 77.7323 22.0726 77.7323C26.158 77.7323 29.4491 81.1221 29.4491 85.3302C29.4491 89.5383 26.1297 92.9281 22.0726 92.9281C18.0156 92.9281 14.6962 89.5383 14.6962 85.3302ZM11.32 83.2262C11.32 78.2875 7.43319 75.0438 2.6385 75.0438H0.0567419V95.6166H2.6385V91.3793C7.43319 91.3793 11.32 88.1648 11.32 83.2262ZM2.6385 77.7323C6.01464 77.7323 8.73826 79.7779 8.73826 83.2554C8.73826 86.7037 6.01464 88.72 2.66687 88.72H2.6385V77.7323ZM32.9387 85.3302C32.9387 90.9994 37.4213 95.6166 42.9253 95.6166C45.6772 95.6166 48.2023 94.4477 49.9896 92.6067L48.1455 90.7072C46.8121 92.0807 44.968 92.9281 42.9253 92.9281C38.8398 92.9281 35.5488 89.5383 35.5488 85.3302C35.5488 81.1221 38.8682 77.7323 42.9253 77.7323C44.968 77.7323 46.8405 78.609 48.1739 79.9825L50.018 78.083C48.2023 76.2127 45.7056 75.0438 42.9253 75.0438C37.4213 75.0438 32.9387 79.661 32.9387 85.3302ZM59.4655 77.7323C61.5082 77.7323 63.3807 78.609 64.7142 79.9825L66.5583 78.083C64.7425 76.2127 62.2459 75.0438 59.4655 75.0438C53.9616 75.0438 49.479 79.661 49.479 85.3302C49.479 90.9994 53.9616 95.6166 59.4655 95.6166C62.2175 95.6166 64.7425 94.4477 66.5299 92.6067L64.6858 90.7072C63.3524 92.0807 61.5082 92.9281 59.4655 92.9281C55.3801 92.9281 52.0891 89.5383 52.0891 85.3302C52.0891 81.1221 55.4085 77.7323 59.4655 77.7323ZM67.7782 75.0438V91.6423L67.7498 96.1426L76.4597 82.7878V95.6166H79.0131V74.5763L70.36 87.6096V75.0438H67.7782ZM84.2901 75.0438H81.7367V91.6423L81.7084 96.1426L90.4182 82.7878V95.6166H92.9716V74.5763L84.2901 87.6096V75.0438ZM8.22758 21.4202V31.1222H9.95821V29.5149C12.2279 29.5149 14.0436 27.7908 14.0436 25.453C14.0436 23.1151 12.1995 21.4202 9.95821 21.4202H8.22758ZM12.313 25.453C12.313 26.7972 11.2349 27.7323 9.92984 27.7323V23.1736C11.2349 23.1736 12.313 24.1087 12.313 25.453ZM70.2465 21.4202V31.1222H71.9771V29.5149C74.2468 29.5149 76.0625 27.7908 76.0625 25.4822C76.0625 23.1444 74.2184 21.4494 71.9771 21.4494H70.2465V21.4202ZM74.3035 25.453C74.3035 26.7972 73.2538 27.7323 71.9204 27.7323V23.1736C73.2538 23.1736 74.3035 24.1087 74.3035 25.453ZM43.6345 23.1736V21.4202H38.3008V31.1222H39.4924H43.5778V29.3396H39.9747V26.6511H43.3225V24.8977H39.9747V23.1444H43.6345V23.1736ZM5.84442 6.54588C6.86577 6.54588 7.80201 6.98422 8.45455 7.65634L9.92984 6.13676C8.88011 5.05552 7.43319 4.3834 5.84442 4.3834C2.66687 4.3834 0.0851129 7.04266 0.0851129 10.3156C0.0851129 13.5885 2.66687 16.2478 5.84442 16.2478C7.43319 16.2478 8.88011 15.5757 9.92984 14.4944L8.45455 12.9749C7.77364 13.647 6.86577 14.0853 5.87279 14.0853C3.83008 14.0853 2.18456 12.3904 2.18456 10.2864C2.15619 8.24079 3.80171 6.54588 5.84442 6.54588ZM38.0171 10.3448C38.0171 7.07189 35.4353 4.41262 32.2578 4.41262C29.0802 4.41262 26.4985 7.07189 26.4985 10.3448C26.4985 13.6178 29.0802 16.277 32.2578 16.277C35.4353 16.277 38.0171 13.6178 38.0171 10.3448ZM28.5696 10.3448C28.5696 8.2408 30.2151 6.54588 32.2578 6.54588C34.3005 6.54588 35.946 8.2408 35.946 10.3448C35.946 12.4489 34.3005 14.1438 32.2578 14.1438C30.2151 14.1146 28.5696 12.4196 28.5696 10.3448ZM54.5006 4.41262V16.277H56.5717V11.3968H57.3945C57.8768 14.173 60.2315 16.277 63.0686 16.277C66.2462 16.277 68.8279 13.6178 68.8279 10.3448C68.8279 7.07189 66.2462 4.41262 63.0686 4.41262C60.2315 4.41262 57.8768 6.51666 57.3945 9.29281H56.5717V4.41262H54.5006ZM63.0403 6.54588C65.083 6.54588 66.7285 8.2408 66.7285 10.3448C66.7285 12.4489 65.083 14.1438 63.0403 14.1438C61.0259 14.1438 59.352 12.4489 59.352 10.3448C59.3804 8.2408 61.0259 6.54588 63.0403 6.54588ZM89.2834 14.2607C88.489 14.2607 87.7797 13.647 87.6379 12.9749L86.191 14.4652C86.5314 15.1373 87.0988 15.6634 87.7797 16.014C88.1769 16.2186 88.6876 16.277 89.1699 16.3063C89.2267 16.3063 89.2834 16.3063 89.3401 16.3063C91.2694 16.3063 92.8581 14.699 92.8581 12.6826C92.8581 11.543 92.3475 10.5494 91.5531 9.87726C92.0921 9.29281 92.4326 8.5038 92.4326 7.62712C92.4326 5.84454 91.0424 4.41262 89.3118 4.41262H89.2834C88.7444 4.41262 88.1769 4.55874 87.7514 4.82174C87.2407 5.14319 86.8719 5.55231 86.5031 6.10754L87.95 7.5979C88.2904 6.92577 88.6876 6.48743 89.3118 6.48743C89.9359 6.48743 90.4182 7.01344 90.4182 7.62712C90.4182 8.24079 89.9076 8.7668 89.3118 8.7668C89.1415 8.7668 88.8578 8.7668 88.8578 8.7668V11.1046C88.8578 11.1046 89.1699 11.1046 89.3118 11.1046C90.1629 11.1046 90.8438 11.806 90.8438 12.6826C90.8154 13.5593 90.1345 14.2607 89.2834 14.2607ZM2.09945 29.8364H4.31239L4.65284 31.0929H6.44021L3.20592 20.9234L0 31.0929H1.759L2.09945 29.8364ZM3.20592 25.6283L3.85845 28.083H2.58176L3.20592 25.6283ZM34.7828 31.0929V23.1736H36.5702V21.4202H31.2364V23.1736H33.0805V31.1222H34.7828V31.0929ZM57.0824 31.0929V23.1736H58.8981V21.4202H53.5644V23.1736H55.4085V31.1222H57.0824V31.0929ZM29.6193 31.0929V20.9234L27.917 23.0859L25.0799 26.7387V21.4202H23.3777V31.7358L25.0799 29.5733L27.917 25.9205V31.1222H29.6193V31.0929ZM16.824 31.0929L18.356 26.9725L19.9164 31.0929H21.7322L19.7462 25.7744L21.3633 21.4202H19.5476L18.3844 24.5763L17.2212 21.4202H15.4054L17.0226 25.7744L15.0366 31.0929H16.824ZM45.9893 21.4202V31.0929H47.6916V27.82L48.4009 26.8556L48.6846 26.4757L50.9826 31.1222H52.8835L49.791 24.9562L52.4012 21.4494H50.2733L48.6562 23.6119L47.6632 24.9562V21.4494H45.9893V21.4202ZM59.5223 26.2712C59.5223 28.9597 61.6217 31.1222 64.2318 31.1222C66.842 31.1222 68.9414 28.9597 68.9414 26.2712C68.9414 23.5827 66.842 21.4202 64.2318 21.4202C61.6217 21.4202 59.5223 23.5827 59.5223 26.2712ZM67.2392 26.2712C67.2392 27.9661 65.9057 29.3688 64.2602 29.3688C62.6147 29.3688 61.2529 27.9953 61.2529 26.2712C61.2529 24.5763 62.5863 23.1736 64.2602 23.1736C65.9341 23.1736 67.2392 24.547 67.2392 26.2712ZM77.3109 26.2712C77.3109 28.9597 79.4103 31.1222 82.0204 31.1222C84.6306 31.1222 86.73 28.9597 86.73 26.2712C86.73 23.5827 84.6306 21.4202 82.0204 21.4202C79.4103 21.4202 77.3109 23.5827 77.3109 26.2712ZM85.0278 26.2712C85.0278 27.9661 83.666 29.3688 82.0204 29.3688C80.3749 29.3688 79.0415 27.9953 79.0415 26.2712C79.0415 24.5763 80.3749 23.1736 82.0204 23.1736C83.6943 23.1736 85.0278 24.547 85.0278 26.2712ZM92.461 24.0503C92.461 22.5891 91.3261 21.4202 89.9076 21.4202C89.8508 21.4202 89.7941 21.4202 89.709 21.4494H88.0918V31.1222H89.8792C91.6098 31.1222 93 29.6902 93 27.9077C93 26.9725 92.6028 26.1251 91.9787 25.5406C92.2907 25.1023 92.461 24.6055 92.461 24.0503ZM89.7941 22.969C90.5317 22.969 90.8438 23.4074 90.8438 23.9334C90.8438 24.2548 90.702 24.5178 90.475 24.6932C90.4182 24.7516 90.3615 24.7808 90.3048 24.8101C90.1913 24.8685 89.9643 24.9269 89.7941 24.9269V22.969ZM89.7941 29.3396V26.4173C90.9573 26.4173 91.2977 27.294 91.2977 27.8784C91.2977 28.6967 90.7303 29.3396 89.7941 29.3396ZM0.340452 3.65283H93V0H0.340452V3.65283ZM0.0567419 100H93V96.3179H0.0567419V100ZM93 17.0076H0.0567419V20.6604H93V17.0076ZM0.0567419 74.3425H93V31.8527H0.0567419V74.3425Z" fill="#7E7E7E"/>
</g>
<defs>
<clipPath id="clip0_3040_202">
<rect width="93" height="100" fill="white"/>
</clipPath>
</defs>
</svg>
