<svg width="100" height="100" viewBox="0 0 100 100" fill="none" xmlns="http://www.w3.org/2000/svg">
<g clip-path="url(#clip0_3040_205)">
<path d="M93.6643 17.6471H6.60547V20H93.6643V17.6471Z" fill="#BE1717"/>
<path d="M97.1958 9.41187H3.07812V15.2942H97.1958V9.41187Z" fill="#BE1717"/>
<path d="M100.727 4.70593H-0.449219V8.23534H100.727V4.70593Z" fill="#BE1717"/>
<path d="M100.536 0H-0.640625V3.52941H100.536V0Z" fill="#BE1717"/>
<path d="M89.4296 21.1765H11.0749V97.3777H8.49609V100H92.0255V97.3777H89.4467V21.1765H89.4296ZM66.6986 58.026C66.6986 52.49 71.2414 47.9823 76.8089 47.9823C82.3763 47.9823 86.9191 52.49 86.9191 58.026V95.6981H84.4086V58.026C84.4086 53.8783 81.0101 50.4847 76.8089 50.4847C72.6247 50.4847 69.2091 53.8611 69.2091 58.026V95.6981H66.6986V58.026ZM44.1895 28.8206H57.4763V38.4186H44.1895V28.8206ZM40.142 58.026C40.142 52.49 44.6848 47.9823 50.2523 47.9823C55.8198 47.9823 60.3626 52.49 60.3626 58.026V95.6981H57.8521V58.026C57.8521 53.8783 54.4535 50.4847 50.2523 50.4847C46.051 50.4847 42.6525 53.8611 42.6525 58.026V95.6981H40.142V58.026ZM13.5854 58.026C13.5854 52.49 18.1282 47.9823 23.6957 47.9823C29.2632 47.9823 33.806 52.49 33.806 58.026V95.6981H31.2955V58.026C31.2955 53.8783 27.8969 50.4847 23.6957 50.4847C19.4944 50.4847 16.0959 53.8783 16.0959 58.026V95.6981H13.5854V58.026Z" fill="#BE1717"/>
</g>
<defs>
<clipPath id="clip0_3040_205">
<rect width="100" height="100" fill="white"/>
</clipPath>
</defs>
</svg>
