<?xml version="1.0" encoding="UTF-8"?>
<svg id="Layer_2" data-name="Layer 2" xmlns="http://www.w3.org/2000/svg" viewBox="0 0 567.44 179.06">
  <defs>
    <style>
      .cls-1 {
        fill: #231f20;
      }

      .cls-2 {
        fill: #f7941d;
      }
    </style>
  </defs>
  <g id="Layer_1-2" data-name="Layer 1">
    <g>
      <g>
        <path class="cls-2" d="M87.66,54.79c-18.16,0-32.87,14.72-32.87,32.87s14.72,32.87,32.87,32.87,32.87-14.72,32.87-32.87-14.72-32.87-32.87-32.87ZM87.66,104.1c-9.08,0-16.44-7.36-16.44-16.44s7.36-16.44,16.44-16.44,16.44,7.36,16.44,16.44-7.36,16.44-16.44,16.44Z"/>
        <polygon class="cls-1" points="0 0 0 65.75 21.92 65.75 21.92 21.92 65.75 21.92 65.75 0 0 0"/>
        <polygon class="cls-1" points="21.92 153.41 21.92 109.58 0 109.58 0 175.33 65.75 175.33 65.75 153.41 21.92 153.41"/>
        <polygon class="cls-1" points="153.41 109.58 153.41 153.41 109.58 153.41 109.58 175.33 175.33 175.33 175.33 109.58 153.41 109.58"/>
        <polygon class="cls-2" points="120.54 0 105.47 21.92 153.41 21.92 153.41 69.86 175.33 54.79 175.33 0 120.54 0"/>
      </g>
      <g>
        <path class="cls-1" d="M316.29,151.81h-.37c-.56.71-1.51,1.16-2.82,1.16-2.2,0-3.44-1.48-3.44-3.12,0-1.51,1.03-3.19,3.77-3.19h2.8v-.28c0-1.05-.62-1.74-2-1.74-1.21,0-1.83.47-1.91,1.16h-2.09c.09-1.76,1.68-2.82,3.92-2.82,2.47,0,4.11,1.08,4.11,3.44v6.31h-1.98v-.91ZM316.24,148.94v-.71h-2.43c-1.33,0-2.02.56-2.02,1.53s.71,1.49,1.92,1.49c1.42,0,2.52-1.03,2.52-2.32Z"/>
        <path class="cls-1" d="M321.22,143.22h7.42v1.79h-5.31v7.71h-2.11v-9.51Z"/>
        <path class="cls-1" d="M339.32,148.15h-7.02c.06,1.94.95,3.03,2.67,3.03,1.14,0,1.81-.45,2.07-1.2h2.15c-.35,1.74-1.77,2.99-4.24,2.99-2.99,0-4.75-2.09-4.75-5.06s1.77-4.93,4.69-4.93,4.43,2,4.43,4.46v.71ZM332.39,146.58h4.76c-.13-1.06-.9-1.92-2.28-1.92-1.47,0-2.24.84-2.48,1.92Z"/>
        <path class="cls-1" d="M348.53,152.73v-3.98h-4.6v3.98h-2.11v-9.51h2.11v3.73h4.6v-3.73h2.11v9.51h-2.11Z"/>
        <path class="cls-1" d="M352.77,143.22h8.52v1.79h-3.19v7.71h-2.11v-7.71h-3.21v-1.79Z"/>
        <path class="cls-1" d="M371.73,149.68c-.3,1.96-1.89,3.29-4.18,3.29-2.95,0-4.71-2.07-4.71-5.01s1.76-4.99,4.71-4.99c2.32,0,3.83,1.29,4.11,3.14h-2.09c-.26-.82-.9-1.34-2-1.34-1.89,0-2.61,1.47-2.61,3.17s.75,3.23,2.61,3.23c1.18,0,1.87-.56,2.07-1.49h2.09Z"/>
        <path class="cls-1" d="M373.41,143.22h8.52v1.79h-3.19v7.71h-2.11v-7.71h-3.21v-1.79Z"/>
        <path class="cls-1" d="M392.67,150.11c0,1.72-1.21,2.61-3.36,2.61h-5.25v-9.51h5.29c1.92,0,3.01.91,3.01,2.41,0,.93-.54,1.63-1.08,1.89v.35c.88.35,1.4,1.2,1.4,2.24ZM386.13,147.03h2.76c.99,0,1.34-.5,1.34-1.1s-.35-1.1-1.34-1.1h-2.76v2.2ZM390.54,149.89c0-.71-.41-1.25-1.63-1.25h-2.78v2.48h2.78c1.21,0,1.63-.52,1.63-1.23Z"/>
        <path class="cls-1" d="M404.21,147.96c0,2.91-1.81,5.01-4.8,5.01s-4.8-2.09-4.8-5.01,1.81-4.99,4.8-4.99,4.8,2.09,4.8,4.99ZM402.1,147.96c0-1.66-.84-3.19-2.69-3.19s-2.69,1.53-2.69,3.19.84,3.21,2.69,3.21,2.69-1.51,2.69-3.21Z"/>
        <path class="cls-1" d="M318.7,172.28c-.3,1.96-1.89,3.29-4.18,3.29-2.95,0-4.71-2.07-4.71-5.01s1.76-4.99,4.71-4.99c2.32,0,3.83,1.29,4.11,3.14h-2.09c-.26-.82-.9-1.34-2-1.34-1.89,0-2.61,1.47-2.61,3.17s.75,3.23,2.61,3.23c1.18,0,1.87-.56,2.07-1.49h2.09Z"/>
        <path class="cls-1" d="M320.38,165.82h8.52v1.79h-3.19v7.71h-2.11v-7.71h-3.21v-1.79Z"/>
        <path class="cls-1" d="M333.51,174.39h-.37v4.67h-2.11v-13.24h2.05v.93h.37c.52-.65,1.35-1.18,2.75-1.18,2.61,0,4.22,2.13,4.22,5.01s-1.62,4.99-4.22,4.99c-1.38,0-2.18-.5-2.69-1.18ZM333.08,170.58c0,1.66.79,3.19,2.63,3.19,1.74,0,2.6-1.36,2.6-3.19s-.86-3.21-2.6-3.21c-1.85,0-2.63,1.53-2.63,3.21Z"/>
        <path class="cls-1" d="M348.95,174.41h-.37c-.56.71-1.51,1.16-2.82,1.16-2.2,0-3.44-1.48-3.44-3.12,0-1.51,1.03-3.19,3.77-3.19h2.8v-.28c0-1.05-.62-1.74-2-1.74-1.21,0-1.83.47-1.91,1.16h-2.09c.09-1.76,1.68-2.82,3.92-2.82,2.47,0,4.11,1.08,4.11,3.44v6.31h-1.98v-.91ZM348.89,171.54v-.71h-2.43c-1.33,0-2.02.56-2.02,1.53s.71,1.49,1.92,1.49c1.42,0,2.52-1.03,2.52-2.32Z"/>
        <path class="cls-1" d="M352.92,165.82h8.52v1.79h-3.19v7.71h-2.11v-7.71h-3.21v-1.79Z"/>
        <path class="cls-1" d="M372.12,170.75h-7.02c.06,1.94.95,3.03,2.67,3.03,1.14,0,1.81-.45,2.07-1.2h2.15c-.35,1.74-1.77,2.99-4.24,2.99-2.99,0-4.75-2.09-4.75-5.06s1.77-4.93,4.69-4.93,4.43,2,4.43,4.46v.71ZM365.19,169.18h4.76c-.13-1.06-.9-1.92-2.28-1.92-1.47,0-2.24.84-2.48,1.92Z"/>
        <path class="cls-1" d="M374.63,165.82h7.42v1.79h-5.31v7.71h-2.11v-9.51Z"/>
        <path class="cls-1" d="M384.17,175.33v-9.51h2.05v6.24h.37l4-6.24h2.43v9.51h-2.05v-6.24h-.37l-4.05,6.24h-2.37Z"/>
        <path class="cls-1" d="M397.59,165.82v2.75c0,.8.08,1.64,2.09,1.64.78,0,1.46-.09,2.07-.22v-4.17h2.13v9.51h-2.13v-3.59c-.79.17-1.87.26-2.67.26-3.32,0-3.61-1.61-3.61-3.16v-3.03h2.11Z"/>
        <path class="cls-1" d="M415.52,170.75h-7.02c.06,1.94.95,3.03,2.67,3.03,1.14,0,1.81-.45,2.07-1.2h2.15c-.35,1.74-1.78,2.99-4.24,2.99-2.99,0-4.74-2.09-4.74-5.06s1.77-4.93,4.69-4.93,4.43,2,4.43,4.46v.71ZM408.58,169.18h4.76c-.13-1.06-.9-1.92-2.28-1.92-1.48,0-2.24.84-2.49,1.92Z"/>
        <path class="cls-1" d="M426.42,172.28c-.3,1.96-1.89,3.29-4.18,3.29-2.95,0-4.71-2.07-4.71-5.01s1.76-4.99,4.71-4.99c2.32,0,3.83,1.29,4.11,3.14h-2.09c-.26-.82-.9-1.34-2-1.34-1.89,0-2.61,1.47-2.61,3.17s.75,3.23,2.61,3.23c1.18,0,1.87-.56,2.07-1.49h2.09Z"/>
        <path class="cls-1" d="M433.11,171.35h-2.17v3.98h-2.11v-9.51h2.11v3.73h2.2l2.17-3.73h2.19l-2.65,4.58,2.78,4.93h-2.24l-2.28-3.98Z"/>
        <path class="cls-1" d="M448.58,170.57c0,2.91-1.81,5.01-4.8,5.01s-4.8-2.09-4.8-5.01,1.81-4.99,4.8-4.99,4.8,2.09,4.8,4.99ZM446.47,170.57c0-1.66-.84-3.19-2.69-3.19s-2.69,1.53-2.69,3.19.84,3.21,2.69,3.21,2.69-1.51,2.69-3.21Z"/>
        <path class="cls-1" d="M451.09,165.82h7.42v1.79h-5.31v7.71h-2.11v-9.51Z"/>
        <path class="cls-1" d="M469.65,170.57c0,2.91-1.81,5.01-4.8,5.01s-4.8-2.09-4.8-5.01,1.81-4.99,4.8-4.99,4.8,2.09,4.8,4.99ZM467.54,170.57c0-1.66-.84-3.19-2.69-3.19s-2.69,1.53-2.69,3.19.84,3.21,2.69,3.21,2.69-1.51,2.69-3.21Z"/>
        <path class="cls-1" d="M480.06,174.39h-.37v4.67h-2.11v-13.24h2.05v.93h.37c.52-.65,1.35-1.18,2.75-1.18,2.61,0,4.22,2.13,4.22,5.01s-1.62,4.99-4.22,4.99c-1.38,0-2.19-.5-2.69-1.18ZM479.63,170.58c0,1.66.78,3.19,2.63,3.19,1.74,0,2.6-1.36,2.6-3.19s-.86-3.21-2.6-3.21c-1.85,0-2.63,1.53-2.63,3.21Z"/>
        <path class="cls-1" d="M495.5,174.41h-.37c-.56.71-1.51,1.16-2.82,1.16-2.2,0-3.44-1.48-3.44-3.12,0-1.51,1.03-3.19,3.77-3.19h2.8v-.28c0-1.05-.62-1.74-2-1.74-1.21,0-1.83.47-1.91,1.16h-2.09c.09-1.76,1.68-2.82,3.92-2.82,2.47,0,4.11,1.08,4.11,3.44v6.31h-1.98v-.91ZM495.44,171.54v-.71h-2.43c-1.33,0-2.02.56-2.02,1.53s.71,1.49,1.92,1.49c1.42,0,2.52-1.03,2.52-2.32Z"/>
        <path class="cls-1" d="M503.97,167.37c-1.2,0-1.85.37-2.04,1.21h-1.96c.19-1.96,1.83-3.01,4.11-3.01,2.45,0,3.83,1.21,3.83,2.71,0,1.08-.49,1.68-.99,1.89v.37c.69.21,1.29.84,1.29,2.07,0,1.64-1.53,2.95-4.11,2.95-2.78,0-4.24-1.2-4.48-3.08h1.98c.3,1.01,1.27,1.29,2.43,1.29,1.23,0,2.07-.39,2.07-1.25,0-.77-.49-1.18-1.79-1.18h-1.62v-1.72h1.53c1.14,0,1.61-.45,1.61-1.12,0-.77-.75-1.14-1.85-1.14Z"/>
        <path class="cls-1" d="M519.4,172.71c0,1.72-1.21,2.61-3.36,2.61h-5.25v-9.51h5.29c1.92,0,3.01.91,3.01,2.41,0,.93-.54,1.63-1.08,1.89v.35c.88.35,1.4,1.2,1.4,2.24ZM512.86,169.63h2.76c.99,0,1.35-.5,1.35-1.1s-.35-1.1-1.35-1.1h-2.76v2.2ZM517.27,172.49c0-.71-.41-1.25-1.62-1.25h-2.78v2.48h2.78c1.21,0,1.62-.52,1.62-1.23Z"/>
        <path class="cls-1" d="M521.94,175.33v-9.51h2.05v6.24h.37l4-6.24h2.43v9.51h-2.05v-6.24h-.37l-4.05,6.24h-2.37Z"/>
        <path class="cls-1" d="M532.93,165.82h8.52v1.79h-3.19v7.71h-2.11v-7.71h-3.21v-1.79Z"/>
        <path class="cls-1" d="M543.57,175.33v-9.51h2.05v6.24h.37l4-6.24h2.43v9.51h-2.05v-6.24h-.37l-4.05,6.24h-2.37Z"/>
        <path class="cls-1" d="M561.38,171.87h-2.5l-1.7,3.46h-2.17l1.85-3.77c-1.14-.43-1.76-1.36-1.76-2.67,0-1.89,1.29-3.06,3.61-3.06h4.78v9.51h-2.11v-3.46ZM561.38,167.54h-2.48c-1.29,0-1.7.5-1.7,1.35s.41,1.35,1.7,1.35h2.48v-2.69Z"/>
      </g>
      <g>
        <polygon class="cls-1" points="417.23 56.16 417.23 83.01 389.47 83.01 389.47 56.16 375.59 56.16 375.59 119.17 389.47 119.17 389.47 94.79 388.1 94.79 388.1 93.42 417.23 93.42 417.23 119.17 431.11 119.17 431.11 56.16 417.23 56.16"/>
        <polygon class="cls-1" points="285.64 108.21 285.64 106.84 287.01 106.84 287.01 56.16 273.13 56.16 273.13 108.21 245.37 108.21 245.37 56.16 231.49 56.16 231.49 119.17 282.99 119.17 282.99 130.13 293.95 130.13 293.95 108.21 285.64 108.21"/>
        <polygon class="cls-1" points="441.7 56.16 441.7 66.57 465.08 66.57 465.08 119.17 478.96 119.17 478.96 67.94 477.59 67.94 477.59 66.57 502.33 66.57 502.33 56.16 441.7 56.16"/>
        <polygon class="cls-1" points="324.08 108.21 324.08 94.79 322.71 94.79 322.71 93.42 351.84 93.42 351.84 83.01 324.08 83.01 324.08 67.94 322.71 67.94 322.71 66.57 359.88 66.57 359.88 56.16 310.2 56.16 310.2 56.16 310.2 119.17 361.71 119.17 361.71 108.21 324.08 108.21"/>
        <path class="cls-1" d="M546.21,56.16h-33.29v63.01h13.88v-19.18h-1.37v-1.37h20.77c11.73,0,21.23-9.51,21.23-21.23s-9.51-21.23-21.23-21.23ZM544.57,88.21h-17.76v-20.27h-1.37v-1.37h19.13c5.98,0,10.82,4.84,10.82,10.82s-4.84,10.82-10.82,10.82Z"/>
      </g>
    </g>
  </g>
</svg>