<?xml version="1.0" encoding="utf-8"?>
<!-- Generator: Adobe Illustrator 24.0.1, SVG Export Plug-In . SVG Version: 6.00 Build 0)  -->
<svg version="1.1" id="Layer_2" xmlns="http://www.w3.org/2000/svg" xmlns:xlink="http://www.w3.org/1999/xlink" x="0px" y="0px"
	 viewBox="0 0 642.6 179.1" style="enable-background:new 0 0 642.6 179.1;" xml:space="preserve">
<style type="text/css">
	.st0{fill:#F7941D;}
	.st1{fill:#231F20;}
</style>
<g id="Layer_1-2">
	<g>
		<g>
			<path class="st0" d="M141.1,57.6c-16.7,0-30.2,13.5-30.2,30.2s13.5,30.2,30.2,30.2s30.2-13.5,30.2-30.2S157.7,57.6,141.1,57.6z
				 M141.1,102.9c-8.3,0-15.1-6.8-15.1-15.1s6.8-15.1,15.1-15.1s15.1,6.8,15.1,15.1S149.4,102.9,141.1,102.9z"/>
			<polygon class="st1" points="60.5,7.2 60.5,67.7 80.6,67.7 80.6,27.4 120.9,27.4 120.9,7.2 			"/>
			<polygon class="st1" points="80.6,148.3 80.6,108 60.5,108 60.5,168.4 120.9,168.4 120.9,148.3 			"/>
			<polygon class="st1" points="201.5,108 201.5,148.3 161.2,148.3 161.2,168.4 221.7,168.4 221.7,108 			"/>
			<polygon class="st0" points="171.3,7.2 157.4,27.4 201.5,27.4 201.5,71.4 221.7,57.6 221.7,7.2 			"/>
		</g>
		<g>
			<path class="st1" d="M351.3,146.8H351c-0.5,0.7-1.4,1.1-2.6,1.1c-2,0-3.2-1.4-3.2-2.9c0-1.4,0.9-2.9,3.5-2.9h2.6v-0.3
				c0-1-0.6-1.6-1.8-1.6c-1.1,0-1.7,0.4-1.8,1.1h-1.9c0.1-1.6,1.5-2.6,3.6-2.6c2.3,0,3.8,1,3.8,3.2v5.8h-1.8L351.3,146.8
				L351.3,146.8z M351.2,144.2v-0.7H349c-1.2,0-1.9,0.5-1.9,1.4s0.7,1.4,1.8,1.4C350.2,146.3,351.2,145.3,351.2,144.2L351.2,144.2z"
				/>
			<path class="st1" d="M355.8,138.9h6.8v1.6h-4.9v7.1h-1.9V138.9L355.8,138.9z"/>
			<path class="st1" d="M372.4,143.4h-6.5c0.1,1.8,0.9,2.8,2.5,2.8c1,0,1.7-0.4,1.9-1.1h2c-0.3,1.6-1.6,2.7-3.9,2.7
				c-2.7,0-4.4-1.9-4.4-4.7s1.6-4.5,4.3-4.5c2.7,0,4.1,1.8,4.1,4.1V143.4L372.4,143.4z M366.1,142h4.4c-0.1-1-0.8-1.8-2.1-1.8
				C367,140.2,366.3,141,366.1,142z"/>
			<path class="st1" d="M380.9,147.6V144h-4.2v3.7h-1.9V139h1.9v3.4h4.2V139h1.9v8.7L380.9,147.6L380.9,147.6z"/>
			<path class="st1" d="M384.8,138.9h7.8v1.6h-2.9v7.1h-1.9v-7.1h-3V138.9L384.8,138.9z"/>
			<path class="st1" d="M402.2,144.8c-0.3,1.8-1.7,3-3.8,3c-2.7,0-4.3-1.9-4.3-4.6c0-2.7,1.6-4.6,4.3-4.6c2.1,0,3.5,1.2,3.8,2.9
				h-1.9c-0.2-0.8-0.8-1.2-1.8-1.2c-1.7,0-2.4,1.4-2.4,2.9c0,1.6,0.7,3,2.4,3c1.1,0,1.7-0.5,1.9-1.4L402.2,144.8L402.2,144.8z"/>
			<path class="st1" d="M403.8,138.9h7.8v1.6h-2.9v7.1h-1.9v-7.1h-3V138.9L403.8,138.9z"/>
			<path class="st1" d="M421.5,145.2c0,1.6-1.1,2.4-3.1,2.4h-4.8v-8.7h4.9c1.8,0,2.8,0.8,2.8,2.2c0,0.9-0.5,1.5-1,1.7v0.3
				C421,143.5,421.5,144.3,421.5,145.2L421.5,145.2z M415.5,142.4h2.5c0.9,0,1.2-0.5,1.2-1s-0.3-1-1.2-1h-2.5V142.4L415.5,142.4z
				 M419.5,145c0-0.7-0.4-1.1-1.5-1.1h-2.6v2.3h2.6C419.1,146.2,419.5,145.7,419.5,145z"/>
			<path class="st1" d="M432.1,143.3c0,2.7-1.7,4.6-4.4,4.6c-2.7,0-4.4-1.9-4.4-4.6s1.7-4.6,4.4-4.6S432.1,140.6,432.1,143.3z
				 M430.2,143.3c0-1.5-0.8-2.9-2.5-2.9s-2.5,1.4-2.5,2.9s0.8,3,2.5,3C429.4,146.2,430.2,144.8,430.2,143.3z"/>
			<path class="st1" d="M353.5,165.6c-0.3,1.8-1.7,3-3.8,3c-2.7,0-4.3-1.9-4.3-4.6c0-2.7,1.6-4.6,4.3-4.6c2.1,0,3.5,1.2,3.8,2.9
				h-1.9c-0.2-0.8-0.8-1.2-1.8-1.2c-1.7,0-2.4,1.4-2.4,2.9s0.7,3,2.4,3c1.1,0,1.7-0.5,1.9-1.4L353.5,165.6L353.5,165.6z"/>
			<path class="st1" d="M355,159.7h7.8v1.6h-2.9v7.1H358v-7.1h-3V159.7L355,159.7z"/>
			<path class="st1" d="M367.1,167.6h-0.3v4.3h-1.9v-12.2h1.9v0.9h0.3c0.5-0.6,1.2-1.1,2.5-1.1c2.4,0,3.9,2,3.9,4.6
				s-1.5,4.6-3.9,4.6C368.3,168.6,367.6,168.2,367.1,167.6z M366.7,164c0,1.5,0.7,2.9,2.4,2.9c1.6,0,2.4-1.3,2.4-2.9s-0.8-3-2.4-3
				C367.4,161.1,366.7,162.5,366.7,164z"/>
			<path class="st1" d="M381.3,167.6H381c-0.5,0.7-1.4,1.1-2.6,1.1c-2,0-3.2-1.4-3.2-2.9c0-1.4,0.9-2.9,3.5-2.9h2.6v-0.3
				c0-1-0.6-1.6-1.8-1.6c-1.1,0-1.7,0.4-1.8,1.1h-1.9c0.1-1.6,1.5-2.6,3.6-2.6c2.3,0,3.8,1,3.8,3.2v5.8h-1.8L381.3,167.6
				L381.3,167.6z M381.2,164.9v-0.7H379c-1.2,0-1.9,0.5-1.9,1.4s0.7,1.4,1.8,1.4C380.2,167.1,381.2,166.1,381.2,164.9L381.2,164.9z"
				/>
			<path class="st1" d="M384.9,159.7h7.8v1.6h-2.9v7.1h-1.9v-7.1h-3V159.7L384.9,159.7z"/>
			<path class="st1" d="M402.6,164.2h-6.5c0.1,1.8,0.9,2.8,2.5,2.8c1,0,1.7-0.4,1.9-1.1h2c-0.3,1.6-1.6,2.7-3.9,2.7
				c-2.7,0-4.4-1.9-4.4-4.7c0-2.7,1.6-4.5,4.3-4.5c2.7,0,4.1,1.8,4.1,4.1V164.2L402.6,164.2z M396.2,162.8h4.4
				c-0.1-1-0.8-1.8-2.1-1.8C397.2,161,396.4,161.8,396.2,162.8z"/>
			<path class="st1" d="M404.9,159.7h6.8v1.6h-4.9v7.1h-1.9V159.7L404.9,159.7z"/>
			<path class="st1" d="M413.7,168.4v-8.7h1.9v5.7h0.3l3.7-5.7h2.2v8.7h-1.9v-5.7h-0.3l-3.7,5.7H413.7L413.7,168.4z"/>
			<path class="st1" d="M426,159.7v2.5c0,0.7,0.1,1.5,1.9,1.5c0.7,0,1.3-0.1,1.9-0.2v-3.8h2v8.7h-2v-3.3c-0.7,0.2-1.7,0.2-2.5,0.2
				c-3.1,0-3.3-1.5-3.3-2.9v-2.8L426,159.7L426,159.7z"/>
			<path class="st1" d="M442.5,164.2H436c0.1,1.8,0.9,2.8,2.5,2.8c1,0,1.7-0.4,1.9-1.1h2c-0.3,1.6-1.6,2.7-3.9,2.7
				c-2.7,0-4.4-1.9-4.4-4.7c0-2.7,1.6-4.5,4.3-4.5s4.1,1.8,4.1,4.1V164.2L442.5,164.2z M436.1,162.8h4.4c-0.1-1-0.8-1.8-2.1-1.8
				C437,161,436.3,161.8,436.1,162.8L436.1,162.8z"/>
			<path class="st1" d="M452.5,165.6c-0.3,1.8-1.7,3-3.8,3c-2.7,0-4.3-1.9-4.3-4.6c0-2.7,1.6-4.6,4.3-4.6c2.1,0,3.5,1.2,3.8,2.9
				h-1.9c-0.2-0.8-0.8-1.2-1.8-1.2c-1.7,0-2.4,1.4-2.4,2.9s0.7,3,2.4,3c1.1,0,1.7-0.5,1.9-1.4L452.5,165.6L452.5,165.6z"/>
			<path class="st1" d="M458.7,164.8h-2v3.7h-1.9v-8.7h1.9v3.4h2l2-3.4h2l-2.4,4.2l2.6,4.5h-2.1L458.7,164.8L458.7,164.8z"/>
			<path class="st1" d="M472.9,164c0,2.7-1.7,4.6-4.4,4.6c-2.7,0-4.4-1.9-4.4-4.6s1.7-4.6,4.4-4.6
				C471.2,159.5,472.9,161.4,472.9,164z M471,164c0-1.5-0.8-2.9-2.5-2.9s-2.5,1.4-2.5,2.9s0.8,3,2.5,3S471,165.6,471,164z"/>
			<path class="st1" d="M475.2,159.7h6.8v1.6h-4.9v7.1h-1.9V159.7L475.2,159.7z"/>
			<path class="st1" d="M492.3,164c0,2.7-1.7,4.6-4.4,4.6c-2.7,0-4.4-1.9-4.4-4.6s1.7-4.6,4.4-4.6
				C490.6,159.5,492.3,161.4,492.3,164z M490.3,164c0-1.5-0.8-2.9-2.5-2.9s-2.5,1.4-2.5,2.9s0.8,3,2.5,3
				C489.6,167,490.3,165.6,490.3,164z"/>
			<path class="st1" d="M501.8,167.6h-0.3v4.3h-1.9v-12.2h1.9v0.9h0.3c0.5-0.6,1.2-1.1,2.5-1.1c2.4,0,3.9,2,3.9,4.6
				s-1.5,4.6-3.9,4.6C503,168.6,502.3,168.2,501.8,167.6z M501.4,164c0,1.5,0.7,2.9,2.4,2.9c1.6,0,2.4-1.3,2.4-2.9s-0.8-3-2.4-3
				C502.2,161.1,501.4,162.5,501.4,164z"/>
			<path class="st1" d="M516,167.6h-0.3c-0.5,0.7-1.4,1.1-2.6,1.1c-2,0-3.2-1.4-3.2-2.9c0-1.4,0.9-2.9,3.5-2.9h2.6v-0.3
				c0-1-0.6-1.6-1.8-1.6c-1.1,0-1.7,0.4-1.8,1.1h-1.9c0.1-1.6,1.5-2.6,3.6-2.6c2.3,0,3.8,1,3.8,3.2v5.8h-1.8L516,167.6L516,167.6z
				 M516,164.9v-0.7h-2.2c-1.2,0-1.9,0.5-1.9,1.4s0.7,1.4,1.8,1.4C515,167.1,516,166.1,516,164.9L516,164.9z"/>
			<path class="st1" d="M523.8,161.1c-1.1,0-1.7,0.3-1.9,1.1h-1.8c0.2-1.8,1.7-2.8,3.8-2.8c2.3,0,3.5,1.1,3.5,2.5
				c0,1-0.5,1.5-0.9,1.7v0.3c0.6,0.2,1.2,0.8,1.2,1.9c0,1.5-1.4,2.7-3.8,2.7c-2.6,0-3.9-1.1-4.1-2.8h1.8c0.3,0.9,1.2,1.2,2.2,1.2
				c1.1,0,1.9-0.4,1.9-1.1c0-0.7-0.5-1.1-1.6-1.1h-1.5v-1.6h1.4c1,0,1.5-0.4,1.5-1C525.5,161.4,524.8,161.1,523.8,161.1L523.8,161.1
				z"/>
			<path class="st1" d="M538,166c0,1.6-1.1,2.4-3.1,2.4h-4.8v-8.7h4.9c1.8,0,2.8,0.8,2.8,2.2c0,0.9-0.5,1.5-1,1.7v0.3
				C537.5,164.3,538,165,538,166L538,166z M532,163.2h2.5c0.9,0,1.2-0.5,1.2-1s-0.3-1-1.2-1H532V163.2L532,163.2z M536.1,165.8
				c0-0.7-0.4-1.1-1.5-1.1H532v2.3h2.6C535.7,166.9,536.1,166.5,536.1,165.8z"/>
			<path class="st1" d="M540.3,168.4v-8.7h1.9v5.7h0.3l3.7-5.7h2.2v8.7h-1.8v-5.7h-0.3l-3.7,5.7H540.3L540.3,168.4z"/>
			<path class="st1" d="M550.4,159.7h7.8v1.6h-2.9v7.1h-1.9v-7.1h-3L550.4,159.7L550.4,159.7z"/>
			<path class="st1" d="M560.2,168.4v-8.7h1.9v5.7h0.3l3.7-5.7h2.2v8.7h-1.9v-5.7h-0.3l-3.7,5.7H560.2L560.2,168.4z"/>
			<path class="st1" d="M576.6,165.2h-2.3l-1.6,3.2h-2l1.7-3.5c-1-0.4-1.6-1.3-1.6-2.5c0-1.7,1.2-2.8,3.3-2.8h4.4v8.7h-1.9V165.2
				L576.6,165.2z M576.6,161.3h-2.3c-1.2,0-1.6,0.5-1.6,1.2c0,0.8,0.4,1.2,1.6,1.2h2.3V161.3L576.6,161.3z"/>
		</g>
		<g>
			<polygon class="st1" points="444.1,58.8 444.1,83.5 418.5,83.5 418.5,58.8 405.8,58.8 405.8,116.8 418.5,116.8 418.5,94.4 
				417.3,94.4 417.3,93.1 444.1,93.1 444.1,116.8 456.8,116.8 456.8,58.8 			"/>
			<polygon class="st1" points="323.1,106.7 323.1,105.4 324.3,105.4 324.3,58.8 311.6,58.8 311.6,106.7 286.1,106.7 286.1,58.8 
				273.3,58.8 273.3,116.8 320.6,116.8 320.6,126.9 330.7,126.9 330.7,106.7 			"/>
			<polygon class="st1" points="466.6,58.8 466.6,68.4 488.1,68.4 488.1,116.8 500.8,116.8 500.8,69.7 499.6,69.7 499.6,68.4 
				522.3,68.4 522.3,58.8 			"/>
			<polygon class="st1" points="358.4,106.7 358.4,94.4 357.2,94.4 357.2,93.1 384,93.1 384,83.5 358.4,83.5 358.4,69.7 357.2,69.7 
				357.2,68.4 391.3,68.4 391.3,58.8 345.7,58.8 345.7,58.8 345.7,116.8 393,116.8 393,106.7 			"/>
			<path class="st1" d="M562.7,58.8h-30.6v57.9h12.8V99.1h-1.3v-1.3h19.1c10.8,0,19.5-8.7,19.5-19.5S573.4,58.8,562.7,58.8
				L562.7,58.8z M561.2,88.3h-16.3V69.7h-1.3v-1.3h17.6c5.5,0,9.9,4.5,9.9,9.9C571.1,83.9,566.7,88.3,561.2,88.3z"/>
		</g>
	</g>
</g>
</svg>
