<?xml version="1.0" encoding="utf-8"?>
<!-- Generator: Adobe Illustrator 24.0.1, SVG Export Plug-In . SVG Version: 6.00 Build 0)  -->
<svg version="1.1" id="Layer_2" xmlns="http://www.w3.org/2000/svg" xmlns:xlink="http://www.w3.org/1999/xlink" x="0px" y="0px"
	 viewBox="0 0 813 180.1" style="enable-background:new 0 0 813 180.1;" xml:space="preserve">
<style type="text/css">
	.st0{fill:#4495D1;}
	.st1{fill:#231F20;}
</style>
<g id="Layer_1-2">
	<g>
		<g>
			<path class="st0" d="M170.8,58.1c-16.7,0-30.2,13.5-30.2,30.2s13.5,30.2,30.2,30.2S201,105,201,88.3S187.5,58.1,170.8,58.1z
				 M170.8,103.5c-8.3,0-15.1-6.8-15.1-15.1s6.8-15.1,15.1-15.1c8.3,0,15.1,6.8,15.1,15.1S179.1,103.5,170.8,103.5z"/>
			<polygon class="st1" points="90.1,7.7 90.1,68.2 110.3,68.2 110.3,27.9 150.6,27.9 150.6,7.7 			"/>
			<polygon class="st1" points="110.3,148.8 110.3,108.5 90.1,108.5 90.1,168.9 150.6,168.9 150.6,148.8 			"/>
			<polygon class="st1" points="231.2,108.5 231.2,148.8 190.9,148.8 190.9,168.9 251.4,168.9 251.4,108.5 			"/>
			<polygon class="st0" points="201,7.7 187.1,27.9 231.2,27.9 231.2,72 251.4,58.1 251.4,7.7 			"/>
		</g>
		<g>
			<path class="st1" d="M375.5,139.4h2.7l2.1,4.1h0.3l2.1-4.1h2.7v8.7h-1.9v-6.3h-0.3l-1.8,3.5h-1.8l-1.8-3.5h-0.3v6.3h-1.9
				L375.5,139.4L375.5,139.4z"/>
			<path class="st1" d="M396.1,144h-6.5c0.1,1.8,0.9,2.8,2.5,2.8c1.1,0,1.7-0.4,1.9-1.1h2c-0.3,1.6-1.6,2.8-3.9,2.8
				c-2.8,0-4.4-1.9-4.4-4.7s1.6-4.5,4.3-4.5s4.1,1.8,4.1,4.1L396.1,144L396.1,144z M389.7,142.5h4.4c-0.1-1-0.8-1.8-2.1-1.8
				C390.6,140.7,389.9,141.5,389.7,142.5z"/>
			<path class="st1" d="M399.4,148.2h-2l2.3-4.5l-2.2-4.2h2l1.8,3.5h1.7v-3.5h1.8v3.5h1.7l1.8-3.5h2l-2.2,4.2l2.3,4.5h-2l-1.9-3.6
				h-1.7v3.6H403v-3.6h-1.7L399.4,148.2L399.4,148.2z"/>
			<path class="st1" d="M422.6,146.5v4.1h-1.9v-2.5h-7v2.5h-1.9v-4.1h1.2c0.5-1.1,0.9-2.7,0.9-4.6v-2.5h7v7.1L422.6,146.5
				L422.6,146.5z M419.1,141.1h-3.2v0.8c0,2-0.4,3.5-0.8,4.6h4.1L419.1,141.1L419.1,141.1z"/>
			<path class="st1" d="M425.1,151.6l1.9-4.2l-3.7-8h2.1l2.4,5.2h0.4l2.2-5.2h2l-5.3,12.2H425.1z"/>
			<path class="st1" d="M440.4,148.2v-3.7h-4.2v3.7h-1.9v-8.7h1.9v3.4h4.2v-3.4h1.9v8.7H440.4z"/>
			<path class="st1" d="M450.6,147.3h-0.3c-0.5,0.6-1.4,1.1-2.6,1.1c-2,0-3.2-1.4-3.2-2.9c0-1.4,0.9-2.9,3.5-2.9h2.6v-0.3
				c0-1-0.6-1.6-1.8-1.6c-1.1,0-1.7,0.4-1.8,1.1h-1.9c0.1-1.6,1.5-2.6,3.6-2.6c2.3,0,3.8,1,3.8,3.2v5.8h-1.8V147.3L450.6,147.3z
				 M450.6,144.7V144h-2.2c-1.2,0-1.9,0.5-1.9,1.4s0.6,1.4,1.8,1.4C449.6,146.8,450.6,145.9,450.6,144.7L450.6,144.7z"/>
			<path class="st1" d="M457.4,147.3h-0.3v4.3h-1.9v-12.2h1.9v0.9h0.3c0.5-0.6,1.2-1.1,2.5-1.1c2.4,0,3.9,2,3.9,4.6
				c0,2.7-1.5,4.6-3.9,4.6C458.6,148.4,457.9,147.9,457.4,147.3L457.4,147.3z M457,143.8c0,1.5,0.7,2.9,2.4,2.9
				c1.6,0,2.4-1.3,2.4-2.9c0-1.7-0.8-3-2.4-3C457.8,140.9,457,142.3,457,143.8z"/>
			<path class="st1" d="M474.5,143.8c0,2.7-1.7,4.6-4.4,4.6c-2.8,0-4.4-1.9-4.4-4.6c0-2.7,1.7-4.6,4.4-4.6
				C472.8,139.2,474.5,141.1,474.5,143.8z M472.6,143.8c0-1.5-0.8-2.9-2.5-2.9s-2.5,1.4-2.5,2.9c0,1.5,0.8,3,2.5,3
				S472.6,145.3,472.6,143.8z"/>
			<path class="st1" d="M486.5,146.5v4.1h-1.9v-2.5h-7v2.5h-1.9v-4.1h1.2c0.5-1.1,0.9-2.7,0.9-4.6v-2.5h7v7.1L486.5,146.5
				L486.5,146.5z M483,141.1h-3.2v0.8c0,2-0.4,3.5-0.8,4.6h4.1L483,141.1L483,141.1z"/>
			<path class="st1" d="M494.6,148.2v-3.7h-4.2v3.7h-1.9v-8.7h1.9v3.4h4.2v-3.4h1.9v8.7H494.6z"/>
			<path class="st1" d="M504.9,147.3h-0.3c-0.5,0.6-1.4,1.1-2.6,1.1c-2,0-3.2-1.4-3.2-2.9c0-1.4,0.9-2.9,3.5-2.9h2.6v-0.3
				c0-1-0.6-1.6-1.8-1.6c-1.1,0-1.7,0.4-1.8,1.1h-1.9c0.1-1.6,1.5-2.6,3.6-2.6c2.3,0,3.8,1,3.8,3.2v5.8h-1.8V147.3L504.9,147.3z
				 M504.8,144.7V144h-2.2c-1.2,0-1.9,0.5-1.9,1.4s0.6,1.4,1.8,1.4C503.8,146.8,504.8,145.9,504.8,144.7L504.8,144.7z"/>
			<path class="st1" d="M514.8,145h-2.3l-1.6,3.2h-2l1.7-3.5c-1.1-0.4-1.6-1.3-1.6-2.5c0-1.7,1.2-2.8,3.3-2.8h4.4v8.7h-1.9
				L514.8,145L514.8,145z M514.8,141h-2.3c-1.2,0-1.6,0.5-1.6,1.2s0.4,1.2,1.6,1.2h2.3V141L514.8,141z"/>
			<path class="st1" d="M376.4,172.4l1.9-4.2l-3.7-8h2.1l2.4,5.2h0.4l2.2-5.2h2l-5.3,12.2L376.4,172.4L376.4,172.4z"/>
			<path class="st1" d="M387.8,168.1h-0.3v4.3h-1.9v-12.2h1.9v0.9h0.3c0.5-0.6,1.2-1.1,2.5-1.1c2.4,0,3.9,2,3.9,4.6
				c0,2.7-1.5,4.6-3.9,4.6C389,169.2,388.2,168.7,387.8,168.1L387.8,168.1z M387.4,164.6c0,1.5,0.7,2.9,2.4,2.9
				c1.6,0,2.4-1.3,2.4-2.9c0-1.7-0.8-3-2.4-3C388.1,161.6,387.4,163,387.4,164.6z"/>
			<path class="st1" d="M404.9,164.8c0,2.6-1.7,4.4-4.4,4.4c-2.7,0-4.5-1.9-4.5-5.3c0-3,0.5-5.8,3.5-6.3c0.4-0.1,2.2-0.4,2.2-0.4
				c0.7-0.1,0.9-0.2,1-0.7h1.8c0,1-0.2,1.9-1.8,2.2c-0.4,0.1-2.2,0.3-2.7,0.4c-1.5,0.3-1.9,1.3-2.1,2.6h0.3c0.7-0.9,1.6-1.3,2.8-1.3
				C403.3,160.5,404.9,162.3,404.9,164.8L404.9,164.8z M403,164.8c0-1.4-0.8-2.7-2.5-2.7s-2.5,1.3-2.5,2.7c0,1.4,0.8,2.7,2.5,2.7
				S403,166.3,403,164.8z"/>
			<path class="st1" d="M412.7,168.1h-0.3c-0.5,0.6-1.4,1.1-2.6,1.1c-2,0-3.2-1.4-3.2-2.9c0-1.4,0.9-2.9,3.5-2.9h2.6v-0.3
				c0-1-0.6-1.6-1.8-1.6c-1.1,0-1.7,0.4-1.8,1.1h-1.9c0.1-1.6,1.5-2.6,3.6-2.6c2.3,0,3.8,1,3.8,3.2v5.8h-1.8L412.7,168.1
				L412.7,168.1z M412.7,165.5v-0.6h-2.2c-1.2,0-1.9,0.5-1.9,1.4c0,0.9,0.6,1.4,1.8,1.4C411.7,167.6,412.7,166.7,412.7,165.5
				L412.7,165.5z"/>
			<path class="st1" d="M423.4,168.9v-3.7h-4.2v3.7h-1.9v-8.7h1.9v3.4h4.2v-3.4h1.9v8.7H423.4z"/>
			<path class="st1" d="M428.2,168.9v-8.7h1.9v5.7h0.3l3.7-5.7h2.2v8.7h-1.9v-5.7h-0.3l-3.7,5.7H428.2L428.2,168.9z"/>
			<path class="st1" d="M446.8,166.1c-0.3,1.8-1.7,3-3.8,3c-2.7,0-4.3-1.9-4.3-4.6c0-2.7,1.6-4.6,4.3-4.6c2.1,0,3.5,1.2,3.8,2.9
				h-1.9c-0.2-0.8-0.8-1.2-1.8-1.2c-1.7,0-2.4,1.4-2.4,2.9c0,1.6,0.7,3,2.4,3c1.1,0,1.7-0.5,1.9-1.4H446.8z"/>
			<path class="st1" d="M448.3,160.2h7.8v1.6h-2.9v7.1h-1.9v-7.1h-3L448.3,160.2L448.3,160.2z"/>
			<path class="st1" d="M458.1,168.9v-8.7h1.9v5.7h0.3l3.7-5.7h2.2v8.7h-1.9v-5.7H464l-3.7,5.7H458.1L458.1,168.9z"/>
			<path class="st1" d="M470.5,160.2v2.5c0,0.7,0.1,1.5,1.9,1.5c0.7,0,1.3-0.1,1.9-0.2v-3.8h2v8.7h-2v-3.3c-0.7,0.2-1.7,0.2-2.5,0.2
				c-3.1,0-3.3-1.5-3.3-2.9v-2.8L470.5,160.2L470.5,160.2z"/>
			<path class="st1" d="M486.9,164.7h-6.5c0.1,1.8,0.9,2.8,2.5,2.8c1.1,0,1.7-0.4,1.9-1.1h2c-0.3,1.6-1.6,2.8-3.9,2.8
				c-2.8,0-4.4-1.9-4.4-4.7c0-2.7,1.6-4.5,4.3-4.5s4.1,1.8,4.1,4.1L486.9,164.7L486.9,164.7z M480.6,163.3h4.4
				c-0.1-1-0.8-1.8-2.1-1.8C481.5,161.5,480.8,162.3,480.6,163.3z"/>
			<path class="st1" d="M497,166.1c-0.3,1.8-1.7,3-3.8,3c-2.7,0-4.3-1.9-4.3-4.6c0-2.7,1.6-4.6,4.3-4.6c2.1,0,3.5,1.2,3.8,2.9H495
				c-0.2-0.8-0.8-1.2-1.8-1.2c-1.7,0-2.4,1.4-2.4,2.9c0,1.6,0.7,3,2.4,3c1.1,0,1.7-0.5,1.9-1.4H497z"/>
			<path class="st1" d="M503.1,165.3h-2v3.7h-1.9v-8.7h1.9v3.4h2l2-3.4h2l-2.4,4.2l2.6,4.5h-2.1L503.1,165.3L503.1,165.3z"/>
			<path class="st1" d="M514.6,168.1h-0.3c-0.5,0.6-1.4,1.1-2.6,1.1c-2,0-3.2-1.4-3.2-2.9c0-1.4,0.9-2.9,3.5-2.9h2.6v-0.3
				c0-1-0.6-1.6-1.8-1.6c-1.1,0-1.7,0.4-1.8,1.1h-1.9c0.1-1.6,1.5-2.6,3.6-2.6c2.3,0,3.8,1,3.8,3.2v5.8h-1.8V168.1L514.6,168.1z
				 M514.6,165.5v-0.6h-2.2c-1.2,0-1.9,0.5-1.9,1.4c0,0.9,0.6,1.4,1.8,1.4C513.6,167.6,514.6,166.7,514.6,165.5L514.6,165.5z"/>
			<path class="st1" d="M524.6,165.8h-2.3l-1.6,3.2h-2l1.7-3.5c-1.1-0.4-1.6-1.3-1.6-2.5c0-1.7,1.2-2.8,3.3-2.8h4.4v8.7h-1.9
				L524.6,165.8L524.6,165.8z M524.6,161.8h-2.3c-1.2,0-1.6,0.5-1.6,1.2s0.4,1.2,1.6,1.2h2.3V161.8L524.6,161.8z"/>
			<path class="st1" d="M533.4,167.1h0.3c1.2,0,1.7-0.7,1.7-3.4v-3.5h7.1v8.7h-1.9v-7.1h-3.3v1.9c0,3.9-1.1,5.2-3.5,5.2h-0.3V167.1
				L533.4,167.1z"/>
			<path class="st1" d="M550.7,168.1h-0.3c-0.5,0.6-1.4,1.1-2.6,1.1c-2,0-3.2-1.4-3.2-2.9c0-1.4,0.9-2.9,3.5-2.9h2.6v-0.3
				c0-1-0.6-1.6-1.8-1.6c-1.1,0-1.7,0.4-1.8,1.1h-1.9c0.1-1.6,1.5-2.6,3.6-2.6c2.3,0,3.8,1,3.8,3.2v5.8h-1.8V168.1L550.7,168.1z
				 M550.7,165.5v-0.6h-2.2c-1.2,0-1.9,0.5-1.9,1.4c0,0.9,0.6,1.4,1.8,1.4C549.7,167.6,550.7,166.7,550.7,165.5L550.7,165.5z"/>
			<path class="st1" d="M563.7,164.8c0,2.6-1.7,4.4-4.4,4.4c-2.7,0-4.5-1.9-4.5-5.3c0-3,0.5-5.8,3.5-6.3c0.4-0.1,2.2-0.4,2.2-0.4
				c0.7-0.1,0.9-0.2,1-0.7h1.8c0,1-0.2,1.9-1.8,2.2c-0.4,0.1-2.2,0.3-2.7,0.4c-1.5,0.3-1.9,1.3-2.1,2.6h0.3c0.7-0.9,1.6-1.3,2.8-1.3
				C562.1,160.5,563.7,162.3,563.7,164.8L563.7,164.8z M561.7,164.8c0-1.4-0.8-2.7-2.5-2.7s-2.5,1.3-2.5,2.7c0,1.4,0.8,2.7,2.5,2.7
				S561.7,166.3,561.7,164.8z"/>
			<path class="st1" d="M574.4,164.6c0,2.7-1.7,4.6-4.4,4.6c-2.8,0-4.4-1.9-4.4-4.6c0-2.7,1.7-4.6,4.4-4.6
				C572.7,160,574.4,161.9,574.4,164.6z M572.4,164.6c0-1.5-0.8-2.9-2.5-2.9s-2.5,1.4-2.5,2.9c0,1.5,0.8,3,2.5,3
				S572.4,166.1,572.4,164.6z"/>
			<path class="st1" d="M579,168.1h-0.3v4.3h-1.9v-12.2h1.9v0.9h0.3c0.5-0.6,1.2-1.1,2.5-1.1c2.4,0,3.9,2,3.9,4.6
				c0,2.7-1.5,4.6-3.9,4.6C580.2,169.2,579.4,168.7,579,168.1L579,168.1z M578.6,164.6c0,1.5,0.7,2.9,2.4,2.9c1.6,0,2.4-1.3,2.4-2.9
				c0-1.7-0.8-3-2.4-3C579.3,161.6,578.6,163,578.6,164.6z"/>
			<path class="st1" d="M593.2,168.1h-0.3c-0.5,0.6-1.4,1.1-2.6,1.1c-2,0-3.2-1.4-3.2-2.9c0-1.4,0.9-2.9,3.5-2.9h2.6v-0.3
				c0-1-0.6-1.6-1.8-1.6c-1.1,0-1.7,0.4-1.8,1.1h-1.9c0.1-1.6,1.5-2.6,3.6-2.6c2.3,0,3.8,1,3.8,3.2v5.8h-1.8V168.1L593.2,168.1z
				 M593.1,165.5v-0.6h-2.2c-1.2,0-1.9,0.5-1.9,1.4c0,0.9,0.6,1.4,1.8,1.4C592.1,167.6,593.1,166.7,593.1,165.5L593.1,165.5z"/>
			<path class="st1" d="M596.8,160.2h7.8v1.6h-2.9v7.1h-1.9v-7.1h-3L596.8,160.2L596.8,160.2z"/>
			<path class="st1" d="M614.9,164.6c0,2.7-1.7,4.6-4.4,4.6c-2.8,0-4.4-1.9-4.4-4.6c0-2.7,1.7-4.6,4.4-4.6
				C613.2,160,614.9,161.9,614.9,164.6z M612.9,164.6c0-1.5-0.8-2.9-2.5-2.9s-2.5,1.4-2.5,2.9c0,1.5,0.8,3,2.5,3
				C612.2,167.5,612.9,166.1,612.9,164.6z"/>
			<path class="st1" d="M619.5,168.1h-0.3v4.3h-1.9v-12.2h1.9v0.9h0.3c0.5-0.6,1.2-1.1,2.5-1.1c2.4,0,3.9,2,3.9,4.6
				c0,2.7-1.5,4.6-3.9,4.6C620.7,169.2,619.9,168.7,619.5,168.1L619.5,168.1z M619,164.6c0,1.5,0.7,2.9,2.4,2.9
				c1.6,0,2.4-1.3,2.4-2.9c0-1.7-0.8-3-2.4-3C619.8,161.6,619,163,619,164.6z"/>
			<path class="st1" d="M628.1,168.9v-8.7h1.9v5.7h0.3l3.7-5.7h2.2v8.7h-1.9v-5.7H634l-3.7,5.7H628.1L628.1,168.9z"/>
			<path class="st1" d="M644.5,165.8h-2.3l-1.6,3.2h-2l1.7-3.5c-1.1-0.4-1.6-1.3-1.6-2.5c0-1.7,1.2-2.8,3.3-2.8h4.4v8.7h-1.9
				L644.5,165.8L644.5,165.8z M644.5,161.8h-2.3c-1.2,0-1.6,0.5-1.6,1.2s0.4,1.2,1.6,1.2h2.3V161.8L644.5,161.8z"/>
		</g>
		<g>
			<polygon class="st1" points="473.8,59.4 473.8,84.1 448.3,84.1 448.3,59.4 435.5,59.4 435.5,117.3 448.3,117.3 448.3,94.9 
				447,94.9 447,93.6 473.8,93.6 473.8,117.3 486.6,117.3 486.6,59.4 			"/>
			<polygon class="st1" points="352.8,107.2 352.8,106 354.1,106 354.1,59.4 341.3,59.4 341.3,107.2 315.8,107.2 315.8,59.4 
				303,59.4 303,117.3 350.4,117.3 350.4,127.4 360.4,127.4 360.4,107.2 			"/>
			<polygon class="st1" points="496.3,59.4 496.3,68.9 517.8,68.9 517.8,117.3 530.6,117.3 530.6,70.2 529.3,70.2 529.3,68.9 
				552.1,68.9 552.1,59.4 			"/>
			<polygon class="st1" points="388.2,107.2 388.2,94.9 386.9,94.9 386.9,93.6 413.7,93.6 413.7,84.1 388.2,84.1 388.2,70.2 
				386.9,70.2 386.9,68.9 421.1,68.9 421.1,59.4 375.4,59.4 375.4,59.4 375.4,117.3 422.7,117.3 422.7,107.2 			"/>
			<path class="st1" d="M592.4,59.4h-30.6v57.9h12.8V99.7h-1.3v-1.3h19.1c10.8,0,19.5-8.7,19.5-19.5S603.2,59.4,592.4,59.4
				L592.4,59.4z M590.9,88.8h-16.3V70.2h-1.3v-1.3h17.6c5.5,0,9.9,4.5,9.9,9.9S596.4,88.8,590.9,88.8L590.9,88.8z"/>
		</g>
		<g>
			<path class="st0" d="M619.8,98.4v-9.6h9.6v9.6H619.8z"/>
			<path class="st0" d="M716.2,58.5c-5.6,0-9.1,2.1-11.2,4.8h-0.8V46.6h-8.4v51.8h8.4v-4h0.8c2.1,2.7,5.5,4.8,11.2,4.8
				c10.7,0,17.2-8.7,17.2-20.4S726.7,58.5,716.2,58.5L716.2,58.5z M714.6,92.4c-7.6,0-10.8-6.3-10.8-13.2c0-6.9,3.2-13.1,10.8-13.1
				c7.1,0,10.7,5.6,10.7,13.1C725.3,86.7,721.7,92.4,714.6,92.4z"/>
			<path class="st0" d="M672.4,59.4h-15v6.7h13.3l0,0l0,0c4.4,0,7.9,3.5,7.9,7.9h-10.8c-2.7,0-5.1,0.4-7,1.2c-1.9,0.8-3.5,1.8-4.7,3
				c-1.2,1.2-2.1,2.6-2.6,4.1c-0.5,1.5-0.8,3-0.8,4.5c0,1.6,0.3,3.2,0.9,4.7c0.6,1.5,1.5,2.8,2.7,4c1.2,1.2,2.6,2.1,4.3,2.8
				c1.7,0.7,3.7,1,5.9,1c2.6,0,4.9-0.4,6.8-1.2c1.9-0.8,3.4-2,4.5-3.4h0.8v3.8h8.4V74C687,65.9,680.5,59.4,672.4,59.4L672.4,59.4z
				 M678.6,83c0,1.3-0.3,2.5-0.8,3.6c-0.5,1.1-1.2,2.1-2.1,3s-2,1.5-3.2,2c-1.3,0.5-2.6,0.7-4,0.7c-2.4,0-4.3-0.5-5.7-1.6
				c-1.3-1.1-2-2.5-2-4.4s0.7-3.5,2-4.6c1.3-1.1,3.4-1.6,6.1-1.6h9.7V83L678.6,83z"/>
			<rect x="639" y="46.6" class="st0" width="8.4" height="51.8"/>
		</g>
	</g>
</g>
</svg>
