<?xml version="1.0" encoding="UTF-8"?>
<svg id="Layer_2" data-name="Layer 2" xmlns="http://www.w3.org/2000/svg" viewBox="0 0 703.59 180.11">
  <defs>
    <style>
      .cls-1 {
        fill: #231f20;
      }

      .cls-2 {
        fill: #4495d1;
      }
    </style>
  </defs>
  <g id="Layer_1-2" data-name="Layer 1">
    <g>
      <g>
        <path class="cls-2" d="M88.18,55.11c-18.26,0-33.07,14.8-33.07,33.07s14.8,33.07,33.07,33.07,33.07-14.8,33.07-33.07-14.8-33.07-33.07-33.07ZM88.18,104.71c-9.13,0-16.53-7.4-16.53-16.53s7.4-16.53,16.53-16.53,16.53,7.4,16.53,16.53-7.4,16.53-16.53,16.53Z"/>
        <polygon class="cls-1" points="0 0 0 66.13 22.04 66.13 22.04 22.04 66.13 22.04 66.13 0 0 0"/>
        <polygon class="cls-1" points="22.04 154.31 22.04 110.22 0 110.22 0 176.35 66.13 176.35 66.13 154.31 22.04 154.31"/>
        <polygon class="cls-1" points="154.31 110.22 154.31 154.31 110.22 154.31 110.22 176.35 176.35 176.35 176.35 110.22 154.31 110.22"/>
        <polygon class="cls-2" points="121.24 0 106.09 22.04 154.31 22.04 154.31 70.27 176.35 55.11 176.35 0 121.24 0"/>
      </g>
      <g>
        <path class="cls-1" d="M312.19,144.06h2.95l2.25,4.47h.38l2.25-4.47h2.91v9.56h-2.07v-6.88h-.38l-1.97,3.87h-1.92l-1.97-3.87h-.38v6.88h-2.07v-9.56Z"/>
        <path class="cls-1" d="M334.64,149.02h-7.06c.06,1.95.96,3.04,2.69,3.04,1.15,0,1.82-.45,2.09-1.2h2.16c-.36,1.75-1.79,3.01-4.26,3.01-3.01,0-4.77-2.1-4.77-5.09s1.78-4.96,4.72-4.96,4.45,2.01,4.45,4.49v.71ZM327.67,147.44h4.79c-.13-1.07-.9-1.94-2.29-1.94-1.48,0-2.25.85-2.5,1.94Z"/>
        <path class="cls-1" d="M338.28,153.62h-2.18l2.54-4.92-2.4-4.64h2.16l1.97,3.78h1.84v-3.78h1.99v3.78h1.82l1.97-3.78h2.16l-2.42,4.64,2.57,4.92h-2.2l-2.09-3.98h-1.82v3.98h-1.99v-3.98h-1.84l-2.09,3.98Z"/>
        <path class="cls-1" d="M363.69,151.82v4.49h-2.03v-2.69h-7.67v2.69h-2.03v-4.49h1.35c.53-1.24,1.03-2.95,1.03-5.07v-2.69h7.61v7.76h1.73ZM359.84,145.86h-3.55v.9c0,2.14-.41,3.81-.9,5.05h4.45v-5.96Z"/>
        <path class="cls-1" d="M366.36,157.38l2.03-4.62-4-8.7h2.25l2.59,5.67h.49l2.46-5.67h2.16l-5.8,13.32h-2.18Z"/>
        <path class="cls-1" d="M383.11,153.62v-4h-4.62v4h-2.12v-9.56h2.12v3.76h4.62v-3.76h2.12v9.56h-2.12Z"/>
        <path class="cls-1" d="M394.32,152.7h-.38c-.56.71-1.52,1.16-2.84,1.16-2.22,0-3.46-1.48-3.46-3.14,0-1.52,1.03-3.21,3.8-3.21h2.82v-.28c0-1.05-.62-1.75-2.01-1.75-1.22,0-1.84.47-1.92,1.16h-2.1c.09-1.77,1.69-2.84,3.95-2.84,2.48,0,4.13,1.09,4.13,3.46v6.35h-1.99v-.92ZM394.26,149.81v-.71h-2.44c-1.33,0-2.03.56-2.03,1.54s.71,1.5,1.94,1.5c1.43,0,2.54-1.03,2.54-2.33Z"/>
        <path class="cls-1" d="M401.77,152.68h-.38v4.7h-2.12v-13.32h2.07v.94h.38c.53-.66,1.35-1.18,2.76-1.18,2.63,0,4.25,2.14,4.25,5.04s-1.63,5.02-4.25,5.02c-1.39,0-2.2-.51-2.7-1.18ZM401.34,148.85c0,1.67.79,3.21,2.65,3.21,1.75,0,2.61-1.37,2.61-3.21s-.86-3.23-2.61-3.23c-1.86,0-2.65,1.54-2.65,3.23Z"/>
        <path class="cls-1" d="M420.42,148.83c0,2.93-1.82,5.04-4.83,5.04s-4.83-2.1-4.83-5.04,1.82-5.02,4.83-5.02,4.83,2.1,4.83,5.02ZM418.3,148.83c0-1.67-.85-3.21-2.71-3.21s-2.7,1.54-2.7,3.21.85,3.23,2.7,3.23,2.71-1.52,2.71-3.23Z"/>
        <path class="cls-1" d="M433.56,151.82v4.49h-2.03v-2.69h-7.67v2.69h-2.03v-4.49h1.35c.53-1.24,1.03-2.95,1.03-5.07v-2.69h7.61v7.76h1.73ZM429.71,145.86h-3.55v.9c0,2.14-.41,3.81-.9,5.05h4.45v-5.96Z"/>
        <path class="cls-1" d="M442.42,153.62v-4h-4.62v4h-2.12v-9.56h2.12v3.76h4.62v-3.76h2.12v9.56h-2.12Z"/>
        <path class="cls-1" d="M453.64,152.7h-.38c-.56.71-1.52,1.16-2.84,1.16-2.22,0-3.46-1.48-3.46-3.14,0-1.52,1.03-3.21,3.8-3.21h2.82v-.28c0-1.05-.62-1.75-2.01-1.75-1.22,0-1.84.47-1.92,1.16h-2.1c.09-1.77,1.69-2.84,3.95-2.84,2.48,0,4.13,1.09,4.13,3.46v6.35h-1.99v-.92ZM453.58,149.81v-.71h-2.44c-1.33,0-2.03.56-2.03,1.54s.71,1.5,1.94,1.5c1.43,0,2.54-1.03,2.54-2.33Z"/>
        <path class="cls-1" d="M464.51,150.14h-2.52l-1.71,3.48h-2.18l1.86-3.79c-1.15-.43-1.77-1.37-1.77-2.69,0-1.9,1.3-3.08,3.63-3.08h4.81v9.56h-2.12v-3.48ZM464.51,145.78h-2.5c-1.3,0-1.71.51-1.71,1.35s.41,1.35,1.71,1.35h2.5v-2.71Z"/>
        <path class="cls-1" d="M313.07,180.11l2.03-4.62-4-8.7h2.25l2.59,5.67h.49l2.46-5.67h2.16l-5.81,13.32h-2.18Z"/>
        <path class="cls-1" d="M325.57,175.41h-.38v4.7h-2.12v-13.32h2.07v.94h.38c.53-.66,1.35-1.18,2.76-1.18,2.63,0,4.25,2.14,4.25,5.04s-1.63,5.02-4.25,5.02c-1.39,0-2.2-.51-2.71-1.18ZM325.13,171.58c0,1.67.79,3.21,2.65,3.21,1.75,0,2.61-1.37,2.61-3.21s-.86-3.23-2.61-3.23c-1.86,0-2.65,1.54-2.65,3.23Z"/>
        <path class="cls-1" d="M344.29,171.79c0,2.84-1.86,4.81-4.83,4.81s-4.9-2.03-4.9-5.82c0-3.27.54-6.31,3.78-6.93.47-.09,2.39-.39,2.39-.39.73-.11,1-.26,1.05-.75h1.92c-.04,1.13-.26,2.1-1.99,2.46-.39.07-2.39.38-2.95.49-1.62.28-2.12,1.39-2.33,2.84h.36c.73-1.01,1.77-1.37,3.08-1.37,2.69,0,4.43,1.9,4.43,4.68ZM342.17,171.86c0-1.58-.88-2.95-2.74-2.95s-2.74,1.37-2.74,2.95.86,2.93,2.74,2.93,2.74-1.37,2.74-2.93Z"/>
        <path class="cls-1" d="M352.88,175.43h-.38c-.56.71-1.52,1.16-2.84,1.16-2.22,0-3.46-1.48-3.46-3.14,0-1.52,1.03-3.21,3.79-3.21h2.82v-.28c0-1.05-.62-1.75-2.01-1.75-1.22,0-1.84.47-1.92,1.16h-2.1c.09-1.77,1.69-2.84,3.95-2.84,2.48,0,4.13,1.09,4.13,3.46v6.35h-1.99v-.92ZM352.82,172.54v-.71h-2.44c-1.33,0-2.03.56-2.03,1.54s.71,1.5,1.94,1.5c1.43,0,2.54-1.03,2.54-2.33Z"/>
        <path class="cls-1" d="M364.58,176.35v-4h-4.62v4h-2.12v-9.56h2.12v3.76h4.62v-3.76h2.12v9.56h-2.12Z"/>
        <path class="cls-1" d="M369.76,176.35v-9.56h2.07v6.27h.38l4.02-6.27h2.44v9.56h-2.07v-6.28h-.38l-4.08,6.28h-2.39Z"/>
        <path class="cls-1" d="M390.13,173.29c-.3,1.97-1.9,3.31-4.21,3.31-2.97,0-4.73-2.09-4.73-5.04s1.77-5.02,4.73-5.02c2.33,0,3.85,1.3,4.13,3.16h-2.1c-.26-.83-.9-1.35-2.01-1.35-1.9,0-2.63,1.48-2.63,3.19s.75,3.25,2.63,3.25c1.18,0,1.88-.56,2.09-1.5h2.1Z"/>
        <path class="cls-1" d="M391.82,166.79h8.57v1.8h-3.21v7.76h-2.12v-7.76h-3.23v-1.8Z"/>
        <path class="cls-1" d="M402.53,176.35v-9.56h2.07v6.27h.38l4.02-6.27h2.44v9.56h-2.07v-6.28h-.38l-4.08,6.28h-2.39Z"/>
        <path class="cls-1" d="M416.03,166.79v2.76c0,.81.07,1.65,2.1,1.65.79,0,1.47-.09,2.09-.23v-4.19h2.14v9.56h-2.14v-3.61c-.79.17-1.88.26-2.69.26-3.34,0-3.63-1.62-3.63-3.18v-3.04h2.12Z"/>
        <path class="cls-1" d="M434.05,171.75h-7.06c.06,1.95.96,3.04,2.69,3.04,1.15,0,1.82-.45,2.09-1.2h2.16c-.36,1.75-1.78,3.01-4.26,3.01-3.01,0-4.77-2.1-4.77-5.09s1.78-4.96,4.72-4.96,4.45,2.01,4.45,4.49v.71ZM427.08,170.17h4.79c-.13-1.07-.9-1.93-2.29-1.93-1.48,0-2.25.84-2.5,1.93Z"/>
        <path class="cls-1" d="M445.02,173.29c-.3,1.97-1.9,3.31-4.21,3.31-2.97,0-4.73-2.09-4.73-5.04s1.77-5.02,4.73-5.02c2.33,0,3.85,1.3,4.13,3.16h-2.1c-.26-.83-.9-1.35-2.01-1.35-1.9,0-2.63,1.48-2.63,3.19s.75,3.25,2.63,3.25c1.18,0,1.88-.56,2.09-1.5h2.1Z"/>
        <path class="cls-1" d="M451.75,172.35h-2.18v4h-2.12v-9.56h2.12v3.76h2.22l2.18-3.76h2.2l-2.67,4.6,2.8,4.96h-2.25l-2.29-4Z"/>
        <path class="cls-1" d="M464.35,175.43h-.38c-.56.71-1.52,1.16-2.84,1.16-2.22,0-3.46-1.48-3.46-3.14,0-1.52,1.03-3.21,3.8-3.21h2.82v-.28c0-1.05-.62-1.75-2.01-1.75-1.22,0-1.84.47-1.92,1.16h-2.1c.09-1.77,1.69-2.84,3.95-2.84,2.48,0,4.13,1.09,4.13,3.46v6.35h-1.99v-.92ZM464.29,172.54v-.71h-2.44c-1.33,0-2.03.56-2.03,1.54s.71,1.5,1.94,1.5c1.43,0,2.54-1.03,2.54-2.33Z"/>
        <path class="cls-1" d="M475.22,172.88h-2.52l-1.71,3.48h-2.18l1.86-3.79c-1.15-.43-1.77-1.37-1.77-2.69,0-1.9,1.3-3.08,3.63-3.08h4.81v9.56h-2.12v-3.48ZM475.22,168.52h-2.5c-1.3,0-1.71.51-1.71,1.35s.41,1.35,1.71,1.35h2.5v-2.71Z"/>
        <path class="cls-1" d="M484.82,174.34h.34c1.26,0,1.82-.81,1.82-3.68v-3.87h7.74v9.56h-2.12v-7.76h-3.66v2.12c0,4.23-1.18,5.64-3.78,5.64h-.34v-2.01Z"/>
        <path class="cls-1" d="M503.81,175.43h-.38c-.56.71-1.52,1.16-2.84,1.16-2.22,0-3.46-1.48-3.46-3.14,0-1.52,1.03-3.21,3.8-3.21h2.82v-.28c0-1.05-.62-1.75-2.01-1.75-1.22,0-1.84.47-1.92,1.16h-2.1c.09-1.77,1.69-2.84,3.95-2.84,2.48,0,4.13,1.09,4.13,3.46v6.35h-1.99v-.92ZM503.76,172.54v-.71h-2.44c-1.33,0-2.03.56-2.03,1.54s.71,1.5,1.94,1.5c1.43,0,2.54-1.03,2.54-2.33Z"/>
        <path class="cls-1" d="M518,171.79c0,2.84-1.86,4.81-4.83,4.81s-4.9-2.03-4.9-5.82c0-3.27.55-6.31,3.78-6.93.47-.09,2.39-.39,2.39-.39.73-.11,1-.26,1.05-.75h1.92c-.04,1.13-.26,2.1-1.99,2.46-.39.07-2.39.38-2.95.49-1.62.28-2.12,1.39-2.33,2.84h.36c.73-1.01,1.77-1.37,3.08-1.37,2.69,0,4.43,1.9,4.43,4.68ZM515.87,171.86c0-1.58-.88-2.95-2.74-2.95s-2.74,1.37-2.74,2.95.86,2.93,2.74,2.93,2.74-1.37,2.74-2.93Z"/>
        <path class="cls-1" d="M529.7,171.56c0,2.93-1.82,5.04-4.83,5.04s-4.83-2.1-4.83-5.04,1.82-5.02,4.83-5.02,4.83,2.1,4.83,5.02ZM527.57,171.56c0-1.67-.85-3.21-2.7-3.21s-2.71,1.54-2.71,3.21.85,3.23,2.71,3.23,2.7-1.52,2.7-3.23Z"/>
        <path class="cls-1" d="M534.69,175.41h-.38v4.7h-2.12v-13.32h2.07v.94h.38c.53-.66,1.35-1.18,2.76-1.18,2.63,0,4.25,2.14,4.25,5.04s-1.63,5.02-4.25,5.02c-1.39,0-2.2-.51-2.7-1.18ZM534.26,171.58c0,1.67.79,3.21,2.65,3.21,1.75,0,2.61-1.37,2.61-3.21s-.86-3.23-2.61-3.23c-1.86,0-2.65,1.54-2.65,3.23Z"/>
        <path class="cls-1" d="M550.22,175.43h-.38c-.56.71-1.52,1.16-2.84,1.16-2.22,0-3.46-1.48-3.46-3.14,0-1.52,1.03-3.21,3.8-3.21h2.82v-.28c0-1.05-.62-1.75-2.01-1.75-1.22,0-1.84.47-1.92,1.16h-2.1c.09-1.77,1.69-2.84,3.95-2.84,2.48,0,4.13,1.09,4.13,3.46v6.35h-1.99v-.92ZM550.17,172.54v-.71h-2.44c-1.33,0-2.03.56-2.03,1.54s.71,1.5,1.94,1.5c1.43,0,2.54-1.03,2.54-2.33Z"/>
        <path class="cls-1" d="M554.22,166.79h8.57v1.8h-3.21v7.76h-2.12v-7.76h-3.23v-1.8Z"/>
        <path class="cls-1" d="M573.99,171.56c0,2.93-1.82,5.04-4.83,5.04s-4.83-2.1-4.83-5.04,1.82-5.02,4.83-5.02,4.83,2.1,4.83,5.02ZM571.87,171.56c0-1.67-.85-3.21-2.7-3.21s-2.71,1.54-2.71,3.21.85,3.23,2.71,3.23,2.7-1.52,2.7-3.23Z"/>
        <path class="cls-1" d="M578.99,175.41h-.38v4.7h-2.12v-13.32h2.07v.94h.38c.53-.66,1.35-1.18,2.76-1.18,2.63,0,4.25,2.14,4.25,5.04s-1.63,5.02-4.25,5.02c-1.39,0-2.2-.51-2.7-1.18ZM578.55,171.58c0,1.67.79,3.21,2.65,3.21,1.75,0,2.61-1.37,2.61-3.21s-.86-3.23-2.61-3.23c-1.86,0-2.65,1.54-2.65,3.23Z"/>
        <path class="cls-1" d="M588.48,176.35v-9.56h2.07v6.27h.38l4.02-6.27h2.44v9.56h-2.07v-6.28h-.38l-4.08,6.28h-2.39Z"/>
        <path class="cls-1" d="M606.39,172.88h-2.52l-1.71,3.48h-2.18l1.86-3.79c-1.15-.43-1.77-1.37-1.77-2.69,0-1.9,1.3-3.08,3.63-3.08h4.81v9.56h-2.12v-3.48ZM606.39,168.52h-2.5c-1.3,0-1.71.51-1.71,1.35s.41,1.35,1.71,1.35h2.5v-2.71Z"/>
      </g>
      <g>
        <polygon class="cls-1" points="419.66 56.49 419.66 83.49 391.74 83.49 391.74 56.49 377.78 56.49 377.78 119.86 391.74 119.86 391.74 95.34 390.36 95.34 390.36 93.96 419.66 93.96 419.66 119.86 433.63 119.86 433.63 56.49 419.66 56.49"/>
        <polygon class="cls-1" points="287.31 108.84 287.31 107.46 288.68 107.46 288.68 56.49 274.72 56.49 274.72 108.84 246.8 108.84 246.8 56.49 232.84 56.49 232.84 119.86 284.64 119.86 284.64 130.89 295.67 130.89 295.67 108.84 287.31 108.84"/>
        <polygon class="cls-1" points="444.28 56.49 444.28 66.96 467.79 66.96 467.79 119.86 481.75 119.86 481.75 68.34 480.38 68.34 480.38 66.96 505.27 66.96 505.27 56.49 444.28 56.49"/>
        <polygon class="cls-1" points="325.98 108.84 325.98 95.34 324.6 95.34 324.6 93.96 353.9 93.96 353.9 83.49 325.98 83.49 325.98 68.34 324.6 68.34 324.6 66.96 361.98 66.96 361.98 56.49 312.02 56.49 312.01 56.49 312.02 119.86 363.82 119.86 363.82 108.84 325.98 108.84"/>
        <path class="cls-1" d="M549.4,56.49h-33.48v63.38h13.96v-19.29h-1.38v-1.38h20.9c11.79,0,21.36-9.56,21.36-21.36s-9.56-21.36-21.36-21.36ZM547.75,88.73h-17.86v-20.39h-1.38v-1.38h19.24c6.01,0,10.88,4.87,10.88,10.88s-4.87,10.88-10.88,10.88Z"/>
      </g>
      <g>
        <path class="cls-2" d="M579.39,99.2v-10.47h10.47v10.47h-10.47Z"/>
        <path class="cls-2" d="M684.77,55.57c-6.16,0-9.99,2.25-12.24,5.25h-.92v-18.31h-9.18v56.69h9.18v-4.33h.92c2.33,2.91,6,5.25,12.24,5.25,11.66,0,18.82-9.49,18.82-22.31s-7.24-22.23-18.82-22.23ZM683.09,92.59c-8.3,0-11.82-6.87-11.82-14.42s3.52-14.33,11.82-14.33c7.8,0,11.65,6.12,11.65,14.33s-3.86,14.42-11.65,14.42Z"/>
        <path class="cls-2" d="M636.91,56.49h-16.37v7.35h14.53s0,0,0,0h0c4.76,0,8.62,3.86,8.62,8.62h-11.8c-3,0-5.55.42-7.65,1.27-2.1.85-3.8,1.94-5.11,3.27-1.31,1.34-2.26,2.84-2.86,4.5-.6,1.66-.9,3.31-.9,4.95,0,1.8.33,3.52.98,5.16.66,1.64,1.62,3.1,2.91,4.38,1.28,1.28,2.86,2.29,4.75,3.03,1.88.74,4.02,1.1,6.42,1.1,2.89,0,5.36-.45,7.41-1.35,2.05-.9,3.7-2.14,4.95-3.72h.92v4.16h9.18v-26.74c0-8.82-7.15-15.97-15.97-15.97ZM643.69,82.38c0,1.43-.29,2.76-.86,3.99-.57,1.24-1.35,2.32-2.33,3.25-.98.93-2.16,1.66-3.52,2.18-1.37.52-2.81.78-4.34.78-2.67,0-4.75-.58-6.22-1.73-1.47-1.15-2.21-2.77-2.21-4.86s.74-3.8,2.21-4.98c1.47-1.18,3.68-1.77,6.63-1.77h10.64v3.13Z"/>
        <rect class="cls-2" x="600.33" y="42.53" width="9.18" height="56.67"/>
      </g>
    </g>
  </g>
</svg>