<svg width="240" height="100" viewBox="0 0 240 100" fill="none" xmlns="http://www.w3.org/2000/svg">
<g clip-path="url(#clip0_3040_218)">
<path d="M160.447 28.794L160.362 28.7074L144.75 12.7655V41.9345H178.916V9.90637L160.447 28.794Z" fill="black"/>
<path d="M180.355 5.93256V41.9346H184.092V1.64111H144.75V10.4832L160.375 26.4393L180.355 5.93256Z" fill="black"/>
<path d="M220.328 28.5034L209.96 10.9396L199.621 28.5034H220.328Z" fill="black"/>
<path d="M198.121 30.5697L192.375 40.9014H226.541L220.794 30.5697H198.121Z" fill="black"/>
<path d="M240.001 40.9014L216.445 0.60791L211.012 9.90857L229.133 40.9014H240.001Z" fill="black"/>
<path d="M115.942 0.60791C104.725 0.60791 95.6155 9.7404 95.25 21.1129C96.234 17.839 98.0052 14.8236 100.451 12.2964C104.387 8.27576 109.617 6.06443 115.183 6.06443C120.216 6.06443 125.08 7.93114 128.875 11.3486L128.988 11.4635L127.526 12.3251L127.469 12.2676C123.983 9.28091 119.738 7.73011 115.183 7.73011C110.038 7.73011 105.231 9.76912 101.604 13.4738C97.9771 17.1785 95.981 22.1181 95.981 27.3449C98.3707 36.3338 106.412 42.9677 115.942 42.9677C127.385 42.9677 136.663 33.4619 136.663 21.8022C136.663 10.1137 127.357 0.60791 115.942 0.60791Z" fill="black"/>
<path d="M181.184 41.1597H179.113V47.3587H181.184V41.1597Z" fill="black"/>
<path d="M140.805 46.3256H142.325V8.9737L144.946 11.7645V9.45293L140.988 5.19623L140.805 4.9989V46.3256Z" fill="black"/>
<path d="M226.734 41.1597L229.862 46.9282L230.105 47.3587H231.911L228.541 41.1597H226.734Z" fill="black"/>
<path d="M196.72 28.6545L208.774 8.27342L210.251 10.7293L211.207 9.09205L208.889 5.16827L208.774 4.9989L184.405 46.128L184.289 46.3256H186.259L195.734 30.32H198.632L199.617 28.6545H196.72Z" fill="black"/>
<path d="M95.1284 20.4963C94.5289 22.4571 94.2148 24.5019 94.2148 26.6027C94.2148 32.1488 96.4131 37.3588 100.41 41.2803C104.407 45.2018 109.717 47.3587 115.37 47.3587C120.48 47.3587 125.448 45.538 129.302 42.2047L129.416 42.0926L127.903 41.2523L127.846 41.3083C124.306 44.2215 119.995 45.734 115.37 45.734C110.174 45.734 105.263 43.7453 101.581 40.1319C97.8977 36.5185 95.8707 31.7006 95.8707 26.6027V26.5747C95.3854 24.838 95.0999 23.0173 95.0999 21.1686C95.0999 20.9165 95.1284 20.7204 95.1284 20.4963Z" fill="black"/>
<path d="M181.182 4.9989L160.847 25.0076L144.945 9.43904V11.7434L160.761 27.2558L160.847 27.3401L179.523 8.9613V40.1266H181.182V4.9989Z" fill="#F2FFF6"/>
<path d="M210.948 9.13159L209.995 10.7614L220.283 28.6053H199.734L198.781 30.2633H221.236L226.927 40.1266H228.806L210.948 9.13159Z" fill="#F2FFF6"/>
<path d="M115.419 6.61409C120.028 6.61409 124.324 8.14574 127.851 11.0141L127.908 11.0698L129.416 10.2344L129.273 10.123C125.433 6.80903 120.512 4.9989 115.419 4.9989C109.787 4.9989 104.495 7.14321 100.513 11.042C98.0379 13.4647 96.2741 16.3888 95.2784 19.5913C95.2784 19.8141 95.25 20.0369 95.25 20.2597C95.25 22.1255 95.5345 23.9356 96.0181 25.6622C96.0181 20.5939 98.0379 15.804 101.708 12.2116C105.32 8.59131 110.213 6.61409 115.419 6.61409Z" fill="#F2FFF6"/>
<path d="M10.3529 77.3205V68.022L6.21161 72.1671L2.29417 68.274L2.07031 68.022V77.3205H3.4694V71.4389L6.21161 74.1836L8.92583 71.4669V77.3205H10.3529Z" fill="black"/>
<path d="M5.17662 92.5731L6.48439 94.9189H3.86884L5.17662 92.5731ZM0 99.017H1.60748L3.07873 96.3603H7.30176L8.58229 98.6496L8.74576 99.017H10.3532L5.17662 89.7185L0 99.017Z" fill="black"/>
<path d="M5.61308 56.6573C6.82158 56.6573 8.00059 56.2064 8.88485 55.4175L9.03223 55.3048L7.67636 54.544L7.61741 54.6003C7.05738 55.023 6.34997 55.2202 5.64256 55.2202C4.72882 55.2202 3.90351 54.8821 3.25505 54.2904C2.60659 53.6705 2.28236 52.8815 2.28236 52.0362C2.28236 51.1627 2.63607 50.3737 3.25505 49.7538C3.90351 49.1621 4.72882 48.824 5.64256 48.824C6.34997 48.824 7.05738 49.0494 7.61741 49.4439L7.70584 49.5002L9.09118 48.7394L8.94381 48.5986C8.05954 47.8096 6.88053 47.3588 5.67204 47.3588C4.37512 47.3588 3.13715 47.8378 2.22341 48.7113C1.30968 49.5848 0.808594 50.7682 0.808594 51.9798C0.808594 53.2196 1.30968 54.3749 2.22341 55.2484C3.10768 56.1783 4.31617 56.6573 5.61308 56.6573Z" fill="black"/>
<path d="M24.1041 55.2159C22.3145 55.2159 20.8657 53.7744 20.8657 51.9939C20.8657 50.2133 22.3145 48.7719 24.1041 48.7719C25.8938 48.7719 27.3426 50.2133 27.3426 51.9939C27.3426 53.7744 25.8938 55.2159 24.1041 55.2159ZM24.1041 47.3588C21.5191 47.3588 19.4453 49.4502 19.4453 51.9939C19.4453 54.5658 21.5475 56.6573 24.1041 56.6573C26.6892 56.6573 28.7629 54.5658 28.7629 51.9939C28.7913 49.4502 26.6892 47.3588 24.1041 47.3588Z" fill="black"/>
<path d="M24.1041 75.9031C22.3145 75.9031 20.8657 74.4573 20.8657 72.6713C20.8657 70.8854 22.3145 69.4395 24.1041 69.4395C25.8938 69.4395 27.3426 70.8854 27.3426 72.6713C27.3426 74.4573 25.8938 75.9031 24.1041 75.9031ZM24.1041 68.0221C21.5191 68.0221 19.4453 70.1199 19.4453 72.6713C19.4453 75.2511 21.5475 77.3206 24.1041 77.3206C26.6892 77.3206 28.7629 75.2228 28.7629 72.6713C28.7913 70.1199 26.6892 68.0221 24.1041 68.0221Z" fill="black"/>
<path d="M77.9542 75.903C76.17 75.903 74.7256 74.4572 74.7256 72.6712C74.7256 70.8852 76.17 69.4394 77.9542 69.4394C79.7385 69.4394 81.1545 70.8852 81.1545 72.6712C81.1828 74.4572 79.7385 75.903 77.9542 75.903ZM77.9542 68.022C75.377 68.022 73.2812 70.1198 73.2812 72.6712C73.2812 75.251 75.377 77.3205 77.9542 77.3205C80.5314 77.3205 82.5989 75.2226 82.5989 72.6712C82.6272 70.1198 80.5314 68.022 77.9542 68.022Z" fill="black"/>
<path d="M186.637 97.5756C184.853 97.5756 183.408 96.1342 183.408 94.3536C183.408 92.5731 184.853 91.1317 186.637 91.1317C188.421 91.1317 189.866 92.5731 189.866 94.3536C189.837 96.1342 188.393 97.5756 186.637 97.5756ZM186.637 89.7185C184.06 89.7185 181.992 91.81 181.992 94.3536C181.992 96.9255 184.088 99.017 186.637 99.017C189.214 99.017 191.31 96.9255 191.31 94.3536C191.282 91.81 189.186 89.7185 186.637 89.7185Z" fill="black"/>
<path d="M150.427 97.5756C148.643 97.5756 147.198 96.1342 147.198 94.3536C147.198 92.5731 148.643 91.1317 150.427 91.1317C152.211 91.1317 153.656 92.5731 153.656 94.3536C153.627 96.1342 152.211 97.5756 150.427 97.5756ZM150.427 89.7185C147.85 89.7185 145.754 91.81 145.754 94.3536C145.754 96.9255 147.85 99.017 150.427 99.017C153.004 99.017 155.072 96.9255 155.072 94.3536C155.072 91.81 153.004 89.7185 150.427 89.7185Z" fill="black"/>
<path d="M59.7749 55.2202C59.0405 55.2202 58.3673 54.713 58.2755 54.0086L58.2449 53.8677L56.7148 54.0931L56.7454 54.234C56.9902 55.6147 58.2755 56.6573 59.8055 56.6573C61.5191 56.6573 62.9268 55.3611 62.9268 53.7832C62.9268 52.8815 62.4066 52.0644 61.6416 51.5854C62.1924 51.1345 62.5596 50.5146 62.5596 49.8665C62.5596 49.1903 62.2842 48.5704 61.764 48.0914C61.2437 47.6124 60.5705 47.3588 59.8361 47.3588C59.1017 47.3588 58.4285 47.6124 57.9083 48.0914C57.6329 48.345 57.4187 48.6549 57.2657 49.0212L57.2045 49.1621L58.7039 49.5566L58.7345 49.4439C58.7957 49.3312 58.8875 49.2185 58.9793 49.1058C59.1935 48.9085 59.4689 48.7958 59.8055 48.7958C60.1115 48.7958 60.3869 48.9085 60.6317 49.1058C60.8459 49.303 60.9683 49.5566 60.9683 49.8665C60.9683 50.1483 60.8459 50.4301 60.6317 50.6273C60.4175 50.8246 60.1421 50.9373 59.8055 50.9373H59.6525H58.9487V52.3743H59.7443C60.6011 52.3743 61.3049 53.0224 61.3049 53.7832C61.3355 54.6003 60.6317 55.2202 59.7749 55.2202Z" fill="black"/>
<path d="M95.3088 72.7866V70.62H95.4409C95.6786 70.62 95.9163 70.7403 96.1012 70.9209C96.2861 71.1315 96.3917 71.4024 96.3917 71.7033C96.3917 72.3051 95.9691 72.7866 95.4409 72.7866H95.3088ZM96.6558 76.819H95.2824V74.2912H96.6558C97.2633 74.2912 97.7651 74.863 97.7651 75.5551C97.7915 76.2773 97.2897 76.819 96.6558 76.819ZM97.3689 72.907C97.5802 72.576 97.7123 72.1848 97.7123 71.6732C97.7123 70.9811 97.4746 70.319 97.052 69.8075C96.6294 69.326 96.0484 69.0552 95.4409 69.0552H95.3088H94.3845H93.9883V76.819V78.3537H95.3353H96.7087C98.0556 78.3537 99.1649 77.0898 99.1649 75.5551C99.1121 74.3213 98.3726 73.238 97.3689 72.907Z" fill="black"/>
<path d="M204.046 93.4198V91.2532H204.178C204.442 91.2532 204.68 91.3736 204.865 91.5842C205.05 91.7949 205.129 92.0657 205.129 92.3666C205.129 92.9685 204.706 93.4499 204.178 93.4499H204.046V93.4198ZM205.42 97.4823H204.046V94.9546H205.42C206.027 94.9546 206.529 95.5263 206.529 96.2184C206.529 96.9106 206.027 97.4823 205.42 97.4823ZM206.106 93.5402C206.318 93.2092 206.476 92.818 206.476 92.3365C206.476 91.6444 206.238 90.9824 205.789 90.4708C205.34 89.9893 204.786 89.7185 204.178 89.7185H204.046H203.095H202.699V97.4823V99.017H205.42C206.767 99.017 207.876 97.7531 207.876 96.2184C207.876 94.9546 207.136 93.9013 206.106 93.5402Z" fill="black"/>
<path d="M24.8787 93.3681H24.113V91.0603H24.8787C25.2157 91.0603 25.5526 91.1945 25.7977 91.4091C26.0427 91.6238 26.1652 91.919 26.1652 92.241C26.1652 92.5362 26.0427 92.8314 25.7977 93.0461C25.5526 93.2608 25.2463 93.3681 24.8787 93.3681ZM24.8787 89.7185H24.113H23.194H22.5508V97.9838H24.113V94.7099H24.8787C25.6445 94.7099 26.349 94.4684 26.9004 93.9853C27.4517 93.5023 27.7274 92.8851 27.7274 92.2142C27.7274 91.5433 27.4211 90.9261 26.9004 90.4431C26.349 89.9869 25.6445 89.7185 24.8787 89.7185Z" fill="black"/>
<path d="M170.712 93.0461C170.467 93.2608 170.13 93.3681 169.793 93.3681H169.028V91.0603H169.793C170.13 91.0603 170.467 91.1945 170.712 91.4091C170.957 91.6238 171.111 91.919 171.111 92.241C171.111 92.5362 170.988 92.8314 170.712 93.0461ZM169.793 89.7185H169.028H168.109H167.496V97.9838H169.058V94.7099H169.824C170.59 94.7099 171.294 94.4684 171.846 93.9853C172.397 93.5023 172.673 92.9119 172.673 92.2142C172.673 91.5433 172.366 90.8993 171.846 90.4431C171.264 89.9869 170.559 89.7185 169.793 89.7185Z" fill="black"/>
<path d="M75.3516 89.7185V91.0871H77.1941V97.9838H78.6857V91.0871H80.5282V89.7185H75.3516Z" fill="black"/>
<path d="M130.223 89.7185V91.0871H132.065V97.9838H133.557V91.0871H135.399V89.7185H130.223Z" fill="black"/>
<path d="M96.2907 89.7185H95.0234V91.0871V96.6421V97.9838H96.2907H98.1294V96.6421H96.2907V94.2269H97.8312V92.8583H96.2907V91.0871H98.0052V89.7185H96.2907Z" fill="black"/>
<path d="M43.7427 55.192C41.9399 55.192 40.4806 53.755 40.4806 51.9798C40.4806 50.2047 41.9399 48.7676 43.7427 48.7676C45.5454 48.7676 47.0047 50.2047 47.0047 51.9798C46.9761 53.755 45.5168 55.192 43.7427 55.192ZM43.7427 47.3588C41.5107 47.3588 39.6508 48.8803 39.1643 50.9373H38.5062V47.6687H37.0469V56.3473H38.5062V52.3743H39.0785C39.2788 54.7694 41.2818 56.6573 43.7427 56.6573C46.3466 56.6573 48.4354 54.5721 48.4354 52.008C48.4354 49.4439 46.318 47.3588 43.7427 47.3588Z" fill="black"/>
<path d="M172.245 69.0552H170.562L169.049 71.4972L167.594 69.1357L167.537 69.0552H165.882L168.222 72.839L165.426 77.3205H167.109L169.049 74.1808L170.961 77.2668L170.99 77.3205H172.673L169.877 72.839L172.245 69.0552Z" fill="black"/>
<path d="M44.8996 89.7185H43.2095L41.6913 92.1337L40.2018 89.7185H38.5117L40.8606 93.4755L38.082 97.9838H39.7435L41.6913 94.8173L43.6392 97.9033L43.6679 97.9838H45.3293L42.5507 93.4755L44.8996 89.7185Z" fill="black"/>
<path d="M153.595 77.6303H155.072V68.0221L148.266 74.8231V68.7167H146.789V78.3538L153.595 71.5528V77.6303Z" fill="black"/>
<path d="M58.1679 89.3819H56.7148V99.0171L63.5443 92.226V98.3206H64.9974V88.6854L58.1679 95.4765V89.3819Z" fill="black"/>
<path d="M44.9447 76.1834C44.3531 76.6086 43.6728 76.8071 42.9628 76.8071C42.0458 76.8071 41.2176 76.4669 40.5668 75.8716C39.916 75.2479 39.5906 74.4541 39.5906 73.6036C39.5906 72.7532 39.9456 71.931 40.5668 71.3073C41.2176 70.6837 42.0458 70.3718 42.9628 70.3718C43.6728 70.3718 44.3531 70.5986 44.9447 70.9955L45.0039 71.0522L46.3646 70.2868L46.2167 70.145C45.3293 69.3513 44.1461 68.926 42.9333 68.926C41.6317 68.926 40.3893 69.408 39.5019 70.2868C38.5849 71.1656 38.082 72.3279 38.082 73.5753C38.082 74.8226 38.5849 75.985 39.5019 76.8638C40.4189 77.7426 41.6317 78.2245 42.9333 78.2245C44.1461 78.2245 45.3293 77.7709 46.2167 76.9772L46.3646 76.8354L45.0039 76.07L44.9447 76.1834Z" fill="black"/>
<path d="M57.75 68.926V77.1914H59.3262V73.1929L62.0767 77.1109L62.1385 77.1914H63.9619L60.8096 72.7098L63.3747 68.926H61.5513L59.3262 72.2536V68.926H57.75Z" fill="black"/>
<path d="M116.426 89.5894L114.17 93.3208V89.5894H112.625V98.8879H114.17V94.374L116.952 98.7976L117.014 98.8578H118.837L115.685 93.8324L118.219 89.5894H116.426Z" fill="black"/>
<path d="M130.223 68.926V77.1914H131.768V73.1929L134.549 77.1109L134.58 77.1914H136.435L133.282 72.7098L135.816 68.926H133.993L131.768 72.2536V68.926H130.223Z" fill="black"/>
<path d="M117.389 76.1834C116.8 76.6086 116.122 76.8071 115.385 76.8071C114.5 76.8071 113.646 76.4669 113.027 75.8716C112.378 75.2479 112.054 74.4541 112.054 73.6036C112.054 72.7532 112.408 71.931 113.027 71.3073C113.675 70.6837 114.5 70.3718 115.385 70.3718C116.092 70.3718 116.77 70.5986 117.389 70.9955L117.478 71.0522L118.833 70.2868L118.686 70.145C117.802 69.3513 116.623 68.926 115.385 68.926C114.088 68.926 112.879 69.408 111.966 70.2868C111.052 71.1656 110.551 72.3279 110.551 73.5753C110.551 74.8226 111.052 75.985 111.966 76.8638C112.879 77.7426 114.088 78.2245 115.385 78.2245C116.623 78.2245 117.772 77.7709 118.686 76.9772L118.833 76.8354L117.478 76.07L117.389 76.1834Z" fill="black"/>
</g>
<defs>
<clipPath id="clip0_3040_218">
<rect width="240" height="100" fill="white"/>
</clipPath>
</defs>
</svg>
