<?xml version="1.0" encoding="UTF-8"?>
<svg id="Layer_2" data-name="Layer 2" xmlns="http://www.w3.org/2000/svg" viewBox="0 0 917.48 164.18">
  <defs>
    <style>
      .cls-1 {
        fill: #231f20;
      }
    </style>
  </defs>
  <g id="Layer_1-2" data-name="Layer 1">
    <g>
      <path class="cls-1" d="M50.29,4.11h31.28c.11.33.21.65.32.97-1.07.35-2.11.93-3.2,1.02-5.8.49-7.35,1.99-7.36,8.22-.09,21.28-.09,42.56-.04,63.86.02,6.59.3,6.77,6.27,7.26,1.14.09,2.28.28,3.29.4v27.15c-.4.04-.81.07-1.21.12-.35-2.9-.62-5.83-1.09-8.7-1.95-11.84-7.03-16.61-18.22-16.68-18.72-.12-37.43-.04-56.13-.05-1.34,0-2.67-.12-4.01-.19-.05-.42-.12-.84-.19-1.27,1.3-.32,2.57-.79,3.88-.91,4.85-.49,6.38-1.79,6.41-6.91.12-21.7.12-43.41.02-65.11-.02-5.24-1.74-6.73-6.66-7.17-1.21-.11-2.43-.46-3.62-.7.04-.4.09-.81.12-1.23h31.32c.07.39.16.76.23,1.12-1.3.28-2.57.7-3.87.81-5.1.42-6.77,2.04-6.78,7.5-.07,21.7.02,43.41-.07,65.11-.02,3.94,1.46,5.62,5.04,5.61,9.81-.05,19.61-.05,29.42.02,3.64.02,5.43-1.42,5.41-5.68-.09-21.56.05-43.14-.07-64.7-.04-6.17-1.56-7.47-7.2-7.89-1.18-.09-2.32-.56-3.48-.86.05-.37.12-.76.19-1.12"/>
      <path class="cls-1" d="M398.21,39.85c13.43,2.37,21.84-5.66,20.84-19.47-.67-9.54-6.59-14.99-15.32-14.16-3.29.32-5.45,1.99-5.48,5.73-.11,9.21-.04,18.43-.04,27.91M398.3,43.55c0,12.64-.09,24.34.12,36.02.02,1.34,1.35,3.09,2.53,3.87,8.63,5.68,22.35-.53,24.04-11.21.74-4.67.37-9.82-.63-14.46-1.37-6.33-5.39-11-11.35-12.49-4.67-1.16-9.58-1.16-14.71-1.72M377.69,4.14c1.04-.14,2.06-.37,3.09-.39,8.63-.11,17.26-.39,25.89-.16,4.18.12,8.59.44,12.48,1.99,11.56,4.55,13.81,21.07,4.27,29.63-2.04,1.85-4.36,3.34-6.78,5.17,7.12,1.35,13.16,4.48,17.03,11.11,7.5,12.86.77,30.49-13.51,35.18-3.5,1.14-7.35,1.51-11.04,1.53-9.81.05-19.59-.3-29.38-.51-.74-.02-1.46-.16-2.44-1.25,1.12-.37,2.21-.93,3.34-1.07,5.45-.63,6.92-1.81,6.96-7.78.18-21.26.18-42.54.02-63.81-.04-5.87-1.62-7.13-7.05-7.64-.98-.11-1.95-.44-2.93-.67.02-.44.05-.88.07-1.32"/>
      <path class="cls-1" d="M110.9,39.69c8.38,2.07,15.62-.79,18.77-7.7,3.04-6.68,3.22-13.53-.47-20.03-2.85-4.99-7.57-5.83-12.53-5.73-3.5.07-5.69,1.92-5.75,5.83-.09,9.23-.02,18.45-.02,27.63M110.87,43.84c0,12.06-.11,23.23.12,34.41.04,1.76,1.27,4.15,2.62,5.13,5.75,4.16,18.1,1.02,21.97-5.29,7.57-12.3.86-30.68-12.42-33.51-3.83-.83-7.87-.51-12.28-.74M129.3,40.36c7.24,1.46,13.43,4.57,17.24,11.49,6.87,12.51,1.11,28.89-12.3,34.14-4.01,1.56-8.54,2.11-12.85,2.18-9.67.16-19.33-.28-29-.49-.72-.02-1.46-.16-2.43-1.23,1.12-.37,2.23-.95,3.37-1.09,5.43-.69,6.82-1.85,6.96-7.82.26-10.77.16-21.54.18-32.33.02-9.51.09-19.03-.02-28.54-.09-7.22-.3-10.65-8.42-10.67-.58,0-1.16-.65-2.78-1.63,2.02-.33,2.93-.62,3.83-.62,9.02-.12,18.05-.37,27.05-.18,3.81.07,7.8.46,11.35,1.81,11.79,4.5,14.29,21.21,4.6,29.84-2.04,1.83-4.36,3.3-6.8,5.13"/>
      <path class="cls-1" d="M784.65,39.77c14.11,3.13,23.79-7.96,20.21-22.9-1.88-7.86-8.86-12.37-16.06-10.47-2.62.7-4.08,2.53-4.11,5.34-.09,9.35-.04,18.72-.04,28.03M784.61,43.6c0,12.35,0,23.53.02,34.71,0,3.04,1.49,4.99,4.08,5.92,12.72,4.52,23.2-3.46,23.39-17.78.14-10.63-4.74-19.14-13-21.3-4.53-1.19-9.35-1.05-14.48-1.55M763.74,86.16c1.21-.28,2.41-.69,3.64-.83,4.96-.58,6.48-1.88,6.61-7.29.28-11.19.21-22.39.25-33.58.02-9.93.11-19.88-.11-29.8-.14-6.82-1.32-7.89-7.47-8.58-.9-.11-1.77-.47-2.64-.72.02-.39.02-.76.04-1.14.9-.16,1.77-.46,2.67-.47,9.02-.11,18.03-.28,27.05-.21,3.2.04,6.47.3,9.56,1.11,6.03,1.6,10.6,5.41,11.95,12.27,1.44,7.21-.37,13.62-5.66,18.49-1.95,1.77-4.18,3.16-5.97,4.48,3.6,1.77,7.75,3.02,11.07,5.57,11.46,8.75,11.07,27.55-.26,36.69-5.8,4.67-12.23,6.27-19.22,6.15-9.67-.18-19.33-.39-29-.6-.74-.02-1.49-.14-2.23-.23-.09-.42-.18-.86-.26-1.3"/>
      <path class="cls-1" d="M303.53,38.84c-.07,13.29,2.06,23.69,8,32.79,6.41,9.84,15.11,15.24,26.43,13.94,11.86-1.37,19.21-9.26,22.32-21.28,1.63-6.33,2.35-13.23,2.07-19.8-.53-12.69-4.39-24.15-14.23-32.16-13.34-10.86-32.11-7.43-40.12,7.36-3.55,6.57-4.53,13.9-4.46,19.15M374.24,45.01c-.09,24.55-19.38,44.34-43.23,44.34s-39.43-18.63-39.35-43.28c.09-27.87,20.75-43.55,43.69-43.72,22.37-.18,38.98,18.35,38.89,42.67"/>
      <path class="cls-1" d="M516.74,48.64c-.28-.07-.58-.14-.86-.21,0-1.11.07-2.25-.02-3.36-1.04-13.29-4.59-25.29-15.24-33.35-13.94-10.54-32.93-6.08-40,9.26-7.47,16.22-3.95,41.93,7.5,55.07,14.23,16.33,37.24,11.72,44.67-9.23,2.04-5.76,2.67-12.11,3.94-18.19M527.57,45.13c-.09,24.66-19.59,44.37-43.74,44.21-22.16-.14-38.63-18.38-38.8-42.98-.19-25.2,18.38-44.06,43.41-44.07,22.55,0,39.22,18.24,39.14,42.84"/>
      <path class="cls-1" d="M844.09,40.49c-.07,11.98,2.13,22.39,8.15,31.44,6.68,10.03,15.68,15.25,27.31,13.46,11.93-1.83,18.57-10.37,21.74-22.16,3.32-12.32,2.51-24.64-2.18-36.5-2.88-7.28-7.47-13.07-13.97-16.84-11.26-6.48-28.77-5.61-36.61,9.72-3.48,6.8-4.55,14.18-4.45,20.88M914.77,45.11c-.05,24.64-19.58,44.39-43.7,44.23-22.34-.14-38.98-18.91-38.85-43.39.14-27.24,20.09-43.16,43.41-43.63,22.32-.47,39.21,18.22,39.15,42.79"/>
      <path class="cls-1" d="M541.09,83.94c12.23,0,23.53.14,34.85-.05,6.15-.09,6.52-.72,6.54-7.36.02-20.44,0-40.86,0-61.28,0-.98-.05-1.95-.07-2.93-.05-2.97-1.18-4.78-4.16-4.74-3.87.02-7.73-.05-11.58-.02-3.81.02-5.4,2.34-5.83,6.26-.91,8.45-1.6,16.99-3.16,25.31-2.97,15.68-5.29,31.74-16.57,44.83M606.71,85.73c-.44,8.65-.86,16.76-1.27,24.88-.37.07-.72.14-1.07.21-.3-.98-.77-1.95-.86-2.95-1.05-13.36-6.96-19.77-19.31-20.05-12.51-.3-25.02-.23-37.54-.07-11.11.12-16.48,5.9-17.45,18.29-.12,1.51-.14,3.02-.21,4.76-1.83-1.48-3.88-20.75-2.95-25.43,11.09-.44,15.73-9.28,19.7-18.57,6.71-15.68,9.65-32.37,10.35-49.54.3-7.24-2.76-10.54-9.35-11.12-1.23-.11-2.46-.44-3.67-.67.04-.42.07-.84.11-1.27h59.98c.07.33.14.69.23,1.02-1.16.3-2.28.77-3.44.88-5.25.44-7.12,2-7.15,7.7-.14,21.98-.05,43.97-.04,65.95.02,3.76,1.65,5.64,5.25,5.57,2.69-.05,5.38.23,8.7.4"/>
      <path class="cls-1" d="M199.88,58.15c-.77-1.28-1.27-1.76-1.37-2.32-1.48-7.01-3.25-9.19-9.63-9.81-4.97-.49-10-.11-15.2-.11,0,11.33-.14,22.48.18,33.6.04,1.41,2.37,3.81,3.73,3.88,5.87.28,11.9.63,17.61-.51,5.69-1.14,8.82-6.4,10.86-12.13.47-1.37.9-2.78,2.23-4.13.23.76.7,1.53.65,2.28-.33,5.29-.62,10.61-1.28,15.87-.12,1.09-1.76,2.78-2.71,2.78-16.91.18-33.79.12-50.7.11-.46,0-.9-.19-1.35-.28-.05-.37-.11-.72-.18-1.09,1.3-.33,2.58-.83,3.88-.97,4.62-.49,6.15-1.86,6.17-6.71.09-21.84.09-43.69.02-65.53-.02-4.87-1.79-6.52-6.47-6.96-1.2-.12-2.37-.53-3.55-.79.05-.4.11-.79.14-1.19h51.86v18.47c-.33.05-.67.11-.98.18-.47-1.48-.97-2.93-1.41-4.43-2.02-6.66-6.01-10.19-12.44-10.58-3.73-.21-7.49-.05-11.21.11-2.76.11-4.97,1.6-5.04,4.71-.18,9.74-.07,19.49-.07,29.36,5.59,0,10.98.28,16.34-.09,5.2-.35,8.61-3.39,8.68-9.96.42.18.83.37,1.25.54v25.69Z"/>
      <path class="cls-1" d="M285.58.7c-.44,8.35-.9,16.94-1.35,25.55-.37.07-.74.14-1.09.23-.35-1.32-.84-2.6-1.04-3.94-2-14.13-10.86-16.69-21.49-15.17-3.02.44-4.24,2.78-4.24,6.01,0,8.26-.09,16.52-.09,24.78,0,13.02-.05,26.04.11,39.05.09,6.52,1.32,7.64,7.33,8.15,1.39.12,2.74.51,4.13.77-.04.37-.09.74-.12,1.11h-33.48c-.09-.32-.18-.63-.26-.95,1.23-.3,2.44-.77,3.69-.88,6.64-.56,8-2.02,8-9.33.04-20.3.04-40.61,0-60.91,0-6.41-1.46-8-7.21-8.15-10.7-.3-15.87,3.66-19.26,14.69-.49,1.62-1.07,3.2-1.62,4.8-.44-.07-.9-.16-1.35-.25.56-8.56,1.14-17.12,1.76-26.27,4.85,5.59,10.88,3.73,16.38,3.83,14.18.25,28.38.07,42.56-.28,2.71-.07,5.38-1.72,8.65-2.85"/>
      <path class="cls-1" d="M756.42.7c-.44,8.35-.9,16.94-1.35,25.55-.37.07-.74.14-1.09.23-.35-1.32-.84-2.6-1.04-3.94-2-14.13-10.86-16.69-21.49-15.17-3.02.44-4.24,2.78-4.24,6.01,0,8.26-.09,16.52-.09,24.78,0,13.02-.05,26.04.11,39.05.09,6.52,1.32,7.64,7.33,8.15,1.37.12,2.74.51,4.11.77-.04.37-.07.74-.11,1.11h-33.48c-.09-.32-.18-.63-.26-.95,1.23-.3,2.44-.77,3.69-.88,6.64-.56,8-2.02,8-9.33.04-20.3.04-40.61,0-60.91,0-6.41-1.46-8-7.21-8.15-10.7-.3-15.87,3.66-19.26,14.69-.49,1.62-1.07,3.2-1.62,4.8-.44-.07-.88-.14-1.34-.21.28-4.27.51-8.54.81-12.81.28-4.31.61-8.59.97-13.46,4.82,5.55,10.84,3.69,16.34,3.8,14.18.25,28.38.07,42.56-.28,2.71-.07,5.38-1.72,8.65-2.85"/>
      <path class="cls-1" d="M678.6,64.34c.11.74.37,1.51.32,2.23-.26,2.79-.58,5.55-.93,8.33-1.25,9.81-1.27,9.77-10.33,12.21-12.32,3.34-24.62,3.51-36.38-2.07-15.82-7.52-23.37-21.47-23.5-39.87-.12-17.71,8.7-29.7,22.79-37.26,13.23-7.1,27.06-6.92,41.05-2.67,3.27.98,4.99,2.97,5.15,6.75.21,4.85.69,9.7,1.05,14.53-.32.16-.63.32-.95.47-.56-.86-1.27-1.63-1.65-2.57-5.82-13.67-15.92-19.66-30.79-18.22-11.39,1.09-20.35,9.84-23.65,23.13-4.82,19.35,2.44,42.37,16.48,52.32,14.27,10.09,30.74,4.57,38.19-12.83.67-1.56,1.34-3.15,2.02-4.73.37.09.76.16,1.12.25"/>
      <path class="cls-1" d="M552.55,142.13c.72,3.08,1.16,6.27,2.21,9.21,2.46,6.8,8.8,11.37,14.62,10.93,6.47-.49,11.35-4.52,12.76-11.3.69-3.3.69-6.94.32-10.33-1-9.3-8.8-15.85-17.45-15.08-7.56.67-12.2,7.01-12.46,16.57M568.72,123.66c10.39-.28,18.24,8.1,18.43,19.66.18,10.88-8.82,20.54-19.37,20.81-10.98.25-18.86-8.12-19.15-20.38-.28-11.11,8.38-19.77,20.09-20.09"/>
      <path class="cls-1" d="M858.22,142.71c3.64-1.35,7.1-1.67,9.16-3.69,2.51-2.46,1.97-6.45.44-9.79-1.46-3.22-4.18-4.11-7.15-3.64-3.18.51-2.34,3.5-2.41,5.71-.12,3.2-.04,6.4-.04,11.4M886.66,162.74c-6.27,1.76-10.4.09-13.44-5.04-2.02-3.41-4.64-6.41-6.52-9.88-1.95-3.58-4.18-5.5-8.44-3.46,0,4.55-.33,9.45.19,14.25.18,1.63,2.44,3.01,3.6,4.32h-11.97c5.64-.47,4.78-4.99,4.78-8.96,0-7.42.02-14.85,0-22.27-.02-5.27-.21-5.48-4.87-6.64.02-.35.05-.7.05-1.05,6.17.39,12.46.07,18.47,1.37,4.53.98,5.47,7.78,2.32,12.65-.95,1.46-2.23,2.67-3.58,4.27,5.54,7.5,9.24,16.85,19.4,20.44"/>
      <path class="cls-1" d="M601.13,141.56c1.79,0,3.08.09,4.34-.02,4.31-.33,6.48-2.99,6.36-7.66-.12-5.03-2.76-8.14-6.92-8.4-2.39-.14-3.73.84-3.76,3.48-.04,4.02-.02,8.07-.02,12.6M601.13,144.53c0,4.34-.39,9,.18,13.53.25,1.9,2.5,3.5,3.64,4.99h-11.91c6.63-1.27,4.59-6.91,4.69-11.35.14-6.43-.05-12.88.09-19.31.07-3.94-.23-7.31-4.9-7.7,5.8,0,11.67-.65,17.36.18,5.24.77,6.91,7.93,3.53,13.11-.95,1.48-2.25,2.67-3.66,4.31,5.48,7.49,9.21,16.8,18.57,20.21-4.48,1.95-7.91,1.3-10.74-2.48-3.01-3.99-5.99-8.07-8.58-12.41-1.97-3.3-3.99-5.36-8.28-3.08"/>
      <path class="cls-1" d="M913.42,137.82v10.61c-2.41-7.36-7.89-3.66-12.57-4.59,0,5.24-.11,9.95.09,14.67.04.97,1.02,2.32,1.88,2.74,5.47,2.58,11.14-.12,13.41-6.2.14-.33.37-.65,1.25-.9-.14,2.9-.3,5.78-.47,9.17h-24.32c5.61-.93,4.52-5.52,4.53-9.37.04-7.42-.04-14.83.04-22.25.04-3.62-.09-6.96-4.67-7.15h22.93v8.07c-3-6.47-4.78-7.42-11.23-6.61-2.3.28-3.53,1.23-3.48,3.9.07,3.9.02,7.8.02,11.63,6.66,1.7,9.86.84,12.6-3.74"/>
      <path class="cls-1" d="M806.61,124.47h12.55c-4.73.9-4.52,4.57-4.41,8.42.16,5.31-.05,10.63.12,15.96.26,8.12,4.85,12.97,11.88,12.83,5.06-.11,9.21-3.34,9.68-8.87.63-7.49.65-15.08.33-22.58-.09-1.99-2.39-3.85-3.6-5.68h9.86c-5.22,1.72-4.13,6.41-4.16,10.53-.05,4.76.07,9.52-.05,14.27-.23,8.89-4.83,14.34-12.3,14.8-8.65.53-14.34-4.22-15.13-13.43-.54-6.24-.33-12.58-.23-18.87.07-3.69-.23-6.73-4.53-7.36"/>
      <path class="cls-1" d="M694.36,124.61h12.55c-4.73.4-4.5,4.01-4.43,7.61.09,5.61-.09,11.21.11,16.8.28,7.91,4.83,12.72,11.65,12.65,5.17-.05,9.37-3.13,9.86-8.63.69-7.61.63-15.34.35-22.99-.07-1.88-2.27-3.67-3.41-5.38h9.74c-4.25,1.51-4.36,5.22-4.25,9.24.14,5.17.12,10.35,0,15.52-.25,8.82-4.92,14.3-12.37,14.71-8.51.44-14.13-4.13-15.01-13.09-.61-6.38-.37-12.86-.3-19.28.05-3.64-.11-6.78-4.48-7.17"/>
      <path class="cls-1" d="M499.29,163.11h-14.71c5.83-1,4.5-5.85,4.53-9.91.04-7.12.02-14.25,0-21.39-.02-5.43-.04-5.43-4.71-7.2h22.92v7.71c-1.44-7.01-6.36-6.71-11.33-6.26-2.09.19-3.34,1.18-3.3,3.69.07,4.18.02,8.36.02,12.49,5.76,1.63,9.19.65,12.2-4.24v11.09c-2.55-6.48-7.52-4.04-12.18-4.29,0,4.67-.19,9.12.14,13.53.09,1.18,1.62,2.55,2.78,3.25,1.02.62,2.44.44,3.69.62-.02.3-.02.6-.04.9"/>
      <path class="cls-1" d="M687.59,153.35c.56,7.35-.47,8.8-6.59,10.05-8.19,1.67-15.89.84-21.62-6.38-4.64-5.85-6.1-12.93-3.37-20.33,2.83-7.73,8.77-11.46,16.01-12.72,2.76-.47,5.68-.28,8.49.05,6.1.69,7.47,2.99,6.31,9.98-5.47-7.87-10.44-10.12-17.45-7.93-7.66,2.41-11.07,8.79-10.18,19.01.77,8.98,8.24,17.4,15.57,17.56,5.11.11,8.94-2.09,11.16-7.26.26-.62.63-1.18.97-1.76.05-.09.23-.09.7-.28"/>
      <path class="cls-1" d="M799.41,123.73c-.18,3.06-.39,6.63-.62,10.42-1.32-2.69-1.95-5.78-3.71-7.06-1.76-1.3-4.67-1.11-7.03-.88-1,.11-2.62,1.95-2.64,3.04-.21,9.65-.04,19.31-.18,28.98-.05,4.24,3.29,3.29,5.2,4.82h-14.16c-.05-.16-.09-.32-.12-.47.76-.25,1.49-.67,2.27-.7,2.3-.14,3.15-1.51,3.15-3.83-.02-9.52.09-19.05-.16-28.56-.02-1.21-1.65-3.11-2.83-3.43-5.17-1.35-7.77.7-11.28,8.93.25-4.62.44-8.14.6-11.25h31.51Z"/>
      <path class="cls-1" d="M514.95,124.56h13.18c-4.89.49-5.1,4.02-5.03,8.1.12,7.84.11,15.68,0,23.51-.05,3.81,1.18,5.9,4.96,5.48.51-.05,1.04-.02,1.55,0,5.43.26,10.95.72,12.62-7.15v8.45h-27.54q5.06-2.39,5.08-8.68c0-7.42,0-14.83-.02-22.25,0-5.64-.07-5.73-4.8-7.47"/>
      <path class="cls-1" d="M737.93,124.56h13.14c-5.92.4-4.89,5.17-4.9,9.19-.04,7.56.04,15.11-.04,22.67-.04,3.62,1.21,5.59,4.78,5.25.9-.09,1.81-.09,2.71,0,5.31.49,9.95-.25,11.55-7.15v8.52h-27.06c5.97-.6,4.62-5.47,4.66-9.42.07-7.28-.11-14.57.07-21.83.11-3.99-.67-6.73-4.9-7.24"/>
      <path class="cls-1" d="M648.77,163.14c-.42.07-.86.18-1.28.18-3.95.02-7.91.02-12.32-.42,6.85-.46,5.32-5.68,5.36-9.88.05-6.99.02-13.99,0-21,0-5.57-.16-5.76-5.01-7.36h13.18c-1.39,1.04-3.48,1.79-4.22,3.32-.81,1.7-.47,4.09-.49,6.19-.04,6.71,0,13.44-.04,20.16-.02,3.9-.58,8.12,4.82,8.82"/>
    </g>
  </g>
</svg>