<?xml version="1.0" encoding="UTF-8"?>
<svg id="_Слой_1" xmlns="http://www.w3.org/2000/svg" version="1.1" viewBox="0 0 2233 316.2">
  <!-- Generator: Adobe Illustrator 29.1.0, SVG Export Plug-In . SVG Version: 2.1.0 Build 142)  -->
  <defs>
    <style>
      .st0 {
        fill: #bdd137;
      }

      .st1 {
        fill: #0d0802;
      }
    </style>
  </defs>
  <path class="st1" d="M411,22.2l-63.4,75.2,106.5,196.7h-26.6l-96.1-177.5-35.4,41.8.3,135.7h-23.9l.3-271.7h23.1l.2,99.9,84.4-100h30.6Z"/>
  <path class="st1" d="M864.5,22.2l-134.2,271.9h-26.1l57.5-116.3-81.1-155.7h27.6l66.4,129.5,63.9-129.5h26.1-.1Z"/>
  <path class="st1" d="M1011.5,135.5c0,31.1-10.7,57.7-32.1,79.8-21.4,22.1-47.2,33.1-77.2,33.1s-3.2,0-4-.3v46.1h-22.8V22.3h26.8c30.1,0,55.8,11.1,77.2,33.3,21.4,22.2,32.1,48.8,32.1,80h0ZM988.7,135.5c0-24.6-8.5-45.7-25.4-63.2-17-17.5-37.3-26.3-61.1-26.3h-3.4l-.3,178.5h3.7c23.8,0,44.1-8.7,61.1-26.2s25.4-38.4,25.4-62.8h0Z"/>
  <path class="st1" d="M1064,68.3c.6-.2,2-.3,4-.3,27.4,0,51.8,9.5,73.2,28.4,7,6.7,12.9,13.8,17.7,21.1,4.8,7.4,8.7,14.7,11.6,22.1,2.9,7.4,5,14.6,6.3,21.8s2,13.7,2,19.6c0,31.1-10.9,57.8-32.7,80.1-21.6,22.1-47.7,33.1-78.1,33.1h-26.9V22.3h105.9v23.7h-83.1v22.4h0ZM1155.1,180.9c0-24.4-8.6-45.3-25.6-62.8-17.1-17.5-37.6-26.2-61.4-26.2h-4l.6,178.5h3.4c23.9,0,44.4-8.7,61.4-26.2,17.1-17.9,25.6-39,25.6-63.4h0Z"/>
  <path class="st1" d="M1566.8,294.2h-23.4v-74.5h-135.4v74.5h-23.4V22.2h23.4v173.5h135.4V22.2h23.4v272Z"/>
  <path class="st1" d="M1777.3,294.2h-23.6l.2-226.1-136.2,226.1h-23.9V22.2h23.6l-.7,227.6,137.4-227.6h23.2v272h0Z"/>
  <path class="st1" d="M1364.7,294.2h-23.8l-23.8-72.1h-89.6l-24,72.1h-23.6l92.4-277.7,92.4,277.7ZM1309.3,198.9l-36.9-111.5-37.2,111.5h74.1Z"/>
  <path class="st1" d="M213.7,58c-27.9-27.9-61.8-41.6-100.9-41.6S40.3,30.4,12.7,58.3c-4.8,4.8-9,9.9-12.9,15l19.8,15c3.3-4.2,6.3-8.4,10.2-12.4,23-23,50.8-34.7,83.1-34.7s60.2,11.1,83.2,34.1,27.9,37.1,32.3,59.6h-114.7v24.1h116.9c0,32.3-12.3,59.6-35.3,82.5-23,23-50,33.2-82.5,33.2s-58.9-11.3-81.9-34.3c-3.9-3.9-7.6-7.3-10.8-11.6L-.3,244.2c4,5.1,8.2,10.2,12.9,15,27.6,27.7,61.8,40.6,101,40.6s71.8-13,99.8-40.8c27.9-27.8,41.9-61.2,41.9-100.2s-13.6-73-41.6-101v.2Z"/>
  <path class="st1" d="M1836.3,258.4c28,27.9,61.9,41.6,101.1,41.6s72.7-14,100.3-41.9c4.8-4.8,9-9.9,12.9-15l-19.8-15c-3.3,4.2-6.3,8.4-10.3,12.4-23,23-50.8,34.7-83.2,34.7s-60.3-11.1-83.3-34.1-34.6-51.1-34.6-83.7,12.3-59.6,35.3-82.7c23-23,50.1-33.2,82.6-33.2s59,11.3,82.1,34.3c4,3.9,7.6,7.3,10.8,11.6l20.4-15.4c-4-5.1-8.2-10.2-13-15-27.7-27.7-61.9-40.6-101.2-40.6s-71.9,13-99.9,40.8-41.9,61.2-41.9,100.2,13.7,73.1,41.6,101h0Z"/>
  <polygon class="st1" points="2233 22.2 2051.5 22.2 2051.5 43.4 2130.5 43.4 2130.5 294.2 2154 294.2 2154 43.4 2233 43.4 2233 22.2"/>
  <circle class="st0" cx="566.5" cy="158.4" r="125.5"/>
  <path class="st1" d="M666.8,58.2c-27.8-27.8-61.3-41.8-100.3-41.8s-72.3,13.9-99.8,41.8c-27.5,27.8-41.3,61.3-41.3,100.3s13.8,72.4,41.3,100,60.8,41.4,99.8,41.4,72.5-13.9,100.3-41.6,41.7-61,41.7-99.8-13.9-72.5-41.7-100.3h0ZM572.5,41.2c27.7,1.3,51.8,11.2,72.3,29.8l-72.3,72.3V41.2ZM560.5,155.3l-37.5,37.5V49.1c11.7-4.7,24.2-7.3,37.5-7.9v114.1h0ZM569.3,164.1h114.4c-.6,13.3-3.2,25.8-7.8,37.5h-144.2l37.5-37.5h0ZM683.7,152.1h-102.4l72.3-72.3c18.7,20.5,28.8,44.6,30.1,72.3h0ZM449.4,158.5c0-32.4,11.5-60.1,34.4-83s17.3-15.1,26.8-20.4v150.2l-31.3,31.3c-20-22-29.9-48-29.9-78h0ZM649.5,241.2c-22.9,22.9-50.6,34.4-83,34.4s-56.3-10.1-78.4-30.3l31.3-31.3h150.7c-5.3,9.7-12.2,18.7-20.6,27.2h0Z"/>
</svg>