<svg xmlns="http://www.w3.org/2000/svg" viewBox="0 0 469.71 239.38"><defs><style>.cls-1{fill:#1d1d1b;}</style></defs><title>Asset 1</title><g id="Layer_2" data-name="Layer 2"><g id="Layer_1-2" data-name="Layer 1"><polygon class="cls-1" points="147.32 238.16 147.09 204.35 131.37 231.5 120.73 231.5 105.01 205.55 105.01 238.16 82.79 238.16 82.79 163.88 102.92 163.88 126.52 203.4 149.4 163.88 169.52 163.88 169.52 238.16 147.32 238.16"/><polygon class="cls-1" points="243.3 219.35 243.3 238.16 183.16 238.16 183.16 163.88 241.91 163.88 241.91 182.7 207.22 182.7 207.22 191.5 237.74 191.5 237.74 209.6 207.22 209.6 207.22 219.35 243.3 219.35"/><path class="cls-1" d="M270.12,235.07a37,37,0,0,1-14.34-13.81,41.14,41.14,0,0,1,0-40.47A37,37,0,0,1,270.12,167a42,42,0,0,1,20.58-5,43.37,43.37,0,0,1,18.74,3.8,36.67,36.67,0,0,1,13.65,11l-15.27,14c-4.39-5.71-9.7-8.81-15.73-8.81-5.08,0-9.24,1.65-12.25,5s-4.62,7.86-4.62,13.57,1.62,10.24,4.62,13.58,7.17,5,12.25,5c6,0,11.34-2.84,15.73-8.8l15.27,14a33.1,33.1,0,0,1-13.65,11,43.37,43.37,0,0,1-18.74,3.79,33.59,33.59,0,0,1-20.58-4"/><polygon class="cls-1" points="393.85 183.4 372.8 183.4 372.8 238.16 348.76 238.16 348.76 183.4 327.71 183.4 327.71 163.88 393.85 163.88 393.85 183.4"/><path class="cls-1" d="M432.93,207.21,426,188.41l-6.94,18.8Zm6.71,18.1H412.12l-4.85,12.85H382.53l31.67-74.29H438l31.68,74.29H444.49Z"/><path class="cls-1" d="M155.18,66.26c2.32-1.42,4.62-1.42,5.55-.23s.69,3.32-.93,5.94c-4.14,6.19-14.56,11.19-24,11.67,5.08-6,12.25-13.34,19.42-17.38m216,9.52a181,181,0,0,1-30.52,30.72c-.71.48-1.62,1.2-2.55,1.9-14.57,10.72-14.34,6.19-14.11,2.39.7-9.3,9.26-23.58,14.34-32.14,1.16-1.44.45-5.24-.92-6.68-.47-.47-1.86-1.42-3.71.48C330,76,325.17,81,320.32,86.26c-9.95,10.72-21.28,22.86-31,28.82-1.85,1.18-3.46,1.42-4.4.7-1.16-1-1.16-3.57-.22-7.13,2.54-9.77,13.88-28.1,22.89-39.53,2.08-2.61,1.16-4.06.46-4.53a4,4,0,0,0-5.08,1.2c-6.25,7.62-18.5,25.48-23.37,39.29a7.43,7.43,0,0,0-1.39.7c-.46.25-2.07,1.44-4.15,2.87-14.56,10.7-14.34,6.18-14.11,2.37.69-9.28,9.25-23.57,14.34-32.14,1.16-1.43.46-5.24-.93-6.66-.46-.48-1.84-1.43-3.71.47-3.69,3.57-8.54,8.58-13.41,13.81-7.62,8.09-16,17.14-23.81,23.57h-.7c-1.39,0-3.69,1-3.69,2.39,0,.47.23.7.46.7a32.67,32.67,0,0,0-3,2.15c-1.84,1.19-3.48,1.44-4.39.72-1.16-1-1.16-3.57-.23-7.16,2.55-9.75,13.87-28.08,22.9-39.52,2.07-2.62,1.14-4,.45-4.51A4,4,0,0,0,239.13,66c-7.17,8.81-22.2,31-25,44.76a20.26,20.26,0,0,0-.46,4.29,9,9,0,0,0,2.78,5.94,5.69,5.69,0,0,0,3.92,1.44c2.77,0,6.48-2.15,11.33-6.2-2.3,5-4.62,9.29-12.48,17.87-6.94,7.61-15.72,13.09-23.37,13.09-3.23,0-10.63-1.67-9.7-12.62.69-7.15,3.69-16.43,8.31-26.67a149.18,149.18,0,0,1,17.82-30c.92-1.2,1.39-2.15,1.16-3.09,0-.48-.47-1-1.16-1.2-1.39-.72-3-.72-5.32.47l-4.85,10.25c-.46.72-1.16,1.67-1.62,2.37a117.21,117.21,0,0,0-22.9,1.92,82.3,82.3,0,0,1,3.92-7.38c.7-.72,1.39-1.2,1.86-1.67a1.9,1.9,0,0,0,.46-.95V78.4l2.78-3.56a2.78,2.78,0,0,0,.68-1.43c0-.24-.23-.49-.45-.72a5.28,5.28,0,0,0-5.08,2.15l-4.4,6a30.2,30.2,0,0,1-6.25,2.13c-5.08.24-13.64.49-22,.49,6.94-1.91,12.5-5.48,14.8-9.77A11.25,11.25,0,0,0,162.58,62,6.81,6.81,0,0,0,155,59.83c-13.65,5.23-35.62,29.05-36.53,49.77-.48,12.86,13.18,21.42,33.53,4.51,1.16-1,.93-1.65.68-1.9-.45-.72-1.38-.47-2.53,0-23.37,14.76-27.29,1-27.06-2.61.46-8.33,5.32-16.19,10.18-22.87,11.33,0,31.68,0,37.92-1,.93-.23,1.84-.47,2.55-.7-1.16,1.42-2.08,3.09-3.24,4.76-.24,0-.24,0-.45.23-.48.25-.71.48-1.16.48a12.27,12.27,0,0,0-3,1.89c-2.3,1.92-1.84,3.82-.91,5,0,.25.23.25.46.48a127,127,0,0,0-7.63,14c-1.62,3.57.69,4.52.69,4.52,1.86.48,3.93,1.2,5.09.25.93-.72,6.94-14.54,12-25.26a69.35,69.35,0,0,1,21.51-.7c-3.23,5.24-6.47,10.95-9.72,17.38-5.53,11.42-8.31,20-8.78,26.19s.47,10.47,3.48,14c1.84,2.13,16.41,13.57,39.08-12.38,9.72-11,13.64-22.15,13.64-22.87v-.23c6.48-5.71,14.81-14.28,25-25,1.15-1.2,3.47-1,2.31,1.67-.23.72-6,11.89-6.47,22.86-.48,10.47,6.71,8.08,7.63,7.61,1.84-.72,10.87-6.91,14.79-10.25a33.61,33.61,0,0,0-.45,4.29,8.93,8.93,0,0,0,2.77,6,5.73,5.73,0,0,0,3.94,1.42c6.69,0,19.19-12.14,39.31-33.56,1.16-1.2,3.46-1,2.3,1.67-.23.72-6,11.89-6.47,22.86-.45,10.47,6.72,8.08,7.63,7.61,2.32-.72,15-9.75,16.89-11.9.46-.24.7-.72.93-1,.91-1,2.07-1.91,3-2.86A191.82,191.82,0,0,0,370,79.12c.93-1.19,1.85-2.39,2.78-3.56.23.22-1.39-.25-1.62.22"/><path class="cls-1" d="M322.62,62.21c1.39.72,3.69.25,6.47-1.19,13.65-6.43,19.67-23.57,19-24.76-.47-.95-7.17,20.72-22,17.15h-.46c-3-.47-3.71,2.37-4.17,3.81,0,.23-.22.71-.22,1-.46,1.67-.46,3.32,1.38,4"/><path class="cls-1" d="M99.45,105.55c1.16-2.62,4.17-8.33,4.4-9.28,1.38,2.14,2.31,6.66-4.4,9.28M64.29,149.6c-21,21.67-56.2-1.67-13.41-26.2,9.72-5.71,40.24-12.14,40.24-12.14C81.4,131,72.86,140.78,64.29,149.6m28-42.38s-26.36,5.23-33.07,7.13c-39.08,11.19-45.8,34.29-34.69,46.43,5.32,6,30.07,12.86,49-11.9,12-15.71,23.13-38.57,23.13-38.57s5.09-1.9,7.39-2.87c3.71-1.89,7.17-8.08,1.16-15,4.4-9,7.4-14.76,9.72-19.52,1.62-3.81,3.92-5.24,7.4-10.24s8.33-14.52,5.55-16.44c-6.94-4.51-14.81,13.11-18.5,22.16-.23.48-17.12,38.81-17.12,38.81"/><path class="cls-1" d="M53,33.4C87.88,13.16,146.4,1.74,178.09,1.74c0,0,4.16-2.15-7.17-1.67-29.39.72-69.15,8.33-90,14.29C48.57,23.88,28.68,40.07,22.21,46,7.17,60.08,0,72.7,0,88.88,0,96,3.94,104.59,9.49,108.64c5.32,3.58,11.79,5.25,19.19,5C41,113.4,56,108.88,73.32,100.55c4.85-2.39,9.94-5,14.56-7.85,3-1,2.55-5.24,1.39-7.16A4.67,4.67,0,0,0,87.2,83.4a4.11,4.11,0,0,0-2.32-1c-1.16.25-5.33,9.28-6,10.48C57.82,103.87,40.7,110.55,28,109.13c-13.88-1.67-19.2-11.92-15.27-27.87C17.34,61.5,29.15,47.22,53,33.4"/></g></g></svg>