<svg width="101" height="100" viewBox="0 0 101 100" fill="none" xmlns="http://www.w3.org/2000/svg">
<g clip-path="url(#clip0_3040_216)">
<path d="M93.4965 13.6926C87.0259 2.74391 77.7124 1.58716 71.9727 1.26435C62.3073 0.726328 52.2088 0.26901 42.5434 0C28.14 0.26901 10.1358 1.04914 5.10007 17.0553C4.88348 18.0775 4.31493 20.8752 3.611 24.8297C3.611 24.8566 3.611 24.8566 3.611 24.8566C3.55686 25.1525 3.50271 25.4484 3.44856 25.7443C3.44856 25.7712 3.44856 25.7712 3.44856 25.7981C3.39441 26.094 3.34026 26.3899 3.28612 26.7127C3.28612 26.7396 3.28612 26.7665 3.25904 26.7934C3.2049 27.0893 3.15075 27.3853 3.12367 27.6812C3.12367 27.735 3.0966 27.7888 3.0966 27.8157C3.04245 28.1116 2.9883 28.4075 2.93416 28.7303C2.93416 28.7841 2.90708 28.8379 2.90708 28.8917C2.85293 29.1876 2.79879 29.5104 2.77171 29.8332C2.77171 29.887 2.74464 29.9409 2.74464 29.9947C2.69049 30.3175 2.63634 30.6403 2.60927 30.9362C2.60927 31.0169 2.58219 31.0707 2.58219 31.1245C2.52805 31.4204 2.50097 31.7432 2.44682 32.066C2.44682 32.1467 2.41975 32.2274 2.41975 32.3081C2.3656 32.6041 2.33853 32.9269 2.28438 33.2497C2.25731 33.3304 2.25731 33.4111 2.23023 33.5187C2.20316 33.8415 2.14901 34.1374 2.09486 34.4602C2.09486 34.5678 2.06779 34.6485 2.06779 34.7561C2.01364 35.052 1.98657 35.3749 1.93242 35.6977C1.90534 35.8053 1.90535 35.9129 1.87827 35.9936C1.8512 36.2895 1.79705 36.6123 1.76998 36.9351C1.7429 37.0427 1.7429 37.1772 1.71583 37.2848C1.66168 37.5807 1.63461 37.9036 1.58046 38.2264C1.55338 38.334 1.55338 38.4685 1.52631 38.5761C1.47216 38.8989 1.44509 39.1948 1.41801 39.5176C1.41801 39.6521 1.39094 39.7597 1.36387 39.8942C1.33679 40.217 1.28264 40.513 1.25557 40.8358C1.2285 40.9703 1.2285 41.1317 1.20142 41.2662C1.17435 41.5621 1.14727 41.8849 1.09313 42.1808C1.09313 42.3691 1.09313 42.5036 1.06605 42.665C1.03898 42.961 1.0119 43.2569 0.957756 43.5797C0.957756 43.7411 0.930682 43.9025 0.903609 44.0639C0.876535 44.3598 0.849461 44.6557 0.822387 44.9247C0.795313 45.113 0.768239 45.2744 0.768239 45.4627C0.741165 45.7587 0.714091 46.0277 0.687017 46.3236C0.659943 46.5119 0.632869 46.6733 0.632869 46.8616C0.605795 47.1575 0.578721 47.4265 0.551647 47.7224C0.524573 47.9107 0.524573 48.099 0.497499 48.3143C0.470425 48.5026 0.470425 48.6909 0.470425 48.8792C-0.666681 63.6747 -0.179349 79.923 5.5874 89.0424C6.4267 90.2261 11.5978 99.2379 25.8117 99.9104C31.3347 100.153 68.1282 99.9104 76.0338 99.1034C97.2057 96.9782 98.6406 81.0259 99.155 77.7978C99.1821 77.5557 100.509 60.4197 100.915 48.7985C100.969 47.1306 100.996 45.5704 101.023 44.1984C101.158 33.2766 99.0467 23.0811 93.4965 13.6926ZM39.1862 75.7533C31.9033 74.5159 29.6562 70.8842 29.223 70.2655C26.3261 65.6116 25.8929 57.8641 26.2448 50.2511C26.2448 50.1435 26.2448 50.0628 26.2719 49.9552C26.2719 49.8476 26.2719 49.7669 26.299 49.6593C26.299 49.5248 26.299 49.3634 26.3261 49.2289C26.3261 49.1213 26.3261 49.0406 26.3531 48.9599C26.3531 48.7985 26.3802 48.664 26.3802 48.5026C26.3802 48.4219 26.3802 48.3143 26.4073 48.2336C26.4073 48.0721 26.4344 47.9376 26.4344 47.7762C26.4344 47.6955 26.4614 47.6148 26.4614 47.5341C26.4614 47.3727 26.4885 47.2113 26.4885 47.0768C26.4885 46.9961 26.4885 46.9154 26.5156 46.8347C26.5156 46.6733 26.5426 46.5119 26.5426 46.3505C26.5426 46.2698 26.5697 46.216 26.5697 46.1353C26.5968 45.9739 26.5968 45.8125 26.6239 45.6511C26.6239 45.5703 26.6239 45.5165 26.6239 45.4627C26.6509 45.3013 26.6509 45.1399 26.678 44.9785C26.678 44.9247 26.678 44.844 26.678 44.7902C26.7051 44.6288 26.7051 44.4674 26.7322 44.306C26.7322 44.2522 26.7592 44.1715 26.7592 44.1446C26.7863 43.9832 26.7863 43.8218 26.8134 43.6604C26.8134 43.6066 26.8134 43.5528 26.8405 43.499C26.8675 43.3376 26.8675 43.1762 26.8946 43.0148C26.8946 42.9609 26.8946 42.9071 26.9217 42.8533C26.9488 42.6919 26.9758 42.5305 26.9758 42.3691C26.9758 42.3153 27.0029 42.2884 27.0029 42.2346C27.03 42.0732 27.03 41.9118 27.0571 41.7773C27.0571 41.7235 27.0571 41.6966 27.0571 41.6428C27.0841 41.4814 27.1112 41.32 27.1112 41.1586C27.1112 41.1317 27.1112 41.1048 27.1383 41.0779C27.1653 40.9165 27.1653 40.7551 27.1924 40.5937C27.1924 40.5668 27.1924 40.5399 27.1924 40.513C27.2195 40.3516 27.2466 40.1901 27.2466 40.0287C27.2466 40.0018 27.2466 39.9749 27.2466 39.948C27.2736 39.7866 27.3007 39.6252 27.3007 39.4907C27.3007 39.4638 27.3007 39.4369 27.3007 39.41C27.3278 39.2486 27.3278 39.0872 27.3549 38.9527C27.3549 38.9527 27.3549 38.9258 27.3549 38.8989C27.3549 38.7375 27.409 38.603 27.409 38.4416V38.4147C27.4361 38.2533 27.4632 38.0919 27.4902 37.9574C27.4902 37.9574 27.4902 37.9574 27.4902 37.9305C27.788 35.886 28.0317 34.4602 28.1129 33.9222C29.7915 26.8472 39.0779 25.2063 46.063 25.018C50.7468 25.1256 56.3781 25.1256 61.0349 25.3677C63.8235 25.5022 68.3719 26.0402 71.6479 31.6625C74.4636 36.4509 74.9238 41.8849 75.005 47.4803C75.005 48.1798 75.0321 48.9868 75.005 49.8476C74.978 55.8196 74.5177 63.7285 74.5177 63.8631C74.5177 66.7146 72.5413 74.5966 62.3073 75.8071C58.4899 76.1568 41.8665 76.2106 39.1862 75.7533ZM89.3542 34.8099L83.2355 38.4685C82.9648 38.6299 82.8023 38.8182 82.8836 39.3831L82.4504 39.4369C82.3962 38.872 82.2879 38.065 82.2608 37.769C82.1526 36.8813 82.0443 36.2895 82.0172 36.1012L82.4504 36.0474C82.5316 36.693 82.6399 36.8275 82.8565 36.8006C82.9918 36.7737 83.2626 36.6123 84.6163 35.8591L84.2914 33.438C82.8023 33.0614 82.4774 33.0076 82.3962 33.0345C82.1255 33.0614 82.0713 33.2497 82.1526 33.9491L81.7194 34.0029C81.6652 33.4918 81.6111 33.0883 81.584 32.7386C81.5299 32.3888 81.4486 31.8777 81.3945 31.528L81.8277 31.4742C81.9089 32.0122 82.0984 32.1736 82.5857 32.3081L89.273 34.0567L89.3542 34.8099ZM88.0005 50.3587C88.0005 50.3856 88.0005 50.4394 88.0005 50.4663C88.0005 50.7354 87.9464 51.1658 87.9464 51.1927C87.9464 51.2734 87.8922 51.65 87.4049 51.7038C87.2154 51.7307 86.349 51.7307 86.2407 51.7307C85.8888 51.6769 85.7805 51.4886 85.7805 51.4617C85.6451 51.2465 85.6451 50.843 85.6722 50.4932C85.6722 50.4932 85.6722 50.4932 85.6722 50.4663V50.4394C85.6722 50.4394 85.6722 50.4394 85.6722 50.4125C85.6722 50.4125 85.6722 50.4125 85.6722 50.3856C85.6722 50.3856 85.6722 50.3856 85.6722 50.3587V50.3318V50.3049C85.6722 50.278 85.6722 50.278 85.6722 50.278V50.2511V50.2242V50.1973C85.6722 50.1704 85.6722 50.1704 85.6722 50.1704V50.1435V50.1166C85.6722 50.1166 85.6722 50.1166 85.6722 50.0897V50.0628V50.0359V50.009V49.9821V49.9552C85.6722 49.9552 85.6722 49.9552 85.6722 49.9283C85.6722 49.9283 85.6722 49.9283 85.6722 49.9014C85.6722 49.7938 85.6992 49.74 85.6992 49.7131C85.8075 49.3903 86.2407 49.3096 86.5927 49.3096C86.8093 49.3096 87.0529 49.3365 87.2695 49.3365C87.4049 49.3365 87.6215 49.3634 87.7569 49.6324C87.9735 49.8207 88.0005 50.0897 88.0005 50.3587ZM74.8155 21.7091C75.4111 22.3279 75.5736 22.2472 76.0609 21.7898L79.5535 18.3734C80.0408 17.9161 80.122 17.7816 79.4993 17.136L79.8242 16.84C79.9866 17.0015 80.3386 17.405 81.0155 18.1044C81.4216 18.5348 81.936 18.9921 82.1796 19.2611L81.8547 19.5571C81.2591 18.9652 81.1237 18.9921 80.6093 19.4763L78.9578 21.0904L83.1272 21.198C83.2897 21.198 83.425 21.1711 83.5063 21.0904L83.6958 20.9021L85.1036 22.301L84.8058 22.5969C84.4809 22.2741 84.156 22.005 83.6958 21.9781L80.1762 21.8167L79.743 26.2016C79.7159 26.6051 79.8513 26.8472 80.2032 27.1969L79.9054 27.4929L78.4705 26.0402L78.9037 21.5746L78.5246 21.5208L77.1168 22.9197C76.6024 23.4039 76.6024 23.5653 77.1709 24.1571L76.8461 24.453C76.7648 24.3454 76.0068 23.5384 75.709 23.2694C75.2487 22.8121 74.6531 22.2203 74.4636 22.0588L74.8155 21.7091ZM60.9537 17.8085C61.7929 17.9699 61.9012 17.8623 62.0366 17.1898L62.9842 12.4283C63.1196 11.7827 63.0925 11.6212 62.2261 11.4598L62.3073 11.0294C62.5239 11.0832 63.0654 11.2177 64.013 11.406C64.6086 11.5136 65.2855 11.6212 65.6374 11.7019L65.5562 12.1324C64.744 11.971 64.6357 12.0786 64.4733 12.7511L63.5257 17.4857L68.1283 12.1862L70.5378 12.6704L70.4566 13.0739C69.5902 12.9125 69.509 13.047 69.4007 13.6926L68.4531 18.4541C68.3178 19.1535 68.399 19.288 69.1841 19.4494L69.1029 19.8799C68.9946 19.853 67.8846 19.6109 67.4785 19.5301C66.8287 19.3956 66.0165 19.2611 65.7728 19.2342L65.854 18.8038C66.6933 18.9652 66.7746 18.8307 66.9099 18.1851L67.8575 13.4236L63.2549 18.7231L60.8454 18.2389L60.9537 17.8085ZM47.8228 17.4588C48.6891 17.4588 48.7433 17.3243 48.7433 16.6517V11.7827C48.7433 11.0832 48.6621 10.9756 47.8228 10.9756V10.5452C48.283 10.5452 48.8787 10.5721 49.5284 10.5721C50.3136 10.5721 50.6385 10.5452 51.7485 10.5452C52.8585 10.5452 53.8873 10.8411 53.8873 12.1324C53.8873 13.585 52.7502 14.4459 51.3424 14.4459C51.1529 14.4459 50.9092 14.419 50.7738 14.3652L50.6114 13.854C50.7738 13.9078 51.0175 13.9616 51.1529 13.9616C51.938 13.9616 52.3441 13.0739 52.3441 12.4014C52.3441 11.5405 51.9922 11.1101 50.9904 11.1101C50.6655 11.1101 50.4219 11.1101 50.2865 11.137V16.6786C50.2865 17.405 50.3948 17.4857 51.207 17.4857V17.943C51.0717 17.9161 49.9616 17.9161 49.5555 17.9161C48.9057 17.9161 48.0664 17.9161 47.8228 17.943V17.4588ZM34.1775 11.8903C35.0439 11.7289 35.7478 11.5943 36.3705 11.4867C36.9932 11.3791 37.7783 11.2715 37.9679 11.2446C37.9137 11.7019 37.8866 12.2938 38.022 12.9394L37.5617 13.0201L37.3993 12.1324C36.9932 12.0248 36.5871 12.0248 36.0998 12.1324C35.8019 12.1862 35.4229 12.2938 35.0709 12.4821L36.0998 18.4003C36.2622 18.4003 36.5871 18.3465 36.6954 18.3465C37.9137 18.1313 38.1032 17.3512 37.9408 16.4365C37.7513 15.4143 37.3993 15.0108 36.4788 15.1453C36.3434 15.1722 36.2351 15.226 36.0998 15.2798L35.8561 14.7956C36.0185 14.7149 36.181 14.6073 36.3976 14.5804C37.9137 14.3114 39.2945 14.6073 39.5381 16.033C39.8089 17.5395 38.5906 18.6155 36.8308 18.9114C36.5871 18.9652 35.9102 19.0459 35.4229 19.1266C34.8002 19.2342 33.988 19.3956 33.7985 19.4494L33.7172 19.019C34.5565 18.8845 34.6107 18.75 34.4753 18.0506L33.636 13.2622C33.5277 12.5897 33.4194 12.4821 32.5801 12.6166L32.4989 12.1862C33.0675 12.0517 33.3924 12.0248 34.1775 11.8903ZM20.7488 17.5664L27.0841 20.8214C27.3819 20.9828 27.5985 21.0097 28.0317 20.6331L28.3025 20.9828C27.8693 21.3056 27.2195 21.8167 26.9758 22.0319C26.2719 22.5969 25.8117 23.0004 25.6763 23.1349L25.4055 22.7852C25.9199 22.3548 25.9741 22.2203 25.8387 22.0588C25.7575 21.9512 25.4597 21.7898 24.106 21.0635L22.2108 22.5969C22.6711 24.0495 22.8064 24.3723 22.8606 24.4261C23.023 24.6413 23.2126 24.6144 23.7811 24.1571L24.0518 24.5068C23.6457 24.8297 23.3208 25.0718 23.0501 25.287C22.7794 25.5022 22.3733 25.825 22.1296 26.0671L21.8589 25.7174C22.292 25.3677 22.3191 25.0987 22.1837 24.6413L20.1803 18.0775L20.7488 17.5664ZM11.9498 33.7608C12.031 33.169 12.1122 32.4964 12.1664 32.1198L12.5996 32.1736C12.4913 32.9269 12.5454 33.0883 13.2223 33.1959C13.1681 32.9269 13.0598 32.4964 13.0869 32.3081C13.3306 30.6672 14.2781 29.7256 16.2004 29.9947C18.1768 30.2906 18.7724 31.6356 18.5558 32.9807C18.4746 33.3573 18.3392 33.5994 18.1226 33.9222C18.1768 33.9222 18.3934 33.9491 18.4205 33.976C18.989 34.0298 19.0973 33.9222 19.2056 33.169L19.6388 33.2228C19.5846 33.3304 19.4222 34.4333 19.368 34.8637C19.2598 35.5094 19.1515 36.3164 19.1515 36.5585L18.7183 36.5047C18.8266 35.7246 18.7453 35.5901 18.2039 35.5094C18.1497 35.5094 17.9602 35.4825 17.9061 35.4556C17.9602 35.7246 18.0956 36.155 18.0685 36.3433C17.8248 37.9843 16.7689 38.9258 14.9821 38.6568C12.9786 38.3609 12.41 36.9889 12.6266 35.6439C12.7079 35.2673 12.8703 35.0251 13.0327 34.7292C12.4371 34.6485 12.2747 34.6754 12.1393 35.5363L11.7061 35.4825C11.679 35.2404 11.7873 34.7023 11.9498 33.7608ZM15.334 50.3587C15.334 50.3856 15.334 50.4394 15.334 50.4663C15.307 50.7354 15.2799 51.1658 15.2799 51.1927C15.2799 51.2734 15.2257 51.65 14.7384 51.7038C14.5489 51.7307 13.7096 51.7307 13.5742 51.7307C13.2223 51.6769 13.141 51.4886 13.114 51.4617C12.9786 51.2465 12.9786 50.843 13.0057 50.4932C13.0057 50.4932 13.0057 50.4932 13.0057 50.4663C13.0057 50.4663 13.0057 50.4663 13.0057 50.4394C13.0057 50.4394 13.0057 50.4394 13.0057 50.4125C13.0057 50.4125 13.0057 50.4125 13.0057 50.3856C13.0057 50.3856 13.0057 50.3856 13.0057 50.3587V50.3318V50.3049C13.0057 50.278 13.0057 50.278 13.0057 50.278V50.2511V50.2242V50.1973C13.0057 50.1704 13.0057 50.1704 13.0057 50.1704V50.1435V50.1166C13.0057 50.1166 13.0057 50.1166 13.0057 50.0897V50.0628V50.0359V50.009V49.9821V49.9552C13.0057 49.9552 13.0057 49.9552 13.0057 49.9283C13.0057 49.9283 13.0057 49.9283 13.0057 49.9014C13.0327 49.7938 13.0327 49.74 13.0598 49.7131C13.1681 49.3903 13.6013 49.3096 13.9533 49.3096C14.1698 49.3096 14.4135 49.3365 14.6301 49.3365C14.7655 49.3365 14.9821 49.3634 15.1445 49.6324C15.307 49.8207 15.334 50.0897 15.334 50.3587ZM18.2039 70.938L18.0414 70.4538L19.0161 70.1579C19.0432 69.7006 18.989 69.2433 18.7995 68.7052C18.6912 68.3824 18.5017 67.952 18.2309 67.6023L12.5183 69.4316C11.7603 69.6737 11.679 69.8082 11.9769 70.6959L11.5166 70.8304C11.4895 70.6959 11.1105 69.4854 10.9751 69.055C10.7585 68.3555 10.4607 67.4678 10.3253 67.1988L10.7856 67.0374C11.0834 67.9789 11.2459 67.9789 11.9769 67.7368L17.148 66.0689C17.879 65.8268 18.0144 65.7192 17.6895 64.7777L18.1497 64.6432C18.3392 65.2619 18.4205 65.6116 18.7183 66.4725C19.0161 67.3871 19.3139 68.1672 19.5305 68.8397C19.7471 69.4854 20.0178 70.3731 20.072 70.5883C19.5305 70.6421 18.8807 70.7228 18.2039 70.938ZM28.7086 84.3616C27.1653 86.7289 24.7558 86.9979 22.3733 85.4646C20.0449 83.9581 19.4222 81.8329 20.9383 79.5195C22.4816 77.1522 24.8911 76.8832 27.2736 78.4165C29.602 79.923 30.1976 82.0482 28.7086 84.3616ZM45.0342 85.2225L44.5198 85.1687L44.6281 84.1733C44.1949 83.9312 43.7617 83.8236 43.1931 83.7429C42.8412 83.6891 42.5704 83.716 42.2997 83.7429L41.6228 89.7688C41.5416 90.5489 41.6228 90.6834 42.5704 90.791L42.5163 91.2752C42.3809 91.2483 41.1084 91.0869 40.6482 91.0331C39.9172 90.9524 38.9696 90.8717 38.6989 90.8448L38.753 90.3606C39.7277 90.4682 39.8089 90.3337 39.8901 89.5804L40.567 83.5546C40.2691 83.447 40.0255 83.3932 39.6194 83.3394C39.132 83.2856 38.6718 83.3125 38.2115 83.447L38.1032 84.4423L37.5888 84.3885C37.67 83.6891 37.6159 83.0973 37.5076 82.5055C37.7783 82.5055 38.401 82.5593 38.7801 82.6131C40.0796 82.7476 40.3504 82.8283 41.5145 82.9628C42.7058 83.0973 43.1931 83.0973 44.1407 83.2318C44.7634 83.2856 45.3861 83.3932 45.5486 83.4201C45.3049 83.9312 45.1154 84.4961 45.0342 85.2225ZM62.0095 90.9524C61.2785 91.0062 60.3309 91.0869 60.0602 91.1407L60.0331 90.6565C61.0078 90.5758 61.0619 90.4144 61.0078 89.6611L60.5746 84.2809L57.1362 91.3559L54.3476 91.5711L54.3205 91.1138C55.2952 91.0331 55.3493 90.8986 55.2952 90.1185L54.862 84.7383C54.8079 84.0119 54.7537 83.8236 53.752 83.9043L53.7249 83.4201C53.9686 83.3932 54.6183 83.3932 55.7013 83.3125C56.3782 83.2587 57.1362 83.1511 57.5694 83.1242L57.6236 83.6084C56.676 83.6891 56.5947 83.8236 56.6489 84.6038L57.0821 90.0109L60.4934 82.9359L63.282 82.7207L63.3362 83.178C62.3344 83.2587 62.3073 83.4201 62.3615 84.1733L62.7947 89.5804C62.8488 90.3875 62.9571 90.4682 63.9047 90.4144L63.9318 90.8986C63.7423 90.8448 62.4698 90.9255 62.0095 90.9524ZM80.4469 84.8459L75.6277 83.2856L75.4653 83.6891L76.6295 85.5722C77.0356 86.2447 77.198 86.2985 78.0102 85.8143L78.281 86.2178C78.1456 86.2716 77.0627 86.9172 76.6565 87.1593C76.0068 87.536 75.2216 88.0471 74.978 88.2085L74.7343 87.7781C75.5736 87.2669 75.5465 87.1055 75.1675 86.4599L72.2976 81.8598C71.9186 81.2142 71.7832 81.1066 70.9169 81.6177L70.6461 81.2142C70.8627 81.0797 71.4313 80.7838 72.3518 80.2189C72.9474 79.8692 73.5701 79.4388 73.9221 79.2235L74.1657 79.6271C73.3535 80.1382 73.3264 80.2727 73.7596 80.9452L75.0862 83.1242L76.3046 78.6048C76.3587 78.4165 76.3587 78.282 76.2775 78.1475L76.1151 77.9054L78.0373 76.7218L78.281 77.0984C77.8207 77.3674 77.4417 77.6633 77.3063 78.1475L76.1963 81.9405L80.9342 83.4739C81.3674 83.6084 81.6652 83.5277 82.1526 83.2318L82.3962 83.6353L80.4469 84.8459ZM90.3289 67.5754C90.0852 68.5707 89.8957 69.2433 89.8686 69.4316L89.3813 69.324C89.5708 68.5976 89.5167 68.4362 89.3001 68.3824C89.1376 68.3286 88.7857 68.3824 87.08 68.6245L86.3761 71.2877C87.7569 72.31 88.0547 72.4983 88.1359 72.5252C88.4337 72.6059 88.5691 72.4445 88.7857 71.6644L89.273 71.7989C89.1106 72.3638 88.9752 72.8211 88.8669 73.1708C88.7586 73.5743 88.6232 74.1123 88.542 74.5159L88.0817 74.3814C88.2442 73.7626 88.0818 73.5205 87.6486 73.1708L81.5028 68.5169L81.7194 67.683L89.625 66.4187C89.9769 66.3648 90.1935 66.2303 90.383 65.6116L90.8433 65.7192C90.6538 66.3379 90.4101 67.2257 90.3289 67.5754Z" fill="#910B26"/>
<path d="M17.2682 33.6841C17.4217 33.494 17.5751 33.2325 17.6519 32.8759C17.7542 32.2342 17.1914 31.8301 15.8612 31.6399C14.2496 31.426 13.5845 31.8063 13.5077 32.2817C13.4565 32.5669 13.3798 32.7809 13.61 33.1612L17.2682 33.6841Z" fill="#910B26"/>
<path d="M21.875 20L22.5933 22.1053L23.9803 21.0526L21.875 20Z" fill="#910B26"/>
<path d="M15.2547 36.7803C16.739 36.9967 17.5323 36.612 17.6091 36.1312C17.6602 35.8427 17.737 35.6263 17.5067 35.2417L13.8473 34.7368C13.6937 34.9291 13.5402 35.1936 13.4634 35.5542C13.3611 36.1793 14.0264 36.612 15.2547 36.7803Z" fill="#910B26"/>
<path d="M87.1365 34.3662L85.0312 33.6842L85.235 35.7895L87.1365 34.3662Z" fill="#910B26"/>
<path d="M86.5147 70.5263L87.1345 68.421L83.9766 68.8421L86.5147 70.5263Z" fill="#910B26"/>
<path d="M27.1516 79.5208C25.1705 78.193 23.7947 79.3795 22.7766 80.9616C21.6759 82.7132 21.4283 84.7473 22.9142 85.7361C24.8953 87.064 26.2711 85.9057 27.2892 84.3236C28.3898 82.5437 28.6375 80.5096 27.1516 79.5208Z" fill="#910B26"/>
<path d="M65.991 61.8197C65.991 60.2943 66.0983 55.4504 66.286 53.6038L68.1898 52.4798L68.0289 51.4629C66.3932 51.5699 65.0257 51.8108 63.4705 51.8108L55.2655 51.6502V52.9348C57.7056 53.0151 59.2608 53.2827 59.9311 53.4165C60.6015 53.5503 61.0305 53.7376 61.1914 54.0053C61.3254 54.2461 61.4327 55.1293 61.4327 56.6012V62.3549C61.4327 63.8536 61.3523 64.9241 61.1914 65.5931C60.2261 66.1016 59.0195 66.5298 57.5983 66.7974C56.1772 67.0918 54.7293 67.2256 53.2277 67.2256C50.0368 67.2256 47.2214 66.5298 44.8082 65.0847C42.4217 63.6663 40.4911 61.6056 39.07 58.9027C37.6489 56.1997 36.9249 53.1756 36.9249 49.8037C36.9249 46.7528 37.5416 43.9428 38.7483 41.3469C39.9817 38.7778 41.7782 36.7974 44.1646 35.4058C46.5511 34.0142 49.3397 33.3451 52.611 33.3451C54.193 33.3451 55.5337 33.4522 56.6867 33.6663C57.8128 33.8804 59.2608 34.3353 61.0037 35.0044C62.0226 35.5128 62.7466 36.0481 63.2024 36.6636C63.4169 37.0918 63.5242 37.4397 63.5242 37.7073C63.551 37.9749 63.551 38.3496 63.5778 38.7778L63.7119 41.6948H65.3207C65.5352 39.0989 65.7229 37.3594 65.857 36.5298C65.991 35.7002 66.2055 34.8438 66.4737 33.9607C63.8191 33.2113 61.4595 32.6493 59.368 32.2211C57.2766 31.8197 55.2655 31.5789 53.3618 31.5789C49.2861 31.5789 45.8807 32.1409 43.1189 33.2113C41.3224 33.9339 39.499 35.0579 37.7025 36.5566C35.906 38.0552 34.4044 39.9821 33.171 42.3103C31.9644 44.6386 31.3477 47.4754 31.3477 50.7938C31.3477 54.594 32.1789 57.8857 33.8681 60.669C35.5574 63.4522 37.917 65.6199 41.0006 67.1721C44.0842 68.7243 47.5968 69.4736 51.5652 69.4736C54.193 69.4736 56.9548 69.206 59.9043 68.644C61.5668 68.3228 63.6851 67.6805 66.286 66.7439C66.0983 65.0311 65.991 63.3719 65.991 61.8197Z" fill="#910B26"/>
</g>
<defs>
<clipPath id="clip0_3040_216">
<rect width="101" height="100" fill="white"/>
</clipPath>
</defs>
</svg>
