<?xml version="1.0" encoding="UTF-8"?>
<svg id="Layer_2" data-name="Layer 2" xmlns="http://www.w3.org/2000/svg" viewBox="0 0 469.31 340.68">
  <g id="Layer_1-2" data-name="Layer 1">
    <g>
      <path d="M249.26,0c1.05.18,2.1.4,3.15.53,14.74,1.91,26.49,12.46,29.93,27,1.97,8.32,1.92,16.6-1.09,24.71-1.91,5.16-4.79,9.73-8.8,13.52-4.53,4.28-9.98,6.67-16.05,7.77-4.34.78-8.72,1.05-13.12,1.1-4.35.06-8.7.01-13.05.01h-1.51c-.36-1.05-.43-12.91-.07-14.52.47,0,.97,0,1.48,0,5.15,0,10.3.08,15.44-.06,5.15-.14,9.99-1.45,14.12-4.72,4.66-3.7,7.09-8.59,7.57-14.48.35-4.34-.07-8.59-1.63-12.69-3.2-8.39-10.59-13.52-19.56-13.62-2.78-.03-5.51.13-8.18.95-5.61,1.71-9.52,5.41-12.17,10.53-2,3.85-2.8,8.01-3.04,12.29-.06,1.17-.07,2.34-.07,3.51,0,23.16-.04,46.32.02,69.49.02,6.54.18,13.1.58,19.63.64,10.43,2.27,20.71,5.2,30.77.44,1.51,1.12,2.86,1.95,4.16,6.71,10.48,16.28,16.82,28.36,19.43,6.78,1.47,13.62,1.59,20.51.96,5.13-.47,10.16-1.57,15.22-2.45,13.47-2.34,26.45-.85,38.83,5.11,4.38,2.11,8.73,4.27,13.14,6.33,3.91,1.83,7.99,3.19,12.31,3.67,1.39.16,2.8.19,4.2.26,8.83.45,15.8,4.45,21.26,11.24,4.2,5.21,6.91,11.19,8.75,17.59.04.13,0,.27,0,.75-.34-.78-.55-1.26-.75-1.74-2.64-6.19-6.23-11.72-11.34-16.17-5.22-4.55-11.26-7.12-18.23-7.33-1.31-.04-2.61-.03-3.92,0-3.34.08-6.62-.35-9.84-1.24-.26-.07-.53-.09-.94-.15.3,1.29.58,2.45.84,3.61.82,3.76,1.46,7.59,1.2,11.41-.44,6.7,2.29,11.99,6.69,16.65,1.73,1.83,3.64,3.48,5.46,5.2,0,0-.08.08-.12.06-5-2.13-9.55-4.94-13.24-8.99-2.25-2.46-3.9-5.27-4.44-8.61-.22-1.38-.26-2.79-.39-4.19-.84-8.5-4.4-15.57-11.05-21-.57-.46-1.24-.85-1.93-1.1-7.08-2.6-14.38-3.56-21.92-2.94-5.52.46-10.9,1.59-16.25,2.96-2.99.77-5.99,1.45-8.99,2.17-.35.08-.69.21-1.13.34.64.78,1.22,1.45,1.77,2.15,2.01,2.56,3.43,5.45,4.81,8.37,1.28,2.7,2.52,5.43,3.95,8.05,2.78,5.12,6.92,8.75,12.38,10.88,3.84,1.5,7.54,3.29,10.95,5.64,2.99,2.06,5.64,4.47,7.5,7.65,2.21,3.78,2.64,7.83,1.82,12.06-.03.14-.08.27-.14.4-.04.08-.11.15-.2.27-.36-1.42-.65-2.82-1.06-4.18-1.79-6.1-5.74-10.33-11.5-12.81-3.43-1.48-6.96-2.73-10.48-3.96-4.99-1.74-9.62-4.09-13.67-7.54-2.79-2.38-5.21-5.11-7.3-8.11-2.35-3.38-4.56-6.85-6.88-10.25-1.32-1.93-2.76-3.78-4.09-5.69-.55-.79-1.17-.99-2.12-.9-5.23.49-10.47.61-15.65-.38-2.19-.42-4.32-1.16-6.48-1.77-.35-.1-.68-.26-1.33-.52.33.73.53,1.22.76,1.7,1.35,2.84,2.43,5.77,2.74,8.93.42,4.32-.61,8.35-2.44,12.22-.16.34-.3.7-.5,1-.92,1.36-1.05,2.79-.73,4.39.81,4.11,2.19,7.92,5.11,11.05,1.99,2.14,4.42,3.56,7.14,4.56,4.75,1.75,9.31,3.89,13.55,6.68,2.75,1.8,5.27,3.88,7.45,6.35,3.78,4.29,5.21,9.26,4.58,14.94-.6,5.44-1.22,10.87-1.07,16.37.09,3.29.5,6.52,1.46,9.68,1.66,5.48,4.85,9.85,9.54,13.14.38.26.75.53,1.03.97-.73-.35-1.48-.69-2.2-1.07-5.88-3.14-10.65-7.42-13.62-13.49-1.79-3.65-2.83-7.54-3.14-11.57-.34-4.47-.4-8.96-.61-13.45-.07-1.44-.15-2.9-.41-4.32-.57-3.13-2.36-5.55-4.74-7.57-1.9-1.62-4.02-2.9-6.24-4.01-1.71-.85-3.46-1.65-5.2-2.45-.41-.19-.84-.32-1.4-.53.11,1.04.25,1.91.3,2.78.21,3.79-.84,7.31-2.49,10.67-.78,1.59-1.72,3.11-2.45,4.73-2.55,5.68-2.79,11.47-.62,17.33.08.21.15.43.32.92-.33-.23-.48-.29-.56-.4-2.74-3.51-4.9-7.3-5.56-11.78-.42-2.86-.1-5.65,1.44-8.12,2.68-4.32,3.26-8.92,2.03-13.75-.54-2.11-1.41-4.15-2.21-6.19-.17-.44-.58-.85-.99-1.11-3.82-2.37-6.93-5.39-8.98-9.61-.29.35-.54.59-.74.88-1.43,2.03-2.76,4.13-4.29,6.07-1.9,2.42-3.99,4.7-5.96,7.07-1.35,1.61-2.75,3.19-3.92,4.93-1.71,2.56-3.39,5.17-4.8,7.91-1.47,2.85-1.68,6.01-1.36,9.17.54,5.22,3.31,9.15,7.35,12.28,1.22.94,2.54,1.75,3.83,2.6,3.46,2.29,6.64,4.89,8.84,8.47,2.36,3.84,3.04,7.89,1.45,12.21-.13.35-.3.68-.46,1.02-.03.07-.14.09-.3.19-.07-.76-.11-1.48-.2-2.19-.7-5.56-3.61-9.64-8.45-12.34-1.42-.79-2.98-1.33-4.49-1.96-2.24-.94-4.51-1.8-6.71-2.82-1.91-.88-3.55-2.2-5.24-3.64.24,1.5.44,3,.74,4.48,1.05,5.14,2.71,10.11,4.52,15.02,1.85,5.04,3.82,10.05,5.62,15.11,2.23,6.28,3.18,12.77,2.96,19.43,0,.14-.05.27-.14.76-.24-.62-.39-.96-.5-1.31-2.17-6.98-4.84-13.76-8.34-20.18-1.27-2.33-2.81-4.52-4.25-6.76-3.73-5.8-6.95-11.85-9.09-18.44-1.64-5.02-2.56-10.16-2.56-15.43,0-6.45,1.4-12.61,4.13-18.46.22-.47.44-.93.66-1.4.04-.08.04-.18.09-.39-.34.08-.64.16-.93.21-2.43.47-4.84,1.02-7.28,1.4-11.12,1.72-18.45,8.02-22.38,18.43-1.66,4.41-2.45,9.01-2.54,13.72-.02.98,0,1.96-.21,2.96-.15-.84-.32-1.67-.43-2.51-.79-6.03-.75-12.03.53-18,1.64-7.64,5.83-13.54,12.14-18.06,4.3-3.08,8.99-5.34,13.91-7.18,2.98-1.11,5.97-2.19,8.94-3.31,2.15-.81,4.21-1.8,6.11-3.12.66-.46,1.14-1.03,1.57-1.73.89-1.48,1.89-2.9,2.95-4.26,3.14-4.02,6.38-7.95,9.47-12.01,1.49-1.96,2.87-4.05,4.04-6.22,2.52-4.63,2.73-9.48.67-14.33-1-2.36-2.19-4.65-3.42-6.9-1.48-2.7-3.09-5.34-4.69-8.09-.28.3-.51.52-.7.76-7.1,9.14-16.42,14.69-27.67,17.12-4.18.9-8.4,1.28-12.67,1.29-1.45,0-2.9.05-4.35.1-.37.01-.75.08-1.09.2-3.26,1.2-6.44,2.57-9.24,4.65-1.26.94-2.44,2.05-3.47,3.24-1.56,1.79-2.07,3.95-1.57,6.3.72,3.44-.17,6.47-2.31,9.19-1.56,1.97-3.5,3.5-5.61,4.83-3.1,1.95-6.43,3.41-9.92,4.54-.26.08-.52.14-.87.03.33-.21.65-.43.98-.63,3.04-1.8,5.85-3.87,8.18-6.54,2.03-2.33,3.52-4.93,4.01-8.05.26-1.66.17-3.28-.32-4.86-1.28-4.12-.01-7.54,2.81-10.54.89-.94,1.9-1.77,3.02-2.81-.8-.08-1.42-.16-2.04-.19-5.46-.3-10.92-.67-16.38-.84-3.6-.12-7.2.31-10.73,1.05-4.93,1.03-8.9,3.78-12.46,7.2-3.9,3.75-7.13,8.05-10.14,12.52-3.49,5.2-6.88,10.47-10.38,15.67-3.03,4.51-6.28,8.85-10.21,12.64-2.82,2.72-5.92,5.02-9.61,6.43-.73.28-1.49.5-2.24.74l-.26-.32c.19-.08.39-.14.55-.25,6.92-4.52,12.14-10.61,16.38-17.63,3.17-5.26,5.73-10.82,8.34-16.36,2.19-4.65,4.42-9.29,7.26-13.6,2.79-4.22,6.12-7.91,10.48-10.57,3.24-1.98,6.81-3.03,10.48-3.83,7.8-1.7,15.67-2.49,23.66-2.48,6.26,0,12.53-.11,18.79-.41,6.63-.33,13.25-.92,19.63-2.99.44-.14.88-.29,1.45-.48-.26-.17-.39-.32-.54-.35-5.37-1-10.38-3.05-15.38-5.17-4.39-1.86-8.76-3.76-13.22-5.42-5.83-2.18-11.9-3.23-18.14-3.09-6.37.14-12.51,1.51-18.49,3.65-.52.18-1.04.35-1.65.36.28-.19.56-.4.85-.58,5.69-3.38,11.78-5.7,18.36-6.58,5.61-.75,11.19-.45,16.75.62,6.17,1.19,12.08,3.25,17.99,5.34,4.45,1.57,8.88,3.21,13.51,4.19,3.64.77,7.3,1.09,10.98.2,1.12-.27,2.05-.74,2.88-1.58,2.92-2.99,5.1-6.43,6.64-10.31.33-.84.33-1.55,0-2.4-3.57-9.2-5.81-18.72-7.11-28.49-1.31-9.86-1.7-19.75-1.36-29.68.47-13.94.24-27.88.29-41.82.04-11.32-.06-22.65.04-33.97.06-6.5,1.1-12.86,3.84-18.83,4.71-10.29,12.63-16.72,23.61-19.36,1.72-.41,3.5-.59,5.25-.89.41-.07.8-.19,1.21-.28,2.71,0,5.43,0,8.14,0Z"/>
      <path d="M458.39,0c.53.16,1.05.35,1.59.47,4.34.99,7.01,3.7,8.24,7.92.81,2.76,1.06,5.61,1.07,8.46.03,32.66.02,65.31.02,97.97,0,.41,0,.83,0,1.21-1.1.32-12.65.43-15.26.17-.04-.29-.12-.6-.13-.91-.04-.98-.07-1.96-.07-2.94-.03-12.35-.06-24.7-.1-37.05-.04-13.33-.08-26.66-.12-39.99-.01-4.02,0-8.04,0-12.19-.66.24-.73.75-.91,1.13-3.24,6.64-6.47,13.28-9.69,19.92-3.73,7.69-7.46,15.39-11.19,23.08-5.71,11.77-11.41,23.55-17.13,35.32-1.57,3.24-3.16,6.46-5.17,9.47-2.72,4.07-6.6,5.8-11.32,5.85-1.53.02-3.09-.13-4.58-.48-3.59-.85-5.8-3.21-6.85-6.71-.65-2.17-.83-4.41-.94-6.65-.08-1.54-.1-3.08-.1-4.63,0-31.91,0-63.81,0-95.72v-1.9h15.45c.07,15.24.15,30.43.2,45.62.05,15.13.08,30.27.34,45.46.15-.25.33-.5.45-.76,4.4-9.14,8.79-18.27,13.18-27.42,4.91-10.24,9.81-20.48,14.73-30.72,3.18-6.61,6.33-13.24,9.58-19.82,1.22-2.47,2.65-4.84,4.1-7.18,2.21-3.58,5.25-6.05,9.52-6.77.13-.02.24-.14.36-.21,1.59,0,3.18,0,4.77,0Z"/>
      <path d="M143.43,0c1.1.17,2.2.36,3.3.5,12.44,1.49,23.13,6.75,32.35,15.12,6.74,6.12,12.09,13.24,15.51,21.73,2.41,6,3.66,12.24,3.94,18.7.4,9.06-.95,17.8-4.6,26.13-3.6,8.2-9.02,15.04-15.71,20.92-8.15,7.17-17.46,12.06-28.2,13.85-19.02,3.16-35.99-1.28-50.53-14.18-6.81-6.04-12.23-13.11-15.76-21.56-2.47-5.92-3.82-12.11-4.16-18.51-.9-16.51,4.01-30.97,15.38-43.1,6.35-6.78,13.7-12.14,22.37-15.58,5.12-2.03,10.43-3.24,15.91-3.74.5-.05,1-.18,1.5-.28,2.9,0,5.8,0,8.7,0ZM139.24,103.45c.44-.02,1.14-.07,1.84-.09,3.86-.09,7.64-.69,11.3-1.89,12.21-4.02,20.73-12.2,26.16-23.67,3.91-8.26,4.75-17.05,3.41-26.03-1.96-13.11-8.75-23.27-19.65-30.54-10.57-7.06-22.33-8.29-34.45-5.3-12.93,3.19-21.94,11.53-27.84,23.22-4.67,9.26-5.48,19.15-3.5,29.25,4.01,20.48,21.65,34.98,42.74,35.05Z"/>
      <path d="M357.41,64.37h-49.73v51.64c-1.14.35-13.89.4-15.36.08V1.92c1.04-.27,13.01-.36,15.27-.1.13,3.93.04,7.89.06,11.85.02,4.02,0,8.05,0,12.07v23.81c1.08.34,47.31.47,49.69.15V1.95c1.14-.31,12.97-.41,15.22-.16.28.99.37,112.29.08,114.4h-15.22v-51.82Z"/>
      <path d="M61.69,1.73h17.07c-.07.3-.07.57-.18.8-5.43,11.8-10.83,23.62-16.35,35.38-1.25,2.65-2.83,5.17-4.43,7.63-1.69,2.61-3.93,4.75-6.4,6.64-.18.14-.34.3-.63.56.53.15.92.27,1.32.37,4.21,1.13,8.07,2.95,11.35,5.88,3.61,3.23,6,7.25,7.57,11.79,1.45,4.19,2.23,8.52,2.27,12.93.11,10.53.09,21.05.12,31.58,0,.27-.06.55-.1.9h-15.3c-.02-.56-.06-1.1-.06-1.65,0-9.64,0-19.28,0-28.92,0-2.86-.26-5.7-.95-8.48-1.69-6.84-6.09-10.89-12.92-12.26-2-.4-4.08-.56-6.13-.58-6.92-.07-13.85-.03-20.77-.03h-1.72c0,2.23-.02,4.36-.02,6.49,0,2.15,0,4.3,0,6.46v38.96H0V1.94c1.03-.3,13.57-.37,15.4-.07v47.83c.51.05.87.13,1.22.13,3.69-.02,7.39,0,11.08-.1,6.3-.17,11.34-2.76,15.04-7.92,1.78-2.48,3.22-5.15,4.46-7.93,4.61-10.28,9.23-20.55,13.84-30.83.19-.42.4-.83.64-1.32Z"/>
    </g>
  </g>
</svg>