<svg width="320" height="100" viewBox="0 0 320 100" fill="none" xmlns="http://www.w3.org/2000/svg">
<path d="M15.8164 95.5249L30.8596 69.6051H79.6796L94.7541 95.5249H15.8164Z" fill="#004996"/>
<path d="M39.7175 1.271L54.696 27.3417L30.4259 69.6051H0.5L39.7175 1.271Z" fill="#004996"/>
<path d="M70.5683 1.271L55.5898 27.3417L79.8289 69.6051H109.786L70.5683 1.271Z" fill="#004996"/>
<path d="M70.906 1.271H40.2734L55.5897 27.1908L70.906 1.271Z" fill="#FBBA07"/>
<path d="M32.0232 69.8997H1.39062L16.7228 95.8195L32.0232 69.8997Z" fill="#FBBA07"/>
<path d="M110.961 69.8997H80.3281L95.6444 95.8195L110.961 69.8997Z" fill="#FBBA07"/>
<path d="M281.192 35.438C278.643 34.5066 276.444 33.8857 272.715 33.8857C266.468 33.8857 259.999 38.6979 259.999 46.7389C259.999 55.0283 266.245 59.7164 273.033 59.7164C276.38 59.7164 279.28 59.0954 281.384 58.0399L284.156 67.3849C280.172 69.0614 275.902 69.8996 271.281 69.8996C259.234 69.8996 247.633 61.7965 247.633 46.7389C247.633 33.1406 258.692 23.9508 270.962 23.9508C276.157 23.9508 279.312 24.4786 283.997 26.2482L281.192 35.438Z" fill="#004996"/>
<path fill-rule="evenodd" clip-rule="evenodd" d="M175.64 33.4772C176.746 33.3184 177.694 33.2866 179.148 33.2866C183.066 33.2866 185.562 35.7635 185.562 38.9389C185.562 42.2414 183.508 45.0358 177.915 45.0358H175.609V33.4772H175.64ZM175.64 69.8996H163.98V24.8717C168.215 24.2684 172.954 23.9508 177.315 23.9508C189.86 23.9508 196.969 29.8571 196.969 38.7484C196.969 46.56 192.04 54.0541 178.231 54.0541H175.609V69.8996H175.64Z" fill="#004996"/>
<path d="M123.922 69.8997H135.372V50.3559H135.496L147.815 69.8997H161.623L146.015 46.0936L160.134 25.129H146.977L135.496 42.9994H135.372V25.129H123.922V69.8997Z" fill="#004996"/>
<path d="M231.879 47.5143C231.879 38.9228 227.185 33.7742 221.123 33.7742C215.061 33.7742 210.366 38.9228 210.366 47.5143C210.366 56.1058 215.061 61.2543 221.123 61.2543C227.185 61.2543 231.879 56.1373 231.879 47.5143ZM198.148 47.5143C198.148 33.332 208.252 23.9508 221.123 23.9508C233.993 23.9508 244.097 33.332 244.097 47.5143C244.097 61.6966 233.993 71.0777 221.123 71.0777C208.221 71.1093 198.148 61.6966 198.148 47.5143Z" fill="#004996"/>
<path d="M319.499 34.75H308.162V69.8997H296.7V34.75H285.332V25.129H319.499V34.75Z" fill="#004996"/>
<path d="M126.234 85.3993V79.619H123.492V94.6087H126.234V87.9139H127.108C128.193 87.9139 128.795 88.5671 130.091 90.7878C130.905 92.1594 131.538 93.3024 132.351 94.6413H135.274L132.261 89.4162C131.357 87.8486 130.694 86.8689 129.579 86.575C130.483 85.9872 130.935 85.0074 131.417 83.5705C131.809 82.3622 132.351 81.8397 133.255 81.8397C133.888 81.8397 134.189 82.0683 134.4 82.2316V79.6516C133.978 79.4884 133.466 79.3251 132.893 79.3251C130.513 79.3251 129.699 81.1212 129.097 82.8194C128.464 84.7135 127.801 85.3993 126.867 85.3993H126.234Z" fill="#004996"/>
<path fill-rule="evenodd" clip-rule="evenodd" d="M158.158 79.3251C153.876 79.3251 150.594 82.6002 150.594 86.8387C150.594 91.3662 153.751 94.6413 158.158 94.6413C162.753 94.6413 165.91 91.4946 165.91 86.8387C165.941 82.4718 162.659 79.3251 158.158 79.3251ZM158.127 81.9581C160.971 81.9581 163.003 84.0131 163.003 86.8708C163.003 90.0497 161.127 92.0084 158.127 92.0084C155.376 92.0084 153.501 89.9533 153.501 86.8387C153.501 84.0131 155.439 81.9581 158.127 81.9581Z" fill="#004996"/>
<path d="M186.329 87.1488H192.586V93.4632H195.364V79.3251H192.586V84.6538H186.329V79.3251H183.582V93.4632H186.329V87.1488Z" fill="#004996"/>
<path d="M217.106 91.3297V79.3251H214.215V93.9408H225.748V96.9977H228.353V91.3297H226.51V79.3251H223.619V91.3297H217.106Z" fill="#004996"/>
<path fill-rule="evenodd" clip-rule="evenodd" d="M256.346 90.0818C254.687 91.2056 253.059 91.8478 251.337 91.8478C248.583 91.8478 246.955 90.3387 246.517 87.4167H256.628C256.628 81.9581 254.186 79.3251 250.398 79.3251C246.423 79.3251 243.668 82.3434 243.668 86.8066C243.668 90.8845 246.172 94.6413 250.649 94.6413C253.091 94.6413 254.656 94.0955 256.377 92.9074V90.0818H256.346ZM246.548 85.4901C246.924 83.1461 248.238 81.8617 250.43 81.8617C252.433 81.8617 253.685 83.2745 253.779 85.4901H246.548Z" fill="#004996"/>
<path d="M308.856 87.1488H315.114V93.4632H317.891V79.3251H315.114V84.6538H308.856V79.3251H306.109V93.4632H308.856V87.1488Z" fill="#004996"/>
<path fill-rule="evenodd" clip-rule="evenodd" d="M281.466 81.6482C278.619 81.6482 277.212 84.191 277.212 86.8281C277.212 89.214 278.459 91.9766 281.434 91.9766C284.249 91.9766 285.4 89.3396 285.4 86.7339C285.4 84.191 284.313 81.6482 281.466 81.6482ZM274.301 79.639H277.084L277.148 81.397C278.203 80.1099 279.643 79.3251 281.946 79.3251C286.264 79.3251 288.439 82.6528 288.439 86.5455C288.439 90.5011 286.424 94.2997 281.914 94.2997C279.77 94.2997 278.171 93.5149 277.18 92.2905V99.354H274.301V79.639Z" fill="#004996"/>
</svg>
