<?xml version="1.0" encoding="utf-8"?>
<!-- Generator: Adobe Illustrator 24.0.1, SVG Export Plug-In . SVG Version: 6.00 Build 0)  -->
<svg version="1.1" id="Слой_1" xmlns="http://www.w3.org/2000/svg" xmlns:xlink="http://www.w3.org/1999/xlink" x="0px" y="0px"
	 viewBox="0 0 320 100" style="enable-background:new 0 0 320 100;" xml:space="preserve">
<style type="text/css">
	.st0{fill:#004996;}
	.st1{fill:#FBBA07;}
	.st2{fill-rule:evenodd;clip-rule:evenodd;fill:#004996;}
</style>
<path class="st0" d="M36.4,89.1l12.9-22.2h41.8l12.9,22.2H36.4z"/>
<path class="st0" d="M56.9,8.3l12.8,22.3L48.9,66.8H23.3L56.9,8.3z"/>
<path class="st0" d="M83.4,8.3L70.5,30.6l20.8,36.2H117L83.4,8.3z"/>
<path class="st1" d="M83.6,8.3H57.4l13.1,22.2L83.6,8.3z"/>
<path class="st1" d="M50.3,67.1H24.1l13.1,22.2L50.3,67.1z"/>
<path class="st1" d="M118,67.1H91.7l13.1,22.2L118,67.1z"/>
<path class="st0" d="M263.9,37.6c-2.2-0.8-4.1-1.3-7.3-1.3c-5.4,0-10.9,4.1-10.9,11c0,7.1,5.4,11.1,11.2,11.1c2.9,0,5.4-0.5,7.2-1.4
	l2.4,8c-3.4,1.4-7.1,2.2-11,2.2c-10.3,0-20.3-6.9-20.3-19.9c0-11.7,9.5-19.5,20-19.5c4.5,0,7.2,0.5,11.2,2L263.9,37.6z"/>
<path class="st2" d="M173.4,35.9c0.9-0.1,1.8-0.2,3-0.2c3.4,0,5.5,2.1,5.5,4.8c0,2.8-1.8,5.2-6.6,5.2h-2L173.4,35.9L173.4,35.9z
	 M173.4,67.1h-10V28.5c3.6-0.5,7.7-0.8,11.4-0.8c10.8,0,16.8,5.1,16.8,12.7c0,6.7-4.2,13.1-16.1,13.1h-2.2L173.4,67.1L173.4,67.1z"
	/>
<path class="st0" d="M129.1,67.1h9.8V50.3h0.1l10.6,16.8h11.8L148,46.7l12.1-18h-11.3L139,44h-0.1V28.7h-9.8V67.1z"/>
<path class="st0" d="M221.6,47.9c0-7.4-4-11.8-9.2-11.8c-5.2,0-9.2,4.4-9.2,11.8c0,7.4,4,11.8,9.2,11.8
	C217.6,59.7,221.6,55.3,221.6,47.9z M192.7,47.9c0-12.2,8.7-20.2,19.7-20.2c11,0,19.7,8,19.7,20.2s-8.7,20.2-19.7,20.2
	C201.3,68.1,192.7,60.1,192.7,47.9z"/>
<path class="st0" d="M296.7,37H287v30.1h-9.8V37h-9.7v-8.2h29.3V37z"/>
<path class="st0" d="M131.1,80.4v-5h-2.4v12.8h2.4v-5.7h0.7c0.9,0,1.4,0.6,2.6,2.5c0.7,1.2,1.2,2.2,1.9,3.3h2.5l-2.6-4.5
	c-0.8-1.3-1.3-2.2-2.3-2.4c0.8-0.5,1.2-1.3,1.6-2.6c0.3-1,0.8-1.5,1.6-1.5c0.5,0,0.8,0.2,1,0.3v-2.2c-0.4-0.1-0.8-0.3-1.3-0.3
	c-2,0-2.7,1.5-3.3,3c-0.5,1.6-1.1,2.2-1.9,2.2H131.1z"/>
<path class="st2" d="M158.4,75.2c-3.7,0-6.5,2.8-6.5,6.4c0,3.9,2.7,6.7,6.5,6.7c3.9,0,6.6-2.7,6.6-6.7
	C165.1,77.9,162.3,75.2,158.4,75.2z M158.4,77.4c2.4,0,4.2,1.8,4.2,4.2c0,2.7-1.6,4.4-4.2,4.4c-2.4,0-4-1.8-4-4.4
	C154.4,79.2,156.1,77.4,158.4,77.4z"/>
<path class="st0" d="M182.6,81.9h5.4v5.4h2.4V75.2h-2.4v4.6h-5.4v-4.6h-2.4v12.1h2.4V81.9z"/>
<path class="st0" d="M208.9,85.5V75.2h-2.5v12.5h9.9v2.6h2.2v-4.9H217V75.2h-2.5v10.3H208.9z"/>
<path class="st2" d="M242.6,84.4c-1.4,1-2.8,1.5-4.3,1.5c-2.4,0-3.8-1.3-4.1-3.8h8.7c0-4.7-2.1-6.9-5.3-6.9c-3.4,0-5.8,2.6-5.8,6.4
	c0,3.5,2.1,6.7,6,6.7c2.1,0,3.4-0.5,4.9-1.5L242.6,84.4L242.6,84.4z M234.2,80.5c0.3-2,1.4-3.1,3.3-3.1c1.7,0,2.8,1.2,2.9,3.1H234.2
	z"/>
<path class="st0" d="M287.6,81.9h5.4v5.4h2.4V75.2h-2.4v4.6h-5.4v-4.6h-2.4v12.1h2.4V81.9z"/>
<path class="st2" d="M264.1,77.2c-2.4,0-3.6,2.2-3.6,4.4c0,2,1.1,4.4,3.6,4.4c2.4,0,3.4-2.3,3.4-4.5
	C267.5,79.3,266.5,77.2,264.1,77.2z M258,75.4h2.4l0.1,1.5c0.9-1.1,2.1-1.8,4.1-1.8c3.7,0,5.6,2.9,5.6,6.2c0,3.4-1.7,6.6-5.6,6.6
	c-1.8,0-3.2-0.7-4.1-1.7v6.1H258V75.4z"/>
</svg>
