<?xml version="1.0" encoding="UTF-8"?>
<svg id="Layer_2" xmlns="http://www.w3.org/2000/svg" version="1.1" viewBox="0 0 651.8 83.2">
  <!-- Generator: Adobe Illustrator 29.2.1, SVG Export Plug-In . SVG Version: 2.1.0 Build 116)  -->
  <g id="Layer_1-2">
    <path d="M59.3,62h50.9v11.3h-63.7V7.1h12.8v54.9ZM142,67.7l9.6,9.6,9.6-9.6-9.6-9.6s-9.6,9.6-9.6,9.6ZM605.3,40.2c0,21.2-18.5,34.3-39.9,34.3s-39.9-13.1-39.9-34.3,18.5-34.3,39.9-34.3,39.9,13.1,39.9,34.3h0ZM592.2,40.2c0-15.5-12.7-23-26.8-23h0c-14.1,0-26.8,7.5-26.8,23s12.7,23,26.8,23h0c14.1,0,26.8-7.5,26.8-23ZM475.6,44.9c9.5-1.6,16.7-9.5,16.7-18.5s-5.9-19.3-24.2-19.3h-45.9v66.2h12.8v-27.6h26.7l19,27.6h15.2l-20.3-28.4h0ZM435,34.8v-16.8h32.9c3.9,0,11.2.9,11.2,8.2s-7.3,8.6-11.2,8.6h-32.9ZM270.1,53.5c0,13.8-10.9,19.9-24.3,19.9h-47.4V7.1h46.1c8.6,0,21.9,1.9,21.9,16.3s-2.9,11.3-7.7,13.6c4.7,1.6,11.4,6.4,11.4,16.5h0ZM211.2,32.5h32.3c4.3,0,9.9-1.2,9.9-7.2s-3.6-7.3-9.7-7.3h-32.4v14.5h0ZM257.1,52.4c0-7.3-5.3-9-11.5-9h-34.4v19.1h34.4c5.9,0,11.5-2.7,11.5-10h0ZM343.3,74.5c22.8,0,35.7-9.5,35.7-31.6V7.1h-12.8v35.8c0,14.9-7,20.3-22.9,20.3s-22.9-5.4-22.9-20.3V7.1h-12.8v35.8c0,22.1,12.9,31.6,35.7,31.6Z"/>
  </g>
</svg>