<?xml version="1.0" encoding="UTF-8"?>
<svg id="Layer_2" data-name="Layer 2" xmlns="http://www.w3.org/2000/svg" viewBox="0 0 651.79 83.16">
  <g id="Layer_1-2" data-name="Layer 1">
    <path d="M14.96,65.43h59.35v13.18H0V1.41h14.96v64.02ZM111.4,72.02l11.14,11.14,11.14-11.14-11.14-11.14s-11.14,11.14-11.14,11.14ZM651.79,40.01c0,24.68-21.61,40.01-46.5,40.01s-46.5-15.33-46.5-40.01S580.41,0,605.29,0s46.5,15.33,46.5,40.01h0ZM636.54,40.01c0-18.06-14.79-26.83-31.25-26.83h0c-16.46,0-31.25,8.77-31.25,26.83s14.79,26.83,31.25,26.83h0c16.46,0,31.25-8.77,31.25-26.83ZM500.5,45.44c11.06-1.91,19.43-11.06,19.43-21.53,0-11.5-6.85-22.5-28.22-22.5h-53.49v77.2h14.96v-32.22h31.18l22.17,32.22h17.68l-23.71-33.17h0ZM453.19,33.71V14.09h38.43c4.55,0,13.12,1.09,13.12,9.57s-8.55,10.05-13.12,10.05h-38.43ZM260.83,55.43c0,16.12-12.72,23.18-28.38,23.18h-55.27V1.41h53.76c10,0,25.57,2.2,25.57,19.01,0,7.11-3.34,13.16-8.99,15.81,5.48,1.9,13.31,7.46,13.31,19.2h0ZM192.15,31h37.68c5.04,0,11.49-1.43,11.49-8.45,0-5.98-4.23-8.46-11.37-8.46h-37.8v16.91h0ZM245.64,54.21c0-8.56-6.16-10.52-13.42-10.52h-40.07v22.25h40.07c6.92,0,13.42-3.16,13.42-11.72ZM346.22,80.02c26.59,0,41.68-11.06,41.68-36.83V1.41h-14.96v41.78c0,17.33-8.11,23.65-26.72,23.65s-26.72-6.32-26.72-23.65V1.41h-14.96v41.78c0,25.77,15.09,36.83,41.68,36.83Z"/>
  </g>
</svg>