<svg width="700" height="428" viewBox="0 0 700 428" fill="none" xmlns="http://www.w3.org/2000/svg">
<mask id="mask0_6607_842" style="mask-type:luminance" maskUnits="userSpaceOnUse" x="69" y="97" width="562" height="234">
<path d="M630.32 97.1992H69.6777V330.8H630.32V97.1992Z" fill="white"/>
</mask>
<g mask="url(#mask0_6607_842)">
<path d="M444.61 164.362L408.109 126.986V195.022H487.826V120.27L444.61 164.362Z" fill="black"/>
<path d="M491.039 110.926V195.022H499.799V100.998H407.818V121.73L444.318 159.106L491.039 111.218V110.926Z" fill="black"/>
<path d="M584.476 163.78L560.24 122.607L536.004 163.78H584.476Z" fill="black"/>
<path d="M532.502 168.74L519.07 192.976H598.787L585.355 168.74H532.502Z" fill="black"/>
<path d="M630.321 192.684L575.425 98.6602L562.869 120.268L605.209 192.684H630.613H630.321Z" fill="black"/>
<path d="M340.654 98.6592C314.374 98.6592 293.058 119.975 292.182 146.547C294.518 138.955 298.606 131.947 304.446 125.815C313.498 116.471 325.762 111.215 338.902 111.215C352.042 111.215 361.97 115.595 371.022 123.479L367.518 125.815C359.342 118.807 349.414 115.011 338.902 115.011C328.39 115.011 315.542 119.683 307.074 128.443C298.606 137.203 293.934 148.591 293.934 160.855C299.482 181.879 318.17 197.356 340.654 197.356C363.138 197.356 389.126 175.163 389.126 148.007C389.126 120.851 367.518 98.3672 340.654 98.3672V98.6592Z" fill="black"/>
<path d="M492.786 193.27H487.822V207.87H492.786V193.27Z" fill="black"/>
<path d="M398.471 205.531H401.975V118.223L408.107 124.647V119.391L398.763 109.463V108.879C398.471 108.879 398.471 205.531 398.471 205.531Z" fill="black"/>
<path d="M599.369 193.271L606.669 206.703L607.253 207.579H611.341L603.457 192.979H599.369V193.271Z" fill="black"/>
<path d="M529.288 164.066L557.32 116.47L560.824 122.31L563.16 118.514L557.612 109.462C557.612 109.17 500.672 205.238 500.672 205.238V205.822H505.052L527.244 168.446H533.96L536.296 164.65H529.58L529.288 164.066Z" fill="black"/>
<path d="M291.892 145.092C290.432 149.764 289.848 154.436 289.848 159.4C289.848 172.248 295.104 184.512 304.448 193.564C313.792 202.616 326.056 207.872 339.488 207.872C352.92 207.872 363.14 203.492 371.9 195.9L368.396 193.564C360.22 200.572 350 204.076 339.196 204.076C328.392 204.076 315.544 199.404 307.076 190.936C298.608 182.468 293.644 171.372 293.644 159.4C292.476 155.312 291.892 150.932 291.892 146.844C291.892 142.756 291.892 145.676 291.892 145.384V145.092Z" fill="black"/>
<path d="M492.79 108.879L445.194 155.599L408.109 119.099V124.355L445.194 160.563L488.702 117.931V190.639H492.498V108.879H492.79Z" fill="#F2FFF6"/>
<path d="M562.575 118.52L560.239 122.316L584.183 164.072H536.295L533.959 167.868H586.519L599.951 190.936H604.331L562.575 118.52Z" fill="#F2FFF6"/>
<path d="M339.195 112.675C349.999 112.675 359.927 116.179 368.103 122.895L371.607 121.143H371.315C362.263 113.259 350.875 108.879 338.903 108.879C326.931 108.879 313.499 113.843 304.155 122.895C298.315 128.443 294.227 135.451 291.891 142.751C291.891 143.335 291.891 143.919 291.891 144.211C291.891 148.591 292.475 152.679 293.643 156.767C293.643 144.795 298.315 133.699 307.075 125.231C315.543 116.763 326.931 112.091 339.195 112.091V112.675Z" fill="#F2FFF6"/>
<path d="M93.9127 277.948V256.34L84.2767 265.976L75.2246 256.924L74.6406 256.34V277.948H77.8526V264.224L84.2767 270.648L90.7007 264.224V277.948H93.9127Z" fill="black"/>
<path d="M81.6498 313.575L84.5698 319.123H78.4378L81.3578 313.575H81.6498ZM69.6777 328.467H73.4737L76.9778 322.335H86.9058L89.8258 327.591V328.467H93.9138L81.9418 306.859L69.9697 328.467H69.6777Z" fill="black"/>
<path d="M82.8158 229.477C85.7358 229.477 88.3638 228.309 90.4078 226.557H90.6998L87.4878 224.513C86.3198 225.681 84.5678 225.973 82.8158 225.973C81.0638 225.973 78.7278 225.097 77.2678 223.929C75.8077 222.469 74.9317 220.717 74.9317 218.673C74.9317 216.629 75.8077 214.877 77.2678 213.417C78.7278 211.957 80.7718 211.373 82.8158 211.373C84.8598 211.373 86.0278 211.957 87.4878 212.833L90.6998 211.081H90.4078C88.3638 209.037 85.4438 207.869 82.8158 207.869C80.1878 207.869 76.9758 209.037 74.6397 211.081C72.5957 213.125 71.4277 215.753 71.4277 218.673C71.4277 221.593 72.5957 224.221 74.6397 226.265C76.6838 228.309 79.6038 229.477 82.5238 229.477H82.8158Z" fill="black"/>
<path d="M126.035 226.265C121.946 226.265 118.442 222.761 118.442 218.673C118.442 214.585 121.946 211.081 126.035 211.081C130.123 211.081 133.627 214.585 133.627 218.673C133.627 222.761 130.123 226.265 126.035 226.265ZM126.035 207.869C119.902 207.869 115.23 212.833 115.23 218.673C115.23 224.513 120.194 229.477 126.035 229.477C131.875 229.477 136.839 224.513 136.839 218.673C136.839 212.833 131.875 207.869 126.035 207.869Z" fill="black"/>
<path d="M126.035 274.445C121.946 274.445 118.442 270.941 118.442 266.853C118.442 262.765 121.946 259.261 126.035 259.261C130.123 259.261 133.627 262.765 133.627 266.853C133.627 270.941 130.123 274.445 126.035 274.445ZM126.035 256.049C119.902 256.049 115.23 261.013 115.23 266.853C115.23 272.693 120.194 277.657 126.035 277.657C131.875 277.657 136.839 272.693 136.839 266.853C136.839 261.013 131.875 256.049 126.035 256.049Z" fill="black"/>
<path d="M251.886 274.445C247.798 274.445 244.294 270.941 244.294 266.853C244.294 262.765 247.798 259.261 251.886 259.261C255.974 259.261 259.478 262.765 259.478 266.853C259.478 270.941 256.266 274.445 251.886 274.445ZM251.886 256.049C245.754 256.049 241.082 261.013 241.082 266.853C241.082 272.693 246.046 277.657 251.886 277.657C257.726 277.657 262.69 272.693 262.69 266.853C262.69 261.013 257.726 256.049 251.886 256.049Z" fill="black"/>
<path d="M505.634 325.255C501.546 325.255 498.042 321.751 498.042 317.663C498.042 313.575 501.546 310.071 505.634 310.071C509.722 310.071 513.226 313.575 513.226 317.663C513.226 321.751 509.722 325.255 505.634 325.255ZM505.634 306.859C499.502 306.859 494.83 311.823 494.83 317.663C494.83 323.503 499.794 328.467 505.634 328.467C511.474 328.467 516.438 323.503 516.438 317.663C516.438 311.823 511.474 306.859 505.634 306.859Z" fill="black"/>
<path d="M420.956 325.255C416.868 325.255 413.364 321.751 413.364 317.663C413.364 313.575 416.868 310.071 420.956 310.071C425.044 310.071 428.548 313.575 428.548 317.663C428.548 321.751 425.044 325.255 420.956 325.255ZM420.956 306.859C414.824 306.859 410.152 311.823 410.152 317.663C410.152 323.503 415.116 328.467 420.956 328.467C426.796 328.467 431.76 323.503 431.76 317.663C431.76 311.823 426.796 306.859 420.956 306.859Z" fill="black"/>
<path d="M209.256 226.266C207.504 226.266 206.044 225.098 205.752 223.346C205.752 223.054 202.248 223.346 202.248 223.346C202.832 226.85 205.752 229.478 209.256 229.478C212.76 229.478 216.556 226.558 216.556 222.762C216.556 218.966 215.388 218.674 213.636 217.506C214.804 216.338 215.68 214.878 215.68 213.418C215.68 211.958 215.096 210.498 213.928 209.33C212.76 208.162 211.008 207.578 209.548 207.578C208.088 207.578 206.336 208.162 205.168 209.33C204.584 209.914 204 210.79 203.708 211.374C203.708 211.666 207.212 212.542 207.212 212.542C207.212 211.958 207.504 211.666 207.796 211.374C208.38 210.79 208.964 210.79 209.84 210.79C210.716 210.79 211.3 210.79 211.884 211.374C212.468 211.958 212.76 212.542 212.76 213.126C212.76 213.71 212.76 214.586 211.884 214.878C211.3 215.462 210.716 215.462 209.84 215.462H207.796V218.674H209.548C211.592 218.674 213.052 220.134 213.052 221.886C213.052 223.93 211.592 225.098 209.548 225.098L209.256 226.266Z" fill="black"/>
<path d="M292.18 267.149V262.185H292.472C293.056 262.185 293.64 262.185 293.932 262.769C294.224 263.353 294.516 263.937 294.516 264.521C294.516 265.981 293.64 267.149 292.18 267.149ZM295.392 276.785H292.18V270.945H295.392C296.852 270.945 298.02 272.405 298.02 273.865C298.02 275.617 296.852 276.785 295.392 276.785ZM297.144 267.441C297.728 266.565 298.02 265.689 298.02 264.521C298.02 263.353 297.436 261.309 296.56 260.141C295.684 258.973 294.224 258.389 292.764 258.389H289.26V279.997H295.684C298.896 279.997 301.524 277.077 301.524 273.573C301.524 270.653 299.772 268.025 297.436 267.441H297.144Z" fill="black"/>
<path d="M546.223 315.328V310.364H546.515C547.099 310.364 547.683 310.364 547.975 311.24C548.267 311.824 548.559 312.408 548.559 312.992C548.559 314.452 547.683 315.62 546.223 315.62H545.931L546.223 315.328ZM549.435 324.964H546.223V319.124H549.435C550.895 319.124 552.063 320.584 552.063 322.044C552.063 323.504 550.895 324.964 549.435 324.964ZM551.187 315.62C551.771 314.744 552.063 313.868 552.063 312.7C552.063 310.948 551.479 309.488 550.603 308.32C549.435 307.152 548.267 306.568 546.807 306.568H543.303V328.176H549.727C552.939 328.176 555.567 325.256 555.567 321.752C555.567 318.248 553.815 316.204 551.479 315.62H551.187Z" fill="black"/>
<path d="M127.786 315.327H126.034V310.071H127.786C128.662 310.071 129.246 310.363 129.83 310.947C130.414 311.531 130.706 312.115 130.706 312.991C130.706 313.867 130.706 314.451 129.83 314.743C129.246 315.327 128.662 315.619 127.786 315.619V315.327ZM127.786 306.859H122.238V326.131H125.742V318.539H127.494C129.246 318.539 130.998 317.955 132.166 316.787C133.334 315.619 134.21 314.159 134.21 312.699C134.21 311.239 133.626 309.779 132.166 308.611C130.998 307.443 129.246 306.859 127.494 306.859H127.786Z" fill="black"/>
<path d="M468.553 314.451C467.969 315.035 467.093 315.327 466.509 315.327H464.757V310.071H466.509C467.385 310.071 467.969 310.363 468.553 310.947C469.137 311.531 469.429 312.115 469.429 312.991C469.429 313.867 469.429 314.451 468.553 314.743V314.451ZM466.217 306.859H460.961V326.131H464.465V318.539H466.217C467.969 318.539 469.721 317.955 470.889 316.787C472.057 315.619 472.933 314.159 472.933 312.699C472.933 311.239 472.349 309.487 470.889 308.611C469.429 307.443 467.969 306.859 466.217 306.859Z" fill="black"/>
<path d="M245.758 306.859V310.071H250.138V326.131H253.642V310.071H258.022V306.859H246.05H245.758Z" fill="black"/>
<path d="M373.941 306.859V310.071H378.321V326.131H381.825V310.071H386.205V306.859H374.233H373.941Z" fill="black"/>
<path d="M294.52 306.859H291.6V326.131H298.9V322.919H294.52V317.371H298.024V314.159H294.52V310.071H298.608V306.859H294.52Z" fill="black"/>
<path d="M171.877 226.265C167.789 226.265 164.285 223.053 164.285 218.673C164.285 214.293 167.789 211.081 171.877 211.081C175.965 211.081 179.469 214.293 179.469 218.673C179.469 222.761 175.965 226.265 171.877 226.265ZM171.877 207.869C166.621 207.869 162.241 211.373 161.073 216.337H159.613V208.745H156.109V228.893H159.613V219.549H161.073C161.657 225.097 166.329 229.477 171.877 229.477C177.425 229.477 182.973 224.513 182.973 218.673C182.973 212.833 178.009 207.869 171.877 207.869Z" fill="black"/>
<path d="M472.056 258.389H468.26L464.756 264.229L461.252 258.681H457.456L463.004 267.441L456.58 277.953H460.376L465.048 270.653L469.428 277.953H473.224L466.8 267.441L472.348 258.681L472.056 258.389Z" fill="black"/>
<path d="M174.509 306.859H170.421L166.917 312.407L163.413 306.859H159.325L164.873 315.619L158.449 326.131H162.245L166.917 318.831L171.589 326.131H175.385L168.961 315.619L174.509 306.859Z" fill="black"/>
<path d="M428.547 278.533H432.051V256.049L416.283 271.817V257.509H412.779V279.993L428.547 264.225V278.533Z" fill="black"/>
<path d="M205.463 305.98H201.959V328.464L218.019 312.696V327.004H221.523V304.52L205.463 320.288V305.98Z" fill="black"/>
<path d="M174.797 275.033C173.337 275.909 171.877 276.493 170.125 276.493C168.373 276.493 166.037 275.617 164.577 274.449C163.117 272.989 162.241 271.237 162.241 269.193C162.241 267.149 163.117 265.397 164.577 263.937C166.037 262.477 168.081 261.893 170.125 261.893C172.169 261.893 173.337 262.477 174.797 263.353L178.009 261.601H177.717C175.673 259.557 172.753 258.389 170.125 258.389C167.497 258.389 164.285 259.557 162.241 261.601C160.197 263.645 159.029 266.273 159.029 269.193C159.029 272.113 160.197 274.741 162.241 276.785C164.285 278.829 167.205 279.997 170.125 279.997C173.045 279.997 175.673 278.829 177.717 277.077H178.009C178.009 276.785 174.797 275.033 174.797 275.033Z" fill="black"/>
<path d="M204.582 258.091V277.363H208.378V268.019L214.802 277.071H219.182L211.882 266.559L218.014 257.799H213.634L208.378 265.683V257.799H204.582V258.091Z" fill="black"/>
<path d="M341.53 306.563L336.274 315.324V306.563H332.77V328.172H336.274V317.66L342.698 327.88H347.078L339.778 316.2L345.618 306.271H341.53V306.563Z" fill="black"/>
<path d="M373.944 258.091V277.363H377.448V268.019L383.872 277.071H388.252L380.952 266.559L386.792 257.799H382.412L377.156 265.683V257.799H373.652L373.944 258.091Z" fill="black"/>
<path d="M343.866 275.033C342.406 275.909 340.946 276.493 339.194 276.493C337.442 276.493 335.106 275.617 333.646 274.449C332.186 272.989 331.31 271.237 331.31 269.193C331.31 267.149 332.186 265.397 333.646 263.937C335.106 262.477 337.15 261.893 339.194 261.893C341.238 261.893 342.406 262.477 343.866 263.353L347.078 261.601H346.786C344.742 259.557 341.822 258.389 339.194 258.389C336.566 258.389 333.354 259.557 331.31 261.601C329.266 263.645 328.098 266.273 328.098 269.193C328.098 272.113 329.266 274.741 331.31 276.785C333.354 278.829 336.274 279.997 339.194 279.997C342.114 279.997 344.742 278.829 346.786 277.077H347.078C347.078 276.785 343.866 275.033 343.866 275.033Z" fill="black"/>
</g>
</svg>
