<svg width="700" height="428" viewBox="0 0 700 428" fill="none" xmlns="http://www.w3.org/2000/svg">
<g clip-path="url(#clip0_6607_869)">
<mask id="mask0_6607_869" style="mask-type:luminance" maskUnits="userSpaceOnUse" x="221" y="83" width="258" height="262">
<path d="M478.95 83.5352H221.049V344.66H478.95V83.5352Z" fill="white"/>
</mask>
<g mask="url(#mask0_6607_869)">
<path d="M462.61 129.615H238.084V135.759H462.61V129.615Z" fill="#BE1717"/>
<path d="M471.717 108.111H228.986V123.472H471.717V108.111Z" fill="#BE1717"/>
<path d="M480.826 95.8242H219.891V105.04H480.826V95.8242Z" fill="#BE1717"/>
<path d="M480.333 83.5352H219.396V92.7513H480.333V83.5352Z" fill="#BE1717"/>
<path d="M451.69 138.832H249.612V337.813H242.961V344.66H458.385V337.813H451.734V138.832H451.69ZM393.066 235.055C393.066 220.6 404.782 208.829 419.141 208.829C433.499 208.829 445.215 220.6 445.215 235.055V333.427H438.74V235.055C438.74 224.225 429.976 215.363 419.141 215.363C408.35 215.363 399.541 224.18 399.541 235.055V333.427H393.066V235.055ZM335.015 158.793H369.282V183.856H335.015V158.793ZM324.576 235.055C324.576 220.6 336.292 208.829 350.651 208.829C365.01 208.829 376.725 220.6 376.725 235.055V333.427H370.251V235.055C370.251 224.225 361.486 215.363 350.651 215.363C339.816 215.363 331.051 224.18 331.051 235.055V333.427H324.576V235.055ZM256.086 235.055C256.086 220.6 267.802 208.829 282.161 208.829C296.52 208.829 308.236 220.6 308.236 235.055V333.427H301.761V235.055C301.761 224.225 292.996 215.363 282.161 215.363C271.326 215.363 262.561 224.225 262.561 235.055V333.427H256.086V235.055Z" fill="#BE1717"/>
</g>
</g>
<defs>
<clipPath id="clip0_6607_869">
<rect width="257.902" height="261.125" fill="white" transform="translate(221.049 83.5352)"/>
</clipPath>
</defs>
</svg>
