<svg width="700" height="428" viewBox="0 0 700 428" fill="none" xmlns="http://www.w3.org/2000/svg">
<path d="M156.302 183.668C138.357 183.668 123.85 198.175 123.85 216.121C123.85 234.066 138.357 248.573 156.302 248.573C174.248 248.573 188.755 234.066 188.755 216.121C188.755 198.175 174.14 183.668 156.302 183.668ZM156.302 232.347C147.383 232.347 140.076 225.04 140.076 216.121C140.076 207.201 147.383 199.894 156.302 199.894C165.221 199.894 172.529 207.201 172.529 216.121C172.529 225.04 165.221 232.347 156.302 232.347Z" fill="#F7941D"/>
<path d="M69.6914 129.508V194.52H91.2907V151.215H134.597V129.508H69.6914Z" fill="#231F20"/>
<path d="M91.2907 281.133V237.827H69.6914V302.732H134.597V281.133H91.2907Z" fill="#231F20"/>
<path d="M221.208 237.827V281.133H177.902V302.732H242.915V237.827H221.208Z" fill="#231F20"/>
<path d="M188.755 129.508L173.818 151.215H221.208V198.496L242.914 183.667V129.508H188.755Z" fill="#F7941D"/>
<path d="M382.182 279.521H381.86C381.322 280.273 380.355 280.703 379.066 280.703C376.916 280.703 375.627 279.198 375.627 277.586C375.627 276.082 376.594 274.47 379.388 274.47H382.182V274.148C382.182 273.073 381.537 272.428 380.248 272.428C379.066 272.428 378.421 272.858 378.313 273.61H376.272C376.379 271.891 377.884 270.816 380.14 270.816C382.612 270.816 384.224 271.891 384.224 274.255V280.488H382.289L382.182 279.521ZM382.074 276.727V275.974H379.71C378.421 275.974 377.669 276.512 377.669 277.479C377.669 278.446 378.421 278.983 379.603 278.983C381 278.983 382.074 277.909 382.074 276.727Z" fill="#231F20"/>
<path d="M387.018 271.032H394.325V272.752H389.059V280.381H387.018V271.032Z" fill="#231F20"/>
<path d="M404.857 275.868H397.872C397.979 277.802 398.839 278.877 400.558 278.877C401.633 278.877 402.385 278.447 402.6 277.695H404.749C404.427 279.414 403.03 280.596 400.558 280.596C397.657 280.596 395.83 278.554 395.83 275.546C395.83 272.537 397.549 270.71 400.451 270.71C403.352 270.71 404.857 272.644 404.857 275.116V275.868ZM398.087 274.364H402.815C402.707 273.289 401.955 272.429 400.558 272.429C399.054 272.429 398.302 273.289 398.087 274.364Z" fill="#231F20"/>
<path d="M413.989 280.381V276.513H409.475V280.489H407.434V271.14H409.475V274.793H413.989V271.14H416.03V280.489L413.989 280.381Z" fill="#231F20"/>
<path d="M418.18 271.032H426.562V272.752H423.445V280.381H421.403V272.752H418.18V271.032Z" fill="#231F20"/>
<path d="M436.878 277.372C436.556 279.307 435.051 280.596 432.795 280.596C429.893 280.596 428.174 278.554 428.174 275.653C428.174 272.752 429.893 270.71 432.795 270.71C435.051 270.71 436.556 271.999 436.878 273.826H434.836C434.621 272.967 433.977 272.537 432.902 272.537C431.075 272.537 430.323 274.041 430.323 275.653C430.323 277.372 431.075 278.877 432.902 278.877C434.084 278.877 434.729 278.34 434.944 277.372H436.878Z" fill="#231F20"/>
<path d="M438.598 271.032H446.979V272.752H443.863V280.381H441.821V272.752H438.598V271.032Z" fill="#231F20"/>
<path d="M457.618 277.802C457.618 279.521 456.436 280.381 454.287 280.381H449.129V271.032H454.394C456.329 271.032 457.403 271.892 457.403 273.396C457.403 274.363 456.866 275.008 456.329 275.223V275.546C457.081 275.975 457.618 276.835 457.618 277.802ZM451.171 274.793H453.857C454.824 274.793 455.147 274.256 455.147 273.719C455.147 273.181 454.824 272.644 453.857 272.644H451.171V274.793ZM455.469 277.587C455.469 276.835 455.039 276.405 453.857 276.405H451.063V278.877H453.857C455.039 278.877 455.469 278.339 455.469 277.587Z" fill="#231F20"/>
<path d="M469.009 275.76C469.009 278.661 467.182 280.703 464.281 280.703C461.38 280.703 459.553 278.661 459.553 275.76C459.553 272.858 461.38 270.816 464.281 270.816C467.182 270.816 469.009 272.858 469.009 275.76ZM466.967 275.76C466.967 274.148 466.108 272.643 464.281 272.643C462.454 272.643 461.594 274.148 461.594 275.76C461.594 277.371 462.454 278.983 464.281 278.983C466.108 278.876 466.967 277.371 466.967 275.76Z" fill="#231F20"/>
<path d="M384.546 299.724C384.224 301.658 382.719 302.948 380.463 302.948C377.561 302.948 375.842 300.906 375.842 298.005C375.842 295.103 377.561 293.062 380.463 293.062C382.719 293.062 384.224 294.351 384.546 296.178H382.504C382.289 295.318 381.645 294.888 380.57 294.888C378.743 294.888 377.991 296.393 377.991 298.005C377.991 299.617 378.743 301.228 380.57 301.228C381.752 301.228 382.397 300.691 382.612 299.724H384.546Z" fill="#231F20"/>
<path d="M386.158 293.383H394.54V295.102H391.424V302.732H389.382V295.102H386.158V293.383Z" fill="#231F20"/>
<path d="M399.159 301.873H398.837V306.494H396.795V293.384H398.837V294.351H399.159C399.696 293.706 400.449 293.169 401.846 293.169C404.425 293.169 406.036 295.318 406.036 298.112C406.036 300.906 404.425 303.055 401.846 303.055C400.449 302.948 399.696 302.518 399.159 301.873ZM398.729 298.005C398.729 299.616 399.481 301.121 401.308 301.121C403.028 301.121 403.887 299.724 403.887 298.005C403.887 296.285 403.028 294.781 401.308 294.781C399.481 294.888 398.729 296.393 398.729 298.005Z" fill="#231F20"/>
<path d="M414.418 301.873H414.096C413.559 302.625 412.591 303.055 411.302 303.055C409.153 303.055 407.863 301.551 407.863 299.939C407.863 298.434 408.83 296.823 411.624 296.823H414.418V296.5C414.418 295.426 413.774 294.781 412.484 294.781C411.302 294.781 410.657 295.211 410.55 295.963H408.508C408.615 294.244 410.12 293.169 412.377 293.169C414.848 293.169 416.46 294.244 416.46 296.608V302.84H414.526L414.418 301.873ZM414.311 298.972V298.22H411.947C410.657 298.22 409.905 298.757 409.905 299.724C409.905 300.691 410.657 301.228 411.839 301.228C413.236 301.336 414.311 300.261 414.311 298.972Z" fill="#231F20"/>
<path d="M418.287 293.383H426.669V295.102H423.553V302.732H421.511V295.102H418.287V293.383Z" fill="#231F20"/>
<path d="M437.308 298.22H430.323C430.43 300.154 431.29 301.228 433.009 301.228C434.084 301.228 434.836 300.799 435.051 300.046H437.2C436.878 301.766 435.481 302.948 433.009 302.948C430.108 302.948 428.281 300.906 428.281 297.897C428.281 294.996 430.001 293.062 432.902 293.062C435.803 293.062 437.308 294.996 437.308 297.467V298.22ZM430.43 296.715H435.159C435.051 295.641 434.299 294.781 432.902 294.781C431.505 294.781 430.645 295.641 430.43 296.715Z" fill="#231F20"/>
<path d="M439.777 293.383H447.085V295.102H441.819V302.732H439.777V293.383Z" fill="#231F20"/>
<path d="M449.236 302.732V293.383H451.278V299.508H451.6L455.576 293.383H457.94V302.732H455.899V296.607H455.576L451.6 302.732H449.236Z" fill="#231F20"/>
<path d="M462.454 293.383V296.069C462.454 296.822 462.561 297.681 464.496 297.681C465.248 297.681 465.893 297.574 466.537 297.466V293.383H468.686V302.732H466.537V299.186C465.785 299.401 464.71 299.401 463.851 299.401C460.52 299.401 460.305 297.789 460.305 296.284V293.275L462.454 293.383Z" fill="#231F20"/>
<path d="M480.185 298.22H473.2C473.307 300.154 474.167 301.228 475.886 301.228C476.961 301.228 477.713 300.799 477.928 300.046H480.077C479.755 301.766 478.358 302.948 475.886 302.948C472.985 302.948 471.158 300.906 471.158 297.897C471.158 294.996 472.878 293.062 475.779 293.062C478.68 293.062 480.185 294.996 480.185 297.467V298.22ZM473.307 296.715H478.036C477.928 295.641 477.176 294.781 475.779 294.781C474.275 294.781 473.522 295.641 473.307 296.715Z" fill="#231F20"/>
<path d="M490.929 299.724C490.606 301.658 489.102 302.948 486.845 302.948C483.944 302.948 482.225 300.906 482.225 298.005C482.225 295.103 483.944 293.062 486.845 293.062C489.102 293.062 490.606 294.351 490.929 296.178H488.887C488.672 295.318 488.027 294.888 486.953 294.888C485.126 294.888 484.374 296.393 484.374 298.005C484.374 299.617 485.126 301.228 486.953 301.228C488.135 301.228 488.78 300.691 488.995 299.724H490.929Z" fill="#231F20"/>
<path d="M497.593 298.862H495.444V302.838H493.402V293.489H495.444V297.143H497.593L499.742 293.489H501.892L499.313 298.003L502.107 302.838H499.85L497.593 298.862Z" fill="#231F20"/>
<path d="M512.853 298.005C512.853 300.906 511.026 302.948 508.125 302.948C505.223 302.948 503.396 300.906 503.396 298.005C503.396 295.103 505.223 293.062 508.125 293.062C511.026 293.169 512.853 295.211 512.853 298.005ZM510.811 298.005C510.811 296.393 509.951 294.888 508.125 294.888C506.298 294.888 505.438 296.393 505.438 298.005C505.438 299.617 506.298 301.228 508.125 301.228C509.951 301.228 510.811 299.724 510.811 298.005Z" fill="#231F20"/>
<path d="M515.324 293.383H522.631V295.102H517.366V302.732H515.324V293.383Z" fill="#231F20"/>
<path d="M533.699 298.005C533.699 300.906 531.872 302.948 528.97 302.948C526.069 302.948 524.242 300.906 524.242 298.005C524.242 295.103 526.069 293.062 528.97 293.062C531.872 293.169 533.699 295.211 533.699 298.005ZM531.549 298.005C531.549 296.393 530.69 294.888 528.863 294.888C527.036 294.888 526.176 296.393 526.176 298.005C526.176 299.617 527.036 301.228 528.863 301.228C530.797 301.228 531.549 299.724 531.549 298.005Z" fill="#231F20"/>
<path d="M543.907 301.873H543.585V306.494H541.543V293.384H543.585V294.351H543.907C544.444 293.706 545.197 293.169 546.594 293.169C549.173 293.169 550.784 295.318 550.784 298.112C550.784 300.906 549.173 303.055 546.594 303.055C545.197 302.948 544.444 302.518 543.907 301.873ZM543.477 298.005C543.477 299.616 544.229 301.121 546.056 301.121C547.776 301.121 548.635 299.724 548.635 298.005C548.635 296.285 547.776 294.781 546.056 294.781C544.337 294.888 543.477 296.393 543.477 298.005Z" fill="#231F20"/>
<path d="M559.164 301.873H558.842C558.305 302.625 557.338 303.055 556.048 303.055C553.899 303.055 552.609 301.551 552.609 299.939C552.609 298.434 553.577 296.823 556.37 296.823H559.164V296.5C559.164 295.426 558.52 294.781 557.23 294.781C556.048 294.781 555.403 295.211 555.296 295.963H553.254C553.362 294.244 554.866 293.169 557.123 293.169C559.594 293.169 561.206 294.244 561.206 296.608V302.84H559.272L559.164 301.873ZM559.164 298.972V298.22H556.8C555.511 298.22 554.759 298.757 554.759 299.724C554.759 300.691 555.511 301.228 556.693 301.228C558.09 301.336 559.164 300.261 559.164 298.972Z" fill="#231F20"/>
<path d="M567.546 294.888C566.364 294.888 565.72 295.211 565.505 296.07H563.57C563.785 294.136 565.397 293.062 567.654 293.062C570.125 293.062 571.415 294.244 571.415 295.748C571.415 296.823 570.878 297.36 570.448 297.575V297.897C571.093 298.112 571.737 298.757 571.737 299.939C571.737 301.551 570.233 302.84 567.654 302.84C564.86 302.84 563.463 301.658 563.248 299.831H565.182C565.505 300.799 566.472 301.121 567.546 301.121C568.728 301.121 569.588 300.691 569.588 299.939C569.588 299.187 569.051 298.757 567.869 298.757H566.257V297.038H567.761C568.836 297.038 569.373 296.608 569.373 295.963C569.373 295.211 568.621 294.888 567.546 294.888Z" fill="#231F20"/>
<path d="M582.808 300.153C582.808 301.872 581.626 302.732 579.476 302.732H574.318V293.383H579.584C581.518 293.383 582.593 294.242 582.593 295.747C582.593 296.714 582.055 297.359 581.518 297.574V297.896C582.27 298.326 582.808 299.078 582.808 300.153ZM576.36 297.144H579.047C580.014 297.144 580.336 296.607 580.336 296.069C580.336 295.532 580.014 294.995 579.047 294.995H576.36V297.144ZM580.766 299.938C580.766 299.186 580.336 298.756 579.154 298.756H576.36V301.227H579.154C580.336 301.12 580.766 300.69 580.766 299.938Z" fill="#231F20"/>
<path d="M585.277 302.732V293.383H587.319V299.508H587.641L591.617 293.383H593.982V302.732H592.047V296.607H591.725L587.749 302.732H585.277Z" fill="#231F20"/>
<path d="M596.131 293.383H604.513V295.102H601.396V302.732H599.355V295.102H596.131V293.383Z" fill="#231F20"/>
<path d="M606.662 302.732V293.383H608.704V299.508H609.026L613.002 293.383H615.366V302.732H613.325V296.607H613.002L609.026 302.732H606.662Z" fill="#231F20"/>
<path d="M624.285 299.293H621.814L620.094 302.732H617.945L619.772 298.971C618.698 298.541 618.053 297.574 618.053 296.284C618.053 294.457 619.342 293.275 621.599 293.275H626.327V302.624H624.285V299.293ZM624.285 295.102H621.814C620.524 295.102 620.094 295.639 620.094 296.392C620.094 297.251 620.524 297.681 621.814 297.681H624.285V295.102Z" fill="#231F20"/>
<path d="M481.905 184.956V211.498H454.395V184.956H440.748V247.282H454.395V223.211H453.106V221.814H481.905V247.282H495.552V184.956H481.905Z" fill="#231F20"/>
<path d="M351.88 236.429V235.032H353.169V184.956H339.522V236.429H312.12V184.956H298.365V247.282H349.193V258.136H360.047V236.429H351.88Z" fill="#231F20"/>
<path d="M506.084 184.956V195.272H529.188V247.282H542.835V196.669H541.545V195.272H565.939V184.956H506.084Z" fill="#231F20"/>
<path d="M389.813 236.429V223.211H388.524V221.814H417.323V211.498H389.813V196.669H388.524V195.272H425.167V184.956H376.166V247.282H426.994V236.429H389.813Z" fill="#231F20"/>
<path d="M609.353 184.956H576.471V247.175H590.226V228.262H588.828V226.865H609.353C620.959 226.865 630.308 217.516 630.308 205.911C630.308 194.305 620.851 184.956 609.353 184.956ZM607.741 216.656H590.226V196.669H588.828V195.272H607.741C613.652 195.272 618.38 200.108 618.38 205.911C618.38 211.928 613.652 216.656 607.741 216.656Z" fill="#231F20"/>
</svg>
