<svg width="700" height="428" viewBox="0 0 700 428" fill="none" xmlns="http://www.w3.org/2000/svg">
<g clip-path="url(#clip0_6607_490)">
<g clip-path="url(#clip1_6607_490)">
<path d="M364.447 103.327C365.485 103.505 366.524 103.722 367.563 103.85C382.143 105.736 393.766 116.152 397.168 130.507C399.117 138.721 399.067 146.896 396.09 154.903C394.201 159.997 391.352 164.509 387.385 168.251C382.905 172.476 377.514 174.836 371.509 175.922C367.217 176.692 362.884 176.959 358.532 177.008C354.229 177.067 349.926 177.018 345.623 177.018H344.13C343.773 175.981 343.704 164.272 344.06 162.682C344.525 162.682 345.02 162.682 345.524 162.682C350.618 162.682 355.713 162.761 360.797 162.623C365.891 162.485 370.679 161.192 374.764 157.963C379.373 154.31 381.777 149.482 382.252 143.667C382.598 139.383 382.183 135.187 380.639 131.139C377.474 122.856 370.164 117.791 361.291 117.692C358.542 117.662 355.841 117.82 353.2 118.63C347.651 120.318 343.783 123.971 341.162 129.026C339.184 132.827 338.392 136.934 338.155 141.16C338.096 142.315 338.086 143.47 338.086 144.625C338.086 167.49 338.046 190.356 338.106 213.231C338.125 219.688 338.284 226.165 338.679 232.611C339.312 242.909 340.925 253.058 343.823 262.99C344.258 264.481 344.931 265.814 345.752 267.097C352.389 277.444 361.855 283.703 373.804 286.28C380.511 287.731 387.277 287.85 394.092 287.228C399.166 286.764 404.142 285.678 409.147 284.809C422.471 282.499 435.31 283.97 447.556 289.854C451.889 291.937 456.191 294.07 460.554 296.103C464.421 297.91 468.457 299.253 472.73 299.727C474.105 299.885 475.5 299.914 476.885 299.983C485.619 300.428 492.513 304.377 497.914 311.081C502.069 316.224 504.749 322.128 506.569 328.447C506.609 328.575 506.569 328.713 506.569 329.187C506.233 328.417 506.025 327.943 505.828 327.469C503.216 321.358 499.665 315.898 494.61 311.505C489.447 307.013 483.473 304.476 476.578 304.268C475.282 304.229 473.996 304.239 472.701 304.268C469.397 304.347 466.152 303.923 462.967 303.044C462.71 302.975 462.443 302.955 462.037 302.896C462.334 304.17 462.611 305.315 462.868 306.46C463.679 310.172 464.312 313.954 464.055 317.725C463.62 324.34 466.32 329.562 470.673 334.163C472.384 335.97 474.273 337.599 476.074 339.297C476.074 339.297 475.994 339.376 475.955 339.356C471.009 337.253 466.508 334.479 462.858 330.481C460.633 328.052 459.001 325.278 458.467 321.98C458.249 320.618 458.209 319.226 458.081 317.843C457.25 309.452 453.728 302.471 447.151 297.111C446.587 296.656 445.924 296.271 445.241 296.024C438.238 293.458 431.017 292.51 423.559 293.122C418.099 293.576 412.777 294.692 407.485 296.044C404.528 296.804 401.56 297.476 398.593 298.187C398.246 298.266 397.91 298.394 397.475 298.522C398.108 299.292 398.682 299.954 399.226 300.645C401.214 303.172 402.619 306.026 403.984 308.908C405.25 311.574 406.476 314.269 407.891 316.856C410.641 321.911 414.736 325.495 420.137 327.598C423.935 329.079 427.595 330.846 430.968 333.166C433.925 335.2 436.547 337.579 438.387 340.719C440.573 344.451 440.998 348.449 440.187 352.625C440.157 352.763 440.108 352.892 440.048 353.02C440.009 353.099 439.94 353.168 439.851 353.287C439.494 351.885 439.208 350.503 438.802 349.16C437.031 343.138 433.124 338.961 427.427 336.513C424.034 335.052 420.542 333.818 417.06 332.603C412.124 330.885 407.545 328.565 403.538 325.159C400.779 322.809 398.385 320.114 396.318 317.152C393.993 313.815 391.807 310.389 389.512 307.033C388.206 305.127 386.782 303.301 385.467 301.415C384.922 300.635 384.309 300.438 383.37 300.526C378.196 301.01 373.013 301.129 367.889 300.151C365.723 299.737 363.616 299.006 361.479 298.404C361.133 298.305 360.807 298.147 360.164 297.89C360.49 298.611 360.688 299.095 360.916 299.569C362.251 302.373 363.319 305.265 363.626 308.385C364.041 312.65 363.022 316.629 361.212 320.45C361.054 320.785 360.916 321.141 360.718 321.437C359.808 322.78 359.679 324.192 359.996 325.771C360.797 329.829 362.162 333.591 365.05 336.681C367.019 338.793 369.422 340.195 372.113 341.183C376.811 342.91 381.322 345.023 385.516 347.778C388.236 349.555 390.729 351.608 392.885 354.047C396.624 358.282 398.039 363.189 397.416 368.797C396.822 374.168 396.209 379.529 396.357 384.959C396.446 388.207 396.852 391.396 397.801 394.516C399.443 399.926 402.599 404.24 407.238 407.488C407.614 407.745 407.98 408.012 408.257 408.446C407.535 408.101 406.793 407.765 406.081 407.39C400.264 404.29 395.546 400.064 392.608 394.071C390.838 390.468 389.809 386.627 389.502 382.648C389.166 378.235 389.107 373.802 388.899 369.37C388.83 367.948 388.751 366.506 388.493 365.104C387.93 362.014 386.159 359.625 383.805 357.631C381.925 356.031 379.828 354.768 377.632 353.672C375.941 352.833 374.21 352.043 372.489 351.253C372.083 351.065 371.658 350.937 371.104 350.73C371.213 351.756 371.351 352.615 371.401 353.474C371.608 357.216 370.57 360.691 368.938 364.009C368.166 365.578 367.236 367.079 366.514 368.678C363.992 374.286 363.754 380.003 365.901 385.788C365.98 385.995 366.049 386.213 366.217 386.696C365.891 386.469 365.743 386.41 365.664 386.301C362.953 382.836 360.817 379.094 360.164 374.671C359.748 371.848 360.065 369.093 361.588 366.655C364.239 362.389 364.813 357.848 363.596 353.079C363.062 350.996 362.201 348.982 361.41 346.968C361.242 346.534 360.836 346.129 360.431 345.872C356.652 343.532 353.576 340.551 351.548 336.385C351.261 336.73 351.014 336.967 350.816 337.253C349.402 339.257 348.086 341.331 346.573 343.246C344.693 345.635 342.626 347.886 340.677 350.226C339.342 351.816 337.957 353.376 336.8 355.093C335.108 357.621 333.447 360.198 332.052 362.903C330.598 365.717 330.39 368.836 330.707 371.956C331.241 377.11 333.981 380.99 337.977 384.08C339.184 385.008 340.489 385.808 341.765 386.647C345.188 388.908 348.333 391.475 350.51 395.009C352.844 398.8 353.517 402.799 351.944 407.064C351.815 407.409 351.647 407.735 351.489 408.071C351.459 408.14 351.35 408.16 351.192 408.258C351.123 407.508 351.083 406.797 350.994 406.096C350.302 400.607 347.423 396.579 342.636 393.913C341.231 393.133 339.688 392.6 338.195 391.978C335.979 391.05 333.733 390.201 331.557 389.194C329.668 388.325 328.046 387.022 326.374 385.6C326.611 387.081 326.809 388.562 327.106 390.023C328.145 395.098 329.787 400.005 331.577 404.852C333.407 409.828 335.356 414.775 337.136 419.77C339.342 425.97 340.282 432.378 340.064 438.953C340.064 439.091 340.015 439.22 339.926 439.703C339.688 439.091 339.54 438.756 339.431 438.41C337.285 431.519 334.643 424.825 331.181 418.487C329.925 416.186 328.402 414.024 326.977 411.813C323.288 406.086 320.103 400.113 317.986 393.607C316.364 388.651 315.454 383.576 315.454 378.374C315.454 372.006 316.839 365.924 319.539 360.148C319.757 359.684 319.974 359.23 320.192 358.766C320.231 358.687 320.231 358.588 320.281 358.381C319.945 358.46 319.648 358.539 319.361 358.588C316.957 359.052 314.573 359.595 312.16 359.971C301.16 361.669 293.91 367.889 290.022 378.166C288.38 382.52 287.599 387.062 287.51 391.712C287.49 392.679 287.51 393.647 287.302 394.634C287.154 393.805 286.986 392.985 286.877 392.156C286.095 386.203 286.135 380.279 287.401 374.385C289.023 366.842 293.168 361.017 299.41 356.555C303.663 353.514 308.302 351.283 313.169 349.466C316.116 348.37 319.074 347.304 322.012 346.198C324.139 345.398 326.176 344.421 328.056 343.118C328.709 342.664 329.183 342.101 329.609 341.41C330.489 339.949 331.478 338.547 332.527 337.204C335.633 333.235 338.838 329.355 341.894 325.347C343.368 323.412 344.733 321.348 345.89 319.206C348.383 314.635 348.591 309.846 346.553 305.058C345.564 302.728 344.387 300.467 343.17 298.246C341.706 295.58 340.114 292.974 338.531 290.259C338.254 290.555 338.026 290.772 337.838 291.009C330.815 300.033 321.596 305.512 310.468 307.911C306.334 308.8 302.159 309.175 297.936 309.185C296.501 309.185 295.067 309.234 293.633 309.284C293.267 309.294 292.891 309.363 292.555 309.481C289.33 310.666 286.185 312.018 283.415 314.072C282.169 315 281.001 316.096 279.982 317.271C278.439 319.038 277.935 321.171 278.429 323.491C279.142 326.887 278.261 329.878 276.145 332.564C274.601 334.509 272.682 336.019 270.595 337.332C267.529 339.257 264.235 340.699 260.783 341.815C260.526 341.894 260.269 341.953 259.922 341.844C260.249 341.637 260.565 341.42 260.892 341.222C263.899 339.445 266.678 337.401 268.983 334.765C270.991 332.465 272.465 329.898 272.95 326.818C273.207 325.179 273.118 323.579 272.633 322.02C271.367 317.952 272.623 314.575 275.413 311.614C276.293 310.686 277.292 309.866 278.4 308.839C277.608 308.76 276.995 308.681 276.382 308.652C270.981 308.356 265.58 307.99 260.179 307.822C256.619 307.704 253.058 308.129 249.566 308.859C244.689 309.876 240.762 312.591 237.241 315.968C233.383 319.67 230.188 323.915 227.211 328.328C223.759 333.462 220.405 338.665 216.943 343.799C213.946 348.252 210.731 352.536 206.844 356.278C204.055 358.964 200.988 361.234 197.338 362.626C196.616 362.903 195.864 363.12 195.122 363.357L194.865 363.041C195.053 362.962 195.251 362.903 195.409 362.794C202.254 358.332 207.418 352.319 211.612 345.388C214.747 340.195 217.28 334.706 219.861 329.237C222.028 324.646 224.233 320.065 227.043 315.81C229.802 311.643 233.096 308 237.409 305.374C240.614 303.419 244.145 302.383 247.775 301.593C255.491 299.914 263.276 299.134 271.179 299.144C277.371 299.144 283.573 299.036 289.765 298.74C296.323 298.414 302.872 297.831 309.182 295.788C309.618 295.649 310.053 295.501 310.617 295.314C310.36 295.146 310.231 294.998 310.083 294.968C304.771 293.981 299.815 291.957 294.869 289.864C290.527 288.028 286.204 286.152 281.793 284.513C276.026 282.361 270.022 281.324 263.849 281.462C257.548 281.6 251.475 282.953 245.56 285.066C245.045 285.243 244.531 285.411 243.928 285.421C244.205 285.234 244.482 285.026 244.768 284.848C250.397 281.511 256.421 279.221 262.929 278.352C268.479 277.612 273.998 277.908 279.498 278.964C285.601 280.139 291.447 282.173 297.293 284.236C301.695 285.786 306.077 287.406 310.656 288.373C314.257 289.133 317.877 289.449 321.517 288.571C322.625 288.304 323.545 287.84 324.366 287.011C327.254 284.059 329.411 280.662 330.934 276.832C331.261 276.002 331.261 275.301 330.934 274.462C327.403 265.379 325.187 255.98 323.901 246.335C322.605 236.6 322.22 226.836 322.556 217.032C323.021 203.27 322.793 189.507 322.843 175.744C322.882 164.568 322.783 153.382 322.882 142.206C322.942 135.789 323.97 129.51 326.681 123.616C331.34 113.457 339.174 107.108 350.035 104.502C351.736 104.097 353.497 103.92 355.228 103.623C355.633 103.554 356.019 103.436 356.425 103.347C359.105 103.347 361.796 103.347 364.477 103.347L364.447 103.327Z" fill="black"/>
<path d="M571.31 103.327C571.834 103.485 572.348 103.673 572.882 103.791C577.175 104.769 579.816 107.444 581.033 111.61C581.834 114.335 582.082 117.149 582.091 119.963C582.121 152.207 582.111 184.442 582.111 216.687C582.111 217.091 582.111 217.506 582.111 217.881C581.023 218.197 569.598 218.306 567.017 218.049C566.977 217.763 566.898 217.457 566.888 217.151C566.849 216.183 566.819 215.216 566.819 214.248C566.789 202.055 566.759 189.862 566.72 177.669C566.68 164.509 566.641 151.348 566.601 138.188C566.591 134.219 566.601 130.25 566.601 126.153C565.948 126.39 565.879 126.894 565.701 127.269C562.496 133.824 559.301 140.38 556.116 146.935C552.427 154.527 548.737 162.13 545.047 169.722C539.399 181.342 533.761 192.972 528.103 204.592C526.55 207.791 524.977 210.97 522.989 213.942C520.299 217.96 516.461 219.668 511.792 219.718C510.278 219.737 508.735 219.589 507.262 219.244C503.71 218.405 501.524 216.075 500.486 212.619C499.843 210.477 499.665 208.265 499.556 206.054C499.477 204.533 499.457 203.013 499.457 201.483C499.457 169.978 499.457 138.484 499.457 106.98V105.104H514.74C514.809 120.15 514.888 135.147 514.937 150.144C514.987 165.082 515.017 180.029 515.274 195.026C515.422 194.779 515.6 194.532 515.719 194.275C520.071 185.252 524.414 176.238 528.756 167.204C533.613 157.094 538.46 146.985 543.326 136.875C546.472 130.349 549.588 123.803 552.802 117.307C554.009 114.868 555.424 112.529 556.858 110.218C559.044 106.684 562.051 104.245 566.275 103.534C566.403 103.515 566.512 103.396 566.631 103.327C568.204 103.327 569.776 103.327 571.349 103.327L571.31 103.327Z" fill="black"/>
<path d="M259.763 103.327C260.851 103.495 261.939 103.683 263.027 103.821C275.332 105.292 285.907 110.485 295.027 118.748C301.694 124.791 306.986 131.82 310.369 140.202C312.752 146.126 313.989 152.286 314.266 158.664C314.661 167.609 313.326 176.238 309.716 184.462C306.155 192.558 300.793 199.311 294.176 205.116C286.114 212.195 276.905 217.022 266.282 218.79C247.468 221.909 230.682 217.526 216.299 204.79C209.563 198.827 204.202 191.847 200.71 183.504C198.267 177.659 196.932 171.548 196.595 165.23C195.705 148.93 200.562 134.654 211.809 122.678C218.09 115.984 225.36 110.692 233.936 107.296C239.001 105.292 244.253 104.097 249.674 103.604C250.168 103.554 250.663 103.426 251.157 103.327C254.026 103.327 256.895 103.327 259.763 103.327ZM255.619 205.461C256.054 205.442 256.746 205.392 257.439 205.372C261.257 205.284 264.996 204.691 268.616 203.506C280.694 199.538 289.121 191.462 294.493 180.138C298.36 171.983 299.191 163.304 297.866 154.439C295.927 141.495 289.21 131.465 278.429 124.287C267.973 117.317 256.341 116.103 244.352 119.055C231.562 122.204 222.65 130.438 216.814 141.979C212.194 151.121 211.393 160.886 213.352 170.857C217.318 191.077 234.767 205.392 255.628 205.461H255.619Z" fill="black"/>
<path d="M471.423 166.878H422.233V217.862C421.105 218.207 408.493 218.256 407.039 217.941V105.223C408.068 104.956 419.908 104.867 422.144 105.124C422.272 109.004 422.183 112.914 422.203 116.823C422.223 120.792 422.203 124.771 422.203 128.74V152.247C423.271 152.583 469 152.711 471.354 152.395V105.252C472.482 104.946 484.184 104.848 486.409 105.094C486.686 106.072 486.775 215.956 486.488 218.039H471.433V166.878H471.423Z" fill="black"/>
<path d="M178.91 105.035H195.795C195.726 105.331 195.726 105.598 195.617 105.825C190.246 117.475 184.904 129.144 179.444 140.755C178.208 143.371 176.645 145.859 175.062 148.288C173.39 150.864 171.175 152.977 168.732 154.843C168.553 154.981 168.395 155.139 168.108 155.396C168.633 155.544 169.018 155.663 169.414 155.761C173.578 156.877 177.397 158.674 180.641 161.566C184.212 164.755 186.576 168.724 188.129 173.206C189.563 177.343 190.335 181.618 190.374 185.972C190.483 196.368 190.463 206.754 190.493 217.15C190.493 217.417 190.434 217.693 190.394 218.039H175.26C175.24 217.486 175.201 216.953 175.201 216.41C175.201 206.892 175.201 197.375 175.201 187.858C175.201 185.034 174.943 182.23 174.261 179.486C172.589 172.733 168.237 168.734 161.481 167.382C159.503 166.987 157.445 166.829 155.417 166.809C148.572 166.74 141.718 166.779 134.873 166.779H133.171C133.171 168.981 133.151 171.084 133.151 173.187C133.151 175.309 133.151 177.432 133.151 179.565V218.029H117.889V105.242C118.908 104.946 131.312 104.877 133.122 105.173V152.395C133.626 152.444 133.982 152.523 134.329 152.523C137.979 152.503 141.638 152.523 145.288 152.424C151.52 152.256 156.505 149.699 160.165 144.605C161.926 142.157 163.35 139.52 164.577 136.776C169.137 126.627 173.707 116.487 178.267 106.338C178.455 105.923 178.663 105.519 178.9 105.035H178.91Z" fill="black"/>
</g>
</g>
<defs>
<clipPath id="clip0_6607_490">
<rect width="700" height="428" fill="white"/>
</clipPath>
<clipPath id="clip1_6607_490">
<rect width="464.223" height="336.347" fill="white" transform="translate(117.889 103.327)"/>
</clipPath>
</defs>
</svg>
