<svg width="700" height="428" viewBox="0 0 700 428" fill="none" xmlns="http://www.w3.org/2000/svg">
<path d="M112.622 186.524C96.1691 186.524 82.8691 199.824 82.8691 216.277C82.8691 232.729 96.1691 246.029 112.622 246.029C129.074 246.029 142.374 232.729 142.374 216.277C142.374 199.824 129.074 186.524 112.622 186.524ZM112.622 231.252C104.445 231.252 97.7454 224.552 97.7454 216.375C97.7454 208.198 104.445 201.499 112.622 201.499C120.799 201.499 127.498 208.198 127.498 216.375C127.498 224.552 120.799 231.252 112.622 231.252Z" fill="#4495D1"/>
<path d="M33.1172 136.871V196.475H53.0178V156.772H92.7206V136.871H33.1172Z" fill="#231F20"/>
<path d="M53.0178 275.881V236.178H33.1172V295.683H92.7206V275.881H53.0178Z" fill="#231F20"/>
<path d="M172.127 236.178V275.881H132.424V295.683H192.027V236.178H172.127Z" fill="#231F20"/>
<path d="M142.374 136.871L128.68 156.772H172.126V200.218L192.027 186.524V136.871H142.374Z" fill="#4495D1"/>
<path d="M314.287 266.619H316.947L319.016 270.658H319.312L321.38 266.619H324.04V275.19H322.169V268.984H321.873L320.1 272.432H318.326L316.553 268.984H316.257V275.19H314.386L314.287 266.619Z" fill="#231F20"/>
<path d="M334.582 271.15H328.178C328.277 272.923 329.065 273.908 330.641 273.908C331.725 273.908 332.316 273.514 332.513 272.825H334.484C334.188 274.401 332.907 275.583 330.641 275.583C327.883 275.583 326.307 273.711 326.307 270.953C326.307 268.194 327.883 266.52 330.543 266.52C333.203 266.52 334.582 268.293 334.582 270.559V271.15ZM328.277 269.672H332.612C332.513 268.687 331.824 267.899 330.543 267.899C329.164 267.899 328.474 268.687 328.277 269.672Z" fill="#231F20"/>
<path d="M337.834 275.289H335.863L338.129 270.856L335.962 266.718H337.932L339.705 270.166H341.38V266.718H343.154V270.166H344.828L346.602 266.718H348.572L346.405 270.856L348.671 275.289H346.7L344.828 271.742H343.154V275.289H341.38V271.742H339.705L337.834 275.289Z" fill="#231F20"/>
<path d="M360.689 273.614V277.653H358.817V275.19H351.921V277.653H350.049V273.614H351.231C351.724 272.53 352.118 270.954 352.118 269.082V266.619H359.014V273.614H360.689ZM357.241 268.294H354.088V269.082C354.088 271.052 353.694 272.53 353.3 273.614H357.339L357.241 268.294Z" fill="#231F20"/>
<path d="M363.152 278.638L365.024 274.501L361.379 266.619H363.448L365.812 271.742H366.206L368.374 266.619H370.344L365.123 278.638H363.152Z" fill="#231F20"/>
<path d="M378.222 275.289V271.644H374.085V275.289H372.213V266.718H374.085V270.067H378.222V266.718H380.094V275.289H378.222Z" fill="#231F20"/>
<path d="M388.275 274.402H387.98C387.487 274.993 386.6 275.486 385.418 275.486C383.448 275.486 382.266 274.106 382.266 272.629C382.266 271.249 383.152 269.771 385.714 269.771H388.275V269.476C388.275 268.491 387.684 267.9 386.502 267.9C385.418 267.9 384.827 268.294 384.729 268.983H382.857C382.955 267.407 384.335 266.422 386.403 266.422C388.669 266.422 390.147 267.407 390.147 269.574V275.289H388.374V274.402H388.275ZM388.275 271.84V271.151H386.108C384.926 271.151 384.236 271.643 384.236 272.53C384.236 273.417 384.827 273.909 386.009 273.909C387.29 273.909 388.275 273.023 388.275 271.84Z" fill="#231F20"/>
<path d="M394.972 274.402H394.677V278.638H392.805V266.619H394.677V267.506H394.972C395.465 266.914 396.154 266.422 397.435 266.422C399.799 266.422 401.277 268.392 401.277 270.954C401.277 273.614 399.799 275.486 397.435 275.486C396.154 275.486 395.465 274.993 394.972 274.402ZM394.578 270.954C394.578 272.431 395.268 273.811 396.942 273.811C398.519 273.811 399.307 272.53 399.307 270.954C399.307 269.279 398.519 267.998 396.942 267.998C395.366 268.097 394.578 269.476 394.578 270.954Z" fill="#231F20"/>
<path d="M411.82 270.954C411.82 273.614 410.145 275.486 407.485 275.486C404.727 275.486 403.15 273.614 403.15 270.954C403.15 268.294 404.825 266.422 407.485 266.422C410.145 266.422 411.82 268.294 411.82 270.954ZM409.948 270.954C409.948 269.476 409.16 268.097 407.485 268.097C405.81 268.097 405.022 269.476 405.022 270.954C405.022 272.431 405.81 273.909 407.485 273.909C409.16 273.909 409.948 272.431 409.948 270.954Z" fill="#231F20"/>
<path d="M423.642 273.614V277.653H421.77V275.19H414.874V277.653H413.002V273.614H414.184C414.677 272.53 415.071 270.954 415.071 269.082V266.619H421.967V273.614H423.642ZM420.194 268.294H417.041V269.082C417.041 271.052 416.647 272.53 416.253 273.614H420.292L420.194 268.294Z" fill="#231F20"/>
<path d="M431.621 275.289V271.644H427.483V275.289H425.611V266.718H427.483V270.067H431.621V266.718H433.493V275.289H431.621Z" fill="#231F20"/>
<path d="M441.769 274.402H441.474C440.981 274.993 440.095 275.486 438.912 275.486C436.942 275.486 435.76 274.106 435.76 272.629C435.76 271.249 436.646 269.771 439.208 269.771H441.769V269.476C441.769 268.491 441.178 267.9 439.996 267.9C438.912 267.9 438.321 268.294 438.223 268.983H436.351C436.449 267.407 437.829 266.422 439.898 266.422C442.163 266.422 443.641 267.407 443.641 269.574V275.289H441.868V274.402H441.769ZM441.671 271.84V271.151H439.503C438.321 271.151 437.632 271.643 437.632 272.53C437.632 273.417 438.223 273.909 439.405 273.909C440.686 273.909 441.671 273.023 441.671 271.84Z" fill="#231F20"/>
<path d="M451.523 272.136H449.258L447.681 275.289H445.711L447.386 271.841C446.302 271.447 445.809 270.56 445.809 269.378C445.809 267.703 446.992 266.619 449.061 266.619H453.395V275.19H451.523V272.136ZM451.523 268.195H449.258C448.075 268.195 447.681 268.688 447.681 269.378C447.681 270.067 448.075 270.56 449.258 270.56H451.523V268.195Z" fill="#231F20"/>
<path d="M315.176 299.132L317.047 294.994L313.402 287.112H315.471L317.836 292.235H318.23L320.397 287.112H322.367L317.146 299.132H315.176Z" fill="#231F20"/>
<path d="M326.404 294.894H326.108V299.13H324.236V287.111H326.108V287.998H326.404C326.896 287.407 327.586 286.914 328.867 286.914C331.231 286.914 332.709 288.884 332.709 291.446C332.709 294.106 331.231 295.978 328.867 295.978C327.586 295.978 326.798 295.485 326.404 294.894ZM326.01 291.446C326.01 292.924 326.699 294.303 328.374 294.303C329.95 294.303 330.739 293.022 330.739 291.446C330.739 289.771 329.95 288.49 328.374 288.49C326.699 288.49 326.01 289.87 326.01 291.446Z" fill="#231F20"/>
<path d="M343.252 291.643C343.252 294.204 341.578 295.978 338.918 295.978C336.258 295.978 334.484 294.106 334.484 290.756C334.484 287.801 334.977 285.042 337.933 284.55C338.327 284.451 340.1 284.155 340.1 284.155C340.79 284.057 340.987 283.958 341.085 283.466H342.858C342.858 284.451 342.661 285.338 341.085 285.633C340.691 285.732 338.918 285.929 338.425 286.027C336.947 286.323 336.553 287.308 336.356 288.589H336.652C337.341 287.702 338.228 287.308 339.41 287.308C341.676 287.407 343.252 289.18 343.252 291.643ZM341.381 291.643C341.381 290.264 340.592 288.983 338.918 288.983C337.243 288.983 336.455 290.264 336.455 291.643C336.455 293.022 337.243 294.303 338.918 294.303C340.592 294.303 341.381 293.121 341.381 291.643Z" fill="#231F20"/>
<path d="M350.935 294.894H350.64C350.147 295.485 349.261 295.978 348.078 295.978C346.108 295.978 344.926 294.598 344.926 293.121C344.926 291.741 345.812 290.264 348.374 290.264H350.935V289.968C350.935 288.983 350.344 288.392 349.162 288.392C348.078 288.392 347.487 288.786 347.389 289.476H345.517C345.615 287.899 346.995 286.914 349.064 286.914C351.329 286.914 352.807 287.899 352.807 290.067V295.781H351.034L350.935 294.894ZM350.935 292.333V291.741H348.768C347.586 291.741 346.896 292.234 346.896 293.121C346.896 294.007 347.487 294.5 348.669 294.5C349.95 294.401 350.935 293.515 350.935 292.333Z" fill="#231F20"/>
<path d="M361.476 295.683V292.038H357.339V295.683H355.467V287.112H357.339V290.462H361.476V287.112H363.348V295.683H361.476Z" fill="#231F20"/>
<path d="M366.205 295.683V287.112H368.077V292.728H368.372L372.018 287.112H374.185V295.683H372.313V290.068H372.018L368.372 295.683H366.205Z" fill="#231F20"/>
<path d="M384.529 292.922C384.233 294.695 382.854 295.877 380.785 295.877C378.125 295.877 376.549 294.005 376.549 291.345C376.549 288.685 378.125 286.813 380.785 286.813C382.854 286.813 384.233 287.996 384.529 289.671H382.657C382.46 288.882 381.869 288.488 380.884 288.488C379.209 288.488 378.519 289.868 378.519 291.345C378.519 292.922 379.209 294.301 380.884 294.301C381.967 294.301 382.558 293.808 382.755 292.922H384.529Z" fill="#231F20"/>
<path d="M386.008 287.112H393.692V288.689H390.835V295.683H388.963V288.689H386.008V287.112Z" fill="#231F20"/>
<path d="M395.662 295.683V287.112H397.534V292.728H397.829L401.475 287.112H403.642V295.683H401.77V290.068H401.475L397.829 295.683H395.662Z" fill="#231F20"/>
<path d="M407.879 287.111V289.574C407.879 290.264 407.977 291.052 409.75 291.052C410.44 291.052 411.031 290.953 411.622 290.855V287.111H413.593V295.682H411.622V292.431C410.933 292.628 409.947 292.628 409.159 292.628C406.105 292.628 405.908 291.15 405.908 289.771V287.013L407.879 287.111Z" fill="#231F20"/>
<path d="M424.035 291.544H417.632C417.73 293.318 418.518 294.303 420.095 294.303C421.178 294.303 421.769 293.909 421.966 293.219H423.937C423.641 294.796 422.36 295.978 420.095 295.978C417.336 295.978 415.76 294.106 415.76 291.347C415.76 288.687 417.336 286.914 419.996 286.914C422.656 286.914 424.035 288.687 424.035 290.953V291.544ZM417.829 290.165H422.163C422.065 289.18 421.375 288.392 420.095 288.392C418.715 288.392 418.026 289.18 417.829 290.165Z" fill="#231F20"/>
<path d="M433.986 292.922C433.69 294.695 432.311 295.877 430.242 295.877C427.582 295.877 426.006 294.005 426.006 291.345C426.006 288.685 427.582 286.813 430.242 286.813C432.311 286.813 433.69 287.996 433.986 289.671H432.015C431.818 288.882 431.227 288.488 430.242 288.488C428.567 288.488 427.878 289.868 427.878 291.345C427.878 292.922 428.567 294.301 430.242 294.301C431.326 294.301 431.917 293.808 432.114 292.922H433.986Z" fill="#231F20"/>
<path d="M439.996 292.135H438.026V295.78H436.154V287.209H438.026V290.559H439.996L441.967 287.209H443.937L441.573 291.347L444.134 295.78H442.065L439.996 292.135Z" fill="#231F20"/>
<path d="M451.324 294.894H451.028C450.536 295.485 449.649 295.978 448.467 295.978C446.497 295.978 445.314 294.598 445.314 293.121C445.314 291.741 446.201 290.264 448.763 290.264H451.324V289.968C451.324 288.983 450.733 288.392 449.551 288.392C448.467 288.392 447.876 288.786 447.777 289.476H445.906C446.004 287.899 447.383 286.914 449.452 286.914C451.718 286.914 453.196 287.899 453.196 290.067V295.781H451.423V294.894H451.324ZM451.324 292.333V291.741H449.157C447.974 291.741 447.285 292.234 447.285 293.121C447.285 294.007 447.876 294.5 449.058 294.5C450.339 294.401 451.324 293.515 451.324 292.333Z" fill="#231F20"/>
<path d="M461.178 292.629H458.912L457.336 295.782H455.365L457.04 292.334C455.956 291.94 455.464 291.053 455.464 289.871C455.464 288.196 456.646 287.112 458.715 287.112H463.05V295.683H461.178V292.629ZM461.178 288.689H458.912C457.73 288.689 457.336 289.181 457.336 289.871C457.336 290.56 457.73 291.053 458.912 291.053H461.178V288.689Z" fill="#231F20"/>
<path d="M469.848 293.91H470.143C471.325 293.91 471.818 293.22 471.818 290.56V287.112H478.813V295.683H476.941V288.689H473.69V290.56C473.69 294.403 472.606 295.683 470.242 295.683H469.946V293.91H469.848Z" fill="#231F20"/>
<path d="M486.892 294.894H486.597C486.104 295.485 485.218 295.978 484.035 295.978C482.065 295.978 480.883 294.598 480.883 293.121C480.883 291.741 481.769 290.264 484.331 290.264H486.892V289.968C486.892 288.983 486.301 288.392 485.119 288.392C484.035 288.392 483.444 288.786 483.346 289.476H481.474C481.572 287.899 482.952 286.914 485.021 286.914C487.287 286.914 488.764 287.899 488.764 290.067V295.781H486.991V294.894H486.892ZM486.892 292.333V291.741H484.725C483.543 291.741 482.853 292.234 482.853 293.121C482.853 294.007 483.444 294.5 484.627 294.5C485.907 294.401 486.892 293.515 486.892 292.333Z" fill="#231F20"/>
<path d="M499.696 291.643C499.696 294.204 498.021 295.978 495.361 295.978C492.701 295.978 490.928 294.106 490.928 290.756C490.928 287.801 491.42 285.042 494.376 284.55C494.77 284.451 496.543 284.155 496.543 284.155C497.233 284.057 497.43 283.958 497.528 283.466H499.302C499.302 284.451 499.105 285.338 497.528 285.633C497.134 285.732 495.361 285.929 494.868 286.027C493.391 286.323 492.997 287.308 492.8 288.589H493.095C493.785 287.702 494.671 287.308 495.854 287.308C498.12 287.407 499.696 289.18 499.696 291.643ZM497.726 291.643C497.726 290.264 496.937 288.983 495.263 288.983C493.588 288.983 492.8 290.264 492.8 291.643C492.8 293.022 493.588 294.303 495.263 294.303C496.937 294.303 497.726 293.121 497.726 291.643Z" fill="#231F20"/>
<path d="M510.238 291.446C510.238 294.106 508.563 295.978 505.903 295.978C503.145 295.978 501.568 294.106 501.568 291.446C501.568 288.786 503.243 286.914 505.903 286.914C508.563 286.914 510.238 288.786 510.238 291.446ZM508.268 291.446C508.268 289.968 507.479 288.589 505.805 288.589C504.13 288.589 503.342 289.968 503.342 291.446C503.342 292.924 504.13 294.401 505.805 294.401C507.479 294.401 508.268 292.924 508.268 291.446Z" fill="#231F20"/>
<path d="M514.771 294.894H514.475V299.13H512.604V287.111H514.475V287.998H514.771C515.264 287.407 515.953 286.914 517.234 286.914C519.598 286.914 521.076 288.884 521.076 291.446C521.076 294.106 519.598 295.978 517.234 295.978C515.953 295.978 515.165 295.485 514.771 294.894ZM514.377 291.446C514.377 292.924 515.066 294.303 516.741 294.303C518.318 294.303 519.106 293.022 519.106 291.446C519.106 289.771 518.318 288.49 516.741 288.49C515.066 288.49 514.377 289.87 514.377 291.446Z" fill="#231F20"/>
<path d="M528.762 294.894H528.466C527.973 295.485 527.087 295.978 525.905 295.978C523.934 295.978 522.752 294.598 522.752 293.121C522.752 291.741 523.639 290.264 526.2 290.264H528.762V289.968C528.762 288.983 528.17 288.392 526.988 288.392C525.905 288.392 525.313 288.786 525.215 289.476H523.343C523.442 287.899 524.821 286.914 526.89 286.914C529.156 286.914 530.633 287.899 530.633 290.067V295.781H528.86V294.894H528.762ZM528.663 292.333V291.741H526.496C525.313 291.741 524.624 292.234 524.624 293.121C524.624 294.007 525.215 294.5 526.397 294.5C527.678 294.401 528.663 293.515 528.663 292.333Z" fill="#231F20"/>
<path d="M532.307 287.112H539.991V288.689H537.134V295.683H535.262V288.689H532.307V287.112Z" fill="#231F20"/>
<path d="M550.14 291.446C550.14 294.106 548.466 295.978 545.806 295.978C543.047 295.978 541.471 294.106 541.471 291.446C541.471 288.786 543.146 286.914 545.806 286.914C548.466 286.914 550.14 288.786 550.14 291.446ZM548.17 291.446C548.17 289.968 547.382 288.589 545.707 288.589C544.032 288.589 543.244 289.968 543.244 291.446C543.244 292.924 544.032 294.401 545.707 294.401C547.48 294.303 548.17 292.924 548.17 291.446Z" fill="#231F20"/>
<path d="M554.669 294.894H554.374V299.13H552.502V287.111H554.374V287.998H554.669C555.162 287.407 555.852 286.914 557.132 286.914C559.497 286.914 560.975 288.884 560.975 291.446C560.975 294.106 559.497 295.978 557.132 295.978C555.852 295.978 555.063 295.485 554.669 294.894ZM554.177 291.446C554.177 292.924 554.866 294.303 556.541 294.303C558.118 294.303 558.906 293.022 558.906 291.446C558.906 289.771 558.118 288.49 556.541 288.49C554.965 288.49 554.177 289.87 554.177 291.446Z" fill="#231F20"/>
<path d="M563.145 295.683V287.112H565.016V292.728H565.312L568.957 287.112H571.125V295.683H569.253V290.068H568.957L565.312 295.683H563.145Z" fill="#231F20"/>
<path d="M579.299 292.629H577.033L575.457 295.782H573.486L575.161 292.334C574.077 291.94 573.585 291.053 573.585 289.871C573.585 288.196 574.767 287.112 576.836 287.112H581.171V295.683H579.299V292.629ZM579.299 288.689H577.033C575.851 288.689 575.457 289.181 575.457 289.871C575.457 290.56 575.851 291.053 577.033 291.053H579.299V288.689Z" fill="#231F20"/>
<path d="M411.129 187.805V212.139H386.007V187.805H373.396V244.847H386.007V222.779H384.726V221.498H411.129V244.847H423.739V187.805H411.129Z" fill="#231F20"/>
<path d="M291.925 234.896V233.714H293.206V187.805H280.596V234.896H255.474V187.805H242.863V244.847H289.561V254.797H299.413V234.896H291.925Z" fill="#231F20"/>
<path d="M433.297 187.805V197.164H454.478V244.847H467.089V198.445H465.808V197.164H488.27V187.805H433.297Z" fill="#231F20"/>
<path d="M326.8 234.896V222.779H325.519V221.498H351.922V212.139H326.8V198.445H325.519V197.164H359.212V187.805H314.189V244.847H360.789V234.896H326.8Z" fill="#231F20"/>
<path d="M527.975 187.805H497.828V244.847H510.438V227.507H509.158V226.227H527.975C538.615 226.227 547.186 217.656 547.186 207.016C547.186 196.376 538.615 187.805 527.975 187.805ZM526.497 216.769H510.438V198.445H509.158V197.164H526.497C531.915 197.164 536.25 201.597 536.25 206.917C536.25 212.237 531.915 216.769 526.497 216.769Z" fill="#231F20"/>
<path d="M554.965 226.225V216.768H564.423V226.225H554.965Z" fill="#4495D1"/>
<path d="M649.94 186.918C644.422 186.918 640.974 188.987 638.905 191.647H638.117V175.194H629.842V226.227H638.117V222.286H638.905C640.974 224.946 644.324 227.015 649.94 227.015C660.481 227.015 666.885 218.444 666.885 206.917C666.885 195.391 660.284 186.918 649.94 186.918ZM648.363 220.316C640.876 220.316 637.723 214.109 637.723 207.311C637.723 200.513 640.876 194.405 648.363 194.405C655.358 194.405 658.905 199.922 658.905 207.311C658.905 214.7 655.358 220.316 648.363 220.316Z" fill="#4495D1"/>
<path d="M606.787 187.807H592.009V194.407H605.112C609.447 194.407 612.895 197.855 612.895 202.19H602.255C599.595 202.19 597.231 202.584 595.359 203.372C593.487 204.161 591.911 205.146 590.728 206.328C589.546 207.51 588.66 208.89 588.167 210.367C587.674 211.845 587.379 213.323 587.379 214.801C587.379 216.377 587.674 217.953 588.266 219.431C588.857 220.909 589.743 222.189 590.926 223.372C592.108 224.554 593.487 225.441 595.162 226.13C596.837 226.82 598.807 227.115 600.974 227.115C603.536 227.115 605.802 226.721 607.674 225.933C609.545 225.145 611.023 223.963 612.107 222.584H612.895V226.327H621.171V202.19C621.171 194.21 614.767 187.807 606.787 187.807ZM612.895 211.057C612.895 212.338 612.6 213.52 612.107 214.604C611.614 215.687 610.925 216.672 610.038 217.559C609.151 218.446 608.068 219.037 606.885 219.529C605.605 220.022 604.324 220.219 602.945 220.219C600.58 220.219 598.708 219.726 597.329 218.643C596.048 217.559 595.359 216.18 595.359 214.308C595.359 212.436 596.048 210.86 597.329 209.776C598.61 208.692 600.679 208.2 603.339 208.2H612.895V211.057Z" fill="#4495D1"/>
<path d="M582.156 175.194H573.881V226.227H582.156V175.194Z" fill="#4495D1"/>
</svg>
