<svg width="700" height="428" viewBox="0 0 700 428" fill="none" xmlns="http://www.w3.org/2000/svg">
<path d="M51.2543 292.704C51.2092 292.531 51.1641 292.44 51.1641 292.35C51.1641 238.899 51.1641 185.456 51.1641 132.004C51.1641 131.914 51.2167 131.824 51.2392 131.749C51.2768 131.719 51.2994 131.689 51.3295 131.674C51.3595 131.659 51.3896 131.651 51.4197 131.651C51.7053 131.644 51.9985 131.621 52.2842 131.621C105.435 131.621 158.592 131.629 211.743 131.636C211.803 131.636 211.856 131.681 211.961 131.719C211.983 131.847 212.036 132.004 212.044 132.155C212.059 132.538 212.051 132.922 212.051 133.313C212.051 181.727 212.051 230.133 212.051 278.548C212.051 282.878 212.051 287.208 212.051 291.538C212.051 291.914 212.111 292.305 211.946 292.704H51.2543ZM63.027 143.544V144.98C63.027 189.801 63.027 234.622 63.027 279.442C63.027 279.728 63.0195 280.021 63.027 280.307C63.0346 280.487 63.0722 280.668 63.1022 280.878C63.5909 280.983 64.0419 280.938 64.478 280.938C109.224 280.938 153.969 280.938 198.715 280.938C199 280.938 199.293 280.946 199.579 280.938C199.767 280.931 199.948 280.886 200.12 280.856C200.271 280.405 200.203 279.984 200.203 279.578C200.203 234.689 200.203 189.808 200.203 144.92C200.203 144.634 200.218 144.341 200.203 144.055C200.188 143.875 200.135 143.695 200.083 143.477C154.563 143.477 109.081 143.477 63.5984 143.477C63.4405 143.477 63.2902 143.507 63.012 143.537L63.027 143.544Z" fill="black"/>
<path d="M262.433 157.789C261.516 157.646 257.99 157.639 257.111 157.774C256.938 158.015 257.006 158.308 257.006 158.586C257.006 160.541 257.006 162.503 257.006 164.457C257.006 168.464 257.006 172.479 257.006 176.486C257.006 176.831 256.983 177.177 256.968 177.576C255.743 177.719 254.562 177.628 253.39 177.643C252.202 177.658 251.014 177.643 249.789 177.643C249.743 177.433 249.683 177.26 249.668 177.08C249.646 176.824 249.668 176.568 249.668 176.313C249.668 161.653 249.668 146.986 249.668 132.326C249.668 131.92 249.631 131.499 249.721 131.116C250.48 130.973 255.713 130.943 256.923 131.063C256.953 131.259 257.006 131.469 257.006 131.687C257.013 132.717 257.006 133.74 257.006 134.77C257.006 139.807 257.006 144.843 257.006 149.88C257.006 150.226 256.96 150.58 257.073 150.903C257.81 151.046 261.05 151.083 262.291 150.963C262.546 150.707 262.448 150.369 262.448 150.061C262.456 147.46 262.448 144.866 262.448 142.265C262.448 140.754 262.584 139.25 262.997 137.792C264.027 134.161 266.312 131.77 270.019 130.853C272.454 130.252 274.92 130.259 277.356 130.898C280.529 131.733 282.694 133.702 283.866 136.777C284.468 138.356 284.731 140.002 284.731 141.679C284.754 150.113 284.754 158.556 284.731 166.991C284.731 168.99 284.37 170.945 283.483 172.772C282.258 175.283 280.311 176.929 277.627 177.673C274.77 178.47 271.898 178.448 269.094 177.523C265.884 176.471 263.944 174.163 263.027 170.953C262.606 169.494 262.456 167.998 262.456 166.48C262.456 163.946 262.456 161.413 262.456 158.879C262.456 158.533 262.448 158.18 262.441 157.789H262.433ZM277.416 154.308C277.416 150.399 277.416 146.482 277.416 142.573C277.416 142.16 277.416 141.739 277.394 141.325C277.364 140.581 277.236 139.859 276.965 139.168C276.649 138.356 276.086 137.769 275.266 137.431C274.567 137.138 273.838 137.1 273.093 137.16C271.545 137.281 270.537 138.093 270.079 139.566C269.823 140.4 269.771 141.265 269.771 142.137C269.771 150.151 269.771 158.172 269.771 166.186C269.771 166.472 269.748 166.765 269.786 167.051C269.868 167.75 269.921 168.457 270.094 169.141C270.304 169.975 270.778 170.667 271.567 171.073C272.71 171.667 273.913 171.689 275.116 171.298C276.341 170.892 276.958 169.938 277.198 168.742C277.341 168.028 277.394 167.276 277.401 166.547C277.416 162.473 277.409 158.405 277.409 154.331L277.416 154.308Z" fill="black"/>
<path d="M318.223 193.742C318.441 193.682 318.531 193.644 318.621 193.644C321.764 193.644 324.913 193.644 328.056 193.644C328.146 193.644 328.236 193.697 328.394 193.742C329.026 197.313 329.582 200.921 330.183 204.515C330.777 208.086 331.349 211.664 331.935 215.243C332.529 218.851 333.123 222.452 333.739 226.204C333.867 225.971 333.972 225.865 333.995 225.745C334.401 223.084 334.799 220.422 335.198 217.754C335.619 214.935 336.047 212.108 336.468 209.289C336.942 206.116 337.423 202.944 337.897 199.779C338.175 197.937 338.438 196.103 338.724 194.261C338.754 194.073 338.829 193.9 338.889 193.697C339.738 193.562 340.565 193.652 341.392 193.637C342.227 193.622 343.061 193.637 343.896 193.637H346.399C347.226 193.637 348.061 193.637 348.933 193.637C348.978 193.87 349.03 194.05 349.045 194.231C349.06 194.456 349.045 194.682 349.045 194.907C349.045 209.635 349.045 224.354 349.045 239.081V240.262C348.835 240.307 348.692 240.367 348.542 240.367C346.549 240.367 344.565 240.367 342.573 240.367C342.452 240.367 342.332 240.329 342.167 240.299C342.054 239.089 342.122 237.909 342.114 236.736C342.099 235.548 342.114 234.36 342.114 233.173V208.056C342.114 208.056 342.046 208.041 342.009 208.033C341.934 208.326 341.843 208.612 341.798 208.905C341.325 212.01 340.866 215.122 340.392 218.227C339.911 221.4 339.423 224.565 338.942 227.737C338.468 230.872 337.994 234.015 337.521 237.149C337.385 238.067 337.243 238.991 337.1 239.908C337.077 240.029 337.032 240.149 336.979 240.307C335.814 240.435 334.664 240.352 333.521 240.359C332.409 240.359 331.288 240.42 330.108 240.307C329.702 238.179 329.386 236.059 329.033 233.954C328.68 231.834 328.326 229.714 327.973 227.594C327.62 225.444 327.267 223.294 326.906 221.144C326.552 219.024 326.199 216.904 325.846 214.792C325.492 212.679 325.139 210.559 324.771 208.304C324.59 208.582 324.635 208.762 324.62 208.92C324.605 209.078 324.62 209.244 324.62 209.401C324.62 213.348 324.62 217.295 324.62 221.242C324.62 227.211 324.62 233.173 324.62 239.142C324.62 239.518 324.665 239.901 324.568 240.239C324.455 240.292 324.402 240.344 324.35 240.344C322.681 240.359 321.012 240.367 319.343 240.375C319.027 240.375 318.704 240.375 318.343 240.375C318.298 240.149 318.245 239.976 318.23 239.796C318.215 239.57 318.23 239.345 318.23 239.119C318.23 224.362 318.23 209.604 318.23 194.855V193.757L318.223 193.742Z" fill="black"/>
<path d="M512.535 240.334H506.16C506.115 240.146 506.055 239.973 506.048 239.793C506.025 239.507 506.048 239.214 506.048 238.928C506.048 229.08 506.048 219.232 506.048 209.376C506.048 208.992 506.048 208.609 506.048 208.098C505.792 208.368 505.739 208.594 505.679 208.827C504.95 211.654 504.243 214.48 503.469 217.299C502.341 221.382 501.169 225.441 500.011 229.516C499.079 232.786 498.131 236.049 497.192 239.311C497.101 239.62 497.004 239.92 496.898 240.259C496.748 240.289 496.598 240.356 496.447 240.356C494.267 240.356 492.08 240.356 489.899 240.356C489.749 240.356 489.591 240.319 489.493 240.311C489.418 240.236 489.396 240.214 489.381 240.183C489.366 240.153 489.358 240.123 489.358 240.093C489.351 224.825 489.336 209.549 489.328 194.28C489.328 194.122 489.351 193.964 489.366 193.769C489.478 193.724 489.599 193.641 489.711 193.641C491.636 193.634 493.561 193.641 495.493 193.641C495.583 193.641 495.673 193.694 495.808 193.731C495.951 194.776 495.853 195.829 495.869 196.874C495.884 197.934 495.869 198.994 495.869 200.054V216.029C495.869 217.089 495.869 218.149 495.869 219.209C495.869 220.254 495.869 221.299 495.869 222.389C496.192 222.246 496.184 221.998 496.237 221.795C496.914 219.186 497.56 216.57 498.282 213.977C498.891 211.781 499.582 209.616 500.259 207.444C501.59 203.159 502.935 198.874 504.281 194.588C504.379 194.288 504.484 193.987 504.574 193.716C505.506 193.589 511.723 193.596 512.565 193.731C512.588 193.897 512.626 194.077 512.633 194.258C512.648 194.483 512.633 194.709 512.633 194.934C512.633 209.661 512.633 224.389 512.633 239.116C512.633 239.492 512.678 239.875 512.543 240.334H512.535Z" fill="black"/>
<path d="M332.626 131.034H339.031C339.069 131.23 339.129 131.403 339.137 131.583C339.152 131.906 339.144 132.222 339.144 132.546C339.144 141.236 339.144 149.927 339.144 158.625C339.144 158.963 339.099 159.309 339.272 159.842C339.415 159.384 339.513 159.128 339.58 158.865C340.242 156.324 340.858 153.768 341.565 151.235C342.211 148.919 342.948 146.626 343.655 144.333C344.933 140.199 346.218 136.071 347.504 131.937C347.587 131.658 347.684 131.388 347.775 131.095C348.444 130.907 349.113 131.019 349.782 131.004C350.458 130.982 351.127 131.004 351.804 131.004C352.481 131.004 353.09 131.004 353.729 131.004C354.398 131.004 355.067 131.019 355.788 131.019C355.819 131.26 355.849 131.44 355.856 131.621C355.871 131.876 355.856 132.132 355.856 132.388C355.856 147.017 355.856 161.639 355.856 176.269C355.856 176.682 355.849 177.096 355.841 177.532C355.104 177.75 354.398 177.614 353.706 177.644C352.969 177.667 352.233 177.652 351.488 177.644C350.789 177.644 350.082 177.637 349.338 177.629C349.301 177.396 349.256 177.216 349.248 177.035C349.233 176.75 349.248 176.457 349.248 176.171C349.248 166.353 349.248 156.542 349.248 146.724V145.581C349.143 145.604 349.105 145.596 349.083 145.619C349.06 145.634 349.053 145.671 349.038 145.702C349.022 145.732 349.015 145.762 349.007 145.792C349 145.822 348.985 145.852 348.977 145.882C348.97 145.912 348.955 145.942 348.947 145.972C348.925 146.032 348.91 146.092 348.895 146.16C348.887 146.19 348.88 146.22 348.872 146.25C348.008 149.566 347.143 152.888 346.271 156.204C346.241 156.332 346.203 156.452 346.166 156.572C346.015 157.098 345.873 157.625 345.722 158.143C343.925 164.398 342.129 170.653 340.332 176.9C340.324 176.93 340.309 176.96 340.302 176.99C340.279 177.05 340.264 177.111 340.242 177.171C340.234 177.201 340.227 177.231 340.212 177.261C340.189 177.321 340.174 177.381 340.144 177.441C340.129 177.471 340.106 177.494 340.061 177.562C339.272 177.72 338.438 177.607 337.611 177.629C336.806 177.644 336.009 177.629 335.205 177.629C334.378 177.629 333.543 177.622 332.686 177.614C332.649 177.374 332.604 177.193 332.589 177.005C332.574 176.75 332.589 176.494 332.589 176.239C332.589 161.609 332.589 146.987 332.589 132.358C332.589 131.944 332.604 131.531 332.611 131.012L332.626 131.034Z" fill="black"/>
<path d="M591.39 240.367C591.352 240.096 591.322 239.946 591.322 239.788C591.33 224.489 591.345 209.191 591.36 193.9C591.36 193.847 591.42 193.795 591.48 193.689C591.698 193.674 591.946 193.644 592.194 193.644C595.72 193.644 599.253 193.614 602.779 193.652C604.478 193.667 606.162 193.885 607.786 194.471C610.117 195.313 611.65 196.929 612.492 199.222C612.861 200.215 613.064 201.252 613.161 202.32C613.334 204.244 613.349 206.161 613.161 208.086C613.049 209.206 612.831 210.303 612.417 211.356C611.831 212.829 610.906 214.025 609.56 214.882C609.29 215.055 609.027 215.228 608.711 215.431C608.839 215.536 608.914 215.626 609.019 215.671C611.643 216.851 612.996 219.017 613.62 221.708C613.823 222.58 613.928 223.482 613.958 224.377C614.026 226.685 614.109 228.993 613.891 231.301C613.725 232.977 613.289 234.578 612.372 236.014C611.47 237.435 610.267 238.503 608.741 239.209C607.177 239.931 605.516 240.269 603.802 240.352C602.997 240.389 602.2 240.374 601.396 240.374C598.442 240.374 595.495 240.374 592.54 240.374H591.397L591.39 240.367ZM598.72 219.355C598.629 220.67 598.682 221.851 598.675 223.031C598.667 224.181 598.675 225.339 598.675 226.489C598.675 227.639 598.667 228.857 598.675 230.045C598.69 231.218 598.614 232.398 598.727 233.593C598.9 233.624 599.02 233.661 599.141 233.661C600.486 233.661 601.832 233.661 603.178 233.654C603.366 233.654 603.561 233.639 603.749 233.608C605.102 233.375 606.042 232.654 606.388 231.285C606.501 230.857 606.591 230.406 606.598 229.962C606.613 227.85 606.628 225.737 606.576 223.625C606.561 222.993 606.373 222.362 606.207 221.753C605.884 220.55 605.035 219.881 603.869 219.573C603.621 219.505 603.373 219.445 603.118 219.423C601.682 219.287 600.246 219.37 598.712 219.355H598.72ZM598.78 212.649C600.013 212.649 601.193 212.694 602.373 212.604C602.689 212.581 603.012 212.514 603.313 212.416C604.523 212.025 605.373 211.266 605.651 209.98C605.741 209.574 605.847 209.161 605.862 208.755C605.907 207.311 605.937 205.876 605.914 204.432C605.907 203.695 605.756 202.974 605.501 202.275C605.215 201.508 604.711 200.951 603.96 200.658C603.546 200.5 603.095 200.373 602.659 200.358C601.441 200.312 600.223 200.335 599.005 200.342C598.923 200.342 598.832 200.41 598.757 200.44C598.637 201.312 598.645 211.739 598.78 212.657V212.649Z" fill="black"/>
<path d="M388.982 131.06C389.11 131.962 389.192 174.453 389.072 177.114C389.072 177.264 389.02 177.422 388.997 177.557C388.238 177.678 382.81 177.7 381.803 177.58C381.772 177.422 381.712 177.242 381.705 177.061C381.69 176.776 381.705 176.482 381.705 176.197C381.705 170.776 381.705 165.356 381.705 159.936C381.705 159.56 381.682 159.177 381.675 158.756C381.434 158.726 381.254 158.673 381.073 158.673C380.179 158.68 379.277 158.68 378.382 158.733C377.968 158.756 377.555 158.846 377.157 158.966C376.157 159.274 375.42 159.898 375.006 160.883C374.758 161.477 374.57 162.093 374.51 162.733C374.443 163.402 374.39 164.078 374.39 164.747C374.375 167.439 374.39 170.137 374.383 172.829C374.383 173.979 374.383 175.137 374.127 176.272C374.029 176.708 373.894 177.129 373.766 177.565C372.917 177.738 372.12 177.633 371.323 177.655C370.488 177.67 369.654 177.655 368.819 177.655C368.023 177.655 367.226 177.648 366.399 177.64C366.399 177.482 366.376 177.385 366.399 177.302C366.902 175.956 367.023 174.558 367.015 173.137C367.015 171.085 367.015 169.032 367.015 166.98C367.015 165.988 367.015 164.988 367.045 163.995C367.09 162.68 367.241 161.372 367.586 160.101C367.752 159.485 367.955 158.868 368.225 158.29C368.872 156.914 369.887 155.869 371.24 155.162C371.383 155.087 371.511 155.004 371.646 154.922C371.669 154.907 371.669 154.861 371.699 154.794C371.608 154.734 371.511 154.658 371.413 154.606C369.391 153.516 368.248 151.757 367.624 149.614C367.331 148.599 367.15 147.547 367.143 146.487C367.143 144.374 367.113 142.254 367.173 140.142C367.218 138.563 367.609 137.044 368.301 135.601C369.21 133.691 370.706 132.481 372.661 131.767C373.999 131.278 375.397 131.038 376.811 131.023C380.728 130.993 384.637 131.008 388.553 131.008C388.681 131.008 388.809 131.038 388.974 131.06H388.982ZM381.577 151.99C381.742 151.08 381.795 144.547 381.697 138.525C381.697 138.277 381.66 138.029 381.637 137.736C381.374 137.713 381.156 137.676 380.938 137.676C380.073 137.676 379.209 137.668 378.337 137.676C377.984 137.676 377.63 137.706 377.284 137.751C376.217 137.894 375.45 138.458 374.991 139.435C374.676 140.112 374.503 140.826 374.495 141.57C374.48 143.555 374.473 145.547 374.495 147.532C374.495 148.043 374.586 148.554 374.691 149.05C375.029 150.636 376.014 151.554 377.6 151.854C378.908 152.095 380.216 151.952 381.577 151.982V151.99Z" fill="black"/>
<path d="M454.377 193.746C455.302 193.589 460.767 193.589 461.602 193.724C461.805 193.964 461.722 194.273 461.722 194.543C461.73 196.663 461.722 198.776 461.722 200.896V213.533C461.925 213.578 462.075 213.638 462.226 213.638C464.662 213.638 467.105 213.638 469.541 213.638C469.661 213.638 469.789 213.608 469.924 213.586C470.112 213.24 470.029 212.887 470.037 212.541C470.044 209.458 470.037 206.384 470.037 203.301V193.754C470.24 193.701 470.39 193.634 470.54 193.634C472.721 193.634 474.908 193.634 477.088 193.634C477.179 193.634 477.276 193.664 477.427 193.694C477.464 193.859 477.517 194.032 477.532 194.212C477.547 194.438 477.532 194.664 477.532 194.889C477.532 209.616 477.532 224.344 477.532 239.071C477.532 239.454 477.532 239.83 477.532 240.236C477.359 240.289 477.239 240.349 477.126 240.349C474.878 240.349 472.63 240.349 470.383 240.349C470.322 240.349 470.262 240.319 470.142 240.289C470.112 240.131 470.052 239.958 470.037 239.777C470.022 239.492 470.037 239.199 470.037 238.913C470.037 233.109 470.037 227.298 470.037 221.494C470.037 221.149 470.014 220.803 470.007 220.547C469.909 220.442 469.894 220.412 469.871 220.397C469.849 220.382 469.811 220.374 469.781 220.374C467.345 220.367 464.902 220.352 462.466 220.352C462.278 220.352 462.083 220.367 461.842 220.382C461.805 220.57 461.745 220.743 461.73 220.923C461.715 221.209 461.73 221.502 461.73 221.788C461.73 227.561 461.73 233.335 461.73 239.116C461.73 239.492 461.767 239.875 461.655 240.304C460.459 240.432 459.279 240.349 458.099 240.364C456.911 240.379 455.731 240.364 454.498 240.364C454.445 240.146 454.385 239.973 454.37 239.793C454.347 239.507 454.362 239.214 454.362 238.928C454.362 224.298 454.362 209.669 454.362 195.039C454.362 194.626 454.37 194.212 454.377 193.754V193.746Z" fill="black"/>
<path d="M272.787 240.358C270.269 240.365 267.871 240.358 265.488 240.358C265.3 239.892 265.36 239.508 265.36 239.132C265.36 233.299 265.36 227.457 265.36 221.624C265.36 221.24 265.345 220.864 265.345 220.451C265.142 220.413 264.992 220.361 264.841 220.361C262.406 220.361 259.962 220.361 257.526 220.361C257.399 220.361 257.278 220.391 257.09 220.413C257.06 220.669 257.015 220.91 257.015 221.158C257.015 222.924 257.015 224.683 257.015 226.45C257.015 230.683 257.015 234.915 257.015 239.148C257.015 239.501 257.015 239.854 257.015 240.238C256.835 240.29 256.692 240.365 256.542 240.365C254.392 240.365 252.242 240.365 250.091 240.365C250.001 240.365 249.911 240.328 249.761 240.29C249.738 240.117 249.701 239.937 249.693 239.756C249.678 239.501 249.693 239.245 249.693 238.99C249.693 224.33 249.693 209.678 249.693 195.018C249.693 194.605 249.633 194.191 249.768 193.74C250.55 193.552 251.354 193.673 252.144 193.65C252.911 193.628 253.685 193.65 254.452 193.65C255.219 193.65 256.046 193.65 256.895 193.65C256.94 193.883 257 194.064 257.008 194.244C257.023 194.53 257.008 194.823 257.008 195.109C257.008 200.912 257.008 206.716 257.008 212.527C257.008 212.873 257.03 213.219 257.045 213.61C257.286 213.632 257.466 213.662 257.654 213.67C260.894 213.753 264.398 213.708 265.285 213.565C265.405 213.249 265.352 212.896 265.352 212.55C265.352 209.761 265.352 206.972 265.352 204.183C265.352 201.07 265.352 197.958 265.352 194.853C265.352 194.507 265.367 194.161 265.375 193.77C265.57 193.725 265.721 193.665 265.871 193.665C268.021 193.665 270.171 193.665 272.321 193.665C272.442 193.665 272.569 193.703 272.742 193.725C272.765 193.928 272.803 194.109 272.81 194.289C272.825 194.485 272.81 194.673 272.81 194.868C272.81 209.655 272.81 224.443 272.81 239.223C272.81 239.569 272.795 239.914 272.78 240.38L272.787 240.358Z" fill="black"/>
<path d="M320.516 177.55C319.697 177.67 314.344 177.7 313.156 177.595C313.119 177.429 313.066 177.256 313.051 177.076C313.036 176.753 313.051 176.437 313.051 176.114C313.051 163.732 313.051 151.35 313.051 138.976C313.051 138.593 313.036 138.217 313.021 137.788C312.833 137.743 312.683 137.683 312.54 137.683C310.713 137.683 308.879 137.683 307.052 137.683C306.962 137.683 306.872 137.728 306.721 137.766C306.691 137.939 306.639 138.111 306.624 138.292C306.594 138.675 306.578 139.059 306.571 139.442C306.413 145.276 306.27 151.11 306.105 156.951C306.007 160.349 305.909 163.747 305.767 167.145C305.691 168.844 305.376 170.505 304.827 172.137C303.85 175.016 301.827 176.685 298.925 177.362C297.482 177.7 296.009 177.798 294.528 177.745C294.407 177.745 294.279 177.707 294.099 177.677C293.934 176.587 294.031 175.505 294.024 174.43C294.024 173.347 293.956 172.265 294.076 171.137C294.4 171.107 294.685 171.092 294.964 171.054C295.475 170.987 295.986 170.941 296.482 170.821C297.256 170.641 297.783 170.137 298.068 169.408C298.226 168.994 298.354 168.551 298.407 168.115C298.504 167.288 298.557 166.453 298.58 165.619C298.783 159.913 298.971 154.207 299.166 148.501C299.354 142.923 299.549 137.345 299.737 131.767C299.745 131.548 299.775 131.33 299.79 131.165C299.865 131.09 299.888 131.067 299.918 131.052C299.94 131.037 299.978 131.03 300.008 131.022C300.166 131.007 300.331 130.992 300.489 130.992C307.037 130.992 313.577 130.992 320.125 131C320.216 131 320.313 131.037 320.449 131.06C320.479 131.233 320.524 131.413 320.539 131.594C320.554 131.819 320.539 132.045 320.539 132.27C320.539 146.96 320.539 161.65 320.539 176.339C320.539 176.723 320.524 177.098 320.516 177.534V177.55Z" fill="black"/>
<path d="M557.814 216.879C557.814 213.03 557.814 209.181 557.814 205.332C557.814 204.114 557.837 202.896 558.062 201.693C558.28 200.521 558.634 199.393 559.175 198.326C560.513 195.694 562.701 194.123 565.535 193.477C567.978 192.92 570.444 192.943 572.872 193.604C575.736 194.386 577.781 196.16 578.984 198.882C579.826 200.791 580.097 202.821 580.104 204.888C580.112 208.67 580.104 212.459 580.104 216.24C580.104 220.413 580.104 224.577 580.104 228.75C580.104 229.968 580.029 231.186 579.804 232.388C579.525 233.884 579.037 235.298 578.187 236.576C577.007 238.35 575.421 239.575 573.376 240.214C570.609 241.079 567.82 241.124 565.031 240.372C561.814 239.5 559.701 237.418 558.596 234.298C558.137 233.02 557.889 231.704 557.852 230.344C557.829 229.539 557.814 228.742 557.807 227.938C557.807 224.247 557.807 220.563 557.807 216.872L557.814 216.879ZM572.729 217.112C572.729 212.94 572.729 208.775 572.729 204.603C572.729 204.152 572.722 203.708 572.684 203.257C572.632 202.573 572.421 201.942 572.083 201.348C571.82 200.889 571.466 200.521 571.008 200.273C569.7 199.588 568.362 199.588 567.031 200.205C566.332 200.528 565.881 201.115 565.595 201.821C565.257 202.671 565.159 203.55 565.159 204.46C565.159 212.865 565.159 221.262 565.159 229.667C565.159 229.892 565.159 230.118 565.166 230.344C565.219 231.118 565.4 231.862 565.768 232.554C566.114 233.2 566.625 233.681 567.317 233.922C567.865 234.11 568.429 234.215 569.016 234.2C571.008 234.163 572.188 233.193 572.602 231.246C572.654 230.998 572.677 230.734 572.684 230.479C572.707 229.998 572.714 229.517 572.714 229.035C572.714 225.059 572.714 221.082 572.714 217.105L572.729 217.112Z" fill="black"/>
<path d="M548.372 193.75C548.372 193.75 548.41 193.802 548.417 193.832C548.417 193.862 548.417 193.9 548.417 193.93C548.402 193.99 548.394 194.058 548.364 194.111C545.049 200.877 541.734 207.642 538.403 214.446C539.524 217.303 540.651 220.167 541.771 223.024C542.899 225.888 544.027 228.752 545.147 231.617C546.267 234.473 547.41 237.33 548.515 240.202C547.786 240.405 543.561 240.465 541.17 240.322C540.869 240.097 540.824 239.728 540.696 239.405C538.9 234.736 537.11 230.068 535.321 225.399C534.945 224.415 534.569 223.422 534.178 222.437C534.111 222.272 534.006 222.114 533.863 221.859C533.592 222.362 533.359 222.783 533.133 223.204C532.758 223.911 532.397 224.625 531.991 225.324C531.72 225.783 531.63 226.256 531.63 226.79C531.645 230.925 531.637 235.067 531.63 239.202C531.63 239.548 531.607 239.894 531.592 240.292C530.359 240.42 529.179 240.345 527.999 240.352C526.811 240.367 525.631 240.352 524.398 240.352C524.353 240.127 524.293 239.954 524.278 239.773C524.255 239.488 524.278 239.194 524.278 238.909C524.278 224.279 524.278 209.65 524.278 195.02V193.765C524.451 193.705 524.563 193.629 524.684 193.629C526.864 193.629 529.051 193.629 531.232 193.629C531.322 193.629 531.412 193.675 531.517 193.705C531.713 193.998 531.63 194.329 531.63 194.637C531.63 197.012 531.63 199.388 531.63 201.756C531.63 205.319 531.63 208.875 531.63 212.439C531.63 212.755 531.63 213.07 531.63 213.378C531.901 213.454 531.946 213.273 532.013 213.138C532.276 212.589 532.54 212.04 532.795 211.484C535.449 205.861 538.103 200.23 540.764 194.607C540.914 194.291 541.08 193.983 541.223 193.705C542.283 193.562 547.628 193.577 548.342 193.727L548.372 193.75Z" fill="black"/>
<path d="M290.161 193.742C290.341 193.697 290.461 193.645 290.582 193.645C293.98 193.645 297.378 193.645 300.761 193.645C301.024 193.945 301.024 194.276 301.069 194.584C301.933 199.967 302.783 205.35 303.647 210.725C304.512 216.108 305.384 221.483 306.248 226.865C306.94 231.173 307.617 235.473 308.301 239.781C308.323 239.939 308.331 240.097 308.353 240.292C308.173 240.322 308.023 240.367 307.872 240.375C305.67 240.457 301.806 240.405 300.986 240.27C300.512 237.556 300.182 234.789 299.708 232.008C299.565 231.97 299.415 231.902 299.265 231.902C296.536 231.902 293.807 231.902 291.085 231.902C290.995 231.902 290.897 231.932 290.747 231.962C290.687 232.218 290.597 232.489 290.551 232.767C290.206 235.052 289.875 237.33 289.537 239.615C289.506 239.833 289.446 240.051 289.386 240.307C288.837 240.442 288.296 240.367 287.762 240.375C287.184 240.39 286.605 240.375 286.033 240.375C285.485 240.375 284.943 240.39 284.394 240.375C283.861 240.36 283.312 240.45 282.748 240.3C282.771 240.014 282.778 239.758 282.816 239.51C285.259 224.257 287.702 209.011 290.153 193.75L290.161 193.742ZM298.678 225.437C297.558 217.807 296.423 210.244 295.295 202.658C295.205 202.718 295.122 202.741 295.115 202.786C293.987 210.131 292.867 217.468 291.754 224.813C291.724 225.024 291.732 225.242 291.717 225.452C292.551 225.587 297.753 225.587 298.678 225.437Z" fill="black"/>
<path d="M631 231.963C630.676 233.309 630.564 234.715 630.331 236.098C630.098 237.489 629.91 238.88 629.707 240.255C628.842 240.413 623.775 240.406 622.971 240.248C625.429 224.844 627.887 209.433 630.353 194.029C630.376 193.909 630.458 193.803 630.519 193.668H641.051C641.119 193.848 641.209 194.014 641.239 194.194C641.833 197.863 642.412 201.539 643.005 205.208C643.614 209.004 644.231 212.801 644.84 216.597C645.449 220.394 646.05 224.19 646.659 227.986C647.208 231.407 647.764 234.82 648.313 238.233C648.418 238.895 648.508 239.556 648.606 240.248C648.433 240.293 648.313 240.353 648.2 240.353C645.99 240.353 643.772 240.353 641.562 240.353C641.502 240.353 641.434 240.331 641.329 240.3C641.141 240.097 641.134 239.804 641.096 239.534C640.758 237.218 640.427 234.903 640.089 232.587C640.059 232.369 639.983 232.159 639.938 231.963C639.119 231.851 631.887 231.843 631 231.963ZM632.007 225.476C632.789 225.626 633.556 225.536 634.315 225.551C635.082 225.566 635.856 225.573 636.623 225.551C637.375 225.528 638.141 225.648 638.953 225.445C637.811 217.905 636.683 210.402 635.54 202.9C635.525 202.817 635.443 202.749 635.322 202.569C634.202 210.079 633.105 217.477 632.007 224.882C631.977 225.062 632.007 225.257 632.007 225.476Z" fill="black"/>
<path d="M413.196 209.28C412.369 209.422 407.407 209.445 406.325 209.317C406.295 209.122 406.242 208.911 406.242 208.701C406.235 207.257 406.242 205.814 406.235 204.37C406.235 203.859 406.189 203.341 406.099 202.844C405.656 200.394 403.942 199.604 401.934 199.807C399.927 200.01 399.228 201.108 398.852 202.514C398.822 202.634 398.785 202.762 398.769 202.889C398.717 203.401 398.634 203.912 398.634 204.423C398.627 212.858 398.627 221.293 398.634 229.728C398.634 230.299 398.724 230.878 398.845 231.442C399.266 233.329 400.611 234.118 402.318 234.148C402.761 234.156 403.22 234.088 403.656 233.99C404.588 233.787 405.287 233.239 405.686 232.374C405.881 231.946 406.032 231.472 406.107 231.006C406.197 230.442 406.227 229.856 406.235 229.284C406.25 227.518 406.235 225.758 406.242 223.992C406.242 223.676 406.189 223.353 406.325 223.06C407.054 222.917 410.475 222.857 412.587 222.954C412.775 222.962 412.955 223.022 413.204 223.067C413.204 223.375 413.204 223.661 413.204 223.947C413.204 225.548 413.204 227.157 413.204 228.758C413.204 230.104 413.121 231.449 412.843 232.772C412.549 234.163 412.068 235.486 411.279 236.674C409.918 238.727 407.994 239.99 405.611 240.523C403.295 241.042 400.972 241.049 398.649 240.463C395.672 239.711 393.597 237.922 392.357 235.141C391.853 234.02 391.583 232.833 391.447 231.615C391.342 230.66 391.274 229.698 391.274 228.735C391.259 220.909 391.267 213.084 391.274 205.265C391.274 203.596 391.395 201.927 391.853 200.311C392.47 198.116 393.575 196.251 395.484 194.921C396.83 193.981 398.348 193.477 399.95 193.267C401.965 193.004 403.987 193.049 405.964 193.567C409.084 194.379 411.189 196.319 412.294 199.341C412.715 200.491 412.978 201.672 413.083 202.897C413.271 205.009 413.173 207.122 413.188 209.287L413.196 209.28Z" fill="black"/>
<path d="M368.278 233.655C369.142 233.655 369.977 233.67 370.804 233.67C371.638 233.67 372.473 233.67 373.307 233.67H380.757C380.81 233.865 380.877 234.008 380.877 234.158C380.877 236.083 380.877 238.007 380.877 239.932C380.877 240.022 380.847 240.12 380.817 240.27C380.614 240.3 380.404 240.353 380.193 240.353C379.103 240.36 378.013 240.353 376.916 240.353C371.939 240.353 366.962 240.353 361.993 240.353C361.647 240.353 361.294 240.398 360.933 240.27C360.91 240.127 360.865 240 360.865 239.879C360.865 224.513 360.865 209.147 360.865 193.743C361.091 193.698 361.271 193.638 361.452 193.623C361.677 193.6 361.903 193.623 362.128 193.623C367.97 193.623 373.811 193.623 379.652 193.623C380.028 193.623 380.419 193.563 380.772 193.698C380.915 194.412 380.953 198.885 380.832 200.163C380.532 200.419 380.163 200.298 379.825 200.298C376.329 200.306 372.826 200.298 369.33 200.306C368.984 200.306 368.631 200.261 368.248 200.396C368.225 200.599 368.195 200.78 368.195 200.968C368.097 204.749 368.15 212.312 368.278 213.191C368.586 213.424 368.954 213.327 369.293 213.327C371.894 213.334 374.495 213.327 377.096 213.327C377.449 213.327 377.795 213.342 378.164 213.349C378.216 213.507 378.299 213.62 378.299 213.733C378.306 215.657 378.306 217.582 378.299 219.506C378.299 219.627 378.246 219.747 378.209 219.927C377.104 219.972 376.021 219.942 374.938 219.95C373.818 219.95 372.691 219.95 371.571 219.95C370.488 219.95 369.405 219.92 368.3 219.98C368.263 220.16 368.218 220.281 368.21 220.401C368.135 221.626 368.195 232.828 368.293 233.625L368.278 233.655Z" fill="black"/>
<path d="M429.666 200.359C428.704 200.299 427.877 200.336 427.05 200.329C426.246 200.329 425.449 200.329 424.645 200.329C423.818 200.329 422.983 200.351 422.104 200.306C422.066 200.118 422.006 199.976 422.006 199.825C422.006 197.931 422.006 196.036 422.006 194.149C422.006 194.022 422.051 193.901 422.074 193.788C422.412 193.555 422.78 193.653 423.118 193.653C427.193 193.646 431.275 193.653 435.35 193.653C438.079 193.653 440.808 193.653 443.537 193.653C443.882 193.653 444.243 193.57 444.567 193.751C444.709 194.443 444.747 199.013 444.619 200.186C444.416 200.412 444.146 200.336 443.897 200.344C441.973 200.344 440.048 200.344 438.116 200.344C437.801 200.344 437.477 200.344 437.109 200.344C437.071 200.577 437.019 200.75 437.011 200.93C436.996 201.314 437.004 201.697 437.004 202.088C437.004 214.41 437.004 226.731 437.004 239.053C437.004 239.459 437.071 239.88 436.898 240.323C436.748 240.346 436.59 240.383 436.44 240.391C434.591 240.459 430.531 240.413 429.772 240.316C429.742 240.173 429.689 240.023 429.681 239.872C429.666 239.549 429.674 239.233 429.674 238.91C429.674 226.528 429.674 214.139 429.674 201.757V200.389L429.666 200.359Z" fill="black"/>
<path d="M329.877 274.637C330.568 274.434 331.185 274.517 331.846 274.57C331.967 275.72 331.892 276.81 331.907 277.892C331.922 278.982 331.907 280.073 331.907 281.163V284.335C331.907 285.425 331.907 286.515 331.907 287.605C331.907 288.688 331.877 289.778 331.929 290.845C332.613 291.026 335.583 291.063 336.846 290.921C337.064 290.688 336.981 290.379 336.981 290.109C336.989 288.342 336.981 286.583 336.981 284.816C336.981 281.772 336.981 278.719 336.981 275.675C336.981 275.329 336.921 274.976 337.071 274.592C337.703 274.442 338.319 274.494 338.928 274.57C339.064 275.487 339.056 292.319 338.928 293.101C338.845 293.131 338.763 293.199 338.673 293.199C333.478 293.199 328.276 293.199 323.081 293.199C322.991 293.199 322.908 293.131 322.773 293.086C322.758 292.913 322.72 292.725 322.72 292.537C322.615 288.214 322.675 275.569 322.803 274.615C323.412 274.419 324.036 274.502 324.69 274.562C324.84 274.938 324.787 275.291 324.787 275.63C324.787 280.343 324.787 285.057 324.787 289.77V290.778C324.885 290.861 324.93 290.936 324.983 290.943C326.546 291.033 328.118 290.966 329.621 290.988C329.922 290.733 329.839 290.455 329.839 290.214C329.847 288.673 329.839 287.132 329.839 285.598C329.839 282.298 329.839 278.99 329.839 275.69C329.839 275.344 329.854 274.998 329.854 274.63L329.877 274.637Z" fill="black"/>
<path d="M316.96 297.574C316.532 297.574 316.216 297.574 315.9 297.574C315.712 297.574 315.524 297.544 315.306 297.522C315.118 296.815 315.239 296.108 315.216 295.409C315.194 294.74 315.216 294.071 315.216 293.349C314.983 293.304 314.81 293.237 314.63 293.237C311.645 293.237 308.661 293.237 305.676 293.237C305.526 293.237 305.368 293.274 305.165 293.304C305.067 294.041 305.127 294.74 305.112 295.439C305.097 296.108 305.097 296.778 305.09 297.484C304.473 297.62 303.917 297.604 303.376 297.514C303.24 296.74 303.218 292.162 303.338 291.154C303.473 290.974 303.676 291.026 303.864 291.011C304.052 290.996 304.24 290.981 304.421 290.966C304.759 290.523 304.924 290.034 305.075 289.553C305.511 288.14 305.766 286.689 305.939 285.223C306.3 282.065 306.345 278.893 306.338 275.713C306.338 275.367 306.345 275.014 306.353 274.638C306.586 274.593 306.774 274.54 306.954 274.533C309.262 274.435 314.758 274.495 315.532 274.63C315.72 274.939 315.645 275.299 315.645 275.645C315.645 280.359 315.645 285.072 315.645 289.786C315.645 290.162 315.577 290.553 315.757 290.959C316.126 290.989 316.502 291.019 316.908 291.057C317.126 291.756 316.99 292.462 317.013 293.154C317.035 293.891 317.028 294.627 317.013 295.364C317.005 296.063 317.058 296.77 316.96 297.582V297.574ZM313.577 290.974C313.6 290.598 313.622 290.312 313.622 290.034C313.622 288.944 313.622 287.854 313.622 286.764C313.622 283.787 313.622 280.802 313.622 277.825C313.622 277.487 313.728 277.119 313.495 276.825C313.412 276.803 313.344 276.773 313.284 276.773C311.743 276.773 310.209 276.773 308.668 276.773C308.555 276.773 308.435 276.841 308.322 276.878C308.3 277.043 308.285 277.164 308.277 277.292C308.202 279.081 308.149 280.878 308.052 282.667C307.894 285.328 307.593 287.967 306.744 290.508C306.699 290.643 306.706 290.793 306.691 290.974H313.585H313.577Z" fill="black"/>
<path d="M447.598 274.647C447.621 274.797 447.651 274.947 447.651 275.098C447.651 281.089 447.651 287.081 447.651 293.08C446.967 293.313 446.35 293.238 445.666 293.148C445.643 292.825 445.606 292.546 445.606 292.268C445.606 290.186 445.606 288.103 445.606 286.021C445.606 285.705 445.591 285.39 445.576 285.029C445.365 284.984 445.185 284.923 445.004 284.916C444.365 284.901 443.719 284.908 443.08 284.916C442.05 284.916 441.2 285.292 440.614 286.156C440.186 286.788 439.757 287.434 439.389 288.103C438.622 289.509 437.893 290.938 437.141 292.351C436.99 292.629 436.833 292.907 436.66 293.215C435.991 293.215 435.352 293.215 434.72 293.215C434.6 293.215 434.48 293.17 434.367 293.155C434.262 292.87 434.434 292.697 434.532 292.509C435.329 290.975 436.103 289.427 436.938 287.908C437.584 286.728 438.321 285.6 439.456 284.826C439.381 284.548 439.148 284.578 438.99 284.532C436.878 283.924 435.705 282.54 435.449 280.353C435.322 279.248 435.449 278.18 435.885 277.158C436.524 275.639 437.652 274.752 439.321 274.617C439.93 274.564 440.539 274.526 441.148 274.519C442.975 274.504 444.801 274.519 446.628 274.519C446.944 274.519 447.267 274.466 447.606 274.647H447.598ZM445.493 276.601C443.741 276.601 442.05 276.586 440.358 276.609C440.013 276.609 439.667 276.722 439.329 276.819C438.652 277.022 438.141 277.451 437.84 278.09C437.366 279.105 437.366 280.135 437.84 281.149C438.201 281.924 438.81 282.42 439.644 282.6C440.05 282.691 440.464 282.736 440.877 282.743C442.253 282.758 443.629 282.751 445.004 282.743C445.185 282.743 445.365 282.691 445.531 282.661C445.658 281.608 445.636 277.406 445.493 276.594V276.601Z" fill="black"/>
<path d="M368.767 276.682V274.735C369.391 274.472 369.729 274.457 370.609 274.652C370.752 275.291 370.609 275.968 370.714 276.682C371.052 276.765 371.383 276.847 371.721 276.915C374.503 277.486 376.142 279.23 376.796 281.937C377.157 283.433 377.074 284.936 376.585 286.395C375.976 288.214 374.811 289.575 372.999 290.297C372.436 290.522 371.827 290.612 371.24 290.763C371.09 290.8 370.932 290.83 370.706 290.875C370.684 291.605 370.661 292.334 370.646 293.056C369.992 293.296 369.624 293.296 368.812 293.086C368.789 292.379 368.774 291.657 368.752 290.898C368.346 290.815 367.97 290.74 367.609 290.657C364.91 290.018 363.256 288.327 362.632 285.643C362.302 284.215 362.347 282.771 362.79 281.373C363.489 279.17 364.933 277.697 367.181 277.058C367.669 276.915 368.173 276.84 368.782 276.704L368.767 276.682ZM370.744 288.59C371.173 288.733 371.541 288.545 371.887 288.432C373.39 287.936 374.39 286.959 374.736 285.357C374.916 284.53 374.954 283.703 374.849 282.877C374.556 280.659 373.315 279.268 371.165 278.937C371.022 278.915 370.872 278.952 370.669 278.967C370.669 282.102 370.669 285.169 370.669 288.237C370.669 288.357 370.714 288.477 370.737 288.598L370.744 288.59ZM368.669 278.937C366.97 278.937 365.279 280.102 364.76 281.974C364.437 283.14 364.414 284.312 364.73 285.478C365.128 286.936 366.045 287.943 367.489 288.425C367.865 288.552 368.263 288.695 368.669 288.59C368.805 287.748 368.805 279.809 368.669 278.93V278.937Z" fill="black"/>
<path d="M516.34 274.623C516.859 274.442 517.385 274.517 517.889 274.562C518.152 274.886 518.061 275.216 518.061 275.532C518.069 277.742 518.061 279.96 518.061 282.17C518.061 284.125 518.061 286.08 518.061 288.042C518.061 288.32 518.092 288.598 518.107 288.869C518.204 288.869 518.234 288.869 518.264 288.869C518.295 288.861 518.325 288.846 518.34 288.816C518.392 288.741 518.445 288.658 518.498 288.575C521.061 283.952 523.625 279.321 526.188 274.698C526.203 274.675 526.233 274.653 526.316 274.585C526.887 274.495 527.511 274.502 528.195 274.592C528.233 274.788 528.293 274.968 528.293 275.149C528.308 275.6 528.293 276.043 528.293 276.494C528.293 281.689 528.293 286.884 528.293 292.079C528.293 292.425 528.271 292.77 528.256 293.154C527.632 293.267 527.075 293.297 526.451 293.116C526.451 292.146 526.444 291.192 526.436 290.237C526.436 289.305 526.436 288.38 526.436 287.448V278.938C526.196 278.84 526.135 278.968 526.075 279.073C525.88 279.404 525.699 279.742 525.512 280.08C523.264 284.148 521.016 288.222 518.776 292.289C518.61 292.597 518.43 292.898 518.264 293.184C517.565 293.267 516.941 293.267 516.332 293.184C516.212 292.304 516.212 275.457 516.332 274.638L516.34 274.623Z" fill="black"/>
<path d="M561.821 284.657C560.31 284.657 558.934 284.657 557.558 284.657C556.22 284.665 554.875 284.619 553.491 284.687C553.318 285.206 553.409 285.717 553.394 286.221C553.379 286.762 553.394 287.311 553.394 287.852C553.394 288.363 553.394 288.874 553.394 289.393C553.401 289.897 553.348 290.408 553.461 290.957C555.04 291.04 556.574 290.987 558.1 290.994C559.603 291.002 561.114 290.994 562.648 290.994C562.896 291.709 562.798 292.393 562.738 293.122C562.528 293.16 562.347 293.212 562.167 293.212C558.799 293.212 555.431 293.212 552.063 293.212C551.845 293.212 551.627 293.16 551.386 293.13C551.364 292.942 551.326 292.784 551.326 292.633C551.326 286.642 551.326 280.65 551.326 274.628C551.567 274.583 551.747 274.516 551.935 274.516C555.235 274.516 558.543 274.516 561.843 274.516C562.001 274.516 562.152 274.553 562.34 274.576C562.505 274.929 562.43 275.282 562.445 275.621C562.46 275.936 562.445 276.252 562.445 276.515C562.159 276.824 561.851 276.733 561.573 276.733C559.197 276.741 556.829 276.733 554.454 276.733C554.138 276.733 553.822 276.756 553.454 276.771C553.341 277.41 553.409 278.019 553.394 278.613C553.379 279.252 553.386 279.898 553.394 280.537C553.394 281.139 553.348 281.74 553.431 282.304C553.837 282.499 554.198 282.432 554.544 282.432C556.626 282.432 558.716 282.432 560.798 282.432C561.114 282.432 561.438 282.364 561.776 282.567C561.919 283.199 561.843 283.853 561.821 284.634V284.657Z" fill="black"/>
<path d="M288.168 293.108C287.521 293.296 286.928 293.236 286.281 293.168C286.243 292.98 286.191 292.8 286.168 292.619C286.146 292.431 286.168 292.236 286.168 292.04C286.168 286.59 286.168 281.14 286.168 275.689C286.168 275.343 286.116 274.99 286.258 274.599C286.882 274.434 287.499 274.501 288.145 274.569C288.258 275.471 288.19 276.298 288.206 277.125C288.221 277.929 288.206 278.726 288.206 279.531V282.064C288.393 282.117 288.544 282.184 288.687 282.184C291.062 282.184 293.43 282.184 295.806 282.184C295.866 282.184 295.934 282.162 295.994 282.147C296.219 281.951 296.159 281.681 296.159 281.433C296.159 279.538 296.159 277.651 296.159 275.757C296.159 275.403 296.159 275.058 296.159 274.689C296.821 274.396 297.437 274.531 298.099 274.577C298.264 274.937 298.204 275.291 298.204 275.629C298.204 278.644 298.204 281.658 298.204 284.673V292.078C298.204 292.394 298.204 292.717 298.204 293.01C297.603 293.273 297.302 293.296 296.302 293.138C296.069 292.905 296.167 292.597 296.159 292.326C296.152 290.078 296.159 287.838 296.159 285.59C296.159 285.244 296.144 284.898 296.129 284.507C295.235 284.327 294.37 284.44 293.521 284.417C292.656 284.395 291.791 284.41 290.919 284.417C290.055 284.417 289.198 284.387 288.378 284.44C288.13 284.741 288.213 285.041 288.213 285.319C288.213 287.597 288.213 289.875 288.213 292.145C288.213 292.461 288.198 292.777 288.183 293.108H288.168Z" fill="black"/>
<path d="M411.126 293.147C410.442 293.26 409.848 293.282 409.217 293.14C409.089 292.162 409.172 291.208 409.157 290.253C409.142 289.321 409.157 288.396 409.157 287.464C409.157 286.532 409.157 285.547 409.157 284.547C408.954 284.502 408.811 284.434 408.661 284.434C406.315 284.434 403.977 284.434 401.632 284.434C401.541 284.434 401.451 284.472 401.338 284.494C401.15 284.787 401.226 285.111 401.226 285.419C401.226 287.667 401.226 289.907 401.226 292.155C401.226 292.471 401.203 292.786 401.188 293.125C400.511 293.29 399.887 293.26 399.309 293.17C399.248 293.094 399.226 293.072 399.211 293.049C399.196 293.019 399.181 292.989 399.181 292.959C399.173 286.99 399.166 281.029 399.158 275.059C399.158 274.932 399.188 274.804 399.203 274.653C399.827 274.413 400.459 274.556 401.143 274.548C401.173 274.856 401.226 275.105 401.226 275.345C401.226 277.27 401.226 279.194 401.226 281.119C401.226 281.434 401.248 281.75 401.263 282.119C402.15 282.284 403.015 282.186 403.864 282.201C404.729 282.216 405.601 282.216 406.465 282.201C407.322 282.186 408.187 282.276 409.097 282.126C409.119 281.855 409.157 281.607 409.157 281.359C409.157 279.435 409.157 277.51 409.157 275.586C409.157 275.27 409.179 274.962 409.187 274.623C409.841 274.458 410.435 274.496 411.029 274.578C411.239 274.939 411.164 275.3 411.164 275.638C411.164 280.194 411.164 284.75 411.164 289.306C411.164 290.268 411.164 291.23 411.164 292.192C411.164 292.478 411.141 292.764 411.126 293.14V293.147Z" fill="black"/>
<path d="M259.892 276.817C258.576 276.689 255.178 276.719 254.479 276.855C254.306 277.178 254.382 277.539 254.382 277.884C254.382 280.516 254.382 283.147 254.382 285.778C254.382 286.898 254.359 288.026 254.314 289.146C254.291 289.717 254.216 290.296 254.118 290.868C254.058 291.213 253.938 291.552 253.795 291.867C253.216 293.176 252.156 293.732 250.758 293.476C250.48 293.424 250.209 293.326 249.916 293.251C249.781 292.875 249.893 292.529 249.939 292.191C249.976 291.875 250.059 291.567 250.134 291.198C250.382 291.213 250.593 291.236 250.803 291.251C251.532 291.289 251.983 291.003 252.134 290.289C252.262 289.695 252.337 289.086 252.344 288.477C252.374 286.425 252.374 284.372 252.382 282.32C252.382 280.072 252.382 277.832 252.382 275.584C252.382 275.268 252.404 274.96 252.419 274.622C252.637 274.584 252.788 274.539 252.946 274.539C255.893 274.539 258.84 274.539 261.832 274.539C261.884 274.772 261.944 274.953 261.959 275.133C261.982 275.321 261.959 275.516 261.959 275.712C261.959 281.162 261.959 286.62 261.959 292.07C261.959 292.416 261.997 292.77 261.877 293.153C261.245 293.296 260.621 293.303 259.975 293.145C259.869 292.228 259.937 291.334 259.922 290.439C259.907 289.544 259.922 288.642 259.922 287.748V282.26C259.922 281.365 259.922 280.463 259.922 279.568C259.922 278.674 259.945 277.787 259.9 276.847L259.892 276.817Z" fill="black"/>
<path d="M483.094 285.654V293.059C482.403 293.322 481.764 293.262 481.125 293.127C481.004 292.24 481.012 275.43 481.125 274.626C481.26 274.596 481.41 274.536 481.561 274.536C483.899 274.551 486.237 274.438 488.575 274.626C490.003 274.746 491.138 275.393 491.905 276.618C492.333 277.31 492.574 278.069 492.672 278.873C492.86 280.369 492.694 281.813 492.01 283.173C491.476 284.233 490.642 284.933 489.514 285.278C488.808 285.496 488.086 285.617 487.342 285.609C486.154 285.602 484.974 285.609 483.786 285.609C483.598 285.609 483.41 285.632 483.094 285.647V285.654ZM483.184 283.354C483.32 283.376 483.47 283.429 483.628 283.429C484.778 283.429 485.936 283.452 487.086 283.429C487.53 283.422 487.981 283.361 488.417 283.264C489.469 283.031 490.183 282.399 490.477 281.339C490.702 280.52 490.725 279.693 490.507 278.873C490.131 277.468 489.356 276.851 487.898 276.768C487.8 276.768 487.703 276.753 487.612 276.753C486.297 276.753 484.989 276.753 483.673 276.753C483.493 276.753 483.312 276.821 483.147 276.851C483.034 277.979 483.057 282.617 483.184 283.354Z" fill="black"/>
<path d="M568.985 274.579C569.661 274.512 570.255 274.452 570.909 274.64C570.954 276 570.924 277.338 570.932 278.677C570.932 279.985 570.932 281.3 570.932 282.593C572.059 282.736 572.766 282.436 573.217 281.526C573.638 280.669 573.976 279.759 574.337 278.872C574.615 278.188 574.864 277.496 575.134 276.812C575.743 275.271 576.788 274.422 578.923 274.497C579.043 274.497 579.171 274.534 579.314 274.557C579.494 274.895 579.419 275.256 579.427 275.594C579.442 275.91 579.427 276.233 579.427 276.489C579.119 276.782 578.81 276.669 578.54 276.677C577.765 276.715 577.187 277.03 576.878 277.767C576.6 278.444 576.315 279.128 576.051 279.812C575.886 280.233 575.736 280.654 575.6 281.075C575.254 282.112 574.691 282.984 573.743 283.548C573.774 283.631 573.781 283.714 573.819 283.736C574.834 284.36 575.533 285.277 576.074 286.307C577.194 288.435 578.262 290.585 579.352 292.735C579.404 292.84 579.412 292.968 579.434 293.066C579.344 293.126 579.292 293.186 579.239 293.193C578.57 293.193 577.893 293.193 577.156 293.193C577.036 293.013 576.886 292.81 576.773 292.592C575.976 291.021 575.194 289.442 574.382 287.871C574.014 287.164 573.601 286.473 573.172 285.796C572.841 285.27 572.398 284.849 571.811 284.616C571.586 284.525 571.33 284.495 571.112 284.443C570.842 284.736 570.924 285.037 570.924 285.315C570.924 287.593 570.924 289.871 570.924 292.148C570.924 292.464 570.902 292.78 570.894 293.111C570.248 293.299 569.654 293.238 569 293.171C568.962 292.983 568.902 292.81 568.887 292.63C568.864 292.442 568.887 292.246 568.887 292.051C568.887 286.6 568.887 281.15 568.887 275.692C568.887 275.346 568.849 274.993 568.977 274.572L568.985 274.579Z" fill="black"/>
<path d="M619.969 285.666C619.864 286.305 619.924 286.906 619.917 287.507C619.909 288.146 619.917 288.793 619.917 289.432C619.917 290.071 619.917 290.65 619.917 291.259C619.917 291.868 619.917 292.469 619.917 293.101C619.233 293.296 618.616 293.266 617.947 293.131C617.925 292.853 617.902 292.604 617.895 292.356C617.804 285.087 617.849 275.539 617.985 274.622C618.12 274.592 618.27 274.524 618.413 274.532C620.691 274.554 622.969 274.569 625.239 274.622C625.743 274.637 626.262 274.765 626.735 274.93C627.923 275.359 628.713 276.238 629.126 277.411C629.803 279.336 629.758 281.253 628.878 283.117C628.307 284.327 627.329 285.072 626.044 285.372C625.427 285.515 624.781 285.583 624.142 285.605C623.022 285.643 621.894 285.605 620.774 285.62C620.526 285.62 620.278 285.658 619.977 285.681L619.969 285.666ZM620.022 283.365C620.172 283.395 620.263 283.433 620.36 283.433C621.548 283.433 622.729 283.455 623.916 283.433C624.36 283.425 624.811 283.365 625.247 283.267C626.337 283.019 627.074 282.365 627.344 281.26C627.555 280.403 627.555 279.539 627.284 278.697C626.848 277.336 626.066 276.877 624.931 276.787C624.773 276.772 624.608 276.765 624.45 276.765C623.134 276.765 621.826 276.765 620.511 276.765C620.33 276.765 620.157 276.825 619.992 276.855C619.864 277.915 619.887 282.591 620.022 283.373V283.365Z" fill="black"/>
<path d="M358.316 293.19H356.098C356.008 293.002 355.895 292.814 355.828 292.611C355.377 291.213 354.933 289.807 354.49 288.401C354.414 288.16 354.324 287.92 354.227 287.634C353.542 287.461 352.836 287.574 352.144 287.551C351.407 287.529 350.671 287.551 349.934 287.551C349.235 287.551 348.528 287.566 347.799 287.574C347.235 289.461 346.694 291.295 346.145 293.145C345.446 293.272 344.792 293.272 344.108 293.16C344.108 293.017 344.085 292.919 344.108 292.836C346.025 286.762 347.949 280.695 349.881 274.613C350.626 274.478 351.317 274.493 352.069 274.598C354.151 280.748 356.219 286.897 358.324 293.19H358.316ZM350.859 276.891C350.31 279.74 349.333 282.372 348.521 285.063C348.506 285.123 348.498 285.191 348.491 285.251C348.491 285.281 348.491 285.319 348.491 285.341C348.498 285.371 348.521 285.394 348.581 285.499C348.927 285.582 349.34 285.537 349.746 285.544C350.159 285.544 350.58 285.544 350.994 285.544C351.407 285.544 351.828 285.552 352.242 285.544C352.64 285.529 353.054 285.612 353.497 285.439C352.678 282.657 351.873 279.936 351.069 277.222C351.047 277.139 350.971 277.064 350.859 276.899V276.891Z" fill="black"/>
<path d="M424.249 274.541C424.7 275.495 430.346 292.335 430.473 293.087C429.819 293.267 429.226 293.282 428.271 293.132C427.617 291.328 427.151 289.426 426.482 287.584H420.204C419.896 287.802 419.896 288.155 419.806 288.448C419.392 289.794 419.009 291.155 418.61 292.508C418.55 292.718 418.46 292.929 418.377 293.162C417.701 293.252 417.047 293.282 416.43 293.162C416.378 293.079 416.355 293.057 416.348 293.027C416.348 292.997 416.348 292.959 416.348 292.936C418.25 286.922 420.159 280.901 422.069 274.886C422.099 274.796 422.151 274.721 422.211 274.608C422.866 274.45 423.527 274.541 424.241 274.548L424.249 274.541ZM423.181 277.089C422.753 278.57 422.339 280.013 421.911 281.449C421.565 282.615 421.197 283.772 420.843 284.938C420.791 285.103 420.798 285.291 420.776 285.539H422.467C423.016 285.539 423.557 285.554 424.106 285.539C424.64 285.524 425.181 285.614 425.677 285.471C425.707 285.344 425.745 285.276 425.73 285.223C424.925 282.524 424.113 279.833 423.302 277.134C423.302 277.119 423.249 277.112 423.181 277.082V277.089Z" fill="black"/>
<path d="M648.04 293.162C647.303 293.282 646.642 293.229 645.92 293.199C645.83 293.011 645.725 292.823 645.657 292.613C645.221 291.275 644.8 289.929 644.371 288.583C644.274 288.283 644.176 287.974 644.078 287.689C643.387 287.516 639.5 287.463 637.666 287.606C637.583 287.809 637.47 288.035 637.403 288.268C637.012 289.591 636.628 290.914 636.237 292.237C636.147 292.538 636.042 292.838 635.937 293.154C635.267 293.289 634.636 293.252 634.02 293.184C633.817 292.906 633.974 292.673 634.05 292.44C635.064 289.23 636.079 286.02 637.094 282.817C637.846 280.434 638.605 278.051 639.357 275.668C639.47 275.307 639.605 274.946 639.741 274.57H641.808C641.883 274.736 641.966 274.871 642.018 275.014C643.154 278.081 647.845 292.214 648.04 293.169V293.162ZM640.748 276.818C640.65 277.156 640.59 277.337 640.545 277.525C640.267 278.577 640.004 279.63 639.695 280.675C639.297 282.028 638.861 283.366 638.447 284.712C638.372 284.945 638.35 285.193 638.29 285.464C638.478 285.501 638.598 285.539 638.718 285.539C640.192 285.531 641.665 285.516 643.139 285.501C643.169 285.501 643.199 285.479 643.221 285.464C643.244 285.441 643.251 285.411 643.304 285.321C642.477 282.584 641.643 279.803 640.74 276.818H640.748Z" fill="black"/>
<path d="M281.22 293.139C280.393 293.274 279.702 293.244 278.95 293.169C278.281 291.327 277.8 289.44 277.146 287.636C276.311 287.516 271.598 287.508 270.695 287.628C270.154 289.44 269.605 291.282 269.064 293.124C268.387 293.297 267.756 293.229 267.147 293.184C266.929 292.898 267.109 292.665 267.185 292.44C268.636 287.824 270.086 283.208 271.545 278.592C271.891 277.494 272.244 276.389 272.597 275.292C272.673 275.051 272.778 274.818 272.876 274.562H274.883C275.184 274.803 275.214 275.141 275.311 275.435C277.055 280.629 278.792 285.832 280.529 291.026C280.754 291.695 280.972 292.357 281.228 293.139H281.22ZM276.349 285.478C276.349 285.478 276.394 285.418 276.394 285.396C275.815 282.809 274.83 280.336 274.169 277.773C274.101 277.502 273.996 277.239 273.883 276.893C273.853 276.991 271.447 285.245 271.447 285.245C271.462 285.305 271.485 285.365 271.5 285.418C272.161 285.568 275.244 285.606 276.349 285.471V285.478Z" fill="black"/>
<path d="M476.066 293.157C475.33 293.284 474.66 293.224 473.939 293.202C473.849 293.014 473.736 292.826 473.668 292.623C473.225 291.247 472.789 289.871 472.353 288.503C472.262 288.232 472.172 287.954 472.089 287.714C472.007 287.661 471.954 287.593 471.901 287.593C469.849 287.593 467.797 287.593 465.684 287.593C465.594 287.811 465.481 288.037 465.414 288.27C465.023 289.593 464.639 290.916 464.248 292.239C464.158 292.54 464.053 292.841 463.955 293.157C463.286 293.307 462.655 293.254 462.038 293.202C461.82 292.924 461.986 292.69 462.061 292.457C463.143 289.037 464.226 285.609 465.316 282.188C466.023 279.955 466.729 277.73 467.443 275.497C467.541 275.197 467.654 274.904 467.767 274.58C468.06 274.565 468.308 274.535 468.564 274.535C468.977 274.535 469.391 274.543 469.721 274.55C469.827 274.633 469.857 274.648 469.879 274.67C469.902 274.693 469.924 274.716 469.939 274.746C471.969 280.76 473.999 286.774 476.029 292.781C476.059 292.871 476.059 292.961 476.081 293.164L476.066 293.157ZM468.759 276.798C468.646 277.227 468.586 277.437 468.534 277.647C468.225 278.79 467.947 279.94 467.616 281.068C467.248 282.324 466.827 283.564 466.444 284.819C466.383 285.015 466.383 285.24 466.361 285.466C466.549 285.496 466.669 285.534 466.797 285.534C468.173 285.534 469.548 285.534 470.924 285.534C471.067 285.534 471.202 285.451 471.368 285.398C470.511 282.557 469.676 279.775 468.774 276.79L468.759 276.798Z" fill="black"/>
<path d="M511.086 293.149C510.793 293.195 510.672 293.225 510.552 293.232C509.943 293.232 509.334 293.232 508.755 293.232C508.312 292.849 508.154 292.353 507.883 291.924C507.628 291.518 507.402 291.09 507.162 290.676C506.906 290.233 506.65 289.789 506.395 289.345C506.154 288.932 505.914 288.511 505.673 288.098C505.417 287.654 505.162 287.21 504.906 286.767C504.666 286.361 504.433 285.955 504.207 285.572C503.899 285.602 503.876 285.827 503.786 285.985C502.455 288.248 501.117 290.518 499.802 292.789C499.621 293.097 499.403 293.262 499.035 293.247C498.464 293.225 497.892 293.27 497.381 293.217C497.313 293.112 497.291 293.089 497.283 293.059C497.283 293.029 497.291 292.999 497.298 292.969C497.306 292.939 497.321 292.909 497.336 292.879C499.215 289.781 501.095 286.684 503.004 283.534C502.876 283.294 502.756 283.038 502.613 282.798C501.223 280.414 499.832 278.039 498.433 275.656C498.261 275.355 498.088 275.047 497.877 274.678C498.095 274.618 498.238 274.543 498.381 274.543C498.96 274.528 499.531 274.543 500.132 274.543C500.696 275.28 501.087 276.092 501.546 276.851C501.997 277.588 502.425 278.339 502.854 279.091C503.297 279.866 503.741 280.647 504.215 281.474C504.327 281.317 504.425 281.204 504.508 281.076C505.733 279.084 506.974 277.099 508.184 275.092C508.432 274.686 508.718 274.483 509.191 274.536C509.627 274.581 510.078 274.468 510.529 274.611C510.575 274.934 510.372 275.122 510.251 275.325C508.815 277.678 507.372 280.031 505.936 282.384C505.756 282.685 505.575 282.985 505.372 283.324C505.966 284.444 506.628 285.504 507.252 286.579C507.876 287.661 508.515 288.737 509.146 289.819C509.778 290.894 510.402 291.977 511.093 293.164L511.086 293.149Z" fill="black"/>
<path d="M610.875 274.57C611.552 274.495 612.123 274.518 612.649 274.548C612.852 274.886 612.657 275.104 612.567 275.33C611.379 278.344 610.184 281.351 608.988 284.358C608.244 286.238 607.507 288.117 606.74 289.982C606.462 290.666 606.132 291.327 605.786 291.974C605.154 293.169 604.079 293.71 602.636 293.357C602.267 293.267 601.907 293.154 601.591 293.071C601.38 292.696 601.455 292.365 601.448 292.049C601.448 291.733 601.463 291.418 601.478 291.019C601.696 291.094 601.839 291.154 601.974 291.192C602.282 291.275 602.583 291.387 602.899 291.425C603.673 291.523 604.312 291.252 604.681 290.561C605.026 289.914 605.29 289.222 605.553 288.531C605.613 288.373 605.56 288.155 605.508 287.982C605.417 287.711 605.282 287.448 605.162 287.185C603.418 283.328 601.666 279.472 599.922 275.623C599.779 275.315 599.659 274.991 599.523 274.653C599.674 274.593 599.757 274.525 599.839 274.525C600.35 274.518 600.862 274.525 601.328 274.525C601.681 274.788 601.756 275.157 601.892 275.472C603.267 278.585 604.62 281.697 605.996 284.809C606.132 285.118 606.214 285.463 606.537 285.779C608.034 282.035 609.379 278.299 610.86 274.57H610.875Z" fill="black"/>
<path d="M588.532 276.783C586.81 276.7 585.216 276.798 583.623 276.723C583.457 276.324 583.525 275.971 583.517 275.625C583.502 275.309 583.517 274.993 583.517 274.633C583.795 274.587 584.006 274.527 584.216 274.527C587.81 274.527 591.396 274.527 594.989 274.527C595.177 274.527 595.365 274.572 595.568 274.595C595.734 275.287 595.658 275.948 595.613 276.662C595.388 276.692 595.177 276.745 594.959 276.745C593.869 276.753 592.779 276.745 591.689 276.745C591.373 276.745 591.058 276.745 590.787 276.745C590.509 277.091 590.599 277.422 590.599 277.73C590.591 280.293 590.599 282.857 590.599 285.421C590.599 287.661 590.599 289.909 590.599 292.149C590.599 292.465 590.584 292.78 590.569 293.111C589.922 293.299 589.328 293.239 588.757 293.179C588.501 292.946 588.569 292.675 588.569 292.427C588.569 291.081 588.569 289.736 588.569 288.39C588.569 284.894 588.569 281.406 588.569 277.91C588.569 277.565 588.554 277.211 588.539 276.775L588.532 276.783Z" fill="black"/>
<path d="M388.681 293.14C388.05 293.275 387.456 293.252 386.877 293.17C386.629 292.854 386.719 292.523 386.719 292.215C386.719 289.591 386.719 286.96 386.719 284.336C386.719 282.186 386.719 280.044 386.719 277.894C386.719 277.548 386.697 277.202 386.682 276.826C385.795 276.668 384.968 276.773 384.141 276.751C383.351 276.728 382.555 276.788 381.705 276.698C381.645 275.977 381.622 275.315 381.728 274.616C381.961 274.586 382.179 274.533 382.389 274.526C386.697 274.405 392.937 274.473 393.733 274.646C393.854 275.3 393.816 275.962 393.748 276.676C393.515 276.706 393.297 276.751 393.087 276.751C391.997 276.751 390.907 276.751 389.817 276.751C389.501 276.751 389.185 276.773 388.862 276.788C388.682 277.157 388.757 277.518 388.757 277.856C388.757 282.374 388.757 286.892 388.757 291.41C388.757 291.824 388.757 292.245 388.757 292.658C388.757 292.809 388.719 292.967 388.697 293.14H388.681Z" fill="black"/>
<path d="M533.787 274.608C534.08 274.57 534.268 274.525 534.456 274.518C537.358 274.42 544.951 274.48 545.793 274.6C545.981 275.239 545.996 275.773 545.823 276.698C544.222 276.833 542.598 276.66 540.921 276.803C540.839 277.743 540.891 278.63 540.884 279.517C540.876 280.411 540.884 281.314 540.884 282.208V293.079C540.207 293.319 539.591 293.237 538.937 293.162C538.786 292.793 538.839 292.44 538.839 292.094C538.839 287.35 538.839 282.607 538.839 277.863C538.839 277.517 538.877 277.164 538.749 276.78C537.133 276.675 535.539 276.803 533.907 276.705C533.697 276.021 533.847 275.36 533.795 274.6L533.787 274.608Z" fill="black"/>
<path d="M139.071 172.48C140.116 172.338 150.618 172.345 151.468 172.48C151.483 172.646 151.513 172.826 151.52 173.007C151.528 173.232 151.52 173.458 151.52 173.683C151.52 198.74 151.52 223.797 151.52 248.853C151.52 249.259 151.566 249.68 151.438 250.124C151.265 250.146 151.107 250.176 150.957 250.184C148.551 250.259 140.041 250.214 139.154 250.109C139.124 249.951 139.079 249.77 139.071 249.59C139.056 249.267 139.071 248.951 139.071 248.628C139.071 238.456 139.071 228.285 139.071 218.113C139.071 217.73 139.056 217.354 139.041 216.933C138.831 216.895 138.688 216.843 138.537 216.843C134.267 216.843 129.997 216.843 125.727 216.843C125.569 216.843 125.419 216.88 125.284 216.903C125.088 217.234 125.156 217.564 125.156 217.873C125.156 219.925 125.156 221.977 125.156 224.03C125.156 232.277 125.156 240.523 125.156 248.763V250.041C124.96 250.094 124.81 250.161 124.667 250.161C120.908 250.161 117.157 250.161 113.398 250.161C113.278 250.161 113.157 250.124 113.03 250.109C112.992 249.988 112.939 249.898 112.939 249.815C112.939 224.052 112.939 198.289 112.939 172.556C113.24 172.27 113.578 172.368 113.887 172.368C116.586 172.36 119.277 172.368 121.976 172.368C122.78 172.368 123.577 172.368 124.381 172.368C124.599 172.368 124.817 172.39 125.096 172.405C125.118 172.638 125.156 172.819 125.156 172.999C125.163 173.322 125.156 173.638 125.156 173.961C125.156 184.133 125.156 194.304 125.156 204.476C125.156 204.852 125.096 205.243 125.254 205.641C125.381 205.664 125.502 205.709 125.622 205.709C130.05 205.709 134.478 205.709 138.943 205.709C138.988 205.483 139.056 205.31 139.064 205.13C139.079 204.807 139.064 204.491 139.064 204.168C139.064 194.026 139.064 183.892 139.064 173.751V172.465L139.071 172.48Z" fill="black"/>
</svg>
