<svg width="700" height="428" viewBox="0 0 700 428" fill="none" xmlns="http://www.w3.org/2000/svg">
<path d="M169.462 138.885C192.009 138.869 214.557 138.86 237.112 138.844C237.088 139.058 237.063 139.281 237.03 139.496C236.683 139.719 236.287 139.892 236.006 140.173C214.408 161.441 192.826 182.717 171.211 203.969C169.949 205.215 169.379 206.544 169.387 208.327C169.462 221.078 169.462 233.829 169.486 246.588C169.445 246.811 169.412 247.042 169.379 247.265C163.371 241.546 157.296 235.884 151.362 230.09C142.358 221.317 133.338 212.552 124.532 203.581C117.533 196.459 109.981 189.889 103.461 182.305C103.659 180.076 101.662 178.632 101.72 176.222C101.984 164.239 101.869 152.247 101.885 140.255C109.024 145.331 114.57 152.098 120.793 158.14C135.896 172.797 150.537 187.925 165.938 202.269C166.763 203.037 167.481 204.679 168.843 203.92C170.023 203.259 169.412 201.658 169.412 200.486C169.453 179.953 169.453 159.419 169.47 138.877L169.462 138.885Z" fill="#8FC855"/>
<path d="M33.4165 288.045C32.6242 286.634 32.9626 285.099 32.9626 283.621C32.9213 237.016 32.9626 190.419 32.7892 143.822C32.7727 139.637 33.8704 138.581 38.0135 138.631C58.1841 138.895 78.363 138.82 98.5336 138.87C98.5336 139.637 98.5418 140.405 98.5501 141.173C97.502 144.457 94.2997 145.712 92.1044 147.899C75.7797 164.157 59.3313 180.301 43.0314 196.576C39.9695 199.638 36.3216 202.204 34.2088 206.149C33.0368 207.437 33.5403 209.013 33.532 210.466C33.466 226.171 33.4247 241.885 33.4412 257.591C33.4577 267.553 33.5815 277.522 33.6641 287.484C33.6476 287.707 33.565 287.888 33.4082 288.045H33.4165Z" fill="#8FC855"/>
<path d="M237.027 139.496C237.052 139.282 237.077 139.059 237.11 138.844C258.799 138.803 280.48 138.778 302.169 138.688C304.299 138.679 305.487 139.1 305.479 141.593C305.371 176.545 305.33 211.497 305.264 246.449C305.264 246.713 305.157 246.985 305.099 247.249L304.942 247.332C304.785 246.795 304.637 246.259 304.48 245.731C304.546 232.847 304.587 219.973 304.686 207.089C304.695 205.431 303.968 204.325 302.796 203.211C296.07 196.814 289.352 190.418 282.774 183.873C270.263 171.428 257.982 158.751 245.28 146.512C242.739 144.06 240.766 140.668 237.036 139.513L237.027 139.496Z" fill="#C2D74E"/>
<path d="M169.459 138.887C169.451 159.42 169.443 179.954 169.402 200.496C169.402 201.668 170.012 203.269 168.832 203.93C167.479 204.681 166.752 203.046 165.927 202.279C150.527 187.927 135.877 172.807 120.783 158.15C114.56 152.108 109.014 145.341 101.875 140.265C101.85 139.803 101.833 139.349 101.809 138.887C124.356 138.887 146.904 138.887 169.451 138.887H169.459Z" fill="#C2D84B"/>
<path d="M304.984 288.83C304.505 289.053 304.026 289.473 303.539 289.473C281.363 289.44 259.187 289.374 237.019 289.308C236.994 267.116 236.978 244.923 236.953 222.73C239.206 222.937 239.809 225.107 241.104 226.37C256.967 241.935 272.64 257.691 288.576 273.182C293.825 278.282 298.563 283.944 304.521 288.302C304.587 288.557 304.744 288.731 304.992 288.83H304.984Z" fill="#3A9550"/>
<path d="M236.954 222.727C236.978 244.92 236.995 267.112 237.02 289.305C214.53 289.305 192.032 289.305 169.542 289.305C169.517 289.016 169.501 288.735 169.484 288.447C169.6 288.273 169.649 288.083 169.658 287.869C170.599 287.332 171.704 286.961 172.455 286.227C176.764 282.05 180.973 277.767 185.256 273.55C202.489 256.606 219.729 239.671 236.97 222.727V222.719L236.954 222.727Z" fill="#295236"/>
<path d="M33.418 288.044C33.5665 287.887 33.6573 287.697 33.6738 287.483C35.0603 287.681 36.026 286.872 36.909 286.022C40.1195 282.902 43.297 279.733 46.4744 276.572C62.1058 261.015 77.7207 245.433 93.3851 229.909C94.9037 228.407 96.0757 226.401 98.3865 225.832C101.085 226.418 100.144 228.597 100.153 230.181C100.21 248.157 100.177 266.124 100.21 284.099C100.21 285.552 99.6823 287.136 100.895 288.424C100.912 288.713 100.928 289.01 100.945 289.299C79.2228 289.356 57.5006 289.414 35.7701 289.447C34.7632 289.447 33.418 289.81 33.4262 288.036L33.418 288.044Z" fill="#295236"/>
<path d="M414.506 152.596C409.265 161.584 404.066 170.497 398.874 179.402C398.462 180.112 398.107 180.847 397.678 181.54C395.012 185.939 392.412 185.972 389.846 181.59C384.522 172.495 379.248 163.375 373.95 154.272C373.579 153.628 373.191 152.984 372.266 151.416C372.266 165.603 372.266 178.693 372.266 191.782C372.266 193.02 372.217 194.25 372.266 195.488C372.374 197.675 371.524 198.781 369.18 198.814C366.638 198.847 366.308 197.411 366.316 195.364C366.357 185.353 366.341 175.342 366.341 165.331C366.341 158.06 366.275 150.789 366.398 143.526C366.431 141.834 365.268 139.416 368.082 138.706C370.847 138.013 372.25 139.672 373.529 141.9C379.661 152.58 385.909 163.185 392.132 173.815C392.528 174.5 392.973 175.152 393.741 176.357C394.929 174.426 395.92 172.874 396.836 171.29C402.613 161.353 408.448 151.441 414.101 141.438C415.381 139.177 416.965 138.129 419.383 138.723C421.942 139.35 420.985 141.611 420.985 143.204C421.051 160.346 421.026 177.488 421.034 194.63C421.034 196.709 421.389 198.88 418.112 198.814C415.001 198.748 415.1 196.742 415.108 194.58C415.158 181.416 415.191 168.253 415.191 155.089C415.191 154.354 415.595 153.479 414.489 152.596H414.506Z" fill="#23382F"/>
<path d="M451.575 263.344C456.725 269.93 459.738 277.481 463.699 284.48C464.491 285.883 466.126 287.963 463.815 289.052C461.9 289.952 459.449 289.754 458.137 287.261C455.595 282.425 452.789 277.712 450.527 272.752C447.804 266.794 443.446 263.955 436.934 264.202C434.054 264.309 431.157 264.384 428.285 264.186C425.644 264.004 425.066 265.135 425.116 267.545C425.256 273.71 425.116 279.883 425.19 286.056C425.223 288.243 424.579 289.391 422.178 289.366C419.776 289.341 419.215 288.136 419.215 285.982C419.264 268.155 419.273 250.329 419.215 232.502C419.215 230.216 419.966 229.3 422.293 229.316C430.67 229.39 439.055 229.102 447.424 229.415C456.156 229.745 461.941 235.184 463.088 243.429C464.491 253.473 460.868 259.902 451.567 263.352L451.575 263.344ZM425.149 245.888C425.149 249.545 425.248 252.557 425.116 255.561C425.033 257.575 425.512 258.557 427.79 258.516C433.955 258.4 440.128 258.681 446.277 258.417C453.284 258.12 457.278 253.597 457.171 246.664C457.064 239.715 452.962 235.44 445.963 235.143C442.819 235.011 439.658 235.019 436.513 235.143C432.857 235.283 428.128 233.567 425.842 235.861C423.556 238.155 425.462 242.884 425.141 245.888H425.149Z" fill="#23382F"/>
<path d="M491.755 168.572C491.755 172.006 491.78 175.431 491.747 178.864C491.722 180.82 492.118 182.693 492.82 184.484C495.477 191.227 504.11 194.594 514.113 192.845C522.259 191.417 526.459 186.589 526.55 178.534C526.594 174.941 524.795 173.144 521.153 173.144C517.851 173.144 514.558 173.111 511.257 173.144C509.219 173.169 507.684 172.625 507.609 170.272C507.535 167.854 508.996 167.409 511.092 167.433C517.133 167.516 523.183 167.565 529.224 167.409C531.675 167.351 532.773 168.077 532.682 170.611C532.567 173.895 532.798 177.205 532.608 180.481C532.014 190.864 524.693 197.565 512.858 198.655C508.723 199.034 504.622 198.77 500.586 197.772C491.483 195.527 485.945 188.908 485.664 179.541C485.45 172.278 485.45 164.999 485.639 157.728C485.887 148.129 491.549 141.51 500.932 139.496C507.494 138.085 514.03 138.168 520.443 140.281C526.377 142.237 529.909 146.561 531.956 152.272C532.55 153.939 532.286 155.276 530.421 155.846C528.679 156.382 527.219 156.787 526.047 154.443C520.946 144.267 507.032 140.718 497.441 147.032C493.876 149.375 492.044 152.85 491.862 157.051C491.697 160.88 491.829 164.726 491.829 168.572C491.805 168.572 491.78 168.572 491.755 168.572Z" fill="#263B32"/>
<path d="M472.425 259.453C472.425 256.441 472.334 253.428 472.433 250.416C472.846 237.558 480.282 230.039 493.355 229.362C496.491 229.197 499.627 229.304 502.763 229.932C512.395 231.871 518.031 237.434 519.278 247.222C520.285 255.104 520.26 263.101 519.335 270.974C518.064 281.869 511.421 288.1 500.477 289.189C497.225 289.511 493.85 289.536 490.631 289.049C478.697 287.241 472.697 280.201 472.433 268.078C472.367 265.206 472.425 262.325 472.416 259.453H472.425ZM513.352 259.486C513.352 257.018 513.278 254.551 513.368 252.083C513.558 247.098 512.766 242.435 508.689 239.06C503.778 234.991 497.952 234.496 491.96 235.511C482.692 237.087 478.664 241.932 478.639 251.225C478.623 257.117 478.573 263.018 478.656 268.911C478.747 275.472 482.213 280.408 488.13 282.389C492.505 283.858 497.019 284.056 501.517 283.024C509.399 281.217 513.212 276.496 513.352 268.523C513.41 265.511 513.36 262.49 513.352 259.47V259.486Z" fill="#263B32"/>
<path d="M530.963 259.099C530.963 250.598 531.062 242.098 530.905 233.605C530.848 230.519 531.59 229.198 535.032 229.264C545.183 229.479 555.351 229.347 565.511 229.33C567.508 229.33 569.373 229.182 569.381 232.153C569.398 235.016 567.723 235.149 565.626 235.14C557.249 235.107 548.872 235.215 540.504 235.074C537.954 235.033 536.831 235.545 536.98 238.409C537.227 243.327 537.178 248.279 536.996 253.206C536.905 255.666 537.491 256.508 540.124 256.433C547.395 256.235 554.674 256.417 561.954 256.334C564.149 256.31 565.684 256.532 565.659 259.314C565.643 262.169 563.943 262.194 561.838 262.178C554.559 262.12 547.288 262.235 540.009 262.103C537.747 262.062 536.905 262.623 536.988 265.025C537.161 270.224 537.153 275.449 536.988 280.648C536.914 283.025 537.722 283.619 540 283.586C548.922 283.471 557.844 283.578 566.773 283.512C568.903 283.495 570.652 283.578 570.603 286.376C570.553 289.033 568.928 289.363 566.732 289.355C556.16 289.297 545.588 289.198 535.024 289.396C531.557 289.462 530.872 288.026 530.922 284.997C531.054 276.365 530.971 267.724 530.971 259.091L530.963 259.099Z" fill="#23382F"/>
<path d="M577.669 259.199C577.669 250.558 577.686 241.925 577.661 233.284C577.661 231.039 577.801 229.248 580.879 229.265C583.95 229.289 584.082 231.097 584.073 233.333C584.04 240.051 584.156 246.769 583.999 253.487C583.95 255.84 584.775 256.211 586.987 256.475C592.467 257.144 596.073 255.386 599.127 250.599C603.237 244.153 608.23 238.26 612.852 232.137C613.43 231.377 613.958 230.478 614.734 229.999C616.442 228.943 618.671 228.637 620.107 229.834C621.873 231.303 619.941 232.78 619.034 233.994C613.702 241.124 608.338 248.238 602.899 255.287C601.677 256.871 601.215 257.738 603.543 258.745C606.959 260.214 608.981 263.21 610.69 266.404C613.908 272.437 617.16 278.445 620.329 284.503C621.08 285.947 622.913 287.862 620.503 289.017C618.555 289.95 616.087 289.793 614.767 287.35C611.977 282.184 609.254 276.968 606.489 271.793C601.595 262.64 595.653 259.974 585.493 262.112C583.479 262.533 584.082 263.82 584.073 264.877C584.024 271.595 584.04 278.313 584.057 285.031C584.057 287.383 583.983 289.471 580.673 289.355C577.578 289.256 577.652 287.243 577.652 285.089C577.661 276.448 577.652 267.815 577.652 259.174L577.669 259.199Z" fill="#263B32"/>
<path d="M453.946 179.969C450.389 180.341 445.099 178.228 441.979 180.77C439.074 183.13 438.381 188.222 436.73 192.118C435.988 193.876 435.459 195.749 434.519 197.392C433.314 199.504 431.077 199.133 429.377 198.456C427.751 197.804 428.477 196.162 429.014 194.874C436.417 176.965 443.836 159.056 451.19 141.122C451.924 139.323 452.973 138.654 454.879 138.596C456.868 138.539 457.908 139.43 458.601 141.114C465.922 158.916 473.25 176.718 480.563 194.52C481.19 196.038 482.156 197.837 479.762 198.564C477.74 199.174 475.685 199.141 474.67 196.566C472.854 191.994 470.799 187.521 469.099 182.907C468.257 180.621 467.069 179.738 464.609 179.912C461.333 180.143 458.023 179.969 453.955 179.969H453.946ZM454.821 147.873C450.901 157.422 447.41 165.906 443.77 174.762C450.637 174.762 456.909 174.704 463.182 174.795C465.435 174.828 465.691 174.167 464.849 172.187C461.564 164.437 458.42 156.629 454.821 147.873Z" fill="#243A30"/>
<path d="M366.358 259.092C366.358 250.592 366.473 242.091 366.3 233.59C366.242 230.503 366.936 229.142 370.377 229.266C377.508 229.513 384.655 229.274 391.794 229.356C402.993 229.48 410.19 236.578 410.322 247.505C410.471 259.744 404.025 266.817 392.223 267.18C386.735 267.354 381.238 267.378 375.75 267.18C372.96 267.073 372.242 268.055 372.341 270.696C372.531 275.764 372.341 280.839 372.424 285.915C372.457 288.284 371.673 289.456 369.098 289.39C366.515 289.323 366.333 287.821 366.341 285.841C366.383 276.927 366.358 268.014 366.358 259.109V259.092ZM372.383 247.835C372.383 251.4 372.465 254.966 372.35 258.531C372.284 260.487 372.589 261.576 374.974 261.502C380.603 261.337 386.24 261.585 391.86 261.354C399.626 261.04 404.297 256.014 404.289 248.363C404.289 240.663 399.304 235.373 391.571 235.142C386.083 234.977 380.578 235.2 375.09 235.067C372.837 235.01 372.267 235.885 372.35 237.956C372.482 241.241 372.383 244.542 372.383 247.827V247.835Z" fill="#23382F"/>
<path d="M595.465 167.608C601.3 159.025 606.904 150.78 612.516 142.535C613.135 141.627 613.704 140.686 614.414 139.861C616.156 137.814 618.714 138.103 620.373 139.151C622.09 140.232 620.447 142.048 619.556 143.344C613.358 152.364 607.193 161.41 600.879 170.356C599.072 172.915 598.114 175.465 598.255 178.675C598.502 184.279 598.279 189.908 598.345 195.528C598.37 197.649 597.891 198.871 595.391 198.838C593.006 198.805 592.263 197.773 592.37 195.561C592.477 193.374 592.122 191.138 592.436 188.992C593.979 178.461 590.711 169.63 583.985 161.517C579.371 155.954 575.624 149.682 571.514 143.707C570.541 142.287 568.791 140.298 570.681 139.135C572.414 138.07 575.154 137.707 576.854 140.249C579.206 143.773 581.649 147.247 584.034 150.747C587.724 156.177 591.404 161.616 595.448 167.6L595.465 167.608Z" fill="#243A30"/>
<path d="M651.378 261.987C651.378 269.802 651.345 277.618 651.386 285.442C651.403 287.769 651.056 289.494 648.069 289.379C645.312 289.272 645.131 287.629 645.131 285.5C645.172 270.141 644.99 254.773 645.263 239.423C645.329 235.577 644.107 234.809 640.666 235.073C636.844 235.362 632.982 235.098 629.136 235.139C627.18 235.156 626.066 234.578 626.025 232.341C625.983 229.932 627.081 229.304 629.285 229.313C641.92 229.37 654.556 229.37 667.191 229.313C669.337 229.304 670.608 229.866 670.624 232.259C670.633 234.727 669.172 235.164 667.133 235.148C662.875 235.106 658.616 235.263 654.366 235.09C651.989 234.999 651.296 235.824 651.329 238.135C651.444 246.091 651.37 254.047 651.37 261.995L651.378 261.987Z" fill="#23382F"/>
<path d="M543.297 168.579C543.297 159.798 543.322 151.025 543.281 142.243C543.273 140.081 543.52 138.546 546.343 138.571C549.075 138.595 549.471 139.965 549.463 142.21C549.413 157.569 549.619 172.937 549.322 188.296C549.24 192.447 550.494 193.223 554.315 193.066C561.859 192.744 569.419 192.992 576.978 192.959C579.058 192.95 580.816 193.008 580.816 195.88C580.816 198.728 579.124 198.818 577.011 198.81C567.124 198.769 557.229 198.645 547.341 198.876C543.842 198.959 543.207 197.506 543.248 194.502C543.372 185.861 543.289 177.22 543.297 168.579Z" fill="#2E4038"/>
<path d="M100.928 289.308C100.912 289.019 100.895 288.722 100.879 288.433C100.928 267.049 100.986 245.665 101.036 224.281C102.323 225.527 101.787 227.129 101.787 228.573C101.828 247.217 101.869 265.86 101.762 284.504C101.745 287.459 102.439 288.606 105.633 288.581C126.356 288.433 147.088 288.474 167.82 288.449C168.373 288.449 168.934 288.449 169.487 288.449C169.504 288.738 169.528 289.019 169.545 289.308C168.753 289.431 167.96 289.662 167.176 289.662C146.453 289.679 125.729 289.687 105.014 289.662C103.652 289.662 102.298 289.431 100.937 289.308H100.928Z" fill="#508B62"/>
<path d="M101.811 138.879C101.836 139.341 101.852 139.795 101.877 140.257C101.861 152.249 101.976 164.241 101.712 176.224C101.663 178.634 103.652 180.087 103.454 182.307C102.645 182.018 101.836 181.729 101.035 181.44C101.027 168.854 101.011 156.26 101.011 143.674C101.011 141.999 101.316 140.109 98.5595 141.182C98.5595 140.414 98.5512 139.646 98.543 138.879C99.6406 138.879 100.73 138.879 101.819 138.887L101.811 138.879Z" fill="#82C670"/>
<path d="M304.982 288.83C304.735 288.731 304.578 288.557 304.512 288.31C304.561 286.535 304.636 284.761 304.652 282.986C304.751 271.102 304.842 259.209 304.933 247.325C304.933 247.325 305.089 247.25 305.089 247.242C305.494 261.107 305.774 274.964 304.982 288.83Z" fill="#8FC855"/>
<path d="M304.937 247.323C304.847 259.208 304.756 271.1 304.657 282.985C304.64 284.759 304.566 286.534 304.516 288.308C298.558 283.95 293.82 278.289 288.571 273.188C272.635 257.706 256.962 241.942 241.099 226.377C239.804 225.106 239.201 222.935 236.948 222.737V222.745C236.948 209.194 236.948 195.65 236.948 181.315C228.546 189.378 220.805 196.641 213.245 204.102C199.999 217.166 186.868 230.363 173.663 243.469C172.434 244.69 171.451 246.333 169.471 246.589C169.446 233.837 169.446 221.078 169.363 208.327C169.355 206.544 169.916 205.216 171.187 203.969C192.802 182.718 214.384 161.433 235.983 140.173C236.271 139.892 236.668 139.719 237.006 139.496C237.006 151.826 237.088 164.165 236.956 176.495C236.932 179.202 237.749 181.117 239.672 182.974C245.399 188.487 251.094 194.057 256.582 199.802C269.069 212.875 282.629 224.85 295.133 237.915C297.848 240.754 300.489 244.146 304.45 245.714C304.607 246.25 304.756 246.787 304.913 247.315L304.937 247.323Z" fill="#46B459"/>
<path d="M101.033 181.43C101.841 181.719 102.65 182.007 103.451 182.296C109.971 189.881 117.522 196.459 124.521 203.573C133.327 212.544 142.348 221.301 151.352 230.082C157.294 235.876 163.36 241.537 169.377 247.257C169.467 260.792 169.558 274.327 169.649 287.87C169.649 288.076 169.591 288.275 169.476 288.448C168.923 288.448 168.37 288.448 167.809 288.448C164.375 284.544 160.224 281.317 156.766 277.521C148.868 268.855 140.342 260.833 131.94 252.712C122.218 243.312 112.702 233.713 103.022 224.28C101.528 222.819 100.925 221.284 100.942 219.212C101.033 206.626 101.008 194.032 101.024 181.438L101.033 181.43Z" fill="#46B459"/>
<path d="M169.651 287.873C169.56 274.338 169.47 260.803 169.379 247.259C169.412 247.036 169.453 246.805 169.486 246.583C171.459 246.327 172.441 244.684 173.679 243.463C186.884 230.349 200.014 217.16 213.261 204.095C220.821 196.643 228.562 189.372 236.964 181.309C236.964 195.644 236.964 209.188 236.964 222.739C219.723 239.675 202.482 256.61 185.25 273.562C180.966 277.771 176.765 282.054 172.449 286.239C171.698 286.973 170.592 287.336 169.651 287.881V287.873Z" fill="#3A9550"/>
<path d="M101.036 181.43C101.02 194.024 101.036 206.61 100.954 219.204C100.937 221.276 101.54 222.811 103.034 224.272C112.714 233.705 122.23 243.312 131.952 252.704C140.354 260.825 148.88 268.847 156.778 277.513C160.236 281.309 164.395 284.536 167.821 288.44C147.089 288.464 126.365 288.423 105.633 288.572C102.439 288.596 101.746 287.449 101.763 284.495C101.878 265.851 101.829 247.207 101.787 228.563C101.787 227.119 102.324 225.518 101.036 224.272C99.0885 222.976 98.8575 224.635 98.3705 225.831C96.0596 226.401 94.8877 228.406 93.3691 229.909C77.7047 245.433 62.0898 261.015 46.4584 276.572C43.2809 279.733 40.1117 282.894 36.893 286.021C36.0182 286.872 35.0443 287.68 33.6578 287.482C33.5835 277.513 33.4515 267.551 33.435 257.589C33.4185 241.884 33.4597 226.17 33.5258 210.464C33.5258 209.02 33.0306 207.435 34.2025 206.148C34.2025 219.369 34.2025 232.583 34.2025 245.845C35.8119 245.755 36.2988 244.822 36.9508 244.178C57.1957 224.263 77.4158 204.332 97.6525 184.409C98.7172 183.361 99.8974 182.42 101.028 181.43H101.036Z" fill="#3A9550"/>
<path d="M101.025 181.431C99.8941 182.421 98.7139 183.362 97.6492 184.41C77.4126 204.325 57.1924 224.265 36.9475 244.179C36.2955 244.823 35.8086 245.748 34.1992 245.847C34.1992 232.592 34.1992 219.371 34.1992 206.149C36.3203 202.204 39.9599 199.637 43.0218 196.575C59.33 180.3 75.7702 164.157 92.0949 147.899C94.2902 145.711 97.4924 144.465 98.5405 141.172C101.305 140.099 100.992 141.998 100.992 143.665C100.992 156.251 101.008 168.837 101.016 181.423L101.025 181.431Z" fill="#46B459"/>
<path d="M304.475 245.725C300.522 244.157 297.873 240.757 295.158 237.926C282.662 224.862 269.094 212.878 256.607 199.813C251.119 194.061 245.424 188.498 239.697 182.985C237.774 181.137 236.948 179.214 236.981 176.507C237.113 164.176 237.039 151.838 237.031 139.508C240.761 140.663 242.734 144.055 245.276 146.506C257.977 158.754 270.258 171.431 282.77 183.868C289.347 190.413 296.074 196.809 302.792 203.205C303.964 204.32 304.69 205.425 304.682 207.084C304.591 219.967 304.541 232.842 304.475 245.725Z" fill="#8FC855"/>
<path d="M98.3672 225.832C98.8624 224.635 99.0852 222.977 101.033 224.272C100.983 245.656 100.926 267.04 100.876 288.424C99.6629 287.136 100.199 285.552 100.191 284.099C100.158 266.124 100.191 248.157 100.133 230.182C100.133 228.597 101.066 226.41 98.3672 225.832Z" fill="#1C5D31"/>
</svg>
