<svg width="700" height="428" viewBox="0 0 700 428" fill="none" xmlns="http://www.w3.org/2000/svg">
<g clip-path="url(#clip0_6607_828)">
<mask id="mask0_6607_828" style="mask-type:luminance" maskUnits="userSpaceOnUse" x="225" y="80" width="250" height="268">
<path d="M474.652 80.3105H225.348V347.883H474.652V80.3105Z" fill="white"/>
</mask>
<g mask="url(#mask0_6607_828)">
<path d="M311.365 308.631C311.365 293.462 299.348 281.107 284.594 281.107C269.763 281.107 257.823 293.462 257.823 308.631C257.823 323.8 269.839 336.155 284.594 336.155C299.348 336.155 311.365 323.8 311.365 308.631ZM264.744 308.631C264.744 297.371 273.642 288.301 284.518 288.301C295.469 288.301 304.292 297.371 304.292 308.631C304.292 319.891 295.393 328.961 284.518 328.961C273.642 328.961 264.744 319.891 264.744 308.631ZM255.693 303.001C255.693 289.787 245.274 281.107 232.421 281.107H225.5V336.155H232.421V324.817C245.274 324.817 255.693 316.216 255.693 303.001ZM232.421 288.301C241.471 288.301 248.772 293.775 248.772 303.079C248.772 312.306 241.471 317.701 232.497 317.701H232.421V288.301ZM313.646 308.631C313.646 323.8 325.663 336.155 340.417 336.155C347.794 336.155 354.563 333.027 359.355 328.101L354.411 323.018C350.837 326.694 345.893 328.961 340.417 328.961C329.465 328.961 320.643 319.891 320.643 308.631C320.643 297.371 329.542 288.301 340.417 288.301C345.893 288.301 350.913 290.647 354.487 294.322L359.431 289.239C354.563 284.235 347.871 281.107 340.417 281.107C325.663 281.107 313.646 293.462 313.646 308.631ZM384.757 288.301C390.233 288.301 395.252 290.647 398.827 294.322L403.77 289.239C398.903 284.235 392.21 281.107 384.757 281.107C370.002 281.107 357.986 293.462 357.986 308.631C357.986 323.8 370.002 336.155 384.757 336.155C392.134 336.155 398.903 333.027 403.694 328.101L398.751 323.018C395.176 326.694 390.233 328.961 384.757 328.961C373.805 328.961 364.983 319.891 364.983 308.631C364.983 297.371 373.881 288.301 384.757 288.301ZM407.04 281.107V325.52L406.964 337.562L430.313 301.828V336.155H437.158V279.856L413.961 314.73V281.107H407.04ZM451.304 281.107H444.459V325.52L444.383 337.562L467.731 301.828V336.155H474.576V279.856L451.304 314.73V281.107ZM247.403 137.625V163.585H252.043V159.284C258.127 159.284 262.994 154.671 262.994 148.416C262.994 142.16 258.051 137.625 252.043 137.625H247.403ZM258.355 148.416C258.355 152.013 255.465 154.515 251.967 154.515V142.317C255.465 142.317 258.355 144.819 258.355 148.416ZM413.657 137.625V163.585H418.296V159.284C424.381 159.284 429.248 154.671 429.248 148.494C429.248 142.239 424.305 137.703 418.296 137.703H413.657V137.625ZM424.533 148.416C424.533 152.013 421.719 154.515 418.144 154.515V142.317C421.719 142.317 424.533 144.819 424.533 148.416ZM342.319 142.317V137.625H328.02V163.585H331.215H342.167V158.815H332.508V151.622H341.482V146.93H332.508V142.239H342.319V142.317ZM241.015 97.8255C243.753 97.8255 246.262 98.9984 248.012 100.797L251.967 96.7309C249.153 93.8377 245.274 92.0393 241.015 92.0393C232.497 92.0393 225.576 99.1548 225.576 107.912C225.576 116.67 232.497 123.785 241.015 123.785C245.274 123.785 249.153 121.987 251.967 119.094L248.012 115.028C246.186 116.826 243.753 117.999 241.091 117.999C235.615 117.999 231.204 113.464 231.204 107.834C231.128 102.361 235.539 97.8255 241.015 97.8255ZM327.26 107.99C327.26 99.233 320.339 92.1175 311.821 92.1175C303.303 92.1175 296.382 99.233 296.382 107.99C296.382 116.748 303.303 123.863 311.821 123.863C320.339 123.863 327.26 116.748 327.26 107.99ZM301.934 107.99C301.934 102.361 306.345 97.8255 311.821 97.8255C317.297 97.8255 321.708 102.361 321.708 107.99C321.708 113.62 317.297 118.156 311.821 118.156C306.345 118.077 301.934 113.542 301.934 107.99ZM371.447 92.1175V123.863H376.999V110.805H379.205C380.498 118.234 386.81 123.863 394.415 123.863C402.934 123.863 409.854 116.748 409.854 107.99C409.854 99.233 402.934 92.1175 394.415 92.1175C386.81 92.1175 380.498 97.7474 379.205 105.176H376.999V92.1175H371.447ZM394.34 97.8255C399.815 97.8255 404.227 102.361 404.227 107.99C404.227 113.62 399.815 118.156 394.34 118.156C388.94 118.156 384.452 113.62 384.452 107.99C384.529 102.361 388.94 97.8255 394.34 97.8255ZM464.689 118.468C462.56 118.468 460.658 116.826 460.278 115.028L456.4 119.015C457.312 120.814 458.833 122.222 460.658 123.16C461.723 123.707 463.092 123.863 464.385 123.942C464.537 123.942 464.689 123.942 464.841 123.942C470.013 123.942 474.272 119.641 474.272 114.246C474.272 111.196 472.903 108.538 470.774 106.739C472.219 105.176 473.131 103.064 473.131 100.719C473.131 95.9489 469.405 92.1175 464.766 92.1175H464.689C463.245 92.1175 461.723 92.5085 460.583 93.2122C459.214 94.0723 458.225 95.167 457.236 96.6527L461.115 100.64C462.027 98.842 463.092 97.6691 464.766 97.6691C466.439 97.6691 467.731 99.0766 467.731 100.719C467.731 102.361 466.363 103.768 464.766 103.768C464.309 103.768 463.548 103.768 463.548 103.768V110.023C463.548 110.023 464.385 110.023 464.766 110.023C467.047 110.023 468.872 111.9 468.872 114.246C468.796 116.592 466.971 118.468 464.689 118.468ZM230.976 160.145H236.908L237.821 163.507H242.612L233.942 136.296L225.348 163.507H230.063L230.976 160.145ZM233.942 148.885L235.691 155.453H232.269L233.942 148.885ZM318.59 163.507V142.317H323.381V137.625H309.083V142.317H314.026V163.585H318.59V163.507ZM378.368 163.507V142.317H383.236V137.625H368.938V142.317H373.881V163.585H378.368V163.507ZM304.748 163.507V136.296L300.185 142.082L292.579 151.856V137.625H288.016V165.227L292.579 159.441L300.185 149.667V163.585H304.748V163.507ZM270.448 163.507L274.555 152.482L278.737 163.507H283.605L278.281 149.276L282.616 137.625H277.749L274.631 146.07L271.512 137.625H266.645L270.98 149.276L265.656 163.507H270.448ZM348.631 137.625V163.507H353.194V154.749L355.096 152.169L355.856 151.152L362.017 163.585H367.112L358.822 147.087L365.819 137.703H360.115L355.78 143.49L353.118 147.087V137.703H348.631V137.625ZM384.909 150.605C384.909 157.799 390.537 163.585 397.534 163.585C404.531 163.585 410.159 157.799 410.159 150.605C410.159 143.411 404.531 137.625 397.534 137.625C390.537 137.625 384.909 143.411 384.909 150.605ZM405.596 150.605C405.596 155.14 402.021 158.893 397.61 158.893C393.199 158.893 389.548 155.218 389.548 150.605C389.548 146.07 393.123 142.317 397.61 142.317C402.097 142.317 405.596 145.992 405.596 150.605ZM432.595 150.605C432.595 157.799 438.223 163.585 445.219 163.585C452.217 163.585 457.845 157.799 457.845 150.605C457.845 143.411 452.217 137.625 445.219 137.625C438.223 137.625 432.595 143.411 432.595 150.605ZM453.281 150.605C453.281 155.14 449.631 158.893 445.219 158.893C440.808 158.893 437.234 155.218 437.234 150.605C437.234 146.07 440.808 142.317 445.219 142.317C449.707 142.317 453.281 145.992 453.281 150.605ZM473.208 144.663C473.208 140.753 470.165 137.625 466.363 137.625C466.21 137.625 466.058 137.625 465.83 137.703H461.495V163.585H466.287C470.926 163.585 474.652 159.753 474.652 154.984C474.652 152.482 473.588 150.214 471.915 148.65C472.751 147.477 473.208 146.148 473.208 144.663ZM466.058 141.769C468.036 141.769 468.872 142.942 468.872 144.35C468.872 145.21 468.492 145.914 467.884 146.383C467.731 146.539 467.579 146.617 467.427 146.696C467.123 146.852 466.515 147.008 466.058 147.008V141.769ZM466.058 158.815V150.996C469.177 150.996 470.089 153.342 470.089 154.906C470.089 157.095 468.568 158.815 466.058 158.815ZM226.26 90.0845H474.652V80.3105H226.26V90.0845ZM225.5 347.883H474.652V338.031H225.5V347.883ZM474.652 125.818H225.5V135.592H474.652V125.818ZM225.5 279.231H474.652V165.54H225.5V279.231Z" fill="#7E7E7E"/>
</g>
</g>
<defs>
<clipPath id="clip0_6607_828">
<rect width="249.305" height="267.573" fill="white" transform="translate(225.348 80.3105)"/>
</clipPath>
</defs>
</svg>
