<svg width="700" height="428" viewBox="0 0 700 428" fill="none" xmlns="http://www.w3.org/2000/svg">
<path d="M235.409 260.971V278.42H232.71V270.685H226.954V278.42H224.436V260.971H226.954V268.166H232.71V260.971H235.409Z" fill="#3F3D3D"/>
<path d="M247.465 272.306V266.91C247.465 262.772 249.803 260.434 253.401 260.434C256.999 260.434 259.338 262.772 259.338 266.91V272.306C259.338 276.444 256.999 278.782 253.401 278.782C249.803 278.782 247.465 276.624 247.465 272.306ZM256.819 272.306V266.91C256.819 264.211 255.56 262.952 253.401 262.952C251.243 262.952 249.983 264.211 249.983 266.91V272.306C249.983 275.005 251.243 276.264 253.401 276.264C255.56 276.264 256.819 275.005 256.819 272.306Z" fill="#3F3D3D"/>
<path d="M282.72 273.383C282.72 276.621 280.741 278.42 276.783 278.42H271.387V260.971H276.244C279.662 260.971 281.64 262.77 281.64 265.648C281.64 266.907 280.921 268.166 279.662 269.066C281.82 269.785 282.72 271.584 282.72 273.383ZM274.085 268.166H276.424C278.402 268.166 279.302 267.267 279.302 265.648C279.302 264.029 278.223 263.129 276.424 263.129H274.085V268.166ZM280.201 273.383C280.201 271.584 279.122 270.685 276.963 270.685H274.085V276.261H276.963C279.122 276.081 280.201 275.182 280.201 273.383Z" fill="#3F3D3D"/>
<path d="M305.386 272.843C305.386 276.261 302.867 278.42 299.629 278.42H294.053V260.971H296.571V267.087H299.629C302.867 267.087 305.386 269.426 305.386 272.843ZM302.867 272.664C302.867 270.685 301.428 269.605 299.629 269.605H296.751V276.081H299.629C301.428 276.081 302.867 274.822 302.867 272.664ZM310.423 260.971V278.42H307.904V260.971H310.423Z" fill="#3F3D3D"/>
<path d="M322.834 260.972H325.352V269.607C325.352 270.866 325.352 272.485 325.352 273.924C325.712 273.205 326.432 271.226 326.971 270.147L331.469 260.792H334.167V278.242H331.649V270.147C331.649 268.348 331.649 266.549 331.828 264.93C331.649 265.649 330.749 267.808 330.209 269.247L325.892 278.242H323.194V260.972H322.834ZM324.633 254.316H326.612C326.792 255.576 327.331 256.295 328.411 256.295C329.67 256.295 330.209 255.576 330.209 254.316H332.188C332.008 256.835 330.569 258.274 328.411 258.274C326.252 258.274 324.813 256.835 324.633 254.316Z" fill="#3F3D3D"/>
<path d="M379.142 267.628V271.945C379.142 276.263 376.264 278.781 372.487 278.781H371.767V284.538H369.249V278.781H368.529C364.751 278.781 361.873 276.263 361.873 271.945V267.628C361.873 263.311 364.751 260.792 368.529 260.792H369.249V254.496H371.767V260.792H372.487C376.444 260.612 379.142 263.131 379.142 267.628ZM369.249 276.083V263.131H368.529C366.37 263.131 364.571 264.57 364.571 267.448V271.766C364.571 274.644 366.37 276.083 368.529 276.083H369.249ZM376.624 267.628C376.624 264.75 374.825 263.311 372.666 263.311H371.947V276.263H372.666C374.825 276.263 376.624 274.824 376.624 271.945V267.628Z" fill="#3F3D3D"/>
<path d="M390.834 272.306V266.91C390.834 262.772 393.173 260.434 396.77 260.434C400.368 260.434 402.707 262.772 402.707 266.91V272.306C402.707 276.444 400.368 278.782 396.77 278.782C393.173 278.782 390.834 276.624 390.834 272.306ZM400.188 272.306V266.91C400.188 264.211 398.929 262.952 396.77 262.952C394.612 262.952 393.352 264.211 393.352 266.91V272.306C393.352 275.005 394.612 276.264 396.77 276.264C398.929 276.264 400.188 275.005 400.188 272.306Z" fill="#3F3D3D"/>
<path d="M426.634 267.27V272.127C426.634 276.445 424.476 278.783 421.058 278.783C419.619 278.783 418.36 278.244 417.28 277.164V284.36H414.762V260.974H416.74L416.92 262.593C417.82 261.514 419.259 260.614 420.878 260.614C424.476 260.435 426.634 262.953 426.634 267.27ZM424.116 267.27C424.116 264.212 422.857 262.953 420.878 262.953C419.079 262.953 417.64 264.392 417.64 267.27V272.307C417.64 274.826 418.899 276.445 420.878 276.445C423.037 276.445 424.116 275.186 424.116 272.307V267.27Z" fill="#3F3D3D"/>
<path d="M452.895 260.971V278.42H450.377V270.145C450.377 268.346 450.557 266.907 450.557 265.468H450.377C449.837 266.907 449.477 268.346 448.938 269.785L446.959 274.103H444.44L442.461 269.785C441.922 268.526 441.382 267.087 441.022 265.468H440.842C440.842 266.907 441.022 268.346 441.022 270.145V278.42H438.504V260.971H441.202L444.26 268.166C444.62 269.246 445.16 270.325 445.52 271.404H445.699C446.059 270.325 446.419 269.246 446.959 268.166L450.017 260.971H452.895Z" fill="#3F3D3D"/>
<path d="M476.103 266.55V278.423H473.944L473.764 276.804C473.045 278.063 471.786 278.962 469.807 278.962C466.569 278.962 464.41 276.983 464.41 273.566C464.41 270.148 466.749 268.169 470.526 268.169H473.585V266.55C473.585 264.211 472.685 262.952 470.706 262.952C469.087 262.952 467.828 263.852 467.648 265.65H464.95C465.13 262.412 467.288 260.434 470.706 260.434C474.124 260.434 476.103 262.772 476.103 266.55ZM473.585 270.507H470.526C468.188 270.507 467.109 271.587 467.109 273.566C467.109 275.544 468.368 276.444 470.347 276.444C472.325 276.444 473.585 275.185 473.585 273.386V270.507Z" fill="#3F3D3D"/>
<path d="M497.506 263.311H493.369V278.422H490.671V263.311H486.533V260.793H497.506V263.311Z" fill="#3F3D3D"/>
<path d="M532.768 263.491H526.472V278.422H523.773V260.793H532.768V263.491Z" fill="#3F3D3D"/>
<path d="M542.662 272.306V266.91C542.662 262.772 545.001 260.434 548.599 260.434C552.196 260.434 554.535 262.772 554.535 266.91V272.306C554.535 276.444 552.196 278.782 548.599 278.782C545.001 278.782 542.662 276.624 542.662 272.306ZM552.016 272.306V266.91C552.016 264.211 550.757 262.952 548.599 262.952C546.44 262.952 545.181 264.211 545.181 266.91V272.306C545.181 275.005 546.44 276.264 548.599 276.264C550.757 276.264 552.016 275.005 552.016 272.306Z" fill="#3F3D3D"/>
<path d="M578.457 267.27V272.127C578.457 276.445 576.298 278.783 572.88 278.783C571.441 278.783 570.182 278.244 569.102 277.164V284.36H566.584V260.974H568.563L568.743 262.593C569.642 261.514 571.081 260.614 572.7 260.614C576.118 260.435 578.457 262.953 578.457 267.27ZM575.758 267.27C575.758 264.212 574.499 262.953 572.34 262.953C570.542 262.953 569.102 264.392 569.102 267.27V272.307C569.102 274.826 570.362 276.445 572.34 276.445C574.499 276.445 575.758 275.186 575.758 272.307V267.27Z" fill="#3F3D3D"/>
<path d="M589.971 272.306V266.91C589.971 262.772 592.309 260.434 595.907 260.434C599.505 260.434 601.843 262.772 601.843 266.91V272.306C601.843 276.444 599.505 278.782 595.907 278.782C592.309 278.782 589.971 276.624 589.971 272.306ZM599.505 272.306V266.91C599.505 264.211 598.246 262.952 596.087 262.952C593.928 262.952 592.669 264.211 592.669 266.91V272.306C592.669 275.005 593.928 276.264 596.087 276.264C598.246 276.264 599.505 275.005 599.505 272.306Z" fill="#3F3D3D"/>
<path d="M611.74 276.081H612.999C613.899 274.462 614.439 271.944 614.618 269.066C614.798 266.367 614.978 263.669 614.978 260.971H624.692V276.081H626.671V282.378H624.153V278.6H614.259V282.378H611.74V276.081ZM621.994 276.081V263.489H617.497C617.497 265.468 617.317 267.627 617.317 269.605C617.137 272.484 616.597 274.462 616.058 276.081H621.994Z" fill="#3F3D3D"/>
<path d="M648.255 266.55V278.423H646.097L645.917 276.804C645.197 278.063 643.938 278.962 641.959 278.962C638.721 278.962 636.562 276.983 636.562 273.566C636.562 270.148 638.901 268.169 642.679 268.169H645.737V266.55C645.737 264.211 644.837 262.952 642.859 262.952C641.24 262.952 639.98 263.852 639.8 265.65H637.102C637.282 262.412 639.441 260.434 642.859 260.434C646.277 260.434 648.255 262.772 648.255 266.55ZM645.737 270.507H642.679C640.34 270.507 639.261 271.587 639.261 273.566C639.261 275.544 640.52 276.444 642.499 276.444C644.478 276.444 645.737 275.185 645.737 273.386V270.507Z" fill="#3F3D3D"/>
<path d="M241.165 202.686L254.657 186.137C254.837 185.777 255.017 185.417 254.837 185.057C254.657 184.697 254.297 184.518 253.937 184.518H245.663C245.303 184.518 245.123 184.697 244.943 184.877L235.049 197.47L233.61 199.448V185.597C233.61 185.057 233.07 184.518 232.531 184.518H225.515C224.975 184.518 224.436 185.057 224.436 185.597V224.993C224.436 225.532 224.975 226.072 225.515 226.072H232.531C233.07 226.072 233.61 225.532 233.61 224.993V212.041L235.769 209.522L247.102 225.712C247.282 226.072 247.641 226.072 248.001 226.072H256.096C256.456 226.072 256.816 225.892 256.996 225.532C257.175 225.173 257.175 224.813 256.996 224.453L241.165 202.686Z" fill="#3F3D3D"/>
<path d="M292.256 184.34H267.971C267.431 184.34 267.071 184.7 266.892 185.239C265.992 202.329 265.452 210.424 264.733 214.381C264.013 218.339 262.574 219.059 260.236 219.059C259.696 219.059 259.156 219.598 259.156 220.138V225.355C259.156 225.894 259.696 226.434 260.236 226.434C268.151 226.434 272.288 223.196 273.547 216.18C274.447 211.323 275.166 201.969 275.706 191.895H284.161V224.995C284.161 225.535 284.701 226.074 285.24 226.074H292.436C292.976 226.074 293.515 225.535 293.515 224.995V185.419C293.335 184.88 292.796 184.34 292.256 184.34Z" fill="#3F3D3D"/>
<path d="M330.392 218.519H313.663V208.445H328.414C328.953 208.445 329.493 207.906 329.493 207.366V202.149C329.493 201.609 328.953 201.07 328.414 201.07H313.663V191.716H329.673C330.213 191.716 330.752 191.176 330.752 190.636V185.239C330.752 184.7 330.213 184.16 329.673 184.16H305.568C305.028 184.16 304.488 184.7 304.488 185.239V224.635C304.488 225.175 305.028 225.715 305.568 225.715H330.392C330.932 225.715 331.472 225.175 331.472 224.635V219.239C331.472 218.879 330.932 218.519 330.392 218.519Z" fill="#3F3D3D"/>
<path d="M365.291 204.308C367.81 202.329 369.069 199.451 369.069 196.033C369.069 188.837 363.492 184.34 355.038 184.34H341.726C341.186 184.34 340.646 184.88 340.646 185.419V224.815C340.646 225.355 341.186 225.894 341.726 225.894H355.757C364.932 225.894 371.048 221.037 371.048 213.662C370.868 209.524 368.709 206.286 365.291 204.308ZM349.641 208.445H354.318C357.016 208.445 361.514 209.165 361.514 213.662C361.514 215.821 360.794 218.519 354.678 218.519H349.641V208.445ZM349.641 201.07V191.715H353.958C358.995 191.715 359.715 194.054 359.715 196.213C359.715 199.451 357.916 201.07 354.318 201.07H349.641Z" fill="#3F3D3D"/>
<path d="M404.867 218.519H388.137V208.445H402.888C403.428 208.445 403.968 207.906 403.968 207.366V202.149C403.968 201.609 403.428 201.07 402.888 201.07H388.137V191.716H404.147C404.687 191.716 405.227 191.176 405.227 190.636V185.239C405.227 184.7 404.687 184.16 404.147 184.16H380.042C379.503 184.16 378.963 184.7 378.963 185.239V224.635C378.963 225.175 379.503 225.715 380.042 225.715H404.867C405.407 225.715 405.946 225.175 405.946 224.635V219.239C405.946 218.879 405.407 218.519 404.867 218.519Z" fill="#3F3D3D"/>
<path d="M428.973 184.34H416.021C415.481 184.34 414.941 184.88 414.941 185.419V224.815C414.941 225.355 415.481 225.894 416.021 225.894H423.216C423.756 225.894 424.296 225.355 424.296 224.815V212.043H429.153C439.406 212.043 445.343 207.006 445.343 198.191C445.163 189.557 439.227 184.34 428.973 184.34ZM435.989 198.191C435.989 202.689 433.83 204.667 428.973 204.667H424.116V191.895H428.973C433.65 191.895 435.989 193.874 435.989 198.191Z" fill="#3F3D3D"/>
<path d="M496.971 184.34H473.405C472.866 184.34 472.326 184.88 472.326 185.419V224.815C472.326 225.355 472.866 225.894 473.405 225.894H480.421C480.961 225.894 481.501 225.355 481.501 224.815V191.895H496.971C497.511 191.895 498.05 191.356 498.05 190.816V185.419C498.05 184.88 497.511 184.34 496.971 184.34Z" fill="#3F3D3D"/>
<path d="M519.637 184.34H506.685C506.145 184.34 505.605 184.88 505.605 185.419V224.815C505.605 225.355 506.145 225.894 506.685 225.894H513.88C514.42 225.894 514.96 225.355 514.96 224.815V212.043H519.817C530.071 212.043 536.007 207.006 536.007 198.191C535.827 189.557 529.711 184.34 519.637 184.34ZM526.473 198.191C526.473 202.689 524.314 204.667 519.457 204.667H514.6V191.895H519.457C524.314 191.895 526.473 193.874 526.473 198.191Z" fill="#3F3D3D"/>
<path d="M569.824 184.34H562.449C562.089 184.34 561.729 184.52 561.549 185.059L555.253 201.789L548.237 184.88C548.057 184.52 547.698 184.34 547.338 184.34H539.782C539.423 184.34 539.063 184.52 538.883 184.88C538.703 185.239 538.703 185.599 538.883 185.779L551.115 213.302L550.756 214.381C549.317 218.159 548.057 219.238 544.819 219.238H542.841C542.301 219.238 541.761 219.778 541.761 220.318V225.355C541.761 225.894 542.301 226.434 542.841 226.434H544.639C552.375 226.434 556.332 223.916 559.031 216.9L571.083 185.779C571.263 185.419 571.083 185.059 570.903 184.88C570.544 184.52 570.184 184.34 569.824 184.34Z" fill="#3F3D3D"/>
<path d="M606.521 184.34H578.458C577.919 184.34 577.379 184.88 577.379 185.419V224.815C577.379 225.355 577.919 225.894 578.458 225.894H585.654C586.193 225.894 586.733 225.355 586.733 224.815V191.895H598.606V224.815C598.606 225.355 599.146 225.894 599.685 225.894H606.881C607.42 225.894 607.96 225.355 607.96 224.815V185.419C607.6 184.88 607.061 184.34 606.521 184.34Z" fill="#3F3D3D"/>
<path d="M648.078 184.34H620.015C619.475 184.34 618.936 184.88 618.936 185.419V224.815C618.936 225.355 619.475 225.894 620.015 225.894H627.21C627.75 225.894 628.29 225.355 628.29 224.815V191.895H640.163V224.815C640.163 225.355 640.702 225.894 641.242 225.894H648.438C648.977 225.894 649.517 225.355 649.517 224.815V185.419C648.977 184.88 648.617 184.34 648.078 184.34Z" fill="#3F3D3D"/>
<path d="M437.606 240.825C531.148 240.825 611.739 240.285 649.696 239.745V237.947C611.739 237.227 531.148 236.867 437.606 236.867C344.063 236.867 263.472 237.407 225.516 237.947V239.745C263.292 240.465 344.063 240.825 437.606 240.825Z" fill="#3F3D3D"/>
<path d="M437.606 171.391C531.148 171.391 611.739 170.851 649.696 170.312V168.513C611.739 167.793 531.148 167.434 437.606 167.434C344.063 167.434 263.472 167.973 225.516 168.513V170.312C263.292 171.031 344.063 171.391 437.606 171.391Z" fill="#3F3D3D"/>
<path d="M95.0957 262.952L112.905 280.761C116.323 284.179 121.719 284.179 125.137 280.761L146.544 259.354C146.724 259.174 147.084 258.815 147.264 258.635C146.544 258.635 145.825 258.635 145.285 258.815C128.195 258.995 111.286 260.434 95.0957 262.952Z" fill="#4B7520"/>
<path d="M125.136 225.716C121.898 222.298 116.321 222.298 112.903 225.716L91.4965 247.123C88.7981 249.821 88.2585 253.958 89.8775 257.376C93.8351 256.657 97.7926 255.937 101.75 255.577L115.242 253.599C118.12 253.239 121.178 253.059 124.057 253.059C125.676 252.879 127.295 252.879 128.914 252.699L142.225 251.8C144.564 251.62 146.903 251.62 149.241 251.62C148.881 250.001 148.162 248.382 146.903 247.123L125.136 225.716Z" fill="#6A912E"/>
<path d="M186.479 207.366L184.14 205.027L177.304 205.927C173.527 206.287 169.749 207.006 166.331 207.906L154.818 210.244C153.199 210.604 151.4 210.964 149.601 211.323C143.485 212.583 137.189 213.842 130.893 215.821C130.353 216.001 129.633 216.181 129.094 216.36C129.454 217.62 130.173 218.879 131.252 219.778L152.659 241.185C156.077 244.603 161.474 244.603 164.892 241.185L186.299 219.778C189.896 216.181 189.896 210.784 186.479 207.366Z" fill="#6A912E"/>
<path d="M69.5488 237.589L72.9667 241.007C76.3846 244.425 81.7813 244.425 85.1992 241.007L101.749 224.457C90.7758 228.235 79.9824 232.732 69.5488 237.589Z" fill="#6A912E"/>
<path d="M109.304 213.481C109.304 211.322 108.405 208.983 106.786 207.364L90.2359 190.814C76.3844 199.089 63.0725 208.444 50.6602 218.517C51.0199 218.877 51.1998 219.237 51.5596 219.597L65.0513 233.089C72.067 229.311 79.0827 225.713 86.0984 222.655C93.6538 219.237 101.389 216.179 109.304 213.481Z" fill="#79AC36"/>
<path d="M97.793 186.319L112.724 201.25C116.142 204.668 121.538 204.668 124.956 201.25L146.363 179.843C149.781 176.425 149.781 171.029 146.363 167.611L143.305 164.553C131.432 169.41 119.2 174.447 106.967 181.103C104.089 182.722 101.031 184.52 97.793 186.319Z" fill="#79AC36"/>
<path d="M176.585 197.473L165.072 185.96C161.654 182.542 156.258 182.542 152.84 185.96L132.152 206.467C147.083 202.33 162.194 199.272 176.585 197.473Z" fill="#79AC36"/>
<path d="M99.7697 174.807C104.987 171.928 109.844 169.23 114.88 166.532L136.107 156.998L125.134 146.024C121.716 142.606 116.32 142.606 112.902 146.024L91.3149 167.431C87.897 170.849 87.897 176.066 91.135 179.484C94.1931 178.045 96.8915 176.426 99.7697 174.807Z" fill="#98C93C"/>
<path d="M83.5823 184.521C80.3443 182.542 75.8471 183.082 72.9688 185.78L51.562 207.187C51.0223 207.727 50.6625 208.086 50.3027 208.626C55.5195 204.129 60.9162 199.812 66.3129 195.854C71.8895 192.256 77.8259 188.299 83.5823 184.521Z" fill="#98C93C"/>
</svg>
