<svg width="700" height="428" viewBox="0 0 700 428" fill="none" xmlns="http://www.w3.org/2000/svg">
<path d="M137.08 172.952L117.933 195.663L150.071 255.048H142.037L113.008 201.462L102.317 214.097L102.414 255.081H95.1895L95.2866 173.049H102.252L102.317 203.212L127.782 173.017H137.015L137.08 172.952Z" fill="#0D0802"/>
<path d="M273.997 172.953L233.467 255.049H225.594L242.96 219.93L218.467 172.921H226.793L246.847 212.025L266.124 172.921H273.997V172.953Z" fill="#0D0802"/>
<path d="M318.347 207.133C318.347 216.528 315.107 224.563 308.66 231.237C302.213 237.911 294.405 241.215 285.366 241.215C276.327 241.215 284.394 241.215 284.167 241.118V255.049H277.299V172.985H285.398C294.47 172.985 302.245 176.322 308.692 183.029C315.139 189.735 318.379 197.77 318.379 207.165L318.347 207.133ZM311.479 207.133C311.479 199.714 308.919 193.331 303.8 188.05C298.681 182.769 292.526 180.113 285.366 180.113H284.329L284.232 233.99H285.333C292.526 233.99 298.649 231.366 303.768 226.085C308.887 220.805 311.446 214.487 311.446 207.133H311.479Z" fill="#0D0802"/>
<path d="M334.222 186.852C334.417 186.787 334.838 186.754 335.421 186.754C343.682 186.754 351.069 189.638 357.516 195.34C359.622 197.348 361.404 199.519 362.862 201.722C364.32 203.958 365.486 206.161 366.361 208.396C367.236 210.632 367.884 212.802 368.272 214.973C368.661 217.144 368.888 219.12 368.888 220.902C368.888 230.297 365.583 238.364 359.007 245.07C352.495 251.744 344.622 255.049 335.421 255.049H327.289V172.985H359.266V180.145H334.19V186.916L334.222 186.852ZM361.728 220.869C361.728 213.515 359.136 207.197 353.985 201.917C348.834 196.636 342.646 194.012 335.453 194.012H334.255L334.449 247.889H335.486C342.71 247.889 348.898 245.265 354.017 239.984C359.168 234.574 361.76 228.224 361.76 220.837L361.728 220.869Z" fill="#0D0802"/>
<path d="M486.008 255.048H478.945V232.564H438.059V255.048H430.996V172.952H438.059V225.339H478.945V172.952H486.008V255.081V255.048Z" fill="#0D0802"/>
<path d="M549.568 255.048H542.441L542.506 186.786L501.393 255.048H494.168V172.952H501.295L501.069 241.668L542.538 172.952H549.536V255.081L549.568 255.048Z" fill="#0D0802"/>
<path d="M425.001 255.049H417.809L410.616 233.277H383.564L376.307 255.049H369.18L397.074 171.203L424.969 255.049H425.001ZM408.284 226.279L397.139 192.618L385.897 226.279H408.284Z" fill="#0D0802"/>
<path d="M77.5028 183.741C69.0793 175.318 58.8416 171.171 47.0488 171.171C35.256 171.171 25.1479 175.383 16.8217 183.806C15.3638 185.264 14.1003 186.787 12.9339 188.342L18.9275 192.877C19.9319 191.614 20.839 190.35 22.0053 189.119C28.9385 182.186 37.3295 178.655 47.0812 178.655C56.833 178.655 65.2564 181.992 72.1895 188.957C79.1226 195.89 80.6129 200.167 81.9412 206.938H47.308V214.228H82.5892C82.5892 223.979 78.8635 232.208 71.9303 239.141C64.9972 246.075 56.833 249.152 47.0164 249.152C37.1999 249.152 29.23 245.751 22.2969 238.785C21.1306 237.619 19.9967 236.582 19.0247 235.286L12.8691 239.951C14.0679 241.507 15.3314 243.029 16.7569 244.487C25.0831 252.846 35.418 256.733 47.2432 256.733C59.0684 256.733 68.9173 252.813 77.3732 244.422C85.7966 236.031 90.0083 225.956 90.0083 214.163C90.0083 202.37 85.8938 192.132 77.438 183.676V183.741H77.5028Z" fill="#0D0802"/>
<path d="M567.36 244.26C575.816 252.684 586.054 256.831 597.879 256.831C609.704 256.831 619.812 252.619 628.171 244.195C629.629 242.737 630.892 241.215 632.059 239.66L626.065 235.124C625.061 236.387 624.154 237.651 622.955 238.882C616.022 245.815 607.631 249.347 597.847 249.347C588.062 249.347 579.639 246.01 572.706 239.044C565.773 232.111 562.274 223.623 562.274 213.774C562.274 203.925 566 195.793 572.933 188.795C579.866 181.862 588.062 178.784 597.879 178.784C607.695 178.784 615.698 182.186 622.663 189.152C623.862 190.318 624.964 191.355 625.935 192.65L632.091 187.985C630.892 186.43 629.629 184.907 628.171 183.449C619.812 175.091 609.477 171.203 597.62 171.203C585.762 171.203 575.913 175.123 567.457 183.514C559.002 191.905 554.822 201.981 554.822 213.774C554.822 225.567 558.969 235.837 567.393 244.26H567.36Z" fill="#0D0802"/>
<path d="M687.132 172.952H632.348V179.335H656.192V255.048H663.288V179.335H687.132V172.952Z" fill="#0D0802"/>
<path d="M184.025 251.938C204.942 251.938 221.898 234.982 221.898 214.065C221.898 193.149 204.942 176.192 184.025 176.192C163.109 176.192 146.152 193.149 146.152 214.065C146.152 234.982 163.109 251.938 184.025 251.938Z" fill="#BDD137"/>
<path d="M214.288 183.806C205.897 175.415 195.788 171.171 183.996 171.171C172.203 171.171 162.16 175.383 153.866 183.806C145.572 192.197 141.393 202.305 141.393 214.098C141.393 225.891 145.572 235.966 153.866 244.293C162.16 252.619 172.235 256.798 183.996 256.798C195.756 256.798 205.897 252.587 214.288 244.228C222.679 235.869 226.89 225.826 226.89 214.098C226.89 202.37 222.679 192.197 214.288 183.806ZM185.842 178.687C194.201 179.076 201.491 182.057 207.678 187.694L185.842 209.53V178.687ZM182.214 213.126L170.907 224.433V181.052C174.438 179.627 178.229 178.849 182.214 178.655V213.094V213.126ZM184.87 215.783H219.406C219.212 219.8 218.435 223.558 217.041 227.09H173.499L184.806 215.783H184.87ZM219.406 212.154H188.499L210.335 190.318C215.972 196.506 219.018 203.795 219.406 212.154ZM148.682 214.098C148.682 204.314 152.149 195.955 159.082 189.054C165.983 182.154 164.298 184.486 167.181 182.899V228.256L157.721 237.716C151.695 231.074 148.682 223.234 148.682 214.163V214.098ZM209.072 239.044C202.171 245.945 193.78 249.444 184.028 249.444C174.276 249.444 167.019 246.399 160.345 240.308L169.805 230.848H215.292C213.704 233.763 211.599 236.485 209.072 239.044Z" fill="#0D0802"/>
</svg>
