<svg width="700" height="428" viewBox="0 0 700 428" fill="none" xmlns="http://www.w3.org/2000/svg">
<path d="M160.21 173.026C160.21 173.026 144.527 167.8 122.729 167.684C122.664 167.684 122.352 167.684 122.255 167.684C122.158 167.684 121.846 167.684 121.781 167.684C99.9897 167.8 84.3002 173.026 84.3002 173.026C84.3002 173.026 82.3917 191.215 83.307 210.286C84.8909 243.119 122.235 259.899 122.235 259.899H122.261C122.261 259.899 142.806 250.662 154.069 232.499H96.7051V206.333H88.3443L122.248 175.804L156.152 206.333H132.81L122.242 196.823L112.31 205.762V216.881H160.365C160.794 214.759 161.079 212.565 161.19 210.286C162.112 191.215 160.197 173.026 160.197 173.026" fill="url(#paint0_linear_6607_1657)"/>
<path d="M164.959 172.525L164.634 169.468L161.713 168.494C161.051 168.267 145.082 163.035 122.824 162.898C122.707 162.898 122.395 162.898 122.252 162.898C122.116 162.898 121.804 162.898 121.688 162.898C99.4354 163.035 83.4668 168.267 82.7982 168.487L79.8771 169.461L79.5525 172.519C79.4746 173.278 77.6116 191.291 78.5399 210.506C78.9294 218.587 81.3182 226.416 85.6414 233.784C89.0623 239.613 93.6906 245.156 99.4094 250.265C109.185 259.002 119.065 263.683 120.156 264.189C120.649 264.416 121.83 264.922 121.876 264.942L122.246 265.098L122.616 264.942C122.661 264.922 123.797 264.442 124.33 264.195C125.42 263.695 135.241 259.054 145.017 250.336C150.756 245.221 155.403 239.671 158.831 233.835C163.174 226.455 165.569 218.6 165.965 210.499C166.893 191.285 165.03 173.272 164.952 172.512L164.959 172.525ZM161.2 210.279C161.09 212.557 160.811 214.751 160.376 216.874H112.321V205.754L122.252 196.816L132.82 206.332H156.163L122.259 175.803L88.3482 206.332H96.709V232.498H154.079C142.817 250.667 122.272 259.898 122.272 259.898H122.246C122.246 259.898 84.9014 243.112 83.3175 210.279C82.3957 191.207 84.3106 173.018 84.3106 173.018C84.3106 173.018 99.9936 167.793 121.791 167.676C121.856 167.676 122.168 167.676 122.265 167.676C122.363 167.676 122.674 167.676 122.739 167.676C144.531 167.793 160.22 173.018 160.22 173.018C160.22 173.018 162.128 191.207 161.213 210.279H161.2Z" fill="white"/>
<path d="M220.024 232.485C207.574 232.485 198.96 222.105 198.96 209.655C198.96 197.205 207.782 186.825 220.024 186.825C228.327 186.825 233.098 189.837 238.706 194.92L248.255 183.917C241.51 177.276 233.831 172.09 220.135 172.09C197.824 172.09 182.258 189.006 182.258 209.655C182.258 230.304 198.136 247.22 219.511 247.22C233.52 247.22 241.822 242.865 249.294 234.874L239.122 223.975C233.416 229.161 228.327 232.485 220.031 232.485H220.024Z" fill="#231F20"/>
<path d="M254.89 233.21C254.162 233.21 252.189 233.002 251.566 232.898L250.527 245.66C252.605 246.179 256.441 246.595 258.518 246.595C272.423 246.595 278.752 240.681 278.752 203.843H292.864V245.972H308.638V190.348H263.912C263.912 229.782 260.797 233.203 254.883 233.203L254.89 233.21Z" fill="#231F20"/>
<path d="M341.642 189.725C332.198 189.725 326.18 191.491 320.059 194.185L323.999 206.22C329.082 204.35 333.34 203.208 339.358 203.208C347.244 203.208 351.289 206.843 351.289 213.38V214.314C347.348 212.964 343.298 212.029 337.696 212.029C324.518 212.029 315.281 217.631 315.281 229.777C315.281 240.987 323.895 247.005 334.372 247.005C342.051 247.005 347.342 244.2 351.185 239.949V245.966H366.439V213.691C366.439 206.22 364.57 200.098 360.422 195.944C356.482 192.004 350.25 189.719 341.642 189.719V189.725ZM351.503 226.362C351.503 232.068 346.524 236.119 339.156 236.119C334.074 236.119 330.542 233.626 330.542 229.374C330.542 224.188 334.69 221.487 341.441 221.487C345.284 221.487 348.809 222.318 351.509 223.564V226.369L351.503 226.362Z" fill="#231F20"/>
<path d="M415.107 216.814C419.878 214.737 423.928 211.004 423.928 204.26C423.928 195.542 416.561 190.355 405.357 190.355H374.848V245.98H405.253C418.119 245.98 426.006 240.274 426.006 230.829C426.006 223.046 421.858 218.898 415.107 216.821V216.814ZM390.414 201.975H401.728C406.292 201.975 408.161 204.364 408.161 207.058C408.161 210.277 405.98 212.66 401.52 212.66H390.42V201.968L390.414 201.975ZM402.864 233.627H390.414V222.624H402.449C407.843 222.624 410.024 225.013 410.024 228.018C410.024 231.342 407.739 233.62 402.864 233.62V233.627Z" fill="#231F20"/>
<path d="M485.786 190.348H440.334V195.119C440.334 208.504 439.607 222.512 434.939 232.476H428.922V259.039H442.203L443.346 245.965H478.21V259.039H491.492L493.361 232.476H485.786V190.348ZM470.012 232.483H451.025C454.446 224.284 455.069 214.528 455.173 205.089V203.843H470.012V232.483Z" fill="#231F20"/>
<path d="M524.287 189.309C506.956 189.309 494.09 202.278 494.09 218.26C494.09 234.241 506.852 247.211 524.08 247.211C541.308 247.211 554.277 234.241 554.277 218.26C554.277 202.278 541.515 189.309 524.287 189.309ZM524.287 233.625C515.57 233.625 509.656 226.465 509.656 218.266C509.656 210.068 515.05 202.908 524.08 202.908C533.109 202.908 538.711 210.068 538.711 218.266C538.711 226.465 533.317 233.625 524.287 233.625Z" fill="#231F20"/>
<path d="M605.737 190.348L590.483 213.697L575.436 190.348H559.461V245.972H575.021V212.866L590.275 235.384L605.737 212.554V245.972H621.719V190.348H605.737Z" fill="#231F20"/>
<defs>
<linearGradient id="paint0_linear_6607_1657" x1="82.3268" y1="175.863" x2="157.152" y2="228.254" gradientUnits="userSpaceOnUse">
<stop stop-color="#EF4130"/>
<stop offset="0.11" stop-color="#EE382D"/>
<stop offset="0.28" stop-color="#ED1F25"/>
<stop offset="0.3" stop-color="#ED1C24"/>
<stop offset="1" stop-color="#9E0B0F"/>
</linearGradient>
</defs>
</svg>
