<svg width="700" height="428" viewBox="0 0 700 428" fill="none" xmlns="http://www.w3.org/2000/svg">
<path d="M63.5145 235.921H118.211V248.064H49.7598V176.926H63.5145V235.921ZM152.383 242.046L162.699 252.362L173.015 242.046L162.699 231.73L152.383 242.046ZM650.24 212.495C650.24 235.276 630.361 249.354 607.364 249.354C584.368 249.354 564.488 235.276 564.488 212.495C564.488 189.714 584.368 175.637 607.364 175.637C630.361 175.637 650.24 189.714 650.24 212.495ZM636.163 212.495C636.163 195.839 622.516 187.78 607.364 187.78C592.213 187.78 578.565 195.839 578.565 212.495C578.565 229.151 592.213 237.211 607.364 237.211C622.516 237.211 636.163 229.151 636.163 212.495ZM510.866 217.546C521.075 215.826 528.812 207.337 528.812 197.666C528.812 187.995 522.472 176.926 502.807 176.926H453.483V248.064H467.238V218.405H495.929L516.347 248.064H532.68L510.866 217.546ZM467.238 206.692V188.639H502.592C506.783 188.639 514.627 189.606 514.627 197.451C514.627 205.295 506.783 206.692 502.592 206.692H467.238ZM290.038 226.787C290.038 241.617 278.325 248.172 263.926 248.172H212.99V176.926H262.529C271.77 176.926 286.062 178.968 286.062 194.442C286.062 209.916 282.946 206.585 277.788 209.056C282.838 210.776 290.038 215.934 290.038 226.787ZM226.745 204.221H261.454C266.075 204.221 272.092 202.931 272.092 196.484C272.092 190.036 268.224 188.639 261.669 188.639H226.852V204.221H226.745ZM276.068 225.605C276.068 217.761 270.373 215.934 263.711 215.934H226.745V236.458H263.711C270.051 236.458 276.068 233.557 276.068 225.713V225.605ZM368.698 249.354C393.199 249.354 407.061 239.145 407.061 215.397V176.926H393.306V215.397C393.306 231.408 385.784 237.211 368.698 237.211C351.612 237.211 344.09 231.408 344.09 215.397V176.926H330.335V215.397C330.335 239.145 344.197 249.354 368.698 249.354Z" fill="black"/>
</svg>
