<svg width="700" height="428" viewBox="0 0 700 428" fill="none" xmlns="http://www.w3.org/2000/svg">
<g clip-path="url(#clip0_6607_673)">
<mask id="mask0_6607_673" style="mask-type:luminance" maskUnits="userSpaceOnUse" x="204" y="70" width="292" height="288">
<path d="M495.069 70.4414H204.93V357.357H495.069V70.4414Z" fill="white"/>
</mask>
<g mask="url(#mask0_6607_673)">
<path d="M473.515 109.728C454.927 78.3141 428.172 74.9952 411.684 74.069C383.919 72.5254 354.909 71.2132 327.144 70.4414C285.767 71.2132 234.047 73.4515 219.581 119.376C218.959 122.309 217.326 130.336 215.304 141.682C215.304 141.759 215.304 141.759 215.304 141.759C215.148 142.608 214.993 143.457 214.837 144.306C214.837 144.383 214.837 144.383 214.837 144.46C214.682 145.309 214.526 146.158 214.371 147.084C214.371 147.161 214.371 147.239 214.293 147.316C214.137 148.165 213.982 149.014 213.904 149.863C213.904 150.017 213.826 150.172 213.826 150.249C213.671 151.098 213.515 151.947 213.359 152.873C213.359 153.027 213.282 153.182 213.282 153.336C213.126 154.185 212.971 155.111 212.893 156.037C212.893 156.192 212.815 156.346 212.815 156.501C212.659 157.427 212.504 158.353 212.426 159.202C212.426 159.434 212.348 159.588 212.348 159.742C212.193 160.591 212.115 161.518 211.96 162.444C211.96 162.675 211.882 162.907 211.882 163.138C211.726 163.988 211.648 164.914 211.493 165.84C211.415 166.071 211.415 166.303 211.337 166.612C211.26 167.538 211.104 168.387 210.948 169.313C210.948 169.622 210.871 169.853 210.871 170.162C210.715 171.011 210.637 171.937 210.482 172.864C210.404 173.172 210.404 173.481 210.326 173.713C210.248 174.562 210.093 175.488 210.015 176.414C209.937 176.723 209.937 177.109 209.86 177.417C209.704 178.266 209.626 179.193 209.471 180.119C209.393 180.428 209.393 180.813 209.315 181.122C209.16 182.048 209.082 182.897 209.004 183.824C209.004 184.209 208.926 184.518 208.849 184.904C208.771 185.83 208.615 186.679 208.537 187.606C208.46 187.992 208.46 188.455 208.382 188.841C208.304 189.689 208.226 190.616 208.071 191.465C208.071 192.005 208.071 192.391 207.993 192.854C207.915 193.703 207.837 194.552 207.682 195.478C207.682 195.941 207.604 196.404 207.526 196.868C207.449 197.717 207.371 198.566 207.293 199.337C207.215 199.878 207.138 200.341 207.138 200.881C207.06 201.73 206.982 202.502 206.904 203.351C206.826 203.891 206.749 204.354 206.749 204.895C206.671 205.744 206.593 206.515 206.515 207.364C206.438 207.905 206.438 208.445 206.36 209.063C206.282 209.603 206.282 210.143 206.282 210.683C203.015 253.134 204.415 299.753 220.981 325.918C223.392 329.314 238.247 355.17 279.079 357.1C294.945 357.796 400.64 357.1 423.35 354.784C484.17 348.687 488.292 302.917 489.77 293.655C489.848 292.961 493.659 243.795 494.826 210.452C494.981 205.666 495.058 201.19 495.136 197.253C495.524 165.917 489.459 136.665 473.515 109.728ZM317.499 287.789C296.578 284.239 290.123 273.819 288.879 272.044C280.557 258.691 279.312 236.462 280.323 214.62C280.323 214.311 280.323 214.079 280.401 213.771C280.401 213.462 280.401 213.23 280.479 212.922C280.479 212.536 280.479 212.073 280.557 211.687C280.557 211.378 280.557 211.146 280.634 210.915C280.634 210.452 280.712 210.066 280.712 209.603C280.712 209.371 280.712 209.063 280.79 208.831C280.79 208.368 280.868 207.982 280.868 207.519C280.868 207.287 280.945 207.056 280.945 206.824C280.945 206.361 281.023 205.898 281.023 205.512C281.023 205.28 281.023 205.049 281.101 204.817C281.101 204.354 281.179 203.891 281.179 203.428C281.179 203.197 281.256 203.042 281.256 202.811C281.334 202.348 281.334 201.885 281.412 201.421C281.412 201.19 281.412 201.035 281.412 200.881C281.49 200.418 281.49 199.955 281.568 199.492C281.568 199.337 281.568 199.106 281.568 198.951C281.645 198.488 281.645 198.025 281.723 197.562C281.723 197.408 281.801 197.176 281.801 197.099C281.879 196.636 281.879 196.173 281.957 195.71C281.957 195.555 281.957 195.401 282.034 195.247C282.112 194.784 282.112 194.321 282.19 193.858C282.19 193.703 282.19 193.548 282.268 193.394C282.345 192.931 282.423 192.468 282.423 192.005C282.423 191.851 282.501 191.773 282.501 191.619C282.579 191.156 282.579 190.693 282.657 190.307C282.657 190.153 282.657 190.075 282.657 189.921C282.734 189.458 282.812 188.995 282.812 188.532C282.812 188.455 282.812 188.377 282.89 188.3C282.967 187.837 282.967 187.374 283.045 186.911C283.045 186.834 283.045 186.757 283.045 186.679C283.123 186.216 283.201 185.753 283.201 185.29C283.201 185.213 283.201 185.136 283.201 185.058C283.279 184.595 283.356 184.132 283.356 183.746C283.356 183.669 283.356 183.592 283.356 183.515C283.434 183.052 283.434 182.589 283.512 182.203C283.512 182.203 283.512 182.126 283.512 182.048C283.512 181.585 283.668 181.199 283.668 180.736V180.659C283.745 180.196 283.823 179.733 283.901 179.347C283.901 179.347 283.901 179.347 283.901 179.27C284.756 173.404 285.456 169.313 285.69 167.769C290.512 147.47 317.188 142.762 337.254 142.222C350.709 142.531 366.886 142.531 380.263 143.225C388.274 143.611 401.34 145.155 410.751 161.286C418.84 175.025 420.162 190.616 420.395 206.67C420.395 208.677 420.473 210.992 420.395 213.462C420.317 230.596 418.995 253.288 418.995 253.674C418.995 261.856 413.318 284.471 383.919 287.944C372.953 288.947 325.199 289.101 317.499 287.789ZM461.615 170.316L444.038 180.813C443.261 181.277 442.794 181.817 443.027 183.438L441.783 183.592C441.627 181.971 441.316 179.656 441.238 178.807C440.928 176.26 440.616 174.562 440.539 174.021L441.783 173.867C442.016 175.719 442.327 176.105 442.95 176.028C443.338 175.951 444.116 175.488 448.005 173.327L447.072 166.38C442.794 165.3 441.861 165.145 441.627 165.222C440.85 165.3 440.694 165.84 440.928 167.847L439.683 168.001C439.527 166.535 439.372 165.377 439.294 164.374C439.139 163.37 438.905 161.903 438.75 160.9L439.994 160.746C440.227 162.289 440.772 162.752 442.172 163.138L461.382 168.155L461.615 170.316ZM457.727 214.928C457.727 215.005 457.727 215.16 457.727 215.237C457.727 216.009 457.571 217.244 457.571 217.321C457.571 217.553 457.416 218.633 456.016 218.788C455.471 218.865 452.982 218.865 452.671 218.865C451.66 218.71 451.349 218.17 451.349 218.093C450.96 217.476 450.96 216.318 451.038 215.314C451.038 215.314 451.038 215.314 451.038 215.237V215.16C451.038 215.16 451.038 215.16 451.038 215.083C451.038 215.083 451.038 215.083 451.038 215.005C451.038 215.005 451.038 215.005 451.038 214.928V214.851V214.774C451.038 214.697 451.038 214.697 451.038 214.697V214.62V214.542V214.465C451.038 214.388 451.038 214.388 451.038 214.388V214.311V214.234C451.038 214.234 451.038 214.234 451.038 214.156V214.079V214.002V213.925V213.848V213.771C451.038 213.771 451.038 213.771 451.038 213.693C451.038 213.693 451.038 213.693 451.038 213.616C451.038 213.308 451.116 213.153 451.116 213.076C451.427 212.15 452.671 211.918 453.682 211.918C454.305 211.918 455.004 211.995 455.627 211.995C456.016 211.995 456.638 212.073 457.027 212.844C457.649 213.385 457.727 214.156 457.727 214.928ZM419.851 132.728C421.561 134.504 422.028 134.272 423.428 132.96L433.461 123.158C434.861 121.845 435.094 121.46 433.306 119.607L434.239 118.758C434.705 119.221 435.717 120.379 437.661 122.386C438.828 123.621 440.305 124.933 441.005 125.704L440.072 126.554C438.361 124.855 437.972 124.933 436.494 126.322L431.75 130.953L443.727 131.262C444.194 131.262 444.583 131.185 444.816 130.953L445.361 130.413L449.405 134.426L448.549 135.275C447.616 134.349 446.683 133.577 445.361 133.5L435.25 133.037L434.006 145.618C433.928 146.776 434.317 147.47 435.328 148.474L434.472 149.323L430.35 145.155L431.595 132.342L430.506 132.188L426.461 136.202C424.984 137.591 424.984 138.054 426.617 139.752L425.684 140.601C425.45 140.292 423.273 137.977 422.417 137.205C421.095 135.893 419.384 134.195 418.84 133.732L419.851 132.728ZM380.03 121.537C382.441 122 382.752 121.691 383.141 119.762L385.863 106.1C386.252 104.248 386.174 103.784 383.685 103.321L383.919 102.086C384.541 102.241 386.096 102.627 388.819 103.167C390.53 103.476 392.474 103.784 393.485 104.016L393.252 105.251C390.918 104.788 390.607 105.097 390.141 107.026L387.419 120.611L400.64 105.405L407.562 106.795L407.329 107.952C404.84 107.489 404.607 107.875 404.296 109.728L401.573 123.389C401.185 125.396 401.418 125.782 403.673 126.245L403.44 127.48C403.129 127.403 399.94 126.708 398.774 126.476C396.907 126.09 394.574 125.704 393.874 125.627L394.107 124.392C396.518 124.855 396.752 124.47 397.14 122.617L399.863 108.956L386.641 124.161L379.719 122.772L380.03 121.537ZM342.31 120.533C344.798 120.533 344.954 120.147 344.954 118.218V104.248C344.954 102.241 344.721 101.932 342.31 101.932V100.697C343.632 100.697 345.343 100.774 347.209 100.774C349.465 100.774 350.398 100.697 353.587 100.697C356.775 100.697 359.731 101.546 359.731 105.251C359.731 109.419 356.464 111.889 352.42 111.889C351.876 111.889 351.176 111.812 350.787 111.657L350.32 110.191C350.787 110.345 351.487 110.499 351.876 110.499C354.131 110.499 355.298 107.952 355.298 106.023C355.298 103.553 354.287 102.318 351.409 102.318C350.476 102.318 349.776 102.318 349.387 102.395V118.295C349.387 120.379 349.698 120.611 352.031 120.611V121.923C351.643 121.845 348.454 121.845 347.287 121.845C345.42 121.845 343.009 121.845 342.31 121.923V120.533ZM303.111 104.557C305.6 104.093 307.622 103.707 309.411 103.399C311.2 103.09 313.455 102.781 314 102.704C313.844 104.016 313.766 105.714 314.155 107.567L312.833 107.798L312.366 105.251C311.2 104.942 310.033 104.942 308.633 105.251C307.777 105.405 306.689 105.714 305.678 106.254L308.633 123.235C309.1 123.235 310.033 123.08 310.344 123.08C313.844 122.463 314.388 120.225 313.922 117.6C313.377 114.667 312.366 113.51 309.722 113.896C309.333 113.973 309.022 114.127 308.633 114.282L307.933 112.892C308.4 112.661 308.867 112.352 309.489 112.275C313.844 111.503 317.811 112.352 318.51 116.443C319.288 120.765 315.788 123.852 310.733 124.701C310.033 124.855 308.089 125.087 306.689 125.319C304.9 125.627 302.567 126.09 302.022 126.245L301.789 125.01C304.2 124.624 304.356 124.238 303.967 122.231L301.556 108.493C301.244 106.563 300.933 106.254 298.522 106.64L298.289 105.405C299.922 105.02 300.856 104.942 303.111 104.557ZM264.535 120.842L282.734 130.181C283.59 130.644 284.212 130.721 285.456 129.641L286.234 130.644C284.99 131.57 283.123 133.037 282.423 133.654C280.401 135.275 279.079 136.433 278.69 136.819L277.912 135.816C279.39 134.581 279.546 134.195 279.157 133.732C278.923 133.423 278.068 132.96 274.179 130.876L268.735 135.275C270.057 139.443 270.446 140.369 270.601 140.524C271.068 141.141 271.613 141.064 273.246 139.752L274.023 140.755C272.857 141.682 271.923 142.376 271.146 142.994C270.368 143.611 269.202 144.537 268.502 145.232L267.724 144.229C268.968 143.225 269.046 142.453 268.657 141.141L262.902 122.309L264.535 120.842ZM239.258 167.306C239.492 165.608 239.725 163.679 239.881 162.598L241.125 162.752C240.814 164.914 240.969 165.377 242.914 165.686C242.758 164.914 242.447 163.679 242.525 163.138C243.225 158.43 245.947 155.729 251.469 156.501C257.146 157.35 258.857 161.209 258.235 165.068C258.002 166.149 257.613 166.843 256.991 167.769C257.146 167.769 257.769 167.847 257.847 167.924C259.48 168.078 259.791 167.769 260.102 165.608L261.346 165.763C261.191 166.071 260.724 169.236 260.568 170.471C260.258 172.323 259.946 174.639 259.946 175.333L258.702 175.179C259.013 172.941 258.78 172.555 257.224 172.323C257.069 172.323 256.524 172.246 256.369 172.169C256.524 172.941 256.913 174.176 256.835 174.716C256.135 179.424 253.102 182.126 247.969 181.354C242.214 180.505 240.58 176.568 241.203 172.709C241.436 171.629 241.903 170.934 242.369 170.085C240.658 169.853 240.192 169.93 239.803 172.401L238.558 172.246C238.48 171.552 238.792 170.008 239.258 167.306ZM248.98 214.928C248.98 215.005 248.98 215.16 248.98 215.237C248.903 216.009 248.825 217.244 248.825 217.321C248.825 217.553 248.669 218.633 247.269 218.788C246.725 218.865 244.314 218.865 243.925 218.865C242.914 218.71 242.68 218.17 242.603 218.093C242.214 217.476 242.214 216.318 242.292 215.314C242.292 215.314 242.292 215.314 242.292 215.237C242.292 215.237 242.292 215.237 242.292 215.16C242.292 215.16 242.292 215.16 242.292 215.083C242.292 215.083 242.292 215.083 242.292 215.005C242.292 215.005 242.292 215.005 242.292 214.928V214.851V214.774C242.292 214.697 242.292 214.697 242.292 214.697V214.62V214.542V214.465C242.292 214.388 242.292 214.388 242.292 214.388V214.311V214.234C242.292 214.234 242.292 214.234 242.292 214.156V214.079V214.002V213.925V213.848V213.771C242.292 213.771 242.292 213.771 242.292 213.693C242.292 213.693 242.292 213.693 242.292 213.616C242.369 213.308 242.369 213.153 242.447 213.076C242.758 212.15 244.003 211.918 245.014 211.918C245.636 211.918 246.336 211.995 246.958 211.995C247.347 211.995 247.969 212.073 248.436 212.844C248.903 213.385 248.98 214.156 248.98 214.928ZM257.224 273.973L256.758 272.584L259.558 271.735C259.635 270.423 259.48 269.111 258.935 267.567C258.624 266.641 258.08 265.406 257.302 264.403L240.891 269.651C238.714 270.346 238.48 270.732 239.336 273.279L238.014 273.665C237.936 273.279 236.847 269.806 236.458 268.571C235.836 266.564 234.981 264.017 234.592 263.245L235.914 262.782C236.77 265.483 237.236 265.483 239.336 264.789L254.191 260.003C256.291 259.309 256.68 259 255.747 256.299L257.069 255.913C257.613 257.688 257.847 258.691 258.702 261.161C259.558 263.785 260.413 266.024 261.035 267.953C261.657 269.806 262.435 272.353 262.591 272.97C261.035 273.125 259.169 273.356 257.224 273.973ZM287.401 312.488C282.967 319.28 276.046 320.052 269.202 315.653C262.513 311.33 260.724 305.233 265.079 298.595C269.513 291.803 276.434 291.031 283.279 295.43C289.967 299.753 291.678 305.85 287.401 312.488ZM334.299 314.958L332.821 314.804L333.132 311.948C331.888 311.253 330.643 310.944 329.01 310.713C327.999 310.558 327.221 310.636 326.444 310.713L324.499 328.002C324.266 330.24 324.499 330.626 327.221 330.935L327.066 332.324C326.677 332.247 323.021 331.784 321.699 331.629C319.599 331.398 316.877 331.166 316.1 331.089L316.255 329.7C319.055 330.009 319.288 329.623 319.522 327.461L321.466 310.172C320.61 309.864 319.91 309.709 318.744 309.555C317.344 309.401 316.022 309.478 314.699 309.864L314.388 312.719L312.911 312.565C313.144 310.558 312.989 308.86 312.677 307.162C313.455 307.162 315.244 307.317 316.333 307.471C320.066 307.857 320.844 308.089 324.188 308.474C327.61 308.86 329.01 308.86 331.732 309.246C333.521 309.401 335.31 309.709 335.777 309.787C335.076 311.253 334.532 312.874 334.299 314.958ZM383.063 331.398C380.963 331.552 378.241 331.784 377.463 331.938L377.386 330.549C380.186 330.317 380.341 329.854 380.186 327.693L378.941 312.256L369.064 332.556L361.053 333.173L360.975 331.861C363.775 331.629 363.931 331.244 363.775 329.005L362.531 313.569C362.375 311.485 362.22 310.944 359.342 311.176L359.264 309.787C359.964 309.709 361.831 309.709 364.942 309.478C366.886 309.323 369.064 309.015 370.308 308.938L370.464 310.327C367.742 310.558 367.508 310.944 367.664 313.183L368.908 328.697L378.708 308.397L386.719 307.78L386.874 309.092C383.997 309.323 383.919 309.787 384.074 311.948L385.319 327.461C385.474 329.777 385.785 330.009 388.507 329.854L388.585 331.244C388.041 331.089 384.385 331.321 383.063 331.398ZM436.028 313.877L422.184 309.401L421.717 310.558L425.062 315.961C426.228 317.891 426.695 318.045 429.028 316.656L429.806 317.814C429.417 317.968 426.306 319.82 425.139 320.515C423.273 321.596 421.017 323.062 420.317 323.525L419.617 322.29C422.028 320.824 421.95 320.361 420.862 318.508L412.617 305.31C411.529 303.457 411.14 303.149 408.651 304.615L407.873 303.457C408.495 303.072 410.129 302.223 412.773 300.602C414.484 299.598 416.273 298.364 417.284 297.746L417.984 298.904C415.651 300.37 415.573 300.756 416.817 302.686L420.628 308.938L424.128 295.971C424.284 295.43 424.284 295.045 424.05 294.659L423.584 293.964L429.106 290.568L429.806 291.649C428.483 292.42 427.395 293.269 427.006 294.659L423.817 305.541L437.427 309.941C438.672 310.327 439.527 310.095 440.928 309.246L441.627 310.404L436.028 313.877ZM464.415 264.326C463.715 267.181 463.171 269.111 463.093 269.651L461.693 269.343C462.238 267.259 462.082 266.795 461.46 266.641C460.993 266.487 459.982 266.641 455.082 267.336L453.06 274.977C457.027 277.91 457.882 278.45 458.116 278.527C458.971 278.759 459.36 278.296 459.982 276.058L461.382 276.444C460.916 278.064 460.527 279.376 460.215 280.38C459.904 281.537 459.515 283.081 459.282 284.239L457.96 283.853C458.427 282.078 457.96 281.383 456.716 280.38L439.061 267.027L439.683 264.634L462.393 261.007C463.404 260.852 464.026 260.466 464.571 258.691L465.893 259C465.349 260.775 464.649 263.322 464.415 264.326Z" fill="#910B26"/>
<path d="M254.536 167.086C254.977 166.541 255.417 165.79 255.638 164.767C255.932 162.926 254.315 161.767 250.494 161.221C245.864 160.607 243.954 161.698 243.733 163.062C243.586 163.881 243.366 164.495 244.027 165.586L254.536 167.086Z" fill="#910B26"/>
<path d="M267.77 127.824L269.833 133.865L273.817 130.844L267.77 127.824Z" fill="#910B26"/>
<path d="M248.752 175.97C253.015 176.59 255.294 175.487 255.515 174.107C255.662 173.279 255.882 172.659 255.221 171.555L244.709 170.106C244.267 170.658 243.826 171.417 243.606 172.452C243.312 174.245 245.223 175.487 248.752 175.97Z" fill="#910B26"/>
<path d="M455.245 169.044L449.197 167.087L449.783 173.127L455.245 169.044Z" fill="#910B26"/>
<path d="M453.459 272.792L455.24 266.752L446.168 267.96L453.459 272.792Z" fill="#910B26"/>
<path d="M282.927 298.598C277.236 294.789 273.284 298.193 270.36 302.732C267.198 307.758 266.486 313.594 270.755 316.431C276.446 320.241 280.398 316.918 283.323 312.378C286.484 307.271 287.196 301.435 282.927 298.598Z" fill="#910B26"/>
<path d="M394.501 247.811C394.501 243.435 394.809 229.537 395.348 224.239L400.817 221.014L400.355 218.096C395.656 218.403 391.728 219.094 387.26 219.094L363.69 218.634V222.319C370.7 222.55 375.167 223.317 377.093 223.701C379.019 224.085 380.251 224.623 380.713 225.391C381.098 226.082 381.407 228.616 381.407 232.839V249.347C381.407 253.647 381.176 256.718 380.713 258.638C377.94 260.097 374.474 261.325 370.392 262.093C366.309 262.938 362.15 263.322 357.836 263.322C348.67 263.322 340.582 261.325 333.65 257.179C326.794 253.11 321.248 247.197 317.166 239.442C313.084 231.687 311.004 223.01 311.004 213.336C311.004 204.582 312.775 196.52 316.242 189.072C319.785 181.701 324.946 176.019 331.801 172.026C338.657 168.033 346.667 166.113 356.065 166.113C360.609 166.113 364.461 166.421 367.773 167.035C371.008 167.649 375.167 168.954 380.174 170.874C383.101 172.333 385.181 173.869 386.49 175.635C387.107 176.863 387.415 177.861 387.415 178.629C387.492 179.397 387.492 180.472 387.569 181.701L387.954 190.07H392.575C393.192 182.622 393.731 177.631 394.116 175.251C394.501 172.871 395.117 170.413 395.888 167.88C388.262 165.73 381.484 164.117 375.475 162.888C369.467 161.737 363.69 161.046 358.222 161.046C346.513 161.046 336.731 162.658 328.797 165.73C323.636 167.803 318.398 171.028 313.238 175.328C308.077 179.627 303.763 185.156 300.22 191.836C296.754 198.516 294.982 206.655 294.982 216.176C294.982 227.08 297.37 236.524 302.223 244.51C307.075 252.495 313.854 258.715 322.712 263.168C331.57 267.622 341.661 269.772 353.061 269.772C360.609 269.772 368.543 269.004 377.016 267.391C381.792 266.47 387.877 264.627 395.348 261.94C394.809 257.025 394.501 252.265 394.501 247.811Z" fill="#910B26"/>
</g>
</g>
<defs>
<clipPath id="clip0_6607_673">
<rect width="290.139" height="286.915" fill="white" transform="translate(204.93 70.4414)"/>
</clipPath>
</defs>
</svg>
