<svg width="700" height="428" viewBox="0 0 700 428" fill="none" xmlns="http://www.w3.org/2000/svg">
<path d="M261.948 317.929L261.717 283.913L245.901 311.229H235.196L219.381 285.121V317.929H197.025V243.197H217.278L241.021 282.958L264.041 243.197H284.283V317.929H261.948Z" fill="#1D1D1B"/>
<path d="M358.512 299.005V317.929H298.006V243.197H357.113V262.132H322.212V270.985H352.918V289.195H322.212V299.005H358.512Z" fill="#1D1D1B"/>
<path d="M385.495 314.822C379.507 311.596 374.517 306.791 371.068 300.928C367.559 294.717 365.715 287.704 365.715 280.57C365.715 273.436 367.559 266.423 371.068 260.212C374.52 254.357 379.509 249.559 385.495 246.338C391.854 242.92 398.982 241.188 406.2 241.308C412.691 241.163 419.132 242.47 425.054 245.131C430.459 247.655 435.171 251.453 438.787 256.198L423.424 270.283C419.007 264.538 413.665 261.419 407.598 261.419C402.488 261.419 398.302 263.079 395.274 266.45C392.246 269.82 390.626 274.357 390.626 280.102C390.626 285.847 392.256 290.404 395.274 293.765C398.292 297.125 402.488 298.795 407.598 298.795C413.635 298.795 419.007 295.938 423.424 289.942L438.787 304.027C435.287 308.883 430.543 312.706 425.054 315.094C419.131 317.751 412.69 319.054 406.2 318.907C399.046 319.809 391.79 318.399 385.495 314.883" fill="#1D1D1B"/>
<path d="M509.98 262.836H488.802V317.929H464.616V262.836H443.438V243.197H509.98V262.836Z" fill="#1D1D1B"/>
<path d="M549.294 286.791L542.322 267.877L535.34 286.791H549.294ZM556.045 305.001H528.358L523.478 317.929H498.588L530.451 243.188H554.395L586.268 317.929H560.925L556.045 305.001Z" fill="#1D1D1B"/>
<path d="M269.854 144.983C272.188 143.554 274.502 143.554 275.438 144.752C276.373 145.949 276.132 148.092 274.502 150.728C270.337 156.955 259.853 161.986 250.356 162.469C255.467 156.432 262.68 149.048 269.894 144.983M487.208 154.561C478.247 166.055 467.938 176.431 456.502 185.468C455.788 185.951 454.873 186.675 453.937 187.379C439.278 198.165 439.51 193.607 439.741 189.784C440.445 180.427 449.057 166.06 454.168 157.448C455.335 156 454.621 152.177 453.243 150.728C452.77 150.255 451.371 149.299 449.51 151.211C445.737 154.782 440.878 159.813 435.998 165.105C425.988 175.89 414.589 188.104 404.81 194.1C402.949 195.287 401.329 195.529 400.383 194.804C399.216 193.798 399.216 191.213 400.162 187.631C402.717 177.801 414.126 159.36 423.191 147.86C425.284 145.235 424.358 143.776 423.654 143.303C422.798 142.859 421.812 142.736 420.874 142.958C419.936 143.18 419.109 143.73 418.543 144.51C412.255 152.177 399.93 170.145 395.031 184.039C394.541 184.224 394.072 184.46 393.632 184.743C393.169 184.995 391.55 186.192 389.457 187.631C374.808 198.396 375.03 193.848 375.261 190.015C375.955 180.679 384.567 166.302 389.688 157.68C390.855 156.241 390.151 152.408 388.753 150.979C388.29 150.496 386.902 149.541 385.02 151.452C381.308 155.044 376.428 160.084 371.529 165.346C363.862 173.485 355.431 182.59 347.574 189.06H346.87C345.471 189.06 343.157 190.066 343.157 191.464C343.157 191.937 343.388 192.168 343.62 192.168C342.574 192.832 341.566 193.554 340.602 194.331C338.75 195.529 337.1 195.78 336.185 195.056C335.018 194.05 335.018 191.464 335.954 187.852C338.519 178.043 349.908 159.601 358.993 148.092C361.075 145.456 360.14 144.067 359.446 143.554C358.593 143.101 357.605 142.969 356.663 143.183C355.721 143.397 354.887 143.943 354.315 144.721C347.101 153.585 331.979 175.91 329.162 189.754C328.855 191.172 328.7 192.619 328.7 194.07C328.847 196.343 329.846 198.477 331.497 200.046C332.58 201.011 333.99 201.529 335.44 201.495C338.227 201.495 341.96 199.332 346.839 195.257C344.525 200.287 342.191 204.604 334.283 213.236C327.301 220.892 318.468 226.405 310.771 226.405C307.522 226.405 300.077 224.725 301.012 213.709C301.706 206.515 304.725 197.179 309.373 186.876C314.148 176.149 320.165 166.019 327.301 156.694C328.227 155.487 328.7 154.531 328.468 153.585C328.468 153.102 327.995 152.579 327.301 152.378C325.903 151.653 324.283 151.653 321.949 152.851L317.069 163.163C316.607 163.887 315.902 164.843 315.439 165.547C307.715 165.435 299.998 166.082 292.4 167.479C293.588 164.939 294.905 162.461 296.344 160.054C297.048 159.33 297.742 158.847 298.215 158.374C298.457 158.105 298.617 157.774 298.678 157.418V157.197L301.475 153.615C301.838 153.212 302.075 152.712 302.159 152.177C302.159 151.935 301.928 151.684 301.706 151.452C300.738 151.306 299.748 151.431 298.846 151.813C297.944 152.195 297.165 152.819 296.596 153.615L292.169 159.652C290.157 160.594 288.049 161.312 285.881 161.795C280.77 162.036 272.158 162.288 263.747 162.288C270.729 160.366 276.323 156.774 278.637 152.458C279.521 150.565 279.864 148.465 279.628 146.389C279.392 144.313 278.586 142.343 277.299 140.697C276.411 139.587 275.2 138.781 273.834 138.39C272.468 137.998 271.013 138.042 269.673 138.514C255.94 143.776 233.836 167.741 232.921 188.587C232.438 201.525 246.181 210.137 266.655 193.124C267.822 192.118 267.59 191.464 267.339 191.213C266.886 190.488 265.95 190.74 264.793 191.213C241.281 206.062 237.337 192.219 237.569 188.587C238.031 180.206 242.921 172.298 247.811 165.578C259.209 165.578 279.683 165.578 285.961 164.571C286.897 164.34 287.812 164.099 288.527 163.867C287.36 165.296 286.434 166.976 285.267 168.656C285.026 168.656 285.026 168.656 284.814 168.888C284.331 169.139 284.1 169.37 283.647 169.37C282.554 169.855 281.538 170.495 280.629 171.272C278.315 173.204 278.778 175.115 279.713 176.302C279.713 176.554 279.945 176.554 280.176 176.785C277.325 181.315 274.761 186.019 272.5 190.87C270.87 194.462 273.194 195.418 273.194 195.418C275.065 195.901 277.148 196.625 278.315 195.669C279.251 194.945 285.297 181.041 290.388 170.256C297.521 168.896 304.823 168.659 312.029 169.552C308.779 174.823 305.52 180.568 302.25 187.037C296.686 198.527 293.889 207.159 293.416 213.387C292.943 219.614 293.889 223.92 296.917 227.472C298.769 229.615 313.427 241.124 336.235 215.016C346.014 203.95 349.958 192.732 349.958 192.007V191.776C356.478 186.031 364.858 177.409 375.11 166.624C376.267 165.417 378.601 165.618 377.434 168.304C377.203 169.028 371.398 180.266 370.925 191.303C370.442 201.837 377.676 199.432 378.601 198.959C380.453 198.235 389.538 192.007 393.481 188.647C393.238 190.075 393.087 191.516 393.029 192.963C393.151 195.258 394.149 197.418 395.815 199C396.909 199.959 398.325 200.469 399.779 200.428C406.51 200.428 419.086 188.214 439.329 166.664C440.496 165.457 442.81 165.658 441.643 168.344C441.411 169.069 435.606 180.307 435.133 191.343C434.68 201.877 441.894 199.472 442.81 199C445.144 198.275 457.901 189.19 459.802 187.027C460.265 186.786 460.507 186.303 460.738 186.021C461.654 185.015 462.821 184.1 463.756 183.144C471.884 175.399 479.32 166.959 485.981 157.921C486.916 156.724 487.842 155.517 488.778 154.34C489.009 154.561 487.379 154.088 487.148 154.561" fill="#1D1D1B"/>
<path d="M438.313 140.91C439.712 141.634 442.026 141.161 444.823 139.713C458.556 133.244 464.612 115.999 463.938 114.802C463.466 113.846 456.725 135.648 441.805 132.056H441.342C438.324 131.584 437.609 134.441 437.146 135.89C437.146 136.121 436.925 136.604 436.925 136.896C436.462 138.576 436.462 140.236 438.313 140.92" fill="#1D1D1B"/>
<path d="M213.787 184.512C214.954 181.876 217.983 176.132 218.214 175.176C219.603 177.329 220.538 181.876 213.787 184.512ZM178.414 228.83C157.286 250.632 121.872 227.15 164.922 202.471C174.701 196.726 205.407 190.257 205.407 190.257C195.628 210.117 187.036 219.957 178.414 228.83ZM206.584 186.193C206.584 186.193 180.063 191.454 173.313 193.366C133.995 204.624 127.234 227.865 138.412 240.078C143.764 246.115 168.665 253.017 187.71 228.106C199.783 212.3 210.98 189.301 210.98 189.301C210.98 189.301 216.101 187.39 218.415 186.414C222.148 184.512 225.629 178.285 219.582 171.323C224.009 162.268 227.027 156.473 229.362 151.684C230.991 147.851 233.305 146.412 236.807 141.382C240.308 136.351 245.187 126.773 242.39 124.842C235.408 120.304 227.49 138.031 223.778 147.136C223.546 147.619 206.554 186.182 206.554 186.182" fill="#1D1D1B"/>
<path d="M167.053 111.923C202.145 91.5603 261.021 80.0708 292.904 80.0708C292.904 80.0708 297.089 77.9077 285.69 78.3906C256.121 79.115 216.12 86.7713 195.143 92.7675C162.596 102.345 142.585 118.634 136.076 124.6C120.944 138.766 113.73 151.462 113.73 167.741C113.73 174.904 117.694 183.546 123.278 187.621C128.631 191.223 135.14 192.903 142.585 192.651C154.98 192.41 170.071 187.863 187.496 179.482C192.376 177.077 197.497 174.451 202.145 171.584C205.163 170.578 204.711 166.312 203.544 164.381C203.103 163.455 202.371 162.699 201.461 162.228C200.808 161.655 199.991 161.303 199.127 161.221C197.96 161.473 193.764 170.558 193.09 171.765C171.902 182.822 154.678 189.543 141.901 188.114C127.936 186.434 122.584 176.122 126.538 160.075C131.176 140.194 143.058 125.827 167.053 111.923Z" fill="#1D1D1B"/>
</svg>
