<svg width="700" height="428" viewBox="0 0 700 428" fill="none" xmlns="http://www.w3.org/2000/svg">
<path d="M94.5118 229.167H102.255V248.926C102.255 256.669 98.9341 259.36 93.5596 259.36C88.1852 259.36 84.8645 256.677 84.8645 248.926V190.916C84.8645 183.173 88.1852 180.325 93.5596 180.325C98.9341 180.325 102.255 183.173 102.255 190.916V202.452H118.221V192.018C118.221 174.785 109.683 164.988 93.0875 164.988C76.492 164.988 67.7969 174.95 67.7969 192.018V247.816C67.7969 265.049 76.3346 274.846 92.9301 274.846C109.526 274.846 118.063 265.049 118.063 247.816V213.831H94.5118V229.159V229.167ZM166.276 166.255H141.615L124.382 273.579H139.876L142.724 254.135H163.428L166.276 273.579H183.344L166.276 166.255ZM153.151 185.384L161.209 239.601H144.928L153.151 185.384ZM243.722 273.587C241.983 269.637 241.825 265.844 241.825 260.627V244.031C241.825 232.81 239.142 224.745 230.604 221.109C238.19 217.631 241.668 210.36 241.668 199.297V190.916C241.668 174.321 234.082 166.255 216.692 166.255H191.244V273.579H208.154V229.954H214.001C221.744 229.954 225.065 233.589 225.065 243.551V260.462C225.065 269.157 225.694 270.896 226.646 273.579H243.714L243.722 273.587ZM216.22 181.592C222.224 181.592 224.758 184.912 224.758 192.655V203.247C224.758 211.785 220.965 214.625 214.638 214.625H207.997V181.592H216.22ZM252.897 273.587H279.612C296.522 273.587 304.745 264.262 304.745 247.029V192.813C304.745 175.58 296.522 166.255 279.612 166.255H252.897V273.579V273.587ZM279.289 181.592C284.664 181.592 287.827 184.275 287.827 192.026V247.824C287.827 255.567 284.664 258.258 279.289 258.258H269.807V181.592H279.289ZM332.404 181.592H361.488V166.263H315.494V273.587H361.488V258.258H332.404V226.806H355.484V211.478H332.247V181.6H332.404V181.592ZM407.953 273.587H425.344V166.255H410.33V230.591L392.94 166.255H371.757V273.579H386.928V195.811L407.953 273.579V273.587ZM494.259 233.589V248.918C494.259 256.661 490.939 259.352 485.564 259.352C480.19 259.352 476.869 256.669 476.869 248.918V190.916C476.869 183.173 480.19 180.325 485.564 180.325C490.939 180.325 494.259 183.173 494.259 190.916V202.452H510.225V192.018C510.225 174.785 501.688 164.988 485.092 164.988C468.497 164.988 459.959 174.785 459.959 192.018V247.816C459.959 265.049 468.497 274.846 485.092 274.846C501.688 274.846 510.225 265.049 510.225 247.816V233.589H494.259ZM520.345 273.587H537.255V166.255H520.345V273.579V273.587ZM544.683 181.592H562.388V273.587H579.299V181.592H597.004V166.263H544.841L544.683 181.592ZM604.117 273.587H621.027V166.255H604.117V273.579V273.587Z" fill="#010101"/>
<path d="M67.7969 295.56V290.5H621.027V295.56H67.7969Z" fill="#010101"/>
<path d="M67.7969 149.505V144.445H621.027V149.505H67.7969Z" fill="#010101"/>
</svg>
