<svg width="700" height="428" viewBox="0 0 700 428" fill="none" xmlns="http://www.w3.org/2000/svg">
<path d="M99.0156 291.758L125.2 246.696H210.046L236.23 291.758H99.0156Z" fill="#004996"/>
<path d="M140.627 127.746L166.609 173.011L124.389 246.49H72.4258L140.627 127.746Z" fill="#004996"/>
<path d="M194.413 127.746L168.229 173.011L210.448 246.49H262.614L194.413 127.746Z" fill="#004996"/>
<path d="M194.821 127.746H141.641L168.231 172.808L194.821 127.746Z" fill="#FBBA07"/>
<path d="M127.226 247.101H74.0449L100.635 292.162L127.226 247.101Z" fill="#FBBA07"/>
<path d="M264.644 247.101H211.26L237.85 292.162L264.644 247.101Z" fill="#FBBA07"/>
<path d="M560.792 187.219C556.327 185.595 552.47 184.58 545.975 184.58C535.014 184.58 523.85 192.903 523.85 206.908C523.85 221.32 534.811 229.439 546.584 229.439C552.47 229.439 557.545 228.424 561.198 226.597L566.07 242.836C559.169 245.678 551.658 247.301 543.742 247.301C522.835 247.301 502.537 233.296 502.537 206.908C502.537 183.16 521.82 167.327 543.133 167.327C552.267 167.327 557.748 168.342 565.867 171.387L560.792 187.219Z" fill="#004996"/>
<path fill-rule="evenodd" clip-rule="evenodd" d="M377.099 183.77C378.926 183.567 380.752 183.364 383.188 183.364C390.09 183.364 394.352 187.627 394.352 193.107C394.352 198.791 390.699 203.662 380.955 203.662H376.896L377.099 183.77ZM377.099 247.1H356.801V168.75C364.108 167.735 372.43 167.126 379.941 167.126C401.862 167.126 414.041 177.478 414.041 192.904C414.041 206.504 405.516 219.495 381.361 219.495H376.896L377.099 247.1Z" fill="#004996"/>
<path d="M287.176 247.099H307.068V212.998H307.271L328.787 247.099H352.738L325.539 205.691L350.1 169.154H327.163L307.271 200.21H307.068V169.154H287.176V247.099Z" fill="#004996"/>
<path d="M474.933 208.128C474.933 193.107 466.814 184.176 456.259 184.176C445.704 184.176 437.584 193.107 437.584 208.128C437.584 223.149 445.704 232.08 456.259 232.08C466.814 232.08 474.933 223.149 474.933 208.128ZM416.271 208.128C416.271 183.364 433.931 167.126 456.259 167.126C478.586 167.126 496.246 183.364 496.246 208.128C496.246 232.892 478.586 249.13 456.259 249.13C433.728 249.13 416.271 232.892 416.271 208.128Z" fill="#004996"/>
<path d="M627.374 186.002H607.685V247.099H587.793V186.002H568.104V169.357H627.577V186.002H627.374Z" fill="#004996"/>
<path d="M291.233 274.098V263.949H286.361V289.93H291.233V278.36H292.654C294.481 278.36 295.495 279.578 297.931 283.435C299.352 285.871 300.367 287.9 301.788 290.133H306.862L301.585 280.999C299.961 278.36 298.946 276.534 296.916 276.128C298.54 275.113 299.352 273.489 300.164 270.85C300.773 268.82 301.788 267.805 303.412 267.805C304.427 267.805 305.036 268.211 305.442 268.414V263.949C304.63 263.746 303.818 263.34 302.803 263.34C298.743 263.34 297.322 266.385 296.104 269.429C295.089 272.677 293.872 273.895 292.248 273.895H291.233V274.098Z" fill="#004996"/>
<path fill-rule="evenodd" clip-rule="evenodd" d="M346.651 263.541C339.14 263.541 333.457 269.224 333.457 276.532C333.457 284.448 338.938 290.131 346.651 290.131C354.567 290.131 360.047 284.651 360.047 276.532C360.25 269.021 354.567 263.541 346.651 263.541ZM346.651 268.007C351.522 268.007 355.176 271.66 355.176 276.532C355.176 282.012 351.928 285.463 346.651 285.463C341.779 285.463 338.532 281.809 338.532 276.532C338.532 271.66 341.982 268.007 346.651 268.007Z" fill="#004996"/>
<path d="M395.768 277.141H406.729V288.102H411.6V263.541H406.729V272.878H395.768V263.541H390.896V288.102H395.768V277.141Z" fill="#004996"/>
<path d="M449.157 284.448V263.541H444.082V288.914H464.177V294.191H468.643V284.245H465.598V263.541H460.523V284.448H449.157Z" fill="#004996"/>
<path fill-rule="evenodd" clip-rule="evenodd" d="M517.561 282.215C514.719 284.245 511.877 285.26 508.832 285.26C503.961 285.26 501.119 282.621 500.51 277.547H518.169C518.169 268.007 513.907 263.541 507.412 263.541C500.51 263.541 495.639 268.819 495.639 276.532C495.639 283.636 499.901 290.131 507.817 290.131C512.08 290.131 514.719 289.117 517.764 287.087L517.561 282.215ZM500.51 274.299C501.119 270.239 503.352 268.007 507.209 268.007C510.659 268.007 512.892 270.442 513.095 274.299H500.51Z" fill="#004996"/>
<path d="M608.899 277.141H619.86V288.102H624.731V263.541H619.86V272.878H608.899V263.541H604.027V288.102H608.899V277.141Z" fill="#004996"/>
<path fill-rule="evenodd" clip-rule="evenodd" d="M561.2 267.602C556.329 267.602 553.893 272.068 553.893 276.534C553.893 280.593 556.126 285.465 561.2 285.465C566.072 285.465 568.101 280.796 568.101 276.331C568.101 271.865 566.072 267.602 561.2 267.602ZM548.818 263.949H553.69L553.893 266.993C555.72 264.761 558.155 263.34 562.215 263.34C569.725 263.34 573.582 269.226 573.582 275.925C573.582 282.826 570.131 289.321 562.215 289.321C558.561 289.321 555.72 287.9 553.893 285.871V298.252H548.818V263.949Z" fill="#004996"/>
</svg>
