<svg width="700" height="428" viewBox="0 0 700 428" fill="none" xmlns="http://www.w3.org/2000/svg">
<path d="M383.076 131.833C385.29 130.214 388.162 127.689 387.257 124.633C386.525 123.627 381.722 124.285 380.093 124.066C376.434 123.572 370.78 119.043 368.201 116.4C371.869 122.282 379.215 126.124 386.388 125.219C386.278 130.744 379.81 132.135 375.364 132.94C375.162 133.205 379.636 137.395 377.587 138.74C374.55 139.536 371.604 138.831 368.749 137.889C369.106 143.753 366.508 145.894 360.918 144.339C358.604 143.689 353.993 140.753 352.456 140.652C349.245 140.442 344.461 146.8 338.413 144.805C335.44 143.826 337.682 140.771 336.273 138.676C334.663 137.514 327.344 142.107 327.381 137.624C327.39 136.005 329.247 134.44 328.268 132.912C327.792 132.162 324.115 133.361 322.047 132.519C320.4 131.842 315.625 126.225 318.415 125.31C320.245 124.706 322.367 125.932 324.325 125.758C333.418 124.935 343.756 106.181 345.76 98.112C347.69 90.345 346.857 81.462 351.441 74.5733C353.536 73.9512 354.67 79.184 355.118 80.7301C358.924 93.8489 357.479 105.467 368.201 116.418C360.937 104.772 360.187 100.71 357.662 87.5548C357.168 84.9658 355.311 72.7527 351.935 73.0272C349.273 74.7562 348.303 78.196 347.525 81.1509C345.787 87.8201 346.144 94.3337 343.811 101.131C341.46 108.001 331.772 124.404 323.84 124.715C320.995 124.825 316.128 122.236 316.43 126.554C316.759 131.238 322.312 135.291 326.868 134.047C326.749 136.901 324.947 139.563 328.515 140.926C324.728 144.595 321.827 148.858 316.119 149.471C313.027 149.809 309.587 148.977 306.806 149.096C304.226 149.206 304.821 152.545 305.342 154.182C306.98 159.305 312.88 162.718 318.04 162.69C319.44 163.898 312.524 167.731 311.636 168.134C305.434 170.942 303.622 169.149 297.95 169.286C296.468 169.323 294.181 170.604 293.065 170.329C292.168 170.101 289.058 164.987 288.015 163.788C266.489 139.106 226.968 144.009 209.769 170.86C190.393 158.144 163.488 163.962 152.089 184.372C150.524 187.171 149.692 190.254 148.054 192.999C134.414 181.902 112.44 184.628 103.255 200.007C92.1943 218.523 101.8 240.845 122.201 246.425L121.89 251.969C105.249 251.311 86.2753 250.615 79.0389 268.903C76.514 275.279 76.4591 291.015 78.0783 297.702C80.8137 309.009 90.7854 317.508 102.303 318.661C216.356 318.99 330.509 318.414 444.48 318.066C497.449 317.902 550.646 318.917 603.487 317.279C613.13 314.535 621.354 305.734 622.617 295.634C623.952 285.022 624.538 271.693 617.53 262.984C606.644 249.453 590.103 251.612 574.524 252.381C573.151 252.143 573.7 245.648 573.966 244.221C585.163 241.439 594.604 233.462 597.568 222.091C604.421 195.817 578.037 176.724 554.242 186.897C542.504 165.206 517.868 158.72 496.012 169.616C479.271 147.22 447.361 141.631 425.231 159.973C424.207 160.824 417.776 167.063 417.483 167.685C416.879 169.003 417.657 169.753 417.766 170.97L404.547 169.872L409.231 170.96C410.795 171.281 416.147 170.192 416.641 171.848C414.583 179.807 405.261 182.798 397.933 184.189C397.155 185.022 402.937 188.287 399.836 191.883C397.686 194.371 386.772 192.724 383.606 191.352L384.155 193.548C383.286 194.28 375.949 190.392 374.385 189.824C356.802 183.421 341.606 183.887 324.279 190.703C319.614 192.541 317.601 195.195 311.719 194.088C307.025 193.2 311.966 184.738 311.426 184.189C303.787 187.473 299.176 181.371 294.355 176.468C295.544 181.106 299.634 189.715 298.746 194.362C298.298 196.731 290.952 201.04 288.582 201.836C286.249 202.623 281.584 203.51 279.196 203.51C274.512 203.52 269.682 200.501 265.739 204.892C263.232 207.682 265.245 209.457 266.892 211.909C272.152 219.73 279.617 227.049 289.936 224.414C275.894 242.821 251.092 249.133 230.042 238.841C227.846 237.771 220.098 232.959 218.817 231.321C218.561 230.992 218.176 230.791 218.341 230.269C233.445 212.339 229.758 185.671 211.187 171.784C215.405 165.618 220.262 160.422 226.611 156.396C249.336 141.997 281.099 149.59 292.69 174.254C293.769 174.355 292.919 172.946 293.349 172.168C294.639 169.863 302.396 171.445 304.802 171.272C307.025 171.116 310.255 169.762 312.341 168.847C314.289 167.987 315.277 166.185 317.473 166.542C316.302 172.26 328.524 169.579 329.549 170.457C330.006 178.179 342.155 177.264 347.232 175.086C348.596 174.501 349.639 173.293 350.983 172.772C357.936 170.082 360.708 175.214 366.49 176.221C369.509 176.751 375.611 176.761 377.797 174.245C379.188 172.644 378.822 168.692 380.103 168.253C383.378 168.353 385.93 169.643 389.26 168.618C390.916 168.106 392.279 166.002 393.157 166.075C394.676 166.212 396.643 169.643 399.04 168.747L391.886 165.17L389.397 161.593C388.912 163.148 390.98 163.825 390.806 165.718C390.468 169.414 379.298 166.798 377.001 166.002C376.983 167.695 378.721 168.591 378.438 170.43C377.678 175.242 370.195 175.891 366.389 175.233C362.236 174.519 358.421 169.918 354.121 170.128C351.752 170.247 349.629 172.653 347.397 173.586C341.78 175.955 328.524 177.3 331.808 167.649C329.219 169.433 326.951 169.497 323.895 169.231C316.787 168.618 318.013 165.764 320.794 160.486C315.222 162.343 309.047 159.845 306.751 154.42C304.016 147.952 310.721 150.971 315.003 150.56C324.325 149.663 327.198 140.442 333.254 140.112C335.953 139.966 334.388 141.594 334.653 142.985C335.093 145.363 338.304 146.516 340.435 146.672C345.558 147.028 347.864 143.031 351.907 142.811C356.902 142.546 359.308 147.586 366.133 146.04C369.884 145.19 369.545 140.579 370.725 140.167L378.648 140.643L378.081 139.316C380.926 138.072 378.053 135.492 377.55 133.489C377.724 133.251 382.307 132.135 383.058 131.833C381.859 132.702 380.926 133.58 379.197 133.489C378.913 134.888 380.176 135.904 380.304 137.112C380.587 139.865 378.849 139.737 381.941 142.582C386.186 146.489 392.16 148.035 397.722 148.84C401.052 149.325 406.047 147.55 404.291 153.341C402.827 158.18 395.829 160.852 391.318 161.583C391.254 164.355 393.487 164.017 394.822 164.959C399.204 168.033 405.425 169.771 410.905 169.863C411.536 169.872 415.9 169.442 416.083 169.259C416.202 169.14 416.047 167.795 416.403 167.118C417.647 164.685 425.296 158.263 427.839 156.497C443.565 145.601 463.078 144.558 479.847 153.771C486.013 157.156 492.069 162.123 496.36 167.685C518.097 157.375 543.017 163.797 554.955 185.031C565.055 181.197 576.152 182.03 585.447 187.583C606.131 199.961 604.988 231.157 583.8 242.473C582.053 243.406 576.61 245.017 575.905 245.602C574.908 246.435 575.484 248.511 575.365 249.746H598.785C600.121 249.746 606.15 251.731 607.696 252.399C617.32 256.543 623.239 265.683 625.508 275.636V294.372C624.483 296.101 624.611 298.388 624.016 300.328C620.979 310.226 613.066 317.188 603.039 319.567C445.038 320.939 286.771 319.96 128.788 321.396C111.891 321.552 92.8347 324.635 81.1156 310.061C77.6392 305.743 76.4042 301.087 74.4922 296.019V272.873C77.4929 264.374 82.6068 256.672 91.005 252.747C100.007 248.539 110.052 249.719 119.676 250.286C120.518 246.37 116.511 246.425 113.794 244.87C105.231 239.957 99.3117 232.593 97.3265 222.768C91.5356 194.069 123.171 174.245 146.947 190.218C150.78 182.35 155.236 175.105 162.472 169.936C177.155 159.443 194.391 159.873 209.998 168.161C228.514 138.539 275.82 137.743 293.632 168.747C299.204 168.289 306.211 169.927 311.27 167.2C312.331 166.624 313.054 165.673 313.996 164.95C314.527 164.538 317.665 163.843 315.012 163.248C310.584 162.251 305.379 159.068 304.098 154.32C301.729 145.546 308.645 149.032 313.356 148.949C316.823 148.895 323.968 145.363 325.514 142.28C326.118 141.064 324.38 139.819 324.252 138.63C324.115 137.377 325.35 136.389 325.203 135.126C320.062 138.145 312.469 127.121 316.101 123.544C318.013 121.66 323.52 125.484 328.524 121.642C336.648 115.393 343.473 101.781 344.9 91.7264C345.183 89.7321 344.808 87.7561 345.11 85.8715C345.604 82.7336 348.211 69.6972 353.289 72.0209C358 74.1707 358.622 89.7778 359.519 94.471C361.403 104.379 370.378 123.389 382.262 123.572C384.75 123.609 388.803 121.312 388.611 126.015C388.492 129.052 385.491 130.836 383.058 131.815L383.076 131.833ZM403.321 150.148C397.777 149.16 392.371 149.37 386.936 147.266C386.936 148.026 388.547 148.401 389.159 148.62C393.551 150.157 398.308 150.23 402.919 150.569L401.272 155.527C402.809 154.868 404.803 151.374 403.33 150.148H403.321Z" fill="#1E7341"/>
<path d="M102.878 316.418C89.2015 315.037 80.3002 304.15 79.4311 290.821C78.2601 272.835 82.697 256.853 102.851 254.127L284.986 254.145C286.285 280.877 304.6 304.233 329.73 312.713L346.143 316.409H102.878V316.418ZM119.684 267.932H97.6455V296.036L100.61 295.972L101.378 295.212C101.396 294.993 100.948 294.801 100.948 294.663V271.518L101.771 270.695H115.549L116.372 271.518V294.663C116.372 294.801 115.924 294.993 115.942 295.212L116.711 295.972L119.675 296.036V267.932H119.684ZM171.336 275.232C162.306 276.751 161.538 292.312 169.149 295.34C186.202 302.119 188.434 272.36 171.336 275.232ZM129.052 275.644H125.749V296.036L128.677 295.926L138.978 280.602V296.026H142.28V275.635C140.826 275.717 139.344 275.214 138.154 276.193C136.197 277.812 132.043 287.162 129.866 289.943C129.701 290.153 129.573 290.373 129.335 290.51C127.643 290.647 129.07 289.915 129.07 289.687V275.635L129.052 275.644ZM162.114 275.644H145.583L145.647 277.51L146.489 278.324L152.197 278.398L152.27 295.13C152.691 296.402 154.429 296.017 155.5 296.036V278.407H162.114V275.653V275.644ZM187.455 275.644V296.036L190.758 295.212V280.337C190.758 279.779 189.33 279.184 191.306 279.514C191.993 282.039 195.634 295.368 197.189 295.953C197.793 296.182 198.598 296.054 199.256 296.081L205.642 280.063V296.045H208.945V275.653L204.078 275.745L198.47 291.635C197.692 291.571 197.601 290.83 197.354 290.281C195.405 286.027 194.335 280.246 192.917 275.717L187.455 275.662V275.644ZM217.764 275.644H214.461V296.036H217.764V286.668H227.68V296.036L230.983 295.212V275.653H227.68V283.914H217.764V275.653V275.644ZM236.499 275.644V296.036L240.076 295.478L249.728 280.602V296.026H253.03V275.635C252.061 275.717 250.926 275.452 249.993 275.635C247.66 276.074 242.007 289.065 239.253 291.068V276.467C239.253 276.348 240.076 275.845 239.802 275.644H236.499ZM261.85 275.653H257.989C259.059 281.993 258.574 289.028 258.227 295.496C258.794 296.328 261.026 296.328 261.603 295.496C261.877 295.102 260.267 286.219 262.115 286.128C267.247 288.022 266.899 297.079 272.864 296.026L268.144 287.811L265.161 285.286C269.159 283.932 267.512 277.346 272.324 278.407V275.644C265.692 274.263 266.982 282.185 262.682 284.49C260.377 284.49 261.209 277.163 261.85 275.653Z" fill="#1E7341"/>
<path d="M354.422 316.419L366.662 314.059C394.153 307.179 414.609 282.579 416.137 254.155L597.723 254.137C618.855 257.046 622.442 273.257 621.143 291.929C620.328 303.639 610.21 316.428 597.695 316.428H354.422V316.419ZM441.203 267.932C437.379 267.164 431.25 268.5 427.151 267.932V296.036H438.999C439.209 296.036 442.594 295.268 443.042 295.121C449.473 292.944 450.132 283.11 443.134 281.152C448.284 277.74 447.241 269.149 441.203 267.932ZM470.13 296.036C468.346 291.041 471.823 278.938 466.663 276.093C462.318 273.696 452.932 275.059 452.502 281.161L455.786 281.701C455.95 276.129 466.764 276.669 466.306 281.993C466.123 284.134 458.878 284.171 456.884 284.729C454.624 285.369 452.383 286.623 451.98 289.193C450.617 297.82 461.622 297.637 466.27 293.292L466.892 295.981L470.13 296.045V296.036ZM594.521 275.233C584.192 276.989 584.732 294.865 594.374 296.045C611.153 298.095 609.314 272.708 594.521 275.233ZM478.401 275.645H475.098V296.036H500.997V275.645H497.694V293.273L489.671 292.761C489.433 287.19 488.903 281.07 489.982 275.654H486.405L486.442 292.761L478.419 293.273V275.645H478.401ZM513.668 291.627C512.451 288.461 510.228 278.352 508.426 276.193C507.639 275.242 505.965 275.718 504.839 275.645L512.414 295.844C511.545 299.54 510.182 301.745 505.937 300.986C507.19 307.069 511.774 304.041 513.942 299.888C517.693 292.706 519.779 283.183 523.017 275.635L519.788 275.709C517.903 280.438 516.558 285.452 514.72 290.2C514.5 290.776 514.509 291.526 513.658 291.608L513.668 291.627ZM541.213 275.645H524.682V278.398H531.296V296.027C532.367 296.009 534.105 296.402 534.526 295.121L534.599 278.389L540.308 278.316L541.149 277.502L541.213 275.635V275.645ZM547.828 275.645H544.525V296.036L547.452 295.936L557.754 280.612V296.036H561.056V275.645C560.022 275.818 558.11 275.297 557.305 275.763C555.686 276.706 550.554 288.809 547.828 290.529V275.654V275.645ZM569.866 275.645H566.563V296.036H569.866V286.668H579.783V296.036L583.085 295.213V275.654H579.783V283.915H569.866V275.654V275.645Z" fill="#1E7341"/>
<path d="M408.497 198.981C407.582 197.554 409.632 184.371 410.592 182.221C411.992 179.084 417.197 177.281 418.222 172.213C418.524 170.704 418.012 169.029 418.625 167.657C419.237 166.285 426.456 160.082 428.075 158.921C450.049 143.194 478.647 148.903 494.309 170.228C494.41 170.896 487.365 176.934 486.139 178.407C472.883 194.352 474.512 215.951 487.768 231.293C466.223 251.401 432.274 246.809 415.606 223.023C423.464 219.647 430.783 218.403 435.659 210.581C437.205 208.102 440.105 203.638 435.668 202.952C431.698 202.339 426.456 202.888 422 202.293C417.417 201.68 412.888 200.381 408.506 198.981H408.497Z" fill="#1E7341"/>
<path d="M182.934 165.607C211.139 162.707 233.067 189.823 224.212 216.801C216.079 241.584 185.276 250.934 164.134 235.867C162.497 234.705 158.005 231.183 157.118 229.664C155.809 227.432 157.703 224.733 158.096 222.318C159.908 211.175 156.989 202.42 149.973 193.802C153.961 178.854 167.455 167.19 182.925 165.598L182.934 165.607Z" fill="#1E7341"/>
<path d="M512.998 165.607C530.572 163.951 544.862 172.221 552.711 187.774C537.699 197.261 533.939 216.838 543.728 231.567C522.156 251.995 486.999 241.667 479.771 212.84C474.173 190.5 490.091 167.775 512.998 165.616V165.607Z" fill="#1E7341"/>
<path d="M347.689 187.096C396.422 184.544 429.787 237.86 406.101 280.775C383.505 321.714 325.824 325.182 298.864 286.85C269.965 245.746 298.004 189.713 347.689 187.105V187.096ZM343.289 194.259C318.972 196.62 298.69 217.597 295.068 241.364C287.767 289.201 340.974 323.462 381.373 296.812C430.262 264.574 403.723 188.386 343.289 194.259Z" fill="#1E7341"/>
<path d="M563.682 185.432C607.805 180.145 607.558 246.425 565.192 242.573C531.782 239.536 531.8 189.256 563.682 185.432Z" fill="#1E7341"/>
<path d="M123.955 187.629C166.019 181.938 167.931 245.364 128.831 245.291C93.4727 245.227 91.1033 192.075 123.955 187.629Z" fill="#1E7341"/>
<path d="M290.942 222.646C282.91 224.513 277.677 223.085 272.325 216.947C271.145 215.593 266.626 209.573 266.104 208.247C265.372 206.344 266.635 205.42 268.163 204.551C271.886 202.428 273.441 204.295 277 204.551C291.217 205.585 298.252 198.037 307.299 188.587C309.321 189.932 307.116 192.658 307.821 194.076C308.736 195.915 312.962 194.515 312.532 196.555C303.494 203.48 295.388 211.961 290.942 222.628V222.646Z" fill="#1E7341"/>
<path d="M386.67 193.547C388.024 193.236 391.583 194.645 393.294 194.663C395.306 194.681 396.871 193.666 399.213 194.215C401.097 194.654 404.601 198.35 406.586 199.512C414.243 203.967 426.932 203.089 435.586 204.671L436.492 205.449C433.327 217.04 420.693 219.995 410.428 222.693C407.702 218.375 405.507 213.874 402.341 209.822C397.63 203.775 391.921 199.493 386.094 194.654L386.67 193.556V193.547Z" fill="#1E7341"/>
<path d="M192.972 251.953C193.255 250.306 192.34 245.375 193.511 244.497C194.051 244.085 198.964 243.143 200.428 242.594C206.621 240.261 211.845 236.84 216.931 232.668C225.119 238.157 233.225 242.832 243.05 244.854L243.123 251.944H192.981L192.972 251.953ZM195.176 250.306H240.909L241.449 246.473C232.731 244.36 224.341 240.645 217.407 234.918C210.738 239.904 203.492 244.167 195.231 245.951L195.176 250.306Z" fill="#1E7341"/>
<path d="M181.4 244.239V251.951H134.012L134.039 245.913C143.416 244.623 150.579 237.881 155.785 230.471C162.582 237.89 171.392 242.72 181.409 244.239H181.4ZM135.668 250.304H179.196L179.122 245.419C169.992 243.727 162.234 238.86 155.51 232.675C152.848 238.421 147.533 242.62 141.925 245.273C139.052 246.627 134.707 246.489 135.668 250.314V250.304Z" fill="#1E7341"/>
<path d="M284.986 251.95H254.678L254.705 245.363C267.888 244.439 279.726 238.776 288.838 229.354C286.157 236.553 284.657 244.247 284.986 251.941V251.95ZM256.892 250.303H281.967C283.239 248.172 283.056 244.622 283.504 241.923C283.843 239.883 284.474 237.962 284.986 235.977C276.789 242.006 267.165 246.141 256.892 247.001V250.303Z" fill="#1E7341"/>
<path d="M416.135 251.949C416.382 245.738 415.796 239.489 413.903 233.534C417.443 232.052 415.604 222.839 411.176 224.943C410.728 223.269 413.125 223.69 414.122 223.251C421.377 234.494 434.239 243.021 447.532 244.786V251.949H416.126H416.135ZM418.34 250.303H445.894L445.84 246.497C435.648 244.457 426.866 238.831 419.145 232.116C418.376 231.448 418.019 228.95 417.269 231.302C415.549 236.662 416.931 237.779 417.727 242.92C417.891 243.972 418.056 249.992 418.34 250.294V250.303Z" fill="#1E7341"/>
<path d="M512.561 243.69V251.951H458.559L458.623 245.401C469.866 244.184 480.496 240.104 488.666 232.154C495.609 238.082 503.386 242.382 512.561 243.69ZM460.214 250.854H510.082C511.592 249.445 510.768 246.783 510.851 244.843C502.654 243.498 495.701 239.08 489.059 234.432C487.742 234.304 484.448 237.698 482.976 238.622C476.023 243.013 468.466 245.685 460.242 246.471L460.214 250.854Z" fill="#1E7341"/>
<path d="M562.153 251.951H523.584V243.132C531.598 242.19 539.026 238.201 544.799 232.676C549.446 238.284 555.585 241.193 562.153 243.965V251.951ZM525.231 250.854H561.047L560.79 244.77C554.954 242.712 549.364 239.546 545.302 234.844C543.976 234.725 540.893 237.918 539.401 238.851C535.193 241.504 530.235 243.718 525.249 244.258L525.222 250.844L525.231 250.854Z" fill="#1E7341"/>
<path d="M571.521 244.236V251.948L564.34 252.259C563.178 251.427 564.083 245.874 563.8 244.236H571.512H571.521Z" fill="#1E7341"/>
<path d="M521.929 244.236H514.217V251.948H521.929V244.236Z" fill="#1E7341"/>
<path d="M190.774 244.787H183.602V251.959H190.774V244.787Z" fill="#1E7341"/>
<path d="M253.032 245.346H245.32V251.96H253.032V245.346Z" fill="#1E7341"/>
<path d="M457.458 251.95H449.745L449.736 245.336L456.945 245.583L457.458 251.95Z" fill="#1E7341"/>
<path d="M124.094 251.95L124.176 246.799L125.466 245.875L131.806 246.442V251.95H124.094Z" fill="#1E7341"/>
<path d="M409.523 181.975L407.053 198.497L400.21 193.209C400.009 192.358 401.921 190.565 401.811 188.9C401.692 187.006 399.716 186.448 399.615 184.728L409.532 181.975H409.523ZM407.867 183.63L401.262 185.286C402.744 188.077 402.735 190.089 401.5 193.008L405.955 196.292L407.867 183.63Z" fill="#1E7341"/>
<path d="M307.582 186.384L300.427 192.989L297.674 181.965C300.583 184.124 303.693 186.85 307.591 186.374L307.582 186.384ZM300.967 190.235L304.261 187.756L300.418 185.835L300.967 190.235Z" fill="#1E7341"/>
<path d="M414.481 231.558C412.908 231.86 413.594 231.137 413.237 230.36C412.953 229.747 411.462 226.307 411.737 226.06C414.829 225.731 414.582 229.381 414.49 231.567L414.481 231.558Z" fill="#1E7341"/>
<path d="M171.866 277.967C181.984 275.616 181.984 293.465 173.906 293.794C165.718 294.123 165.435 279.458 171.866 277.967Z" fill="#1E7341"/>
<path d="M440.652 282.808C444.183 283.43 445.483 288.617 443.159 291.216C442.884 291.527 440.799 292.725 440.652 292.725H430.461V282.808C433.544 283.183 437.734 282.287 440.652 282.808Z" fill="#1E7341"/>
<path d="M430.461 279.505V270.686H438.447C441.777 270.686 444.33 274.052 442.848 277.291C442.619 277.794 440.451 279.505 440.103 279.505H430.461Z" fill="#1E7341"/>
<path d="M466.27 285.568C468.108 291.295 458.878 297.031 455.868 292.393C452.181 286.73 463.26 286.611 466.27 285.568Z" fill="#1E7341"/>
<path d="M595.071 277.978C606.214 275.71 604.576 297.254 594.449 293.229C588.466 290.85 589.152 279.186 595.071 277.978Z" fill="#1E7341"/>
<path d="M344.946 195.917C388.053 192.066 418.554 236.975 398.052 275.471C378.218 312.705 324.426 313.391 303.449 276.761C284.137 243.031 306.266 199.366 344.955 195.917H344.946ZM347.8 202.916C344.452 202.522 347.928 209.557 348.907 208.423L347.8 202.916ZM352.758 205.669C351.487 205.395 351.88 205.834 351.523 206.374C349.831 208.981 350.343 214.013 351.935 216.675C352.877 216.666 354.524 207.289 352.749 205.669H352.758ZM356.628 209.53C355.915 209.246 355.357 208.487 354.698 209.53C353.435 211.506 353.088 222.557 353.298 225.265C353.371 226.235 353.188 227.067 354.158 227.708C355.311 227.891 355.311 224.881 355.448 224.058C355.832 221.743 355.521 218.806 355.768 216.949C355.86 216.263 356.939 215.495 357.15 214.177C357.452 212.265 356.793 211.131 356.619 209.53C356.976 209.676 358.842 210.792 358.87 210.985C359.135 212.586 355.073 216.739 361.019 215.037L361.651 217.718L363.773 217.791C363.874 216.84 363.819 215.97 363.471 215.065C363.16 214.241 357.534 206.273 356.61 207.325C356.656 208.048 356.528 208.807 356.61 209.53H356.628ZM347.809 216.135C347.681 215.934 347.022 215.577 346.592 214.9C345.431 213.052 345.797 210.006 343.409 210.628C342.979 214.122 345.092 217.745 346.785 220.746C347.178 221.441 348.221 221.697 348.797 222.594C349.868 224.241 350.526 227.69 351.651 229.666C352.081 230.416 352.109 231.267 353.326 231.02C353.746 230.516 352.328 224.863 351.935 223.875C350.892 221.222 349.163 219.483 347.818 216.144L350.846 220.545C351.688 219.923 351.679 219.73 351.56 218.752C351.35 216.986 348.184 207.398 345.897 207.883C345.092 208.057 345.165 208.871 345.293 209.557C345.55 210.939 347.169 214.525 347.818 216.144L347.809 216.135ZM344.497 218.889C344.937 218.459 343.317 214.004 341.744 214.488L341.771 218.276L344.488 218.889H344.497ZM355.686 227.863C354.991 228.851 354.314 233.243 354.378 234.606C354.414 235.502 354.652 237.927 355.796 236.527C356.756 235.347 356.793 232.941 357.333 231.449C358.202 229.043 358.751 227.159 359.519 224.826C359.876 223.747 360.965 222.859 361.303 221.652C362.017 219.117 360.361 214.452 357.141 217.05C358.43 219.868 355.832 223.143 356.07 225.21C356.171 226.116 357.168 226.784 357.159 226.884C357.159 227.25 355.933 227.507 355.686 227.863ZM341.195 216.684H339.557L338.999 222.191L341.113 221.286L341.195 216.684ZM344.488 219.456L341.744 220.279C341.671 220.636 343.5 224.607 343.921 225.101C345.147 226.546 348.111 225.338 347.8 224.122C347.58 223.253 343.381 223.225 346.711 221.917L346.153 220.526L344.507 221.084L344.488 219.447V219.456ZM367.085 219.996C363.398 219.84 367.313 226.262 368.741 224.954L367.085 219.996ZM364.816 222.274C364.349 221.981 362.575 222.1 362.099 222.438L360.489 225.777C360.489 226.994 365.52 227.241 365.429 224.186C365.42 223.829 364.981 222.383 364.816 222.274ZM339.548 228.257C339.749 228.046 338.725 222.969 337.901 222.749C337.746 224.405 336.941 226.226 337.407 227.918C337.719 229.034 339.365 228.458 339.548 228.257ZM346.153 233.773C344.809 232.95 343.034 231.724 341.543 232.181L340.71 233.407L342.293 235.969C339.813 235.868 340.481 231.825 337.892 231.02C338.67 233.005 339.557 238.411 342.101 238.668C343.628 238.814 343.134 237.323 342.851 236.536C343.089 236.28 348.129 241.211 348.907 238.457C349.428 236.618 347.004 236.28 346.437 235.411C346.025 234.789 346.263 233.938 346.153 233.782C348.303 235.1 349.648 236.856 351.112 239.024L348.907 239.582C348.806 240.323 349.163 240.872 349.456 241.494L342.851 240.662C344.305 241.586 344.626 243.406 345.586 244.541C345.851 244.852 348.44 247.45 348.633 247.541C349.675 248.035 350.416 247.413 349.941 246.242C349.364 244.815 346.19 244.422 346.968 242.601C347.965 243.635 349.438 244.157 350.27 245.382C351.176 246.727 350.279 249.289 352.475 248.658C355.329 247.834 349.941 242.528 349.447 241.504C351.304 241.76 352.639 244.275 353.316 245.913L354.405 245.062L351.624 240.15C357.424 235.886 349.758 231.175 349.401 226.116L346.117 226.921L351.084 235.438C347.608 232.502 346.263 227.214 341.433 226.116L340.701 227.36C341.707 230.507 344.47 231.267 346.135 233.791L346.153 233.773ZM365.438 239.829C370.47 241.211 370.644 227.58 369.317 226.326L365.502 226.125L364.88 228.257L368.173 227.159V228.806C365.996 228.577 364.551 229.711 363.233 231.285C365.85 233.709 367.03 231.001 368.731 229.355L367.634 234.862C365.749 233.654 364.706 232.273 362.126 233.48C361.577 233.737 355.823 242.693 357.442 244.221L362.41 238.164L362.675 239.39C364.349 241.101 364.532 238.036 365.987 237.615L365.447 239.811L365.438 239.829ZM363.535 227.232C362.63 227.754 361.358 227.561 360.498 227.991C359.089 228.696 356.262 237.195 355.704 239.171C355.411 240.204 354.597 241.266 355.805 242.016L364.295 228.467L363.535 227.232ZM332.376 248.648C334.873 249.929 337.188 251.969 340.088 251.951L337.334 249.472L339.539 249.746L337.343 245.895C339.182 245.629 339.255 249.133 340.362 248.648C343.519 247.249 337.801 243.983 337.883 242.592C336.246 242.318 336.584 243.919 335.971 244.788C335.047 244.477 333.922 242.629 333.336 242.4C332.55 242.107 331.598 242.565 330.994 242.08C329.558 240.945 329.677 238.411 326.329 239.28C327.07 239.921 328.177 242.025 328.68 242.428C329.421 243.004 330.528 242.867 331.241 243.452C332.403 244.413 333.73 246.316 335.139 247.267L331.287 245.337C330.4 247.258 331.681 247.276 332.385 248.639C330.656 247.752 326.503 246.123 325.432 244.797C324.545 243.708 325.496 241.403 323.731 240.36L316.128 240.909C314.29 240.964 313.558 245.629 315.049 245.886C318.159 243.589 321.535 248.831 325.231 248.081L319.166 243.681C320.465 242.702 326.951 248.301 328.387 249.06C329.458 249.627 333.776 251.311 332.394 248.63L332.376 248.648ZM330.876 240.781C331.626 241.403 332.358 241.302 333.218 241.467C334.151 241.641 336.648 242.162 337.334 241.211C336.493 240.113 330.784 238.841 330.18 239.29C330.372 239.683 330.647 240.598 330.885 240.79L330.876 240.781ZM363.242 242.583C364.048 237.25 358.092 242.391 358.284 245.337L361.029 244.504C360.452 245.062 356.811 247.423 357.726 248.639L359.373 247.541L359.089 249.197C359.519 249.984 360.443 249.417 360.873 249.023C361.678 248.273 366.545 241.824 366.527 241.202C366.518 240.827 365.575 240.159 365.054 240.79L363.242 242.583ZM326.622 242.592C323.511 243.397 330.153 247.816 330.72 245.611C331.159 243.928 327.683 242.318 326.622 242.592ZM321.91 248.109L316.403 246.453L316.723 248.154C317.775 248.584 318.836 248.658 319.962 248.685C320.574 248.703 322.047 249.033 321.901 248.118L321.91 248.109ZM347.809 252.5C348.139 250.56 346.007 249.874 344.744 248.667C344.287 248.228 343.93 246.901 343.674 246.993C342.393 247.459 343.052 248.182 343.4 248.914C344.369 250.963 345.458 252.052 347.8 252.5H347.809ZM356.07 248.648L353.042 250.844L353.316 249.197H351.67C352.822 252.573 350.444 255.235 350.572 258.556C353.069 255.766 356.601 252.783 356.07 248.639V248.648ZM316.952 249.755C317.153 251.155 322.239 252.436 322.459 251.118C322.816 249.014 317.912 249.426 316.952 249.755ZM330.729 251.402C330.317 249.536 323.017 248.356 323.026 250.03C325.103 251.42 328.341 251.329 330.729 251.402ZM336.785 253.049L335.861 251.457L331.278 251.951C331.507 254.897 335.011 253.159 336.785 253.049ZM364.77 254.064C367.231 252.463 361.678 251.247 361.029 251.96C359.94 253.159 362.401 252.82 362.126 253.598C360.059 254.695 359.528 253.561 357.726 253.058C357.058 257.138 364.413 258.373 365.438 254.714C364.944 254.275 361.44 256.278 361.038 254.714C361.934 254.412 364.176 254.448 364.779 254.055L364.77 254.064ZM330.72 254.156L329.805 252.601L322.459 251.96C321.681 256.543 327.857 254.101 330.72 254.156ZM370.396 254.156C370.808 254 371.421 253.14 372.601 253.607C373.544 249.6 367.35 253.881 367.094 253.607L365.987 251.951L366.545 255.254C366.719 255.409 369.802 254.375 370.396 254.147C370.323 254.174 370.021 254.961 369.509 255.162C367.451 256.013 364.972 256.315 364.889 259.096C368.192 258.016 369.381 260.816 371.805 261.273C377.514 262.362 383.515 260.962 389.334 261.831C390.001 261.959 389.571 262.792 389.681 262.956C389.379 262.481 380.551 261.694 379.216 262.408C379.801 264.164 389.306 264.997 389.69 264.603V262.956C389.937 263.341 391.429 265.152 391.886 264.603C392.728 260.889 389.745 261.374 388.465 259.206L380.862 259.636L381.969 257.724C381.75 256.662 377.532 256.479 376.462 256.891L377.011 259.636L372.043 260.185C373.187 258.19 376.315 261.227 375.895 257.44C373.845 257.23 371.723 257.614 369.701 257.632C368.978 257.632 368.484 258.117 368.183 256.891C369.784 256.635 377.514 256.699 377.541 254.961C377.139 253.872 370.735 254.009 370.387 254.137L370.396 254.156ZM342.302 253.058C340.664 252.235 328.094 254.714 330.729 257.458L332.925 256.909L332.367 259.379C332.412 260.468 336.429 259.096 333.483 256.36L335.688 255.802L335.431 258.026L336.822 258.876L343.409 255.244L343.134 254.147L340.115 254.695L342.32 253.058H342.302ZM330.171 255.263C329.613 255.116 325.094 255.235 325.771 256.626C327.289 258.199 330.702 257.934 330.171 255.263ZM346.702 262.426C347.663 261.31 350.307 258.858 347.26 258.565L346.153 260.77C346.336 257.989 345.751 257.678 348.349 256.086C346.345 255.162 342.585 257.486 343.939 259.663L341.451 259.114L341.186 261.868C341.863 262.499 346.016 259.48 344.488 261.593L338.99 263.249C341.707 265.417 344.25 263.643 346.693 262.426C345.732 263.542 345.11 264.493 343.656 265.18L344.223 266.286C345.943 266.707 349.657 262.362 348.889 261.328C348.23 261.914 347.407 262.069 346.693 262.426H346.702ZM355.796 256.37C353.143 257.833 358.229 264.557 359.098 264.612C361.276 264.759 357.223 261.108 357.031 260.633C356.418 259.114 357.076 257.486 355.787 256.37H355.796ZM326.32 259.663C328.332 260.386 330.263 260.624 331.818 258.849C331.873 257.66 327.866 258.465 327.152 258.593C326.265 258.757 326.192 258.218 326.32 259.663ZM357.726 258.016C357.25 260.459 358.568 261.511 360.205 262.966C361.651 261.914 360.525 262.023 360.242 261.291C360.095 260.907 358.595 256.964 357.726 258.016ZM353.865 263.524C352.978 262.883 352.493 261.959 351.67 263.249L354.689 267.924C356.262 266.909 354.469 264.914 353.865 263.524C355.311 264.557 356.976 269.232 358.275 267.933C358.934 267.274 355.357 260.88 354.433 259.928C353.92 259.398 352.612 257.833 352.219 259.398C351.871 260.788 353.271 262.151 353.865 263.524ZM361.486 259.242C361.147 259.05 360.013 258.867 359.931 259.398C361.532 260.148 363.471 268.445 365.438 266.835C365.694 266.625 365.767 265.509 365.484 264.914C365.273 264.475 361.788 259.416 361.486 259.242ZM368.192 266.835C367.725 266.726 367.158 265.957 366.508 266.515L365.978 268.482C364.907 268.665 364.441 267.65 363.59 267.275C360.763 266.039 363.48 270.357 365.676 270.156C367.149 270.019 368.292 268.226 368.183 266.826C370.68 267.412 372.18 269.973 374.019 271.803L376.407 271.199L375.895 268.482C376.169 268.619 377.047 268.308 377.505 268.51L377.551 271.245C380.451 270.275 383.872 272.398 386.36 270.412C384.924 269.955 383.012 269.369 381.539 269.15C380.78 269.04 379.819 269.662 379.755 269.598C379.655 269.498 379.801 268.07 378.694 267.064C378.346 266.753 373.644 263.624 373.333 263.597C372.318 263.515 371.814 264.484 372.098 265.399C372.171 265.637 375.565 268.327 375.895 268.491C373.47 269.626 374.605 268.253 373.452 267.366C371.632 265.966 371.897 267.265 370.387 264.631C370.726 264.695 371.101 264.686 371.43 264.585L371.805 262.417L367.35 259.681C365.328 261.108 369.82 263.039 370.259 263.661C370.525 264.036 370.314 264.503 370.378 264.621C367.405 264.091 365.612 258.52 362.117 259.114C363.407 260.523 364.24 262.344 365.42 263.789C366.353 264.933 368.027 264.814 368.173 266.817L368.192 266.835ZM385.821 267.942C381.192 265.811 378.127 261.914 372.601 261.877C375.483 263.826 382.198 269.507 385.546 269.04L385.821 267.942ZM354.972 270.138C353.298 268.052 353.033 264.933 350.563 264.082L352.841 273.925L355.521 273.999C355.64 272.672 355.046 271.446 354.972 270.147C356.034 271.464 356.39 272.27 358.202 271.163L358.302 269.397L354.972 268.491C354.972 269.04 354.936 269.598 354.972 270.147V270.138ZM388.035 265.738L381.978 264.631L386.735 267.869L388.035 265.738ZM337.892 267.924C340.372 270.467 346.336 264.914 341.049 265.838C340.683 265.902 336.996 267 337.892 267.924ZM350.005 265.728C348.431 265.39 348.889 266.506 348.88 267.677C348.88 269.186 349.566 276.844 350.051 277.53C350.673 278.417 352.027 278.719 353.033 278.957L353.316 276.743L356.619 277.841V274.538C356.198 274.053 352.694 276.853 351.716 274.09C350.837 271.611 350.947 268.345 350.005 265.719V265.728ZM394.64 266.286C393.642 265.234 392.508 267.65 392.014 267.924C390.495 268.775 388.016 268.747 386.379 269.315C387.824 271.785 396.478 268.235 394.64 266.286ZM345.604 266.835L341.058 269.049C340.481 270.916 333.062 272.27 333.492 274.264C334.407 275.471 336.108 275.316 337.334 274.813C337.737 273.569 346.839 268.025 345.604 266.835ZM347.809 266.835C347.041 265.966 344.626 270.229 344.086 270.696C342.32 272.215 339.319 272.974 337.901 275.38C338.999 278.527 341.268 275.801 342.851 274.547C343.445 275.179 336.776 281.043 339.832 281.711C340.783 281.912 345.12 275.792 344.534 274.337L343.4 273.724C344.397 272.882 348.742 267.897 347.8 266.835H347.809ZM338.99 270.129C338.944 267.174 333.657 267.732 335.386 270.156L336.035 270.641L338.981 270.129H338.99ZM347.535 270.147C346.821 270.659 346.574 271.336 346.364 272.151C345.787 274.337 346.437 279.817 346.062 282.552C345.751 284.821 342.86 288.554 348.642 286.678L349.346 278.253L347.526 270.147H347.535ZM356.802 280.219C356.967 279.972 357.735 279.844 358.147 279.122C358.97 277.685 359.821 274.822 359.3 273.239L356.628 272.343C356.235 272.672 360.114 282.013 354.423 277.85V283.357C356.244 283.513 356.043 281.39 356.802 280.219ZM343.82 291.49C345.138 289.597 343.784 286.468 343.949 284.784C344.132 282.863 345.98 280.009 345.046 277.301C341.579 281.134 341.607 287.236 341.753 292.176C341.954 292.387 343.619 291.792 343.83 291.49H343.82ZM330.729 283.366C332.541 282.452 333.135 279.259 331.543 277.859C330.208 277.594 330.766 278.93 330.729 279.78C330.674 280.97 330.757 282.177 330.729 283.366ZM336.785 281.162C337.005 280.677 337.032 280.009 337.334 279.524C336.236 279.597 334.517 277.649 333.739 278.939L333.474 281.162C334.562 281.107 335.697 281.262 336.785 281.162C336.291 282.25 331.845 288.334 332.376 288.874C334.947 287.849 335.889 285.525 338.432 283.915C337.975 286.66 333.355 288.087 333.492 291.307C336.401 292.387 334.187 294.893 331.809 294.948C333.483 299.358 337.106 294.335 335.935 291.106C336.913 290.1 341.094 283.339 340.628 282.827C339.667 282.671 339.164 283.458 338.423 283.925C338.588 282.937 338.313 281.665 338.423 280.622C337.856 280.787 337.398 281.116 336.776 281.171L336.785 281.162ZM350.718 283.202C353.179 285.443 354.808 280.741 353.335 279.762L350.014 278.957L351.661 281.436L350.005 281.711C349.932 281.747 350.563 283.055 350.718 283.193V283.202ZM341.195 285.571C339.951 285.306 339.969 286.202 339.53 286.934C338.725 288.279 336.566 292.46 338.78 293.219L340.619 293.256L341.195 285.571ZM332.376 292.725C333.044 290.155 331.534 288.755 332.111 286.12C329.293 286.358 330.921 294.39 332.376 292.725ZM351.661 286.669C349.794 285.946 348.907 287.996 347.956 288.252C346.144 288.737 344.168 286.385 345.312 291.637L347.269 291.893L351.661 286.669ZM336.795 298.242C340.317 298.132 342.933 294.985 345.595 293.009C344.47 291.316 342.668 293.32 341.231 293.594L336.795 298.242Z" fill="#1E7341"/>
</svg>
