<svg width="700" height="428" viewBox="0 0 700 428" fill="none" xmlns="http://www.w3.org/2000/svg">
<path d="M502.923 187.792C502.923 185.352 502.63 183.058 501.947 180.813C501.313 178.568 500.288 176.567 498.921 174.811C497.555 173.054 495.749 171.638 493.553 170.516C491.357 169.442 488.722 168.906 485.501 168.906C482.28 168.906 479.791 169.442 477.595 170.467C475.35 171.492 473.495 172.907 472.08 174.664C470.616 176.47 469.445 178.52 468.664 180.764C467.834 183.009 467.297 185.401 467.053 187.841H502.923V187.792ZM442.75 197.113C442.75 189.207 443.921 182.326 446.41 176.323C448.85 170.321 451.974 165.343 455.927 161.341C459.88 157.339 464.369 154.314 469.445 152.264C474.52 150.214 479.742 149.189 485.11 149.189C498.336 149.189 508.438 153.094 515.27 160.902C522.151 168.759 525.567 180.179 525.567 195.161C525.567 210.143 525.567 198.284 525.47 199.944C525.372 201.603 525.323 202.921 525.177 203.946H466.956C466.956 209.851 469.396 214.389 474.179 217.805C479.01 221.173 485.257 222.881 492.919 222.881C500.581 222.881 502.093 222.393 506.388 221.319C510.634 220.343 514.245 219.269 517.173 218.293L520.394 238.351C516.295 239.718 512 240.938 507.413 241.865C502.825 242.841 497.701 243.28 491.943 243.28C486.184 243.28 477.497 242.304 471.397 240.303C465.345 238.351 460.221 235.423 455.927 231.519C451.681 227.615 448.411 222.832 446.068 217.122C443.824 211.412 442.652 204.775 442.652 197.113H442.75Z" fill="black"/>
<path d="M98.985 280.858C98.009 280.858 96.9841 280.858 96.0569 280.858C95.0808 280.858 94.3976 280.956 93.9584 280.956V295.743H97.9602C100.888 295.743 103.084 295.157 104.548 293.986C105.964 292.815 106.696 290.863 106.696 288.13C106.696 283.298 104.109 280.809 98.985 280.809V280.858ZM98.6434 276.71C100.791 276.71 102.743 277.003 104.353 277.54C105.964 278.076 107.33 278.857 108.453 279.833C109.526 280.809 110.356 282.029 110.893 283.396C111.43 284.762 111.722 286.324 111.722 288.032C111.722 291.839 110.6 294.767 108.355 296.816C106.11 298.915 102.743 299.94 98.3018 299.94H94.056V313.556H89.1758V277.588C89.859 277.442 90.6886 277.296 91.4695 277.149C92.2991 277.052 93.1776 276.905 94.0072 276.856C94.8368 276.759 95.6665 276.759 96.4473 276.71C97.2769 276.71 98.009 276.71 98.6922 276.71H98.6434Z" fill="black"/>
<path d="M138.127 310.09C139.347 310.09 140.42 310.09 141.396 309.993C142.373 309.895 143.153 309.798 143.788 309.7V301.55C143.153 301.355 142.421 301.208 141.543 301.111C140.664 301.013 139.737 300.916 138.712 300.916C137.687 300.916 136.907 300.916 136.077 301.111C135.199 301.208 134.467 301.501 133.783 301.843C133.149 302.184 132.563 302.672 132.124 303.209C131.685 303.746 131.49 304.478 131.49 305.357C131.49 307.113 132.124 308.334 133.295 309.066C134.515 309.798 136.126 310.139 138.176 310.139L138.127 310.09ZM137.688 285.543C139.737 285.543 141.445 285.836 142.861 286.324C144.227 286.861 145.349 287.544 146.228 288.422C147.106 289.349 147.741 290.423 148.082 291.741C148.424 293.058 148.619 294.474 148.619 295.987V313.116C147.448 313.311 145.984 313.555 144.129 313.799C142.226 314.092 140.372 314.239 138.42 314.239C136.467 314.239 135.443 314.141 134.027 313.848C132.612 313.555 131.392 313.165 130.27 312.482C129.147 311.847 128.269 310.92 127.634 309.798C127 308.626 126.658 307.211 126.658 305.405C126.658 303.6 127 302.526 127.683 301.404C128.366 300.33 129.245 299.452 130.318 298.768C131.392 298.134 132.612 297.597 134.027 297.304C135.443 297.011 136.858 296.865 138.224 296.865C139.591 296.865 142.031 297.109 143.934 297.499V296.133C143.934 295.303 143.837 294.523 143.641 293.742C143.446 292.961 143.153 292.278 142.665 291.643C142.177 291.009 141.494 290.521 140.664 290.13C139.835 289.74 138.761 289.545 137.395 289.545C136.028 289.545 134.223 289.642 132.954 289.886C131.685 290.13 130.709 290.374 130.074 290.618L129.489 286.568C130.123 286.275 131.246 285.982 132.856 285.738C134.32 285.641 135.979 285.445 137.736 285.445L137.688 285.543Z" fill="black"/>
<path d="M167.748 313.555V287.69C171.75 286.324 175.8 285.592 179.9 285.592C183.999 285.592 182.34 285.592 183.462 285.738C184.634 285.836 185.854 286.031 187.22 286.373L186.342 290.667C185.073 290.326 183.95 290.082 182.974 289.984C181.998 289.886 180.973 289.838 179.802 289.838C177.362 289.838 174.971 290.179 172.482 290.814V313.507H167.699L167.748 313.555Z" fill="black"/>
<path d="M213.77 298.524C214.844 299.354 216.015 300.281 217.382 301.501C218.748 302.721 220.017 303.99 221.383 305.357C222.701 306.723 223.97 308.187 225.092 309.602C226.264 311.067 227.191 312.384 227.923 313.604H222.164C221.432 312.384 220.505 311.164 219.382 309.895C218.26 308.626 217.138 307.406 215.869 306.186C214.6 304.966 213.429 303.941 212.16 302.965C210.94 301.989 209.817 301.16 208.792 300.476V313.604H203.961V273.586L208.841 272.757V297.695C210.988 295.791 213.136 293.937 215.332 292.034C217.479 290.13 219.431 288.227 221.188 286.226H226.898C225.19 288.227 223.189 290.326 220.798 292.424C218.358 294.571 216.015 296.621 213.721 298.573L213.77 298.524Z" fill="black"/>
<path d="M258.813 306.723C258.813 305.747 258.374 304.966 257.593 304.283C256.764 303.649 255.788 303.112 254.616 302.624C253.445 302.185 252.128 301.697 250.712 301.257C249.297 300.818 247.979 300.281 246.808 299.549C245.637 298.915 244.612 298.036 243.831 297.109C243.05 296.182 242.66 294.864 242.66 293.254C242.66 291.643 243.538 289.203 245.344 287.739C247.101 286.275 249.931 285.543 253.738 285.543C257.545 285.543 256.764 285.641 258.374 285.836C259.936 286.08 261.351 286.324 262.474 286.665L261.595 291.058C261.302 290.911 260.863 290.716 260.278 290.57C259.692 290.423 259.106 290.228 258.374 290.13C257.691 290.033 256.91 289.886 256.129 289.838C255.3 289.74 254.568 289.74 253.836 289.74C249.59 289.74 247.443 290.911 247.443 293.205C247.443 295.499 247.833 294.767 248.663 295.303C249.492 295.889 250.468 296.377 251.688 296.865C252.908 297.304 254.226 297.841 255.641 298.329C257.057 298.817 258.374 299.403 259.594 300.135C260.814 300.818 261.839 301.697 262.62 302.721C263.45 303.697 263.84 304.966 263.84 306.528C263.84 309.017 262.864 310.92 260.961 312.287C259.057 313.653 255.983 314.336 251.786 314.336C247.589 314.336 248.175 314.19 246.613 313.848C245.051 313.555 243.538 313.019 242.172 312.482L243.148 308.041C244.514 308.675 245.978 309.212 247.491 309.602C249.004 310.042 250.663 310.237 252.323 310.237C256.617 310.139 258.862 309.066 258.862 306.821L258.813 306.723Z" fill="black"/>
<path d="M354.759 295.547H359.591V312.677C358.859 312.97 357.687 313.311 356.028 313.702C354.369 314.092 352.466 314.336 350.172 314.336C347.878 314.336 345.975 313.897 344.169 313.067C342.364 312.238 340.802 310.969 339.533 309.358C338.264 307.748 337.288 305.747 336.556 303.356C335.824 300.964 335.482 298.28 335.482 295.255C335.482 292.229 335.873 289.496 336.654 287.105C337.483 284.762 338.557 282.761 339.875 281.151C341.192 279.54 342.803 278.32 344.608 277.442C346.414 276.563 348.366 276.173 350.465 276.173C352.563 276.173 352.954 276.27 353.978 276.466C354.955 276.661 355.882 276.905 356.614 277.149C357.346 277.442 357.98 277.735 358.419 277.979C358.859 278.223 359.249 278.467 359.444 278.662L357.883 282.761C356.955 282.078 355.931 281.492 354.711 281.053C353.49 280.614 352.173 280.37 350.806 280.37C349.44 280.37 347.927 280.711 346.658 281.443C345.389 282.127 344.267 283.152 343.388 284.42C342.461 285.689 341.778 287.251 341.29 289.105C340.802 290.96 340.509 292.961 340.509 295.206C340.509 297.451 340.753 299.403 341.192 301.257C341.632 303.063 342.315 304.625 343.144 305.893C344.023 307.211 345.048 308.187 346.365 308.919C347.634 309.651 349.098 309.993 350.758 309.993C352.417 309.993 352.758 309.895 353.393 309.749C354.027 309.602 354.515 309.456 354.808 309.31L354.711 295.499L354.759 295.547Z" fill="black"/>
<path d="M386.092 310.09C387.312 310.09 388.385 310.09 389.361 309.993C390.337 309.895 391.118 309.798 391.753 309.7V301.55C391.118 301.355 390.386 301.208 389.508 301.111C388.629 301.013 387.653 300.916 386.677 300.916C385.701 300.916 384.871 300.916 384.042 301.111C383.163 301.208 382.431 301.501 381.748 301.843C381.114 302.184 380.528 302.672 380.089 303.209C379.65 303.746 379.454 304.478 379.454 305.357C379.454 307.113 380.089 308.334 381.26 309.066C382.48 309.798 384.091 310.139 386.14 310.139L386.092 310.09ZM385.604 285.543C387.653 285.543 389.361 285.836 390.777 286.324C392.143 286.861 393.265 287.544 394.144 288.422C394.974 289.349 395.608 290.423 395.95 291.741C396.291 293.058 396.486 294.474 396.486 295.987V313.116C395.315 313.311 393.851 313.555 391.997 313.799C390.093 314.092 388.239 314.239 386.287 314.239C384.335 314.239 383.31 314.141 381.943 313.848C380.528 313.555 379.259 313.165 378.186 312.482C377.112 311.799 376.185 310.92 375.55 309.798C374.867 308.626 374.574 307.211 374.574 305.405C374.574 303.6 374.916 302.526 375.599 301.404C376.282 300.33 377.161 299.452 378.234 298.768C379.308 298.134 380.528 297.597 381.943 297.304C383.359 297.011 384.774 296.865 386.189 296.865C387.604 296.865 389.996 297.109 391.85 297.499V296.133C391.85 295.303 391.753 294.523 391.557 293.742C391.362 292.961 391.021 292.278 390.581 291.643C390.093 291.009 389.41 290.521 388.58 290.13C387.751 289.74 386.677 289.545 385.311 289.545C383.944 289.545 382.139 289.642 380.87 289.886C379.601 290.13 378.625 290.374 377.99 290.618L377.405 286.568C378.039 286.275 379.162 285.982 380.772 285.738C382.285 285.641 383.944 285.445 385.701 285.445L385.604 285.543Z" fill="black"/>
<path d="M414.932 313.555V287.69C418.933 286.324 422.984 285.592 427.083 285.592C431.183 285.592 429.523 285.592 430.646 285.738C431.817 285.836 433.086 286.031 434.404 286.373L433.525 290.667C432.256 290.326 431.134 290.082 430.158 289.984C429.182 289.886 428.157 289.838 426.986 289.838C424.594 289.838 422.154 290.179 419.665 290.814V313.507H414.883L414.932 313.555Z" fill="black"/>
<path d="M463.147 291.985C462.561 291.497 461.78 291.009 460.707 290.521C459.633 290.082 458.559 289.838 457.388 289.838C456.217 289.838 454.948 290.13 454.021 290.618C453.093 291.106 452.313 291.79 451.776 292.717C451.141 293.595 450.751 294.669 450.458 295.889C450.165 297.109 450.019 298.476 450.019 299.891C450.019 303.063 450.751 305.552 452.264 307.26C453.777 308.968 455.729 309.846 458.12 309.846C460.511 309.846 460.365 309.846 461.243 309.651C462.073 309.554 462.707 309.407 463.098 309.31V291.985H463.147ZM463.147 273.538L468.027 272.708V312.823C466.953 313.116 465.587 313.458 463.928 313.751C462.268 314.043 460.365 314.239 458.169 314.239C455.973 314.239 454.411 313.897 452.801 313.263C451.19 312.628 449.824 311.652 448.701 310.432C447.53 309.212 446.7 307.65 446.066 305.942C445.431 304.234 445.09 302.185 445.09 299.988C445.09 297.792 445.383 295.938 445.919 294.181C446.456 292.424 447.237 290.911 448.213 289.691C449.238 288.422 450.458 287.446 451.922 286.714C453.337 286.031 454.997 285.689 456.851 285.689C458.706 285.689 459.584 285.885 460.707 286.226C461.78 286.568 462.61 286.958 463.195 287.349V273.635L463.147 273.538Z" fill="black"/>
<path d="M502.97 297.208C502.97 294.914 502.336 293.059 501.116 291.693C499.896 290.327 498.285 289.643 496.284 289.643C494.283 289.643 494.137 289.887 493.21 290.278C492.282 290.668 491.502 291.254 490.818 291.986C490.184 292.669 489.647 293.547 489.257 294.426C488.866 295.353 488.622 296.28 488.476 297.208H502.97ZM496.333 285.544C500.042 285.544 502.872 286.715 504.873 289.009C506.874 291.303 507.85 294.768 507.85 299.453V301.161H488.281C488.476 303.991 489.452 306.138 491.111 307.603C492.77 309.115 495.162 309.847 498.139 309.847C501.116 309.847 501.311 309.75 502.58 309.408C503.8 309.115 504.727 308.823 505.361 308.53L505.996 312.629C505.41 312.922 504.337 313.264 502.824 313.605C501.311 313.947 499.554 314.142 497.651 314.142C495.747 314.142 493.21 313.752 491.404 313.068C489.598 312.336 488.134 311.36 486.963 310.091C485.792 308.823 484.864 307.31 484.328 305.602C483.742 303.845 483.449 301.941 483.449 299.892C483.449 297.842 483.791 295.353 484.572 293.499C485.304 291.693 486.28 290.18 487.549 289.058C488.769 287.886 490.135 286.959 491.648 286.422C493.21 285.788 494.82 285.495 496.431 285.495L496.333 285.544Z" fill="black"/>
<path d="M523.617 286.957C525.374 286.518 527.131 286.176 528.888 285.981C530.645 285.737 532.255 285.64 533.817 285.64C537.477 285.64 540.259 286.616 542.064 288.47C543.968 290.373 544.895 293.399 544.895 297.547V313.603H540.064V298.475C540.064 296.718 539.917 295.302 539.624 294.18C539.332 293.106 538.843 292.228 538.307 291.594C537.721 290.959 537.038 290.569 536.208 290.325C535.379 290.081 534.5 289.983 533.573 289.983C532.646 289.983 531.962 289.983 531.084 290.129C530.206 290.276 529.376 290.373 528.497 290.52V313.652H523.617V287.055V286.957Z" fill="black"/>
<path d="M578.419 306.723C578.419 305.747 578.028 304.966 577.199 304.283C576.369 303.649 575.393 303.112 574.222 302.624C573.051 302.185 571.733 301.697 570.318 301.257C568.902 300.818 567.585 300.281 566.413 299.549C565.242 298.915 564.217 298.036 563.437 297.109C562.607 296.133 562.216 294.864 562.216 293.254C562.216 291.643 563.095 289.203 564.901 287.739C566.706 286.275 569.488 285.543 573.343 285.543C577.199 285.543 576.369 285.641 577.98 285.836C579.541 286.08 580.957 286.324 582.079 286.665L581.201 291.058C580.908 290.911 580.469 290.716 579.883 290.57C579.297 290.374 578.712 290.228 577.98 290.13C577.248 290.033 576.516 289.886 575.735 289.838C574.905 289.74 574.173 289.74 573.392 289.74C569.146 289.74 567.048 290.911 567.048 293.205C567.048 295.499 567.438 294.767 568.219 295.303C569 295.84 570.025 296.377 571.245 296.865C572.465 297.304 573.783 297.841 575.198 298.329C576.613 298.817 577.931 299.403 579.151 300.135C580.371 300.818 581.396 301.697 582.177 302.721C583.006 303.697 583.348 304.966 583.348 306.528C583.348 309.017 582.372 310.92 580.469 312.287C578.565 313.653 575.491 314.336 571.294 314.336C567.097 314.336 567.682 314.19 566.121 313.848C564.559 313.555 563.046 313.019 561.68 312.482L562.607 308.041C563.973 308.675 565.437 309.212 566.95 309.602C568.512 310.042 570.122 310.237 571.831 310.237C576.272 310.139 578.468 309.066 578.468 306.821L578.419 306.723Z" fill="black"/>
<path d="M229.094 151.532V222.003C225.531 222.637 221.92 222.979 218.406 222.979C212.696 222.979 208.841 220.978 206.889 216.976C204.937 212.974 203.912 206.825 203.912 198.578V151.581H174.094C173.996 151.874 173.85 152.215 173.703 152.508C180.145 156.022 180.389 159.194 180.389 165.05V201.603C180.389 207.704 180.877 213.316 181.951 218.391C182.927 223.467 184.83 227.908 187.563 231.665C190.296 235.423 194.005 238.303 198.739 240.352C203.424 242.402 209.524 243.378 216.893 243.378C224.262 243.378 230.851 242.792 237.048 241.67C243.246 240.499 248.468 239.425 252.812 238.254V151.532H229.142H229.094Z" fill="black"/>
<path d="M319.034 212.778C317.228 213.803 315.227 214.632 313.031 215.267C310.786 215.901 308.395 216.243 305.857 216.243C300.147 216.243 295.951 214.34 293.266 210.435C290.631 206.531 289.265 200.919 289.265 193.55C289.265 176.957 296.146 168.71 309.859 168.71C323.573 168.71 312.836 168.71 314.251 168.905C315.618 169.002 317.228 169.295 319.034 169.686V212.778ZM351.195 156.997L344.85 154.947C343.63 154.655 341.044 153.971 341.044 153.971C330.21 151.092 320.108 149.579 310.738 149.579C296.731 149.579 285.653 153.19 277.503 160.462C269.353 167.734 265.254 178.714 265.254 193.501C265.254 208.288 268.28 216.829 274.331 224.246C280.383 231.616 289.265 235.325 300.977 235.325C312.69 235.325 307.126 235.032 309.859 234.349C312.592 233.714 315.618 232.787 318.936 231.518V235.129C318.936 237.667 318.644 240.058 317.96 242.303C317.326 244.548 316.252 246.451 314.739 248.111C313.178 249.77 311.128 251.088 308.444 252.015C305.76 252.942 302.392 253.43 298.342 253.43C292.242 253.43 287.117 252.796 283.018 251.624C278.919 250.453 275.063 249.136 271.354 247.72L266.962 267.583C271.647 269.144 276.625 270.462 281.749 271.633C286.922 272.805 292.242 273.341 297.854 273.341C313.519 273.341 324.89 269.828 331.918 262.849C338.945 255.87 342.508 244.987 342.508 230.396V168.319C342.605 164.073 343.874 159.34 351.097 158.022C351.097 157.729 351.097 157.387 351.097 157.046L351.195 156.997Z" fill="black"/>
<path d="M408.636 223.857C406.879 224.15 404.732 224.296 402.34 224.345C399.9 224.442 397.411 224.442 394.874 224.442C390.042 224.442 386.089 223.613 383.015 221.856C379.94 220.148 378.427 217.22 378.427 213.169C378.427 209.119 378.915 209.07 379.989 207.654C380.965 206.288 382.38 205.166 384.088 204.434C385.796 203.653 387.797 203.116 390.14 202.823C392.385 202.53 394.776 202.335 397.167 202.335C399.559 202.335 400.925 202.433 403.072 202.628C405.22 202.823 407.074 203.067 408.587 203.262V223.857H408.636ZM431.134 224.979V185.693C431.134 180.081 430.499 175.055 429.23 170.516C427.961 166.026 425.863 162.171 422.935 159.047C420.007 155.924 416.102 153.533 411.222 151.776C406.293 150.068 400.193 149.189 392.824 149.189C385.455 149.189 381.551 149.629 376.231 150.41C370.863 151.239 366.763 152.166 363.787 153.191L367.007 172.126C369.545 171.248 372.913 170.467 377.061 169.833C381.16 169.198 385.503 168.857 389.944 168.857C396.826 168.857 401.657 170.37 404.439 173.347C407.269 176.323 408.636 180.081 408.636 184.522V187.402C403.951 186.426 398.534 185.84 392.385 185.84C386.236 185.84 382.917 186.328 378.476 187.304C374.035 188.28 370.033 189.793 366.617 191.989C363.152 194.136 360.419 197.016 358.369 200.578C356.32 204.141 355.344 208.533 355.344 213.755C355.344 218.977 356.222 223.808 357.979 227.615C359.736 231.372 362.322 234.398 365.592 236.789C368.911 239.132 372.864 240.84 377.5 241.816C382.136 242.792 387.358 243.378 393.068 243.378C401.462 243.378 409.026 242.89 415.81 241.816C421.178 240.986 425.521 240.254 428.791 239.62C428.791 239.62 429.816 239.425 430.938 239.181C431.573 239.083 433.964 238.546 433.964 238.546L439.088 237.277C439.088 236.936 439.186 236.594 439.186 236.301C432.158 234.545 431.329 229.908 431.134 225.028V224.979Z" fill="black"/>
<path d="M595.646 151.532C594.474 156.364 593.01 161.537 591.156 167.003C589.301 172.468 587.398 177.983 585.446 183.498C583.445 189.012 581.444 194.429 579.443 199.651C577.394 204.873 575.539 209.656 573.929 213.95C572.269 209.656 570.512 204.873 568.658 199.651C566.803 194.429 564.998 189.061 563.241 183.498C561.435 177.983 559.776 172.468 558.165 167.003C556.604 161.537 555.189 156.412 554.066 151.532H524.345C524.248 151.825 524.102 152.167 524.004 152.459C529.031 155.192 531.08 157.633 532.447 161.439C536.888 175.689 541.524 189.11 546.306 201.506C552.212 216.683 558.019 230.006 563.778 241.328H583.445C589.155 230.006 595.304 216.732 601.795 201.506C608.236 186.377 614.142 169.833 619.461 151.874V151.581H595.694L595.646 151.532Z" fill="black"/>
<path d="M135.783 166.075C132.709 168.71 128.219 169.979 122.216 169.979H113.041V142.845C114.603 142.552 116.262 142.406 118.214 142.26C120.118 142.162 121.972 142.064 123.729 142.064C125.486 142.064 127.975 142.211 130.024 142.504C132.074 142.796 133.831 143.48 135.393 144.407C136.954 145.334 138.126 146.701 139.053 148.409C139.931 150.117 140.419 152.41 140.419 155.192C140.419 159.828 138.858 163.391 135.783 165.977V166.075ZM164.528 189.842C161.697 184.864 156.231 180.911 148.228 177.983C152.815 175.445 156.475 172.029 159.208 167.686C161.941 163.391 163.308 158.413 163.308 152.801C163.308 147.189 162.722 145.432 161.6 141.723C160.428 138.014 158.281 134.695 155.109 131.669C151.937 128.693 147.544 126.301 141.932 124.398C136.32 122.592 129.097 121.665 120.166 121.665C111.236 121.665 109.674 121.958 104.306 122.495C99.9623 122.934 95.9606 123.52 92.2516 124.105C91.9588 124.105 91.7636 124.105 91.4219 124.203C84.6872 125.179 80.6367 126.692 80.6367 126.692C80.6367 127.082 80.6367 127.375 80.5391 127.717C87.957 129.62 89.3235 134.646 89.6163 139.185V239.23C91.8612 239.669 94.1549 240.108 96.3998 240.45C96.3022 230.982 97.8638 218.977 103.427 213.316C108.405 188.524 135.149 204.678 143.445 197.016C142.176 207.606 140.371 217.805 128.609 220.587C121.191 222.295 115.237 221.661 105.282 217.122C101.475 222.149 100.011 232.348 100.255 240.986C102.256 241.279 104.257 241.572 106.258 241.767C111.87 242.353 117.238 242.597 122.509 242.597C127.78 242.597 135.1 241.962 140.761 240.791C146.422 239.62 151.351 237.57 155.45 234.691C159.599 231.86 162.868 228.005 165.308 223.222C167.749 218.44 168.969 212.486 168.969 205.361C168.969 199.944 167.505 194.771 164.625 189.744L164.528 189.842Z" fill="black"/>
<path d="M306.933 308.871C306.737 308.237 306.493 307.554 306.103 306.919C305.761 306.285 305.371 305.651 304.932 305.016C305.322 304.284 305.664 303.454 305.908 302.576C306.152 301.698 306.249 300.673 306.298 299.697L303.468 299.355C303.468 300.673 303.321 301.795 303.028 302.722C302.589 302.283 302.199 301.746 301.76 301.307C301.32 300.819 300.93 300.38 300.588 299.941C301.76 299.355 302.589 298.623 303.126 297.745C303.663 296.915 303.956 296.037 303.956 295.158C303.956 294.28 303.858 293.938 303.614 293.45C303.321 293.011 303.028 292.572 302.638 292.23C302.248 291.937 301.808 291.644 301.272 291.498C300.784 291.303 300.295 291.205 299.71 291.205C299.124 291.205 298.636 291.303 298.099 291.498C297.563 291.693 297.075 291.937 296.635 292.328C296.196 292.669 295.854 293.157 295.61 293.694C295.318 294.28 295.22 294.914 295.22 295.646C295.22 296.378 295.318 297.061 295.659 297.745C295.952 298.428 296.294 299.062 296.733 299.648C295.806 300.233 295.171 300.868 294.683 301.698C294.244 302.527 294 303.357 294 304.284C294 305.211 294.098 305.504 294.293 306.09C294.488 306.675 294.83 307.163 295.269 307.603C295.708 308.042 296.196 308.432 296.831 308.627C297.465 308.92 298.197 309.018 298.978 309.018C299.759 309.018 300.295 308.92 300.93 308.579C301.564 308.286 302.248 307.895 302.882 307.31C303.175 307.749 303.321 308.286 303.516 308.823H306.884L306.933 308.871ZM300.442 306.285C300.003 306.431 299.612 306.578 299.173 306.578C298.392 306.578 297.807 306.334 297.514 305.895C297.172 305.455 297.026 304.919 297.026 304.235C297.026 303.552 297.123 303.21 297.416 302.771C297.709 302.381 298.002 302.039 298.392 301.795C298.929 302.381 299.466 302.966 300.051 303.601C300.637 304.235 301.125 304.821 301.662 305.504C301.32 305.895 300.881 306.139 300.491 306.334L300.442 306.285ZM298.685 294.231C298.978 293.938 299.319 293.743 299.807 293.743C300.295 293.743 300.442 293.84 300.735 294.084C300.979 294.377 301.076 294.719 301.076 295.207C301.076 295.695 300.93 296.232 300.637 296.769C300.344 297.354 299.807 297.745 299.271 298.135C298.978 297.696 298.734 297.257 298.587 296.817C298.441 296.378 298.343 295.988 298.343 295.597C298.343 295.06 298.441 294.621 298.734 294.28L298.685 294.231Z" fill="black"/>
</svg>
