<svg width="700" height="428" viewBox="0 0 700 428" fill="none" xmlns="http://www.w3.org/2000/svg">
<path fill-rule="evenodd" clip-rule="evenodd" d="M253.184 215.037C255.352 214.918 258.208 213.082 260.036 212.165L296.925 190.326C298.183 189.408 298.634 188.949 299.892 188.142C303.089 186.068 302.749 183.426 305.146 178.369C313.138 161.017 316.683 158.026 331.417 145.959C333.474 144.234 334.843 142.857 337.129 141.48C340.674 148.831 343.642 164.237 344.552 166.192C347.978 165.844 347.867 163.66 348.888 157.456C349.576 154.006 350.257 149.179 351.515 146.537C353.002 147.573 354.941 150.794 359.396 153.666C370.822 161.254 364.08 161.943 364.08 178.718C366.478 178.488 377.896 171.248 384.867 176.075C387.494 177.91 393.666 184.233 395.604 186.306L428.268 223.084C430.207 225.039 432.834 229.288 435.35 229.984L422.104 206.428C420.387 203.556 398.35 168.502 397.662 168.502C394.924 168.502 397.203 169.539 395.264 168.502C395.145 168.502 391.608 165.052 389.211 163.446C385.555 161.143 383.617 160.574 382.699 155.399C380.871 144.369 380.183 145.286 372.65 136.669C360.084 122.419 361.801 135.522 351.404 114.601C348.207 108.168 346.15 103.8 342.724 107.472C342.724 104.022 343.752 100.461 340.785 100.461C337.47 100.461 337.019 104.829 332.445 110.692C328.449 115.859 326.962 116.896 323.425 120.805C322.736 121.612 322.855 121.722 322.285 122.411L317.83 127.815C312.917 134.256 312.695 135.403 306.412 141.607C289.851 158.042 296.933 161.373 294.765 168.154C293.625 171.604 285.855 178.385 282.888 181.368C281.748 182.634 281.4 183.434 280.142 184.7L270.552 194.242C266.208 198.61 253.421 208.264 253.192 215.045L253.184 215.037Z" fill="#603A17"/>
<path fill-rule="evenodd" clip-rule="evenodd" d="M148.523 283.937V289.341C149.663 288.534 188.388 280.495 190.208 280.036C192.835 279.458 195.691 278.311 197.06 276.586C203.002 268.887 196.83 254.058 203.453 250.846C205.622 249.809 209.048 249.01 211.445 248.084C218.068 245.441 226.408 240.267 228.117 232.686C229.716 233.145 230.515 234.182 231.544 235.448C233.427 237.829 235.888 240.219 238.254 242.514H252.172L245.478 234.989C240.224 228.326 231.773 218.095 227.199 211.195C225.372 212.232 223.433 213.719 221.605 214.985C213.384 220.501 213.265 220.042 205.044 226.712C201.388 229.703 198.302 232.227 194.536 234.87C192.368 236.476 193.167 236.476 191.569 241.192C187.114 254.407 181.519 259.811 170.782 267.969C168.97 269.346 150.921 283.248 148.523 283.937Z" fill="#603A17"/>
<path fill-rule="evenodd" clip-rule="evenodd" d="M396.365 151.579L393.968 147.44C390.771 139.741 388.832 143.073 392.259 133.997C400.14 112.735 415.672 96.9889 436.348 88.6015C472.438 74.0025 512.753 89.0604 531.941 122.278C540.052 136.299 544.618 155.147 540.74 174.336C537.884 188.468 533.2 198.129 524.638 209.159C521.212 213.638 518.696 215.482 515.269 218.813C513.56 220.419 505.45 226.512 504.421 226.631C503.282 226.749 496.77 220.657 495.63 219.62C491.974 217.207 481.007 205.48 477.929 201.46L467.081 188.476C462.056 182.96 459.54 180.887 455.204 176.179L449.491 169.738C442.979 161.58 433.041 152.845 425.389 145.834C411.566 133.538 405.512 140.659 398.209 154.34C397.291 153.652 396.721 152.845 396.381 151.579H396.365ZM148.523 268.576V272.714L154.917 267.547C155.827 266.74 156.286 266.511 157.204 265.712L161.54 262.032C166.675 257.894 177.642 247.552 181.638 242.496C183.925 239.505 186.093 236.751 188.261 233.301C201.736 213.076 205.511 218.473 221.043 202.726C231.211 192.384 234.978 204.103 241.031 206.287C246.285 208.123 250.17 200.542 254.395 196.404L268.559 183.19C269.588 182.153 269.817 182.153 270.846 181.235L276.788 175.602C285.239 164.682 280.903 162.269 293.009 147.559C295.526 144.457 297.575 141.696 300.091 138.713L314.144 121.131C315.402 119.524 316.431 118.369 317.681 116.763C320.649 113.202 333.325 96.1897 335.611 94.4648C343.382 88.4907 348.517 98.8326 351.832 101.594C352.861 102.401 353.091 102.512 354.119 103.43C368.164 117.681 362.23 110.441 372.049 125.15C372.967 126.527 374.336 128.371 375.476 129.629C385.865 140.778 384.385 135.144 392.836 151.927C393.865 154.111 394.893 155.258 395.922 157.213L398.549 159.626C401.287 155.717 404.602 147.899 407.688 145.256C415.221 138.934 420.594 146.174 426.307 151.001L435.786 159.618C444.126 167.895 450.061 175.246 458.86 184.1C461.028 186.165 462.405 188.009 464.454 190.193L470.048 196.744C471.757 198.928 473.364 200.994 475.184 203.185C481.237 210.196 483.175 212.261 489.577 218.583C490.716 219.731 491.974 220.308 492.774 221.456C497.11 224.447 522.929 247.433 527.154 251.912C528.072 252.83 527.953 253.059 528.753 253.977L544.626 270.76C546.113 272.255 550.109 277.422 551.478 278.348V273.751L535.257 256.28C534.228 255.014 533.999 254.555 532.749 253.289C531.72 252.252 531.039 251.564 529.892 250.527C527.953 248.573 526.347 246.848 524.298 244.893L506.708 228.917C516.417 222.477 526.007 214.089 532.179 204.095C537.203 195.708 541.318 187.083 543.257 177.319C545.654 164.793 545.654 155.598 543.257 143.531C540.06 127.674 532.068 114.223 520.872 102.963C510.593 92.7319 495.741 84.5739 479.868 81.5829C458.512 77.4445 436.127 82.7302 419.795 93.8792C417.286 95.6042 414.881 97.4399 412.602 99.2836C403.692 106.524 396.041 117.673 391.246 128.244L388.619 135.025C388.278 136.173 388.508 136.173 387.93 137.098L375.594 124.802L370.23 116.296C365.434 108.937 361.549 106.753 356.177 101.357C351.041 96.1818 345.898 89.1712 339.504 89.6301C334.48 89.8596 331.054 94.4569 328.656 97.7881C320.435 108.589 292.907 141.577 286.284 151.46C283.316 156.057 281.829 158.471 279.89 164.104C275.776 175.024 267.673 179.621 259.562 187.091C254.538 191.688 247.227 200.194 243.112 203.755C238.087 201.112 240.145 202.149 236.718 199.039C228.378 191.451 221.186 198.003 215.243 203.866C212.846 206.279 212.157 207.086 209.19 209.041C202.338 213.519 196.625 217.088 191.371 223.75L182.232 236.624C176.637 244.901 159.957 259.722 151.507 266.392C150.138 267.539 150.138 268.117 148.539 268.576H148.523Z" fill="#603A18"/>
<path fill-rule="evenodd" clip-rule="evenodd" d="M483.848 221.424C482.25 220.736 482.708 220.847 481.561 219.47C480.422 217.864 480.303 218.663 480.074 216.708L464.66 201.421C463.291 200.044 462.262 199.118 460.893 197.742L449.815 184.986C448.787 183.61 447.647 182.344 446.5 180.848L422.746 158.091C420.918 156.255 420.918 155.219 417.721 155.219L415.435 168.781C415.094 171.084 414.635 173.378 414.517 175.673C414.058 181.536 413.148 180.27 415.886 181.766L421.939 165.909C422.279 167.286 428.103 173.727 429.25 174.874L440.439 186.023C441.578 187.289 441.926 187.859 442.955 189.125C445.012 191.19 446.381 192.915 448.098 195.217C449.697 197.401 450.607 199.926 451.295 203.146C453.004 211.423 450.725 213.258 455.861 220.958C459.516 219.003 460.545 217.397 462.824 218.544C464.422 219.462 471.164 227.509 472.992 229.464L488.865 245.21C492.86 248.889 496.635 251.303 501.082 254.515C516.733 265.546 532.606 274.97 548.02 286.696C549.278 287.503 549.959 288.532 551.446 288.999C550.987 287.274 550.307 287.622 547.332 284.631C545.844 283.136 544.475 281.988 543.217 280.382C541.848 278.657 540.93 277.391 539.561 275.674C531.799 265.791 528.373 262.46 519.344 253.376C513.402 247.402 512.832 246.595 506.328 241.309C502.213 237.859 495.709 234.987 491.594 230.848C489.885 229.013 484.513 223.719 483.824 221.424H483.848Z" fill="#603A17"/>
<path fill-rule="evenodd" clip-rule="evenodd" d="M462.452 94.7109C498.985 94.7109 528.61 124.447 528.61 161.122C528.61 185.992 514.993 207.665 494.839 219.043C490.606 215.744 480.802 205.22 477.914 201.453L467.065 188.469C462.041 182.953 459.525 180.88 455.188 176.172L449.475 169.731C442.963 161.573 433.025 152.838 425.373 145.827C411.55 133.531 405.497 140.652 398.193 154.333C397.6 153.89 397.157 153.392 396.816 152.759C400.915 120.032 428.736 94.7109 462.452 94.7109Z" fill="#F9A12A"/>
<path d="M167.496 309.715L181.913 308.995L181.438 344.547H192.682L191.424 308.473L205.722 307.753L205.786 298.638H167.797L167.496 309.723V309.715ZM348.602 344.539H365.353L372.411 336.801V324.14L365.353 314.89L350.936 314.17L350.517 309.842L353.453 306.954H362.125L362.426 311.741H370.861L370.441 303.472L364.277 298.622H346.988L342.501 303.607V317.517L348.301 323.943H359.189L363.256 329.845V334.308H351.949L352.131 327.812H342.501V337.26L348.602 344.539ZM377.207 309.715L391.623 308.995L391.149 344.547H402.393L401.135 308.473L415.433 307.753L415.488 298.638H377.499L377.199 309.723L377.207 309.715ZM449.18 344.539L457.378 334.965L454.569 303.939L448.587 298.63H429.557L421.715 305.973L421.478 335.361L429.019 344.539H449.18ZM430.926 330.763L430.57 310.887L433.624 307.801H442.059L445.406 310.23L447.139 328.651L441.996 334.039H434.036L430.926 330.755V330.763ZM466.351 298.63L466.47 344.547H474.786L475.387 319.163L491.838 344.547H502.37V298.63H494.053V325.723L475.688 298.63H466.351ZM514.334 344.539H544.252L544.188 333.319L524.09 334.498L523.789 327.614L540.485 326.039V316.006L523.789 316.987V307.998L539.583 309.051L542.574 298.622H514.334V344.539ZM213.564 298.559L215.241 344.539H223.376L224.333 331.42L231.692 330.961L242.817 347.823L250.714 341.129L240.246 326.57L247.668 320.01L245.515 304.2L235.704 298.559H213.564ZM224.159 308.465L234.271 308.006L237.864 310.697L238.283 315.745L234.453 321.252H223.748L224.167 308.465H224.159ZM258.563 335.361L266.104 344.539H285.071L293.269 334.965L294.044 298.693H282.919L284.232 328.666L279.089 334.047H271.129L268.019 330.763L268.138 298.685H257.907L258.563 335.353V335.361ZM303.017 344.539H332.927L332.872 333.319L312.773 334.498L312.473 327.614L329.168 326.039V316.006L312.473 316.987V307.998L328.266 309.051L331.257 298.622H303.017V344.539Z" fill="#030303"/>
<path d="M235.969 267.43V283.453H239.229L244.681 273.222L244.894 283.453H248.004L248.044 267.43H245.037L239.292 276.656V267.43H235.977H235.969ZM251.066 283.453H259.003L262.848 281.483L263.6 275.967L260.554 273.269L262.35 269.376L259.319 267.406H251.778L251.944 270.721L258.211 269.922L257.729 272.897H253.179L253.369 276.221H258.567L259.905 277.685L259.762 279.22L258.512 280.161L251.85 279.315L251.074 283.461L251.066 283.453ZM267.976 286.871L268.015 283.461H276.909L277.012 286.871H280.248V280.027H278.017L277.455 267.438H269.186L267.224 280.027H264.842V286.871H267.976ZM270.476 280.027L271.813 271.006L274.614 271.188V280.027H270.476ZM282.962 283.453H293.407L293.383 279.536L286.365 279.948L286.262 277.542L292.086 276.996V273.491L286.262 273.831V270.698L291.777 271.062L292.822 267.422H282.97V283.445L282.962 283.453ZM295.702 283.453H299.207L301.043 270.998L304.05 271.204V283.453H307.808L307.096 267.43H298.202L295.694 283.453H295.702ZM311.986 267.43V283.453H315.246L320.698 273.222L320.904 283.453H324.013L324.053 267.43H321.046L315.302 276.656V267.43H311.978H311.986ZM326.767 282.266L329.521 284.6L333.406 278.713L335.977 278.871L336.31 283.453H339.15L339.736 267.406H332.013L328.587 269.376L327.835 274.891L330.423 277.178L326.767 282.258V282.266ZM331.111 273.412L331.254 271.647L332.504 270.706L336.033 270.864L336.175 275.327H332.44L331.103 273.404L331.111 273.412ZM349.128 267.43V283.453H352.388L357.84 273.222L358.046 283.453H361.156L361.195 267.43H358.188L352.444 276.656V267.43H349.12H349.128ZM364.226 283.453H372.162L376 281.483L376.752 275.967L373.705 273.269L375.501 269.376L372.471 267.406H364.938L365.104 270.721L371.371 269.922L370.888 272.897H366.338L366.528 276.221H371.727L373.064 277.685L372.922 279.22L371.672 280.161L365.009 279.315L364.234 283.461L364.226 283.453ZM384.688 283.453H387.885V277.218L394.049 284.157L396.802 281.704L389.895 274.551L395.489 269.163L393.566 266.733L388.035 272.597L388.185 267.422H385.012L384.704 283.445L384.688 283.453ZM398.045 282.155L400.988 283.92L402.515 280.604H407.485L407.627 277.447L404.098 277.17L406.329 272.32L409.898 283.928L413.261 282.78L408.379 266.504L404.81 267.667L398.045 282.155ZM415.563 283.453H418.341L419.053 273.815L422.938 278.919L428.176 273.309L428.556 283.445H432.813L431.286 267.422H429.181L423.753 273.784L419.472 267.422H416.26L415.571 283.445L415.563 283.453ZM440.56 283.453L440.291 277.321L444.864 277.004L444.904 283.208L448.267 283.461L448.354 267.873L444.864 267.438V273.507L440.291 274.076V267.778L436.991 267.438V283.461H440.56V283.453ZM451.06 282.266L453.813 284.6L457.699 278.713L460.27 278.871L460.603 283.453H463.443L464.029 267.406H456.306L452.88 269.376L452.128 274.891L454.715 277.178L451.06 282.258V282.266ZM455.404 273.412L455.554 271.647L456.804 270.706L460.334 270.864L460.484 275.327H456.749L455.412 273.404L455.404 273.412Z" fill="#030303"/>
</svg>
