<svg width="700" height="428" viewBox="0 0 700 428" fill="none" xmlns="http://www.w3.org/2000/svg">
<path d="M65.03 181.802H86.8537C86.9304 182.032 87.0002 182.255 87.0769 182.479C86.3304 182.723 85.6048 183.127 84.8443 183.19C80.7977 183.532 79.7163 184.579 79.7094 188.925C79.6466 203.772 79.6466 218.619 79.6814 233.479C79.6954 238.077 79.8907 238.203 84.0559 238.545C84.8513 238.607 85.6467 238.74 86.3513 238.824V257.766C86.0723 257.794 85.7862 257.815 85.5071 257.85C85.2629 255.826 85.0746 253.782 84.7466 251.78C83.3862 243.519 79.8419 240.191 72.0348 240.142C58.9741 240.059 45.9204 240.114 32.8736 240.107C31.9387 240.107 31.0108 240.024 30.0759 239.975C30.041 239.682 29.9922 239.389 29.9434 239.089C30.8504 238.866 31.7364 238.538 32.6504 238.454C36.0342 238.112 37.1016 237.205 37.1226 233.633C37.2063 218.493 37.2063 203.346 37.1365 188.207C37.1226 184.551 35.9225 183.511 32.4899 183.204C31.6457 183.127 30.7945 182.883 29.9643 182.716C29.9922 182.437 30.0271 182.151 30.048 181.858H51.8996C51.9484 182.13 52.0112 182.388 52.06 182.639C51.153 182.834 50.267 183.127 49.36 183.204C45.8018 183.497 44.6366 184.627 44.6297 188.437C44.5808 203.577 44.6436 218.723 44.5808 233.863C44.5669 236.612 45.5994 237.784 48.0972 237.777C54.9415 237.742 61.7788 237.742 68.6231 237.791C71.1627 237.805 72.4115 236.8 72.3976 233.828C72.3348 218.786 72.4325 203.73 72.3488 188.688C72.3208 184.383 71.2604 183.476 67.3254 183.183C66.5021 183.12 65.7068 182.792 64.8975 182.583C64.9323 182.325 64.9812 182.053 65.03 181.802Z" fill="#231F20"/>
<path d="M307.77 206.737C317.14 208.39 323.008 202.788 322.31 193.153C321.843 186.497 317.712 182.694 311.622 183.273C309.326 183.497 307.819 184.662 307.798 187.271C307.721 193.697 307.77 200.13 307.77 206.744M307.833 209.318C307.833 218.137 307.77 226.3 307.917 234.449C307.931 235.384 308.859 236.605 309.682 237.149C315.703 241.112 325.275 236.779 326.454 229.328C326.971 226.069 326.712 222.476 326.015 219.239C325.059 214.823 322.254 211.565 318.096 210.525C314.838 209.716 311.412 209.716 307.833 209.325M293.454 181.822C294.179 181.725 294.891 181.564 295.61 181.55C301.631 181.473 307.652 181.278 313.673 181.438C316.589 181.522 319.666 181.745 322.38 182.827C330.445 186.001 332.015 197.527 325.359 203.499C323.936 204.79 322.317 205.83 320.629 207.106C325.596 208.048 329.81 210.232 332.51 214.858C337.743 223.83 333.047 236.13 323.084 239.402C320.643 240.198 317.956 240.456 315.382 240.47C308.538 240.505 301.714 240.26 294.884 240.114C294.368 240.1 293.865 240.002 293.182 239.242C293.963 238.984 294.724 238.593 295.512 238.495C299.314 238.056 300.34 237.232 300.368 233.067C300.493 218.234 300.493 203.388 300.382 188.548C300.354 184.452 299.252 183.573 295.463 183.218C294.779 183.141 294.103 182.911 293.419 182.75C293.433 182.443 293.454 182.136 293.468 181.829" fill="#231F20"/>
<path d="M107.318 206.626C113.164 208.07 118.216 206.074 120.413 201.253C122.534 196.593 122.66 191.814 120.085 187.279C118.097 183.797 114.804 183.211 111.343 183.281C108.902 183.33 107.374 184.62 107.332 187.348C107.269 193.788 107.318 200.221 107.318 206.626ZM107.297 209.521C107.297 217.935 107.22 225.728 107.381 233.528C107.409 234.756 108.267 236.424 109.209 237.107C113.22 240.01 121.837 237.819 124.537 233.417C129.818 224.835 125.137 212.012 115.871 210.037C113.199 209.458 110.381 209.681 107.304 209.521M120.155 207.093C125.206 208.112 129.525 210.281 132.183 215.109C136.976 223.837 132.958 235.266 123.602 238.928C120.804 240.017 117.644 240.401 114.637 240.449C107.89 240.561 101.15 240.254 94.4036 240.108C93.9013 240.094 93.385 239.996 92.7082 239.249C93.4897 238.991 94.2641 238.587 95.0595 238.489C98.8479 238.007 99.8177 237.198 99.9154 233.033C100.097 225.519 100.027 218.005 100.041 210.477C100.055 203.842 100.104 197.2 100.027 190.565C99.9642 185.527 99.8177 183.134 94.1525 183.12C93.7478 183.12 93.3431 182.667 92.2129 181.983C93.6222 181.753 94.2571 181.551 94.885 181.551C101.178 181.467 107.478 181.293 113.757 181.425C116.416 181.474 119.199 181.746 121.676 182.688C129.902 185.827 131.646 197.486 124.886 203.507C123.462 204.784 121.844 205.809 120.141 207.086" fill="#231F20"/>
<path d="M577.384 206.681C587.228 208.865 593.982 201.128 591.484 190.704C590.172 185.22 585.302 182.074 580.279 183.399C578.451 183.888 577.432 185.165 577.411 187.125C577.349 193.648 577.384 200.186 577.384 206.681ZM577.356 209.353C577.356 217.97 577.356 225.77 577.37 233.57C577.37 235.691 578.409 237.052 580.216 237.7C589.091 240.854 596.402 235.286 596.535 225.295C596.633 217.879 593.228 211.942 587.465 210.435C584.305 209.605 580.942 209.702 577.363 209.353M562.795 239.047C563.639 238.852 564.476 238.565 565.335 238.468C568.795 238.063 569.856 237.156 569.946 233.382C570.142 225.575 570.093 217.76 570.121 209.953C570.135 203.025 570.197 196.083 570.044 189.162C569.946 184.404 569.123 183.658 564.832 183.176C564.204 183.099 563.597 182.848 562.99 182.674C563.004 182.402 563.004 182.144 563.018 181.878C563.646 181.767 564.253 181.558 564.881 181.551C571.174 181.474 577.46 181.355 583.753 181.404C585.986 181.432 588.267 181.613 590.423 182.178C594.63 183.295 597.819 185.953 598.761 190.739C599.765 195.769 598.503 200.242 594.812 203.639C593.451 204.874 591.895 205.844 590.647 206.765C593.158 208 596.054 208.872 598.37 210.651C606.365 216.756 606.093 229.872 598.189 236.249C594.142 239.507 589.656 240.624 584.779 240.54C578.032 240.414 571.293 240.268 564.546 240.121C564.03 240.107 563.507 240.024 562.99 239.961C562.928 239.668 562.865 239.361 562.809 239.054" fill="#231F20"/>
<path d="M241.713 206.034C241.665 215.306 243.151 222.562 247.295 228.911C251.767 235.776 257.837 239.544 265.735 238.637C274.009 237.681 279.137 232.176 281.307 223.79C282.444 219.373 282.947 214.559 282.751 209.976C282.382 201.122 279.688 193.127 272.823 187.538C263.516 179.961 250.421 182.354 244.832 192.673C242.355 197.257 241.672 202.371 241.72 206.034M291.047 210.338C290.984 227.467 277.526 241.274 260.886 241.274C244.246 241.274 233.376 228.276 233.432 211.078C233.495 191.633 247.909 180.694 263.914 180.575C279.521 180.45 291.11 193.378 291.047 210.345" fill="#231F20"/>
<path d="M390.468 212.871C390.272 212.822 390.063 212.773 389.868 212.724C389.868 211.95 389.916 211.155 389.854 210.38C389.128 201.108 386.651 192.736 379.221 187.112C369.495 179.759 356.246 182.87 351.313 193.573C346.102 204.889 348.558 222.827 356.546 231.995C366.474 243.388 382.528 240.171 387.712 225.555C389.135 221.536 389.575 217.106 390.461 212.864M398.024 210.422C397.961 227.627 384.356 241.378 367.507 241.267C352.046 241.169 340.555 228.443 340.437 211.28C340.304 193.699 353.26 180.54 370.723 180.533C386.456 180.533 398.086 193.259 398.031 210.422" fill="#231F20"/>
<path d="M618.852 207.185C618.804 215.543 620.338 222.806 624.539 229.12C629.199 236.118 635.478 239.76 643.592 238.511C651.916 237.234 656.548 231.276 658.76 223.05C661.076 214.454 660.511 205.859 657.239 197.584C655.23 192.505 652.027 188.466 647.492 185.835C639.636 181.314 627.42 181.921 621.95 192.617C619.522 197.361 618.776 202.51 618.845 207.185M668.165 210.408C668.13 227.599 654.504 241.378 637.676 241.267C622.09 241.169 610.48 228.073 610.571 210.994C610.669 191.989 624.587 180.882 640.857 180.554C656.43 180.226 668.214 193.266 668.172 210.408" fill="#231F20"/>
<path d="M407.456 237.499C415.988 237.499 423.872 237.596 431.77 237.464C436.061 237.401 436.319 236.962 436.333 232.329C436.347 218.068 436.333 203.821 436.333 189.575C436.333 188.891 436.298 188.214 436.284 187.53C436.249 185.458 435.461 184.196 433.382 184.223C430.682 184.237 427.989 184.189 425.302 184.209C422.644 184.223 421.535 185.842 421.235 188.577C420.6 194.472 420.119 200.431 419.03 206.235C416.958 217.175 415.339 228.38 407.47 237.513M453.238 238.748C452.931 244.783 452.638 250.441 452.352 256.106C452.094 256.155 451.849 256.204 451.605 256.253C451.396 255.569 451.068 254.892 451.005 254.194C450.273 244.873 446.149 240.401 437.533 240.206C428.805 239.996 420.077 240.045 411.342 240.157C403.59 240.241 399.844 244.273 399.167 252.918C399.083 253.971 399.069 255.025 399.021 256.239C397.744 255.206 396.314 241.762 396.962 238.496C404.7 238.189 407.937 232.022 410.707 225.54C415.388 214.601 417.44 202.956 417.928 190.977C418.137 185.926 416.002 183.623 411.405 183.219C410.546 183.142 409.688 182.912 408.844 182.751C408.872 182.458 408.893 182.165 408.921 181.865H450.768C450.817 182.095 450.866 182.347 450.929 182.577C450.119 182.786 449.338 183.114 448.528 183.191C444.866 183.498 443.561 184.586 443.54 188.563C443.442 203.898 443.505 219.24 443.512 234.575C443.526 237.199 444.663 238.51 447.175 238.462C449.052 238.427 450.928 238.622 453.245 238.741" fill="#231F20"/>
<path d="M169.397 219.504C168.86 218.611 168.511 218.276 168.441 217.886C167.409 212.995 166.174 211.474 161.722 211.041C158.255 210.7 154.746 210.965 151.118 210.965C151.118 218.869 151.02 226.649 151.243 234.407C151.271 235.391 152.897 237.065 153.846 237.114C157.941 237.309 162.148 237.553 166.132 236.758C170.102 235.963 172.285 232.293 173.709 228.295C174.037 227.339 174.337 226.356 175.265 225.414C175.425 225.944 175.753 226.481 175.718 227.004C175.488 230.695 175.286 234.407 174.825 238.077C174.741 238.837 173.597 240.016 172.934 240.016C161.136 240.142 149.359 240.1 137.562 240.093C137.241 240.093 136.934 239.96 136.62 239.898C136.585 239.64 136.543 239.395 136.494 239.137C137.401 238.907 138.294 238.558 139.201 238.46C142.424 238.119 143.492 237.163 143.506 233.779C143.569 218.542 143.569 203.297 143.52 188.06C143.506 184.662 142.271 183.511 139.006 183.204C138.169 183.12 137.352 182.834 136.529 182.653C136.564 182.373 136.606 182.101 136.627 181.822H172.809V194.709C172.578 194.743 172.341 194.785 172.125 194.834C171.797 193.802 171.448 192.79 171.141 191.743C169.732 187.097 166.948 184.634 162.462 184.362C159.86 184.215 157.236 184.327 154.641 184.439C152.715 184.515 151.173 185.555 151.125 187.725C150.999 194.52 151.076 201.323 151.076 208.209C154.976 208.209 158.736 208.404 162.476 208.146C166.104 207.902 168.483 205.781 168.532 201.197C168.825 201.323 169.111 201.455 169.404 201.574V219.497L169.397 219.504Z" fill="#231F20"/>
<path d="M229.19 179.423C228.883 185.249 228.562 191.242 228.248 197.249C227.99 197.298 227.732 197.347 227.488 197.409C227.244 196.489 226.902 195.595 226.762 194.661C225.367 184.802 219.185 183.016 211.769 184.077C209.662 184.384 208.811 186.016 208.811 188.27C208.811 194.033 208.748 199.796 208.748 205.558C208.748 214.642 208.713 223.726 208.825 232.803C208.887 237.352 209.746 238.133 213.939 238.489C214.908 238.573 215.85 238.845 216.82 239.026C216.792 239.285 216.757 239.543 216.736 239.801H193.378C193.315 239.578 193.252 239.361 193.196 239.138C194.055 238.929 194.899 238.601 195.771 238.524C200.404 238.133 201.352 237.115 201.352 232.015C201.38 217.852 201.38 203.682 201.352 189.519C201.352 185.046 200.334 183.937 196.322 183.832C188.857 183.623 185.25 186.386 182.885 194.081C182.543 195.212 182.138 196.314 181.754 197.43C181.447 197.382 181.126 197.319 180.812 197.256C181.203 191.284 181.608 185.312 182.04 178.928C185.424 182.828 189.631 181.53 193.469 181.6C203.362 181.774 213.269 181.649 223.162 181.405C225.053 181.356 226.916 180.205 229.197 179.416" fill="#231F20"/>
<path d="M557.688 179.423C557.381 185.248 557.06 191.241 556.746 197.248C556.488 197.297 556.23 197.346 555.986 197.409C555.742 196.488 555.4 195.595 555.26 194.66C553.865 184.802 547.683 183.016 540.267 184.076C538.16 184.383 537.309 186.016 537.309 188.269C537.309 194.032 537.246 199.795 537.246 205.558C537.246 214.642 537.211 223.726 537.323 232.803C537.385 237.351 538.244 238.133 542.437 238.489C543.393 238.572 544.348 238.844 545.304 239.026C545.276 239.284 545.255 239.542 545.227 239.8H521.869C521.806 239.577 521.743 239.361 521.688 239.138C522.546 238.928 523.39 238.6 524.262 238.524C528.895 238.133 529.843 237.114 529.843 232.014C529.871 217.851 529.871 203.681 529.843 189.518C529.843 185.046 528.825 183.937 524.813 183.832C517.348 183.623 513.741 186.385 511.376 194.081C511.034 195.211 510.629 196.314 510.245 197.43C509.938 197.381 509.631 197.332 509.311 197.283C509.506 194.304 509.666 191.325 509.876 188.346C510.071 185.339 510.301 182.353 510.552 178.955C513.915 182.827 518.115 181.53 521.953 181.606C531.846 181.781 541.753 181.655 551.646 181.411C553.537 181.362 555.4 180.211 557.681 179.423" fill="#231F20"/>
<path d="M503.393 223.823C503.47 224.339 503.652 224.877 503.617 225.379C503.435 227.326 503.212 229.251 502.968 231.191C502.096 238.035 502.082 238.007 495.761 239.709C487.165 242.04 478.584 242.158 470.379 238.265C459.341 233.019 454.074 223.286 453.983 210.448C453.9 198.092 460.053 189.727 469.884 184.453C479.114 179.499 488.763 179.625 498.524 182.59C500.805 183.274 502.005 184.662 502.117 187.299C502.263 190.683 502.598 194.067 502.849 197.437C502.626 197.548 502.41 197.66 502.186 197.765C501.796 197.165 501.3 196.627 501.035 195.971C496.975 186.434 489.928 182.255 479.553 183.26C471.607 184.02 465.356 190.125 463.053 199.397C459.69 212.897 464.756 228.958 474.551 235.9C484.507 242.94 495.998 239.089 501.196 226.949C501.663 225.86 502.131 224.751 502.605 223.649C502.863 223.712 503.135 223.76 503.386 223.823" fill="#231F20"/>
<path d="M415.45 278.098C415.953 280.247 416.26 282.473 416.992 284.524C418.709 289.268 423.132 292.456 427.193 292.149C431.707 291.808 435.111 288.996 436.095 284.266C436.576 281.963 436.576 279.424 436.318 277.059C435.621 270.57 430.179 266 424.144 266.537C418.869 267.005 415.632 271.428 415.45 278.098ZM426.732 265.212C433.981 265.016 439.458 270.863 439.59 278.928C439.716 286.519 433.437 293.259 426.076 293.447C418.416 293.622 412.918 287.782 412.716 279.228C412.52 271.477 418.562 265.435 426.732 265.212Z" fill="#231F20"/>
<path d="M628.713 278.502C631.252 277.56 633.666 277.337 635.103 275.927C636.855 274.211 636.478 271.427 635.41 269.097C634.392 266.85 632.494 266.23 630.422 266.557C628.203 266.913 628.789 268.999 628.741 270.541C628.657 272.774 628.713 275.006 628.713 278.495M648.555 292.476C644.18 293.704 641.299 292.539 639.178 288.96C637.769 286.581 635.941 284.488 634.629 282.067C633.269 279.569 631.713 278.23 628.741 279.653C628.741 282.827 628.51 286.246 628.873 289.595C628.999 290.732 630.575 291.695 631.385 292.609H623.034C626.968 292.281 626.368 289.128 626.368 286.358C626.368 281.181 626.382 275.997 626.368 270.82C626.354 267.143 626.222 266.997 622.971 266.188C622.985 265.943 623.006 265.699 623.006 265.455C627.31 265.727 631.699 265.504 635.892 266.411C639.052 267.095 639.708 271.839 637.511 275.237C636.848 276.255 635.955 277.099 635.013 278.216C638.878 283.448 641.459 289.972 648.548 292.476" fill="#231F20"/>
<path d="M449.345 277.699C450.594 277.699 451.494 277.761 452.373 277.685C455.38 277.454 456.894 275.599 456.81 272.34C456.727 268.831 454.885 266.661 451.982 266.48C450.315 266.382 449.38 267.066 449.359 268.908C449.331 271.713 449.345 274.538 449.345 277.699ZM449.345 279.771C449.345 282.799 449.073 286.05 449.471 289.21C449.645 290.536 451.215 291.652 452.01 292.692H443.701C448.327 291.806 446.903 287.871 446.973 284.773C447.071 280.287 446.938 275.787 447.036 271.301C447.085 268.552 446.875 266.201 443.617 265.929C447.664 265.929 451.759 265.475 455.729 266.054C459.385 266.591 460.55 271.587 458.192 275.201C457.529 276.234 456.622 277.064 455.638 278.208C459.462 283.434 462.064 289.929 468.594 292.308C465.469 293.669 463.076 293.215 461.101 290.578C459.001 287.794 456.922 284.948 455.115 281.92C453.741 279.617 452.331 278.18 449.338 279.771" fill="#231F20"/>
<path d="M667.224 275.09V282.493C665.543 277.358 661.719 279.939 658.454 279.29C658.454 282.946 658.378 286.232 658.517 289.525C658.545 290.202 659.229 291.144 659.829 291.437C663.645 293.237 667.601 291.353 669.185 287.111C669.282 286.881 669.443 286.658 670.057 286.484C669.959 288.507 669.848 290.516 669.729 292.881H652.761C656.675 292.232 655.915 289.03 655.922 286.344C655.95 281.167 655.894 275.997 655.95 270.82C655.977 268.295 655.887 265.965 652.691 265.832H668.689V271.462C666.596 266.948 665.354 266.286 660.854 266.851C659.25 267.046 658.391 267.709 658.426 269.572C658.475 272.293 658.44 275.014 658.44 277.686C663.087 278.872 665.32 278.272 667.231 275.076" fill="#231F20"/>
<path d="M592.703 265.775H601.459C598.159 266.403 598.306 268.964 598.382 271.65C598.494 275.355 598.347 279.066 598.466 282.785C598.647 288.45 601.85 291.834 606.755 291.736C610.285 291.66 613.18 289.406 613.508 285.548C613.948 280.322 613.962 275.027 613.738 269.794C613.676 268.406 612.071 267.108 611.227 265.831H618.106C614.464 267.031 615.224 270.303 615.204 273.178C615.169 276.499 615.252 279.82 615.169 283.134C615.008 289.336 611.799 293.139 606.587 293.46C600.552 293.829 596.582 290.515 596.031 284.09C595.654 279.736 595.801 275.313 595.871 270.924C595.919 268.35 595.71 266.229 592.71 265.789" fill="#231F20"/>
<path d="M514.389 265.872H523.145C519.845 266.151 520.005 268.67 520.054 271.182C520.117 275.096 519.991 279.003 520.131 282.903C520.326 288.421 523.5 291.777 528.259 291.728C531.866 291.694 534.796 289.545 535.138 285.707C535.619 280.398 535.577 275.005 535.382 269.668C535.333 268.356 533.798 267.107 533.003 265.914H539.798C536.833 266.968 536.757 269.556 536.833 272.361C536.931 275.968 536.917 279.582 536.833 283.189C536.659 289.342 533.401 293.166 528.203 293.452C522.266 293.759 518.345 290.57 517.731 284.319C517.305 279.868 517.472 275.347 517.521 270.868C517.556 268.328 517.445 266.137 514.396 265.865" fill="#231F20"/>
<path d="M378.295 292.732H368.032C372.099 292.034 371.171 288.651 371.192 285.818C371.22 280.85 371.206 275.876 371.192 270.894C371.178 267.106 371.164 267.106 367.906 265.871H383.897V271.25C382.893 266.359 379.46 266.569 375.992 266.883C374.534 267.015 373.662 267.706 373.69 269.457C373.739 272.374 373.704 275.29 373.704 278.171C377.723 279.309 380.116 278.625 382.216 275.213V282.95C380.437 278.429 376.969 280.132 373.718 279.957C373.718 283.216 373.585 286.32 373.816 289.397C373.878 290.22 374.946 291.176 375.755 291.665C376.467 292.097 377.458 291.972 378.33 292.097C378.316 292.306 378.316 292.516 378.302 292.725" fill="#231F20"/>
<path d="M509.665 285.927C510.056 291.055 509.337 292.067 505.068 292.939C499.354 294.104 493.981 293.525 489.984 288.487C486.746 284.406 485.728 279.466 487.632 274.303C489.607 268.91 493.751 266.308 498.802 265.429C500.728 265.101 502.765 265.233 504.726 265.464C508.982 265.945 509.937 267.55 509.128 272.427C505.312 266.936 501.844 265.366 496.954 266.894C491.609 268.575 489.23 273.027 489.851 280.157C490.388 286.422 495.6 292.297 500.714 292.408C504.279 292.485 506.951 290.95 508.5 287.343C508.682 286.911 508.94 286.52 509.177 286.115C509.212 286.052 509.337 286.052 509.665 285.92" fill="#231F20"/>
<path d="M587.682 265.26C587.556 267.395 587.41 269.885 587.249 272.53C586.328 270.653 585.889 268.497 584.661 267.604C583.433 266.697 581.403 266.83 579.756 266.99C579.059 267.067 577.928 268.351 577.914 269.111C577.768 275.844 577.886 282.583 577.789 289.33C577.754 292.288 580.084 291.625 581.417 292.693H571.538C571.503 292.581 571.475 292.47 571.454 292.365C571.984 292.19 572.493 291.897 573.038 291.877C574.642 291.779 575.235 290.823 575.235 289.204C575.221 282.562 575.298 275.913 575.124 269.278C575.11 268.434 573.972 267.109 573.149 266.885C569.542 265.943 567.728 267.374 565.279 273.116C565.454 269.892 565.586 267.437 565.698 265.267H587.682V265.26Z" fill="#231F20"/>
<path d="M389.217 265.839H398.412C395 266.181 394.854 268.644 394.903 271.49C394.986 276.96 394.979 282.43 394.903 287.893C394.868 290.551 395.726 292.009 398.363 291.716C398.719 291.681 399.089 291.702 399.445 291.716C403.233 291.898 407.084 292.219 408.249 286.728V292.623H389.035C391.389 291.512 392.57 289.493 392.579 286.567C392.579 281.39 392.579 276.221 392.565 271.044C392.565 267.109 392.517 267.046 389.217 265.832" fill="#231F20"/>
<path d="M544.787 265.839H553.955C549.824 266.118 550.543 269.446 550.536 272.251C550.508 277.525 550.564 282.793 550.508 288.067C550.48 290.593 551.352 291.967 553.843 291.73C554.471 291.667 555.106 291.667 555.734 291.73C559.439 292.072 562.676 291.556 563.792 286.742V292.686H544.913C549.078 292.267 548.136 288.87 548.164 286.114C548.213 281.035 548.087 275.948 548.213 270.883C548.29 268.1 547.745 266.188 544.794 265.832" fill="#231F20"/>
<path d="M482.58 292.755C482.287 292.804 481.98 292.881 481.687 292.881C478.931 292.895 476.169 292.895 473.092 292.588C477.871 292.267 476.804 288.625 476.831 285.695C476.866 280.818 476.845 275.934 476.831 271.043C476.831 267.157 476.72 267.025 473.336 265.908H482.532C481.562 266.634 480.104 267.157 479.587 268.225C479.022 269.411 479.259 271.078 479.245 272.543C479.217 277.225 479.245 281.92 479.218 286.609C479.204 289.33 478.813 292.274 482.58 292.762" fill="#231F20"/>
</svg>
