<svg width="700" height="428" viewBox="0 0 700 428" fill="none" xmlns="http://www.w3.org/2000/svg">
<path fill-rule="evenodd" clip-rule="evenodd" d="M191.039 126.217C153.694 150.334 131.051 174.027 123.112 197.288C120.472 196.546 117.911 195.61 115.447 194.497C126.698 168.543 150.444 142.863 188.911 120.795C189.706 122.552 190.421 124.363 191.039 126.217Z" fill="#FFCB05"/>
<path fill-rule="evenodd" clip-rule="evenodd" d="M115.449 194.496C111.563 192.748 107.916 190.567 104.569 188.015C91.1991 177.833 82.5449 161.761 82.5449 143.728C82.5449 113.067 107.554 88.0674 138.206 88.0674C157.89 88.0674 175.242 98.373 185.133 113.871C186.554 116.079 187.817 118.392 188.912 120.794C150.445 142.863 126.699 168.543 115.449 194.496Z" fill="#FFCB05"/>
<path fill-rule="evenodd" clip-rule="evenodd" d="M193.868 143.727C193.868 174.379 168.868 199.379 138.207 199.379C132.979 199.379 127.919 198.655 123.115 197.286C131.054 174.026 153.696 150.333 191.042 126.216C192.87 131.726 193.868 137.616 193.868 143.727Z" fill="#FFCB05"/>
<path fill-rule="evenodd" clip-rule="evenodd" d="M176.789 283.76C175.888 284.396 174.97 285.023 174.043 285.641C172.806 271.309 172.188 264.147 172.188 264.147C172.745 263.838 173.283 263.52 173.822 263.193C202.231 246.176 213.552 211.683 207.812 159.731C206.461 147.483 204.156 134.254 200.906 120.054C200.518 118.35 200.111 116.637 199.696 114.906C195.979 116.84 192.384 118.8 188.914 120.796C150.447 142.864 126.701 168.544 115.45 194.498C113.675 198.605 112.2 202.711 111.044 206.817C110.796 207.691 110.558 208.566 110.337 209.44C107.087 206.128 103.361 204.654 101.029 204.009C100.703 203.921 100.376 203.841 100.04 203.762C99.2191 203.585 98.7246 203.541 98.7246 203.541C98.7334 203.506 98.7423 203.479 98.7511 203.444C100.226 198.26 102.169 193.112 104.571 188.016C117.843 159.846 145.122 133.495 185.134 113.873C190.539 111.215 196.182 108.68 202.045 106.287C230.993 192.264 222.577 251.422 176.789 283.76Z" fill="#0095DA"/>
<path fill-rule="evenodd" clip-rule="evenodd" d="M77.4509 209.721C73.8567 269.567 93.4435 309.792 136.22 330.385C82.4315 314.922 62.8447 274.698 77.4509 209.721Z" fill="#A2C241"/>
<path fill-rule="evenodd" clip-rule="evenodd" d="M163.648 338.218C155.815 339.26 151.894 339.781 151.894 339.781C154.985 310.312 140.882 275.572 109.586 235.568C144.379 273.488 162.403 307.707 163.648 338.218Z" fill="#A6CE39"/>
<path fill-rule="evenodd" clip-rule="evenodd" d="M172.706 259.474C172.441 259.668 172.176 259.862 171.903 260.057C164.873 240.461 147.803 223.841 120.71 210.18C120.551 210.101 120.401 210.021 120.242 209.942C120.71 205.738 121.664 201.517 123.112 197.287C131.051 174.027 153.693 150.334 191.039 126.217C194.218 124.168 197.503 122.11 200.903 120.053C201.468 119.708 202.042 119.364 202.616 119.02C205.363 133.582 207.093 147.155 207.809 159.73C210.529 207.107 198.819 240.355 172.706 259.474Z" fill="#0095DA"/>
<path fill-rule="evenodd" clip-rule="evenodd" d="M257.979 127.911V214.886H272.267V185.064H290.034C298.238 185.064 305.064 182.327 310.54 176.86C316.13 171.27 318.867 164.559 318.867 156.488C318.867 148.416 316.138 141.572 310.54 136.106C305.073 130.64 298.238 127.902 290.034 127.902H257.979V127.911ZM272.267 171.641V141.325H290.034C298.486 141.325 304.57 147.666 304.57 156.488C304.57 165.31 298.477 171.641 290.034 171.641H272.267ZM403.237 203.45C412.059 194.628 416.404 183.943 416.404 171.394C416.404 158.845 412.05 148.16 403.237 139.462C394.538 130.64 383.853 126.295 371.305 126.295C358.756 126.295 348.071 130.64 339.249 139.462C330.55 148.16 326.205 158.845 326.205 171.394C326.205 183.943 330.559 194.628 339.249 203.45C348.071 212.148 358.756 216.493 371.305 216.493C383.853 216.493 394.538 212.148 403.237 203.45ZM349.307 193.762C343.47 187.802 340.485 180.34 340.485 171.394C340.485 162.448 343.47 154.995 349.307 149.149C355.268 143.188 362.597 140.204 371.296 140.204C379.994 140.204 387.324 143.188 393.161 149.149C399.122 154.986 402.106 162.44 402.106 171.394C402.106 180.348 399.122 187.793 393.161 193.762C387.324 199.6 379.994 202.584 371.296 202.584C362.597 202.584 355.268 199.6 349.307 193.762ZM470.581 216.502C478.537 216.502 485.867 214.639 492.446 210.912C499.157 207.062 504.376 201.966 507.979 195.626L495.554 188.543C491.077 197.118 481.513 202.584 470.581 202.584C461.264 202.584 453.802 199.6 447.965 193.762C442.251 187.925 439.39 180.472 439.39 171.394C439.39 162.316 442.251 154.872 447.965 149.026C453.802 143.188 461.264 140.204 470.581 140.204C481.513 140.204 490.962 145.67 495.554 154.245L507.979 147.039C500.526 134.243 486.361 126.286 470.581 126.286C457.538 126.286 446.605 130.631 438.03 139.329C429.456 147.904 425.111 158.589 425.111 171.385C425.111 184.181 429.464 194.866 438.03 203.565C446.605 212.139 457.538 216.484 470.581 216.484V216.502ZM591.227 214.886L559.79 127.911H542.64L511.079 214.886H526.612L532.697 197.365H569.724L575.809 214.886H591.219H591.227ZM551.215 144.681L565.009 183.943H537.421L551.215 144.681Z" fill="#0095DA"/>
<path fill-rule="evenodd" clip-rule="evenodd" d="M78.6152 199.619C153.271 210.649 185.371 246.899 174.915 308.371C172.664 254.344 140.563 218.093 78.6152 199.619Z" fill="#A2C241"/>
<path d="M272.506 272.515L270.775 267.94H261.944L260.213 272.515H258.244L265.397 253.891H267.313L274.466 272.515H272.497H272.506ZM262.615 266.183H270.113L266.36 256.204L262.607 266.183H262.615Z" fill="#231F20"/>
<path d="M278.44 270.035C276.603 268.172 275.676 265.884 275.676 263.2C275.676 260.515 276.603 258.228 278.44 256.365C280.277 254.501 282.617 253.574 285.434 253.574C288.869 253.574 291.924 255.358 293.496 258.149L291.845 259.102C290.671 256.842 288.198 255.376 285.434 255.376C283.12 255.376 281.204 256.118 279.738 257.636C278.272 259.155 277.53 260.992 277.53 263.2C277.53 265.408 278.272 267.244 279.738 268.763C281.204 270.282 283.12 271.024 285.434 271.024C288.198 271.024 290.671 269.558 291.845 267.297L293.496 268.225C291.977 271.015 288.869 272.825 285.434 272.825C282.617 272.825 280.268 271.889 278.44 270.035Z" fill="#231F20"/>
<path d="M298.795 270.035C296.958 268.172 296.031 265.884 296.031 263.2C296.031 260.515 296.958 258.228 298.795 256.365C300.632 254.501 302.972 253.574 305.789 253.574C309.224 253.574 312.28 255.358 313.852 258.149L312.2 259.102C311.026 256.842 308.553 255.376 305.789 255.376C303.476 255.376 301.559 256.118 300.093 257.636C298.628 259.155 297.886 260.992 297.886 263.2C297.886 265.408 298.628 267.244 300.093 268.763C301.559 270.282 303.476 271.024 305.789 271.024C308.553 271.024 311.026 269.558 312.2 267.297L313.852 268.225C312.333 271.015 309.224 272.825 305.789 272.825C302.972 272.825 300.623 271.889 298.795 270.035Z" fill="#231F20"/>
<path d="M326.01 272.833C323.326 272.833 321.039 271.897 319.175 270.043C317.312 268.153 316.385 265.892 316.385 263.208C316.385 260.523 317.312 258.262 319.175 256.399C321.039 254.509 323.326 253.582 326.01 253.582C328.695 253.582 330.982 254.509 332.845 256.399C334.709 258.262 335.636 260.523 335.636 263.208C335.636 265.892 334.709 268.153 332.845 270.043C330.982 271.906 328.695 272.833 326.01 272.833ZM326.01 271.023C328.218 271.023 330.055 270.281 331.547 268.762C333.04 267.243 333.782 265.38 333.782 263.199C333.782 261.018 333.04 259.181 331.547 257.662C330.055 256.143 328.218 255.375 326.01 255.375C323.803 255.375 321.966 256.143 320.473 257.662C318.981 259.181 318.239 261.018 318.239 263.199C318.239 265.38 318.981 267.243 320.473 268.762C321.966 270.281 323.803 271.023 326.01 271.023Z" fill="#231F20"/>
<path d="M352.674 270.759H354.67V276.075H352.807V272.507H339.375V253.883H341.238V270.75H350.82V253.883H352.683V270.75L352.674 270.759Z" fill="#231F20"/>
<path d="M370.238 272.515V257.352L359.862 272.515H358.264V253.891H360.127V269.053L370.503 253.891H372.102V272.515H370.238Z" fill="#231F20"/>
<path d="M389.285 272.515L387.554 267.94H378.724L376.993 272.515H375.023L382.176 253.891H384.093L391.246 272.515H389.276H389.285ZM379.386 266.183H386.883L383.13 256.204L379.377 266.183H379.386Z" fill="#231F20"/>
<path d="M407.485 270.759H409.481V276.075H407.617V272.507H394.186V253.883H396.049V270.75H405.63V253.883H407.494V270.75L407.485 270.759Z" fill="#231F20"/>
<path d="M425.043 272.515V257.352L414.667 272.515H413.068V253.891H414.932V269.053L425.308 253.891H426.906V272.515H425.043Z" fill="#231F20"/>
<path d="M443.939 253.892V272.516H442.076V265.071H437.607L432.503 272.516H430.375L435.559 264.983C434.225 264.745 433.113 264.135 432.229 263.093C431.355 262.06 430.896 260.833 430.896 259.473C430.896 257.927 431.426 256.629 432.521 255.534C433.607 254.448 434.941 253.883 436.486 253.883H443.93L443.939 253.892ZM442.076 263.305V255.64H436.486C435.453 255.64 434.57 256.011 433.854 256.762C433.139 257.503 432.768 258.413 432.768 259.473C432.768 260.532 433.139 261.416 433.854 262.184C434.57 262.926 435.453 263.305 436.486 263.305H442.076Z" fill="#231F20"/>
<path d="M466.767 253.891H468.683L462.484 268.444C461.23 271.42 459.393 272.7 456.549 272.515V270.81C458.545 271.022 459.764 270.281 460.62 268.285L460.991 267.411L454.58 253.899H456.496L461.866 265.335L466.758 253.899L466.767 253.891Z" fill="#231F20"/>
<path d="M482.115 253.892H483.978V272.516H482.115V264.665C480.49 265.46 478.812 265.857 477.064 265.857C475.315 265.857 473.867 265.354 472.807 264.365C471.739 263.376 471.209 262.104 471.209 260.532V253.883H473.072V260.532C473.072 262.687 474.538 264.1 477.064 264.1C478.821 264.1 480.499 263.703 482.115 262.908V253.892Z" fill="#231F20"/>
<path d="M501.17 272.515L499.439 267.94H490.608L488.877 272.515H486.908L494.061 253.891H495.977L503.13 272.515H501.161H501.17ZM491.271 266.183H498.768L495.015 256.204L491.262 266.183H491.271Z" fill="#231F20"/>
<path d="M507.108 270.035C505.271 268.172 504.344 265.884 504.344 263.2C504.344 260.515 505.271 258.228 507.108 256.365C508.945 254.501 511.285 253.574 514.102 253.574C517.537 253.574 520.592 255.358 522.164 258.149L520.513 259.102C519.338 256.842 516.866 255.376 514.102 255.376C511.788 255.376 509.872 256.118 508.406 257.636C506.94 259.155 506.198 260.992 506.198 263.2C506.198 265.408 506.94 267.244 508.406 268.763C509.872 270.282 511.788 271.024 514.102 271.024C516.866 271.024 519.338 269.558 520.513 267.297L522.164 268.225C520.645 271.015 517.537 272.825 514.102 272.825C511.285 272.825 508.936 271.889 507.108 270.035Z" fill="#231F20"/>
<path d="M537.193 253.891V255.648H531.47V272.515H529.607V255.648H523.885V253.891H537.184H537.193Z" fill="#231F20"/>
<path d="M552.363 253.891H554.227V272.515H552.363V263.816H542.252V272.515H540.389V253.891H542.252V262.059H552.363V253.891Z" fill="#231F20"/>
<path d="M570.988 272.515V257.352L560.612 272.515H559.014V253.891H560.877V269.053L571.253 253.891H572.852V272.515H570.988Z" fill="#231F20"/>
<path d="M590.673 272.515H588.227L579.502 263.499V272.515H577.639V253.891H579.502V262.404L587.962 253.891H590.408L581.471 262.933L590.673 272.515Z" fill="#231F20"/>
<path d="M600.571 272.833C597.886 272.833 595.599 271.897 593.736 270.043C591.873 268.153 590.945 265.892 590.945 263.208C590.945 260.523 591.873 258.262 593.736 256.399C595.599 254.509 597.886 253.582 600.571 253.582C603.255 253.582 605.543 254.509 607.406 256.399C609.269 258.262 610.197 260.523 610.197 263.208C610.197 265.892 609.269 268.153 607.406 270.043C605.543 271.906 603.255 272.833 600.571 272.833ZM600.571 271.023C602.779 271.023 604.615 270.281 606.108 268.762C607.6 267.243 608.342 265.38 608.342 263.199C608.342 261.018 607.6 259.181 606.108 257.662C604.615 256.143 602.779 255.375 600.571 255.375C598.363 255.375 596.526 256.143 595.034 257.662C593.542 259.181 592.8 261.018 592.8 263.199C592.8 265.38 593.542 267.243 595.034 268.762C596.526 270.281 598.363 271.023 600.571 271.023Z" fill="#231F20"/>
<path d="M627.23 267.322C627.23 268.762 626.727 269.98 625.711 270.996C624.704 272.011 623.477 272.515 622.037 272.515H613.922V253.891H621.419C622.806 253.891 623.971 254.394 624.96 255.383C625.941 256.363 626.426 257.538 626.426 258.898C626.426 260.629 625.711 261.953 624.245 262.863C626.055 263.631 627.221 265.309 627.221 267.331L627.23 267.322ZM615.794 255.648V262.139H621.437C622.311 262.139 623.035 261.821 623.645 261.211C624.254 260.576 624.572 259.798 624.572 258.898C624.572 257.997 624.254 257.246 623.645 256.611C623.035 255.975 622.311 255.657 621.437 255.657H615.794V255.648ZM622.046 270.758C622.973 270.758 623.751 270.44 624.386 269.777C625.049 269.115 625.367 268.285 625.367 267.331C625.367 266.377 625.049 265.574 624.386 264.911C623.751 264.249 622.973 263.905 622.046 263.905H615.794V270.766H622.046V270.758Z" fill="#231F20"/>
<path d="M266.767 285.814C268.445 285.814 269.822 286.371 270.944 287.492C272.065 288.614 272.622 289.991 272.622 291.669C272.622 293.347 272.065 294.725 270.944 295.846C269.822 296.968 268.445 297.524 266.767 297.524H261.98V304.439H260.117V285.814H266.767ZM266.767 295.767C267.915 295.767 268.869 295.396 269.61 294.619C270.379 293.851 270.758 292.861 270.758 291.669C270.758 290.477 270.387 289.515 269.61 288.746C268.869 287.978 267.906 287.572 266.767 287.572H261.98V295.767H266.767Z" fill="#231F20"/>
<path d="M276.338 304.439V285.814H278.201V292.729H282.988C284.665 292.729 286.043 293.285 287.164 294.407C288.286 295.528 288.842 296.906 288.842 298.584C288.842 300.262 288.286 301.639 287.164 302.761C286.043 303.882 284.665 304.439 282.988 304.439H276.338ZM278.201 302.681H282.988C284.136 302.681 285.089 302.31 285.831 301.533C286.599 300.765 286.979 299.776 286.979 298.584C286.979 297.392 286.608 296.429 285.831 295.661C285.089 294.893 284.127 294.486 282.988 294.486H278.201V302.681ZM290.838 304.439V285.814H292.701V304.439H290.838Z" fill="#231F20"/>
<path d="M309.461 285.814H311.324V304.439H309.461V295.74H299.35V304.439H297.486V285.814H299.35V293.983H309.461V285.814Z" fill="#231F20"/>
<path d="M329.155 304.439H326.709L317.984 295.422V304.439H316.121V285.814H317.984V294.327L326.444 285.814H328.89L319.954 294.857L329.155 304.439Z" fill="#231F20"/>
<path d="M344.742 304.439L343.011 299.864H334.181L332.45 304.439H330.48L337.633 285.814H339.55L346.703 304.439H344.733H344.742ZM334.852 298.107H342.349L338.596 288.128L334.843 298.107H334.852Z" fill="#231F20"/>
<path d="M369.221 304.439L367.49 299.864H358.659L356.928 304.439H354.959L362.112 285.814H364.028L371.181 304.439H369.212H369.221ZM359.321 298.107H366.819L363.066 288.128L359.313 298.107H359.321Z" fill="#231F20"/>
<path d="M387.421 299.256C387.421 300.695 386.918 301.914 385.902 302.93C384.896 303.936 383.668 304.448 382.229 304.448H374.113V285.824H381.611C382.997 285.824 384.163 286.328 385.152 287.317C386.132 288.297 386.618 289.471 386.618 290.831C386.618 292.562 385.902 293.887 384.437 294.796C386.247 295.565 387.413 297.242 387.413 299.265L387.421 299.256ZM375.985 287.573V294.063H381.628C382.503 294.063 383.227 293.745 383.836 293.136C384.445 292.5 384.763 291.723 384.763 290.822C384.763 289.922 384.445 289.171 383.836 288.535C383.227 287.899 382.503 287.582 381.628 287.582H375.985V287.573ZM382.238 302.682C383.165 302.682 383.942 302.364 384.578 301.702C385.24 301.04 385.558 300.21 385.558 299.256C385.558 298.302 385.24 297.499 384.578 296.836C383.942 296.174 383.165 295.83 382.238 295.83H375.985V302.691H382.238V302.682Z" fill="#231F20"/>
<path d="M402.318 285.814V287.572H396.595V304.439H394.732V287.572H389.01V285.814H402.309H402.318Z" fill="#231F20"/>
<path d="M413.022 304.757C410.338 304.757 408.05 303.821 406.187 301.967C404.324 300.077 403.396 297.816 403.396 295.131C403.396 292.447 404.324 290.186 406.187 288.323C408.05 286.433 410.338 285.506 413.022 285.506C415.707 285.506 417.994 286.433 419.857 288.323C421.72 290.186 422.648 292.447 422.648 295.131C422.648 297.816 421.72 300.077 419.857 301.967C417.994 303.83 415.707 304.757 413.022 304.757ZM413.022 302.947C415.23 302.947 417.067 302.205 418.559 300.686C420.051 299.167 420.793 297.304 420.793 295.123C420.793 292.941 420.051 291.105 418.559 289.586C417.067 288.067 415.23 287.299 413.022 287.299C410.814 287.299 408.978 288.067 407.485 289.586C405.993 291.105 405.251 292.941 405.251 295.123C405.251 297.304 405.993 299.167 407.485 300.686C408.978 302.205 410.814 302.947 413.022 302.947Z" fill="#231F20"/>
<path d="M439.685 285.814V304.439H437.822V287.572H428.24V304.439H426.377V285.814H439.676H439.685Z" fill="#231F20"/>
<path d="M453.034 304.757C450.349 304.757 448.062 303.821 446.199 301.967C444.335 300.077 443.408 297.816 443.408 295.131C443.408 292.447 444.335 290.186 446.199 288.323C448.062 286.433 450.349 285.506 453.034 285.506C455.718 285.506 458.006 286.433 459.869 288.323C461.732 290.186 462.659 292.447 462.659 295.131C462.659 297.816 461.732 300.077 459.869 301.967C458.006 303.83 455.718 304.757 453.034 304.757ZM453.034 302.947C455.242 302.947 457.078 302.205 458.571 300.686C460.063 299.167 460.805 297.304 460.805 295.123C460.805 292.941 460.063 291.105 458.571 289.586C457.078 288.067 455.242 287.299 453.034 287.299C450.826 287.299 448.989 288.067 447.497 289.586C446.004 291.105 445.263 292.941 445.263 295.123C445.263 297.304 446.004 299.167 447.497 300.686C448.989 302.205 450.826 302.947 453.034 302.947Z" fill="#231F20"/>
<path d="M463.593 302.787C464.9 302.973 465.854 302.575 466.489 301.586C467.152 300.606 467.47 298.796 467.47 296.164V285.814H479.55V304.439H477.687V287.572H469.333V296.217C469.333 303.132 467.072 304.704 463.584 304.439V302.787H463.593Z" fill="#231F20"/>
<path d="M496.322 304.439V289.276L485.946 304.439H484.348V285.814H486.211V300.977L496.587 285.814H498.186V304.439H496.322Z" fill="#231F20"/>
<path d="M516.281 299.256C516.281 300.695 515.777 301.914 514.762 302.93C513.755 303.936 512.528 304.448 511.088 304.448H502.973V285.824H510.479C511.865 285.824 513.031 286.328 514.02 287.317C515 288.297 515.486 289.471 515.486 290.831C515.486 292.562 514.771 293.887 513.305 294.796C515.115 295.565 516.281 297.242 516.281 299.265V299.256ZM504.836 287.573V294.063H510.479C511.353 294.063 512.077 293.745 512.687 293.136C513.296 292.5 513.614 291.723 513.614 290.822C513.614 289.922 513.296 289.171 512.687 288.535C512.077 287.899 511.353 287.582 510.479 287.582H504.836V287.573ZM511.088 302.682C512.015 302.682 512.793 302.364 513.428 301.702C514.091 301.04 514.409 300.21 514.409 299.256C514.409 298.302 514.091 297.499 513.428 296.836C512.793 296.174 512.015 295.83 511.088 295.83H504.836V302.691H511.088V302.682Z" fill="#231F20"/>
<path d="M532.408 304.439L530.677 299.864H521.847L520.116 304.439H518.146L525.299 285.814H527.216L534.369 304.439H532.399H532.408ZM522.509 298.107H530.006L526.253 288.128L522.5 298.107H522.509Z" fill="#231F20"/>
<path d="M556.463 304.439V289.276L546.087 304.439H544.488V285.814H546.352V300.977L556.728 285.814H558.326V304.439H556.463Z" fill="#231F20"/>
<path d="M258.386 334.72C259.693 334.905 260.646 334.508 261.282 333.519C261.945 332.539 262.263 330.728 262.263 328.097V317.747H274.343V336.371H272.48V319.504H264.126V328.15C264.126 335.064 261.865 336.636 258.377 336.371V334.72H258.386Z" fill="#231F20"/>
<path d="M291.535 336.371L289.804 331.797H280.974L279.243 336.371H277.273L284.426 317.747H286.343L293.496 336.371H291.526H291.535ZM281.636 330.04H289.133L285.38 320.061L281.627 330.04H281.636Z" fill="#231F20"/>
<path d="M308.404 317.747H310.268V336.371H308.404V327.673H298.293V336.371H296.43V317.747H298.293V325.916H308.404V317.747Z" fill="#231F20"/>
<path d="M328.352 334.614H330.348V339.93H328.485V336.362H315.186V339.93H313.322V334.614H314.841C316.069 333.175 316.678 330.967 316.678 327.964V317.747H328.352V334.614ZM326.498 334.614V319.504H318.541V328.017C318.541 330.967 318.038 333.148 317.049 334.614H326.489H326.498Z" fill="#231F20"/>
<path d="M353.095 317.747H354.959V336.371H333.941V317.747H335.805V334.614H343.523V317.747H345.386V334.614H353.104V317.747H353.095Z" fill="#231F20"/>
<path d="M372.152 336.371L370.422 331.797H361.591L359.86 336.371H357.891L365.044 317.747H366.96L374.113 336.371H372.144H372.152ZM362.253 330.04H369.759L366.006 320.061L362.253 330.04Z" fill="#231F20"/>
<path d="M386.008 336.371H384.145V334.27C381.46 334.137 379.279 333.475 377.628 332.221C376.003 330.967 375.182 329.271 375.182 327.064C375.182 324.856 376.003 323.152 377.628 321.898C379.279 320.644 381.46 319.981 384.145 319.849V317.747H386.008V319.849C388.693 319.981 390.874 320.644 392.499 321.898C394.15 323.152 394.971 324.847 394.971 327.064C394.971 329.28 394.15 330.976 392.499 332.221C390.874 333.475 388.693 334.137 386.008 334.27V336.371ZM384.154 321.553C379.791 321.765 377.054 323.655 377.054 327.064C377.054 330.472 379.791 332.353 384.154 332.574V321.562V321.553ZM386.008 332.565C390.371 332.353 393.108 330.463 393.108 327.055C393.108 323.646 390.371 321.765 386.008 321.544V332.556V332.565Z" fill="#231F20"/>
<path d="M408.818 317.747V319.504H403.095V336.371H401.232V319.504H395.51V317.747H408.809H408.818Z" fill="#231F20"/>
<path d="M423.982 317.747H425.846V336.371H423.982V327.673H413.871V336.371H412.008V317.747H413.871V325.916H423.982V317.747Z" fill="#231F20"/>
<path d="M439.204 336.69C436.519 336.69 434.232 335.754 432.369 333.899C430.505 332.009 429.578 329.749 429.578 327.064C429.578 324.38 430.505 322.119 432.369 320.256C434.232 318.366 436.519 317.438 439.204 317.438C441.888 317.438 444.175 318.366 446.039 320.256C447.902 322.119 448.829 324.38 448.829 327.064C448.829 329.749 447.902 332.009 446.039 333.899C444.175 335.762 441.888 336.69 439.204 336.69ZM439.204 334.879C441.411 334.879 443.248 334.138 444.741 332.619C446.233 331.1 446.975 329.236 446.975 327.055C446.975 324.874 446.233 323.037 444.741 321.518C443.248 319.999 441.411 319.231 439.204 319.231C436.996 319.231 435.159 319.999 433.667 321.518C432.174 323.037 431.433 324.874 431.433 327.055C431.433 329.236 432.174 331.1 433.667 332.619C435.159 334.138 436.996 334.879 439.204 334.879Z" fill="#231F20"/>
<path d="M462.933 317.747V319.504H454.42V336.371H452.557V317.747H462.933Z" fill="#231F20"/>
<path d="M473.362 336.69C470.677 336.69 468.39 335.754 466.527 333.899C464.664 332.009 463.736 329.749 463.736 327.064C463.736 324.38 464.664 322.119 466.527 320.256C468.39 318.366 470.677 317.438 473.362 317.438C476.046 317.438 478.334 318.366 480.197 320.256C482.06 322.119 482.988 324.38 482.988 327.064C482.988 329.749 482.06 332.009 480.197 333.899C478.334 335.762 476.046 336.69 473.362 336.69ZM473.362 334.879C475.57 334.879 477.406 334.138 478.899 332.619C480.391 331.1 481.133 329.236 481.133 327.055C481.133 324.874 480.391 323.037 478.899 321.518C477.406 319.999 475.57 319.231 473.362 319.231C471.154 319.231 469.317 319.999 467.825 321.518C466.333 323.037 465.591 324.874 465.591 327.055C465.591 329.236 466.333 331.1 467.825 332.619C469.317 334.138 471.154 334.879 473.362 334.879Z" fill="#231F20"/>
<path d="M507.212 334.614H509.207V339.93H507.344V336.362H494.045V339.93H492.182V334.614H493.701C494.928 333.175 495.537 330.967 495.537 327.964V317.747H507.212V334.614ZM505.348 334.614V319.504H497.392V328.017C497.392 330.967 496.888 333.148 495.899 334.614H505.34H505.348Z" fill="#231F20"/>
<path d="M524.768 336.371V321.209L514.391 336.371H512.793V317.747H514.656V332.91L525.033 317.747H526.631V336.371H524.768Z" fill="#231F20"/>
<path d="M543.259 331.337C543.259 332.909 542.676 334.181 541.502 335.196C540.363 336.177 538.791 336.689 536.822 336.689C533.28 336.689 531.179 334.905 530.357 332.485L531.956 331.585C532.406 333.474 533.872 334.931 536.822 334.931C539.771 334.931 541.396 333.466 541.396 331.337C541.396 329.209 539.824 327.743 537.245 327.743H535.117V325.986H536.583C539.109 325.986 540.707 324.573 540.707 322.551C540.707 320.528 539.162 319.168 536.689 319.168C534.402 319.168 532.883 320.149 532.168 322.091L530.622 321.191C531.55 318.93 533.519 317.411 536.689 317.411C538.446 317.411 539.851 317.914 540.946 318.904C542.032 319.884 542.57 321.111 542.57 322.577C542.57 324.44 541.723 325.818 540.018 326.728C542.067 327.496 543.268 329.174 543.268 331.329L543.259 331.337Z" fill="#231F20"/>
<path d="M559.385 336.371L557.654 331.797H548.823L547.092 336.371H545.123L552.276 317.747H554.192L561.345 336.371H559.376H559.385ZM549.485 330.04H556.983L553.23 320.061L549.477 330.04H549.485Z" fill="#231F20"/>
<path d="M576.252 336.371V321.209L565.876 336.371H564.277V317.747H566.141V332.909L576.517 317.747H578.115V336.371H576.252ZM567.739 315.619V314.073H574.654V315.619H567.739Z" fill="#231F20"/>
<path d="M594.875 317.747H596.738V336.371H594.875V327.673H584.764V336.371H582.9V317.747H584.764V325.916H594.875V317.747Z" fill="#231F20"/>
<path d="M613.932 336.371L612.201 331.797H603.37L601.639 336.371H599.67L606.823 317.747H608.739L615.892 336.371H613.923H613.932ZM604.032 330.04H611.53L607.777 320.061L604.024 330.04H604.032Z" fill="#231F20"/>
</svg>
