<svg width="700" height="428" viewBox="0 0 700 428" fill="none" xmlns="http://www.w3.org/2000/svg">
<path d="M425.675 244.078V279.298C426.785 278.278 427.465 277.708 428.085 277.078C438.485 266.688 448.905 256.328 459.245 245.878C460.705 244.408 462.145 243.688 464.225 243.828C466.695 243.998 469.195 243.868 471.585 243.868C471.715 244.148 471.775 244.218 471.785 244.298C471.785 244.378 471.775 244.488 471.725 244.548C471.445 244.878 471.175 245.208 470.875 245.518C462.585 253.848 454.285 262.178 445.985 270.508C445.925 270.568 445.915 270.658 445.765 271.028C451.195 279.698 456.725 288.518 462.575 297.838C476.195 266.028 489.625 234.688 503.225 202.928C492.025 204.468 482.195 202.258 473.785 195.128C467.725 189.988 463.735 183.518 462.075 175.728C458.605 159.458 466.485 143.498 481.385 136.238C494.425 129.888 513.955 131.468 526.285 149.018C538.665 120.328 550.785 91.7677 563.035 63.3477H571.565C525.985 170.138 480.505 276.678 435.035 383.208H426.035C436.995 357.598 447.855 332.228 458.765 306.738C452.515 296.788 446.275 286.848 439.945 276.778C439.345 277.268 438.855 277.598 438.445 278.008C434.645 281.788 430.885 285.608 427.045 289.348C426.025 290.338 425.655 291.388 425.665 292.778C425.725 298.398 425.685 304.018 425.685 309.628V312.608H417.895V244.058H425.675V244.078ZM496.575 195.628C499.505 195.758 502.615 195.168 505.665 194.098C506.825 193.688 507.505 193.008 507.975 191.898C512.385 181.498 516.825 171.108 521.305 160.738C521.785 159.618 521.815 158.668 521.375 157.538C516.345 144.738 501.805 137.818 488.605 141.908C477.205 145.438 469.265 156.678 469.535 168.888C469.845 183.148 481.425 195.808 496.575 195.638V195.628Z" fill="black"/>
<path d="M349.035 243.999C349.955 243.949 350.715 243.879 351.475 243.879C360.555 243.879 369.635 243.879 378.715 243.879C383.495 243.879 387.965 244.939 391.935 247.719C398.585 252.369 401.725 260.539 399.895 268.479C398.085 276.319 391.565 282.419 383.655 283.679C382.725 283.829 381.815 284.019 380.475 284.269C388.155 293.769 395.625 303.019 403.225 312.419C401.975 313.139 400.755 312.789 399.625 312.809C397.555 312.839 395.205 313.319 393.495 312.509C391.795 311.699 390.715 309.549 389.415 307.949C383.435 300.559 377.445 293.179 371.525 285.729C370.565 284.519 369.565 284.029 368.035 284.069C364.495 284.169 360.955 284.099 357.045 284.099C356.805 293.649 357.075 303.099 356.895 312.679H349.055V244.019L349.035 243.999ZM357.075 276.189C358.145 276.239 358.915 276.299 359.675 276.299C365.895 276.299 372.105 276.319 378.325 276.299C379.525 276.299 380.745 276.189 381.935 276.029C387.715 275.219 391.875 270.709 392.305 264.829C392.715 259.099 389.305 254.099 383.725 252.479C382.345 252.079 380.845 251.929 379.395 251.919C372.655 251.859 365.925 251.889 359.185 251.899C358.525 251.899 357.855 251.999 357.075 252.059V276.189Z" fill="black"/>
<path d="M264.402 202.508V133.918C265.202 133.858 265.862 133.768 266.532 133.768C276.302 133.768 286.072 133.698 295.842 133.788C304.332 133.868 311.762 138.958 314.502 146.638C319.082 159.488 310.972 171.968 297.652 173.668C297.222 173.718 296.792 173.738 295.922 173.818C297.332 176.028 298.962 177.738 300.402 179.578C301.892 181.478 303.442 183.348 304.962 185.228C306.482 187.108 308.002 188.988 309.532 190.868C311.052 192.748 312.582 194.628 314.102 196.508C315.612 198.388 317.122 200.268 318.832 202.408C316.992 202.908 315.362 202.498 313.802 202.728C310.282 203.258 307.992 201.918 305.802 199.038C299.802 191.118 293.382 183.528 287.202 175.738C286.082 174.328 284.932 173.648 283.082 173.728C279.642 173.868 276.202 173.768 272.432 173.768V202.518H264.412L264.402 202.508ZM272.472 165.948C280.702 165.948 288.642 166.188 296.562 165.868C302.572 165.628 306.972 161.018 307.682 155.118C308.372 149.438 305.152 144.188 299.712 142.368C298.182 141.858 296.512 141.578 294.902 141.558C288.002 141.468 281.092 141.518 274.192 141.528C273.622 141.528 273.052 141.688 272.472 141.768V165.938V165.948Z" fill="black"/>
<path d="M128.444 202.559V133.999C129.074 133.919 129.724 133.769 130.374 133.769C138.324 133.749 146.284 133.669 154.234 133.779C170.584 134.019 184.764 147.069 186.984 163.289C189.324 180.339 178.854 196.779 162.044 201.389C159.324 202.139 156.434 202.559 153.614 202.619C145.744 202.789 137.874 202.689 130.014 202.689C129.594 202.689 129.164 202.629 128.434 202.569L128.444 202.559ZM136.574 141.529V194.539C137.384 194.599 138.044 194.689 138.714 194.689C143.634 194.699 148.564 194.709 153.484 194.689C154.774 194.689 156.084 194.639 157.354 194.429C169.184 192.429 178.574 181.759 179.114 169.749C179.684 156.979 171.804 145.829 159.974 142.489C156.324 141.459 152.634 141.539 148.924 141.539C144.884 141.539 140.834 141.539 136.564 141.539L136.574 141.529Z" fill="black"/>
<path d="M204.094 133.916H249.494C249.534 134.816 249.594 135.576 249.604 136.326C249.624 137.946 249.604 139.576 249.604 141.446H212.474C211.844 143.566 211.754 161.216 212.344 164.096H243.644V172.096H212.104V194.686H249.484V202.236C247.614 202.786 207.304 202.916 204.074 202.376V133.906L204.094 133.916Z" fill="black"/>
<path d="M372.845 164.099V172.089H341.265V194.509C344.395 194.889 347.485 194.649 350.555 194.689C353.665 194.729 356.775 194.689 359.895 194.689H378.655V202.519H333.565C333.005 200.529 332.755 140.329 333.265 134.189C335.035 133.659 374.745 133.469 378.635 133.999V141.469C372.475 141.589 366.295 141.509 360.105 141.519C353.895 141.529 347.685 141.519 341.285 141.519V163.899C346.535 164.309 351.765 164.019 356.995 164.069C362.235 164.119 367.485 164.079 372.845 164.079V164.099Z" fill="black"/>
<path d="M286.965 290.497C283.795 297.837 280.615 305.187 277.385 312.657H268.855C278.735 289.657 288.525 266.857 298.395 243.877C300.875 243.877 303.285 243.927 305.675 243.857C307.115 243.817 307.315 244.907 307.705 245.817C310.165 251.517 312.605 257.237 315.055 262.947C321.765 278.567 328.475 294.177 335.185 309.797C335.555 310.657 335.875 311.537 336.305 312.627H327.775C324.595 305.277 321.385 297.857 318.195 290.497H286.945H286.965ZM290.425 282.517H314.835C310.785 273.117 306.855 263.997 302.925 254.867C302.735 254.867 302.545 254.857 302.345 254.847C298.405 263.977 294.475 273.107 290.415 282.517H290.425Z" fill="black"/>
<path d="M225.205 312.807C222.775 312.807 220.795 312.817 218.815 312.807C218.315 312.807 217.825 312.707 217.195 312.647V244.047C218.035 243.987 218.795 243.887 219.545 243.887C228.705 243.877 237.865 243.867 247.035 243.887C251.805 243.887 256.275 244.987 260.235 247.757C266.845 252.377 269.955 260.567 268.125 268.537C266.345 276.277 259.925 282.377 252.115 283.627C250.245 283.927 248.335 284.057 246.445 284.067C240.395 284.117 234.345 284.087 228.295 284.087H225.215V312.817L225.205 312.807ZM225.285 276.297C226.345 276.297 227.265 276.297 228.195 276.297C234.235 276.297 240.275 276.307 246.315 276.287C247.515 276.287 248.725 276.197 249.925 276.037C255.915 275.237 260.035 270.797 260.455 264.747C260.865 258.817 257.205 253.727 251.365 252.267C250.125 251.957 248.805 251.897 247.515 251.897C240.865 251.857 234.225 251.877 227.575 251.897C226.835 251.897 226.085 252.007 225.275 252.077V276.307L225.285 276.297Z" fill="black"/>
<path d="M427.015 202.687C424.825 202.687 422.675 202.617 420.525 202.707C419.205 202.767 418.495 202.287 418.005 201.047C416.725 197.837 415.315 194.687 413.955 191.517C406.105 173.187 398.245 154.867 390.405 136.537C390.075 135.757 389.785 134.957 389.395 133.937H397.935C402.045 143.507 406.195 153.167 410.335 162.827C414.445 172.417 418.545 182.017 422.615 191.537C422.855 191.557 422.945 191.577 423.025 191.567C423.105 191.567 423.185 191.527 423.245 191.487C423.315 191.437 423.385 191.377 423.425 191.297C431.625 172.187 439.825 153.067 448.055 133.867H456.075C455.945 135.737 430.125 196.937 427.015 202.677V202.687Z" fill="black"/>
</svg>
