<svg width="700" height="428" viewBox="0 0 700 428" fill="none" xmlns="http://www.w3.org/2000/svg">
<path d="M491.199 194.641C489.541 196.035 487.772 195.079 486.059 195.047C480.369 194.951 474.711 195.445 469.069 196.067L461.769 212.802C460.916 217.002 466.694 214.181 468.877 214.149C472.719 214.093 478.775 216.723 480.544 220.301C482.138 223.536 481.476 227.585 481.277 231.027C485.604 227.911 490.059 229.465 493.836 225.13C499.917 218.157 505.192 209.2 511.36 201.916C515.305 197.254 522.047 188.385 528.852 192.202L529.179 185.046C529.633 182.623 534.766 183.341 536.431 183.827C538.097 184.313 540.519 185.954 541.324 187.524C543.763 192.25 541.013 205.008 539.89 210.403C536.088 228.597 530.327 246.408 525.354 264.29C521.13 265.477 516.325 264.728 512.309 263.007C511.137 262.505 508.786 261.716 509.177 260.234C511.121 255.421 513.066 250.559 514.62 245.595C514.946 244.535 516.931 238.526 516.445 238.032L501.192 239.809C499.885 240.503 495.183 248.99 494.107 250.87C492.816 253.133 489.756 260.25 488.131 261.437C484.728 263.916 477.771 260.935 475.396 257.915C474.854 257.222 474.344 256.672 474.432 255.731C474.512 254.903 476.998 249.468 477.564 248.32C478.743 245.906 480.297 243.587 481.62 241.244C480.711 239.347 479.867 237.721 480.17 235.49L476.105 243.037C472.32 248.639 467.315 252.942 461.681 256.624C456.342 260.114 448.564 264.975 442.508 260.577C441.496 259.835 439.83 257.405 438.938 257.453L438.475 257.596C435.471 260.847 435.304 263.924 430.475 261.15C427.63 259.517 423.302 256.106 424.641 252.376C434.395 235.769 442.978 218.508 451.441 201.207L451.497 199.542C446.11 199.422 444.094 195.876 445.552 190.863C447.09 185.596 452.286 184.902 456.98 183.827C464.494 182.105 473.874 181.037 481.588 180.751C485.971 180.583 492.769 180.041 493.765 185.755C494.139 187.923 492.896 193.214 491.199 194.649V194.641ZM510.556 226.573H520.581C522.039 220.524 524.462 214.069 525.33 207.925C525.402 207.439 525.553 207.04 524.876 207.152C522.525 207.55 511.297 222.708 510.221 225.919L510.564 226.565L510.556 226.573ZM455.896 226.963C455.346 227.067 454.748 227.218 454.422 227.72L445.09 244.479C443.687 249.117 447.504 248.344 450.421 247.26C455.314 245.451 462.088 239.658 464.71 235.131C466.798 231.521 467.475 227.417 462.183 226.883C460.717 226.74 457.298 226.7 455.896 226.955V226.963Z" fill="#204695"/>
<path d="M169.641 222.021C177.753 225.527 185.802 229.201 193.986 232.54C194.464 232.731 194.847 232.348 194.687 233.257C191.42 232.707 188.209 231.838 185.005 231.01C178.223 229.256 166.19 224.77 159.831 224.347C155.711 224.077 143.606 226.714 138.936 227.631C137.406 227.934 135.621 228.173 134.155 228.579C129.803 229.79 127.158 233.321 123.372 235.616C111.905 242.565 98.7082 237.648 86.8024 242.334C82.2123 244.143 77.4627 246.748 72.7849 248.685C63.0388 252.725 53.0535 256.24 43.1958 259.993C43.0603 259.395 43.5305 259.236 43.8333 258.877C45.8655 256.407 48.4793 254.072 50.5991 251.633C58.6797 250.908 65.6685 248.701 73.016 245.402C74.0998 244.916 80.7061 241.776 81.0807 241.369C82.0529 240.317 79.5347 236.126 79.8136 234.54L93.6558 230.053C97.3216 230.866 100.804 232.468 104.621 232.611L97.4093 228.85C87.5436 223.192 78.9609 213.932 74.4345 203.453C73.3985 201.046 72.2828 195.978 71.215 194.256C70.6093 193.284 66.0909 190.041 64.8318 188.861C61.2617 185.514 56.7432 180.773 54.0736 176.701C53.4759 175.792 52.0654 173.529 51.7944 172.612C51.6669 172.19 51.8343 172.015 52.2646 172.142C54.8466 172.915 57.8509 175.035 60.7038 174.844C56.2412 171.871 52.2885 168.453 49.8819 163.552C50.4716 163.44 50.8302 163.639 51.3322 163.846C54.743 165.273 59.1977 168.453 62.72 170.285C72.4821 175.362 83.4315 179.354 92.8589 184.701C101.338 189.515 101.322 194.177 105.848 201.946C111.148 211.047 117.523 218.626 127.939 221.869C135.278 224.156 143.646 222.586 151.041 220.929C156.715 219.654 166.636 214.577 169.649 222.005L169.641 222.021Z" fill="#204695"/>
<path d="M235.855 240.358C234.843 241.323 232.452 245.833 231.552 247.355C228.906 251.866 226.69 256.631 223.981 261.11C220.634 264.289 212.641 260.791 210.426 257.452C209.262 255.707 211.374 251.906 212.242 250.001C213.653 246.893 215.414 243.944 217.199 241.044C215.613 239.474 214.657 232.979 215.797 231.433C216.044 231.098 218.634 229.807 219.207 229.592C222.14 228.477 225.591 228.493 228.125 226.413C235.018 217.806 241.051 208.45 248.318 200.147C251.761 196.21 256.264 190.663 261.985 191.269C262.663 191.341 263.858 192.209 264.249 191.572L264.767 184.288C268.337 182.089 274.895 183.762 276.768 187.619C279.453 193.158 275.836 208.187 274.425 214.475C270.68 231.146 265.5 247.523 260.909 263.971C260.607 264.369 260.28 264.648 259.778 264.744C258.463 264.991 254.287 264.863 252.869 264.672C251.45 264.481 245.131 262.425 244.724 261.022C244.414 259.946 246.621 255.452 247.139 254.009C248.287 250.806 249.522 247.562 250.486 244.311C250.837 243.124 251.936 240.056 251.984 239.099C252 238.733 252.016 238.398 251.681 238.159C251.139 237.768 240.182 239.546 238.501 239.33C237.64 239.474 236.508 239.745 235.871 240.358H235.855ZM246.087 226.572H256.112C257.602 220.332 259.579 214.188 260.822 207.885C260.917 207.406 261.093 207.04 260.407 207.151C257.873 207.59 246.892 222.571 245.657 225.831L246.087 226.572Z" fill="#204695"/>
<path d="M414.205 180.497C419.01 179.716 420.038 186.88 422.246 187.9C424.636 189 428.414 184.673 431.012 187.414C432.661 189.151 433.466 194.706 433.697 197.136C435.952 220.533 421.959 245.445 402.363 257.765C394.912 262.451 388.13 265.375 380.265 259.478C361.314 245.277 381.197 211.568 392.8 198.236C396.107 194.435 409.838 181.198 414.205 180.497ZM414.197 197.359C413.241 197.583 408.419 202.563 407.447 203.655C399.916 212.006 391.78 225.02 388.752 235.874C386.504 243.938 384.879 256.259 396.474 246.465C405.638 238.735 418.253 216.684 419.345 204.731C419.632 201.575 418.189 196.435 414.197 197.359Z" fill="#204695"/>
<path d="M339.555 230.452C337.443 234.772 335.371 239.147 333.387 243.538C331.124 248.566 328.988 255.133 326.406 259.787C323.824 264.44 321.394 261.683 317.935 260.695C315.576 260.018 311.249 260.567 311.137 256.965C311.074 254.87 312.142 253.85 312.811 252.248C317.632 240.701 322.884 229.034 328.932 218.084C332.351 211.893 336.583 206.083 339.459 199.652C340.105 193.93 333.674 189.97 341.316 186.862C351.174 182.861 369.447 180.71 378.006 188.216C395.482 203.533 368.722 223.878 356.338 231.472C353.023 233.505 347.014 237.824 343.508 234.485C341.986 233.034 341.858 229.839 339.555 230.452ZM344.313 220.475C344.998 221.583 350.449 218.865 351.485 218.347C356.226 215.957 369.009 206.729 369.399 201.23C369.582 198.632 365.837 198.002 363.853 197.915C362.347 197.843 356.96 198.194 355.876 198.871C354.545 199.708 353.198 203.597 352.282 205.143C350.21 208.617 347.524 211.805 345.699 215.423C344.894 217.017 343.954 218.595 344.313 220.475Z" fill="#204695"/>
<path d="M581.361 209.701C579.584 210.011 578.254 211.621 577.066 212.88C563.917 226.794 552.378 245.155 544.138 262.384C541.516 265.157 537.38 261.117 535.691 259.037C530.431 252.574 534.758 248.406 538.392 242.637C550.434 223.527 566.858 203.086 583.585 187.897C585.051 186.566 588.51 183.18 590.422 183.267C593.132 183.387 599.786 188.256 599.156 191.675C594.287 214.139 589.37 237.537 582.15 259.348C581.298 261.93 580.676 263.221 577.712 263.5C572.269 264.018 568.276 262.591 567.679 256.638C567.057 250.478 572.086 237.369 574.269 231.098C576.094 225.862 580.254 217.486 581.21 212.577C581.401 211.613 581.385 210.673 581.354 209.701H581.361Z" fill="#204695"/>
<path d="M663.377 194.328C661.297 196.224 651.439 195.18 648.108 196.089C647.558 196.24 647.136 196.551 646.745 196.958C636.569 213.262 628.289 230.595 620.67 248.222C619.348 251.291 616.359 260.782 613.586 262.136C611.785 263.021 610.119 262.105 608.51 261.308C605.45 259.794 601.043 256.877 602.119 252.9C608.693 239.337 615.268 225.638 622.24 212.242C623.436 209.947 628.855 201.285 629.078 199.651C629.142 199.165 629.166 198.679 628.95 198.225C624.384 196.679 615.937 202.743 613.666 196.009C612.279 191.905 614.502 187.395 618.654 186.056C625.731 183.777 637.637 182.605 645.151 182.318C648.753 182.183 655.121 181.896 658.5 182.358C662.93 182.964 666.485 191.483 663.361 194.328H663.377Z" fill="#204695"/>
<path d="M335.581 194.012C334.075 195.678 325.078 194.897 322.464 195.056C320.958 195.144 317.85 195.399 316.743 196.331C315.571 197.319 313.627 201.344 312.814 202.906C302.932 222.007 295.712 242.926 284.524 261.502C282.045 265.367 274.18 261.151 272.403 258.506C271.781 257.581 270.833 255.135 270.777 254.059C270.689 252.433 273.981 247.939 274.953 246.201C282.531 232.662 291.162 217.075 297.131 202.818C297.76 201.328 298.78 199.543 298.31 197.909C297.792 197.184 295.258 198.547 294.708 195.471C294.405 193.781 294.796 188.458 295.728 187.095C297.545 184.433 305.721 183.238 308.893 182.76C313.188 182.106 317.826 181.565 322.162 181.389C327.031 181.198 333.764 180.576 336.283 185.724C337.287 187.772 337.143 192.291 335.581 194.02V194.012Z" fill="#204695"/>
<path d="M123.722 216.697C123.491 216.92 121.961 215.661 121.666 215.414C116.598 211.238 112.231 205.133 109.035 199.404C106.955 195.674 104.612 188.574 101.775 185.976C92.0768 177.114 73.3973 174.994 64.8545 164.659C64.5597 164.3 64.0815 164.141 64.217 163.543C69.1259 165.774 73.8994 168.237 78.8641 170.372C87.0483 173.887 96.3323 176.548 104.206 180.35C106.82 181.609 108.629 182.78 109.872 185.498C113.673 193.801 115.171 204.161 120.598 212.003L123.714 216.681L123.722 216.697Z" fill="#204695"/>
</svg>
