<svg width="700" height="428" viewBox="0 0 700 428" fill="none" xmlns="http://www.w3.org/2000/svg">
<path d="M649.183 162.258L638.18 173.284V184.355H649.274L660.277 173.329V162.258H649.183Z" fill="#231F20"/>
<path d="M198.939 162.258L187.936 173.284V184.355H199.03L210.033 173.329V162.258H198.939Z" fill="#231F20"/>
<path d="M620.944 162.258H615.557V230.128H620.944V162.258Z" fill="#231F20"/>
<path d="M632.009 200.672H631.508L631.804 201.074L653.575 230.13H660.275L638.231 200.778L638.155 200.679H632.001L632.009 200.672Z" fill="#231F20"/>
<path d="M101.51 206.856C97.0331 218.367 85.7265 226.1 73.3576 226.1C56.7164 226.1 43.1788 212.57 43.1788 195.936C43.1788 179.303 56.7164 165.773 73.3576 165.773C85.5292 165.773 96.7979 173.384 101.404 184.721L101.533 185.032H106.921L106.685 184.364C101.73 170.227 88.3369 160.727 73.3576 160.727C53.9315 160.727 38.125 176.525 38.125 195.936C38.125 215.347 53.9315 231.146 73.3576 231.146C88.5418 231.146 101.981 221.463 106.784 207.053L107.004 206.393H101.51V206.848V206.856Z" fill="#231F20"/>
<path d="M146.965 162.258L175.565 198.082V230.128H181.454V196.011L154.515 162.258H146.965Z" fill="#231F20"/>
<path d="M417.427 230.211L392.18 162.576L392.059 162.25H384.994L359.475 230.257H365.781L372.451 212.378H404.481L411.136 230.203H417.442L417.427 230.211ZM402.25 206.497H374.644L388.492 169.611L402.25 206.497Z" fill="#231F20"/>
<path d="M283.493 162.577L283.371 162.258H276.306L250.779 230.211H257.085L279.812 169.611L302.365 229.885L302.486 230.211H308.792L283.493 162.577Z" fill="#231F20"/>
<path d="M521.205 229.225V162.258H515.309V192.77H478.718V162.258H472.822V229.225H478.718V198.659H515.309V229.225H521.205Z" fill="#231F20"/>
<path d="M575.098 230.211H582.368L606.59 197.073L581.177 162.258H573.869L599.275 197.073L575.098 230.211Z" fill="#231F20"/>
<path d="M146.965 291.411H149.036V276.645H157.968V291.411H160.04V274.664H146.965V291.411Z" fill="#231F20"/>
<path d="M176.294 287.731V274.664H174.223V291.411H176.294L185.044 278.344V291.411H187.115V274.664H185.044L176.294 287.731Z" fill="#231F20"/>
<path d="M199.916 276.645H205.622V291.411H207.694V276.645H213.408V274.664H199.916V276.645Z" fill="#231F20"/>
<path d="M233.114 274.344C230.694 274.344 228.69 275.178 227.317 276.757C225.989 278.29 225.283 280.46 225.283 283.04C225.283 285.62 225.989 287.79 227.317 289.323C228.69 290.901 230.694 291.736 233.114 291.736C235.535 291.736 237.538 290.901 238.912 289.323C240.24 287.79 240.945 285.62 240.945 283.04C240.945 280.46 240.24 278.29 238.912 276.757C237.538 275.178 235.535 274.344 233.114 274.344ZM233.114 289.756C231.301 289.756 229.889 289.133 228.91 287.896C227.985 286.735 227.499 285.058 227.499 283.032C227.522 281.006 228.015 279.322 228.926 278.168C229.904 276.939 231.308 276.309 233.114 276.309C234.92 276.309 236.339 276.931 237.318 278.168C238.244 279.329 238.73 281.006 238.73 283.032C238.73 285.058 238.244 286.735 237.318 287.896C236.339 289.126 234.92 289.756 233.114 289.756Z" fill="#231F20"/>
<path d="M262.351 288.012L256.038 274.664H254.148V291.366H256.129V279.551L256.288 279.513L261.797 291.366H262.898L268.407 279.513L268.566 279.551V291.366H270.539V274.664H268.657L262.351 288.012Z" fill="#231F20"/>
<path d="M295.636 282.025H286.841V274.664H284.77V291.411H286.841V284.005H295.636V291.411H297.708V274.664H295.636V282.025Z" fill="#231F20"/>
<path d="M313.96 287.731V274.664H311.889V291.411H313.96L322.71 278.344V291.411H324.781V274.664H322.71L313.96 287.731Z" fill="#231F20"/>
<path d="M350.983 274.664H348.403L340.989 282.579V274.664H338.963V291.411H340.989V285.432L342.689 283.596L348.919 291.366H351.575L344.07 282.07L350.983 274.664Z" fill="#231F20"/>
<path d="M387.127 274.755C386.671 274.664 386.216 274.664 385.882 274.664H379.25V291.411H381.322V285.242H385.882C386.216 285.242 386.709 285.242 387.127 285.151C388.424 284.954 389.494 284.347 390.215 283.398C390.906 282.495 391.27 281.304 391.27 279.953C391.27 278.602 390.906 277.411 390.215 276.508C389.494 275.559 388.424 274.952 387.127 274.755ZM381.322 276.645H385.806C386.102 276.645 386.474 276.645 386.853 276.736C388.546 277.123 389.153 278.656 389.153 279.953C389.153 281.251 388.546 282.784 386.846 283.178C386.474 283.269 386.057 283.269 385.791 283.269H381.322V276.645Z" fill="#231F20"/>
<path d="M408.252 274.711L402.637 291.458H404.799L406.135 287.55H413.268L414.604 291.458H416.766L411.151 274.711H408.252ZM406.78 285.57L409.679 276.874L412.623 285.57H406.772H406.78Z" fill="#231F20"/>
<path d="M436.21 276.271C437.575 276.271 438.721 276.635 439.624 277.364C440.391 277.978 440.96 278.828 441.324 279.906L441.461 280.316L443.578 279.762L443.411 279.284C442.895 277.819 442.075 276.65 440.967 275.808C439.685 274.829 438.084 274.336 436.194 274.336C433.774 274.336 431.77 275.171 430.397 276.749C429.077 278.267 428.371 280.422 428.363 282.987C428.371 285.544 429.077 287.699 430.397 289.217C431.77 290.795 433.774 291.63 436.194 291.63C438.076 291.63 439.685 291.136 440.967 290.158C442.075 289.315 442.895 288.147 443.411 286.682L443.578 286.204L441.461 285.65L441.324 286.067C440.975 287.137 440.406 287.987 439.632 288.602C438.721 289.33 437.568 289.695 436.194 289.695C434.381 289.695 432.969 289.072 431.983 287.836C431.057 286.675 430.571 284.998 430.571 282.971C430.571 280.945 431.057 279.268 431.983 278.107C432.962 276.878 434.381 276.248 436.194 276.248L436.21 276.271Z" fill="#231F20"/>
<path d="M455.633 276.645H461.347V291.411H463.418V276.645H469.125V274.664H455.633V276.645Z" fill="#231F20"/>
<path d="M481.93 291.411H492.515V289.484H484.001V283.869H491.134V281.888H484.001V276.645H492.515V274.664H481.93V291.411Z" fill="#231F20"/>
<path d="M517.099 282.025H508.304V274.664H506.232V291.411H508.304V284.005H517.099V291.411H519.17V274.664H517.099V282.025Z" fill="#231F20"/>
<path d="M535.47 287.731V274.664H533.398V291.411H535.47L544.219 278.344V291.411H546.291V274.664H544.219L535.47 287.731Z" fill="#231F20"/>
<path d="M562.546 287.731V274.664H560.475V291.411H562.546L571.296 278.344V291.411H573.367V274.664H571.296L562.546 287.731Z" fill="#231F20"/>
<path d="M570.605 270.066H563.699V271.812H570.605V270.066Z" fill="#231F20"/>
</svg>
