<?xml version="1.0" encoding="UTF-8"?>
<svg id="Layer_2" data-name="Layer 2" xmlns="http://www.w3.org/2000/svg" viewBox="0 0 627.87 285.21">
  <defs>
    <style>
      .cls-1 {
        fill: #231f20;
      }

      .cls-2 {
        fill: #a2c241;
      }

      .cls-2, .cls-3, .cls-4, .cls-5 {
        fill-rule: evenodd;
      }

      .cls-3 {
        fill: #a6ce39;
      }

      .cls-4 {
        fill: #ffcb05;
      }

      .cls-5 {
        fill: #0095da;
      }
    </style>
  </defs>
  <g id="Layer_1-2" data-name="Layer 1">
    <g>
      <path class="cls-4" d="M133.93,43.2c-42.29,27.31-67.93,54.14-76.92,80.48-2.99-.84-5.89-1.9-8.68-3.16,12.74-29.39,39.63-58.47,83.19-83.46.9,1.99,1.71,4.04,2.41,6.14Z"/>
      <path class="cls-4" d="M48.33,120.52c-4.4-1.98-8.53-4.45-12.32-7.34-15.14-11.53-24.94-29.73-24.94-50.15C11.07,28.31,39.39,0,74.1,0c22.29,0,41.94,11.67,53.14,29.22,1.61,2.5,3.04,5.12,4.28,7.84-43.56,24.99-70.45,54.07-83.19,83.46Z"/>
      <path class="cls-4" d="M137.13,63.03c0,34.71-28.31,63.02-63.03,63.02-5.92,0-11.65-.82-17.09-2.37,8.99-26.34,34.63-53.17,76.92-80.48,2.07,6.24,3.2,12.91,3.2,19.83Z"/>
      <path class="cls-5" d="M117.79,221.6c-1.02.72-2.06,1.43-3.11,2.13-1.4-16.23-2.1-24.34-2.1-24.34.63-.35,1.24-.71,1.85-1.08,32.17-19.27,44.99-58.33,38.49-117.16-1.53-13.87-4.14-28.85-7.82-44.93-.44-1.93-.9-3.87-1.37-5.83-4.21,2.19-8.28,4.41-12.21,6.67-43.56,24.99-70.45,54.07-83.19,83.46-2.01,4.65-3.68,9.3-4.99,13.95-.28.99-.55,1.98-.8,2.97-3.68-3.75-7.9-5.42-10.54-6.15-.37-.1-.74-.19-1.12-.28-.93-.2-1.49-.25-1.49-.25.01-.04.02-.07.03-.11,1.67-5.87,3.87-11.7,6.59-17.47,15.03-31.9,45.92-61.74,91.23-83.96,6.12-3.01,12.51-5.88,19.15-8.59,32.78,97.36,23.25,164.35-28.6,200.97Z"/>
      <path class="cls-2" d="M5.3,137.76c-4.07,67.77,18.11,113.32,66.55,136.64C10.94,256.89-11.24,211.34,5.3,137.76Z"/>
      <path class="cls-3" d="M102.91,283.27c-8.87,1.18-13.31,1.77-13.31,1.77,3.5-33.37-12.47-72.71-47.91-118.01,39.4,42.94,59.81,81.69,61.22,116.24Z"/>
      <path class="cls-5" d="M113.17,194.1c-.3.22-.6.44-.91.66-7.96-22.19-27.29-41.01-57.97-56.48-.18-.09-.35-.18-.53-.27.53-4.76,1.61-9.54,3.25-14.33,8.99-26.34,34.63-53.17,76.92-80.48,3.6-2.32,7.32-4.65,11.17-6.98.64-.39,1.29-.78,1.94-1.17,3.11,16.49,5.07,31.86,5.88,46.1,3.08,53.65-10.18,91.3-39.75,112.95Z"/>
      <path class="cls-5" d="M209.73,45.12v98.49h16.18v-33.77h20.12c9.29,0,17.02-3.1,23.22-9.29,6.33-6.33,9.43-13.93,9.43-23.07s-3.09-16.89-9.43-23.08c-6.19-6.19-13.93-9.29-23.22-9.29h-36.3ZM225.91,94.64v-34.33h20.12c9.57,0,16.46,7.18,16.46,17.17s-6.9,17.16-16.46,17.16h-20.12ZM374.22,130.66c9.99-9.99,14.91-22.09,14.91-36.3s-4.93-26.31-14.91-36.16c-9.85-9.99-21.95-14.91-36.16-14.91s-26.31,4.92-36.3,14.91c-9.85,9.85-14.77,21.95-14.77,36.16s4.93,26.31,14.77,36.3c9.99,9.85,22.09,14.77,36.3,14.77s26.31-4.92,36.16-14.77h0ZM313.15,119.69c-6.61-6.75-9.99-15.2-9.99-25.33s3.38-18.57,9.99-25.19c6.75-6.75,15.05-10.13,24.9-10.13s18.15,3.38,24.76,10.13c6.75,6.61,10.13,15.05,10.13,25.19s-3.38,18.57-10.13,25.33c-6.61,6.61-14.91,9.99-24.76,9.99s-18.15-3.38-24.9-9.99h0ZM450.48,145.44c9.01,0,17.31-2.11,24.76-6.33,7.6-4.36,13.51-10.13,17.59-17.31l-14.07-8.02c-5.07,9.71-15.9,15.9-28.28,15.9-10.55,0-19-3.38-25.61-9.99-6.47-6.61-9.71-15.05-9.71-25.33s3.24-18.71,9.71-25.33c6.61-6.61,15.06-9.99,25.61-9.99,12.38,0,23.08,6.19,28.28,15.9l14.07-8.16c-8.44-14.49-24.48-23.5-42.35-23.5-14.77,0-27.15,4.92-36.86,14.77-9.71,9.71-14.63,21.81-14.63,36.3s4.93,26.59,14.63,36.44c9.71,9.71,22.09,14.63,36.86,14.63h0ZM587.1,143.61l-35.6-98.49h-19.42l-35.74,98.49h17.59l6.89-19.84h41.93l6.89,19.84h17.45ZM541.79,64.11l15.62,44.46h-31.24l15.62-44.46Z"/>
      <path class="cls-2" d="M6.62,126.32c84.54,12.49,120.89,53.54,109.05,123.15-2.55-61.18-38.9-102.23-109.05-123.15Z"/>
      <g>
        <path class="cls-1" d="M226.18,208.87l-1.96-5.18h-10l-1.96,5.18h-2.23l8.1-21.09h2.17l8.1,21.09h-2.23ZM214.98,201.7h8.49l-4.25-11.3-4.25,11.3Z"/>
        <path class="cls-1" d="M232.9,206.06c-2.08-2.11-3.13-4.7-3.13-7.74s1.05-5.63,3.13-7.74c2.08-2.11,4.73-3.16,7.92-3.16,3.89,0,7.35,2.02,9.13,5.18l-1.87,1.08c-1.33-2.56-4.13-4.22-7.26-4.22-2.62,0-4.79.84-6.45,2.56-1.66,1.72-2.5,3.8-2.5,6.3s.84,4.58,2.5,6.3c1.66,1.72,3.83,2.56,6.45,2.56,3.13,0,5.93-1.66,7.26-4.22l1.87,1.05c-1.72,3.16-5.24,5.21-9.13,5.21-3.19,0-5.85-1.06-7.92-3.16Z"/>
        <path class="cls-1" d="M255.95,206.06c-2.08-2.11-3.13-4.7-3.13-7.74s1.05-5.63,3.13-7.74c2.08-2.11,4.73-3.16,7.92-3.16,3.89,0,7.35,2.02,9.13,5.18l-1.87,1.08c-1.33-2.56-4.13-4.22-7.26-4.22-2.62,0-4.79.84-6.45,2.56-1.66,1.72-2.5,3.8-2.5,6.3s.84,4.58,2.5,6.3c1.66,1.72,3.83,2.56,6.45,2.56,3.13,0,5.93-1.66,7.26-4.22l1.87,1.05c-1.72,3.16-5.24,5.21-9.13,5.21-3.19,0-5.85-1.06-7.92-3.16Z"/>
        <path class="cls-1" d="M286.77,209.23c-3.04,0-5.63-1.06-7.74-3.16-2.11-2.14-3.16-4.7-3.16-7.74s1.05-5.6,3.16-7.71c2.11-2.14,4.7-3.19,7.74-3.19s5.63,1.05,7.74,3.19c2.11,2.11,3.16,4.67,3.16,7.71s-1.05,5.6-3.16,7.74c-2.11,2.11-4.7,3.16-7.74,3.16ZM286.77,207.18c2.5,0,4.58-.84,6.27-2.56,1.69-1.72,2.53-3.83,2.53-6.3s-.84-4.55-2.53-6.27c-1.69-1.72-3.77-2.59-6.27-2.59s-4.58.87-6.27,2.59c-1.69,1.72-2.53,3.8-2.53,6.27s.84,4.58,2.53,6.3c1.69,1.72,3.77,2.56,6.27,2.56Z"/>
        <path class="cls-1" d="M316.96,206.88h2.26v6.02h-2.11v-4.04h-15.21v-21.09h2.11v19.1h10.85v-19.1h2.11v19.1Z"/>
        <path class="cls-1" d="M336.85,208.87v-17.17l-11.75,17.17h-1.81v-21.09h2.11v17.17l11.75-17.17h1.81v21.09h-2.11Z"/>
        <path class="cls-1" d="M358.42,208.87l-1.96-5.18h-10l-1.96,5.18h-2.23l8.1-21.09h2.17l8.1,21.09h-2.23ZM347.21,201.7h8.49l-4.25-11.3-4.25,11.3Z"/>
        <path class="cls-1" d="M379.03,206.88h2.26v6.02h-2.11v-4.04h-15.21v-21.09h2.11v19.1h10.85v-19.1h2.11v19.1Z"/>
        <path class="cls-1" d="M398.91,208.87v-17.17l-11.75,17.17h-1.81v-21.09h2.11v17.17l11.75-17.17h1.81v21.09h-2.11Z"/>
        <path class="cls-1" d="M420.31,187.78v21.09h-2.11v-8.43h-5.06l-5.78,8.43h-2.41l5.87-8.53c-1.51-.27-2.77-.96-3.77-2.14-.99-1.17-1.51-2.56-1.51-4.1,0-1.75.6-3.22,1.84-4.46,1.23-1.23,2.74-1.87,4.49-1.87h8.43ZM418.2,198.44v-8.68h-6.33c-1.17,0-2.17.42-2.98,1.27-.81.84-1.23,1.87-1.23,3.07s.42,2.2,1.23,3.07c.81.84,1.81,1.27,2.98,1.27h6.33Z"/>
        <path class="cls-1" d="M446.16,187.78h2.17l-7.02,16.48c-1.42,3.37-3.5,4.82-6.72,4.61v-1.93c2.26.24,3.64-.6,4.61-2.86l.42-.99-7.26-15.3h2.17l6.08,12.95,5.54-12.95Z"/>
        <path class="cls-1" d="M463.54,187.78h2.11v21.09h-2.11v-8.89c-1.84.9-3.74,1.35-5.72,1.35s-3.62-.57-4.82-1.69c-1.21-1.12-1.81-2.56-1.81-4.34v-7.53h2.11v7.53c0,2.44,1.66,4.04,4.52,4.04,1.99,0,3.89-.45,5.72-1.35v-10.21Z"/>
        <path class="cls-1" d="M485.12,208.87l-1.96-5.18h-10l-1.96,5.18h-2.23l8.1-21.09h2.17l8.1,21.09h-2.23ZM473.91,201.7h8.49l-4.25-11.3-4.25,11.3Z"/>
        <path class="cls-1" d="M491.84,206.06c-2.08-2.11-3.13-4.7-3.13-7.74s1.05-5.63,3.13-7.74c2.08-2.11,4.73-3.16,7.92-3.16,3.89,0,7.35,2.02,9.13,5.18l-1.87,1.08c-1.33-2.56-4.13-4.22-7.26-4.22-2.62,0-4.79.84-6.45,2.56-1.66,1.72-2.5,3.8-2.5,6.3s.84,4.58,2.5,6.3c1.66,1.72,3.83,2.56,6.45,2.56,3.13,0,5.93-1.66,7.26-4.22l1.87,1.05c-1.72,3.16-5.24,5.21-9.13,5.21-3.19,0-5.85-1.06-7.92-3.16Z"/>
        <path class="cls-1" d="M525.91,187.78v1.99h-6.48v19.1h-2.11v-19.1h-6.48v-1.99h15.06Z"/>
        <path class="cls-1" d="M543.09,187.78h2.11v21.09h-2.11v-9.85h-11.45v9.85h-2.11v-21.09h2.11v9.25h11.45v-9.25Z"/>
        <path class="cls-1" d="M564.18,208.87v-17.17l-11.75,17.17h-1.81v-21.09h2.11v17.17l11.75-17.17h1.81v21.09h-2.11Z"/>
        <path class="cls-1" d="M586.47,208.87h-2.77l-9.88-10.21v10.21h-2.11v-21.09h2.11v9.64l9.58-9.64h2.77l-10.12,10.24,10.42,10.85Z"/>
        <path class="cls-1" d="M597.68,209.23c-3.04,0-5.63-1.06-7.74-3.16-2.11-2.14-3.16-4.7-3.16-7.74s1.05-5.6,3.16-7.71c2.11-2.14,4.7-3.19,7.74-3.19s5.63,1.05,7.74,3.19c2.11,2.11,3.16,4.67,3.16,7.71s-1.05,5.6-3.16,7.74c-2.11,2.11-4.7,3.16-7.74,3.16ZM597.68,207.18c2.5,0,4.58-.84,6.27-2.56,1.69-1.72,2.53-3.83,2.53-6.3s-.84-4.55-2.53-6.27c-1.69-1.72-3.77-2.59-6.27-2.59s-4.58.87-6.27,2.59c-1.69,1.72-2.53,3.8-2.53,6.27s.84,4.58,2.53,6.3c1.69,1.72,3.77,2.56,6.27,2.56Z"/>
        <path class="cls-1" d="M627.87,202.99c0,1.63-.57,3.01-1.72,4.16-1.14,1.15-2.53,1.72-4.16,1.72h-9.19v-21.09h8.49c1.57,0,2.89.57,4.01,1.69,1.11,1.11,1.66,2.44,1.66,3.98,0,1.96-.81,3.46-2.47,4.49,2.05.87,3.37,2.77,3.37,5.06ZM614.92,189.77v7.35h6.39c.99,0,1.81-.36,2.5-1.05.69-.72,1.05-1.6,1.05-2.62s-.36-1.87-1.05-2.59c-.69-.72-1.51-1.08-2.5-1.08h-6.39ZM622,206.88c1.05,0,1.93-.36,2.65-1.11.75-.75,1.11-1.69,1.11-2.77s-.36-1.99-1.11-2.74c-.72-.75-1.6-1.14-2.65-1.14h-7.08v7.77h7.08Z"/>
        <path class="cls-1" d="M219.68,223.93c1.9,0,3.46.63,4.73,1.9,1.27,1.27,1.9,2.83,1.9,4.73s-.63,3.46-1.9,4.73c-1.27,1.27-2.83,1.9-4.73,1.9h-5.42v7.83h-2.11v-21.09h7.53ZM219.68,235.2c1.3,0,2.38-.42,3.22-1.3.87-.87,1.3-1.99,1.3-3.34s-.42-2.44-1.3-3.31c-.84-.87-1.93-1.33-3.22-1.33h-5.42v9.28h5.42Z"/>
        <path class="cls-1" d="M230.52,245.02v-21.09h2.11v7.83h5.42c1.9,0,3.46.63,4.73,1.9,1.27,1.27,1.9,2.83,1.9,4.73s-.63,3.46-1.9,4.73c-1.27,1.27-2.83,1.9-4.73,1.9h-7.53ZM232.63,243.03h5.42c1.3,0,2.38-.42,3.22-1.3.87-.87,1.3-1.99,1.3-3.34s-.42-2.44-1.3-3.31c-.84-.87-1.93-1.33-3.22-1.33h-5.42v9.28ZM246.94,245.02v-21.09h2.11v21.09h-2.11Z"/>
        <path class="cls-1" d="M268.03,223.93h2.11v21.09h-2.11v-9.85h-11.45v9.85h-2.11v-21.09h2.11v9.25h11.45v-9.25Z"/>
        <path class="cls-1" d="M290.33,245.02h-2.77l-9.88-10.21v10.21h-2.11v-21.09h2.11v9.64l9.58-9.64h2.77l-10.12,10.24,10.42,10.85Z"/>
        <path class="cls-1" d="M307.98,245.02l-1.96-5.18h-10l-1.96,5.18h-2.23l8.1-21.09h2.17l8.1,21.09h-2.23ZM296.78,237.85h8.49l-4.25-11.3-4.25,11.3Z"/>
        <path class="cls-1" d="M335.7,245.02l-1.96-5.18h-10l-1.96,5.18h-2.23l8.1-21.09h2.17l8.1,21.09h-2.23ZM324.49,237.85h8.49l-4.25-11.3-4.25,11.3Z"/>
        <path class="cls-1" d="M356.31,239.15c0,1.63-.57,3.01-1.72,4.16-1.14,1.14-2.53,1.72-4.16,1.72h-9.19v-21.09h8.49c1.57,0,2.89.57,4.01,1.69,1.11,1.11,1.66,2.44,1.66,3.98,0,1.96-.81,3.46-2.47,4.49,2.05.87,3.37,2.77,3.37,5.06ZM343.36,225.92v7.35h6.39c.99,0,1.81-.36,2.5-1.05.69-.72,1.05-1.6,1.05-2.62s-.36-1.87-1.05-2.59c-.69-.72-1.51-1.08-2.5-1.08h-6.39ZM350.44,243.03c1.05,0,1.93-.36,2.65-1.11.75-.75,1.11-1.69,1.11-2.77s-.36-1.99-1.11-2.74c-.72-.75-1.6-1.14-2.65-1.14h-7.08v7.77h7.08Z"/>
        <path class="cls-1" d="M373.18,223.93v1.99h-6.48v19.1h-2.11v-19.1h-6.48v-1.99h15.06Z"/>
        <path class="cls-1" d="M385.3,245.38c-3.04,0-5.63-1.06-7.74-3.16-2.11-2.14-3.16-4.7-3.16-7.74s1.05-5.6,3.16-7.71c2.11-2.14,4.7-3.19,7.74-3.19s5.63,1.05,7.74,3.19c2.11,2.11,3.16,4.67,3.16,7.71s-1.05,5.6-3.16,7.74c-2.11,2.11-4.7,3.16-7.74,3.16ZM385.3,243.33c2.5,0,4.58-.84,6.27-2.56,1.69-1.72,2.53-3.83,2.53-6.3s-.84-4.55-2.53-6.27c-1.69-1.72-3.77-2.59-6.27-2.59s-4.58.87-6.27,2.59c-1.69,1.72-2.53,3.8-2.53,6.27s.84,4.58,2.53,6.3c1.69,1.72,3.77,2.56,6.27,2.56Z"/>
        <path class="cls-1" d="M415.49,223.93v21.09h-2.11v-19.1h-10.85v19.1h-2.11v-21.09h15.06Z"/>
        <path class="cls-1" d="M430.61,245.38c-3.04,0-5.63-1.06-7.74-3.16-2.11-2.14-3.16-4.7-3.16-7.74s1.05-5.6,3.16-7.71c2.11-2.14,4.7-3.19,7.74-3.19s5.63,1.05,7.74,3.19c2.11,2.11,3.16,4.67,3.16,7.71s-1.05,5.6-3.16,7.74c-2.11,2.11-4.7,3.16-7.74,3.16ZM430.61,243.33c2.5,0,4.58-.84,6.27-2.56,1.69-1.72,2.53-3.83,2.53-6.3s-.84-4.55-2.53-6.27c-1.69-1.72-3.77-2.59-6.27-2.59s-4.58.87-6.27,2.59c-1.69,1.72-2.53,3.8-2.53,6.27s.84,4.58,2.53,6.3c1.69,1.72,3.77,2.56,6.27,2.56Z"/>
        <path class="cls-1" d="M442.57,243.15c1.48.21,2.56-.24,3.28-1.36.75-1.11,1.11-3.16,1.11-6.14v-11.72h13.68v21.09h-2.11v-19.1h-9.46v9.79c0,7.83-2.56,9.61-6.51,9.31v-1.87Z"/>
        <path class="cls-1" d="M479.63,245.02v-17.17l-11.75,17.17h-1.81v-21.09h2.11v17.17l11.75-17.17h1.81v21.09h-2.11Z"/>
        <path class="cls-1" d="M502.23,239.15c0,1.63-.57,3.01-1.72,4.16-1.14,1.14-2.53,1.72-4.16,1.72h-9.19v-21.09h8.5c1.57,0,2.89.57,4.01,1.69,1.11,1.11,1.66,2.44,1.66,3.98,0,1.96-.81,3.46-2.47,4.49,2.05.87,3.37,2.77,3.37,5.06ZM489.27,225.92v7.35h6.39c.99,0,1.81-.36,2.5-1.05.69-.72,1.05-1.6,1.05-2.62s-.36-1.87-1.05-2.59c-.69-.72-1.51-1.08-2.5-1.08h-6.39ZM496.35,243.03c1.05,0,1.93-.36,2.65-1.11.75-.75,1.11-1.69,1.11-2.77s-.36-1.99-1.11-2.74c-.72-.75-1.6-1.14-2.65-1.14h-7.08v7.77h7.08Z"/>
        <path class="cls-1" d="M520.49,245.02l-1.96-5.18h-10l-1.96,5.18h-2.23l8.1-21.09h2.17l8.1,21.09h-2.23ZM509.28,237.85h8.49l-4.25-11.3-4.25,11.3Z"/>
        <path class="cls-1" d="M547.73,245.02v-17.17l-11.75,17.17h-1.81v-21.09h2.11v17.17l11.75-17.17h1.81v21.09h-2.11Z"/>
        <path class="cls-1" d="M210.19,279.31c1.48.21,2.56-.24,3.28-1.36.75-1.11,1.11-3.16,1.11-6.14v-11.72h13.68v21.09h-2.11v-19.1h-9.46v9.79c0,7.83-2.56,9.61-6.51,9.31v-1.87Z"/>
        <path class="cls-1" d="M247.73,281.18l-1.96-5.18h-10l-1.96,5.18h-2.23l8.1-21.09h2.17l8.1,21.09h-2.23ZM236.52,274.01h8.49l-4.25-11.3-4.25,11.3Z"/>
        <path class="cls-1" d="M266.83,260.09h2.11v21.09h-2.11v-9.85h-11.45v9.85h-2.11v-21.09h2.11v9.25h11.45v-9.25Z"/>
        <path class="cls-1" d="M289.42,279.19h2.26v6.02h-2.11v-4.04h-15.06v4.04h-2.11v-6.02h1.72c1.39-1.63,2.08-4.13,2.08-7.53v-11.57h13.22v19.1ZM287.32,279.19v-17.11h-9.01v9.64c0,3.34-.57,5.81-1.69,7.47h10.69Z"/>
        <path class="cls-1" d="M317.44,260.09h2.11v21.09h-23.8v-21.09h2.11v19.1h8.74v-19.1h2.11v19.1h8.74v-19.1Z"/>
        <path class="cls-1" d="M339.02,281.18l-1.96-5.18h-10l-1.96,5.18h-2.23l8.1-21.09h2.17l8.1,21.09h-2.23ZM327.81,274.01h8.5l-4.25-11.3-4.25,11.3Z"/>
        <path class="cls-1" d="M354.71,281.18h-2.11v-2.38c-3.04-.15-5.51-.9-7.38-2.32-1.84-1.42-2.77-3.34-2.77-5.84s.93-4.43,2.77-5.85c1.87-1.42,4.34-2.17,7.38-2.32v-2.38h2.11v2.38c3.04.15,5.51.9,7.35,2.32,1.87,1.42,2.8,3.34,2.8,5.85s-.93,4.43-2.8,5.84c-1.84,1.42-4.31,2.17-7.35,2.32v2.38ZM352.61,264.4c-4.94.24-8.04,2.38-8.04,6.24s3.1,5.99,8.04,6.24v-12.47ZM354.71,276.87c4.94-.24,8.04-2.38,8.04-6.24s-3.1-5.99-8.04-6.24v12.47Z"/>
        <path class="cls-1" d="M380.54,260.09v1.99h-6.48v19.1h-2.11v-19.1h-6.48v-1.99h15.06Z"/>
        <path class="cls-1" d="M397.71,260.09h2.11v21.09h-2.11v-9.85h-11.45v9.85h-2.11v-21.09h2.11v9.25h11.45v-9.25Z"/>
        <path class="cls-1" d="M414.95,281.54c-3.04,0-5.63-1.06-7.74-3.16-2.11-2.14-3.16-4.7-3.16-7.74s1.05-5.6,3.16-7.71c2.11-2.14,4.7-3.19,7.74-3.19s5.63,1.05,7.74,3.19c2.11,2.11,3.16,4.67,3.16,7.71s-1.05,5.6-3.16,7.74c-2.11,2.11-4.7,3.16-7.74,3.16ZM414.95,279.49c2.5,0,4.58-.84,6.27-2.56,1.69-1.72,2.53-3.83,2.53-6.3s-.84-4.55-2.53-6.27c-1.69-1.72-3.77-2.59-6.27-2.59s-4.58.87-6.27,2.59c-1.69,1.72-2.53,3.8-2.53,6.27s.84,4.58,2.53,6.3c1.69,1.72,3.77,2.56,6.27,2.56Z"/>
        <path class="cls-1" d="M441.82,260.09v1.99h-9.64v19.1h-2.11v-21.09h11.75Z"/>
        <path class="cls-1" d="M453.63,281.54c-3.04,0-5.63-1.06-7.74-3.16-2.11-2.14-3.16-4.7-3.16-7.74s1.05-5.6,3.16-7.71c2.11-2.14,4.7-3.19,7.74-3.19s5.63,1.05,7.74,3.19c2.11,2.11,3.16,4.67,3.16,7.71s-1.05,5.6-3.16,7.74c-2.11,2.11-4.7,3.16-7.74,3.16ZM453.63,279.49c2.5,0,4.58-.84,6.27-2.56,1.69-1.72,2.53-3.83,2.53-6.3s-.84-4.55-2.53-6.27c-1.69-1.72-3.77-2.59-6.27-2.59s-4.58.87-6.27,2.59c-1.69,1.72-2.53,3.8-2.53,6.27s.84,4.58,2.53,6.3c1.69,1.72,3.77,2.56,6.27,2.56Z"/>
        <path class="cls-1" d="M491.96,279.19h2.26v6.02h-2.11v-4.04h-15.06v4.04h-2.11v-6.02h1.72c1.39-1.63,2.08-4.13,2.08-7.53v-11.57h13.22v19.1ZM489.85,279.19v-17.11h-9.01v9.64c0,3.34-.57,5.81-1.69,7.47h10.69Z"/>
        <path class="cls-1" d="M511.84,281.18v-17.17l-11.75,17.17h-1.81v-21.09h2.11v17.17l11.75-17.17h1.81v21.09h-2.11Z"/>
        <path class="cls-1" d="M532.78,275.48c0,1.78-.66,3.22-1.99,4.37-1.29,1.11-3.07,1.69-5.3,1.69-4.01,0-6.39-2.02-7.32-4.76l1.81-1.02c.51,2.14,2.17,3.79,5.51,3.79s5.18-1.66,5.18-4.07-1.78-4.07-4.7-4.07h-2.41v-1.99h1.66c2.86,0,4.67-1.6,4.67-3.89s-1.75-3.83-4.55-3.83c-2.59,0-4.31,1.11-5.12,3.31l-1.75-1.02c1.05-2.56,3.28-4.28,6.87-4.28,1.99,0,3.58.57,4.82,1.69,1.23,1.11,1.84,2.5,1.84,4.16,0,2.11-.96,3.67-2.89,4.7,2.32.87,3.68,2.77,3.68,5.21Z"/>
        <path class="cls-1" d="M551.04,281.18l-1.96-5.18h-10l-1.96,5.18h-2.23l8.1-21.09h2.17l8.1,21.09h-2.23ZM539.83,274.01h8.49l-4.25-11.3-4.25,11.3Z"/>
        <path class="cls-1" d="M570.14,281.18v-17.17l-11.75,17.17h-1.81v-21.09h2.11v17.17l11.75-17.17h1.81v21.09h-2.11ZM560.5,257.68v-1.75h7.83v1.75h-7.83Z"/>
        <path class="cls-1" d="M591.23,260.09h2.11v21.09h-2.11v-9.85h-11.45v9.85h-2.11v-21.09h2.11v9.25h11.45v-9.25Z"/>
        <path class="cls-1" d="M612.81,281.18l-1.96-5.18h-10l-1.96,5.18h-2.23l8.1-21.09h2.17l8.1,21.09h-2.23ZM601.6,274.01h8.49l-4.25-11.3-4.25,11.3Z"/>
      </g>
    </g>
  </g>
</svg>