<?xml version="1.0" encoding="UTF-8"?>
<svg id="Layer_2" data-name="Layer 2" xmlns="http://www.w3.org/2000/svg" viewBox="0 0 602.32 273.29">
  <defs>
    <style>
      .cls-1 {
        fill: #1e7341;
      }
    </style>
  </defs>
  <g id="Layer_1-2" data-name="Layer 1">
    <g id="__________________________.tif" data-name="_______ _________ ___ ____.tif">
      <g>
        <path class="cls-1" d="M337.3,65.66c2.42-1.77,5.56-4.53,4.57-7.87-.8-1.1-6.05-.38-7.83-.62-4-.54-10.18-5.49-13-8.38,4.01,6.43,12.04,10.63,19.88,9.64-.12,6.04-7.19,7.56-12.05,8.44-.22.29,4.67,4.87,2.43,6.34-3.32.87-6.54.1-9.66-.93.39,6.41-2.45,8.75-8.56,7.05-2.53-.71-7.57-3.92-9.25-4.03-3.51-.23-8.74,6.72-15.35,4.54-3.25-1.07-.8-4.41-2.34-6.7-1.76-1.27-9.76,3.75-9.72-1.15.01-1.77,2.04-3.48.97-5.15-.52-.82-4.54.49-6.8-.43-1.8-.74-7.02-6.88-3.97-7.88,2-.66,4.32.68,6.46.49,9.94-.9,21.24-21.4,23.43-30.22,2.11-8.49,1.2-18.2,6.21-25.73,2.29-.68,3.53,5.04,4.02,6.73,4.16,14.34,2.58,27.04,14.3,39.01-7.94-12.73-8.76-17.17-11.52-31.55-.54-2.83-2.57-16.18-6.26-15.88-2.91,1.89-3.97,5.65-4.82,8.88-1.9,7.29-1.51,14.41-4.06,21.84-2.57,7.51-13.16,25.44-21.83,25.78-3.11.12-8.43-2.71-8.1,2.01.36,5.12,6.43,9.55,11.41,8.19-.13,3.12-2.1,6.03,1.8,7.52-4.14,4.01-7.31,8.67-13.55,9.34-3.38.37-7.14-.54-10.18-.41-2.82.12-2.17,3.77-1.6,5.56,1.79,5.6,8.24,9.33,13.88,9.3,1.53,1.32-6.03,5.51-7,5.95-6.78,3.07-8.76,1.11-14.96,1.26-1.62.04-4.12,1.44-5.34,1.14-.98-.25-4.38-5.84-5.52-7.15-23.53-26.98-66.73-21.62-85.53,7.73-21.18-13.9-50.59-7.54-63.05,14.77-1.71,3.06-2.62,6.43-4.41,9.43-14.91-12.13-38.93-9.15-48.97,7.66-12.09,20.24-1.59,44.64,20.71,50.74l-.34,6.06c-18.19-.72-38.93-1.48-46.84,18.51-2.76,6.97-2.82,24.17-1.05,31.48,2.99,12.36,13.89,21.65,26.48,22.91,124.67.36,249.45-.27,374.03-.65,57.9-.18,116.05.93,173.81-.86,10.54-3,19.53-12.62,20.91-23.66,1.46-11.6,2.1-26.17-5.56-35.69-11.9-14.79-29.98-12.43-47.01-11.59-1.5-.26-.9-7.36-.61-8.92,12.24-3.04,22.56-11.76,25.8-24.19,7.49-28.72-21.35-49.59-47.36-38.47-12.83-23.71-39.76-30.8-63.65-18.89-18.3-24.48-53.18-30.59-77.37-10.54-1.12.93-8.15,7.75-8.47,8.43-.66,1.44.19,2.26.31,3.59l-14.45-1.2,5.12,1.19c1.71.35,7.56-.84,8.1.97-2.25,8.7-12.44,11.97-20.45,13.49-.85.91,5.47,4.48,2.08,8.41-2.35,2.72-14.28.92-17.74-.58l.6,2.4c-.95.8-8.97-3.45-10.68-4.07-19.22-7-35.83-6.49-54.77.96-5.1,2.01-7.3,4.91-13.73,3.7-5.13-.97.27-10.22-.32-10.82-8.35,3.59-13.39-3.08-18.66-8.44,1.3,5.07,5.77,14.48,4.8,19.56-.49,2.59-8.52,7.3-11.11,8.17-2.55.86-7.65,1.83-10.26,1.83-5.12.01-10.4-3.29-14.71,1.51-2.74,3.05-.54,4.99,1.26,7.67,5.75,8.55,13.91,16.55,25.19,13.67-15.35,20.12-42.46,27.02-65.47,15.77-2.4-1.17-10.87-6.43-12.27-8.22-.28-.36-.7-.58-.52-1.15,16.51-19.6,12.48-48.75-7.82-63.93,4.61-6.74,9.92-12.42,16.86-16.82,24.84-15.74,59.56-7.44,72.23,19.52,1.18.11.25-1.43.72-2.28,1.41-2.52,9.89-.79,12.52-.98,2.43-.17,5.96-1.65,8.24-2.65,2.13-.94,3.21-2.91,5.61-2.52-1.28,6.25,12.08,3.32,13.2,4.28.5,8.44,13.78,7.44,19.33,5.06,1.49-.64,2.63-1.96,4.1-2.53,7.6-2.94,10.63,2.67,16.95,3.77,3.3.58,9.97.59,12.36-2.16,1.52-1.75,1.12-6.07,2.52-6.55,3.58.11,6.37,1.52,10.01.4,1.81-.56,3.3-2.86,4.26-2.78,1.66.15,3.81,3.9,6.43,2.92l-7.82-3.91-2.72-3.91c-.53,1.7,1.73,2.44,1.54,4.51-.37,4.04-12.58,1.18-15.09.31-.02,1.85,1.88,2.83,1.57,4.84-.83,5.26-9.01,5.97-13.17,5.25-4.54-.78-8.71-5.81-13.41-5.58-2.59.13-4.91,2.76-7.35,3.78-6.14,2.59-20.63,4.06-17.04-6.49-2.83,1.95-5.31,2.02-8.65,1.73-7.77-.67-6.43-3.79-3.39-9.56-6.09,2.03-12.84-.7-15.35-6.63-2.99-7.07,4.34-3.77,9.02-4.22,10.19-.98,13.33-11.06,19.95-11.42,2.95-.16,1.24,1.62,1.53,3.14.48,2.6,3.99,3.86,6.32,4.03,5.6.39,8.12-3.98,12.54-4.22,5.46-.29,8.09,5.22,15.55,3.53,4.1-.93,3.73-5.97,5.02-6.42l8.66.52-.62-1.45c3.11-1.36-.03-4.18-.58-6.37.19-.26,5.2-1.48,6.02-1.81-1.31.95-2.33,1.91-4.22,1.81-.31,1.53,1.07,2.64,1.21,3.96.31,3.01-1.59,2.87,1.79,5.98,4.64,4.27,11.17,5.96,17.25,6.84,3.64.53,9.1-1.41,7.18,4.92-1.6,5.29-9.25,8.21-14.18,9.01-.07,3.03,2.37,2.66,3.83,3.69,4.79,3.36,11.59,5.26,17.58,5.36.69.01,5.46-.46,5.66-.66.13-.13-.04-1.6.35-2.34,1.36-2.66,9.72-9.68,12.5-11.61,17.19-11.91,38.52-13.05,56.85-2.98,6.74,3.7,13.36,9.13,18.05,15.21,23.76-11.27,51-4.25,64.05,18.96,11.04-4.19,23.17-3.28,33.33,2.79,22.61,13.53,21.36,47.63-1.8,60-1.91,1.02-7.86,2.78-8.63,3.42-1.09.91-.46,3.18-.59,4.53h25.6c1.46,0,8.05,2.17,9.74,2.9,10.52,4.53,16.99,14.52,19.47,25.4v20.48c-1.12,1.89-.98,4.39-1.63,6.51-3.32,10.82-11.97,18.43-22.93,21.03-172.71,1.5-345.71.43-518.4,2-18.47.17-39.3,3.54-52.11-12.39-3.8-4.72-5.15-9.81-7.24-15.35v-25.3c3.28-9.29,8.87-17.71,18.05-22,9.84-4.6,20.82-3.31,31.34-2.69.92-4.28-3.46-4.22-6.43-5.92-9.36-5.37-15.83-13.42-18-24.16-6.33-31.37,28.25-53.04,54.24-35.58,4.19-8.6,9.06-16.52,16.97-22.17,16.05-11.47,34.89-11,51.95-1.94,20.24-32.38,71.95-33.25,91.42.64,6.09-.5,13.75,1.29,19.28-1.69,1.16-.63,1.95-1.67,2.98-2.46.58-.45,4.01-1.21,1.11-1.86-4.84-1.09-10.53-4.57-11.93-9.76-2.59-9.59,4.97-5.78,10.12-5.87,3.79-.06,11.6-3.92,13.29-7.29.66-1.33-1.24-2.69-1.38-3.99-.15-1.37,1.2-2.45,1.04-3.83-5.62,3.3-13.92-8.75-9.95-12.66,2.09-2.06,8.11,2.12,13.58-2.08,8.88-6.83,16.34-21.71,17.9-32.7.31-2.18-.1-4.34.23-6.4.54-3.43,3.39-17.68,8.94-15.14,5.15,2.35,5.83,19.41,6.81,24.54,2.06,10.83,11.87,31.61,24.86,31.81,2.72.04,7.15-2.47,6.94,2.67-.13,3.32-3.41,5.27-6.07,6.34ZM359.43,85.68c-6.06-1.08-11.97-.85-17.91-3.15,0,.83,1.76,1.24,2.43,1.48,4.8,1.68,10,1.76,15.04,2.13l-1.8,5.42c1.68-.72,3.86-4.54,2.25-5.88Z"/>
        <path class="cls-1" d="M31.02,267.43c-14.95-1.51-24.68-13.41-25.63-27.98-1.28-19.66,3.57-37.13,25.6-40.11l199.09.02c1.42,29.22,21.44,54.75,48.91,64.02l17.94,4.04H31.02ZM49.39,214.43h-24.09v30.72l3.24-.07.84-.83c.02-.24-.47-.45-.47-.6v-25.3l.9-.9h15.06l.9.9v25.3c0,.15-.49.36-.47.6l.84.83,3.24.07v-30.72ZM105.85,222.41c-9.87,1.66-10.71,18.67-2.39,21.98,18.64,7.41,21.08-25.12,2.39-21.98ZM59.63,222.86h-3.61v22.29l3.2-.12,11.26-16.75v16.86h3.61v-22.29c-1.59.09-3.21-.46-4.51.61-2.14,1.77-6.68,11.99-9.06,15.03-.18.23-.32.47-.58.62-1.85.15-.29-.65-.29-.9v-15.36ZM95.77,222.86h-18.07l.07,2.04.92.89,6.24.08.08,18.29c.46,1.39,2.36.97,3.53.99v-19.27h7.23s0-3.01,0-3.01ZM123.47,222.86v22.29l3.61-.9v-16.26c0-.61-1.56-1.26.6-.9.75,2.76,4.73,17.33,6.43,17.97.66.25,1.54.11,2.26.14l6.98-17.51v17.47h3.61v-22.29l-5.32.1-6.13,17.37c-.85-.07-.95-.88-1.22-1.48-2.13-4.65-3.3-10.97-4.85-15.92l-5.97-.06ZM156.6,222.86h-3.61v22.29h3.61v-10.24h10.84v10.24l3.61-.9v-21.38h-3.61v9.03h-10.84v-9.03ZM177.08,222.86v22.29l3.91-.61,10.55-16.26v16.86h3.61v-22.29c-1.06.09-2.3-.2-3.32,0-2.55.48-8.73,14.68-11.74,16.87v-15.96c0-.13.9-.68.6-.9h-3.61ZM204.79,222.87h-4.22c1.17,6.93.64,14.62.26,21.69.62.91,3.06.91,3.69,0,.3-.43-1.46-10.14.56-10.24,5.61,2.07,5.23,11.97,11.75,10.82l-5.16-8.98-3.26-2.76c4.37-1.48,2.57-8.68,7.83-7.52v-3.02c-7.25-1.51-5.84,7.15-10.54,9.67-2.52,0-1.61-8.01-.91-9.66Z"/>
        <path class="cls-1" d="M305.98,267.43l13.38-2.58c30.05-7.52,52.41-34.41,54.08-65.48l198.49-.02c23.1,3.18,27.02,20.9,25.6,41.31-.89,12.8-11.95,26.78-25.63,26.78h-265.92ZM400.84,214.43c-4.18-.84-10.88.62-15.36,0v30.72h12.95c.23,0,3.93-.84,4.42-1,7.03-2.38,7.75-13.13.1-15.27,5.63-3.73,4.49-13.12-2.11-14.45ZM432.46,245.15c-1.95-5.46,1.85-18.69-3.79-21.8-4.75-2.62-15.01-1.13-15.48,5.54l3.59.59c.18-6.09,12-5.5,11.5.32-.2,2.34-8.12,2.38-10.3,2.99-2.47.7-4.92,2.07-5.36,4.88-1.49,9.43,10.54,9.23,15.62,4.48l.68,2.94,3.54.07ZM568.43,222.41c-11.29,1.92-10.7,21.46-.16,22.75,18.34,2.24,16.33-25.51.16-22.75ZM441.5,222.86h-3.61v22.29h28.31v-22.29h-3.61v19.27l-8.77-.56c-.26-6.09-.84-12.78.34-18.7h-3.91s.04,18.7.04,18.7l-8.77.56v-19.27ZM480.05,240.33c-1.33-3.46-3.76-14.51-5.73-16.87-.86-1.04-2.69-.52-3.92-.6l8.28,22.08c-.95,4.04-2.44,6.45-7.08,5.62,1.37,6.65,6.38,3.34,8.75-1.2,4.1-7.85,6.38-18.26,9.92-26.51l-3.53.08c-2.06,5.17-3.53,10.65-5.54,15.84-.24.63-.23,1.45-1.16,1.54ZM510.16,222.86h-18.07v3.01s7.23,0,7.23,0v19.27c1.17-.02,3.07.41,3.53-.99l.08-18.29,6.24-.08.92-.89.07-2.04ZM517.39,222.86h-3.61v22.29l3.2-.11,11.26-16.75v16.86h3.61v-22.29c-1.13.19-3.22-.38-4.1.13-1.77,1.03-7.38,14.26-10.36,16.14v-16.26ZM541.48,222.86h-3.61v22.29h3.61v-10.24h10.84v10.24l3.61-.9v-21.38h-3.61v9.03h-10.84v-9.03Z"/>
        <path class="cls-1" d="M365.09,139.06c-1-1.56,1.24-15.97,2.29-18.32,1.53-3.43,7.22-5.4,8.34-10.94.33-1.65-.23-3.48.44-4.98s8.56-8.28,10.33-9.55c24.02-17.19,55.28-10.95,72.4,12.36.11.73-7.59,7.33-8.93,8.94-14.49,17.43-12.71,41.04,1.78,57.81-23.55,21.98-60.66,16.96-78.88-9.04,8.59-3.69,16.59-5.05,21.92-13.6,1.69-2.71,4.86-7.59.01-8.34-4.34-.67-10.07-.07-14.94-.72-5.01-.67-9.96-2.09-14.75-3.62Z"/>
        <path class="cls-1" d="M118.53,102.58c30.83-3.17,54.8,26.47,45.12,55.96-8.89,27.09-42.56,37.31-65.67,20.84-1.79-1.27-6.7-5.12-7.67-6.78-1.43-2.44.64-5.39,1.07-8.03,1.98-12.18-1.21-21.75-8.88-31.17,4.36-16.34,19.11-29.09,36.02-30.83Z"/>
        <path class="cls-1" d="M479.32,102.58c19.21-1.81,34.83,7.23,43.41,24.23-16.41,10.37-20.52,31.77-9.82,47.87-23.58,22.33-62.01,11.04-69.91-20.47-6.12-24.42,11.28-49.26,36.32-51.62Z"/>
        <path class="cls-1" d="M298.62,126.07c53.27-2.79,89.74,55.49,63.85,102.4-24.7,44.75-87.75,48.54-117.22,6.64-31.59-44.93-.94-106.18,53.37-109.03ZM293.81,133.9c-26.58,2.58-48.75,25.51-52.71,51.49-7.98,52.29,50.18,89.74,94.34,60.61,53.44-35.24,24.43-118.52-41.63-112.1Z"/>
        <path class="cls-1" d="M534.72,124.25c48.23-5.78,47.96,66.67,1.65,62.46-36.52-3.32-36.5-58.28-1.65-62.46Z"/>
        <path class="cls-1" d="M54.06,126.65c45.98-6.22,48.07,63.11,5.33,63.03-38.65-.07-41.24-58.17-5.33-63.03Z"/>
        <path class="cls-1" d="M236.59,164.93c-8.78,2.04-14.5.48-20.35-6.23-1.29-1.48-6.23-8.06-6.8-9.51-.8-2.08.58-3.09,2.25-4.04,4.07-2.32,5.77-.28,9.66,0,15.54,1.13,23.23-7.12,33.12-17.45,2.21,1.47-.2,4.45.57,6,1,2.01,5.62.48,5.15,2.71-9.88,7.57-18.74,16.84-23.6,28.5Z"/>
        <path class="cls-1" d="M341.23,133.12c1.48-.34,5.37,1.2,7.24,1.22,2.2.02,3.91-1.09,6.47-.49,2.06.48,5.89,4.52,8.06,5.79,8.37,4.87,22.24,3.91,31.7,5.64l.99.85c-3.46,12.67-17.27,15.9-28.49,18.85-2.98-4.72-5.38-9.64-8.84-14.07-5.15-6.61-11.39-11.29-17.76-16.58l.63-1.2Z"/>
        <path class="cls-1" d="M129.5,196.96c.31-1.8-.69-7.19.59-8.15.59-.45,5.96-1.48,7.56-2.08,6.77-2.55,12.48-6.29,18.04-10.85,8.95,6,17.81,11.11,28.55,13.32l.08,7.75h-54.81ZM131.91,195.16h49.99l.59-4.19c-9.53-2.31-18.7-6.37-26.28-12.63-7.29,5.45-15.21,10.11-24.24,12.06l-.06,4.76Z"/>
        <path class="cls-1" d="M116.85,188.53v8.43h-51.8l.03-6.6c10.25-1.41,18.08-8.78,23.77-16.88,7.43,8.11,17.06,13.39,28.01,15.05ZM66.86,195.16h47.58l-.08-5.34c-9.98-1.85-18.46-7.17-25.81-13.93-2.91,6.28-8.72,10.87-14.85,13.77-3.14,1.48-7.89,1.33-6.84,5.51Z"/>
        <path class="cls-1" d="M230.08,196.96h-33.13l.03-7.2c14.41-1.01,27.35-7.2,37.31-17.5-2.93,7.87-4.57,16.28-4.21,24.69ZM199.37,195.16h27.41c1.39-2.33,1.19-6.21,1.68-9.16.37-2.23,1.06-4.33,1.62-6.5-8.96,6.59-19.48,11.11-30.71,12.05v3.61Z"/>
        <path class="cls-1" d="M373.44,196.96c.27-6.79-.37-13.62-2.44-20.13,3.87-1.62,1.86-11.69-2.98-9.39-.49-1.83,2.13-1.37,3.22-1.85,7.93,12.29,21.99,21.61,36.52,23.54v7.83s-34.33,0-34.33,0ZM375.85,195.16h30.12l-.06-4.16c-11.14-2.23-20.74-8.38-29.18-15.72-.84-.73-1.23-3.46-2.05-.89-1.88,5.86-.37,7.08.5,12.7.18,1.15.36,7.73.67,8.06Z"/>
        <path class="cls-1" d="M478.84,187.93v9.03h-59.03l.07-7.16c12.29-1.33,23.91-5.79,32.84-14.48,7.59,6.48,16.09,11.18,26.12,12.61ZM421.62,195.76h54.51c1.65-1.54.75-4.45.84-6.57-8.96-1.47-16.56-6.3-23.82-11.38-1.44-.14-5.04,3.57-6.65,4.58-7.6,4.8-15.86,7.72-24.85,8.58l-.03,4.79Z"/>
        <path class="cls-1" d="M533.05,196.96h-42.16v-9.64c8.76-1.03,16.88-5.39,23.19-11.43,5.08,6.13,11.79,9.31,18.97,12.34v8.73ZM492.69,195.76h39.15l-.28-6.65c-6.38-2.25-12.49-5.71-16.93-10.85-1.45-.13-4.82,3.36-6.45,4.38-4.6,2.9-10.02,5.32-15.47,5.91l-.03,7.2Z"/>
        <path class="cls-1" d="M543.29,188.53v8.43l-7.85.34c-1.27-.91-.28-6.98-.59-8.77h8.43Z"/>
        <rect class="cls-1" x="480.65" y="188.53" width="8.43" height="8.43"/>
        <rect class="cls-1" x="119.26" y="189.13" width="7.84" height="7.84"/>
        <rect class="cls-1" x="186.72" y="189.74" width="8.43" height="7.23"/>
        <polygon class="cls-1" points="418.61 196.96 410.18 196.96 410.17 189.73 418.05 190 418.61 196.96"/>
        <polygon class="cls-1" points="54.21 196.96 54.3 191.33 55.71 190.32 62.64 190.94 62.64 196.96 54.21 196.96"/>
        <path class="cls-1" d="M366.21,120.47l-2.7,18.06-7.48-5.78c-.22-.93,1.87-2.89,1.75-4.71-.13-2.07-2.29-2.68-2.4-4.56l10.84-3.01ZM364.4,122.28l-7.22,1.81c1.62,3.05,1.61,5.25.26,8.44l4.87,3.59,2.09-13.84Z"/>
        <path class="cls-1" d="M254.78,125.29l-7.82,7.22-3.01-12.05c3.18,2.36,6.58,5.34,10.84,4.82ZM247.55,129.5l3.6-2.71-4.2-2.1.6,4.81Z"/>
        <path class="cls-1" d="M371.63,174.67c-1.72.33-.97-.46-1.36-1.31-.31-.67-1.94-4.43-1.64-4.7,3.38-.36,3.11,3.63,3.01,6.02Z"/>
        <path class="cls-1" d="M106.43,225.4c11.06-2.57,11.06,16.94,2.23,17.3-8.95.36-9.26-15.67-2.23-17.3Z"/>
        <path class="cls-1" d="M400.24,230.69c3.86.68,5.28,6.35,2.74,9.19-.3.34-2.58,1.65-2.74,1.65h-11.14v-10.84c3.37.41,7.95-.57,11.14,0Z"/>
        <path class="cls-1" d="M389.1,227.08v-9.64h8.73c3.64,0,6.43,3.68,4.81,7.22-.25.55-2.62,2.42-3,2.42h-10.54Z"/>
        <path class="cls-1" d="M428.24,233.71c2.01,6.26-8.08,12.53-11.37,7.46-4.03-6.19,8.08-6.32,11.37-7.46Z"/>
        <path class="cls-1" d="M569.03,225.41c12.18-2.48,10.39,21.07-.68,16.67-6.54-2.6-5.79-15.35.68-16.67Z"/>
        <path class="cls-1" d="M295.62,135.71c47.12-4.21,80.46,44.88,58.05,86.96-21.68,40.7-80.48,41.45-103.41,1.41-21.11-36.87,3.08-84.6,45.37-88.37ZM298.74,143.36c-3.66-.43.14,7.26,1.21,6.02l-1.21-6.02ZM304.16,146.37c-1.39-.3-.96.18-1.35.77-1.85,2.85-1.29,8.35.45,11.26,1.03-.01,2.83-10.26.89-12.03ZM308.39,150.59c-.78-.31-1.39-1.14-2.11,0-1.38,2.16-1.76,14.24-1.53,17.2.08,1.06-.12,1.97.94,2.67,1.26.2,1.26-3.09,1.41-3.99.42-2.53.08-5.74.35-7.77.1-.75,1.28-1.59,1.51-3.03.33-2.09-.39-3.33-.58-5.08.39.16,2.43,1.38,2.46,1.59.29,1.75-4.15,6.29,2.35,4.43l.69,2.93,2.32.08c.11-1.04.05-1.99-.33-2.98-.34-.9-6.49-9.61-7.5-8.46.05.79-.09,1.62,0,2.41ZM298.75,157.81c-.14-.22-.86-.61-1.33-1.35-1.27-2.02-.87-5.35-3.48-4.67-.47,3.82,1.84,7.78,3.69,11.06.43.76,1.57,1.04,2.2,2.02,1.17,1.8,1.89,5.57,3.12,7.73.47.82.5,1.75,1.83,1.48.46-.55-1.09-6.73-1.52-7.81-1.14-2.9-3.03-4.8-4.5-8.45l3.31,4.81c.92-.68.91-.89.78-1.96-.23-1.93-3.69-12.41-6.19-11.88-.88.19-.8,1.08-.66,1.83.28,1.51,2.05,5.43,2.76,7.2ZM295.13,160.82c.48-.47-1.29-5.34-3.01-4.81l.03,4.14,2.97.67ZM307.36,170.63c-.76,1.08-1.5,5.88-1.43,7.37.04.98.3,3.63,1.55,2.1,1.05-1.29,1.09-3.92,1.68-5.55.95-2.63,1.55-4.69,2.39-7.24.39-1.18,1.58-2.15,1.95-3.47.78-2.77-1.03-7.87-4.55-5.03,1.41,3.08-1.43,6.66-1.17,8.92.11.99,1.2,1.72,1.19,1.83,0,.4-1.34.68-1.61,1.07ZM291.52,158.41h-1.79s-.61,6.02-.61,6.02l2.31-.99.09-5.03ZM295.12,161.44l-3,.9c-.08.39,1.92,4.73,2.38,5.27,1.34,1.58,4.58.26,4.24-1.07-.24-.95-4.83-.98-1.19-2.41l-.61-1.52-1.8.61-.02-1.79ZM319.82,162.03c-4.03-.17.25,6.85,1.81,5.42l-1.81-5.42ZM317.34,164.52c-.51-.32-2.45-.19-2.97.18l-1.76,3.65c0,1.33,5.5,1.6,5.4-1.74-.01-.39-.49-1.97-.67-2.09ZM289.72,171.06c.22-.23-.9-5.78-1.8-6.02-.17,1.81-1.05,3.8-.54,5.65.34,1.22,2.14.59,2.34.37ZM296.94,177.09c-1.47-.9-3.41-2.24-5.04-1.74l-.91,1.34,1.73,2.8c-2.71-.11-1.98-4.53-4.81-5.41.85,2.17,1.82,8.08,4.6,8.36,1.67.16,1.13-1.47.82-2.33.26-.28,5.77,5.11,6.62,2.1.57-2.01-2.08-2.38-2.7-3.33-.45-.68-.19-1.61-.31-1.78,2.35,1.44,3.82,3.36,5.42,5.73l-2.41.61c-.11.81.28,1.41.6,2.09l-7.22-.91c1.59,1.01,1.94,3,2.99,4.24.29.34,3.12,3.18,3.33,3.28,1.14.54,1.95-.14,1.43-1.42-.63-1.56-4.1-1.99-3.25-3.98,1.09,1.13,2.7,1.7,3.61,3.04.99,1.47.01,4.27,2.41,3.58,3.12-.9-2.77-6.7-3.31-7.82,2.03.28,3.49,3.03,4.23,4.82l1.19-.93-3.04-5.37c6.34-4.66-2.04-9.81-2.43-15.34l-3.59.88,5.43,9.31c-3.8-3.21-5.27-8.99-10.55-10.19l-.8,1.36c1.1,3.44,4.12,4.27,5.94,7.03ZM318.02,183.71c5.5,1.51,5.69-13.39,4.24-14.76l-4.17-.22-.68,2.33,3.6-1.2v1.8c-2.38-.25-3.96.99-5.4,2.71,2.86,2.65,4.15-.31,6.01-2.11l-1.2,6.02c-2.06-1.32-3.2-2.83-6.02-1.51-.6.28-6.89,10.07-5.12,11.74l5.43-6.62.29,1.34c1.83,1.87,2.03-1.48,3.62-1.94l-.59,2.4ZM315.94,169.94c-.99.57-2.38.36-3.32.83-1.54.77-4.63,10.06-5.24,12.22-.32,1.13-1.21,2.29.11,3.11l9.28-14.81-.83-1.35ZM281.88,193.35c2.73,1.4,5.26,3.63,8.43,3.61l-3.01-2.71,2.41.3-2.4-4.21c2.01-.29,2.09,3.54,3.3,3.01,3.45-1.53-2.8-5.1-2.71-6.62-1.79-.3-1.42,1.45-2.09,2.4-1.01-.34-2.24-2.36-2.88-2.61-.86-.32-1.9.18-2.56-.35-1.57-1.24-1.44-4.01-5.1-3.06.81.7,2.02,3,2.57,3.44.81.63,2.02.48,2.8,1.12,1.27,1.05,2.72,3.13,4.26,4.17l-4.21-2.11c-.97,2.1.43,2.12,1.2,3.61-1.89-.97-6.43-2.75-7.6-4.2-.97-1.19.07-3.71-1.86-4.85l-8.31.6c-2.01.06-2.81,5.16-1.18,5.44,3.4-2.51,7.09,3.22,11.13,2.4l-6.63-4.81c1.42-1.07,8.51,5.05,10.08,5.88,1.17.62,5.89,2.46,4.38-.47ZM280.24,184.75c.82.68,1.62.57,2.56.75,1.02.19,3.75.76,4.5-.28-.92-1.2-7.16-2.59-7.82-2.1.21.43.51,1.43.77,1.64ZM315.62,186.72c.88-5.83-5.63-.21-5.42,3.01l3-.91c-.63.61-4.61,3.19-3.61,4.52l1.8-1.2-.31,1.81c.47.86,1.48.24,1.95-.19.88-.82,6.2-7.87,6.18-8.55-.01-.41-1.04-1.14-1.61-.45l-1.98,1.96ZM275.59,186.73c-3.4.88,3.86,5.71,4.48,3.3.48-1.84-3.32-3.6-4.48-3.3ZM270.44,192.76l-6.02-1.81.35,1.86c1.15.47,2.31.55,3.54.58.67.02,2.28.38,2.12-.62ZM298.75,197.56c.36-2.12-1.97-2.87-3.35-4.19-.5-.48-.89-1.93-1.17-1.83-1.4.51-.68,1.3-.3,2.1,1.06,2.24,2.25,3.43,4.81,3.92ZM307.78,193.35l-3.31,2.4.3-1.8h-1.8c1.26,3.69-1.34,6.6-1.2,10.23,2.73-3.05,6.59-6.31,6.01-10.84ZM265.02,194.56c.22,1.53,5.78,2.93,6.02,1.49.39-2.3-4.97-1.85-6.02-1.49ZM280.08,196.36c-.45-2.04-8.43-3.33-8.42-1.5,2.27,1.52,5.81,1.42,8.42,1.5ZM286.7,198.16l-1.01-1.74-5.01.54c.25,3.22,4.08,1.32,6.02,1.2ZM317.29,199.27c2.69-1.75-3.38-3.08-4.09-2.3-1.19,1.31,1.5.94,1.2,1.79-2.26,1.2-2.84-.04-4.81-.59-.73,4.46,7.31,5.81,8.43,1.81-.54-.48-4.37,1.71-4.81,0,.98-.33,3.43-.29,4.09-.72ZM280.07,199.37l-1-1.7-8.03-.7c-.85,5.01,5.9,2.34,9.03,2.4ZM323.44,199.37c.45-.17,1.12-1.11,2.41-.6,1.03-4.38-5.74.3-6.02,0l-1.21-1.81.61,3.61c.19.17,3.56-.96,4.21-1.21-.08.03-.41.89-.97,1.11-2.25.93-4.96,1.26-5.05,4.3,3.61-1.18,4.91,1.88,7.56,2.38,6.24,1.19,12.8-.34,19.16.61.73.14.26,1.05.38,1.23-.33-.52-9.98-1.38-11.44-.6.64,1.92,11.03,2.83,11.45,2.4v-1.8c.27.42,1.9,2.4,2.4,1.8.92-4.06-2.34-3.53-3.74-5.9l-8.31.47,1.21-2.09c-.24-1.16-4.85-1.36-6.02-.91l.6,3-5.43.6c1.25-2.18,4.67,1.14,4.21-3-2.24-.23-4.56.19-6.77.21-.79,0-1.33.53-1.66-.81,1.75-.28,10.2-.21,10.23-2.11-.44-1.19-7.44-1.04-7.82-.9ZM292.73,198.17c-1.79-.9-15.53,1.81-12.65,4.81l2.4-.6-.61,2.7c.05,1.19,4.44-.31,1.22-3.3l2.41-.61-.28,2.43,1.52.93,7.2-3.97-.3-1.2-3.3.6,2.41-1.79ZM279.47,200.58c-.61-.16-5.55-.03-4.81,1.49,1.66,1.72,5.39,1.43,4.81-1.49ZM297.54,208.41c1.05-1.22,3.94-3.9.61-4.22l-1.21,2.41c.2-3.04-.44-3.38,2.4-5.12-2.19-1.01-6.3,1.53-4.82,3.91l-2.72-.6-.29,3.01c.74.69,5.28-2.61,3.61-.3l-6.01,1.81c2.97,2.37,5.75.43,8.42-.9-1.05,1.22-1.73,2.26-3.32,3.01l.62,1.21c1.88.46,5.94-4.29,5.1-5.42-.72.64-1.62.81-2.4,1.2ZM307.48,201.79c-2.9,1.6,2.66,8.95,3.61,9.01,2.38.16-2.05-3.83-2.26-4.35-.67-1.66.05-3.44-1.36-4.66ZM275.26,205.39c2.2.79,4.31,1.05,6.01-.89.06-1.3-4.32-.42-5.1-.28-.97.18-1.05-.41-.91,1.17ZM309.59,203.59c-.52,2.67.92,3.82,2.71,5.41,1.58-1.15.35-1.03.04-1.83-.16-.42-1.8-4.73-2.75-3.58ZM305.37,209.61c-.97-.7-1.5-1.71-2.4-.3l3.3,5.11c1.72-1.11-.24-3.29-.9-4.81,1.58,1.13,3.4,6.24,4.82,4.82.72-.72-3.19-7.71-4.2-8.75-.56-.58-1.99-2.29-2.42-.58-.38,1.52,1.15,3.01,1.8,4.51ZM313.7,204.93c-.37-.21-1.61-.41-1.7.17,1.75.82,3.87,9.89,6.02,8.13.28-.23.36-1.45.05-2.1-.23-.48-4.04-6.01-4.37-6.2ZM321.03,213.23c-.51-.12-1.13-.96-1.84-.35l-.58,2.15c-1.17.2-1.68-.91-2.61-1.32-3.09-1.35-.12,3.37,2.28,3.15,1.61-.15,2.86-2.11,2.74-3.64,2.73.64,4.37,3.44,6.38,5.44l2.61-.66-.56-2.97c.3.15,1.26-.19,1.76.03l.05,2.99c3.17-1.06,6.91,1.26,9.63-.91-1.57-.5-3.66-1.14-5.27-1.38-.83-.12-1.88.56-1.95.49-.11-.11.05-1.67-1.16-2.77-.38-.34-5.52-3.76-5.86-3.79-1.11-.09-1.66.97-1.35,1.97.08.26,3.79,3.2,4.15,3.38-2.65,1.24-1.41-.26-2.67-1.23-1.99-1.53-1.7-.11-3.35-2.99.37.07.78.06,1.14-.05l.41-2.37-4.87-2.99c-2.21,1.56,2.7,3.67,3.18,4.35.29.41.06.92.13,1.05-3.25-.58-5.21-6.67-9.03-6.02,1.41,1.54,2.32,3.53,3.61,5.11,1.02,1.25,2.85,1.12,3.01,3.31ZM340.3,214.44c-5.06-2.33-8.41-6.59-14.45-6.63,3.15,2.13,10.49,8.34,14.15,7.83l.3-1.2ZM306.58,216.84c-1.83-2.28-2.12-5.69-4.82-6.62l2.49,10.76,2.93.08c.13-1.45-.52-2.79-.6-4.21,1.16,1.44,1.55,2.32,3.53,1.11l.11-1.93-3.64-.99c0,.6-.04,1.21,0,1.81ZM342.72,212.03l-6.62-1.21,5.2,3.54,1.42-2.33ZM287.91,214.42c2.71,2.78,9.23-3.29,3.45-2.28-.4.07-4.43,1.27-3.45,2.28ZM301.15,212.02c-1.72-.37-1.22.85-1.23,2.13,0,1.65.75,10.02,1.28,10.77.68.97,2.16,1.3,3.26,1.56l.31-2.42,3.61,1.2v-3.61c-.46-.53-4.29,2.53-5.36-.49-.96-2.71-.84-6.28-1.87-9.15ZM349.94,212.63c-1.09-1.15-2.33,1.49-2.87,1.79-1.66.93-4.37.9-6.16,1.52,1.58,2.7,11.04-1.18,9.03-3.31ZM296.34,213.23l-4.97,2.42c-.63,2.04-8.74,3.52-8.27,5.7,1,1.32,2.86,1.15,4.2.6.44-1.36,10.39-7.42,9.04-8.72ZM298.75,213.23c-.84-.95-3.48,3.71-4.07,4.22-1.93,1.66-5.21,2.49-6.76,5.12,1.2,3.44,3.68.46,5.41-.91.65.69-6.64,7.1-3.3,7.83,1.04.22,5.78-6.47,5.14-8.06l-1.24-.67c1.09-.92,5.84-6.37,4.81-7.53ZM289.11,216.83c-.05-3.23-5.83-2.62-3.94.03l.71.53,3.22-.56ZM298.45,216.85c-.78.56-1.05,1.3-1.28,2.19-.63,2.39.08,8.38-.33,11.37-.34,2.48-3.5,6.56,2.82,4.51l.77-9.21-1.99-8.86ZM308.58,227.86c.18-.27,1.02-.41,1.47-1.2.9-1.57,1.83-4.7,1.26-6.43l-2.92-.98c-.43.36,3.81,10.57-2.41,6.02v6.02c1.99.17,1.77-2.15,2.6-3.43ZM294.39,240.18c1.44-2.07-.04-5.49.14-7.33.2-2.1,2.22-5.22,1.2-8.18-3.79,4.19-3.76,10.86-3.6,16.26.22.23,2.04-.42,2.27-.75ZM280.08,231.3c1.98-1,2.63-4.49.89-6.02-1.46-.29-.85,1.17-.89,2.1-.06,1.3.03,2.62,0,3.92ZM286.7,228.89c.24-.53.27-1.26.6-1.79-1.2.08-3.08-2.05-3.93-.64l-.29,2.43c1.19-.06,2.43.11,3.62,0-.54,1.19-5.4,7.84-4.82,8.43,2.81-1.12,3.84-3.66,6.62-5.42-.5,3-5.55,4.56-5.4,8.08,3.18,1.18.76,3.92-1.84,3.98,1.83,4.82,5.79-.67,4.51-4.2,1.07-1.1,5.64-8.49,5.13-9.05-1.05-.17-1.6.69-2.41,1.2.18-1.08-.12-2.47,0-3.61-.62.18-1.12.54-1.8.6ZM301.93,231.12c2.69,2.45,4.47-2.69,2.86-3.76l-3.63-.88,1.8,2.71-1.81.3c-.08.04.61,1.47.78,1.62ZM291.52,233.71c-1.36-.29-1.34.69-1.82,1.49-.88,1.47-3.24,6.04-.82,6.87l2.01.04.63-8.4ZM281.88,241.53c.73-2.81-.92-4.34-.29-7.22-3.08.26-1.3,9.04.29,7.22ZM302.96,234.91c-2.04-.79-3.01,1.45-4.05,1.73-1.98.53-4.14-2.04-2.89,3.7l2.14.28,4.8-5.71ZM286.71,247.56c3.85-.12,6.71-3.56,9.62-5.72-1.23-1.85-3.2.34-4.77.64l-4.85,5.08Z"/>
      </g>
    </g>
  </g>
</svg>